%FSTAX23Y23*%
%MOIN*%
%SFA1B1*%

%IPPOS*%
%ADD46R,0.047244X0.047244*%
%ADD47C,0.047244*%
%ADD48R,0.078740X0.078740*%
%ADD49C,0.078740*%
%ADD50C,0.118110*%
%ADD51R,0.059055X0.059055*%
%ADD52C,0.059055*%
%ADD53R,0.106299X0.047244*%
%ADD54R,0.047244X0.106299*%
%ADD55R,0.047244X0.047244*%
%LNpcb1-1*%
%LPD*%
G54D46*
X0612Y03085D03*
X04335Y03075D03*
X06575Y0199D03*
X0288Y01915D03*
Y03105D03*
G54D47*
X0612Y02985D03*
Y02885D03*
Y02785D03*
X0578Y0283D03*
X05745Y04225D03*
X05845D03*
X05945D03*
X06045D03*
X05745Y04325D03*
X05845D03*
X05945D03*
X04335Y02975D03*
Y02875D03*
X06475Y0229D03*
Y0219D03*
Y0209D03*
Y0199D03*
X06575Y0229D03*
Y0219D03*
Y0209D03*
X04935Y00795D03*
X04835D03*
X04735D03*
X05035Y00695D03*
X04935D03*
X04835D03*
X04735D03*
X0288Y01815D03*
Y01715D03*
Y01615D03*
X0298Y01915D03*
Y01815D03*
Y01715D03*
Y01615D03*
X0288Y03005D03*
Y02905D03*
Y02805D03*
X0298Y03105D03*
Y03005D03*
Y02905D03*
Y02805D03*
X04705Y0436D03*
X04605D03*
X04505D03*
X04805Y0426D03*
X04705D03*
X04605D03*
X04505D03*
G54D48*
X05343Y0285D03*
G54D49*
X05441Y0285D03*
X0554D03*
X05343Y02633D03*
X05441D03*
X0554D03*
G54D50*
X0264Y04595D03*
X0696Y04605D03*
Y00475D03*
X0265Y00485D03*
G54D51*
X06905Y03155D03*
G54D52*
X06905Y03255D03*
Y03355D03*
G54D53*
X02795Y04279D03*
Y04031D03*
X06498Y01168D03*
G54D54*
X02976Y04149D03*
X06628Y0135D03*
X0638D03*
G54D55*
X0578Y03022D03*
X06045Y04325D03*
X05035Y00795D03*
X04805Y0436D03*
M02*