%FSTAX23Y23*%
%MOIN*%
%SFA1B1*%

%IPPOS*%
%AMD29*
4,1,4,0.030700,0.018100,0.018100,0.030700,-0.030700,-0.018100,-0.018100,-0.030700,0.030700,0.018100,0.0*
%
%AMD30*
4,1,4,-0.018100,0.030700,-0.030700,0.018100,0.018100,-0.030700,0.030700,-0.018100,-0.018100,0.030700,0.0*
%
%AMD31*
4,1,4,-0.011700,0.024300,-0.024300,0.011700,0.011700,-0.024300,0.024300,-0.011700,-0.011700,0.024300,0.0*
1,1,0.017843,-0.018000,0.018000*
1,1,0.017843,0.018000,-0.018000*
%
%ADD23R,0.059181X0.035559*%
%ADD24R,0.035559X0.059181*%
%ADD25R,0.031622X0.069023*%
%ADD26O,0.031622X0.069023*%
%ADD27R,0.069023X0.031622*%
%ADD28O,0.069023X0.031622*%
G04~CAMADD=29~9~0.0~0.0~178.4~690.2~0.0~0.0~0~0.0~0.0~0.0~0.0~0~0.0~0.0~0.0~0.0~0~0.0~0.0~0.0~315.0~614.0~613.0*
%ADD29D29*%
G04~CAMADD=30~9~0.0~0.0~178.4~690.2~0.0~0.0~0~0.0~0.0~0.0~0.0~0~0.0~0.0~0.0~0.0~0~0.0~0.0~0.0~45.0~614.0~613.0*
%ADD30D30*%
G04~CAMADD=31~3~0.0~0.0~178.4~690.2~0.0~0.0~0~0.0~0.0~0.0~0.0~0~0.0~0.0~0.0~0.0~0~0.0~0.0~0.0~45.0~538.0~538.0*
%ADD31D31*%
%ADD32R,0.031622X0.027685*%
%ADD33R,0.055244X0.055244*%
%ADD34C,0.055244*%
%ADD35R,0.086740X0.086740*%
%ADD36C,0.086740*%
%ADD37C,0.126110*%
%ADD38R,0.067055X0.067055*%
%ADD39C,0.067055*%
%ADD40R,0.114299X0.055244*%
%ADD41R,0.055244X0.114299*%
%ADD42R,0.055244X0.055244*%
%ADD43C,0.026000*%
%ADD44C,0.058000*%
%LNpcb1-1*%
%LPD*%
G54D23*
X0551Y03831D03*
Y03878D03*
X04465Y01143D03*
Y01096D03*
X05915Y03821D03*
Y03868D03*
X0525Y03831D03*
Y03878D03*
X0494Y03821D03*
Y03868D03*
X0514Y03836D03*
Y03883D03*
X0417Y03836D03*
Y03883D03*
X0461Y03831D03*
Y03878D03*
X0449Y03831D03*
Y03878D03*
X04825Y03821D03*
Y03868D03*
X06565Y03816D03*
Y03863D03*
X04285Y03841D03*
Y03888D03*
X0645Y03811D03*
Y03858D03*
X058Y03821D03*
Y03868D03*
X05615Y03826D03*
Y03873D03*
X0612Y03816D03*
Y03863D03*
X06235Y03816D03*
Y03863D03*
X0434Y01148D03*
Y01101D03*
X0465Y0115D03*
Y01102D03*
X0495Y0116D03*
Y01112D03*
X0525Y01148D03*
Y01101D03*
X04775Y0115D03*
Y01102D03*
X0508Y01158D03*
Y01111D03*
X0536Y01155D03*
Y01107D03*
G54D24*
X06136Y0243D03*
X06183D03*
X06137Y02545D03*
X06185D03*
X03425Y0114D03*
X03377D03*
X06135Y02195D03*
X06182D03*
X06131Y02305D03*
X06178D03*
X06136Y0192D03*
X06183D03*
X06135Y0203D03*
X06182D03*
X03422Y0184D03*
X03375D03*
X03432Y0206D03*
X03385D03*
X03432Y0216D03*
X03385D03*
X0343Y01445D03*
X03383D03*
X03425Y0174D03*
X03378D03*
X03438Y0239D03*
X03391D03*
X03433Y0283D03*
X03386D03*
X03433Y0312D03*
X03386D03*
X03425Y01245D03*
X03377D03*
X03432Y01555D03*
X03385D03*
X03438Y02495D03*
X03391D03*
X03433Y02725D03*
X03386D03*
X03433Y0303D03*
X03386D03*
X0343Y03395D03*
X03382D03*
X0343Y035D03*
X03382D03*
X06136Y01782D03*
X06183D03*
X06136Y01665D03*
X06183D03*
G54D25*
X06405Y03427D03*
X05405Y0153D03*
X05105D03*
X04795D03*
X045D03*
X0478Y03427D03*
X05095D03*
X05465D03*
X0576D03*
X04125D03*
X04445D03*
X0609D03*
G54D26*
X06455Y03427D03*
X06505D03*
X06555D03*
X06405Y0364D03*
X06455D03*
X06505D03*
X06555D03*
X05355Y0153D03*
X05305D03*
X05255D03*
X05405Y01317D03*
X05355D03*
X05305D03*
X05255D03*
X05055Y0153D03*
X05005D03*
X04955D03*
X05105Y01317D03*
X05055D03*
X05005D03*
X04955D03*
X04745Y0153D03*
X04695D03*
X04645D03*
X04795Y01317D03*
X04745D03*
X04695D03*
X04645D03*
X0445Y0153D03*
X044D03*
X0435D03*
X045Y01317D03*
X0445D03*
X044D03*
X0435D03*
X0483Y03427D03*
X0488D03*
X0493D03*
X0478Y0364D03*
X0483D03*
X0488D03*
X0493D03*
X05145Y03427D03*
X05195D03*
X05245D03*
X05095Y0364D03*
X05145D03*
X05195D03*
X05245D03*
X05515Y03427D03*
X05565D03*
X05615D03*
X05465Y0364D03*
X05515D03*
X05565D03*
X05615D03*
X0581Y03427D03*
X0586D03*
X0591D03*
X0576Y0364D03*
X0581D03*
X0586D03*
X0591D03*
X04175Y03427D03*
X04225D03*
X04275D03*
X04125Y0364D03*
X04175D03*
X04225D03*
X04275D03*
X04495Y03427D03*
X04545D03*
X04595D03*
X04445Y0364D03*
X04495D03*
X04545D03*
X04595D03*
X0614Y03427D03*
X0619D03*
X0624D03*
X0609Y0364D03*
X0614D03*
X0619D03*
X0624D03*
G54D27*
X05737Y02595D03*
Y0207D03*
Y0181D03*
X0385Y0109D03*
Y01395D03*
Y01695D03*
Y02015D03*
Y02345D03*
Y0268D03*
Y02985D03*
Y0335D03*
X05737Y0235D03*
G54D28*
X05737Y02545D03*
Y02495D03*
Y02445D03*
X0595Y02595D03*
Y02545D03*
Y02495D03*
Y02445D03*
X05737Y0202D03*
Y0197D03*
Y0192D03*
X0595Y0207D03*
Y0202D03*
Y0197D03*
Y0192D03*
X05737Y0176D03*
Y0171D03*
Y0166D03*
X0595Y0181D03*
Y0176D03*
Y0171D03*
Y0166D03*
X0385Y0114D03*
Y0119D03*
Y0124D03*
X03637Y0109D03*
Y0114D03*
Y0119D03*
Y0124D03*
X0385Y01445D03*
Y01495D03*
Y01545D03*
X03637Y01395D03*
Y01445D03*
Y01495D03*
Y01545D03*
X0385Y01745D03*
Y01795D03*
Y01845D03*
X03637Y01695D03*
Y01745D03*
Y01795D03*
Y01845D03*
X0385Y02065D03*
Y02115D03*
Y02165D03*
X03637Y02015D03*
Y02065D03*
Y02115D03*
Y02165D03*
X0385Y02395D03*
Y02445D03*
Y02495D03*
X03637Y02345D03*
Y02395D03*
Y02445D03*
Y02495D03*
X0385Y0273D03*
Y0278D03*
Y0283D03*
X03637Y0268D03*
Y0273D03*
Y0278D03*
Y0283D03*
X0385Y03035D03*
Y03085D03*
Y03135D03*
X03637Y02985D03*
Y03035D03*
Y03085D03*
Y03135D03*
X0385Y034D03*
Y0345D03*
Y035D03*
X03637Y0335D03*
Y034D03*
Y0345D03*
Y035D03*
X05737Y023D03*
Y0225D03*
Y022D03*
X0595Y0235D03*
Y023D03*
Y0225D03*
Y022D03*
G54D29*
X04972Y02857D03*
X04986Y02843D03*
X05Y02829D03*
X05014Y02815D03*
X05028Y02801D03*
X05042Y02787D03*
X05056Y02773D03*
X0507Y0276D03*
X05083Y02746D03*
X05097Y02732D03*
X05111Y02718D03*
X05125Y02704D03*
X05139Y0269D03*
X05153Y02676D03*
X05167Y02662D03*
X05181Y02648D03*
X04876Y02343D03*
X04862Y02357D03*
X04848Y02371D03*
X04834Y02385D03*
X0482Y02399D03*
X04806Y02413D03*
X04792Y02427D03*
X04778Y0244D03*
X04764Y02454D03*
X0475Y02468D03*
X04737Y02482D03*
X04723Y02496D03*
X04709Y0251D03*
X04695Y02524D03*
X04681Y02538D03*
X04667Y02552D03*
G54D30*
X05181Y02552D03*
X05167Y02538D03*
X05153Y02524D03*
X05139Y0251D03*
X05125Y02496D03*
X05111Y02482D03*
X05097Y02468D03*
X05083Y02454D03*
X0507Y0244D03*
X05056Y02427D03*
X05042Y02413D03*
X05028Y02399D03*
X05014Y02385D03*
X05Y02371D03*
X04986Y02357D03*
X04972Y02343D03*
X04667Y02648D03*
X04681Y02662D03*
X04695Y02676D03*
X04709Y0269D03*
X04723Y02704D03*
X04737Y02718D03*
X0475Y02732D03*
X04764Y02746D03*
X04778Y0276D03*
X04792Y02773D03*
X04806Y02787D03*
X0482Y02801D03*
X04834Y02815D03*
X04848Y02829D03*
X04862Y02843D03*
G54D31*
X04876Y02857D03*
G54D32*
X0588Y03025D03*
X05865Y029D03*
G54D33*
X0612Y03085D03*
X04335Y03075D03*
X06575Y0199D03*
X0288Y01915D03*
Y03105D03*
G54D34*
X0612Y02985D03*
Y02885D03*
Y02785D03*
X0578Y0283D03*
X05745Y04225D03*
X05845D03*
X05945D03*
X06045D03*
X05745Y04325D03*
X05845D03*
X05945D03*
X04335Y02975D03*
Y02875D03*
X06475Y0229D03*
Y0219D03*
Y0209D03*
Y0199D03*
X06575Y0229D03*
Y0219D03*
Y0209D03*
X04935Y00795D03*
X04835D03*
X04735D03*
X05035Y00695D03*
X04935D03*
X04835D03*
X04735D03*
X0288Y01815D03*
Y01715D03*
Y01615D03*
X0298Y01915D03*
Y01815D03*
Y01715D03*
Y01615D03*
X0288Y03005D03*
Y02905D03*
Y02805D03*
X0298Y03105D03*
Y03005D03*
Y02905D03*
Y02805D03*
X04705Y0436D03*
X04605D03*
X04505D03*
X04805Y0426D03*
X04705D03*
X04605D03*
X04505D03*
G54D35*
X05343Y0285D03*
G54D36*
X05441Y0285D03*
X0554D03*
X05343Y02633D03*
X05441D03*
X0554D03*
G54D37*
X0264Y04595D03*
X0696Y04605D03*
Y00475D03*
X0265Y00485D03*
G54D38*
X06905Y03155D03*
G54D39*
X06905Y03255D03*
Y03355D03*
G54D40*
X02795Y04279D03*
Y04031D03*
X06498Y01168D03*
G54D41*
X02976Y04149D03*
X06628Y0135D03*
X0638D03*
G54D42*
X0578Y03022D03*
X06045Y04325D03*
X05035Y00795D03*
X04805Y0436D03*
G54D43*
X0458Y0283D03*
X04977Y02207D03*
X05335Y02735D03*
X05985Y03022D03*
X056Y02775D03*
X0486Y02625D03*
X06381Y0139D03*
X06376Y01395D03*
X05115Y02375D03*
X04985Y0251D03*
X0495Y0229D03*
X04907Y02292D03*
X0514Y0233D03*
X04709Y0236D03*
X0467Y02785D03*
X04795Y0291D03*
X05205Y02825D03*
X04532Y02743D03*
G54D44*
X0353Y02445D03*
X0518Y00985D03*
X044Y01215D03*
X04695Y01207D03*
X05305Y01215D03*
X05005Y0122D03*
X06275Y0184D03*
X06055Y0171D03*
Y01965D03*
X0606Y02245D03*
X06055Y0249D03*
X06335Y03965D03*
X0651Y0374D03*
X06185Y03733D03*
X0587Y03745D03*
X05555Y0375D03*
X05065Y039D03*
X052Y03775D03*
X04885Y0376D03*
X0455Y0377D03*
X04225D03*
X0354Y0119D03*
X0353Y01495D03*
Y018D03*
Y0212D03*
Y02775D03*
X03185Y03285D03*
X0353Y0309D03*
Y0345D03*
M02*