%FSTAX23Y23*%
%MOIN*%
%SFA1B1*%

%IPPOS*%
%ADD9500C,0.009000*%
%ADD9501C,0.023622*%
%ADD9502C,0.028000*%
%ADD9503C,0.039370*%
%ADD9504C,0.043307*%
%LNpcb1-plated-1*%
%LPD*%
G54D9500*
X06381Y0139D03*
X06376Y01395D03*
X05985Y03022D03*
X056Y02775D03*
X05335Y02735D03*
X05205Y02825D03*
X04795Y0291D03*
X0486Y02625D03*
X04985Y0251D03*
X0495Y0229D03*
X04907Y02292D03*
X04977Y02207D03*
X0514Y0233D03*
X05115Y02375D03*
X04709Y0236D03*
X0467Y02785D03*
X0458Y0283D03*
X04532Y02743D03*
G54D9501*
X04735Y00695D03*
Y00795D03*
X04835D03*
X04935D03*
X05035D03*
Y00695D03*
X04935D03*
X04835D03*
X06475Y0199D03*
Y0209D03*
Y0219D03*
Y0229D03*
X06575D03*
Y0219D03*
Y0209D03*
Y0199D03*
X0612Y02785D03*
Y02885D03*
Y02985D03*
Y03085D03*
X0578Y03022D03*
Y0283D03*
X04335Y02875D03*
Y02975D03*
Y03075D03*
X0298Y03105D03*
X0288D03*
Y03005D03*
Y02905D03*
Y02805D03*
X0298D03*
Y02905D03*
Y03005D03*
Y01915D03*
X0288D03*
Y01815D03*
Y01715D03*
Y01615D03*
X0298D03*
Y01715D03*
Y01815D03*
X04505Y0426D03*
Y0436D03*
X04605D03*
Y0426D03*
X04705D03*
Y0436D03*
X04805D03*
Y0426D03*
X05745Y04225D03*
X05845D03*
X05945D03*
X06045D03*
Y04325D03*
X05945D03*
X05845D03*
X05745D03*
G54D9502*
X0354Y0119D03*
X0353Y01495D03*
X044Y01215D03*
X04695Y01207D03*
X05005Y0122D03*
X05305Y01215D03*
X0518Y00985D03*
X06275Y0184D03*
X06055Y01965D03*
Y0171D03*
X0606Y02245D03*
X06055Y0249D03*
X0353Y02445D03*
Y0212D03*
Y018D03*
Y02775D03*
Y0309D03*
Y0345D03*
X03185Y03285D03*
X04225Y0377D03*
X0455D03*
X04885Y0376D03*
X05065Y039D03*
X052Y03775D03*
X05555Y0375D03*
X0587Y03745D03*
X06185Y03733D03*
X0651Y0374D03*
X06335Y03965D03*
G54D9503*
X06905Y03155D03*
Y03255D03*
Y03355D03*
G54D9504*
X05343Y02633D03*
X05441D03*
X0554D03*
Y0285D03*
X05441D03*
X05343D03*
M02*