%FSTAX23Y23*%
%MOIN*%
%SFA1B1*%

%IPPOS*%
%ADD9500C,0.009000*%
%ADD9501C,0.023622*%
%ADD9502C,0.028000*%
%ADD9503C,0.039370*%
%ADD9504C,0.043307*%
%LNpcb1-plated-1*%
%LPD*%
G54D9500*
X03841Y01015D03*
X03836Y0102D03*
X03445Y02647D03*
X0306Y024D03*
X02795Y0236D03*
X02665Y0245D03*
X02255Y02535D03*
X0232Y0225D03*
X02445Y02135D03*
X0241Y01915D03*
X02367Y01917D03*
X02437Y01832D03*
X026Y01955D03*
X02575Y02D03*
X02169Y01985D03*
X0213Y0241D03*
X0204Y02455D03*
X01992Y02368D03*
G54D9501*
X02195Y0032D03*
Y0042D03*
X02295D03*
X02395D03*
X02495D03*
Y0032D03*
X02395D03*
X02295D03*
X03935Y01615D03*
Y01715D03*
Y01815D03*
Y01915D03*
X04035D03*
Y01815D03*
Y01715D03*
Y01615D03*
X0358Y0241D03*
Y0251D03*
Y0261D03*
Y0271D03*
X0324Y02647D03*
Y02455D03*
X01795Y025D03*
Y026D03*
Y027D03*
X0044Y0273D03*
X0034D03*
Y0263D03*
Y0253D03*
Y0243D03*
X0044D03*
Y0253D03*
Y0263D03*
Y0154D03*
X0034D03*
Y0144D03*
Y0134D03*
Y0124D03*
X0044D03*
Y0134D03*
Y0144D03*
X01965Y03885D03*
Y03985D03*
X02065D03*
Y03885D03*
X02165D03*
Y03985D03*
X02265D03*
Y03885D03*
X03205Y0385D03*
X03305D03*
X03405D03*
X03505D03*
Y0395D03*
X03405D03*
X03305D03*
X03205D03*
G54D9502*
X01Y00815D03*
X0099Y0112D03*
X0186Y0084D03*
X02155Y00832D03*
X02465Y00845D03*
X02765Y0084D03*
X0264Y0061D03*
X03735Y01465D03*
X03515Y0159D03*
Y01335D03*
X0352Y0187D03*
X03515Y02115D03*
X0099Y0207D03*
Y01745D03*
Y01425D03*
Y024D03*
Y02715D03*
Y03075D03*
X00645Y0291D03*
X01685Y03395D03*
X0201D03*
X02345Y03385D03*
X02525Y03525D03*
X0266Y034D03*
X03015Y03375D03*
X0333Y0337D03*
X03645Y03358D03*
X0397Y03365D03*
X03795Y0359D03*
G54D9503*
X04365Y0278D03*
Y0288D03*
Y0298D03*
G54D9504*
X02803Y02258D03*
X02901D03*
X03D03*
Y02475D03*
X02901D03*
X02803D03*
M02*