%FSTAX23Y23*%
%MOIN*%
%SFA1B1*%

%IPPOS*%
%ADD10C,0.007874*%
%ADD11C,0.001969*%
%ADD12C,0.010000*%
%LNpcb1-1*%
%LPD*%
G36*
X03149Y03125D02*
X03149Y03125D01*
X03148Y03125*
X03148Y03125*
X03148Y03124*
X03147Y03124*
X03147Y03123*
X03146Y03122*
X03146Y03122*
X03145Y03121*
X03144Y0312*
X03143Y03118*
X03143Y03117*
X03142Y03116*
X03141Y03114*
X0314Y03113*
X03139Y03111*
X03139Y03111*
X03139Y03111*
X03138Y03111*
X03138Y0311*
X03138Y03109*
X03137Y03108*
X03137Y03107*
X03136Y03106*
X03136Y03105*
X03135Y03103*
X03134Y03102*
X03134Y031*
X03133Y03097*
X03132Y03094*
Y03093*
X03131Y03093*
X03131Y03093*
X03131Y03092*
X03131Y03092*
X03131Y03091*
X03131Y0309*
X0313Y03089*
X0313Y03088*
X0313Y03087*
X0313Y03085*
X03129Y03082*
X03129Y0308*
X03123*
Y0308*
Y0308*
Y0308*
X03123Y03081*
Y03081*
X03123Y03082*
X03123Y03083*
X03123Y03084*
X03123Y03085*
X03123Y03086*
X03123Y03087*
X03124Y03088*
X03124Y0309*
X03124Y03091*
X03125Y03094*
Y03094*
X03125Y03094*
X03125Y03095*
X03125Y03096*
X03126Y03096*
X03126Y03097*
X03126Y03098*
X03127Y03099*
X03127Y03101*
X03128Y03102*
X03129Y03105*
X0313Y03108*
X03132Y03111*
X03132Y03111*
X03132Y03111*
X03132Y03111*
X03132Y03112*
X03133Y03113*
X03133Y03113*
X03134Y03114*
X03134Y03115*
X03136Y03117*
X03137Y0312*
X03139Y03122*
X03141Y03124*
X03116*
Y0313*
X03149*
Y03125*
G37*
G36*
X03099Y0308D02*
X03093D01*
Y0312*
X03093Y0312*
X03092Y03119*
X03092Y03119*
X03091Y03118*
X0309Y03118*
X03089Y03117*
X03088Y03116*
X03087Y03115*
X03087*
X03087Y03115*
X03086Y03115*
X03085Y03114*
X03084Y03114*
X03083Y03113*
X03082Y03113*
X03081Y03112*
X0308Y03112*
Y03118*
X0308*
X0308Y03118*
X03081Y03118*
X03081Y03119*
X03081Y03119*
X03082Y03119*
X03083Y0312*
X03085Y03121*
X03086Y03122*
X03088Y03123*
X03089Y03124*
X03089Y03124*
X03089Y03124*
X0309Y03125*
X03091Y03125*
X03091Y03126*
X03092Y03127*
X03093Y03129*
X03094Y0313*
X03095Y03131*
X03099*
Y0308*
G37*
G36*
X03099Y02995D02*
X03093D01*
Y03035*
X03092Y03035*
X03092Y03034*
X03092Y03034*
X03091Y03033*
X0309Y03033*
X03089Y03032*
X03088Y03031*
X03087Y0303*
X03086*
X03086Y0303*
X03086Y0303*
X03085Y03029*
X03084Y03029*
X03083Y03028*
X03082Y03028*
X03081Y03027*
X0308Y03027*
Y03033*
X0308*
X0308Y03033*
X03081Y03033*
X03081Y03034*
X03081Y03034*
X03082Y03034*
X03083Y03035*
X03084Y03036*
X03086Y03037*
X03088Y03038*
X03089Y03039*
X03089Y03039*
X03089Y03039*
X0309Y0304*
X0309Y0304*
X03091Y03041*
X03092Y03042*
X03093Y03044*
X03094Y03045*
X03095Y03046*
X03099*
Y02995*
G37*
G36*
X03133Y03046D02*
X03133D01*
X03134Y03046*
X03135Y03046*
X03137Y03045*
X03139Y03044*
X0314Y03044*
X03141Y03043*
X03142Y03043*
X03142Y03042*
X03143Y03042*
X03143Y03042*
X03143Y03042*
X03143Y03041*
X03143Y03041*
X03144Y03041*
X03145Y03039*
X03145Y03038*
X03146Y03036*
X03146Y03035*
X03147Y03034*
X03147Y03033*
Y03032*
Y03032*
X03147Y03031*
X03146Y03031*
X03146Y03029*
X03146Y03028*
X03145Y03027*
X03145Y03026*
X03145Y03026*
X03144Y03026*
X03144Y03026*
X03143Y03025*
X03143Y03024*
X03142Y03024*
X0314Y03023*
X03139Y03022*
X03139*
X03139Y03022*
X03139Y03022*
X0314Y03022*
X03141Y03022*
X03142Y03021*
X03143Y03021*
X03144Y0302*
X03145Y03019*
X03146Y03017*
X03146Y03017*
X03147Y03017*
X03147Y03016*
X03147Y03015*
X03148Y03014*
X03148Y03012*
X03149Y03011*
X03149Y03009*
Y03009*
Y03009*
Y03009*
X03149Y03008*
X03149Y03008*
X03148Y03007*
X03148Y03005*
X03148Y03004*
X03147Y03003*
X03147Y03002*
X03146Y03001*
X03146Y03*
X03145Y02999*
X03144Y02998*
X03144Y02998*
X03144Y02998*
X03144Y02998*
X03143Y02997*
X03143Y02997*
X03142Y02997*
X03142Y02996*
X03141Y02996*
X0314Y02995*
X03139Y02995*
X03138Y02995*
X03137Y02994*
X03136Y02994*
X03134Y02994*
X03133Y02994*
X03132Y02994*
X03131*
X0313Y02994*
X0313Y02994*
X03129Y02994*
X03128Y02994*
X03127Y02994*
X03125Y02995*
X03124Y02995*
X03123Y02996*
X03122Y02996*
X03121Y02997*
X0312Y02997*
X03119Y02998*
X03119Y02998*
X03119Y02998*
X03119Y02999*
X03119Y02999*
X03118Y02999*
X03118Y03*
X03118Y03001*
X03117Y03001*
X03117Y03002*
X03116Y03003*
X03116Y03005*
X03115Y03006*
X03115Y03007*
X03115Y03008*
X03115Y03009*
Y03009*
Y0301*
Y0301*
X03115Y0301*
Y03011*
X03115Y03011*
X03115Y03012*
X03116Y03014*
X03116Y03015*
X03117Y03016*
X03117Y03018*
Y03018*
X03118Y03018*
X03118Y03018*
X03118Y03019*
X03119Y0302*
X0312Y0302*
X03122Y03021*
X03123Y03022*
X03125Y03022*
X03125*
X03124Y03022*
X03124Y03023*
X03123Y03023*
X03122Y03023*
X03121Y03024*
X03121Y03025*
X0312Y03026*
X03119Y03026*
X03119Y03027*
X03118Y03027*
X03118Y03027*
X03118Y03028*
X03118Y03029*
X03117Y0303*
X03117Y03031*
X03117Y03033*
Y03033*
Y03033*
Y03033*
X03117Y03034*
X03117Y03034*
X03117Y03035*
X03117Y03036*
X03118Y03038*
X03119Y03039*
X03119Y0304*
X0312Y03041*
X0312Y03042*
X03121Y03042*
X03121Y03042*
X03121Y03042*
X03121Y03043*
X03122Y03043*
X03122Y03043*
X03123Y03043*
X03123Y03044*
X03124Y03044*
X03125Y03045*
X03127Y03045*
X03129Y03046*
X0313Y03046*
X03132Y03046*
X03132*
X03133Y03046*
G37*
G36*
X03132Y02941D02*
X03132D01*
X03133Y02941*
X03134Y02941*
X03135Y0294*
X03137Y0294*
X03139Y02939*
X0314Y02938*
X0314*
X0314Y02938*
X03141Y02938*
X03141Y02938*
X03142Y02937*
X03143Y02936*
X03144Y02935*
X03145Y02934*
X03146Y02932*
X03147Y02931*
Y02931*
X03147Y0293*
X03147Y0293*
X03147Y0293*
X03147Y02929*
X03147Y02929*
X03147Y02928*
X03148Y02927*
X03148Y02926*
X03148Y02925*
X03148Y02924*
X03148Y02922*
X03148Y02921*
X03149Y0292*
X03149Y02918*
Y02916*
Y02916*
Y02916*
Y02915*
Y02915*
X03149Y02914*
Y02913*
X03149Y02912*
X03148Y02911*
X03148Y02908*
X03148Y02905*
X03147Y02903*
X03147Y02902*
X03147Y02901*
Y029*
X03146Y029*
X03146Y029*
X03146Y029*
X03146Y02899*
X03146Y02898*
X03145Y02897*
X03144Y02896*
X03143Y02894*
X03142Y02893*
X0314Y02892*
X0314*
X0314Y02891*
X0314Y02891*
X03139Y02891*
X03139Y02891*
X03139Y02891*
X03137Y0289*
X03136Y0289*
X03134Y02889*
X03132Y02889*
X0313Y02889*
X0313*
X03129Y02889*
X03129*
X03128Y02889*
X03127Y02889*
X03125Y02889*
X03124Y0289*
X03122Y02891*
X0312Y02892*
X0312Y02892*
X0312Y02892*
X0312Y02893*
X03119Y02893*
X03118Y02894*
X03118Y02896*
X03117Y02897*
X03116Y02899*
X03116Y02901*
X03122Y02902*
Y02902*
Y02902*
X03122Y02901*
X03122Y02901*
X03122Y029*
X03123Y02899*
X03123Y02898*
X03123Y02897*
X03124Y02896*
X03125Y02896*
X03125Y02896*
X03125Y02895*
X03126Y02895*
X03126Y02895*
X03127Y02894*
X03128Y02894*
X03129Y02894*
X0313Y02894*
X03131*
X03131Y02894*
X03132Y02894*
X03133Y02894*
X03134Y02894*
X03135Y02895*
X03135Y02895*
X03136Y02895*
X03136Y02895*
X03136Y02896*
X03137Y02896*
X03137Y02897*
X03138Y02897*
X03139Y02898*
X03139Y02899*
X03139Y02899*
X03139Y02899*
X0314Y029*
X0314Y029*
X0314Y02901*
X03141Y02902*
X03141Y02903*
X03141Y02905*
Y02905*
X03142Y02905*
Y02905*
X03142Y02905*
X03142Y02906*
X03142Y02907*
X03142Y02908*
X03142Y02909*
X03142Y02911*
Y02912*
Y02912*
Y02913*
Y02913*
Y02914*
X03142Y02913*
X03142Y02913*
X03142Y02913*
X03141Y02912*
X0314Y02911*
X03139Y0291*
X03138Y02909*
X03137Y02909*
X03137Y02909*
X03137Y02908*
X03136Y02908*
X03135Y02908*
X03134Y02907*
X03133Y02907*
X03132Y02907*
X0313Y02907*
X03129*
X03129Y02907*
X03128Y02907*
X03128Y02907*
X03126Y02907*
X03125Y02908*
X03124Y02908*
X03123Y02909*
X03122Y02909*
X03121Y0291*
X0312Y02911*
X03119Y02912*
X03119Y02912*
X03119Y02912*
X03119Y02912*
X03119Y02912*
X03118Y02913*
X03118Y02913*
X03118Y02914*
X03117Y02915*
X03117Y02916*
X03116Y02917*
X03116Y02918*
X03116Y02919*
X03115Y0292*
X03115Y02921*
X03115Y02922*
X03115Y02924*
Y02924*
Y02924*
Y02924*
X03115Y02925*
X03115Y02926*
X03115Y02926*
X03115Y02927*
X03116Y02928*
X03116Y0293*
X03116Y02931*
X03117Y02932*
X03117Y02933*
X03118Y02934*
X03119Y02935*
X03119Y02936*
X0312Y02936*
X0312Y02937*
X0312Y02937*
X0312Y02937*
X03121Y02937*
X03121Y02938*
X03122Y02938*
X03123Y02939*
X03123Y02939*
X03124Y0294*
X03126Y0294*
X03127Y02941*
X03129Y02941*
X0313Y02941*
X03131Y02941*
X03132*
X03132Y02941*
G37*
G36*
X03099Y0289D02*
X03093D01*
Y0293*
X03092Y0293*
X03092Y02929*
X03092Y02929*
X03091Y02928*
X0309Y02928*
X03089Y02927*
X03088Y02926*
X03087Y02925*
X03086*
X03086Y02925*
X03086Y02925*
X03085Y02924*
X03084Y02924*
X03083Y02923*
X03082Y02923*
X03081Y02922*
X0308Y02922*
Y02928*
X0308*
X0308Y02928*
X03081Y02928*
X03081Y02929*
X03081Y02929*
X03082Y02929*
X03083Y0293*
X03084Y02931*
X03086Y02932*
X03088Y02933*
X03089Y02934*
X03089Y02934*
X03089Y02934*
X0309Y02935*
X0309Y02935*
X03091Y02936*
X03092Y02937*
X03093Y02939*
X03094Y0294*
X03095Y02941*
X03099*
Y0289*
G37*
G36*
X05733Y0408D02*
X05727D01*
Y0412*
X05727Y0412*
X05727Y04119*
X05726Y04119*
X05725Y04118*
X05725Y04118*
X05724Y04117*
X05722Y04116*
X05721Y04115*
X05721*
X05721Y04115*
X0572Y04115*
X0572Y04114*
X05719Y04114*
X05718Y04113*
X05717Y04113*
X05716Y04112*
X05715Y04112*
Y04118*
X05715*
X05715Y04118*
X05715Y04118*
X05715Y04119*
X05716Y04119*
X05716Y04119*
X05718Y0412*
X05719Y04121*
X05721Y04122*
X05722Y04123*
X05724Y04124*
X05724Y04124*
X05724Y04124*
X05724Y04125*
X05725Y04125*
X05726Y04126*
X05727Y04127*
X05728Y04129*
X05729Y0413*
X05729Y04131*
X05733*
Y0408*
G37*
G36*
X05768Y04131D02*
X05769Y04131D01*
X0577Y04131*
X05771Y0413*
X05772Y0413*
X05773Y04129*
X05774Y04129*
X05774Y04129*
X05774Y04129*
X05775Y04128*
X05776Y04127*
X05777Y04127*
X05778Y04126*
X05779Y04125*
X05779Y04124*
X05779Y04124*
X05779Y04123*
X0578Y04122*
X0578Y04121*
X05781Y0412*
X05781Y04119*
X05782Y04117*
Y04117*
X05782Y04117*
Y04116*
X05782Y04116*
X05782Y04116*
X05782Y04115*
X05782Y04114*
X05782Y04114*
X05782Y04113*
X05783Y04112*
X05783Y04111*
X05783Y0411*
X05783Y04109*
Y04108*
X05783Y04105*
Y04105*
Y04104*
Y04104*
Y04103*
X05783Y04103*
Y04102*
X05783Y04101*
X05783Y041*
X05782Y04097*
X05782Y04095*
X05782Y04092*
X05781Y04091*
X05781Y0409*
Y0409*
X05781Y0409*
X05781Y0409*
X05781Y04089*
X0578Y04089*
X0578Y04088*
X0578Y04087*
X05779Y04086*
X05778Y04084*
X05777Y04083*
X05775Y04082*
X05775*
X05775Y04081*
X05775Y04081*
X05775Y04081*
X05774Y04081*
X05773Y0408*
X05772Y0408*
X0577Y04079*
X05768Y04079*
X05766Y04079*
X05766*
X05765Y04079*
X05764Y04079*
X05764Y04079*
X05763Y04079*
X05762Y04079*
X0576Y0408*
X05759Y0408*
X05758Y04081*
X05757Y04081*
X05756Y04082*
X05755Y04083*
X05754Y04084*
X05754Y04084*
X05754Y04084*
X05754Y04085*
X05754Y04085*
X05753Y04086*
X05753Y04087*
X05752Y04088*
X05752Y04089*
X05752Y0409*
X05751Y04092*
X05751Y04094*
X0575Y04095*
X0575Y04098*
X0575Y041*
X0575Y04102*
X05749Y04105*
Y04105*
Y04105*
Y04106*
Y04106*
X0575Y04107*
Y04108*
X0575Y04109*
X0575Y0411*
X0575Y04112*
X0575Y04115*
X05751Y04117*
X05751Y04118*
X05751Y04119*
Y04119*
X05751Y0412*
X05752Y0412*
X05752Y0412*
X05752Y04121*
X05752Y04121*
X05753Y04123*
X05753Y04124*
X05754Y04125*
X05756Y04127*
X05757Y04128*
X05757*
X05757Y04128*
X05757Y04128*
X05758Y04128*
X05758Y04129*
X05759Y0413*
X05761Y0413*
X05762Y04131*
X05764Y04131*
X05766Y04131*
X05767*
X05768Y04131*
G37*
G36*
X05856D02*
X05857D01*
X05857Y04131*
X05859Y04131*
X0586Y0413*
X05862Y0413*
X05863Y04129*
X05865Y04128*
X05865*
X05865Y04128*
X05865Y04128*
X05865Y04128*
X05866Y04127*
X05867Y04126*
X05868Y04125*
X05869Y04124*
X0587Y04122*
X05871Y04121*
Y04121*
X05871Y0412*
X05871Y0412*
X05871Y0412*
X05872Y04119*
X05872Y04119*
X05872Y04118*
X05872Y04117*
X05872Y04116*
X05873Y04115*
X05873Y04114*
X05873Y04112*
X05873Y04111*
X05873Y0411*
X05873Y04108*
Y04106*
Y04106*
Y04106*
Y04105*
Y04105*
X05873Y04104*
Y04103*
X05873Y04102*
X05873Y04101*
X05873Y04098*
X05872Y04095*
X05872Y04093*
X05871Y04092*
X05871Y04091*
Y0409*
X05871Y0409*
X05871Y0409*
X05871Y0409*
X0587Y04089*
X0587Y04088*
X05869Y04087*
X05869Y04086*
X05867Y04084*
X05866Y04083*
X05865Y04082*
X05865*
X05865Y04081*
X05864Y04081*
X05864Y04081*
X05864Y04081*
X05863Y04081*
X05862Y0408*
X0586Y0408*
X05859Y04079*
X05857Y04079*
X05855Y04079*
X05854*
X05854Y04079*
X05853*
X05853Y04079*
X05851Y04079*
X0585Y04079*
X05848Y0408*
X05847Y04081*
X05845Y04082*
X05845Y04082*
X05845Y04082*
X05844Y04083*
X05844Y04083*
X05843Y04084*
X05842Y04086*
X05841Y04087*
X05841Y04089*
X0584Y04091*
X05846Y04092*
Y04092*
Y04092*
X05847Y04091*
X05847Y04091*
X05847Y0409*
X05847Y04089*
X05847Y04088*
X05848Y04087*
X05849Y04086*
X05849Y04086*
X05849Y04086*
X0585Y04085*
X0585Y04085*
X05851Y04085*
X05852Y04084*
X05853Y04084*
X05854Y04084*
X05855Y04084*
X05855*
X05856Y04084*
X05857Y04084*
X05857Y04084*
X05858Y04084*
X05859Y04085*
X0586Y04085*
X0586Y04085*
X0586Y04085*
X05861Y04086*
X05861Y04086*
X05862Y04087*
X05862Y04087*
X05863Y04088*
X05864Y04089*
X05864Y04089*
X05864Y04089*
X05864Y0409*
X05864Y0409*
X05865Y04091*
X05865Y04092*
X05866Y04093*
X05866Y04095*
Y04095*
X05866Y04095*
Y04095*
X05866Y04095*
X05866Y04096*
X05866Y04097*
X05867Y04098*
X05867Y04099*
X05867Y04101*
Y04102*
Y04102*
Y04103*
Y04103*
Y04104*
X05867Y04103*
X05867Y04103*
X05866Y04103*
X05866Y04102*
X05865Y04101*
X05864Y041*
X05863Y04099*
X05862Y04099*
X05862Y04099*
X05861Y04098*
X0586Y04098*
X0586Y04098*
X05859Y04097*
X05857Y04097*
X05856Y04097*
X05855Y04097*
X05854*
X05854Y04097*
X05853Y04097*
X05852Y04097*
X05851Y04097*
X05849Y04098*
X05848Y04098*
X05847Y04099*
X05847Y04099*
X05846Y041*
X05845Y04101*
X05844Y04102*
X05844Y04102*
X05844Y04102*
X05843Y04102*
X05843Y04102*
X05843Y04103*
X05842Y04103*
X05842Y04104*
X05842Y04105*
X05841Y04106*
X05841Y04107*
X05841Y04108*
X0584Y04109*
X0584Y0411*
X0584Y04111*
X0584Y04112*
X0584Y04114*
Y04114*
Y04114*
Y04114*
X0584Y04115*
X0584Y04116*
X0584Y04116*
X0584Y04117*
X0584Y04118*
X05841Y0412*
X05841Y04121*
X05841Y04122*
X05842Y04123*
X05843Y04124*
X05843Y04125*
X05844Y04126*
X05844Y04126*
X05844Y04127*
X05845Y04127*
X05845Y04127*
X05845Y04127*
X05846Y04128*
X05846Y04128*
X05847Y04129*
X05848Y04129*
X05849Y0413*
X05851Y0413*
X05852Y04131*
X05853Y04131*
X05854Y04131*
X05856Y04131*
X05856*
X05856Y04131*
G37*
G36*
X06079D02*
X06079D01*
X0608Y04131*
X06081Y04131*
X06083Y0413*
X06085Y0413*
X06086Y04129*
X06087Y04128*
X06088Y04128*
X06088*
X06088Y04127*
X06088Y04127*
X06089Y04126*
X0609Y04125*
X06091Y04124*
X06091Y04122*
X06092Y0412*
X06093Y04118*
X06086Y04118*
Y04118*
Y04118*
X06086Y04118*
X06086Y04119*
X06086Y0412*
X06085Y04122*
X06084Y04122*
X06084Y04123*
X06084Y04123*
X06083Y04124*
X06083Y04124*
X06082Y04125*
X06081Y04125*
X0608Y04126*
X06079Y04126*
X06078Y04126*
X06077*
X06076Y04126*
X06076Y04126*
X06075Y04126*
X06074Y04125*
X06073Y04125*
X06072Y04124*
X06072Y04124*
X06072Y04124*
X06071Y04123*
X06071Y04123*
X0607Y04122*
X06069Y04121*
X06068Y04119*
X06067Y04118*
Y04118*
X06067Y04118*
X06067Y04117*
X06067Y04117*
X06067Y04117*
X06067Y04116*
X06067Y04115*
X06067Y04115*
X06066Y04114*
X06066Y04113*
X06066Y04112*
X06066Y04111*
X06066Y0411*
X06066Y04109*
X06066Y04107*
Y04106*
X06066Y04106*
X06066Y04106*
X06067Y04107*
X06067Y04108*
X06068Y04109*
X06069Y0411*
X0607Y0411*
X06071Y04111*
X06071Y04111*
X06072Y04111*
X06073Y04112*
X06073Y04112*
X06074Y04112*
X06076Y04113*
X06077Y04113*
X06078Y04113*
X06079*
X06079Y04113*
X0608Y04113*
X0608Y04113*
X06082Y04112*
X06084Y04112*
X06084Y04111*
X06085Y04111*
X06086Y0411*
X06087Y0411*
X06088Y04109*
X06089Y04108*
X06089Y04108*
X06089Y04108*
X06089Y04108*
X0609Y04107*
X0609Y04107*
X0609Y04106*
X06091Y04106*
X06091Y04105*
X06092Y04104*
X06092Y04103*
X06092Y04102*
X06093Y04101*
X06093Y041*
X06093Y04099*
X06093Y04097*
X06093Y04096*
Y04096*
Y04096*
Y04096*
Y04095*
X06093Y04095*
Y04094*
X06093Y04093*
X06093Y04092*
X06093Y0409*
X06092Y04089*
X06091Y04087*
Y04087*
X06091Y04087*
X06091Y04087*
X06091Y04086*
X0609Y04086*
X0609Y04085*
X06089Y04084*
X06088Y04083*
X06087Y04082*
X06086Y04081*
X06085Y04081*
X06085Y04081*
X06084Y0408*
X06083Y0408*
X06082Y04079*
X06081Y04079*
X06079Y04079*
X06077Y04079*
X06077*
X06077Y04079*
X06076*
X06075Y04079*
X06075Y04079*
X06074Y04079*
X06073Y04079*
X06072Y0408*
X06071Y0408*
X0607Y04081*
X06069Y04081*
X06067Y04082*
X06066Y04083*
X06065Y04083*
X06064Y04084*
X06064Y04085*
X06064Y04085*
X06064Y04085*
X06064Y04086*
X06063Y04086*
X06063Y04087*
X06062Y04088*
X06062Y04089*
X06062Y0409*
X06061Y04092*
X06061Y04093*
X0606Y04095*
X0606Y04097*
X0606Y04099*
X0606Y04101*
X0606Y04103*
Y04104*
Y04104*
Y04104*
Y04104*
Y04105*
X0606Y04106*
X0606Y04107*
X0606Y04109*
X0606Y0411*
X0606Y04112*
X0606Y04114*
X06061Y04115*
X06061Y04117*
X06062Y04119*
X06062Y04121*
X06063Y04122*
X06064Y04124*
X06065Y04125*
X06065Y04125*
X06065Y04125*
X06065Y04126*
X06066Y04126*
X06066Y04127*
X06067Y04127*
X06068Y04128*
X06068Y04128*
X06069Y04129*
X0607Y04129*
X06071Y0413*
X06072Y0413*
X06074Y04131*
X06075Y04131*
X06076Y04131*
X06078Y04131*
X06078*
X06079Y04131*
G37*
G36*
X05981Y04124D02*
X05961D01*
X05958Y0411*
X05958Y0411*
X05958Y0411*
X05958Y04111*
X05959Y04111*
X05959Y04111*
X05959Y04111*
X05961Y04112*
X05962Y04112*
X05964Y04113*
X05966Y04113*
X05967Y04113*
X05968*
X05969Y04113*
X05969Y04113*
X0597Y04113*
X05971Y04113*
X05971Y04113*
X05973Y04112*
X05974Y04112*
X05975Y04112*
X05976Y04111*
X05977Y0411*
X05978Y0411*
X05979Y04109*
X05979Y04109*
X05979Y04109*
X05979Y04108*
X05979Y04108*
X0598Y04107*
X0598Y04107*
X05981Y04106*
X05981Y04106*
X05982Y04105*
X05982Y04104*
X05982Y04103*
X05983Y04102*
X05983Y04101*
X05983Y04099*
X05983Y04098*
X05983Y04097*
Y04097*
Y04097*
Y04096*
X05983Y04096*
X05983Y04095*
X05983Y04094*
X05983Y04094*
X05983Y04093*
X05982Y04091*
X05982Y04089*
X05981Y04088*
X05981Y04087*
X0598Y04086*
X05979Y04085*
X05979Y04085*
X05979Y04085*
X05979Y04084*
X05978Y04084*
X05978Y04083*
X05977Y04083*
X05977Y04082*
X05976Y04082*
X05975Y04081*
X05974Y04081*
X05973Y0408*
X05972Y0408*
X0597Y04079*
X05969Y04079*
X05967Y04079*
X05966Y04079*
X05965*
X05965Y04079*
X05964Y04079*
X05963Y04079*
X05963Y04079*
X05962Y04079*
X0596Y0408*
X05958Y0408*
X05957Y04081*
X05956Y04081*
X05955Y04082*
X05955Y04083*
X05954Y04083*
X05954Y04083*
X05954Y04083*
X05954Y04083*
X05953Y04084*
X05953Y04084*
X05953Y04085*
X05952Y04085*
X05951Y04087*
X05951Y04089*
X0595Y04091*
X0595Y04092*
X0595Y04093*
X05956Y04093*
Y04093*
Y04093*
X05956Y04093*
X05956Y04093*
X05957Y04092*
X05957Y04091*
X05957Y04089*
X05958Y04088*
X05959Y04087*
X05959Y04086*
X0596Y04086*
X0596Y04086*
X05961Y04085*
X05961Y04085*
X05962Y04085*
X05963Y04084*
X05965Y04084*
X05966Y04084*
X05966*
X05967Y04084*
X05968Y04084*
X05969Y04084*
X0597Y04085*
X05971Y04085*
X05972Y04086*
X05973Y04087*
X05974Y04087*
Y04087*
X05974Y04087*
X05974Y04088*
X05975Y04089*
X05975Y0409*
X05976Y04091*
X05976Y04092*
X05977Y04094*
X05977Y04096*
Y04096*
Y04097*
Y04097*
X05977Y04097*
Y04098*
X05977Y04098*
X05976Y04099*
X05976Y04101*
X05976Y04102*
X05975Y04104*
X05974Y04105*
X05974Y04105*
X05973Y04105*
X05973Y04106*
X05972Y04106*
X05971Y04107*
X05969Y04107*
X05968Y04108*
X05966Y04108*
X05965*
X05965Y04108*
X05964Y04108*
X05963Y04108*
X05962Y04107*
X05961Y04107*
X0596Y04106*
X0596Y04106*
X0596Y04106*
X05959Y04106*
X05959Y04106*
X05958Y04105*
X05958Y04104*
X05957Y04104*
X05957Y04103*
X05951Y04104*
X05956Y0413*
X05981*
Y04124*
G37*
G36*
X04759Y00941D02*
X04759D01*
X0476Y00941*
X04761Y00941*
X04763Y0094*
X04764Y0094*
X04766Y00939*
X04767Y00938*
X04768Y00938*
X04768*
X04768Y00937*
X04768Y00937*
X04769Y00936*
X0477Y00935*
X0477Y00934*
X04771Y00932*
X04772Y0093*
X04772Y00928*
X04766Y00928*
Y00928*
Y00928*
X04766Y00928*
X04766Y00929*
X04765Y0093*
X04765Y00932*
X04764Y00932*
X04764Y00933*
X04763Y00933*
X04763Y00934*
X04763Y00934*
X04762Y00935*
X04761Y00935*
X0476Y00936*
X04759Y00936*
X04757Y00936*
X04757*
X04756Y00936*
X04755Y00936*
X04755Y00936*
X04754Y00935*
X04753Y00935*
X04752Y00934*
X04752Y00934*
X04751Y00934*
X04751Y00933*
X0475Y00933*
X04749Y00932*
X04749Y00931*
X04748Y00929*
X04747Y00928*
Y00928*
X04747Y00928*
X04747Y00927*
X04747Y00927*
X04747Y00927*
X04747Y00926*
X04746Y00925*
X04746Y00925*
X04746Y00924*
X04746Y00923*
X04746Y00922*
X04746Y00921*
X04746Y0092*
X04746Y00919*
X04745Y00917*
Y00916*
X04746Y00916*
X04746Y00916*
X04746Y00917*
X04747Y00918*
X04748Y00919*
X04749Y0092*
X0475Y0092*
X04751Y00921*
X04751Y00921*
X04752Y00921*
X04752Y00922*
X04753Y00922*
X04754Y00922*
X04755Y00923*
X04757Y00923*
X04758Y00923*
X04758*
X04759Y00923*
X04759Y00923*
X0476Y00923*
X04762Y00922*
X04763Y00922*
X04764Y00921*
X04765Y00921*
X04766Y0092*
X04767Y0092*
X04768Y00919*
X04769Y00918*
X04769Y00918*
X04769Y00918*
X04769Y00918*
X04769Y00917*
X0477Y00917*
X0477Y00916*
X0477Y00916*
X04771Y00915*
X04771Y00914*
X04772Y00913*
X04772Y00912*
X04772Y00911*
X04773Y0091*
X04773Y00909*
X04773Y00907*
X04773Y00906*
Y00906*
Y00906*
Y00906*
Y00905*
X04773Y00905*
Y00904*
X04773Y00903*
X04773Y00902*
X04772Y009*
X04772Y00899*
X04771Y00897*
Y00897*
X04771Y00897*
X04771Y00897*
X04771Y00896*
X0477Y00896*
X04769Y00895*
X04769Y00894*
X04768Y00893*
X04767Y00892*
X04765Y00891*
X04765Y00891*
X04765Y00891*
X04764Y0089*
X04763Y0089*
X04762Y00889*
X0476Y00889*
X04759Y00889*
X04757Y00889*
X04757*
X04756Y00889*
X04756*
X04755Y00889*
X04754Y00889*
X04753Y00889*
X04752Y00889*
X04751Y0089*
X0475Y0089*
X04749Y00891*
X04748Y00891*
X04747Y00892*
X04746Y00893*
X04745Y00893*
X04744Y00894*
X04744Y00895*
X04744Y00895*
X04744Y00895*
X04743Y00896*
X04743Y00896*
X04743Y00897*
X04742Y00898*
X04742Y00899*
X04741Y009*
X04741Y00902*
X0474Y00903*
X0474Y00905*
X0474Y00907*
X04739Y00909*
X04739Y00911*
X04739Y00913*
Y00914*
Y00914*
Y00914*
Y00914*
Y00915*
X04739Y00916*
X04739Y00917*
X04739Y00919*
X0474Y0092*
X0474Y00922*
X0474Y00924*
X04741Y00925*
X04741Y00927*
X04742Y00929*
X04742Y00931*
X04743Y00932*
X04744Y00934*
X04745Y00935*
X04745Y00935*
X04745Y00935*
X04745Y00936*
X04746Y00936*
X04746Y00937*
X04747Y00937*
X04747Y00938*
X04748Y00938*
X04749Y00939*
X0475Y00939*
X04751Y0094*
X04752Y0094*
X04753Y00941*
X04755Y00941*
X04756Y00941*
X04758Y00941*
X04758*
X04759Y00941*
G37*
G36*
X04723Y0089D02*
X04717D01*
Y0093*
X04717Y0093*
X04717Y00929*
X04716Y00929*
X04715Y00928*
X04715Y00928*
X04714Y00927*
X04712Y00926*
X04711Y00925*
X04711*
X04711Y00925*
X0471Y00925*
X0471Y00924*
X04709Y00924*
X04708Y00923*
X04707Y00923*
X04706Y00922*
X04705Y00922*
Y00928*
X04705*
X04705Y00928*
X04705Y00928*
X04705Y00929*
X04706Y00929*
X04706Y00929*
X04708Y0093*
X04709Y00931*
X04711Y00932*
X04712Y00933*
X04714Y00934*
X04714Y00934*
X04714Y00934*
X04714Y00935*
X04715Y00935*
X04716Y00936*
X04717Y00937*
X04718Y00939*
X04719Y0094*
X04719Y00941*
X04723*
Y0089*
G37*
G36*
X04886Y00934D02*
X04866D01*
X04863Y0092*
X04863Y0092*
X04863Y0092*
X04863Y00921*
X04864Y00921*
X04864Y00921*
X04864Y00921*
X04866Y00922*
X04867Y00922*
X04869Y00923*
X04871Y00923*
X04872Y00923*
X04873*
X04874Y00923*
X04874Y00923*
X04875Y00923*
X04876Y00923*
X04876Y00923*
X04878Y00922*
X04879Y00922*
X0488Y00922*
X04881Y00921*
X04882Y0092*
X04883Y0092*
X04884Y00919*
X04884Y00919*
X04884Y00919*
X04884Y00918*
X04884Y00918*
X04885Y00917*
X04885Y00917*
X04886Y00916*
X04886Y00916*
X04887Y00915*
X04887Y00914*
X04887Y00913*
X04888Y00912*
X04888Y00911*
X04888Y00909*
X04888Y00908*
X04888Y00907*
Y00907*
Y00907*
Y00906*
X04888Y00906*
X04888Y00905*
X04888Y00904*
X04888Y00904*
X04888Y00903*
X04887Y00901*
X04887Y00899*
X04886Y00898*
X04886Y00897*
X04885Y00896*
X04884Y00895*
X04884Y00895*
X04884Y00895*
X04884Y00894*
X04883Y00894*
X04883Y00893*
X04882Y00893*
X04882Y00892*
X04881Y00892*
X0488Y00891*
X04879Y00891*
X04878Y0089*
X04877Y0089*
X04875Y00889*
X04874Y00889*
X04872Y00889*
X04871Y00889*
X0487*
X0487Y00889*
X04869Y00889*
X04868Y00889*
X04868Y00889*
X04867Y00889*
X04865Y0089*
X04863Y0089*
X04862Y00891*
X04861Y00891*
X0486Y00892*
X04859Y00893*
X04859Y00893*
X04859Y00893*
X04859Y00893*
X04859Y00893*
X04858Y00894*
X04858Y00894*
X04858Y00895*
X04857Y00895*
X04856Y00897*
X04856Y00899*
X04855Y00901*
X04855Y00902*
X04854Y00903*
X04861Y00903*
Y00903*
Y00903*
X04861Y00903*
X04861Y00903*
X04862Y00902*
X04862Y00901*
X04862Y00899*
X04863Y00898*
X04864Y00897*
X04864Y00896*
X04865Y00896*
X04865Y00896*
X04866Y00895*
X04866Y00895*
X04867Y00895*
X04868Y00894*
X0487Y00894*
X04871Y00894*
X04871*
X04872Y00894*
X04873Y00894*
X04874Y00894*
X04875Y00895*
X04876Y00895*
X04877Y00896*
X04878Y00897*
X04879Y00897*
Y00897*
X04879Y00897*
X04879Y00898*
X0488Y00899*
X0488Y009*
X04881Y00901*
X04881Y00902*
X04882Y00904*
X04882Y00906*
Y00906*
Y00907*
Y00907*
X04882Y00907*
Y00908*
X04882Y00908*
X04881Y00909*
X04881Y00911*
X0488Y00912*
X0488Y00914*
X04879Y00915*
X04879Y00915*
X04878Y00915*
X04878Y00916*
X04877Y00916*
X04875Y00917*
X04874Y00917*
X04873Y00918*
X04871Y00918*
X0487*
X0487Y00918*
X04869Y00918*
X04868Y00918*
X04867Y00917*
X04866Y00917*
X04865Y00916*
X04865Y00916*
X04865Y00916*
X04864Y00916*
X04864Y00916*
X04863Y00915*
X04863Y00914*
X04862Y00914*
X04862Y00913*
X04856Y00914*
X04861Y0094*
X04886*
Y00934*
G37*
G36*
X04838Y0089D02*
X04832D01*
Y0093*
X04832Y0093*
X04832Y00929*
X04831Y00929*
X0483Y00928*
X0483Y00928*
X04829Y00927*
X04827Y00926*
X04826Y00925*
X04826*
X04826Y00925*
X04825Y00925*
X04825Y00924*
X04824Y00924*
X04823Y00923*
X04822Y00923*
X04821Y00922*
X0482Y00922*
Y00928*
X0482*
X0482Y00928*
X0482Y00928*
X0482Y00929*
X04821Y00929*
X04821Y00929*
X04823Y0093*
X04824Y00931*
X04826Y00932*
X04827Y00933*
X04829Y00934*
X04829Y00934*
X04829Y00934*
X04829Y00935*
X0483Y00935*
X04831Y00936*
X04832Y00937*
X04833Y00939*
X04834Y0094*
X04834Y00941*
X04838*
Y0089*
G37*
G36*
X05091Y00907D02*
X05098D01*
Y00901*
X05091*
Y00889*
X05085*
Y00901*
X05062*
Y00907*
X05086Y0094*
X05091*
Y00907*
G37*
G36*
X05048Y00889D02*
X05042D01*
Y00929*
X05042Y00929*
X05042Y00928*
X05041Y00928*
X0504Y00927*
X0504Y00927*
X05039Y00926*
X05037Y00925*
X05036Y00924*
X05036*
X05036Y00924*
X05035Y00924*
X05035Y00924*
X05034Y00923*
X05033Y00923*
X05032Y00922*
X05031Y00922*
X0503Y00921*
Y00927*
X0503*
X0503Y00927*
X0503Y00928*
X0503Y00928*
X05031Y00928*
X05031Y00928*
X05033Y00929*
X05034Y0093*
X05036Y00931*
X05037Y00932*
X05039Y00933*
X05039Y00933*
X05039Y00933*
X05039Y00934*
X0504Y00935*
X05041Y00935*
X05042Y00937*
X05043Y00938*
X05044Y00939*
X05044Y0094*
X05048*
Y00889*
G37*
G36*
X04982Y00941D02*
X04983Y00941D01*
X04984Y00941*
X04986Y0094*
X04987Y0094*
X04988Y00939*
X04988*
X04988Y00939*
X04989Y00939*
X04989Y00938*
X0499Y00938*
X04991Y00937*
X04992Y00936*
X04993Y00935*
X04994Y00934*
X04994Y00934*
X04994Y00934*
X04994Y00933*
X04995Y00932*
X04995Y00931*
X04995Y0093*
X04995Y00929*
X04996Y00928*
Y00928*
Y00927*
X04995Y00927*
X04995Y00926*
X04995Y00925*
X04995Y00924*
X04994Y00923*
X04994Y00922*
X04994Y00922*
X04993Y00921*
X04993Y00921*
X04992Y0092*
X04992Y00919*
X04991Y00919*
X0499Y00918*
X04988Y00917*
X04989*
X04989Y00917*
X04989*
X04989Y00917*
X0499Y00917*
X04991Y00916*
X04992Y00916*
X04993Y00915*
X04994Y00914*
X04995Y00913*
X04996Y00913*
X04996Y00912*
X04996Y00912*
X04997Y00911*
X04997Y00909*
X04998Y00908*
X04998Y00906*
X04998Y00905*
Y00905*
Y00904*
Y00904*
X04998Y00904*
X04998Y00903*
X04998Y00902*
X04998Y00902*
X04997Y00901*
X04997Y00899*
X04997Y00898*
X04996Y00897*
X04995Y00896*
X04995Y00895*
X04994Y00894*
X04993Y00893*
X04993Y00893*
X04993Y00893*
X04993Y00893*
X04992Y00893*
X04992Y00892*
X04991Y00892*
X0499Y00891*
X0499Y00891*
X04989Y00891*
X04988Y0089*
X04987Y0089*
X04986Y00889*
X04985Y00889*
X04983Y00889*
X04982Y00889*
X04981Y00889*
X0498*
X0498Y00889*
X04979Y00889*
X04978Y00889*
X04978Y00889*
X04977Y00889*
X04975Y0089*
X04973Y0089*
X04972Y00891*
X04971Y00891*
X04971Y00892*
X0497Y00893*
X0497Y00893*
X04969Y00893*
X04969Y00893*
X04969Y00893*
X04969Y00894*
X04968Y00894*
X04968Y00895*
X04967Y00895*
X04966Y00897*
X04966Y00899*
X04965Y00901*
X04965Y00902*
X04965Y00903*
X04971Y00904*
Y00904*
X04971Y00904*
Y00903*
X04971Y00903*
X04971Y00902*
X04972Y00901*
X04972Y009*
X04973Y00898*
X04974Y00897*
X04974Y00896*
X04975Y00896*
X04975Y00896*
X04976Y00896*
X04976Y00895*
X04977Y00895*
X04978Y00894*
X04979Y00894*
X04981Y00894*
X04981*
X04982Y00894*
X04982Y00894*
X04983Y00894*
X04985Y00895*
X04986Y00895*
X04987Y00896*
X04988Y00897*
X04988Y00897*
X04989Y00897*
X04989Y00898*
X0499Y00899*
X0499Y009*
X04991Y00901*
X04991Y00903*
X04991Y00905*
Y00905*
Y00905*
Y00905*
X04991Y00905*
X04991Y00906*
X04991Y00907*
X04991Y00908*
X0499Y00909*
X04989Y00911*
X04988Y00912*
X04988Y00912*
X04988Y00912*
X04987Y00913*
X04987Y00913*
X04985Y00914*
X04984Y00914*
X04983Y00914*
X04981Y00914*
X04981*
X0498Y00914*
X04979Y00914*
X04979Y00914*
X04978Y00914*
X04977Y00914*
X04978Y00919*
X04978*
X04978Y00919*
X04979*
X0498Y00919*
X04981Y0092*
X04982Y0092*
X04983Y0092*
X04985Y00921*
X04986Y00921*
X04986Y00921*
X04986Y00922*
X04987Y00922*
X04987Y00923*
X04988Y00924*
X04989Y00925*
X04989Y00926*
X04989Y00928*
Y00928*
Y00928*
Y00928*
X04989Y00929*
X04989Y0093*
X04989Y00931*
X04988Y00932*
X04988Y00933*
X04987Y00934*
X04987Y00934*
X04986Y00934*
X04986Y00934*
X04985Y00935*
X04984Y00935*
X04983Y00936*
X04982Y00936*
X04981Y00936*
X0498*
X04979Y00936*
X04979Y00936*
X04978Y00935*
X04977Y00935*
X04976Y00934*
X04975Y00934*
X04974Y00933*
X04974Y00933*
X04974Y00933*
X04973Y00932*
X04973Y00931*
X04972Y0093*
X04972Y00928*
X04972Y00927*
X04965Y00928*
Y00928*
X04965Y00928*
X04965Y00928*
X04965Y00929*
X04966Y00929*
X04966Y0093*
X04966Y00931*
X04967Y00933*
X04968Y00935*
X04969Y00936*
X0497Y00938*
X0497Y00938*
X04971Y00938*
X04971Y00938*
X04971Y00938*
X04972Y00938*
X04972Y00939*
X04973Y00939*
X04975Y0094*
X04976Y00941*
X04978Y00941*
X04979Y00941*
X04981*
X04982Y00941*
G37*
G36*
X04948Y0089D02*
X04942D01*
Y0093*
X04942Y0093*
X04942Y00929*
X04941Y00929*
X0494Y00928*
X0494Y00928*
X04939Y00927*
X04937Y00926*
X04936Y00925*
X04936*
X04936Y00925*
X04935Y00925*
X04935Y00924*
X04934Y00924*
X04933Y00923*
X04932Y00923*
X04931Y00922*
X0493Y00922*
Y00928*
X0493*
X0493Y00928*
X0493Y00928*
X0493Y00929*
X04931Y00929*
X04931Y00929*
X04933Y0093*
X04934Y00931*
X04936Y00932*
X04937Y00933*
X04939Y00934*
X04939Y00934*
X04939Y00934*
X04939Y00935*
X0494Y00935*
X04941Y00936*
X04942Y00937*
X04943Y00939*
X04944Y0094*
X04944Y00941*
X04948*
Y0089*
G37*
G36*
X06363Y01995D02*
X06357D01*
Y02035*
X06357Y02035*
X06357Y02034*
X06356Y02034*
X06355Y02033*
X06355Y02033*
X06354Y02032*
X06352Y02031*
X06351Y0203*
X06351*
X06351Y0203*
X0635Y0203*
X0635Y02029*
X06349Y02029*
X06348Y02028*
X06347Y02028*
X06346Y02027*
X06345Y02027*
Y02033*
X06345*
X06345Y02033*
X06345Y02033*
X06345Y02034*
X06346Y02034*
X06346Y02034*
X06348Y02035*
X06349Y02036*
X06351Y02037*
X06352Y02038*
X06354Y02039*
X06354Y02039*
X06354Y02039*
X06354Y0204*
X06355Y0204*
X06356Y02041*
X06357Y02042*
X06358Y02044*
X06359Y02045*
X06359Y02046*
X06363*
Y01995*
G37*
G36*
X06354Y02131D02*
X06354Y02131D01*
X06355Y02131*
X06356Y02131*
X06357Y02131*
X06358Y0213*
X0636Y02129*
X06361Y02129*
X06362Y02128*
X06363Y02128*
X06364Y02127*
X06364Y02127*
X06364Y02127*
X06364Y02127*
X06365Y02126*
X06365Y02126*
X06366Y02125*
X06366Y02124*
X06367Y02123*
X06368Y02121*
X06368Y02119*
X06368Y02118*
X06368Y02117*
Y02117*
Y02116*
X06368Y02116*
X06368Y02115*
X06368Y02114*
X06368Y02113*
X06368Y02112*
X06367Y02111*
X06367Y02111*
X06367Y0211*
X06367Y0211*
X06366Y02109*
X06366Y02108*
X06365Y02107*
X06364Y02106*
X06363Y02104*
X06363Y02104*
X06362Y02104*
X06362Y02103*
X06361Y02103*
X06361Y02102*
X0636Y02101*
X06359Y02101*
X06358Y021*
X06358Y02099*
X06357Y02098*
X06356Y02097*
X06354Y02096*
X06353Y02095*
X06353Y02095*
X06353Y02095*
X06353Y02095*
X06352Y02095*
X06351Y02094*
X0635Y02093*
X06349Y02092*
X06348Y02091*
X06347Y0209*
X06346Y02089*
X06346Y02089*
X06346Y02089*
X06346Y02089*
X06345Y02088*
X06345Y02088*
X06344Y02087*
X06343Y02086*
X06369*
Y0208*
X06335*
Y0208*
Y0208*
Y0208*
X06335Y02081*
X06335Y02082*
X06335Y02082*
X06335Y02083*
X06335Y02084*
Y02084*
X06335Y02084*
X06336Y02084*
X06336Y02085*
X06336Y02086*
X06337Y02087*
X06338Y02088*
X06338Y02089*
X06339Y02091*
Y02091*
X0634Y02091*
X0634Y02091*
X06341Y02092*
X06342Y02093*
X06343Y02094*
X06344Y02095*
X06346Y02097*
X06348Y02098*
X06348Y02098*
X06348Y02099*
X06348Y02099*
X06349Y021*
X0635Y021*
X06351Y02101*
X06352Y02102*
X06354Y02104*
X06356Y02106*
X06357Y02107*
X06358Y02108*
X06358Y02108*
X06359Y02109*
Y02109*
X06359Y02109*
X06359Y0211*
X06359Y0211*
X0636Y02111*
X06361Y02112*
X06361Y02113*
X06362Y02114*
X06362Y02116*
X06362Y02117*
Y02117*
Y02117*
X06362Y02118*
X06362Y02118*
X06362Y02119*
X06361Y0212*
X06361Y02121*
X0636Y02122*
X06359Y02123*
X06359Y02123*
X06359Y02124*
X06358Y02124*
X06357Y02125*
X06356Y02125*
X06355Y02125*
X06354Y02126*
X06352Y02126*
X06352*
X06351Y02126*
X06351Y02126*
X0635Y02126*
X06348Y02125*
X06347Y02125*
X06346Y02124*
X06345Y02123*
X06345Y02123*
X06345Y02123*
X06344Y02122*
X06344Y02121*
X06343Y0212*
X06343Y02119*
X06342Y02117*
X06342Y02116*
X06336Y02116*
Y02116*
Y02117*
X06336Y02117*
X06336Y02117*
X06336Y02118*
X06336Y02119*
X06337Y0212*
X06337Y02122*
X06338Y02124*
X06339Y02126*
X0634Y02126*
X06341Y02127*
X06341Y02127*
X06341Y02127*
X06341Y02128*
X06341Y02128*
X06342Y02128*
X06342Y02128*
X06343Y02129*
X06344Y02129*
X06345Y02129*
X06345Y0213*
X06346Y0213*
X06347Y0213*
X0635Y02131*
X06351Y02131*
X06352Y02131*
X06353*
X06354Y02131*
G37*
G36*
X06353Y02273D02*
X0636D01*
Y02267*
X06353*
Y02255*
X06347*
Y02267*
X06325*
Y02273*
X06348Y02306*
X06353*
Y02273*
G37*
G36*
X06352Y02211D02*
X06353Y02211D01*
X06354Y02211*
X06356Y0221*
X06357Y0221*
X06358Y02209*
X06358*
X06358Y02209*
X06359Y02209*
X06359Y02208*
X0636Y02208*
X06361Y02207*
X06362Y02206*
X06363Y02205*
X06364Y02204*
X06364Y02204*
X06364Y02204*
X06364Y02203*
X06365Y02202*
X06365Y02201*
X06365Y022*
X06365Y02199*
X06366Y02198*
Y02198*
Y02197*
X06365Y02197*
X06365Y02196*
X06365Y02195*
X06365Y02194*
X06364Y02193*
X06364Y02192*
X06364Y02192*
X06363Y02191*
X06363Y02191*
X06362Y0219*
X06362Y02189*
X06361Y02189*
X0636Y02188*
X06358Y02187*
X06358*
X06359Y02187*
X06359*
X06359Y02187*
X0636Y02187*
X06361Y02186*
X06362Y02186*
X06363Y02185*
X06364Y02184*
X06365Y02183*
X06366Y02183*
X06366Y02182*
X06366Y02182*
X06367Y02181*
X06367Y02179*
X06368Y02178*
X06368Y02176*
X06368Y02175*
Y02175*
Y02174*
Y02174*
X06368Y02174*
X06368Y02173*
X06368Y02172*
X06368Y02172*
X06367Y02171*
X06367Y02169*
X06366Y02168*
X06366Y02167*
X06365Y02166*
X06365Y02165*
X06364Y02164*
X06363Y02163*
X06363Y02163*
X06363Y02163*
X06363Y02163*
X06362Y02163*
X06362Y02162*
X06361Y02162*
X0636Y02161*
X0636Y02161*
X06359Y02161*
X06358Y0216*
X06357Y0216*
X06356Y02159*
X06355Y02159*
X06353Y02159*
X06352Y02159*
X06351Y02159*
X0635*
X0635Y02159*
X06349Y02159*
X06348Y02159*
X06348Y02159*
X06347Y02159*
X06345Y0216*
X06343Y0216*
X06342Y02161*
X06341Y02161*
X0634Y02162*
X0634Y02163*
X0634Y02163*
X06339Y02163*
X06339Y02163*
X06339Y02163*
X06339Y02164*
X06338Y02164*
X06338Y02165*
X06337Y02165*
X06336Y02167*
X06336Y02169*
X06335Y02171*
X06335Y02172*
X06335Y02173*
X06341Y02174*
Y02174*
X06341Y02174*
Y02173*
X06341Y02173*
X06341Y02172*
X06342Y02171*
X06342Y0217*
X06343Y02168*
X06344Y02167*
X06344Y02166*
X06345Y02166*
X06345Y02166*
X06345Y02166*
X06346Y02165*
X06347Y02165*
X06348Y02164*
X06349Y02164*
X06351Y02164*
X06351*
X06352Y02164*
X06352Y02164*
X06353Y02164*
X06355Y02165*
X06356Y02165*
X06357Y02166*
X06358Y02167*
X06358Y02167*
X06359Y02167*
X06359Y02168*
X0636Y02169*
X0636Y0217*
X06361Y02171*
X06361Y02173*
X06361Y02175*
Y02175*
Y02175*
Y02175*
X06361Y02175*
X06361Y02176*
X06361Y02177*
X06361Y02178*
X0636Y02179*
X06359Y02181*
X06358Y02182*
X06358Y02182*
X06358Y02182*
X06357Y02183*
X06356Y02183*
X06355Y02184*
X06354Y02184*
X06353Y02184*
X06351Y02184*
X06351*
X0635Y02184*
X06349Y02184*
X06349Y02184*
X06348Y02184*
X06347Y02184*
X06348Y02189*
X06348*
X06348Y02189*
X06349*
X0635Y02189*
X06351Y0219*
X06352Y0219*
X06353Y0219*
X06354Y02191*
X06356Y02191*
X06356Y02191*
X06356Y02192*
X06357Y02192*
X06357Y02193*
X06358Y02194*
X06358Y02195*
X06359Y02196*
X06359Y02198*
Y02198*
Y02198*
Y02198*
X06359Y02199*
X06359Y022*
X06358Y02201*
X06358Y02202*
X06357Y02203*
X06357Y02204*
X06357Y02204*
X06356Y02204*
X06356Y02204*
X06355Y02205*
X06354Y02205*
X06353Y02206*
X06352Y02206*
X06351Y02206*
X0635*
X06349Y02206*
X06349Y02206*
X06348Y02205*
X06347Y02205*
X06346Y02204*
X06344Y02204*
X06344Y02203*
X06344Y02203*
X06344Y02203*
X06343Y02202*
X06343Y02201*
X06342Y022*
X06342Y02198*
X06341Y02197*
X06335Y02198*
Y02198*
X06335Y02198*
X06335Y02198*
X06335Y02199*
X06336Y02199*
X06336Y022*
X06336Y02201*
X06337Y02203*
X06338Y02205*
X06339Y02206*
X0634Y02208*
X0634Y02208*
X0634Y02208*
X06341Y02208*
X06341Y02208*
X06341Y02208*
X06342Y02209*
X06343Y02209*
X06345Y0221*
X06346Y02211*
X06348Y02211*
X06349Y02211*
X06351*
X06352Y02211*
G37*
G36*
X04733Y04146D02*
X04733Y04146D01*
X04734Y04146*
X04735Y04146*
X04736Y04146*
X04738Y04145*
X04739Y04144*
X0474Y04144*
X04741Y04143*
X04742Y04143*
X04743Y04142*
X04743Y04142*
X04743Y04142*
X04744Y04142*
X04744Y04141*
X04744Y04141*
X04745Y0414*
X04745Y04139*
X04746Y04138*
X04747Y04136*
X04747Y04134*
X04747Y04133*
X04748Y04132*
Y04132*
Y04131*
X04747Y04131*
X04747Y0413*
X04747Y04129*
X04747Y04128*
X04747Y04127*
X04746Y04126*
X04746Y04126*
X04746Y04125*
X04746Y04125*
X04745Y04124*
X04745Y04123*
X04744Y04122*
X04743Y04121*
X04742Y04119*
X04742Y04119*
X04741Y04119*
X04741Y04118*
X0474Y04118*
X0474Y04117*
X04739Y04116*
X04738Y04116*
X04738Y04115*
X04737Y04114*
X04736Y04113*
X04735Y04112*
X04734Y04111*
X04732Y0411*
X04732Y0411*
X04732Y0411*
X04732Y0411*
X04731Y0411*
X0473Y04109*
X04729Y04108*
X04728Y04107*
X04727Y04106*
X04726Y04105*
X04725Y04104*
X04725Y04104*
X04725Y04104*
X04725Y04104*
X04724Y04103*
X04724Y04103*
X04723Y04102*
X04722Y04101*
X04748*
Y04095*
X04714*
Y04095*
Y04095*
Y04095*
X04714Y04096*
X04714Y04097*
X04714Y04097*
X04714Y04098*
X04714Y04099*
Y04099*
X04714Y04099*
X04715Y04099*
X04715Y041*
X04715Y04101*
X04716Y04102*
X04717Y04103*
X04717Y04104*
X04718Y04106*
Y04106*
X04719Y04106*
X04719Y04106*
X0472Y04107*
X04721Y04108*
X04722Y04109*
X04723Y0411*
X04725Y04112*
X04727Y04113*
X04727Y04113*
X04727Y04114*
X04728Y04114*
X04728Y04115*
X04729Y04115*
X0473Y04116*
X04731Y04117*
X04733Y04119*
X04735Y04121*
X04736Y04122*
X04737Y04123*
X04737Y04123*
X04738Y04124*
Y04124*
X04738Y04124*
X04738Y04125*
X04739Y04125*
X04739Y04126*
X0474Y04127*
X0474Y04128*
X04741Y04129*
X04741Y04131*
X04741Y04132*
Y04132*
Y04132*
X04741Y04133*
X04741Y04133*
X04741Y04134*
X0474Y04135*
X0474Y04136*
X04739Y04137*
X04738Y04138*
X04738Y04138*
X04738Y04139*
X04737Y04139*
X04736Y0414*
X04735Y0414*
X04734Y0414*
X04733Y04141*
X04731Y04141*
X04731*
X04731Y04141*
X0473Y04141*
X04729Y04141*
X04728Y0414*
X04726Y0414*
X04725Y04139*
X04724Y04138*
X04724Y04138*
X04724Y04138*
X04723Y04137*
X04723Y04136*
X04722Y04135*
X04722Y04134*
X04721Y04132*
X04721Y04131*
X04715Y04131*
Y04131*
Y04132*
X04715Y04132*
X04715Y04132*
X04715Y04133*
X04715Y04134*
X04716Y04135*
X04716Y04137*
X04717Y04139*
X04718Y04141*
X04719Y04141*
X0472Y04142*
X0472Y04142*
X0472Y04142*
X0472Y04143*
X04721Y04143*
X04721Y04143*
X04722Y04143*
X04722Y04144*
X04723Y04144*
X04724Y04144*
X04724Y04145*
X04726Y04145*
X04727Y04145*
X04729Y04146*
X0473Y04146*
X04731Y04146*
X04732*
X04733Y04146*
G37*
G36*
X04698Y04095D02*
X04692D01*
Y04135*
X04692Y04135*
X04692Y04134*
X04691Y04134*
X0469Y04133*
X0469Y04133*
X04689Y04132*
X04687Y04131*
X04686Y0413*
X04686*
X04686Y0413*
X04685Y0413*
X04685Y04129*
X04684Y04129*
X04683Y04128*
X04682Y04128*
X04681Y04127*
X0468Y04127*
Y04133*
X0468*
X0468Y04133*
X0468Y04133*
X0468Y04134*
X04681Y04134*
X04681Y04134*
X04683Y04135*
X04684Y04136*
X04686Y04137*
X04687Y04138*
X04689Y04139*
X04689Y04139*
X04689Y04139*
X04689Y0414*
X0469Y0414*
X04691Y04141*
X04692Y04142*
X04693Y04144*
X04694Y04145*
X04694Y04146*
X04698*
Y04095*
G37*
G36*
X04843D02*
X04837D01*
Y04135*
X04837Y04135*
X04837Y04134*
X04836Y04134*
X04835Y04133*
X04834Y04133*
X04833Y04132*
X04832Y04131*
X04831Y0413*
X04831*
X04831Y0413*
X0483Y0413*
X0483Y04129*
X04829Y04129*
X04828Y04128*
X04827Y04128*
X04825Y04127*
X04824Y04127*
Y04133*
X04824*
X04825Y04133*
X04825Y04133*
X04825Y04134*
X04826Y04134*
X04826Y04134*
X04827Y04135*
X04829Y04136*
X0483Y04137*
X04832Y04138*
X04833Y04139*
X04834Y04139*
X04834Y04139*
X04834Y0414*
X04835Y0414*
X04836Y04141*
X04837Y04142*
X04838Y04144*
X04838Y04145*
X04839Y04146*
X04843*
Y04095*
G37*
G36*
X04803D02*
X04797D01*
Y04135*
X04797Y04135*
X04797Y04134*
X04796Y04134*
X04795Y04133*
X04795Y04133*
X04794Y04132*
X04792Y04131*
X04791Y0413*
X04791*
X04791Y0413*
X0479Y0413*
X0479Y04129*
X04789Y04129*
X04788Y04128*
X04787Y04128*
X04786Y04127*
X04785Y04127*
Y04133*
X04785*
X04785Y04133*
X04785Y04133*
X04785Y04134*
X04786Y04134*
X04786Y04134*
X04788Y04135*
X04789Y04136*
X04791Y04137*
X04792Y04138*
X04794Y04139*
X04794Y04139*
X04794Y04139*
X04794Y0414*
X04795Y0414*
X04796Y04141*
X04797Y04142*
X04798Y04144*
X04799Y04145*
X04799Y04146*
X04803*
Y04095*
G37*
G36*
X04628Y0414D02*
X04628Y0414D01*
X04627Y0414*
X04627Y0414*
X04627Y04139*
X04626Y04139*
X04626Y04138*
X04625Y04137*
X04625Y04137*
X04624Y04136*
X04623Y04135*
X04622Y04133*
X04622Y04132*
X04621Y04131*
X0462Y04129*
X04619Y04128*
X04618Y04126*
X04618Y04126*
X04618Y04126*
X04617Y04126*
X04617Y04125*
X04617Y04124*
X04616Y04123*
X04616Y04122*
X04615Y04121*
X04615Y0412*
X04614Y04118*
X04613Y04117*
X04613Y04115*
X04612Y04112*
X04611Y04109*
Y04108*
X0461Y04108*
X0461Y04108*
X0461Y04107*
X0461Y04107*
X0461Y04106*
X0461Y04105*
X04609Y04104*
X04609Y04103*
X04609Y04102*
X04609Y041*
X04608Y04097*
X04608Y04095*
X04602*
Y04095*
Y04095*
Y04095*
X04602Y04096*
Y04096*
X04602Y04097*
X04602Y04098*
X04602Y04099*
X04602Y041*
X04602Y04101*
X04602Y04102*
X04603Y04103*
X04603Y04105*
X04603Y04106*
X04604Y04109*
Y04109*
X04604Y04109*
X04604Y0411*
X04604Y04111*
X04605Y04111*
X04605Y04112*
X04605Y04113*
X04606Y04114*
X04606Y04116*
X04607Y04117*
X04608Y0412*
X04609Y04123*
X04611Y04126*
X04611Y04126*
X04611Y04126*
X04611Y04126*
X04611Y04127*
X04612Y04128*
X04612Y04128*
X04613Y04129*
X04613Y0413*
X04615Y04132*
X04616Y04135*
X04618Y04137*
X0462Y04139*
X04595*
Y04145*
X04628*
Y0414*
G37*
G36*
X04502Y04147D02*
X04503D01*
X04504Y04147*
X04505Y04146*
X04507Y04146*
X04509Y04145*
X0451Y04145*
X0451Y04144*
X04511Y04144*
X04512Y04143*
X04512Y04143*
X04512Y04143*
X04512Y04143*
X04513Y04142*
X04513Y04142*
X04513Y04141*
X04514Y0414*
X04515Y04139*
X04516Y04137*
X04516Y04136*
X04516Y04134*
X04516Y04133*
Y04133*
Y04133*
X04516Y04132*
X04516Y04131*
X04516Y0413*
X04515Y04129*
X04515Y04128*
X04514Y04127*
X04514Y04127*
X04514Y04127*
X04514Y04126*
X04513Y04126*
X04512Y04125*
X04511Y04124*
X0451Y04124*
X04509Y04123*
X04509*
X04509Y04123*
X04509Y04123*
X04509Y04123*
X0451Y04123*
X04511Y04122*
X04512Y04121*
X04514Y04121*
X04515Y04119*
X04516Y04118*
X04516Y04118*
X04516Y04118*
X04517Y04117*
X04517Y04116*
X04518Y04115*
X04518Y04113*
X04518Y04112*
X04518Y0411*
Y0411*
Y0411*
Y04109*
X04518Y04109*
X04518Y04108*
X04518Y04108*
X04518Y04106*
X04517Y04104*
X04517Y04103*
X04516Y04103*
X04516Y04102*
X04515Y04101*
X04514Y041*
X04514Y04099*
X04514Y04099*
X04513Y04099*
X04513Y04099*
X04513Y04098*
X04512Y04098*
X04512Y04098*
X04511Y04097*
X0451Y04097*
X04509Y04096*
X04509Y04096*
X04508Y04096*
X04506Y04095*
X04505Y04095*
X04504Y04095*
X04503Y04095*
X04501Y04095*
X04501*
X045Y04095*
X04499Y04095*
X04499Y04095*
X04498Y04095*
X04497Y04095*
X04495Y04096*
X04494Y04096*
X04493Y04096*
X04492Y04097*
X04491Y04097*
X0449Y04098*
X04489Y04099*
X04489Y04099*
X04489Y04099*
X04489Y04099*
X04488Y041*
X04488Y041*
X04488Y04101*
X04487Y04101*
X04487Y04102*
X04486Y04103*
X04486Y04104*
X04485Y04106*
X04485Y04107*
X04485Y04108*
X04485Y04109*
X04485Y0411*
Y0411*
Y0411*
Y04111*
X04485Y04111*
Y04111*
X04485Y04112*
X04485Y04113*
X04485Y04114*
X04486Y04116*
X04486Y04117*
X04487Y04119*
Y04119*
X04487Y04119*
X04487Y04119*
X04488Y0412*
X04489Y0412*
X0449Y04121*
X04491Y04122*
X04493Y04123*
X04494Y04123*
X04494*
X04494Y04123*
X04494Y04123*
X04493Y04124*
X04492Y04124*
X04491Y04125*
X0449Y04126*
X04489Y04126*
X04488Y04127*
X04488Y04127*
X04488Y04128*
X04488Y04128*
X04487Y04129*
X04487Y0413*
X04487Y04131*
X04487Y04132*
X04487Y04134*
Y04134*
Y04134*
Y04134*
X04487Y04135*
X04487Y04135*
X04487Y04136*
X04487Y04137*
X04487Y04138*
X04488Y0414*
X04489Y04141*
X04489Y04142*
X0449Y04142*
X04491Y04143*
X04491Y04143*
X04491Y04143*
X04491Y04143*
X04491Y04144*
X04492Y04144*
X04492Y04144*
X04493Y04145*
X04493Y04145*
X04495Y04146*
X04497Y04146*
X04499Y04147*
X045Y04147*
X04501Y04147*
X04502*
X04502Y04147*
G37*
G36*
X03174Y01895D02*
X03168D01*
Y01935*
X03168Y01935*
X03167Y01934*
X03167Y01934*
X03166Y01933*
X03165Y01933*
X03164Y01932*
X03163Y01931*
X03162Y0193*
X03162*
X03162Y0193*
X03161Y0193*
X0316Y01929*
X03159Y01929*
X03158Y01928*
X03157Y01928*
X03156Y01927*
X03155Y01927*
Y01933*
X03155*
X03155Y01933*
X03156Y01933*
X03156Y01934*
X03156Y01934*
X03157Y01934*
X03158Y01935*
X0316Y01936*
X03161Y01937*
X03163Y01938*
X03164Y01939*
X03164Y01939*
X03164Y01939*
X03165Y0194*
X03166Y0194*
X03166Y01941*
X03167Y01942*
X03168Y01944*
X03169Y01945*
X0317Y01946*
X03174*
Y01895*
G37*
G36*
X03129Y01946D02*
X03129Y01946D01*
X0313Y01946*
X03131Y01946*
X03132Y01946*
X03133Y01945*
X03135Y01944*
X03136Y01944*
X03137Y01943*
X03138Y01943*
X03139Y01942*
X03139Y01942*
X03139Y01942*
X03139Y01942*
X0314Y01941*
X0314Y01941*
X03141Y0194*
X03141Y01939*
X03142Y01938*
X03143Y01936*
X03143Y01934*
X03143Y01933*
X03143Y01932*
Y01932*
Y01931*
X03143Y01931*
X03143Y0193*
X03143Y01929*
X03143Y01928*
X03143Y01927*
X03142Y01926*
X03142Y01926*
X03142Y01925*
X03142Y01925*
X03141Y01924*
X03141Y01923*
X0314Y01922*
X03139Y01921*
X03138Y01919*
X03138Y01919*
X03137Y01919*
X03137Y01918*
X03136Y01918*
X03136Y01917*
X03135Y01916*
X03134Y01916*
X03133Y01915*
X03133Y01914*
X03132Y01913*
X03131Y01912*
X03129Y01911*
X03128Y0191*
X03128Y0191*
X03128Y0191*
X03128Y0191*
X03127Y0191*
X03126Y01909*
X03125Y01908*
X03124Y01907*
X03123Y01906*
X03122Y01905*
X03121Y01904*
X03121Y01904*
X03121Y01904*
X03121Y01904*
X0312Y01903*
X0312Y01903*
X03119Y01902*
X03118Y01901*
X03144*
Y01895*
X0311*
Y01895*
Y01895*
Y01895*
X0311Y01896*
X0311Y01897*
X0311Y01897*
X0311Y01898*
X0311Y01899*
Y01899*
X0311Y01899*
X03111Y01899*
X03111Y019*
X03111Y01901*
X03112Y01902*
X03113Y01903*
X03113Y01904*
X03114Y01906*
Y01906*
X03115Y01906*
X03115Y01906*
X03116Y01907*
X03117Y01908*
X03118Y01909*
X03119Y0191*
X03121Y01912*
X03123Y01913*
X03123Y01913*
X03123Y01914*
X03123Y01914*
X03124Y01915*
X03125Y01915*
X03126Y01916*
X03127Y01917*
X03129Y01919*
X03131Y01921*
X03132Y01922*
X03133Y01923*
X03133Y01923*
X03134Y01924*
Y01924*
X03134Y01924*
X03134Y01925*
X03134Y01925*
X03135Y01926*
X03136Y01927*
X03136Y01928*
X03137Y01929*
X03137Y01931*
X03137Y01932*
Y01932*
Y01932*
X03137Y01933*
X03137Y01933*
X03137Y01934*
X03136Y01935*
X03136Y01936*
X03135Y01937*
X03134Y01938*
X03134Y01938*
X03134Y01939*
X03133Y01939*
X03132Y0194*
X03131Y0194*
X0313Y0194*
X03129Y01941*
X03127Y01941*
X03127*
X03126Y01941*
X03126Y01941*
X03125Y01941*
X03123Y0194*
X03122Y0194*
X03121Y01939*
X0312Y01938*
X0312Y01938*
X0312Y01938*
X03119Y01937*
X03119Y01936*
X03118Y01935*
X03118Y01934*
X03117Y01932*
X03117Y01931*
X03111Y01931*
Y01931*
Y01932*
X03111Y01932*
X03111Y01932*
X03111Y01933*
X03111Y01934*
X03112Y01935*
X03112Y01937*
X03113Y01939*
X03114Y01941*
X03115Y01941*
X03116Y01942*
X03116Y01942*
X03116Y01942*
X03116Y01943*
X03116Y01943*
X03117Y01943*
X03117Y01943*
X03118Y01944*
X03119Y01944*
X0312Y01944*
X0312Y01945*
X03121Y01945*
X03122Y01945*
X03125Y01946*
X03126Y01946*
X03127Y01946*
X03128*
X03129Y01946*
G37*
G36*
X03168Y01836D02*
X03169Y01836D01*
X0317Y01836*
X03171Y01836*
X03171Y01836*
X03173Y01835*
X03175Y01834*
X03176Y01834*
X03177Y01833*
X03178Y01833*
X03179Y01832*
X03179Y01832*
X03179Y01832*
X03179Y01832*
X0318Y01831*
X0318Y01831*
X0318Y0183*
X03181Y01829*
X03182Y01828*
X03183Y01826*
X03183Y01824*
X03183Y01823*
X03183Y01822*
Y01822*
Y01821*
X03183Y01821*
X03183Y0182*
X03183Y01819*
X03183Y01818*
X03182Y01817*
X03182Y01816*
X03182Y01816*
X03182Y01815*
X03181Y01815*
X03181Y01814*
X0318Y01813*
X0318Y01812*
X03179Y01811*
X03178Y01809*
X03178Y01809*
X03177Y01809*
X03177Y01808*
X03176Y01808*
X03175Y01807*
X03175Y01806*
X03174Y01806*
X03173Y01805*
X03172Y01804*
X03172Y01803*
X0317Y01802*
X03169Y01801*
X03168Y018*
X03168Y018*
X03168Y018*
X03168Y018*
X03167Y018*
X03166Y01799*
X03165Y01798*
X03164Y01797*
X03163Y01796*
X03162Y01795*
X03161Y01794*
X03161Y01794*
X03161Y01794*
X03161Y01794*
X0316Y01793*
X0316Y01793*
X03159Y01792*
X03158Y01791*
X03183*
Y01785*
X03149*
Y01785*
Y01785*
Y01785*
X03149Y01786*
X0315Y01787*
X0315Y01787*
X0315Y01788*
X0315Y01789*
Y01789*
X0315Y01789*
X0315Y01789*
X03151Y0179*
X03151Y01791*
X03152Y01792*
X03152Y01793*
X03153Y01794*
X03154Y01796*
Y01796*
X03154Y01796*
X03155Y01796*
X03155Y01797*
X03156Y01798*
X03158Y01799*
X03159Y018*
X03161Y01802*
X03163Y01803*
X03163Y01803*
X03163Y01804*
X03163Y01804*
X03164Y01805*
X03165Y01805*
X03165Y01806*
X03167Y01807*
X03169Y01809*
X03171Y01811*
X03172Y01812*
X03173Y01813*
X03173Y01813*
X03174Y01814*
Y01814*
X03174Y01814*
X03174Y01815*
X03174Y01815*
X03175Y01816*
X03175Y01817*
X03176Y01818*
X03176Y01819*
X03177Y01821*
X03177Y01822*
Y01822*
Y01822*
X03177Y01823*
X03177Y01823*
X03177Y01824*
X03176Y01825*
X03176Y01826*
X03175Y01827*
X03174Y01828*
X03174Y01828*
X03174Y01829*
X03173Y01829*
X03172Y0183*
X03171Y0183*
X0317Y0183*
X03169Y01831*
X03167Y01831*
X03167*
X03166Y01831*
X03165Y01831*
X03164Y01831*
X03163Y0183*
X03162Y0183*
X03161Y01829*
X0316Y01828*
X0316Y01828*
X03159Y01828*
X03159Y01827*
X03158Y01826*
X03158Y01825*
X03158Y01824*
X03157Y01822*
X03157Y01821*
X03151Y01821*
Y01821*
Y01822*
X03151Y01822*
X03151Y01822*
X03151Y01823*
X03151Y01824*
X03151Y01825*
X03152Y01827*
X03153Y01829*
X03154Y01831*
X03155Y01831*
X03156Y01832*
X03156Y01832*
X03156Y01832*
X03156Y01833*
X03156Y01833*
X03157Y01833*
X03157Y01833*
X03158Y01834*
X03159Y01834*
X03159Y01834*
X0316Y01835*
X03161Y01835*
X03162Y01835*
X03165Y01836*
X03166Y01836*
X03167Y01836*
X03168*
X03168Y01836*
G37*
G36*
X03129D02*
X03129Y01836D01*
X0313Y01836*
X03131Y01836*
X03132Y01836*
X03133Y01835*
X03135Y01834*
X03136Y01834*
X03137Y01833*
X03138Y01833*
X03139Y01832*
X03139Y01832*
X03139Y01832*
X03139Y01832*
X0314Y01831*
X0314Y01831*
X03141Y0183*
X03141Y01829*
X03142Y01828*
X03143Y01826*
X03143Y01824*
X03143Y01823*
X03143Y01822*
Y01822*
Y01821*
X03143Y01821*
X03143Y0182*
X03143Y01819*
X03143Y01818*
X03143Y01817*
X03142Y01816*
X03142Y01816*
X03142Y01815*
X03142Y01815*
X03141Y01814*
X03141Y01813*
X0314Y01812*
X03139Y01811*
X03138Y01809*
X03138Y01809*
X03137Y01809*
X03137Y01808*
X03136Y01808*
X03136Y01807*
X03135Y01806*
X03134Y01806*
X03133Y01805*
X03133Y01804*
X03132Y01803*
X03131Y01802*
X03129Y01801*
X03128Y018*
X03128Y018*
X03128Y018*
X03128Y018*
X03127Y018*
X03126Y01799*
X03125Y01798*
X03124Y01797*
X03123Y01796*
X03122Y01795*
X03121Y01794*
X03121Y01794*
X03121Y01794*
X03121Y01794*
X0312Y01793*
X0312Y01793*
X03119Y01792*
X03118Y01791*
X03144*
Y01785*
X0311*
Y01785*
Y01785*
Y01785*
X0311Y01786*
X0311Y01787*
X0311Y01787*
X0311Y01788*
X0311Y01789*
Y01789*
X0311Y01789*
X03111Y01789*
X03111Y0179*
X03111Y01791*
X03112Y01792*
X03113Y01793*
X03113Y01794*
X03114Y01796*
Y01796*
X03115Y01796*
X03115Y01796*
X03116Y01797*
X03117Y01798*
X03118Y01799*
X03119Y018*
X03121Y01802*
X03123Y01803*
X03123Y01803*
X03123Y01804*
X03123Y01804*
X03124Y01805*
X03125Y01805*
X03126Y01806*
X03127Y01807*
X03129Y01809*
X03131Y01811*
X03132Y01812*
X03133Y01813*
X03133Y01813*
X03134Y01814*
Y01814*
X03134Y01814*
X03134Y01815*
X03134Y01815*
X03135Y01816*
X03136Y01817*
X03136Y01818*
X03137Y01819*
X03137Y01821*
X03137Y01822*
Y01822*
Y01822*
X03137Y01823*
X03137Y01823*
X03137Y01824*
X03136Y01825*
X03136Y01826*
X03135Y01827*
X03134Y01828*
X03134Y01828*
X03134Y01829*
X03133Y01829*
X03132Y0183*
X03131Y0183*
X0313Y0183*
X03129Y01831*
X03127Y01831*
X03127*
X03126Y01831*
X03126Y01831*
X03125Y01831*
X03123Y0183*
X03122Y0183*
X03121Y01829*
X0312Y01828*
X0312Y01828*
X0312Y01828*
X03119Y01827*
X03119Y01826*
X03118Y01825*
X03118Y01824*
X03117Y01822*
X03117Y01821*
X03111Y01821*
Y01821*
Y01822*
X03111Y01822*
X03111Y01822*
X03111Y01823*
X03111Y01824*
X03112Y01825*
X03112Y01827*
X03113Y01829*
X03114Y01831*
X03115Y01831*
X03116Y01832*
X03116Y01832*
X03116Y01832*
X03116Y01833*
X03116Y01833*
X03117Y01833*
X03117Y01833*
X03118Y01834*
X03119Y01834*
X0312Y01834*
X0312Y01835*
X03121Y01835*
X03122Y01835*
X03125Y01836*
X03126Y01836*
X03127Y01836*
X03128*
X03129Y01836*
G37*
G36*
X03168Y01731D02*
X03169Y01731D01*
X0317Y01731*
X03171Y0173*
X03173Y0173*
X03174Y01729*
X03174*
X03174Y01729*
X03175Y01729*
X03175Y01728*
X03176Y01728*
X03177Y01727*
X03178Y01726*
X03179Y01725*
X03179Y01724*
X0318Y01724*
X0318Y01724*
X0318Y01723*
X0318Y01722*
X03181Y01721*
X03181Y0172*
X03181Y01719*
X03181Y01718*
Y01718*
Y01717*
X03181Y01717*
X03181Y01716*
X03181Y01715*
X03181Y01714*
X0318Y01713*
X0318Y01712*
X03179Y01712*
X03179Y01711*
X03179Y01711*
X03178Y0171*
X03177Y01709*
X03177Y01709*
X03175Y01708*
X03174Y01707*
X03174*
X03174Y01707*
X03175*
X03175Y01707*
X03176Y01707*
X03177Y01706*
X03178Y01706*
X03179Y01705*
X0318Y01704*
X03181Y01703*
X03181Y01703*
X03182Y01702*
X03182Y01702*
X03183Y01701*
X03183Y01699*
X03183Y01698*
X03184Y01696*
X03184Y01695*
Y01695*
Y01694*
Y01694*
X03184Y01694*
X03184Y01693*
X03184Y01692*
X03183Y01692*
X03183Y01691*
X03183Y01689*
X03182Y01688*
X03182Y01687*
X03181Y01686*
X03181Y01685*
X0318Y01684*
X03179Y01683*
X03179Y01683*
X03179Y01683*
X03178Y01683*
X03178Y01683*
X03178Y01682*
X03177Y01682*
X03176Y01681*
X03176Y01681*
X03175Y01681*
X03174Y0168*
X03173Y0168*
X03172Y01679*
X0317Y01679*
X03169Y01679*
X03168Y01679*
X03167Y01679*
X03166*
X03165Y01679*
X03165Y01679*
X03164Y01679*
X03163Y01679*
X03163Y01679*
X03161Y0168*
X03159Y0168*
X03158Y01681*
X03157Y01681*
X03156Y01682*
X03155Y01683*
X03155Y01683*
X03155Y01683*
X03155Y01683*
X03155Y01683*
X03154Y01684*
X03154Y01684*
X03154Y01685*
X03153Y01685*
X03152Y01687*
X03151Y01689*
X03151Y01691*
X03151Y01692*
X0315Y01693*
X03157Y01694*
Y01694*
X03157Y01694*
Y01693*
X03157Y01693*
X03157Y01692*
X03158Y01691*
X03158Y0169*
X03159Y01688*
X03159Y01687*
X0316Y01686*
X0316Y01686*
X03161Y01686*
X03161Y01686*
X03162Y01685*
X03163Y01685*
X03164Y01684*
X03165Y01684*
X03167Y01684*
X03167*
X03167Y01684*
X03168Y01684*
X03169Y01684*
X0317Y01685*
X03172Y01685*
X03173Y01686*
X03174Y01687*
X03174Y01687*
X03175Y01687*
X03175Y01688*
X03176Y01689*
X03176Y0169*
X03177Y01691*
X03177Y01693*
X03177Y01695*
Y01695*
Y01695*
Y01695*
X03177Y01695*
X03177Y01696*
X03177Y01697*
X03176Y01698*
X03176Y01699*
X03175Y01701*
X03174Y01702*
X03174Y01702*
X03174Y01702*
X03173Y01703*
X03172Y01703*
X03171Y01704*
X0317Y01704*
X03169Y01704*
X03167Y01704*
X03166*
X03166Y01704*
X03165Y01704*
X03164Y01704*
X03164Y01704*
X03163Y01704*
X03163Y01709*
X03164*
X03164Y01709*
X03165*
X03166Y01709*
X03167Y0171*
X03168Y0171*
X03169Y0171*
X0317Y01711*
X03172Y01711*
X03172Y01711*
X03172Y01712*
X03173Y01712*
X03173Y01713*
X03174Y01714*
X03174Y01715*
X03175Y01716*
X03175Y01718*
Y01718*
Y01718*
Y01718*
X03175Y01719*
X03175Y0172*
X03174Y01721*
X03174Y01722*
X03173Y01723*
X03173Y01724*
X03172Y01724*
X03172Y01724*
X03172Y01724*
X03171Y01725*
X0317Y01725*
X03169Y01726*
X03168Y01726*
X03167Y01726*
X03166*
X03165Y01726*
X03164Y01726*
X03163Y01725*
X03162Y01725*
X03161Y01724*
X0316Y01724*
X0316Y01723*
X0316Y01723*
X0316Y01723*
X03159Y01722*
X03159Y01721*
X03158Y0172*
X03158Y01718*
X03157Y01717*
X03151Y01718*
Y01718*
X03151Y01718*
X03151Y01718*
X03151Y01719*
X03151Y01719*
X03152Y0172*
X03152Y01721*
X03153Y01723*
X03154Y01725*
X03155Y01726*
X03156Y01728*
X03156Y01728*
X03156Y01728*
X03157Y01728*
X03157Y01728*
X03157Y01728*
X03158Y01729*
X03159Y01729*
X0316Y0173*
X03162Y01731*
X03164Y01731*
X03165Y01731*
X03167*
X03168Y01731*
G37*
G36*
X03129D02*
X03129Y01731D01*
X0313Y01731*
X03131Y01731*
X03132Y01731*
X03133Y0173*
X03135Y01729*
X03136Y01729*
X03137Y01728*
X03138Y01728*
X03139Y01727*
X03139Y01727*
X03139Y01727*
X03139Y01727*
X0314Y01726*
X0314Y01726*
X03141Y01725*
X03141Y01724*
X03142Y01723*
X03143Y01721*
X03143Y01719*
X03143Y01718*
X03143Y01717*
Y01717*
Y01716*
X03143Y01716*
X03143Y01715*
X03143Y01714*
X03143Y01713*
X03143Y01712*
X03142Y01711*
X03142Y01711*
X03142Y0171*
X03142Y0171*
X03141Y01709*
X03141Y01708*
X0314Y01707*
X03139Y01706*
X03138Y01704*
X03138Y01704*
X03137Y01704*
X03137Y01703*
X03136Y01703*
X03136Y01702*
X03135Y01701*
X03134Y01701*
X03133Y017*
X03133Y01699*
X03132Y01698*
X03131Y01697*
X03129Y01696*
X03128Y01695*
X03128Y01695*
X03128Y01695*
X03128Y01695*
X03127Y01695*
X03126Y01694*
X03125Y01693*
X03124Y01692*
X03123Y01691*
X03122Y0169*
X03121Y01689*
X03121Y01689*
X03121Y01689*
X03121Y01689*
X0312Y01688*
X0312Y01688*
X03119Y01687*
X03118Y01686*
X03144*
Y0168*
X0311*
Y0168*
Y0168*
Y0168*
X0311Y01681*
X0311Y01682*
X0311Y01682*
X0311Y01683*
X0311Y01684*
Y01684*
X0311Y01684*
X03111Y01684*
X03111Y01685*
X03111Y01686*
X03112Y01687*
X03113Y01688*
X03113Y01689*
X03114Y01691*
Y01691*
X03115Y01691*
X03115Y01691*
X03116Y01692*
X03117Y01693*
X03118Y01694*
X03119Y01695*
X03121Y01697*
X03123Y01698*
X03123Y01698*
X03123Y01699*
X03123Y01699*
X03124Y017*
X03125Y017*
X03126Y01701*
X03127Y01702*
X03129Y01704*
X03131Y01706*
X03132Y01707*
X03133Y01708*
X03133Y01708*
X03134Y01709*
Y01709*
X03134Y01709*
X03134Y0171*
X03134Y0171*
X03135Y01711*
X03136Y01712*
X03136Y01713*
X03137Y01714*
X03137Y01716*
X03137Y01717*
Y01717*
Y01717*
X03137Y01718*
X03137Y01718*
X03137Y01719*
X03136Y0172*
X03136Y01721*
X03135Y01722*
X03134Y01723*
X03134Y01723*
X03134Y01724*
X03133Y01724*
X03132Y01725*
X03131Y01725*
X0313Y01725*
X03129Y01726*
X03127Y01726*
X03127*
X03126Y01726*
X03126Y01726*
X03125Y01726*
X03123Y01725*
X03122Y01725*
X03121Y01724*
X0312Y01723*
X0312Y01723*
X0312Y01723*
X03119Y01722*
X03119Y01721*
X03118Y0172*
X03118Y01719*
X03117Y01717*
X03117Y01716*
X03111Y01716*
Y01716*
Y01717*
X03111Y01717*
X03111Y01717*
X03111Y01718*
X03111Y01719*
X03112Y0172*
X03112Y01722*
X03113Y01724*
X03114Y01726*
X03115Y01726*
X03116Y01727*
X03116Y01727*
X03116Y01727*
X03116Y01728*
X03116Y01728*
X03117Y01728*
X03117Y01728*
X03118Y01729*
X03119Y01729*
X0312Y01729*
X0312Y0173*
X03121Y0173*
X03122Y0173*
X03125Y01731*
X03126Y01731*
X03127Y01731*
X03128*
X03129Y01731*
G37*
G36*
X03182Y01583D02*
X03189D01*
Y01577*
X03182*
Y01565*
X03175*
Y01577*
X03153*
Y01583*
X03177Y01616*
X03182*
Y01583*
G37*
G36*
X03134Y01616D02*
X03134Y01616D01*
X03135Y01616*
X03136Y01616*
X03137Y01616*
X03138Y01615*
X0314Y01614*
X03141Y01614*
X03142Y01613*
X03143Y01613*
X03144Y01612*
X03144Y01612*
X03144Y01612*
X03144Y01612*
X03145Y01611*
X03145Y01611*
X03146Y0161*
X03146Y01609*
X03147Y01608*
X03148Y01606*
X03148Y01604*
X03148Y01603*
X03148Y01602*
Y01602*
Y01601*
X03148Y01601*
X03148Y016*
X03148Y01599*
X03148Y01598*
X03148Y01597*
X03147Y01596*
X03147Y01596*
X03147Y01595*
X03147Y01595*
X03146Y01594*
X03146Y01593*
X03145Y01592*
X03144Y01591*
X03143Y01589*
X03143Y01589*
X03142Y01589*
X03142Y01588*
X03141Y01588*
X03141Y01587*
X0314Y01586*
X03139Y01586*
X03138Y01585*
X03138Y01584*
X03137Y01583*
X03136Y01582*
X03134Y01581*
X03133Y0158*
X03133Y0158*
X03133Y0158*
X03133Y0158*
X03132Y0158*
X03131Y01579*
X0313Y01578*
X03129Y01577*
X03128Y01576*
X03127Y01575*
X03126Y01574*
X03126Y01574*
X03126Y01574*
X03126Y01574*
X03125Y01573*
X03125Y01573*
X03124Y01572*
X03123Y01571*
X03149*
Y01565*
X03115*
Y01565*
Y01565*
Y01565*
X03115Y01566*
X03115Y01567*
X03115Y01567*
X03115Y01568*
X03115Y01569*
Y01569*
X03115Y01569*
X03116Y01569*
X03116Y0157*
X03116Y01571*
X03117Y01572*
X03118Y01573*
X03118Y01574*
X03119Y01576*
Y01576*
X0312Y01576*
X0312Y01576*
X03121Y01577*
X03122Y01578*
X03123Y01579*
X03124Y0158*
X03126Y01582*
X03128Y01583*
X03128Y01583*
X03128Y01584*
X03128Y01584*
X03129Y01585*
X0313Y01585*
X03131Y01586*
X03132Y01587*
X03134Y01589*
X03136Y01591*
X03137Y01592*
X03138Y01593*
X03138Y01593*
X03139Y01594*
Y01594*
X03139Y01594*
X03139Y01595*
X03139Y01595*
X0314Y01596*
X03141Y01597*
X03141Y01598*
X03142Y01599*
X03142Y01601*
X03142Y01602*
Y01602*
Y01602*
X03142Y01603*
X03142Y01603*
X03142Y01604*
X03141Y01605*
X03141Y01606*
X0314Y01607*
X03139Y01608*
X03139Y01608*
X03139Y01609*
X03138Y01609*
X03137Y0161*
X03136Y0161*
X03135Y0161*
X03134Y01611*
X03132Y01611*
X03132*
X03131Y01611*
X03131Y01611*
X0313Y01611*
X03128Y0161*
X03127Y0161*
X03126Y01609*
X03125Y01608*
X03125Y01608*
X03125Y01608*
X03124Y01607*
X03124Y01606*
X03123Y01605*
X03123Y01604*
X03122Y01602*
X03122Y01601*
X03116Y01601*
Y01601*
Y01602*
X03116Y01602*
X03116Y01602*
X03116Y01603*
X03116Y01604*
X03117Y01605*
X03117Y01607*
X03118Y01609*
X03119Y01611*
X0312Y01611*
X03121Y01612*
X03121Y01612*
X03121Y01612*
X03121Y01613*
X03121Y01613*
X03122Y01613*
X03122Y01613*
X03123Y01614*
X03124Y01614*
X03125Y01614*
X03125Y01615*
X03126Y01615*
X03127Y01615*
X0313Y01616*
X03131Y01616*
X03132Y01616*
X03133*
X03134Y01616*
G37*
G36*
X03094Y02816D02*
X03094Y02816D01*
X03095Y02816*
X03096Y02816*
X03097Y02816*
X03098Y02815*
X031Y02814*
X03101Y02814*
X03102Y02813*
X03103Y02813*
X03104Y02812*
X03104Y02812*
X03104Y02812*
X03104Y02812*
X03105Y02811*
X03105Y02811*
X03106Y0281*
X03106Y02809*
X03107Y02808*
X03108Y02806*
X03108Y02804*
X03108Y02803*
X03108Y02802*
Y02802*
Y02801*
X03108Y02801*
X03108Y028*
X03108Y02799*
X03108Y02798*
X03108Y02797*
X03107Y02796*
X03107Y02796*
X03107Y02795*
X03107Y02795*
X03106Y02794*
X03106Y02793*
X03105Y02792*
X03104Y02791*
X03103Y02789*
X03103Y02789*
X03102Y02789*
X03102Y02788*
X03101Y02788*
X03101Y02787*
X031Y02786*
X03099Y02786*
X03098Y02785*
X03098Y02784*
X03097Y02783*
X03096Y02782*
X03094Y02781*
X03093Y0278*
X03093Y0278*
X03093Y0278*
X03093Y0278*
X03092Y0278*
X03091Y02779*
X0309Y02778*
X03089Y02777*
X03088Y02776*
X03087Y02775*
X03086Y02774*
X03086Y02774*
X03086Y02774*
X03086Y02774*
X03085Y02773*
X03085Y02773*
X03084Y02772*
X03083Y02771*
X03109*
Y02765*
X03075*
Y02765*
Y02765*
Y02765*
X03075Y02766*
X03075Y02767*
X03075Y02767*
X03075Y02768*
X03075Y02769*
Y02769*
X03075Y02769*
X03076Y02769*
X03076Y0277*
X03076Y02771*
X03077Y02772*
X03078Y02773*
X03078Y02774*
X03079Y02776*
Y02776*
X0308Y02776*
X0308Y02776*
X03081Y02777*
X03082Y02778*
X03083Y02779*
X03084Y0278*
X03086Y02782*
X03088Y02783*
X03088Y02783*
X03088Y02784*
X03088Y02784*
X03089Y02785*
X0309Y02785*
X03091Y02786*
X03092Y02787*
X03094Y02789*
X03096Y02791*
X03097Y02792*
X03098Y02793*
X03098Y02793*
X03099Y02794*
Y02794*
X03099Y02794*
X03099Y02795*
X03099Y02795*
X031Y02796*
X03101Y02797*
X03101Y02798*
X03102Y02799*
X03102Y02801*
X03102Y02802*
Y02802*
Y02802*
X03102Y02803*
X03102Y02803*
X03102Y02804*
X03101Y02805*
X03101Y02806*
X031Y02807*
X03099Y02808*
X03099Y02808*
X03099Y02809*
X03098Y02809*
X03097Y0281*
X03096Y0281*
X03095Y0281*
X03094Y02811*
X03092Y02811*
X03092*
X03091Y02811*
X03091Y02811*
X0309Y02811*
X03088Y0281*
X03087Y0281*
X03086Y02809*
X03085Y02808*
X03085Y02808*
X03085Y02808*
X03084Y02807*
X03084Y02806*
X03083Y02805*
X03083Y02804*
X03082Y02802*
X03082Y02801*
X03076Y02801*
Y02801*
Y02802*
X03076Y02802*
X03076Y02802*
X03076Y02803*
X03076Y02804*
X03077Y02805*
X03077Y02807*
X03078Y02809*
X03079Y02811*
X0308Y02811*
X03081Y02812*
X03081Y02812*
X03081Y02812*
X03081Y02813*
X03081Y02813*
X03082Y02813*
X03082Y02813*
X03083Y02814*
X03084Y02814*
X03085Y02814*
X03085Y02815*
X03086Y02815*
X03087Y02815*
X0309Y02816*
X03091Y02816*
X03092Y02816*
X03093*
X03094Y02816*
G37*
G36*
X03133D02*
X03134Y02816D01*
X03135Y02816*
X03137Y02815*
X03138Y02815*
X03139Y02814*
X03139Y02814*
X0314Y02814*
X0314Y02814*
X03141Y02813*
X03142Y02812*
X03143Y02812*
X03144Y02811*
X03144Y0281*
X03144Y02809*
X03145Y02809*
X03145Y02808*
X03145Y02807*
X03146Y02806*
X03147Y02805*
X03147Y02804*
X03148Y02802*
Y02802*
X03148Y02802*
Y02801*
X03148Y02801*
X03148Y02801*
X03148Y028*
X03148Y02799*
X03148Y02799*
X03148Y02798*
X03148Y02797*
X03148Y02796*
X03149Y02795*
X03149Y02794*
Y02793*
X03149Y0279*
Y0279*
Y02789*
Y02789*
Y02788*
X03149Y02788*
Y02787*
X03149Y02786*
X03148Y02785*
X03148Y02782*
X03148Y0278*
X03147Y02777*
X03147Y02776*
X03147Y02775*
Y02775*
X03147Y02775*
X03147Y02775*
X03147Y02774*
X03146Y02774*
X03146Y02773*
X03145Y02772*
X03145Y02771*
X03144Y02769*
X03143Y02768*
X03141Y02767*
X03141*
X03141Y02766*
X03141Y02766*
X03141Y02766*
X0314Y02766*
X03139Y02765*
X03137Y02765*
X03136Y02764*
X03134Y02764*
X03132Y02764*
X03131*
X03131Y02764*
X0313Y02764*
X03129Y02764*
X03129Y02764*
X03128Y02764*
X03126Y02765*
X03125Y02765*
X03124Y02766*
X03123Y02766*
X03122Y02767*
X03121Y02768*
X0312Y02769*
X0312Y02769*
X0312Y02769*
X0312Y0277*
X03119Y0277*
X03119Y02771*
X03119Y02772*
X03118Y02773*
X03118Y02774*
X03117Y02775*
X03117Y02777*
X03116Y02779*
X03116Y0278*
X03116Y02783*
X03116Y02785*
X03115Y02787*
X03115Y0279*
Y0279*
Y0279*
Y02791*
Y02791*
X03115Y02792*
Y02793*
X03115Y02794*
X03116Y02795*
X03116Y02797*
X03116Y028*
X03116Y02802*
X03117Y02803*
X03117Y02804*
Y02804*
X03117Y02805*
X03117Y02805*
X03117Y02805*
X03118Y02806*
X03118Y02806*
X03118Y02808*
X03119Y02809*
X0312Y0281*
X03121Y02812*
X03123Y02813*
X03123*
X03123Y02813*
X03123Y02813*
X03123Y02813*
X03124Y02814*
X03125Y02815*
X03127Y02815*
X03128Y02816*
X0313Y02816*
X03132Y02816*
X03133*
X03133Y02816*
G37*
%LNpcb1-2*%
%LPC*%
G36*
X03132Y03041D02*
X03131D01*
X0313Y03041*
X0313Y03041*
X03129Y0304*
X03128Y0304*
X03127Y03039*
X03126Y03039*
X03126Y03038*
X03125Y03038*
X03125Y03038*
X03125Y03037*
X03124Y03036*
X03124Y03035*
X03123Y03034*
X03123Y03033*
Y03033*
Y03032*
X03124Y03032*
X03124Y03031*
X03124Y0303*
X03124Y03029*
X03125Y03028*
X03126Y03027*
X03126Y03027*
X03126Y03027*
X03127Y03026*
X03127Y03026*
X03128Y03026*
X03129Y03025*
X0313Y03025*
X03132Y03025*
X03132*
X03133Y03025*
X03134Y03025*
X03135Y03025*
X03136Y03026*
X03137Y03026*
X03138Y03027*
X03138Y03027*
X03138Y03027*
X03139Y03028*
X03139Y03029*
X03139Y03029*
X0314Y0303*
X0314Y03032*
X0314Y03033*
Y03033*
Y03033*
Y03033*
X0314Y03034*
X0314Y03035*
X03139Y03036*
X03139Y03037*
X03138Y03038*
X03138Y03038*
X03138Y03039*
X03137Y03039*
X03137Y03039*
X03136Y0304*
X03135Y0304*
X03134Y03041*
X03133Y03041*
X03132Y03041*
G37*
G36*
X03132Y0302D02*
X03131D01*
X03131Y0302*
X0313Y03019*
X03129Y03019*
X03128Y03019*
X03127Y03018*
X03125Y03018*
X03124Y03017*
X03124Y03017*
X03124Y03016*
X03123Y03016*
X03123Y03015*
X03122Y03014*
X03122Y03012*
X03122Y03011*
X03121Y03009*
Y03009*
Y03009*
X03121Y03008*
X03122Y03008*
X03122Y03007*
X03122Y03006*
X03122Y03005*
X03123Y03004*
X03123Y03004*
X03123Y03004*
X03123Y03003*
X03124Y03003*
X03124Y03002*
X03125Y03001*
X03126Y03001*
X03126Y03*
X03127Y03*
X03127Y03*
X03127Y03*
X03128Y03*
X03129Y02999*
X0313Y02999*
X03131Y02999*
X03132Y02999*
X03132*
X03133Y02999*
X03133Y02999*
X03134Y02999*
X03136Y03*
X03137Y03*
X03138Y03001*
X03139Y03002*
X03139Y03002*
X0314Y03002*
X0314Y03003*
X03141Y03004*
X03141Y03005*
X03142Y03006*
X03142Y03007*
X03142Y03009*
Y03009*
Y03009*
Y0301*
X03142Y0301*
X03142Y03011*
X03142Y03012*
X03142Y03013*
X03141Y03014*
X0314Y03015*
X03139Y03017*
X03139Y03017*
X03139Y03017*
X03138Y03018*
X03137Y03018*
X03136Y03019*
X03135Y03019*
X03133Y03019*
X03132Y0302*
G37*
G36*
X03132Y02936D02*
X03131D01*
X03131Y02936*
X0313Y02936*
X03129Y02935*
X03128Y02935*
X03127Y02934*
X03126Y02934*
X03125Y02933*
X03124Y02932*
X03124Y02932*
X03124Y02932*
X03124Y02931*
X03123Y0293*
X03122Y02929*
X03122Y02927*
X03122Y02925*
X03121Y02923*
Y02923*
Y02923*
Y02923*
X03122Y02923*
X03122Y02922*
X03122Y02921*
X03122Y02919*
X03123Y02918*
X03123Y02917*
X03124Y02916*
X03124Y02915*
X03125Y02915*
X03126Y02915*
X03126Y02914*
X03127Y02913*
X03129Y02913*
X0313Y02913*
X03132Y02912*
X03132*
X03132Y02913*
X03133Y02913*
X03134Y02913*
X03135Y02913*
X03137Y02914*
X03138Y02914*
X03139Y02916*
X03139Y02916*
X03139Y02916*
X0314Y02917*
X0314Y02918*
X03141Y02919*
X03141Y0292*
X03142Y02922*
X03142Y02924*
Y02924*
Y02924*
Y02924*
X03142Y02925*
Y02925*
X03142Y02926*
X03141Y02927*
X03141Y02928*
X0314Y0293*
X0314Y02931*
X03139Y02933*
X03139Y02933*
X03138Y02933*
X03138Y02934*
X03137Y02934*
X03136Y02935*
X03135Y02935*
X03133Y02936*
X03132Y02936*
G37*
G36*
X05766Y04126D02*
X05766D01*
X05765Y04126*
X05765Y04126*
X05764Y04125*
X05763Y04125*
X05761Y04124*
X0576Y04123*
X0576Y04123*
X05759Y04122*
Y04122*
X05759Y04122*
X05759Y04122*
X05759Y04121*
X05758Y04121*
X05758Y0412*
X05758Y04119*
X05758Y04118*
X05757Y04117*
X05757Y04116*
X05757Y04114*
X05756Y04113*
X05756Y04111*
X05756Y04109*
X05756Y04107*
Y04105*
Y04105*
Y04104*
Y04104*
X05756Y04103*
Y04102*
X05756Y04101*
X05756Y04099*
X05756Y04098*
X05757Y04095*
X05757Y04092*
X05758Y04091*
X05758Y0409*
X05758Y04089*
X05759Y04088*
Y04088*
X05759Y04088*
X05759Y04087*
X0576Y04087*
X05761Y04086*
X05762Y04085*
X05763Y04084*
X05765Y04084*
X05765Y04084*
X05766Y04084*
X05767*
X05767Y04084*
X05768Y04084*
X05769Y04084*
X0577Y04085*
X05771Y04086*
X05772Y04086*
X05772Y04087*
X05773Y04087*
X05773Y04088*
Y04088*
X05774Y04088*
X05774Y04088*
X05774Y04089*
X05774Y04089*
X05774Y0409*
X05775Y04091*
X05775Y04092*
X05775Y04093*
X05775Y04094*
X05776Y04095*
X05776Y04097*
X05776Y04099*
X05776Y041*
X05776Y04103*
Y04105*
Y04105*
Y04105*
Y04106*
X05776Y04107*
Y04108*
X05776Y04109*
X05776Y0411*
X05776Y04112*
X05776Y04114*
X05775Y04117*
X05775Y04119*
X05774Y0412*
X05774Y04121*
X05773Y04122*
Y04122*
X05773Y04122*
X05773Y04122*
X05772Y04123*
X05771Y04124*
X0577Y04124*
X05769Y04125*
X05768Y04126*
X05767Y04126*
X05766Y04126*
G37*
G36*
X05856D02*
X05856D01*
X05856Y04126*
X05855Y04126*
X05854Y04125*
X05853Y04125*
X05852Y04124*
X0585Y04124*
X0585Y04123*
X05849Y04122*
X05849Y04122*
X05849Y04122*
X05848Y04121*
X05848Y0412*
X05847Y04119*
X05846Y04117*
X05846Y04115*
X05846Y04113*
Y04113*
Y04113*
Y04113*
X05846Y04113*
X05846Y04112*
X05846Y04111*
X05847Y04109*
X05847Y04108*
X05848Y04107*
X05849Y04106*
X05849Y04105*
X05849Y04105*
X0585Y04105*
X05851Y04104*
X05852Y04103*
X05853Y04103*
X05855Y04103*
X05856Y04102*
X05857*
X05857Y04103*
X05858Y04103*
X05859Y04103*
X0586Y04103*
X05861Y04104*
X05862Y04104*
X05863Y04106*
X05863Y04106*
X05864Y04106*
X05864Y04107*
X05865Y04108*
X05865Y04109*
X05866Y0411*
X05866Y04112*
X05866Y04114*
Y04114*
Y04114*
Y04114*
X05866Y04115*
Y04115*
X05866Y04116*
X05866Y04117*
X05866Y04118*
X05865Y0412*
X05864Y04121*
X05863Y04123*
X05863Y04123*
X05863Y04123*
X05862Y04124*
X05861Y04124*
X0586Y04125*
X05859Y04125*
X05858Y04126*
X05856Y04126*
G37*
G36*
X06077Y04107D02*
X06077D01*
X06076Y04107*
X06075Y04107*
X06074Y04107*
X06073Y04106*
X06072Y04106*
X06071Y04105*
X0607Y04104*
X0607Y04104*
X06069Y04104*
X06069Y04103*
X06068Y04102*
X06068Y04101*
X06067Y04099*
X06067Y04098*
X06067Y04096*
Y04096*
Y04096*
X06067Y04095*
X06067Y04094*
X06067Y04093*
X06067Y04092*
X06068Y04091*
X06068Y0409*
X06068Y0409*
X06068Y04089*
X06069Y04089*
X06069Y04088*
X0607Y04087*
X0607Y04087*
X06071Y04086*
X06072Y04085*
X06072Y04085*
X06072Y04085*
X06073Y04085*
X06073Y04085*
X06074Y04084*
X06075Y04084*
X06076Y04084*
X06077Y04084*
X06078*
X06078Y04084*
X06079Y04084*
X0608Y04084*
X06081Y04085*
X06082Y04085*
X06083Y04086*
X06084Y04087*
X06084Y04087*
X06084Y04088*
X06085Y04088*
X06086Y04089*
X06086Y04091*
X06086Y04092*
X06087Y04094*
X06087Y04096*
Y04096*
Y04096*
Y04096*
X06087Y04097*
Y04097*
X06087Y04098*
X06087Y04099*
X06086Y041*
X06086Y04102*
X06085Y04103*
X06084Y04104*
X06084Y04104*
X06084Y04105*
X06083Y04105*
X06082Y04106*
X06081Y04106*
X0608Y04107*
X06078Y04107*
X06077Y04107*
G37*
G36*
X04757Y00917D02*
X04756D01*
X04756Y00917*
X04755Y00917*
X04754Y00917*
X04753Y00916*
X04752Y00916*
X04751Y00915*
X04749Y00914*
X04749Y00914*
X04749Y00914*
X04748Y00913*
X04748Y00912*
X04747Y00911*
X04747Y00909*
X04747Y00908*
X04746Y00906*
Y00906*
Y00906*
X04747Y00905*
X04747Y00904*
X04747Y00903*
X04747Y00902*
X04747Y00901*
X04748Y009*
X04748Y009*
X04748Y00899*
X04748Y00899*
X04749Y00898*
X04749Y00897*
X0475Y00897*
X04751Y00896*
X04752Y00895*
X04752Y00895*
X04752Y00895*
X04753Y00895*
X04753Y00895*
X04754Y00894*
X04755Y00894*
X04756Y00894*
X04757Y00894*
X04757*
X04758Y00894*
X04758Y00894*
X04759Y00894*
X0476Y00895*
X04761Y00895*
X04763Y00896*
X04764Y00897*
X04764Y00897*
X04764Y00898*
X04765Y00898*
X04765Y00899*
X04766Y00901*
X04766Y00902*
X04766Y00904*
X04767Y00906*
Y00906*
Y00906*
Y00906*
X04767Y00907*
Y00907*
X04766Y00908*
X04766Y00909*
X04766Y0091*
X04765Y00912*
X04765Y00913*
X04764Y00914*
X04764Y00914*
X04763Y00915*
X04763Y00915*
X04762Y00916*
X04761Y00916*
X0476Y00917*
X04758Y00917*
X04757Y00917*
G37*
G36*
X05085Y0093D02*
X05069Y00907D01*
X05085*
Y0093*
G37*
G36*
X06347Y02296D02*
X06331Y02273D01*
X06347*
Y02296*
G37*
G36*
X04501Y04142D02*
X04501D01*
X045Y04142*
X04499Y04141*
X04498Y04141*
X04497Y04141*
X04496Y0414*
X04495Y04139*
X04495Y04139*
X04495Y04139*
X04495Y04138*
X04494Y04138*
X04494Y04137*
X04493Y04136*
X04493Y04135*
X04493Y04134*
Y04134*
Y04133*
X04493Y04133*
X04493Y04132*
X04494Y04131*
X04494Y0413*
X04494Y04129*
X04495Y04128*
X04495Y04128*
X04496Y04128*
X04496Y04127*
X04497Y04127*
X04498Y04126*
X04499Y04126*
X045Y04126*
X04501Y04126*
X04502*
X04503Y04126*
X04503Y04126*
X04504Y04126*
X04505Y04127*
X04506Y04127*
X04507Y04128*
X04507Y04128*
X04508Y04128*
X04508Y04129*
X04509Y04129*
X04509Y0413*
X04509Y04131*
X0451Y04132*
X0451Y04134*
Y04134*
Y04134*
Y04134*
X0451Y04135*
X04509Y04136*
X04509Y04136*
X04509Y04137*
X04508Y04138*
X04507Y04139*
X04507Y04139*
X04507Y0414*
X04506Y0414*
X04506Y04141*
X04505Y04141*
X04504Y04141*
X04503Y04142*
X04501Y04142*
G37*
G36*
X04501Y04121D02*
X04501D01*
X04501Y0412*
X045Y0412*
X04499Y0412*
X04497Y0412*
X04496Y04119*
X04495Y04119*
X04494Y04118*
X04494Y04117*
X04493Y04117*
X04493Y04116*
X04492Y04116*
X04492Y04114*
X04491Y04113*
X04491Y04112*
X04491Y0411*
Y0411*
Y0411*
X04491Y04109*
X04491Y04108*
X04491Y04108*
X04492Y04107*
X04492Y04106*
X04492Y04105*
X04492Y04105*
X04492Y04104*
X04493Y04104*
X04493Y04103*
X04494Y04103*
X04494Y04102*
X04495Y04102*
X04496Y04101*
X04496Y04101*
X04496Y04101*
X04497Y04101*
X04498Y041*
X04498Y041*
X04499Y041*
X045Y041*
X04501Y041*
X04502*
X04502Y041*
X04503Y041*
X04504Y041*
X04505Y041*
X04507Y04101*
X04508Y04102*
X04509Y04103*
X04509Y04103*
X04509Y04103*
X0451Y04104*
X0451Y04105*
X04511Y04106*
X04511Y04107*
X04512Y04108*
X04512Y0411*
Y0411*
Y0411*
Y0411*
X04512Y04111*
X04512Y04112*
X04511Y04113*
X04511Y04114*
X04511Y04115*
X0451Y04116*
X04509Y04117*
X04509Y04118*
X04508Y04118*
X04508Y04118*
X04507Y04119*
X04506Y0412*
X04504Y0412*
X04503Y0412*
X04501Y04121*
G37*
G36*
X03175Y01606D02*
X03159Y01583D01*
X03175*
Y01606*
G37*
G36*
X03132Y02811D02*
X03132D01*
X03131Y02811*
X0313Y02811*
X03129Y0281*
X03128Y0281*
X03127Y02809*
X03126Y02808*
X03125Y02808*
X03125Y02807*
Y02807*
X03125Y02807*
X03125Y02807*
X03124Y02806*
X03124Y02806*
X03124Y02805*
X03124Y02804*
X03123Y02803*
X03123Y02802*
X03123Y02801*
X03123Y02799*
X03122Y02798*
X03122Y02796*
X03122Y02794*
X03122Y02792*
Y0279*
Y0279*
Y02789*
Y02789*
X03122Y02788*
Y02787*
X03122Y02786*
X03122Y02784*
X03122Y02783*
X03122Y0278*
X03123Y02777*
X03123Y02776*
X03124Y02775*
X03124Y02774*
X03125Y02773*
Y02773*
X03125Y02773*
X03125Y02772*
X03126Y02772*
X03127Y02771*
X03128Y0277*
X03129Y02769*
X0313Y02769*
X03131Y02769*
X03132Y02769*
X03132*
X03133Y02769*
X03133Y02769*
X03134Y02769*
X03136Y0277*
X03137Y02771*
X03137Y02771*
X03138Y02772*
X03139Y02772*
X03139Y02773*
Y02773*
X03139Y02773*
X0314Y02773*
X0314Y02774*
X0314Y02774*
X0314Y02775*
X0314Y02776*
X03141Y02777*
X03141Y02778*
X03141Y02779*
X03142Y0278*
X03142Y02782*
X03142Y02784*
X03142Y02785*
X03142Y02788*
Y0279*
Y0279*
Y0279*
Y02791*
X03142Y02792*
Y02793*
X03142Y02794*
X03142Y02795*
X03142Y02797*
X03142Y02799*
X03141Y02802*
X03141Y02804*
X0314Y02805*
X0314Y02806*
X03139Y02807*
Y02807*
X03139Y02807*
X03139Y02807*
X03138Y02808*
X03137Y02809*
X03136Y02809*
X03135Y0281*
X03133Y02811*
X03133Y02811*
X03132Y02811*
G37*
%LNpcb1-3*%
%LPD*%
G54D10*
X0638Y03521D02*
D01*
X0638Y03521*
X06381Y03521*
X06382Y03521*
X06383Y03521*
X06384Y03521*
X06385Y03522*
X06385Y03522*
X06386Y03523*
X06387Y03523*
X06388Y03524*
X06388Y03524*
X06389Y03525*
X06389Y03526*
X0639Y03526*
X0639Y03527*
X06391Y03528*
X06391Y03529*
X06391Y03529*
X06392Y0353*
X06392Y03531*
X06392Y03532*
X06392Y03533*
Y03534*
X06392Y03535*
X06392Y03535*
X06392Y03536*
X06391Y03537*
X06391Y03538*
X06391Y03539*
X0639Y03539*
X0639Y0354*
X06389Y03541*
X06389Y03542*
X06388Y03542*
X06388Y03543*
X06387Y03543*
X06386Y03544*
X06385Y03544*
X06385Y03545*
X06384Y03545*
X06383Y03545*
X06382Y03545*
X06381Y03546*
X0638Y03546*
X0638Y03546*
X05831Y0262D02*
D01*
X05831Y02619*
X05831Y02618*
X05831Y02617*
X05831Y02616*
X05831Y02615*
X05832Y02614*
X05832Y02614*
X05833Y02613*
X05833Y02612*
X05834Y02611*
X05834Y02611*
X05835Y0261*
X05836Y0261*
X05836Y02609*
X05837Y02609*
X05838Y02608*
X05839Y02608*
X05839Y02608*
X0584Y02607*
X05841Y02607*
X05842Y02607*
X05843Y02607*
X05844*
X05845Y02607*
X05845Y02607*
X05846Y02607*
X05847Y02608*
X05848Y02608*
X05849Y02608*
X05849Y02609*
X0585Y02609*
X05851Y0261*
X05852Y0261*
X05852Y02611*
X05853Y02611*
X05853Y02612*
X05854Y02613*
X05854Y02614*
X05855Y02614*
X05855Y02615*
X05855Y02616*
X05855Y02617*
X05856Y02618*
X05856Y02619*
X05856Y0262*
X05831Y02095D02*
D01*
X05831Y02094*
X05831Y02093*
X05831Y02092*
X05831Y02091*
X05831Y0209*
X05832Y02089*
X05832Y02089*
X05833Y02088*
X05833Y02087*
X05834Y02086*
X05834Y02086*
X05835Y02085*
X05836Y02085*
X05836Y02084*
X05837Y02084*
X05838Y02083*
X05839Y02083*
X05839Y02083*
X0584Y02082*
X05841Y02082*
X05842Y02082*
X05843Y02082*
X05844*
X05845Y02082*
X05845Y02082*
X05846Y02082*
X05847Y02083*
X05848Y02083*
X05849Y02083*
X05849Y02084*
X0585Y02084*
X05851Y02085*
X05852Y02085*
X05852Y02086*
X05853Y02086*
X05853Y02087*
X05854Y02088*
X05854Y02089*
X05855Y02089*
X05855Y0209*
X05855Y02091*
X05855Y02092*
X05856Y02093*
X05856Y02094*
X05856Y02095*
X05831Y01835D02*
D01*
X05831Y01834*
X05831Y01833*
X05831Y01832*
X05831Y01831*
X05831Y0183*
X05832Y01829*
X05832Y01829*
X05833Y01828*
X05833Y01827*
X05834Y01826*
X05834Y01826*
X05835Y01825*
X05836Y01825*
X05836Y01824*
X05837Y01824*
X05838Y01823*
X05839Y01823*
X05839Y01823*
X0584Y01822*
X05841Y01822*
X05842Y01822*
X05843Y01822*
X05844*
X05845Y01822*
X05845Y01822*
X05846Y01822*
X05847Y01823*
X05848Y01823*
X05849Y01823*
X05849Y01824*
X0585Y01824*
X05851Y01825*
X05852Y01825*
X05852Y01826*
X05853Y01826*
X05853Y01827*
X05854Y01828*
X05854Y01829*
X05855Y01829*
X05855Y0183*
X05855Y01831*
X05855Y01832*
X05856Y01833*
X05856Y01834*
X05856Y01835*
X0543Y01436D02*
D01*
X05429Y01436*
X05428Y01436*
X05427Y01435*
X05426Y01435*
X05425Y01435*
X05424Y01435*
X05424Y01434*
X05423Y01434*
X05422Y01433*
X05421Y01433*
X05421Y01432*
X0542Y01432*
X0542Y01431*
X05419Y0143*
X05419Y01429*
X05418Y01429*
X05418Y01428*
X05418Y01427*
X05417Y01426*
X05417Y01425*
X05417Y01425*
X05417Y01424*
Y01423*
X05417Y01422*
X05417Y01421*
X05417Y0142*
X05418Y01419*
X05418Y01419*
X05418Y01418*
X05419Y01417*
X05419Y01416*
X0542Y01416*
X0542Y01415*
X05421Y01414*
X05421Y01414*
X05422Y01413*
X05423Y01413*
X05424Y01412*
X05424Y01412*
X05425Y01411*
X05426Y01411*
X05427Y01411*
X05428Y01411*
X05429Y01411*
X0543Y01411*
X0513Y01436D02*
D01*
X05129Y01436*
X05128Y01436*
X05127Y01435*
X05126Y01435*
X05125Y01435*
X05124Y01435*
X05124Y01434*
X05123Y01434*
X05122Y01433*
X05121Y01433*
X05121Y01432*
X0512Y01432*
X0512Y01431*
X05119Y0143*
X05119Y01429*
X05118Y01429*
X05118Y01428*
X05118Y01427*
X05117Y01426*
X05117Y01425*
X05117Y01425*
X05117Y01424*
Y01423*
X05117Y01422*
X05117Y01421*
X05117Y0142*
X05118Y01419*
X05118Y01419*
X05118Y01418*
X05119Y01417*
X05119Y01416*
X0512Y01416*
X0512Y01415*
X05121Y01414*
X05121Y01414*
X05122Y01413*
X05123Y01413*
X05124Y01412*
X05124Y01412*
X05125Y01411*
X05126Y01411*
X05127Y01411*
X05128Y01411*
X05129Y01411*
X0513Y01411*
X0482Y01436D02*
D01*
X04819Y01436*
X04818Y01436*
X04817Y01435*
X04816Y01435*
X04815Y01435*
X04814Y01435*
X04814Y01434*
X04813Y01434*
X04812Y01433*
X04811Y01433*
X04811Y01432*
X0481Y01432*
X0481Y01431*
X04809Y0143*
X04809Y01429*
X04808Y01429*
X04808Y01428*
X04808Y01427*
X04807Y01426*
X04807Y01425*
X04807Y01425*
X04807Y01424*
Y01423*
X04807Y01422*
X04807Y01421*
X04807Y0142*
X04808Y01419*
X04808Y01419*
X04808Y01418*
X04809Y01417*
X04809Y01416*
X0481Y01416*
X0481Y01415*
X04811Y01414*
X04811Y01414*
X04812Y01413*
X04813Y01413*
X04814Y01412*
X04814Y01412*
X04815Y01411*
X04816Y01411*
X04817Y01411*
X04818Y01411*
X04819Y01411*
X0482Y01411*
X04525Y01436D02*
D01*
X04524Y01436*
X04523Y01436*
X04522Y01435*
X04521Y01435*
X0452Y01435*
X04519Y01435*
X04519Y01434*
X04518Y01434*
X04517Y01433*
X04516Y01433*
X04516Y01432*
X04515Y01432*
X04515Y01431*
X04514Y0143*
X04514Y01429*
X04513Y01429*
X04513Y01428*
X04513Y01427*
X04512Y01426*
X04512Y01425*
X04512Y01425*
X04512Y01424*
Y01423*
X04512Y01422*
X04512Y01421*
X04512Y0142*
X04513Y01419*
X04513Y01419*
X04513Y01418*
X04514Y01417*
X04514Y01416*
X04515Y01416*
X04515Y01415*
X04516Y01414*
X04516Y01414*
X04517Y01413*
X04518Y01413*
X04519Y01412*
X04519Y01412*
X0452Y01411*
X04521Y01411*
X04522Y01411*
X04523Y01411*
X04524Y01411*
X04525Y01411*
X03756Y01065D02*
D01*
X03756Y01065*
X03756Y01066*
X03755Y01067*
X03755Y01068*
X03755Y01069*
X03755Y0107*
X03754Y0107*
X03754Y01071*
X03753Y01072*
X03753Y01073*
X03752Y01073*
X03752Y01074*
X03751Y01074*
X0375Y01075*
X03749Y01075*
X03749Y01076*
X03748Y01076*
X03747Y01076*
X03746Y01077*
X03745Y01077*
X03745Y01077*
X03744Y01077*
X03743*
X03742Y01077*
X03741Y01077*
X0374Y01077*
X03739Y01076*
X03739Y01076*
X03738Y01076*
X03737Y01075*
X03736Y01075*
X03736Y01074*
X03735Y01074*
X03734Y01073*
X03734Y01073*
X03733Y01072*
X03733Y01071*
X03732Y0107*
X03732Y0107*
X03731Y01069*
X03731Y01068*
X03731Y01067*
X03731Y01066*
X03731Y01065*
X03731Y01065*
X03756Y0137D02*
D01*
X03756Y0137*
X03756Y01371*
X03755Y01372*
X03755Y01373*
X03755Y01374*
X03755Y01375*
X03754Y01375*
X03754Y01376*
X03753Y01377*
X03753Y01378*
X03752Y01378*
X03752Y01379*
X03751Y01379*
X0375Y0138*
X03749Y0138*
X03749Y01381*
X03748Y01381*
X03747Y01381*
X03746Y01382*
X03745Y01382*
X03745Y01382*
X03744Y01382*
X03743*
X03742Y01382*
X03741Y01382*
X0374Y01382*
X03739Y01381*
X03739Y01381*
X03738Y01381*
X03737Y0138*
X03736Y0138*
X03736Y01379*
X03735Y01379*
X03734Y01378*
X03734Y01378*
X03733Y01377*
X03733Y01376*
X03732Y01375*
X03732Y01375*
X03731Y01374*
X03731Y01373*
X03731Y01372*
X03731Y01371*
X03731Y0137*
X03731Y0137*
X03756Y0167D02*
D01*
X03756Y0167*
X03756Y01671*
X03755Y01672*
X03755Y01673*
X03755Y01674*
X03755Y01675*
X03754Y01675*
X03754Y01676*
X03753Y01677*
X03753Y01678*
X03752Y01678*
X03752Y01679*
X03751Y01679*
X0375Y0168*
X03749Y0168*
X03749Y01681*
X03748Y01681*
X03747Y01681*
X03746Y01682*
X03745Y01682*
X03745Y01682*
X03744Y01682*
X03743*
X03742Y01682*
X03741Y01682*
X0374Y01682*
X03739Y01681*
X03739Y01681*
X03738Y01681*
X03737Y0168*
X03736Y0168*
X03736Y01679*
X03735Y01679*
X03734Y01678*
X03734Y01678*
X03733Y01677*
X03733Y01676*
X03732Y01675*
X03732Y01675*
X03731Y01674*
X03731Y01673*
X03731Y01672*
X03731Y01671*
X03731Y0167*
X03731Y0167*
X03756Y0199D02*
D01*
X03756Y0199*
X03756Y01991*
X03755Y01992*
X03755Y01993*
X03755Y01994*
X03755Y01995*
X03754Y01995*
X03754Y01996*
X03753Y01997*
X03753Y01998*
X03752Y01998*
X03752Y01999*
X03751Y01999*
X0375Y02*
X03749Y02*
X03749Y02001*
X03748Y02001*
X03747Y02001*
X03746Y02002*
X03745Y02002*
X03745Y02002*
X03744Y02002*
X03743*
X03742Y02002*
X03741Y02002*
X0374Y02002*
X03739Y02001*
X03739Y02001*
X03738Y02001*
X03737Y02*
X03736Y02*
X03736Y01999*
X03735Y01999*
X03734Y01998*
X03734Y01998*
X03733Y01997*
X03733Y01996*
X03732Y01995*
X03732Y01995*
X03731Y01994*
X03731Y01993*
X03731Y01992*
X03731Y01991*
X03731Y0199*
X03731Y0199*
X03756Y0232D02*
D01*
X03756Y0232*
X03756Y02321*
X03755Y02322*
X03755Y02323*
X03755Y02324*
X03755Y02325*
X03754Y02325*
X03754Y02326*
X03753Y02327*
X03753Y02328*
X03752Y02328*
X03752Y02329*
X03751Y02329*
X0375Y0233*
X03749Y0233*
X03749Y02331*
X03748Y02331*
X03747Y02331*
X03746Y02332*
X03745Y02332*
X03745Y02332*
X03744Y02332*
X03743*
X03742Y02332*
X03741Y02332*
X0374Y02332*
X03739Y02331*
X03739Y02331*
X03738Y02331*
X03737Y0233*
X03736Y0233*
X03736Y02329*
X03735Y02329*
X03734Y02328*
X03734Y02328*
X03733Y02327*
X03733Y02326*
X03732Y02325*
X03732Y02325*
X03731Y02324*
X03731Y02323*
X03731Y02322*
X03731Y02321*
X03731Y0232*
X03731Y0232*
X03756Y02655D02*
D01*
X03756Y02655*
X03756Y02656*
X03755Y02657*
X03755Y02658*
X03755Y02659*
X03755Y0266*
X03754Y0266*
X03754Y02661*
X03753Y02662*
X03753Y02663*
X03752Y02663*
X03752Y02664*
X03751Y02664*
X0375Y02665*
X03749Y02665*
X03749Y02666*
X03748Y02666*
X03747Y02666*
X03746Y02667*
X03745Y02667*
X03745Y02667*
X03744Y02667*
X03743*
X03742Y02667*
X03741Y02667*
X0374Y02667*
X03739Y02666*
X03739Y02666*
X03738Y02666*
X03737Y02665*
X03736Y02665*
X03736Y02664*
X03735Y02664*
X03734Y02663*
X03734Y02663*
X03733Y02662*
X03733Y02661*
X03732Y0266*
X03732Y0266*
X03731Y02659*
X03731Y02658*
X03731Y02657*
X03731Y02656*
X03731Y02655*
X03731Y02655*
X03756Y0296D02*
D01*
X03756Y0296*
X03756Y02961*
X03755Y02962*
X03755Y02963*
X03755Y02964*
X03755Y02965*
X03754Y02965*
X03754Y02966*
X03753Y02967*
X03753Y02968*
X03752Y02968*
X03752Y02969*
X03751Y02969*
X0375Y0297*
X03749Y0297*
X03749Y02971*
X03748Y02971*
X03747Y02971*
X03746Y02972*
X03745Y02972*
X03745Y02972*
X03744Y02972*
X03743*
X03742Y02972*
X03741Y02972*
X0374Y02972*
X03739Y02971*
X03739Y02971*
X03738Y02971*
X03737Y0297*
X03736Y0297*
X03736Y02969*
X03735Y02969*
X03734Y02968*
X03734Y02968*
X03733Y02967*
X03733Y02966*
X03732Y02965*
X03732Y02965*
X03731Y02964*
X03731Y02963*
X03731Y02962*
X03731Y02961*
X03731Y0296*
X03731Y0296*
X03756Y03325D02*
D01*
X03756Y03325*
X03756Y03326*
X03755Y03327*
X03755Y03328*
X03755Y03329*
X03755Y0333*
X03754Y0333*
X03754Y03331*
X03753Y03332*
X03753Y03333*
X03752Y03333*
X03752Y03334*
X03751Y03334*
X0375Y03335*
X03749Y03335*
X03749Y03336*
X03748Y03336*
X03747Y03336*
X03746Y03337*
X03745Y03337*
X03745Y03337*
X03744Y03337*
X03743*
X03742Y03337*
X03741Y03337*
X0374Y03337*
X03739Y03336*
X03739Y03336*
X03738Y03336*
X03737Y03335*
X03736Y03335*
X03736Y03334*
X03735Y03334*
X03734Y03333*
X03734Y03333*
X03733Y03332*
X03733Y03331*
X03732Y0333*
X03732Y0333*
X03731Y03329*
X03731Y03328*
X03731Y03327*
X03731Y03326*
X03731Y03325*
X03731Y03325*
X04755Y03521D02*
D01*
X04755Y03521*
X04756Y03521*
X04757Y03521*
X04758Y03521*
X04759Y03521*
X0476Y03522*
X0476Y03522*
X04761Y03523*
X04762Y03523*
X04763Y03524*
X04763Y03524*
X04764Y03525*
X04764Y03526*
X04765Y03526*
X04765Y03527*
X04766Y03528*
X04766Y03529*
X04766Y03529*
X04767Y0353*
X04767Y03531*
X04767Y03532*
X04767Y03533*
Y03534*
X04767Y03535*
X04767Y03535*
X04767Y03536*
X04766Y03537*
X04766Y03538*
X04766Y03539*
X04765Y03539*
X04765Y0354*
X04764Y03541*
X04764Y03542*
X04763Y03542*
X04763Y03543*
X04762Y03543*
X04761Y03544*
X0476Y03544*
X0476Y03545*
X04759Y03545*
X04758Y03545*
X04757Y03545*
X04756Y03546*
X04755Y03546*
X04755Y03546*
X0507Y03521D02*
D01*
X0507Y03521*
X05071Y03521*
X05072Y03521*
X05073Y03521*
X05074Y03521*
X05075Y03522*
X05075Y03522*
X05076Y03523*
X05077Y03523*
X05078Y03524*
X05078Y03524*
X05079Y03525*
X05079Y03526*
X0508Y03526*
X0508Y03527*
X05081Y03528*
X05081Y03529*
X05081Y03529*
X05082Y0353*
X05082Y03531*
X05082Y03532*
X05082Y03533*
Y03534*
X05082Y03535*
X05082Y03535*
X05082Y03536*
X05081Y03537*
X05081Y03538*
X05081Y03539*
X0508Y03539*
X0508Y0354*
X05079Y03541*
X05079Y03542*
X05078Y03542*
X05078Y03543*
X05077Y03543*
X05076Y03544*
X05075Y03544*
X05075Y03545*
X05074Y03545*
X05073Y03545*
X05072Y03545*
X05071Y03546*
X0507Y03546*
X0507Y03546*
X0544Y03521D02*
D01*
X0544Y03521*
X05441Y03521*
X05442Y03521*
X05443Y03521*
X05444Y03521*
X05445Y03522*
X05445Y03522*
X05446Y03523*
X05447Y03523*
X05448Y03524*
X05448Y03524*
X05449Y03525*
X05449Y03526*
X0545Y03526*
X0545Y03527*
X05451Y03528*
X05451Y03529*
X05451Y03529*
X05452Y0353*
X05452Y03531*
X05452Y03532*
X05452Y03533*
Y03534*
X05452Y03535*
X05452Y03535*
X05452Y03536*
X05451Y03537*
X05451Y03538*
X05451Y03539*
X0545Y03539*
X0545Y0354*
X05449Y03541*
X05449Y03542*
X05448Y03542*
X05448Y03543*
X05447Y03543*
X05446Y03544*
X05445Y03544*
X05445Y03545*
X05444Y03545*
X05443Y03545*
X05442Y03545*
X05441Y03546*
X0544Y03546*
X0544Y03546*
X05735Y03521D02*
D01*
X05735Y03521*
X05736Y03521*
X05737Y03521*
X05738Y03521*
X05739Y03521*
X0574Y03522*
X0574Y03522*
X05741Y03523*
X05742Y03523*
X05743Y03524*
X05743Y03524*
X05744Y03525*
X05744Y03526*
X05745Y03526*
X05745Y03527*
X05746Y03528*
X05746Y03529*
X05746Y03529*
X05747Y0353*
X05747Y03531*
X05747Y03532*
X05747Y03533*
Y03534*
X05747Y03535*
X05747Y03535*
X05747Y03536*
X05746Y03537*
X05746Y03538*
X05746Y03539*
X05745Y03539*
X05745Y0354*
X05744Y03541*
X05744Y03542*
X05743Y03542*
X05743Y03543*
X05742Y03543*
X05741Y03544*
X0574Y03544*
X0574Y03545*
X05739Y03545*
X05738Y03545*
X05737Y03545*
X05736Y03546*
X05735Y03546*
X05735Y03546*
X041Y03521D02*
D01*
X041Y03521*
X04101Y03521*
X04102Y03521*
X04103Y03521*
X04104Y03521*
X04105Y03522*
X04105Y03522*
X04106Y03523*
X04107Y03523*
X04108Y03524*
X04108Y03524*
X04109Y03525*
X04109Y03526*
X0411Y03526*
X0411Y03527*
X04111Y03528*
X04111Y03529*
X04111Y03529*
X04112Y0353*
X04112Y03531*
X04112Y03532*
X04112Y03533*
Y03534*
X04112Y03535*
X04112Y03535*
X04112Y03536*
X04111Y03537*
X04111Y03538*
X04111Y03539*
X0411Y03539*
X0411Y0354*
X04109Y03541*
X04109Y03542*
X04108Y03542*
X04108Y03543*
X04107Y03543*
X04106Y03544*
X04105Y03544*
X04105Y03545*
X04104Y03545*
X04103Y03545*
X04102Y03545*
X04101Y03546*
X041Y03546*
X041Y03546*
X0442Y03521D02*
D01*
X0442Y03521*
X04421Y03521*
X04422Y03521*
X04423Y03521*
X04424Y03521*
X04425Y03522*
X04425Y03522*
X04426Y03523*
X04427Y03523*
X04428Y03524*
X04428Y03524*
X04429Y03525*
X04429Y03526*
X0443Y03526*
X0443Y03527*
X04431Y03528*
X04431Y03529*
X04431Y03529*
X04432Y0353*
X04432Y03531*
X04432Y03532*
X04432Y03533*
Y03534*
X04432Y03535*
X04432Y03535*
X04432Y03536*
X04431Y03537*
X04431Y03538*
X04431Y03539*
X0443Y03539*
X0443Y0354*
X04429Y03541*
X04429Y03542*
X04428Y03542*
X04428Y03543*
X04427Y03543*
X04426Y03544*
X04425Y03544*
X04425Y03545*
X04424Y03545*
X04423Y03545*
X04422Y03545*
X04421Y03546*
X0442Y03546*
X0442Y03546*
X06065Y03521D02*
D01*
X06065Y03521*
X06066Y03521*
X06067Y03521*
X06068Y03521*
X06069Y03521*
X0607Y03522*
X0607Y03522*
X06071Y03523*
X06072Y03523*
X06073Y03524*
X06073Y03524*
X06074Y03525*
X06074Y03526*
X06075Y03526*
X06075Y03527*
X06076Y03528*
X06076Y03529*
X06076Y03529*
X06077Y0353*
X06077Y03531*
X06077Y03532*
X06077Y03533*
Y03534*
X06077Y03535*
X06077Y03535*
X06077Y03536*
X06076Y03537*
X06076Y03538*
X06076Y03539*
X06075Y03539*
X06075Y0354*
X06074Y03541*
X06074Y03542*
X06073Y03542*
X06073Y03543*
X06072Y03543*
X06071Y03544*
X0607Y03544*
X0607Y03545*
X06069Y03545*
X06068Y03545*
X06067Y03545*
X06066Y03546*
X06065Y03546*
X06065Y03546*
X05831Y02375D02*
D01*
X05831Y02374*
X05831Y02373*
X05831Y02372*
X05831Y02371*
X05831Y0237*
X05832Y02369*
X05832Y02369*
X05833Y02368*
X05833Y02367*
X05834Y02366*
X05834Y02366*
X05835Y02365*
X05836Y02365*
X05836Y02364*
X05837Y02364*
X05838Y02363*
X05839Y02363*
X05839Y02363*
X0584Y02362*
X05841Y02362*
X05842Y02362*
X05843Y02362*
X05844*
X05845Y02362*
X05845Y02362*
X05846Y02362*
X05847Y02363*
X05848Y02363*
X05849Y02363*
X05849Y02364*
X0585Y02364*
X05851Y02365*
X05852Y02365*
X05852Y02366*
X05853Y02366*
X05853Y02367*
X05854Y02368*
X05854Y02369*
X05855Y02369*
X05855Y0237*
X05855Y02371*
X05855Y02372*
X05856Y02373*
X05856Y02374*
X05856Y02375*
X0555Y03805D02*
Y03905D01*
X0547D02*
X0555D01*
X0547Y03805D02*
Y03905D01*
Y03805D02*
X0555D01*
X04425Y0107D02*
Y0117D01*
Y0107D02*
X04505D01*
Y0117*
X04425D02*
X04505D01*
X05955Y03795D02*
Y03895D01*
X05875D02*
X05955D01*
X05875Y03795D02*
Y03895D01*
Y03795D02*
X05955D01*
X0529Y03805D02*
Y03905D01*
X0521D02*
X0529D01*
X0521Y03805D02*
Y03905D01*
Y03805D02*
X0529D01*
X0498Y03795D02*
Y03895D01*
X049D02*
X0498D01*
X049Y03795D02*
Y03895D01*
Y03795D02*
X0498D01*
X0518Y0381D02*
Y0391D01*
X051D02*
X0518D01*
X051Y0381D02*
Y0391D01*
Y0381D02*
X0518D01*
X0421D02*
Y0391D01*
X0413D02*
X0421D01*
X0413Y0381D02*
Y0391D01*
Y0381D02*
X0421D01*
X0465Y03805D02*
Y03905D01*
X0457D02*
X0465D01*
X0457Y03805D02*
Y03905D01*
Y03805D02*
X0465D01*
X0453D02*
Y03905D01*
X0445D02*
X0453D01*
X0445Y03805D02*
Y03905D01*
Y03805D02*
X0453D01*
X04865Y03795D02*
Y03895D01*
X04785D02*
X04865D01*
X04785Y03795D02*
Y03895D01*
Y03795D02*
X04865D01*
X06605Y0379D02*
Y0389D01*
X06525D02*
X06605D01*
X06525Y0379D02*
Y0389D01*
Y0379D02*
X06605D01*
X04325Y03815D02*
Y03915D01*
X04245D02*
X04325D01*
X04245Y03815D02*
Y03915D01*
Y03815D02*
X04325D01*
X0611Y0239D02*
X0621D01*
Y0247*
X0611D02*
X0621D01*
X0611Y0239D02*
Y0247D01*
X0649Y03785D02*
Y03885D01*
X0641D02*
X0649D01*
X0641Y03785D02*
Y03885D01*
Y03785D02*
X0649D01*
X06111Y02505D02*
X06211D01*
Y02585*
X06111D02*
X06211D01*
X06111Y02505D02*
Y02585D01*
X03351Y0118D02*
X03451D01*
X03351Y011D02*
Y0118D01*
Y011D02*
X03451D01*
Y0118*
X06108Y02155D02*
X06208D01*
Y02235*
X06108D02*
X06208D01*
X06108Y02155D02*
Y02235D01*
X06105Y02265D02*
X06205D01*
Y02345*
X06105D02*
X06205D01*
X06105Y02265D02*
Y02345D01*
X0584Y03795D02*
Y03895D01*
X0576D02*
X0584D01*
X0576Y03795D02*
Y03895D01*
Y03795D02*
X0584D01*
X05655Y038D02*
Y039D01*
X05575D02*
X05655D01*
X05575Y038D02*
Y039D01*
Y038D02*
X05655D01*
X0611Y0188D02*
X0621D01*
Y0196*
X0611D02*
X0621D01*
X0611Y0188D02*
Y0196D01*
X06108Y0199D02*
X06208D01*
Y0207*
X06108D02*
X06208D01*
X06108Y0199D02*
Y0207D01*
X0616Y0379D02*
Y0389D01*
X0608D02*
X0616D01*
X0608Y0379D02*
Y0389D01*
Y0379D02*
X0616D01*
X06275D02*
Y0389D01*
X06195D02*
X06275D01*
X06195Y0379D02*
Y0389D01*
Y0379D02*
X06275D01*
X03348Y0188D02*
X03448D01*
X03348Y018D02*
Y0188D01*
Y018D02*
X03448D01*
Y0188*
X03358Y021D02*
X03458D01*
X03358Y0202D02*
Y021D01*
Y0202D02*
X03458D01*
Y021*
X03358Y022D02*
X03458D01*
X03358Y0212D02*
Y022D01*
Y0212D02*
X03458D01*
Y022*
X043Y01075D02*
Y01175D01*
Y01075D02*
X0438D01*
Y01175*
X043D02*
X0438D01*
X03357Y01485D02*
X03457D01*
X03357Y01405D02*
Y01485D01*
Y01405D02*
X03457D01*
Y01485*
X03352Y0178D02*
X03452D01*
X03352Y017D02*
Y0178D01*
Y017D02*
X03452D01*
Y0178*
X03365Y0243D02*
X03465D01*
X03365Y0235D02*
Y0243D01*
Y0235D02*
X03465D01*
Y0243*
X0336Y0287D02*
X0346D01*
X0336Y0279D02*
Y0287D01*
Y0279D02*
X0346D01*
Y0287*
X0336Y0316D02*
X0346D01*
X0336Y0308D02*
Y0316D01*
Y0308D02*
X0346D01*
Y0316*
X03351Y01285D02*
X03451D01*
X03351Y01205D02*
Y01285D01*
Y01205D02*
X03451D01*
Y01285*
X03358Y01595D02*
X03458D01*
X03358Y01515D02*
Y01595D01*
Y01515D02*
X03458D01*
Y01595*
X03365Y02535D02*
X03465D01*
X03365Y02455D02*
Y02535D01*
Y02455D02*
X03465D01*
Y02535*
X0336Y02765D02*
X0346D01*
X0336Y02685D02*
Y02765D01*
Y02685D02*
X0346D01*
Y02765*
X0336Y0307D02*
X0346D01*
X0336Y0299D02*
Y0307D01*
Y0299D02*
X0346D01*
Y0307*
X03356Y03435D02*
X03456D01*
X03356Y03355D02*
Y03435D01*
Y03355D02*
X03456D01*
Y03435*
X03356Y0354D02*
X03456D01*
X03356Y0346D02*
Y0354D01*
Y0346D02*
X03456D01*
Y0354*
X0611Y01742D02*
X0621D01*
Y01822*
X0611D02*
X0621D01*
X0611Y01742D02*
Y01822D01*
X0461Y01076D02*
Y01176D01*
Y01076D02*
X0469D01*
Y01176*
X0461D02*
X0469D01*
X0491Y01086D02*
Y01186D01*
Y01086D02*
X0499D01*
Y01186*
X0491D02*
X0499D01*
X0521Y01075D02*
Y01175D01*
Y01075D02*
X0529D01*
Y01175*
X0521D02*
X0529D01*
X0611Y01625D02*
X0621D01*
Y01705*
X0611D02*
X0621D01*
X0611Y01625D02*
Y01705D01*
X04735Y01076D02*
Y01176D01*
Y01076D02*
X04815D01*
Y01176*
X04735D02*
X04815D01*
X0504Y01085D02*
Y01185D01*
Y01085D02*
X0512D01*
Y01185*
X0504D02*
X0512D01*
X0532Y01081D02*
Y01181D01*
Y01081D02*
X054D01*
Y01181*
X0532D02*
X054D01*
X0638Y0349D02*
Y03521D01*
Y03546D02*
Y03576D01*
X0658*
Y0349D02*
Y03576D01*
X0638Y0349D02*
X0658D01*
X058Y0262D02*
X05831D01*
X05856D02*
X05886D01*
Y0242D02*
Y0262D01*
X058Y0242D02*
X05886D01*
X058D02*
Y0262D01*
Y02095D02*
X05831D01*
X05856D02*
X05886D01*
Y01895D02*
Y02095D01*
X058Y01895D02*
X05886D01*
X058D02*
Y02095D01*
Y01835D02*
X05831D01*
X05856D02*
X05886D01*
Y01635D02*
Y01835D01*
X058Y01635D02*
X05886D01*
X058D02*
Y01835D01*
X0543Y01436D02*
Y01466D01*
Y0138D02*
Y01411D01*
X0523Y0138D02*
X0543D01*
X0523D02*
Y01466D01*
X0543*
X0513Y01436D02*
Y01466D01*
Y0138D02*
Y01411D01*
X0493Y0138D02*
X0513D01*
X0493D02*
Y01466D01*
X0513*
X0482Y01436D02*
Y01466D01*
Y0138D02*
Y01411D01*
X0462Y0138D02*
X0482D01*
X0462D02*
Y01466D01*
X0482*
X04525Y01436D02*
Y01466D01*
Y0138D02*
Y01411D01*
X04325Y0138D02*
X04525D01*
X04325D02*
Y01466D01*
X04525*
X04887Y02796D02*
X0496D01*
X05156Y026*
X04924Y02368D02*
X05156Y026D01*
X04692D02*
X04924Y02368D01*
X04692Y026D02*
X04887Y02796D01*
X03756Y01065D02*
X03786D01*
X037D02*
X03731D01*
X037D02*
Y01265D01*
X03786*
Y01065D02*
Y01265D01*
X03756Y0137D02*
X03786D01*
X037D02*
X03731D01*
X037D02*
Y0157D01*
X03786*
Y0137D02*
Y0157D01*
X03756Y0167D02*
X03786D01*
X037D02*
X03731D01*
X037D02*
Y0187D01*
X03786*
Y0167D02*
Y0187D01*
X03756Y0199D02*
X03786D01*
X037D02*
X03731D01*
X037D02*
Y0219D01*
X03786*
Y0199D02*
Y0219D01*
X03756Y0232D02*
X03786D01*
X037D02*
X03731D01*
X037D02*
Y0252D01*
X03786*
Y0232D02*
Y0252D01*
X03756Y02655D02*
X03786D01*
X037D02*
X03731D01*
X037D02*
Y02855D01*
X03786*
Y02655D02*
Y02855D01*
X03756Y0296D02*
X03786D01*
X037D02*
X03731D01*
X037D02*
Y0316D01*
X03786*
Y0296D02*
Y0316D01*
X03756Y03325D02*
X03786D01*
X037D02*
X03731D01*
X037D02*
Y03525D01*
X03786*
Y03325D02*
Y03525D01*
X04755Y0349D02*
Y03521D01*
Y03546D02*
Y03576D01*
X04955*
Y0349D02*
Y03576D01*
X04755Y0349D02*
X04955D01*
X0507D02*
Y03521D01*
Y03546D02*
Y03576D01*
X0527*
Y0349D02*
Y03576D01*
X0507Y0349D02*
X0527D01*
X0544D02*
Y03521D01*
Y03546D02*
Y03576D01*
X0564*
Y0349D02*
Y03576D01*
X0544Y0349D02*
X0564D01*
X05735D02*
Y03521D01*
Y03546D02*
Y03576D01*
X05935*
Y0349D02*
Y03576D01*
X05735Y0349D02*
X05935D01*
X041D02*
Y03521D01*
Y03546D02*
Y03576D01*
X043*
Y0349D02*
Y03576D01*
X041Y0349D02*
X043D01*
X0442D02*
Y03521D01*
Y03546D02*
Y03576D01*
X0462*
Y0349D02*
Y03576D01*
X0442Y0349D02*
X0462D01*
X06065D02*
Y03521D01*
Y03546D02*
Y03576D01*
X06265*
Y0349D02*
Y03576D01*
X06065Y0349D02*
X06265D01*
X058Y02375D02*
X05831D01*
X05856D02*
X05886D01*
Y02175D02*
Y02375D01*
X058Y02175D02*
X05886D01*
X058D02*
Y02375D01*
G54D11*
X05855Y02975D02*
Y0305D01*
Y02975D02*
X05904D01*
Y0305*
X05855D02*
X05904D01*
X0584Y0285D02*
Y02925D01*
Y0285D02*
X05889D01*
Y02925*
X0584D02*
X05889D01*
G54D12*
X06085Y044D02*
X0609Y04395D01*
Y0415D02*
Y04395D01*
X05695Y0415D02*
X0609D01*
X05695D02*
Y044D01*
X06085*
X06645Y01945D02*
X0665Y0195D01*
X064Y01945D02*
X06645D01*
X064D02*
Y0234D01*
X0665*
Y0195D02*
Y0234D01*
X04685Y0087D02*
X05075D01*
X04685Y0062D02*
Y0087D01*
Y0062D02*
X0508D01*
Y00865*
X05075Y0087D02*
X0508Y00865D01*
X02805Y01565D02*
Y01955D01*
Y01565D02*
X03055D01*
Y0196*
X0281D02*
X03055D01*
X02805Y01955D02*
X0281Y0196D01*
X02805Y02755D02*
Y03145D01*
Y02755D02*
X03055D01*
Y0315*
X0281D02*
X03055D01*
X02805Y03145D02*
X0281Y0315D01*
X04455Y04435D02*
X04845D01*
X04455Y04185D02*
Y04435D01*
Y04185D02*
X0485D01*
Y0443*
X04845Y04435D02*
X0485Y0443D01*
X03349Y04549D02*
X03329D01*
X03339*
Y04499*
X03329Y0449*
X03319*
X0331Y04499*
X03369Y04529D02*
Y04499D01*
X03379Y0449*
X03409*
Y04529*
X03429Y0449D02*
X03449D01*
X03439*
Y04549*
X03429*
X03479Y04529D02*
Y04499D01*
X03489Y0449*
X03519*
Y0448*
X03509Y0447*
X03499*
X03519Y0449D02*
Y04529D01*
X03639Y0449D02*
X03599D01*
X03639Y04529*
Y04539*
X03629Y04549*
X03609*
X03599Y04539*
X03659D02*
X03669Y04549D01*
X03689*
X03699Y04539*
Y04499*
X03689Y0449*
X03669*
X03659Y04499*
Y04539*
X03719Y0449D02*
X03739D01*
X03729*
Y04549*
X03719Y04539*
X03769Y04499D02*
X03779Y0449D01*
X03799*
X03809Y04499*
Y04539*
X03799Y04549*
X03779*
X03769Y04539*
Y04529*
X03779Y04519*
X03809*
X03889Y04549D02*
Y04509D01*
X03909Y0449*
X03929Y04509*
Y04549*
X03949Y0449D02*
X03969D01*
X03959*
Y04549*
X03949Y04539*
X0331Y04649D02*
Y0459D01*
X03339*
X03349Y04599*
Y04609*
X03339Y04619*
X0331*
X03339*
X03349Y04629*
Y04639*
X03339Y04649*
X0331*
X03369D02*
Y0459D01*
X03409*
X03429D02*
Y04649D01*
X03459*
X03469Y04639*
Y04619*
X03459Y04609*
X03429*
X03549Y04649D02*
Y0459D01*
X03579*
X03589Y04599*
Y04639*
X03579Y04649*
X03549*
X03639Y0459D02*
X03619D01*
X03609Y04599*
Y04619*
X03619Y04629*
X03639*
X03649Y04619*
Y04609*
X03609*
X03669Y0459D02*
X03699D01*
X03709Y04599*
X03699Y04609*
X03679*
X03669Y04619*
X03679Y04629*
X03709*
X03729Y0459D02*
X03749D01*
X03739*
Y04629*
X03729*
X03799Y0457D02*
X03809D01*
X03819Y0458*
Y04629*
X03789*
X03779Y04619*
Y04599*
X03789Y0459*
X03819*
X03839D02*
Y04629D01*
X03869*
X03879Y04619*
Y0459*
X06344Y03539D02*
X06324Y03529D01*
X06305Y03509*
Y03489*
X06314Y0348*
X06334*
X06344Y03489*
Y03499*
X06334Y03509*
X06305*
X05674Y01985D02*
X05635D01*
X05674Y02024*
Y02034*
X05664Y02044*
X05644*
X05635Y02034*
X0272Y01424D02*
X0271Y01414D01*
Y01394*
X0272Y01385*
X0276*
X0277Y01394*
Y01414*
X0276Y01424*
X0277Y01454D02*
Y01474D01*
X0276Y01484*
X0274*
X0273Y01474*
Y01454*
X0274Y01444*
X0276*
X0277Y01454*
Y01504D02*
X0273D01*
Y01534*
X0274Y01544*
X0277*
Y01564D02*
X0273D01*
Y01594*
X0274Y01604*
X0277*
Y01654D02*
Y01634D01*
X0276Y01624*
X0274*
X0273Y01634*
Y01654*
X0274Y01664*
X0275*
Y01624*
X0273Y01724D02*
Y01694D01*
X0274Y01684*
X0276*
X0277Y01694*
Y01724*
X0272Y01754D02*
X0273D01*
Y01744*
Y01764*
Y01754*
X0276*
X0277Y01764*
Y01804D02*
Y01824D01*
X0276Y01834*
X0274*
X0273Y01824*
Y01804*
X0274Y01794*
X0276*
X0277Y01804*
X0273Y01854D02*
X0277D01*
X0275*
X0274Y01864*
X0273Y01874*
Y01884*
X0271Y01954D02*
X0272Y01934D01*
X0274Y01914*
X0276*
X0277Y01924*
Y01944*
X0276Y01954*
X0275*
X0274Y01944*
Y01914*
X0272Y02614D02*
X0271Y02604D01*
Y02584*
X0272Y02575*
X0276*
X0277Y02584*
Y02604*
X0276Y02614*
X0277Y02644D02*
Y02664D01*
X0276Y02674*
X0274*
X0273Y02664*
Y02644*
X0274Y02634*
X0276*
X0277Y02644*
Y02694D02*
X0273D01*
Y02724*
X0274Y02734*
X0277*
Y02754D02*
X0273D01*
Y02784*
X0274Y02794*
X0277*
Y02844D02*
Y02824D01*
X0276Y02814*
X0274*
X0273Y02824*
Y02844*
X0274Y02854*
X0275*
Y02814*
X0273Y02914D02*
Y02884D01*
X0274Y02874*
X0276*
X0277Y02884*
Y02914*
X0272Y02944D02*
X0273D01*
Y02934*
Y02954*
Y02944*
X0276*
X0277Y02954*
Y02994D02*
Y03014D01*
X0276Y03024*
X0274*
X0273Y03014*
Y02994*
X0274Y02984*
X0276*
X0277Y02994*
X0273Y03044D02*
X0277D01*
X0275*
X0274Y03054*
X0273Y03064*
Y03074*
X0271Y03144D02*
Y03104D01*
X0274*
X0273Y03124*
Y03134*
X0274Y03144*
X0276*
X0277Y03134*
Y03114*
X0276Y03104*
X04644Y00599D02*
X04634Y00609D01*
X04614*
X04605Y00599*
Y00559*
X04614Y0055*
X04634*
X04644Y00559*
X04674Y0055D02*
X04694D01*
X04704Y00559*
Y00579*
X04694Y00589*
X04674*
X04664Y00579*
Y00559*
X04674Y0055*
X04724D02*
Y00589D01*
X04754*
X04764Y00579*
Y0055*
X04784D02*
Y00589D01*
X04814*
X04824Y00579*
Y0055*
X04874D02*
X04854D01*
X04844Y00559*
Y00579*
X04854Y00589*
X04874*
X04884Y00579*
Y00569*
X04844*
X04944Y00589D02*
X04914D01*
X04904Y00579*
Y00559*
X04914Y0055*
X04944*
X04974Y00599D02*
Y00589D01*
X04964*
X04984*
X04974*
Y00559*
X04984Y0055*
X05024D02*
X05044D01*
X05054Y00559*
Y00579*
X05044Y00589*
X05024*
X05014Y00579*
Y00559*
X05024Y0055*
X05074Y00589D02*
Y0055D01*
Y00569*
X05084Y00579*
X05094Y00589*
X05104*
X05164Y0055D02*
Y00609D01*
X05134Y00579*
X05174*
X03734Y01285D02*
X03695D01*
X03734Y01324*
Y01334*
X03724Y01344*
X03704*
X03695Y01334*
X03784Y01285D02*
Y01344D01*
X03754Y01314*
X03794*
X03732Y0158D02*
X03692D01*
X03732Y01619*
Y01629*
X03722Y01639*
X03702*
X03692Y01629*
X03752D02*
X03762Y01639D01*
X03782*
X03792Y01629*
Y01619*
X03782Y01609*
X03772*
X03782*
X03792Y01599*
Y01589*
X03782Y0158*
X03762*
X03752Y01589*
X03724Y01885D02*
X03685D01*
X03724Y01924*
Y01934*
X03714Y01944*
X03694*
X03685Y01934*
X03784Y01885D02*
X03744D01*
X03784Y01924*
Y01934*
X03774Y01944*
X03754*
X03744Y01934*
X03749Y0222D02*
X0371D01*
X03749Y02259*
Y02269*
X03739Y02279*
X03719*
X0371Y02269*
X03769Y0222D02*
X03789D01*
X03779*
Y02279*
X03769Y02269*
X03739Y0254D02*
X037D01*
X03739Y02579*
Y02589*
X03729Y02599*
X03709*
X037Y02589*
X03759D02*
X03769Y02599D01*
X03789*
X03799Y02589*
Y02549*
X03789Y0254*
X03769*
X03759Y02549*
Y02589*
X037Y0288D02*
X03719D01*
X03709*
Y02939*
X037Y02929*
X03749Y02889D02*
X03759Y0288D01*
X03779*
X03789Y02889*
Y02929*
X03779Y02939*
X03759*
X03749Y02929*
Y02919*
X03759Y02909*
X03789*
X03715Y03185D02*
X03734D01*
X03724*
Y03244*
X03715Y03234*
X03764D02*
X03774Y03244D01*
X03794*
X03804Y03234*
Y03224*
X03794Y03214*
X03804Y03204*
Y03194*
X03794Y03185*
X03774*
X03764Y03194*
Y03204*
X03774Y03214*
X03764Y03224*
Y03234*
X03774Y03214D02*
X03794D01*
X03715Y0356D02*
X03734D01*
X03724*
Y03619*
X03715Y03609*
X03764Y03619D02*
X03804D01*
Y03609*
X03764Y03569*
Y0356*
X04355Y0159D02*
X04374D01*
X04364*
Y01649*
X04355Y01639*
X04444Y01649D02*
X04424Y01639D01*
X04404Y01619*
Y01599*
X04414Y0159*
X04434*
X04444Y01599*
Y01609*
X04434Y01619*
X04404*
X04655Y0159D02*
X04674D01*
X04664*
Y01649*
X04655Y01639*
X04744Y01649D02*
X04704D01*
Y01619*
X04724Y01629*
X04734*
X04744Y01619*
Y01599*
X04734Y0159*
X04714*
X04704Y01599*
X05285Y0159D02*
X05304D01*
X05294*
Y01649*
X05285Y01639*
X05364Y0159D02*
Y01649D01*
X05334Y01619*
X05374*
X0497Y0159D02*
X04989D01*
X04979*
Y01649*
X0497Y01639*
X05019D02*
X05029Y01649D01*
X05049*
X05059Y01639*
Y01629*
X05049Y01619*
X05039*
X05049*
X05059Y01609*
Y01599*
X05049Y0159*
X05029*
X05019Y01599*
X05739Y04484D02*
X05729Y04494D01*
X05709*
X057Y04484*
Y04444*
X05709Y04435*
X05729*
X05739Y04444*
X05769Y04435D02*
X05789D01*
X05799Y04444*
Y04464*
X05789Y04474*
X05769*
X05759Y04464*
Y04444*
X05769Y04435*
X05819D02*
Y04474D01*
X05849*
X05859Y04464*
Y04435*
X05879D02*
Y04474D01*
X05909*
X05919Y04464*
Y04435*
X05969D02*
X05949D01*
X05939Y04444*
Y04464*
X05949Y04474*
X05969*
X05979Y04464*
Y04454*
X05939*
X06039Y04474D02*
X06009D01*
X05999Y04464*
Y04444*
X06009Y04435*
X06039*
X06069Y04484D02*
Y04474D01*
X06059*
X06079*
X06069*
Y04444*
X06079Y04435*
X06119D02*
X06139D01*
X06149Y04444*
Y04464*
X06139Y04474*
X06119*
X06109Y04464*
Y04444*
X06119Y04435*
X06169Y04474D02*
Y04435D01*
Y04454*
X06179Y04464*
X06189Y04474*
X06199*
X06229Y04484D02*
X06239Y04494D01*
X06259*
X06269Y04484*
Y04474*
X06259Y04464*
X06249*
X06259*
X06269Y04454*
Y04444*
X06259Y04435*
X06239*
X06229Y04444*
X04499Y04519D02*
X04489Y04529D01*
X04469*
X0446Y04519*
Y04479*
X04469Y0447*
X04489*
X04499Y04479*
X04529Y0447D02*
X04549D01*
X04559Y04479*
Y04499*
X04549Y04509*
X04529*
X04519Y04499*
Y04479*
X04529Y0447*
X04579D02*
Y04509D01*
X04609*
X04619Y04499*
Y0447*
X04639D02*
Y04509D01*
X04669*
X04679Y04499*
Y0447*
X04729D02*
X04709D01*
X04699Y04479*
Y04499*
X04709Y04509*
X04729*
X04739Y04499*
Y04489*
X04699*
X04799Y04509D02*
X04769D01*
X04759Y04499*
Y04479*
X04769Y0447*
X04799*
X04829Y04519D02*
Y04509D01*
X04819*
X04839*
X04829*
Y04479*
X04839Y0447*
X04879D02*
X04899D01*
X04909Y04479*
Y04499*
X04899Y04509*
X04879*
X04869Y04499*
Y04479*
X04879Y0447*
X04929Y04509D02*
Y0447D01*
Y04489*
X04939Y04499*
X04949Y04509*
X04959*
X05029Y0447D02*
X04989D01*
X05029Y04509*
Y04519*
X05019Y04529*
X04999*
X04989Y04519*
X06665Y01914D02*
X06655Y01904D01*
Y01884*
X06665Y01875*
X06705*
X06715Y01884*
Y01904*
X06705Y01914*
X06715Y01944D02*
Y01964D01*
X06705Y01974*
X06685*
X06675Y01964*
Y01944*
X06685Y01934*
X06705*
X06715Y01944*
Y01994D02*
X06675D01*
Y02024*
X06685Y02034*
X06715*
Y02054D02*
X06675D01*
Y02084*
X06685Y02094*
X06715*
Y02144D02*
Y02124D01*
X06705Y02114*
X06685*
X06675Y02124*
Y02144*
X06685Y02154*
X06695*
Y02114*
X06675Y02214D02*
Y02184D01*
X06685Y02174*
X06705*
X06715Y02184*
Y02214*
X06665Y02244D02*
X06675D01*
Y02234*
Y02254*
Y02244*
X06705*
X06715Y02254*
Y02294D02*
Y02314D01*
X06705Y02324*
X06685*
X06675Y02314*
Y02294*
X06685Y02284*
X06705*
X06715Y02294*
X06675Y02344D02*
X06715D01*
X06695*
X06685Y02354*
X06675Y02364*
Y02374*
X06715Y02404D02*
Y02424D01*
Y02414*
X06655*
X06665Y02404*
X0465Y0348D02*
X04669D01*
X04659*
Y03539*
X0465Y03529*
X04739Y0348D02*
X04699D01*
X04739Y03519*
Y03529*
X04729Y03539*
X04709*
X04699Y03529*
X0498Y0348D02*
X04999D01*
X04989*
Y03539*
X0498Y03529*
X05029Y0348D02*
X05049D01*
X05039*
Y03539*
X05029Y03529*
X05315Y0348D02*
X05334D01*
X05324*
Y03539*
X05315Y03529*
X05364D02*
X05374Y03539D01*
X05394*
X05404Y03529*
Y03489*
X05394Y0348*
X05374*
X05364Y03489*
Y03529*
X05675Y03489D02*
X05684Y0348D01*
X05704*
X05714Y03489*
Y03529*
X05704Y03539*
X05684*
X05675Y03529*
Y03519*
X05684Y03509*
X05714*
X0404Y03529D02*
X04049Y03539D01*
X04069*
X04079Y03529*
Y03519*
X04069Y03509*
X04079Y03499*
Y03489*
X04069Y0348*
X04049*
X0404Y03489*
Y03499*
X04049Y03509*
X0404Y03519*
Y03529*
X04049Y03509D02*
X04069D01*
X0435Y03539D02*
X04389D01*
Y03529*
X0435Y03489*
Y0348*
X06019Y03539D02*
X0598D01*
Y03509*
X05999Y03519*
X06009*
X06019Y03509*
Y03489*
X06009Y0348*
X05989*
X0598Y03489*
X05664Y0247D02*
Y02529D01*
X05635Y02499*
X05674*
X05635Y02284D02*
X05644Y02294D01*
X05664*
X05674Y02284*
Y02274*
X05664Y02264*
X05654*
X05664*
X05674Y02254*
Y02244*
X05664Y02235*
X05644*
X05635Y02244*
Y0172D02*
X05654D01*
X05644*
Y01779*
X05635Y01769*
M02*