%FSTAX23Y23*%
%MOIN*%
%SFA1B1*%

%IPPOS*%
%ADD12C,0.010000*%
%ADD63C,0.002000*%
%ADD64C,0.002665*%
%LNpcb1-1*%
%LPD*%
G54D12*
X0254Y00375D02*
X0712D01*
X0254D02*
Y04715D01*
X02535Y0472D02*
X0254Y04715D01*
X02535Y0472D02*
X0711D01*
X0712Y0471*
Y00375D02*
Y0471D01*
G54D63*
X06112Y03077D02*
Y03093D01*
X06128*
Y03077*
X06112*
Y02977D02*
Y02993D01*
X06128*
Y02977*
X06112*
Y02877D02*
Y02893D01*
X06128*
Y02877*
X06112*
Y02777D02*
Y02793D01*
X06128*
Y02777*
X06112*
X0264Y04587D02*
X02632Y04603D01*
X02648*
X0264Y04587*
X0696Y04597D02*
X06952Y04613D01*
X06968*
X0696Y04597*
Y00467D02*
X06952Y00483D01*
X06968*
X0696Y00467*
X0265Y00477D02*
X02642Y00493D01*
X02658*
X0265Y00477*
X06905Y03147D02*
X06909Y03151D01*
X06913*
X06909Y03155*
X06913Y03159*
X06909*
X06905Y03163*
X06901Y03159*
X06897*
X06901Y03155*
X06897Y03151*
X06901*
X06905Y03147*
Y03247D02*
X06909Y03251D01*
X06913*
X06909Y03255*
X06913Y03259*
X06909*
X06905Y03263*
X06901Y03259*
X06897*
X06901Y03255*
X06897Y03251*
X06901*
X06905Y03247*
Y03347D02*
X06909Y03351D01*
X06913*
X06909Y03355*
X06913Y03359*
X06909*
X06905Y03363*
X06901Y03359*
X06897*
X06901Y03355*
X06897Y03351*
X06901*
X06905Y03347*
X02787Y04271D02*
X02791Y04279D01*
X02787Y04287*
X02795Y04283*
X02803Y04287*
X02799Y04279*
X02803Y04271*
X02795Y04275*
X02787Y04271*
Y04023D02*
X02791Y04031D01*
X02787Y04039*
X02795Y04035*
X02803Y04039*
X02799Y04031*
X02803Y04023*
X02795Y04027*
X02787Y04023*
X02968Y04141D02*
X02972Y04149D01*
X02968Y04157*
X02976Y04153*
X02984Y04157*
X0298Y04149*
X02984Y04141*
X02976Y04145*
X02968Y04141*
X0662Y01342D02*
X06624Y0135D01*
X0662Y01358*
X06628Y01354*
X06636Y01358*
X06632Y0135*
X06636Y01342*
X06628Y01346*
X0662Y01342*
X06372D02*
X06376Y0135D01*
X06372Y01358*
X0638Y01354*
X06388Y01358*
X06384Y0135*
X06388Y01342*
X0638Y01346*
X06372Y01342*
X0649Y0116D02*
X06494Y01168D01*
X0649Y01176*
X06498Y01172*
X06506Y01176*
X06502Y01168*
X06506Y0116*
X06498Y01164*
X0649Y0116*
X05772Y03014D02*
Y0303D01*
X05788*
Y03014*
X05772*
Y02822D02*
Y02838D01*
X05788*
Y02822*
X05772*
X05737Y04217D02*
Y04233D01*
X05753*
Y04217*
X05737*
X05837D02*
Y04233D01*
X05853*
Y04217*
X05837*
X05937D02*
Y04233D01*
X05953*
Y04217*
X05937*
X06037D02*
Y04233D01*
X06053*
Y04217*
X06037*
X05737Y04317D02*
Y04333D01*
X05753*
Y04317*
X05737*
X05837D02*
Y04333D01*
X05853*
Y04317*
X05837*
X05937D02*
Y04333D01*
X05953*
Y04317*
X05937*
X06037D02*
Y04333D01*
X06053*
Y04317*
X06037*
X04327Y03067D02*
Y03083D01*
X04343*
Y03067*
X04327*
Y02967D02*
Y02983D01*
X04343*
Y02967*
X04327*
Y02867D02*
Y02883D01*
X04343*
Y02867*
X04327*
X06467Y02282D02*
Y02298D01*
X06483*
Y02282*
X06467*
Y02182D02*
Y02198D01*
X06483*
Y02182*
X06467*
Y02082D02*
Y02098D01*
X06483*
Y02082*
X06467*
Y01982D02*
Y01998D01*
X06483*
Y01982*
X06467*
X06567Y02282D02*
Y02298D01*
X06583*
Y02282*
X06567*
Y02182D02*
Y02198D01*
X06583*
Y02182*
X06567*
Y02082D02*
Y02098D01*
X06583*
Y02082*
X06567*
Y01982D02*
Y01998D01*
X06583*
Y01982*
X06567*
X05027Y00787D02*
Y00803D01*
X05043*
Y00787*
X05027*
X04927D02*
Y00803D01*
X04943*
Y00787*
X04927*
X04827D02*
Y00803D01*
X04843*
Y00787*
X04827*
X04727D02*
Y00803D01*
X04743*
Y00787*
X04727*
X05027Y00687D02*
Y00703D01*
X05043*
Y00687*
X05027*
X04927D02*
Y00703D01*
X04943*
Y00687*
X04927*
X04827D02*
Y00703D01*
X04843*
Y00687*
X04827*
X04727D02*
Y00703D01*
X04743*
Y00687*
X04727*
X02872Y01907D02*
Y01923D01*
X02888*
Y01907*
X02872*
Y01807D02*
Y01823D01*
X02888*
Y01807*
X02872*
Y01707D02*
Y01723D01*
X02888*
Y01707*
X02872*
Y01607D02*
Y01623D01*
X02888*
Y01607*
X02872*
X02972Y01907D02*
Y01923D01*
X02988*
Y01907*
X02972*
Y01807D02*
Y01823D01*
X02988*
Y01807*
X02972*
Y01707D02*
Y01723D01*
X02988*
Y01707*
X02972*
Y01607D02*
Y01623D01*
X02988*
Y01607*
X02972*
X02872Y03097D02*
Y03113D01*
X02888*
Y03097*
X02872*
Y02997D02*
Y03013D01*
X02888*
Y02997*
X02872*
Y02897D02*
Y02913D01*
X02888*
Y02897*
X02872*
Y02797D02*
Y02813D01*
X02888*
Y02797*
X02872*
X02972Y03097D02*
Y03113D01*
X02988*
Y03097*
X02972*
Y02997D02*
Y03013D01*
X02988*
Y02997*
X02972*
Y02897D02*
Y02913D01*
X02988*
Y02897*
X02972*
Y02797D02*
Y02813D01*
X02988*
Y02797*
X02972*
X04797Y04352D02*
Y04368D01*
X04813*
Y04352*
X04797*
X04697D02*
Y04368D01*
X04713*
Y04352*
X04697*
X04597D02*
Y04368D01*
X04613*
Y04352*
X04597*
X04497D02*
Y04368D01*
X04513*
Y04352*
X04497*
X04797Y04252D02*
Y04268D01*
X04813*
Y04252*
X04797*
X04697D02*
Y04268D01*
X04713*
Y04252*
X04697*
X04597D02*
Y04268D01*
X04613*
Y04252*
X04597*
X04497D02*
Y04268D01*
X04513*
Y04252*
X04497*
X04576Y02826D02*
Y02822D01*
X04584*
Y02826*
X04588*
Y02834*
X04584*
Y02838*
X04576*
Y02834*
X04572*
Y02826*
X04576*
X04973Y02203D02*
Y02199D01*
X04981*
Y02203*
X04985*
Y02211*
X04981*
Y02215*
X04973*
Y02211*
X04969*
Y02203*
X04973*
X05331Y02731D02*
Y02727D01*
X05339*
Y02731*
X05343*
Y02739*
X05339*
Y02743*
X05331*
Y02739*
X05327*
Y02731*
X05331*
X05981Y03018D02*
Y03014D01*
X05989*
Y03018*
X05993*
Y03026*
X05989*
Y0303*
X05981*
Y03026*
X05977*
Y03018*
X05981*
X05596Y02771D02*
Y02767D01*
X05604*
Y02771*
X05608*
Y02779*
X05604*
Y02783*
X05596*
Y02779*
X05592*
Y02771*
X05596*
X04856Y02621D02*
Y02617D01*
X04864*
Y02621*
X04868*
Y02629*
X04864*
Y02633*
X04856*
Y02629*
X04852*
Y02621*
X04856*
X06377Y01386D02*
Y01382D01*
X06385*
Y01386*
X06389*
Y01394*
X06385*
Y01398*
X06377*
Y01394*
X06373*
Y01386*
X06377*
X06372Y01391D02*
Y01387D01*
X0638*
Y01391*
X06384*
Y01399*
X0638*
Y01403*
X06372*
Y01399*
X06368*
Y01391*
X06372*
X05111Y02371D02*
Y02367D01*
X05119*
Y02371*
X05123*
Y02379*
X05119*
Y02383*
X05111*
Y02379*
X05107*
Y02371*
X05111*
X04981Y02506D02*
Y02502D01*
X04989*
Y02506*
X04993*
Y02514*
X04989*
Y02518*
X04981*
Y02514*
X04977*
Y02506*
X04981*
X04946Y02286D02*
Y02282D01*
X04954*
Y02286*
X04958*
Y02294*
X04954*
Y02298*
X04946*
Y02294*
X04942*
Y02286*
X04946*
X04903Y02288D02*
Y02284D01*
X04911*
Y02288*
X04915*
Y02296*
X04911*
Y023*
X04903*
Y02296*
X04899*
Y02288*
X04903*
X05136Y02326D02*
Y02322D01*
X05144*
Y02326*
X05148*
Y02334*
X05144*
Y02338*
X05136*
Y02334*
X05132*
Y02326*
X05136*
X04705Y02356D02*
Y02352D01*
X04713*
Y02356*
X04717*
Y02364*
X04713*
Y02368*
X04705*
Y02364*
X04701*
Y02356*
X04705*
X04666Y02781D02*
Y02777D01*
X04674*
Y02781*
X04678*
Y02789*
X04674*
Y02793*
X04666*
Y02789*
X04662*
Y02781*
X04666*
X04791Y02906D02*
Y02902D01*
X04799*
Y02906*
X04803*
Y02914*
X04799*
Y02918*
X04791*
Y02914*
X04787*
Y02906*
X04791*
X05201Y02821D02*
Y02817D01*
X05209*
Y02821*
X05213*
Y02829*
X05209*
Y02833*
X05201*
Y02829*
X05197*
Y02821*
X05201*
X03522Y02437D02*
X03526D01*
X0353Y02441*
X03534Y02437*
X03538*
Y02441*
X03534Y02445*
X03538Y02449*
Y02453*
X03534*
X0353Y02449*
X03526Y02453*
X03522*
Y02449*
X03526Y02445*
X03522Y02441*
Y02437*
X04528Y02739D02*
Y02735D01*
X04536*
Y02739*
X0454*
Y02747*
X04536*
Y02751*
X04528*
Y02747*
X04524*
Y02739*
X04528*
X05172Y00977D02*
X05176D01*
X0518Y00981*
X05184Y00977*
X05188*
Y00981*
X05184Y00985*
X05188Y00989*
Y00993*
X05184*
X0518Y00989*
X05176Y00993*
X05172*
Y00989*
X05176Y00985*
X05172Y00981*
Y00977*
X04392Y01207D02*
X04396D01*
X044Y01211*
X04404Y01207*
X04408*
Y01211*
X04404Y01215*
X04408Y01219*
Y01223*
X04404*
X044Y01219*
X04396Y01223*
X04392*
Y01219*
X04396Y01215*
X04392Y01211*
Y01207*
X04687Y01199D02*
X04691D01*
X04695Y01203*
X04699Y01199*
X04703*
Y01203*
X04699Y01207*
X04703Y01211*
Y01215*
X04699*
X04695Y01211*
X04691Y01215*
X04687*
Y01211*
X04691Y01207*
X04687Y01203*
Y01199*
X05297Y01207D02*
X05301D01*
X05305Y01211*
X05309Y01207*
X05313*
Y01211*
X05309Y01215*
X05313Y01219*
Y01223*
X05309*
X05305Y01219*
X05301Y01223*
X05297*
Y01219*
X05301Y01215*
X05297Y01211*
Y01207*
X04997Y01212D02*
X05001D01*
X05005Y01216*
X05009Y01212*
X05013*
Y01216*
X05009Y0122*
X05013Y01224*
Y01228*
X05009*
X05005Y01224*
X05001Y01228*
X04997*
Y01224*
X05001Y0122*
X04997Y01216*
Y01212*
X06267Y01832D02*
X06271D01*
X06275Y01836*
X06279Y01832*
X06283*
Y01836*
X06279Y0184*
X06283Y01844*
Y01848*
X06279*
X06275Y01844*
X06271Y01848*
X06267*
Y01844*
X06271Y0184*
X06267Y01836*
Y01832*
X06047Y01702D02*
X06051D01*
X06055Y01706*
X06059Y01702*
X06063*
Y01706*
X06059Y0171*
X06063Y01714*
Y01718*
X06059*
X06055Y01714*
X06051Y01718*
X06047*
Y01714*
X06051Y0171*
X06047Y01706*
Y01702*
Y01957D02*
X06051D01*
X06055Y01961*
X06059Y01957*
X06063*
Y01961*
X06059Y01965*
X06063Y01969*
Y01973*
X06059*
X06055Y01969*
X06051Y01973*
X06047*
Y01969*
X06051Y01965*
X06047Y01961*
Y01957*
X06052Y02237D02*
X06056D01*
X0606Y02241*
X06064Y02237*
X06068*
Y02241*
X06064Y02245*
X06068Y02249*
Y02253*
X06064*
X0606Y02249*
X06056Y02253*
X06052*
Y02249*
X06056Y02245*
X06052Y02241*
Y02237*
X06047Y02482D02*
X06051D01*
X06055Y02486*
X06059Y02482*
X06063*
Y02486*
X06059Y0249*
X06063Y02494*
Y02498*
X06059*
X06055Y02494*
X06051Y02498*
X06047*
Y02494*
X06051Y0249*
X06047Y02486*
Y02482*
X06327Y03957D02*
X06331D01*
X06335Y03961*
X06339Y03957*
X06343*
Y03961*
X06339Y03965*
X06343Y03969*
Y03973*
X06339*
X06335Y03969*
X06331Y03973*
X06327*
Y03969*
X06331Y03965*
X06327Y03961*
Y03957*
X06502Y03732D02*
X06506D01*
X0651Y03736*
X06514Y03732*
X06518*
Y03736*
X06514Y0374*
X06518Y03744*
Y03748*
X06514*
X0651Y03744*
X06506Y03748*
X06502*
Y03744*
X06506Y0374*
X06502Y03736*
Y03732*
X06177Y03725D02*
X06181D01*
X06185Y03729*
X06189Y03725*
X06193*
Y03729*
X06189Y03733*
X06193Y03737*
Y03741*
X06189*
X06185Y03737*
X06181Y03741*
X06177*
Y03737*
X06181Y03733*
X06177Y03729*
Y03725*
X05862Y03737D02*
X05866D01*
X0587Y03741*
X05874Y03737*
X05878*
Y03741*
X05874Y03745*
X05878Y03749*
Y03753*
X05874*
X0587Y03749*
X05866Y03753*
X05862*
Y03749*
X05866Y03745*
X05862Y03741*
Y03737*
X05547Y03742D02*
X05551D01*
X05555Y03746*
X05559Y03742*
X05563*
Y03746*
X05559Y0375*
X05563Y03754*
Y03758*
X05559*
X05555Y03754*
X05551Y03758*
X05547*
Y03754*
X05551Y0375*
X05547Y03746*
Y03742*
X05057Y03892D02*
X05061D01*
X05065Y03896*
X05069Y03892*
X05073*
Y03896*
X05069Y039*
X05073Y03904*
Y03908*
X05069*
X05065Y03904*
X05061Y03908*
X05057*
Y03904*
X05061Y039*
X05057Y03896*
Y03892*
X05192Y03767D02*
X05196D01*
X052Y03771*
X05204Y03767*
X05208*
Y03771*
X05204Y03775*
X05208Y03779*
Y03783*
X05204*
X052Y03779*
X05196Y03783*
X05192*
Y03779*
X05196Y03775*
X05192Y03771*
Y03767*
X04877Y03752D02*
X04881D01*
X04885Y03756*
X04889Y03752*
X04893*
Y03756*
X04889Y0376*
X04893Y03764*
Y03768*
X04889*
X04885Y03764*
X04881Y03768*
X04877*
Y03764*
X04881Y0376*
X04877Y03756*
Y03752*
X04542Y03762D02*
X04546D01*
X0455Y03766*
X04554Y03762*
X04558*
Y03766*
X04554Y0377*
X04558Y03774*
Y03778*
X04554*
X0455Y03774*
X04546Y03778*
X04542*
Y03774*
X04546Y0377*
X04542Y03766*
Y03762*
X04217D02*
X04221D01*
X04225Y03766*
X04229Y03762*
X04233*
Y03766*
X04229Y0377*
X04233Y03774*
Y03778*
X04229*
X04225Y03774*
X04221Y03778*
X04217*
Y03774*
X04221Y0377*
X04217Y03766*
Y03762*
X03532Y01182D02*
X03536D01*
X0354Y01186*
X03544Y01182*
X03548*
Y01186*
X03544Y0119*
X03548Y01194*
Y01198*
X03544*
X0354Y01194*
X03536Y01198*
X03532*
Y01194*
X03536Y0119*
X03532Y01186*
Y01182*
X03522Y01487D02*
X03526D01*
X0353Y01491*
X03534Y01487*
X03538*
Y01491*
X03534Y01495*
X03538Y01499*
Y01503*
X03534*
X0353Y01499*
X03526Y01503*
X03522*
Y01499*
X03526Y01495*
X03522Y01491*
Y01487*
Y01792D02*
X03526D01*
X0353Y01796*
X03534Y01792*
X03538*
Y01796*
X03534Y018*
X03538Y01804*
Y01808*
X03534*
X0353Y01804*
X03526Y01808*
X03522*
Y01804*
X03526Y018*
X03522Y01796*
Y01792*
Y02112D02*
X03526D01*
X0353Y02116*
X03534Y02112*
X03538*
Y02116*
X03534Y0212*
X03538Y02124*
Y02128*
X03534*
X0353Y02124*
X03526Y02128*
X03522*
Y02124*
X03526Y0212*
X03522Y02116*
Y02112*
Y02767D02*
X03526D01*
X0353Y02771*
X03534Y02767*
X03538*
Y02771*
X03534Y02775*
X03538Y02779*
Y02783*
X03534*
X0353Y02779*
X03526Y02783*
X03522*
Y02779*
X03526Y02775*
X03522Y02771*
Y02767*
X03177Y03277D02*
X03181D01*
X03185Y03281*
X03189Y03277*
X03193*
Y03281*
X03189Y03285*
X03193Y03289*
Y03293*
X03189*
X03185Y03289*
X03181Y03293*
X03177*
Y03289*
X03181Y03285*
X03177Y03281*
Y03277*
X03522Y03082D02*
X03526D01*
X0353Y03086*
X03534Y03082*
X03538*
Y03086*
X03534Y0309*
X03538Y03094*
Y03098*
X03534*
X0353Y03094*
X03526Y03098*
X03522*
Y03094*
X03526Y0309*
X03522Y03086*
Y03082*
Y03442D02*
X03526D01*
X0353Y03446*
X03534Y03442*
X03538*
Y03446*
X03534Y0345*
X03538Y03454*
Y03458*
X03534*
X0353Y03454*
X03526Y03458*
X03522*
Y03454*
X03526Y0345*
X03522Y03446*
Y03442*
G54D64*
X05351Y0285D02*
D01*
X05351Y0285*
X05351Y02851*
X0535Y02851*
X0535Y02852*
X0535Y02852*
X0535Y02853*
X0535Y02853*
X05349Y02854*
X05349Y02854*
X05349Y02855*
X05348Y02855*
X05348Y02855*
X05348Y02856*
X05347Y02856*
X05347Y02856*
X05346Y02857*
X05346Y02857*
X05345Y02857*
X05345Y02857*
X05344Y02857*
X05343Y02857*
X05343Y02857*
X05342*
X05342Y02857*
X05341Y02857*
X05341Y02857*
X0534Y02857*
X0534Y02857*
X05339Y02857*
X05339Y02856*
X05338Y02856*
X05338Y02856*
X05337Y02855*
X05337Y02855*
X05337Y02855*
X05336Y02854*
X05336Y02854*
X05336Y02853*
X05335Y02853*
X05335Y02852*
X05335Y02852*
X05335Y02851*
X05335Y02851*
X05335Y0285*
X05335Y0285*
X05335Y02849*
X05335Y02848*
X05335Y02848*
X05335Y02847*
X05335Y02847*
X05335Y02846*
X05336Y02846*
X05336Y02845*
X05336Y02845*
X05337Y02844*
X05337Y02844*
X05337Y02844*
X05338Y02843*
X05338Y02843*
X05339Y02843*
X05339Y02842*
X0534Y02842*
X0534Y02842*
X05341Y02842*
X05341Y02842*
X05342Y02842*
X05342Y02842*
X05343*
X05343Y02842*
X05344Y02842*
X05345Y02842*
X05345Y02842*
X05346Y02842*
X05346Y02842*
X05347Y02843*
X05347Y02843*
X05348Y02843*
X05348Y02844*
X05348Y02844*
X05349Y02844*
X05349Y02845*
X05349Y02845*
X0535Y02846*
X0535Y02846*
X0535Y02847*
X0535Y02847*
X0535Y02848*
X05351Y02848*
X05351Y02849*
X05351Y0285*
X05449D02*
D01*
X05449Y0285*
X05449Y02851*
X05449Y02851*
X05449Y02852*
X05449Y02852*
X05448Y02853*
X05448Y02853*
X05448Y02854*
X05448Y02854*
X05447Y02855*
X05447Y02855*
X05446Y02855*
X05446Y02856*
X05446Y02856*
X05445Y02856*
X05445Y02857*
X05444Y02857*
X05444Y02857*
X05443Y02857*
X05442Y02857*
X05442Y02857*
X05441Y02857*
X05441*
X0544Y02857*
X0544Y02857*
X05439Y02857*
X05439Y02857*
X05438Y02857*
X05438Y02857*
X05437Y02856*
X05437Y02856*
X05436Y02856*
X05436Y02855*
X05435Y02855*
X05435Y02855*
X05435Y02854*
X05434Y02854*
X05434Y02853*
X05434Y02853*
X05434Y02852*
X05433Y02852*
X05433Y02851*
X05433Y02851*
X05433Y0285*
X05433Y0285*
X05433Y02849*
X05433Y02848*
X05433Y02848*
X05433Y02847*
X05434Y02847*
X05434Y02846*
X05434Y02846*
X05434Y02845*
X05435Y02845*
X05435Y02844*
X05435Y02844*
X05436Y02844*
X05436Y02843*
X05437Y02843*
X05437Y02843*
X05438Y02842*
X05438Y02842*
X05439Y02842*
X05439Y02842*
X0544Y02842*
X0544Y02842*
X05441Y02842*
X05441*
X05442Y02842*
X05442Y02842*
X05443Y02842*
X05444Y02842*
X05444Y02842*
X05445Y02842*
X05445Y02843*
X05446Y02843*
X05446Y02843*
X05446Y02844*
X05447Y02844*
X05447Y02844*
X05448Y02845*
X05448Y02845*
X05448Y02846*
X05448Y02846*
X05449Y02847*
X05449Y02847*
X05449Y02848*
X05449Y02848*
X05449Y02849*
X05449Y0285*
X05548D02*
D01*
X05547Y0285*
X05547Y02851*
X05547Y02851*
X05547Y02852*
X05547Y02852*
X05547Y02853*
X05547Y02853*
X05546Y02854*
X05546Y02854*
X05546Y02855*
X05545Y02855*
X05545Y02855*
X05544Y02856*
X05544Y02856*
X05544Y02856*
X05543Y02857*
X05542Y02857*
X05542Y02857*
X05541Y02857*
X05541Y02857*
X0554Y02857*
X0554Y02857*
X05539*
X05539Y02857*
X05538Y02857*
X05538Y02857*
X05537Y02857*
X05537Y02857*
X05536Y02857*
X05536Y02856*
X05535Y02856*
X05535Y02856*
X05534Y02855*
X05534Y02855*
X05533Y02855*
X05533Y02854*
X05533Y02854*
X05532Y02853*
X05532Y02853*
X05532Y02852*
X05532Y02852*
X05532Y02851*
X05532Y02851*
X05532Y0285*
X05532Y0285*
X05532Y02849*
X05532Y02848*
X05532Y02848*
X05532Y02847*
X05532Y02847*
X05532Y02846*
X05532Y02846*
X05533Y02845*
X05533Y02845*
X05533Y02844*
X05534Y02844*
X05534Y02844*
X05535Y02843*
X05535Y02843*
X05536Y02843*
X05536Y02842*
X05537Y02842*
X05537Y02842*
X05538Y02842*
X05538Y02842*
X05539Y02842*
X05539Y02842*
X0554*
X0554Y02842*
X05541Y02842*
X05541Y02842*
X05542Y02842*
X05542Y02842*
X05543Y02842*
X05544Y02843*
X05544Y02843*
X05544Y02843*
X05545Y02844*
X05545Y02844*
X05546Y02844*
X05546Y02845*
X05546Y02845*
X05547Y02846*
X05547Y02846*
X05547Y02847*
X05547Y02847*
X05547Y02848*
X05547Y02848*
X05547Y02849*
X05548Y0285*
X05351Y02633D02*
D01*
X05351Y02634*
X05351Y02634*
X0535Y02635*
X0535Y02635*
X0535Y02636*
X0535Y02636*
X0535Y02637*
X05349Y02637*
X05349Y02638*
X05349Y02638*
X05348Y02639*
X05348Y02639*
X05348Y02639*
X05347Y0264*
X05347Y0264*
X05346Y0264*
X05346Y0264*
X05345Y02641*
X05345Y02641*
X05344Y02641*
X05343Y02641*
X05343Y02641*
X05342*
X05342Y02641*
X05341Y02641*
X05341Y02641*
X0534Y02641*
X0534Y0264*
X05339Y0264*
X05339Y0264*
X05338Y0264*
X05338Y02639*
X05337Y02639*
X05337Y02639*
X05337Y02638*
X05336Y02638*
X05336Y02637*
X05336Y02637*
X05335Y02636*
X05335Y02636*
X05335Y02635*
X05335Y02635*
X05335Y02634*
X05335Y02634*
X05335Y02633*
X05335Y02632*
X05335Y02632*
X05335Y02631*
X05335Y02631*
X05335Y0263*
X05335Y0263*
X05336Y02629*
X05336Y02629*
X05336Y02628*
X05337Y02628*
X05337Y02627*
X05337Y02627*
X05338Y02627*
X05338Y02626*
X05339Y02626*
X05339Y02626*
X0534Y02626*
X0534Y02625*
X05341Y02625*
X05341Y02625*
X05342Y02625*
X05342Y02625*
X05343*
X05343Y02625*
X05344Y02625*
X05345Y02625*
X05345Y02625*
X05346Y02626*
X05346Y02626*
X05347Y02626*
X05347Y02626*
X05348Y02627*
X05348Y02627*
X05348Y02627*
X05349Y02628*
X05349Y02628*
X05349Y02629*
X0535Y02629*
X0535Y0263*
X0535Y0263*
X0535Y02631*
X0535Y02631*
X05351Y02632*
X05351Y02632*
X05351Y02633*
X05449D02*
D01*
X05449Y02634*
X05449Y02634*
X05449Y02635*
X05449Y02635*
X05449Y02636*
X05448Y02636*
X05448Y02637*
X05448Y02637*
X05448Y02638*
X05447Y02638*
X05447Y02639*
X05446Y02639*
X05446Y02639*
X05446Y0264*
X05445Y0264*
X05445Y0264*
X05444Y0264*
X05444Y02641*
X05443Y02641*
X05442Y02641*
X05442Y02641*
X05441Y02641*
X05441*
X0544Y02641*
X0544Y02641*
X05439Y02641*
X05439Y02641*
X05438Y0264*
X05438Y0264*
X05437Y0264*
X05437Y0264*
X05436Y02639*
X05436Y02639*
X05435Y02639*
X05435Y02638*
X05435Y02638*
X05434Y02637*
X05434Y02637*
X05434Y02636*
X05434Y02636*
X05433Y02635*
X05433Y02635*
X05433Y02634*
X05433Y02634*
X05433Y02633*
X05433Y02632*
X05433Y02632*
X05433Y02631*
X05433Y02631*
X05434Y0263*
X05434Y0263*
X05434Y02629*
X05434Y02629*
X05435Y02628*
X05435Y02628*
X05435Y02627*
X05436Y02627*
X05436Y02627*
X05437Y02626*
X05437Y02626*
X05438Y02626*
X05438Y02626*
X05439Y02625*
X05439Y02625*
X0544Y02625*
X0544Y02625*
X05441Y02625*
X05441*
X05442Y02625*
X05442Y02625*
X05443Y02625*
X05444Y02625*
X05444Y02626*
X05445Y02626*
X05445Y02626*
X05446Y02626*
X05446Y02627*
X05446Y02627*
X05447Y02627*
X05447Y02628*
X05448Y02628*
X05448Y02629*
X05448Y02629*
X05448Y0263*
X05449Y0263*
X05449Y02631*
X05449Y02631*
X05449Y02632*
X05449Y02632*
X05449Y02633*
X05548D02*
D01*
X05547Y02634*
X05547Y02634*
X05547Y02635*
X05547Y02635*
X05547Y02636*
X05547Y02636*
X05547Y02637*
X05546Y02637*
X05546Y02638*
X05546Y02638*
X05545Y02639*
X05545Y02639*
X05544Y02639*
X05544Y0264*
X05544Y0264*
X05543Y0264*
X05542Y0264*
X05542Y02641*
X05541Y02641*
X05541Y02641*
X0554Y02641*
X0554Y02641*
X05539*
X05539Y02641*
X05538Y02641*
X05538Y02641*
X05537Y02641*
X05537Y0264*
X05536Y0264*
X05536Y0264*
X05535Y0264*
X05535Y02639*
X05534Y02639*
X05534Y02639*
X05533Y02638*
X05533Y02638*
X05533Y02637*
X05532Y02637*
X05532Y02636*
X05532Y02636*
X05532Y02635*
X05532Y02635*
X05532Y02634*
X05532Y02634*
X05532Y02633*
X05532Y02632*
X05532Y02632*
X05532Y02631*
X05532Y02631*
X05532Y0263*
X05532Y0263*
X05532Y02629*
X05533Y02629*
X05533Y02628*
X05533Y02628*
X05534Y02627*
X05534Y02627*
X05535Y02627*
X05535Y02626*
X05536Y02626*
X05536Y02626*
X05537Y02626*
X05537Y02625*
X05538Y02625*
X05538Y02625*
X05539Y02625*
X05539Y02625*
X0554*
X0554Y02625*
X05541Y02625*
X05541Y02625*
X05542Y02625*
X05542Y02626*
X05543Y02626*
X05544Y02626*
X05544Y02626*
X05544Y02627*
X05545Y02627*
X05545Y02627*
X05546Y02628*
X05546Y02628*
X05546Y02629*
X05547Y02629*
X05547Y0263*
X05547Y0263*
X05547Y02631*
X05547Y02631*
X05547Y02632*
X05547Y02632*
X05548Y02633*
M02*