%FSTAX23Y23*%
%MOIN*%
%SFA1B1*%

%IPPOS*%
%ADD12C,0.010000*%
%ADD13R,0.051181X0.027559*%
%ADD22R,0.023622X0.019685*%
%ADD45C,0.007000*%
%ADD46R,0.047244X0.047244*%
%ADD47C,0.047244*%
%ADD48R,0.078740X0.078740*%
%ADD49C,0.078740*%
%ADD50C,0.118110*%
%ADD51R,0.059055X0.059055*%
%ADD52C,0.059055*%
%ADD53R,0.106299X0.047244*%
%ADD54R,0.047244X0.106299*%
%ADD55R,0.047244X0.047244*%
%ADD56C,0.018000*%
%ADD57C,0.050000*%
%ADD58O,0.023622X0.043307*%
%ADD59R,0.023622X0.043307*%
%LNpcb1-1*%
%LPD*%
G36*
X02685Y04485D02*
X0697D01*
Y00605*
X06965Y006*
X0268*
X0266Y04503*
X02664Y04505*
X02685Y04485*
G37*
%LNpcb1-2*%
%LPC*%
G36*
X04705Y04388D02*
X04684Y0438D01*
X04676Y0436*
X04684Y04339*
X04705Y04331*
X04725Y04339*
X04733Y0436*
X04725Y0438*
X04705Y04388*
G37*
G36*
X04605D02*
X04584Y0438D01*
X04576Y0436*
X04584Y04339*
X04605Y04331*
X04625Y04339*
X04633Y0436*
X04625Y0438*
X04605Y04388*
G37*
G36*
X04505D02*
X04484Y0438D01*
X04476Y0436*
X04484Y04339*
X04505Y04331*
X04525Y04339*
X04533Y0436*
X04525Y0438*
X04505Y04388*
G37*
G36*
X05945Y04353D02*
X05924Y04345D01*
X05916Y04325*
X05924Y04304*
X05945Y04296*
X05965Y04304*
X05973Y04325*
X05965Y04345*
X05945Y04353*
G37*
G36*
X05845D02*
X05824Y04345D01*
X05816Y04325*
X05824Y04304*
X05845Y04296*
X05865Y04304*
X05873Y04325*
X05865Y04345*
X05845Y04353*
G37*
G36*
X05745D02*
X05724Y04345D01*
X05716Y04325*
X05724Y04304*
X05745Y04296*
X05765Y04304*
X05773Y04325*
X05765Y04345*
X05745Y04353*
G37*
G36*
X02858Y04313D02*
X028D01*
Y04284*
X02858*
Y04313*
G37*
G36*
X0279D02*
X02731D01*
Y04284*
X0279*
Y04313*
G37*
G36*
X02858Y04274D02*
X028D01*
Y04246*
X02858*
Y04274*
G37*
G36*
X0279D02*
X02731D01*
Y04246*
X0279*
Y04274*
G37*
G36*
X04805Y04288D02*
X04784Y0428D01*
X04776Y0426*
X04784Y04239*
X04805Y04231*
X04825Y04239*
X04833Y0426*
X04825Y0428*
X04805Y04288*
G37*
G36*
X04705D02*
X04684Y0428D01*
X04676Y0426*
X04684Y04239*
X04705Y04231*
X04725Y04239*
X04733Y0426*
X04725Y0428*
X04705Y04288*
G37*
G36*
X04605D02*
X04584Y0428D01*
X04576Y0426*
X04584Y04239*
X04605Y04231*
X04625Y04239*
X04633Y0426*
X04625Y0428*
X04605Y04288*
G37*
G36*
X04505D02*
X04484Y0428D01*
X04476Y0426*
X04484Y04239*
X04505Y04231*
X04525Y04239*
X04533Y0426*
X04525Y0428*
X04505Y04288*
G37*
G36*
X06045Y04253D02*
X06024Y04245D01*
X06016Y04225*
X06024Y04204*
X06045Y04196*
X06065Y04204*
X06073Y04225*
X06065Y04245*
X06045Y04253*
G37*
G36*
X05945D02*
X05924Y04245D01*
X05916Y04225*
X05924Y04204*
X05945Y04196*
X05965Y04204*
X05973Y04225*
X05965Y04245*
X05945Y04253*
G37*
G36*
X05845D02*
X05824Y04245D01*
X05816Y04225*
X05824Y04204*
X05845Y04196*
X05865Y04204*
X05873Y04225*
X05865Y04245*
X05845Y04253*
G37*
G36*
X05745D02*
X05724Y04245D01*
X05716Y04225*
X05724Y04204*
X05745Y04196*
X05765Y04204*
X05773Y04225*
X05765Y04245*
X05745Y04253*
G37*
G36*
X03328Y04155D02*
X03271D01*
Y04121*
X03328*
Y04127*
X03451*
Y04116*
X03508*
Y0415*
X03451*
Y04144*
X03328*
Y04155*
G37*
G36*
X03002Y04205D02*
X02949D01*
Y04093*
X03002*
Y04205*
G37*
G36*
X03515Y0411D02*
X03485D01*
Y04091*
X03515*
Y0411*
G37*
G36*
X03475D02*
X03444D01*
Y04091*
X03475*
Y0411*
G37*
G36*
X03515Y04081D02*
X03485D01*
Y04062*
X03515*
Y04081*
G37*
G36*
X03475D02*
X03444D01*
Y04062*
X03475*
Y04081*
G37*
G36*
X06071Y04351D02*
X06018D01*
Y04298*
X06071*
Y04316*
X06251*
X06326Y04241*
Y03993*
X06312Y03987*
X06302Y03965*
X06312Y03942*
X06335Y03932*
X06357Y03942*
X06367Y03965*
X06357Y03987*
X06343Y03993*
Y04245*
X06341Y04251*
X06261Y04331*
X06255Y04333*
X06071*
Y04351*
G37*
G36*
X04831Y04386D02*
X04778D01*
Y04333*
X04819*
X05056Y04096*
Y03928*
X05042Y03922*
X05032Y039*
X05042Y03877*
X05065Y03867*
X05087Y03877*
X05097Y039*
X05087Y03922*
X05073Y03928*
Y041*
X05071Y04106*
X04831Y04345*
Y04386*
G37*
G36*
X03328Y04108D02*
X03271D01*
Y041*
X03177*
X03171Y04097*
X03119Y04045*
X02851*
Y04058*
X02738*
Y04005*
X02851*
Y04028*
X03123*
X03129Y0403*
X03181Y04082*
X03271*
Y04074*
X03316*
X03627Y03763*
X03628Y03763*
X0363Y03757*
X03518Y03646*
X03516Y0364*
Y03476*
X03507Y03472*
X03497Y0345*
X03507Y03427*
X03518Y03422*
Y03117*
X03507Y03112*
X03497Y0309*
X03507Y03067*
X03516Y03063*
Y02801*
X03507Y02797*
X03497Y02775*
X03507Y02752*
X03516Y02748*
Y02471*
X03507Y02467*
X03497Y02445*
X03507Y02422*
X03513Y02419*
Y02145*
X03507Y02142*
X03497Y0212*
X03507Y02097*
X03513Y02094*
Y01825*
X03507Y01822*
X03497Y018*
X03507Y01777*
X03514Y01773*
Y01521*
X03507Y01517*
X03497Y01495*
X03507Y01472*
X03514Y01469*
Y01205*
X03507Y0119*
X03517Y01167*
X03521Y01165*
Y01025*
X03523Y01018*
X03613Y00928*
X0362Y00926*
X04095*
X04101Y00928*
X04161Y00988*
X04163Y00995*
Y01141*
X04228Y01206*
X04371*
X04377Y01192*
X044Y01182*
X04422Y01192*
X04428Y01206*
X04662*
X04672Y01184*
X04695Y01174*
X04717Y01184*
X04727Y01207*
X04728Y01208*
X04977*
X04982Y01197*
X05005Y01187*
X05027Y01197*
X05032Y01208*
X05275*
X05282Y01192*
X05305Y01182*
X05327Y01192*
X05333Y01206*
X059*
X05906Y01208*
X06061Y01363*
X06063Y0137*
Y01681*
X06077Y01687*
X06087Y0171*
X06077Y01732*
X06063Y01738*
Y01936*
X06077Y01942*
X06087Y01965*
X06077Y01987*
X06066Y01992*
Y02215*
X06082Y02222*
X06092Y02245*
X06082Y02267*
X06066Y02274*
Y02462*
X06077Y02467*
X06087Y0249*
X06077Y02512*
X06055Y02522*
X06032Y02512*
X06022Y0249*
X06032Y02467*
X06048Y0246*
Y02272*
X06037Y02267*
X06027Y02245*
X06037Y02222*
X06048Y02217*
Y01994*
X06032Y01987*
X06022Y01965*
X06032Y01942*
X06046Y01936*
Y01738*
X06032Y01732*
X06022Y0171*
X06032Y01687*
X06046Y01681*
Y01373*
X05896Y01223*
X05333*
X05327Y01237*
X05305Y01247*
X05282Y01237*
X05277Y01226*
X05034*
X05027Y01242*
X05005Y01252*
X04982Y01242*
X04975Y01226*
X04719*
X04717Y0123*
X04695Y01239*
X04672Y0123*
X04669Y01223*
X04428*
X04422Y01237*
X044Y01247*
X04377Y01237*
X04371Y01223*
X04225*
X04218Y01221*
X04148Y01151*
X04146Y01145*
Y00998*
X04091Y00943*
X03623*
X03538Y01028*
Y01156*
X0354Y01157*
X03562Y01167*
X03572Y0119*
X03562Y01212*
X0354Y01222*
X03535Y0122*
X03531Y01223*
Y01463*
X03552Y01472*
X03562Y01495*
X03552Y01517*
X03531Y01526*
Y01768*
X03552Y01777*
X03562Y018*
X03552Y01822*
X03531Y01831*
Y02088*
X03552Y02097*
X03562Y0212*
X03552Y02142*
X03531Y02151*
Y02413*
X03552Y02422*
X03562Y02445*
X03552Y02467*
X03533Y02475*
Y02744*
X03552Y02752*
X03562Y02775*
X03552Y02797*
X03533Y02805*
Y03059*
X03552Y03067*
X03562Y0309*
X03552Y03112*
X03536Y03119*
Y0342*
X03552Y03427*
X03562Y0345*
X03552Y03472*
X03533Y0348*
Y03636*
X03658Y03761*
X04196*
X04202Y03747*
X04225Y03737*
X04247Y03747*
X04253Y03761*
X04521*
X04527Y03747*
X0455Y03737*
X04572Y03747*
X04576Y03756*
X04854*
X04862Y03737*
X04885Y03727*
X04907Y03737*
X04916Y03758*
X05174*
X05177Y03752*
X052Y03742*
X05222Y03752*
X05228Y03766*
X05519*
X05526Y03759*
X05522Y0375*
X05532Y03727*
X05555Y03717*
X05577Y03727*
X05582Y03738*
X0584*
X05847Y03722*
X0587Y03712*
X05892Y03722*
X05896Y0373*
X06153*
X06162Y0371*
X06185Y037*
X06207Y0371*
X06215Y03727*
X06482*
X06487Y03717*
X0651Y03707*
X06532Y03717*
X06542Y0374*
X06532Y03762*
X0651Y03772*
X06487Y03762*
X06479Y03745*
X06212*
X06207Y03756*
X06185Y03765*
X06162Y03756*
X06158Y03747*
X05901*
X05892Y03767*
X0587Y03777*
X05847Y03767*
X05842Y03756*
X05584*
X05577Y03772*
X05555Y03782*
X05536Y03774*
X05529Y03781*
X05523Y03783*
X05228*
X05222Y03797*
X052Y03807*
X05177Y03797*
X05168Y03776*
X0491*
X04907Y03782*
X04885Y03792*
X04862Y03782*
X04858Y03773*
X0458*
X04572Y03792*
X0455Y03802*
X04527Y03792*
X04521Y03778*
X04253*
X04247Y03792*
X04225Y03802*
X04202Y03792*
X04196Y03778*
X03636*
X03328Y04086*
Y04108*
G37*
G36*
X06905Y0339D02*
X0688Y03379D01*
X06869Y03355*
X0688Y0333*
X06905Y03319*
X06929Y0333*
X0694Y03355*
X06929Y03379*
X06905Y0339*
G37*
G36*
X0691Y03295D02*
Y0326D01*
X06945*
X06935Y03285*
X0691Y03295*
G37*
G36*
X069D02*
X06874Y03285D01*
X06864Y0326*
X069*
Y03295*
G37*
G36*
X03185Y03317D02*
X03162Y03307D01*
X03155Y03292*
X02895*
X0289Y03289*
X02875Y03274*
X02872Y0327*
Y03131*
X02853*
Y03078*
X02906*
Y03131*
X02887*
Y03267*
X02897Y03277*
X03155*
X03162Y03262*
X03185Y03252*
X03207Y03262*
X03217Y03285*
X03207Y03307*
X03185Y03317*
G37*
G36*
X06945Y0325D02*
X0691D01*
Y03214*
X06935Y03224*
X06945Y0325*
G37*
G36*
X069D02*
X06864D01*
X06874Y03224*
X069Y03214*
Y0325*
G37*
G36*
X06488Y03185D02*
X06431D01*
Y03151*
X06488*
Y03159*
X06561*
Y03146*
X06618*
Y0318*
X06561*
Y03173*
X06488*
Y03185*
G37*
G36*
X06495Y03145D02*
X06465D01*
Y03126*
X06495*
Y03145*
G37*
G36*
X06455D02*
X06424D01*
Y03126*
X06455*
Y03145*
G37*
G36*
X06937Y03187D02*
X06872D01*
Y03122*
X06937*
Y03187*
G37*
G36*
X06495Y03116D02*
X06465D01*
Y03097*
X06495*
Y03116*
G37*
G36*
X06455D02*
X06424D01*
Y03097*
X06455*
Y03116*
G37*
G36*
X04695Y03097D02*
X04665D01*
Y03078*
X04695*
Y03097*
G37*
G36*
X04655D02*
X04624D01*
Y03078*
X04655*
Y03097*
G37*
G36*
X0298Y03133D02*
X02959Y03125D01*
X02951Y03105*
X02959Y03084*
X0298Y03076*
X03Y03084*
X03008Y03105*
X03Y03125*
X0298Y03133*
G37*
G36*
X04845Y03093D02*
X04815D01*
Y03075*
X04845*
Y03093*
G37*
G36*
X04805D02*
X04774D01*
Y03075*
X04805*
Y03093*
G37*
G36*
X04695Y03068D02*
X04665D01*
Y03049*
X04695*
Y03068*
G37*
G36*
X04655D02*
X04624D01*
Y03049*
X04655*
Y03068*
G37*
G36*
X04845Y03065D02*
X04815D01*
Y03046*
X04845*
Y03065*
G37*
G36*
X04805D02*
X04774D01*
Y03046*
X04805*
Y03065*
G37*
G36*
X05985Y03038D02*
X05974Y03033D01*
X05969Y03022*
X05974Y03012*
X05985Y03007*
X05995Y03012*
X06Y03022*
X05995Y03033*
X05985Y03038*
G37*
G36*
X05901Y03014D02*
X05885D01*
Y03*
X05901*
Y03014*
G37*
G36*
X05875D02*
X05858D01*
Y03*
X05875*
Y03014*
G37*
G36*
X05806Y03049D02*
X05753D01*
Y03029*
X05712*
X05707Y03027*
X05565Y02885*
X0554Y02895*
X05507Y02882*
X05494Y0285*
X05507Y02817*
X0554Y02804*
X05569Y02816*
X05572Y02812*
X05535Y02774*
X05532Y0277*
Y02676*
X05507Y02665*
X05494Y02633*
X05507Y02601*
X0554Y02587*
X05572Y02601*
X05585Y02633*
X05572Y02665*
X05547Y02676*
Y02767*
X05602Y02822*
X05754*
X05759Y02809*
X0578Y02801*
X058Y02809*
X05808Y0283*
X05803Y02843*
X05838Y02878*
X05843Y02876*
Y02875*
X05865*
X05886*
Y02889*
X0587*
X05869Y02894*
X05869Y02895*
X05872Y029*
X05869Y02904*
X05865Y02907*
X0585*
X05845Y02904*
X05793Y02853*
X0578Y02858*
X05759Y0285*
X05754Y02837*
X056*
X05595Y02834*
X05577Y02817*
X05573Y0282*
X05585Y0285*
X05575Y02875*
X05715Y03015*
X05753*
Y02996*
X05806*
Y03049*
G37*
G36*
X0298Y03033D02*
X02959Y03025D01*
X02951Y03005*
X02959Y02984*
X0298Y02976*
X03Y02984*
X03008Y03005*
X03Y03025*
X0298Y03033*
G37*
G36*
X0288D02*
X02859Y03025D01*
X02851Y03005*
X02859Y02984*
X0288Y02976*
X029Y02984*
X02908Y03005*
X029Y03025*
X0288Y03033*
G37*
G36*
X05901Y0299D02*
X05885D01*
Y02975*
X05901*
Y0299*
G37*
G36*
X05875D02*
X05858D01*
Y02975*
X05875*
Y0299*
G37*
G36*
X0612Y03013D02*
X06099Y03005D01*
X06091Y02985*
X06099Y02964*
X0612Y02956*
X0614Y02964*
X06148Y02985*
X0614Y03005*
X0612Y03013*
G37*
G36*
X06618Y03133D02*
X06561D01*
Y03099*
X06581*
Y02983*
X0655Y02952*
X06501Y03001*
X06495Y03003*
X06213*
X06146Y0307*
Y03111*
X06093*
Y03093*
X05465*
X05458Y03091*
X05207Y02839*
X05205Y0284*
X05202Y02839*
X05071Y02971*
X05065Y02973*
X0485*
X04843Y02971*
X04808Y02935*
X04803Y02937*
Y03005*
X04838*
Y03039*
X04781*
Y03027*
X04688*
Y03043*
X04631*
Y03009*
X04688*
Y0301*
X04781*
Y03005*
X04786*
Y02921*
X04784Y0292*
X04779Y0291*
X0478Y02907*
X04672Y02799*
X0467Y028*
X04659Y02795*
X04654Y02785*
X04655Y02782*
X04563Y02691*
X04561Y02685*
Y025*
X04563Y02493*
X04683Y02373*
X04681Y02369*
X045*
X04494Y02366*
X04476Y02349*
X04446*
Y02338*
X04388*
Y02351*
X04331*
Y02318*
X04388*
Y02321*
X04446*
Y02315*
X04503*
Y02349*
X04507Y02351*
X04697*
X04698Y02349*
X04709Y02345*
X04711Y02346*
X04788Y02268*
X04823Y02233*
X0483Y02231*
X0505*
X05056Y02233*
X05131Y02308*
X05135Y02306*
Y02235*
X05095Y02194*
X05092Y02189*
Y02045*
X05071*
Y02011*
X05128*
Y02045*
X05107*
Y02186*
X05131Y02211*
X05136Y02209*
Y02208*
X05193*
Y02215*
X05291*
Y02206*
X05348*
Y0224*
X05291*
Y02232*
X05193*
Y02241*
X05153*
Y02323*
X05152Y02324*
X05155Y0233*
X0515Y0234*
X0514Y02345*
X05129Y0234*
X05124Y0233*
X05125Y02327*
X05046Y02248*
X04833*
X04801Y02281*
X04723Y02358*
X04724Y0236*
X0472Y02371*
X04709Y02375*
X04707Y02374*
X04578Y02503*
Y02681*
X04667Y0277*
X0467Y02769*
X0468Y02774*
X04685Y02785*
X04684Y02787*
X04792Y02895*
X04795Y02894*
X04805Y02899*
X0481Y0291*
X04809Y02912*
X04853Y02956*
X05061*
X0519Y02827*
X05189Y02825*
X05194Y02814*
X05205Y02809*
X05215Y02814*
X0522Y02825*
X05219Y02827*
X05468Y03076*
X06093*
Y03058*
X06134*
X06203Y02988*
X0621Y02986*
X06491*
X06533Y02944*
X06528Y02934*
Y02915*
X06533Y02903*
X06545Y02899*
X06556Y02903*
X06561Y02915*
Y02934*
X06559Y02937*
X06596Y02973*
X06598Y02979*
Y03099*
X06618*
Y03133*
G37*
G36*
X0647Y0295D02*
X06458Y02946D01*
X06454Y02934*
Y02915*
X06454Y02913*
X06447Y02905*
X06348*
Y02915*
X06291*
Y02881*
X06348*
Y02891*
X06449*
X06454Y02893*
X06463Y02901*
X0647Y02899*
X06481Y02903*
X06486Y02915*
Y02934*
X06481Y02946*
X0647Y0295*
G37*
G36*
X0434Y02909D02*
Y0288D01*
X04369*
X0436Y029*
X0434Y02909*
G37*
G36*
X0433D02*
X04309Y029D01*
X043Y0288*
X0433*
Y02909*
G37*
G36*
X0298Y02933D02*
X02959Y02925D01*
X02951Y02905*
X02959Y02884*
X0298Y02876*
X03Y02884*
X03008Y02905*
X03Y02925*
X0298Y02933*
G37*
G36*
X0288D02*
X02859Y02925D01*
X02851Y02905*
X02859Y02884*
X0288Y02876*
X029Y02884*
X02908Y02905*
X029Y02925*
X0288Y02933*
G37*
G36*
X06355Y02875D02*
X06325D01*
Y02856*
X06355*
Y02875*
G37*
G36*
X06315D02*
X06284D01*
Y02856*
X06315*
Y02875*
G37*
G36*
X0612Y02913D02*
X06099Y02905D01*
X06094Y02892*
X05945*
X0594Y02889*
X05832Y02782*
X05612*
X0561Y02785*
X056Y0279*
X05589Y02785*
X05584Y02775*
X05589Y02764*
X056Y02759*
X0561Y02764*
X05612Y02767*
X05835*
X0584Y0277*
X05948Y02877*
X06094*
X06099Y02864*
X0612Y02856*
X0614Y02864*
X06148Y02885*
X0614Y02905*
X0612Y02913*
G37*
G36*
X05886Y02865D02*
X0587D01*
Y0285*
X05886*
Y02865*
G37*
G36*
X0586D02*
X05843D01*
Y0285*
X0586*
Y02865*
G37*
G36*
X04369Y0287D02*
X0434D01*
Y0284*
X0436Y02849*
X04369Y0287*
G37*
G36*
X0433D02*
X043D01*
X04309Y02849*
X0433Y0284*
Y0287*
G37*
G36*
X06355Y02846D02*
X06325D01*
Y02827*
X06355*
Y02846*
G37*
G36*
X06315D02*
X06284D01*
Y02827*
X06315*
Y02846*
G37*
G36*
X06512Y02854D02*
Y02822D01*
X06502*
Y02854*
X0649Y02849*
X06487Y02841*
X06482*
X06481Y02843*
X0647Y02848*
X06458Y02843*
X06454Y02832*
Y02812*
X06458Y02801*
X06458Y02801*
Y02759*
X06457Y02755*
X06459Y02748*
X06465Y02746*
X06535*
X06811Y0247*
Y01678*
X06806Y01673*
X0648*
X06473Y01671*
X0637Y01568*
X06368Y01561*
Y01406*
X06367Y01406*
X06353*
Y01293*
X06406*
Y01406*
X06386*
X06385Y01406*
Y01558*
X06483Y01656*
X0681*
X06816Y01658*
X06826Y01668*
X06828Y01675*
Y02474*
X06826Y0248*
X06551Y02755*
X06553Y0276*
Y02797*
X06559*
Y02816*
X06726*
Y02803*
X06783*
Y02836*
X06726*
Y02833*
X06559*
Y02847*
X0653*
X06525Y02846*
X06524Y02849*
X06512Y02854*
G37*
G36*
X04361Y03101D02*
X04308D01*
Y03048*
X04349*
X04565Y02832*
X04564Y0283*
X04569Y02819*
X0458Y02814*
X0459Y02819*
X04595Y0283*
X0459Y0284*
X0458Y02845*
X04577Y02844*
X04361Y0306*
Y03101*
G37*
G36*
X06125Y02819D02*
Y0279D01*
X06154*
X06145Y0281*
X06125Y02819*
G37*
G36*
X06115D02*
X06094Y0281D01*
X06085Y0279*
X06115*
Y02819*
G37*
G36*
X0679Y02796D02*
X0676D01*
Y02777*
X0679*
Y02796*
G37*
G36*
X0675D02*
X06719D01*
Y02777*
X0675*
Y02796*
G37*
G36*
X0298Y02833D02*
X02959Y02825D01*
X02951Y02805*
X02959Y02784*
X0298Y02776*
X03Y02784*
X03008Y02805*
X03Y02825*
X0298Y02833*
G37*
G36*
X0288D02*
X02859Y02825D01*
X02851Y02805*
X02859Y02784*
X0288Y02776*
X029Y02784*
X02908Y02805*
X029Y02825*
X0288Y02833*
G37*
G36*
X06154Y0278D02*
X06125D01*
Y0275*
X06145Y02759*
X06154Y0278*
G37*
G36*
X06115D02*
X06085D01*
X06094Y02759*
X06115Y0275*
Y0278*
G37*
G36*
X0679Y02767D02*
X0676D01*
Y02748*
X0679*
Y02767*
G37*
G36*
X0675D02*
X06719D01*
Y02748*
X0675*
Y02767*
G37*
G36*
X05441Y02895D02*
X05409Y02882D01*
X05395Y0285*
X05409Y02817*
X05409Y02814*
X05376Y02781*
X05374Y02776*
Y02754*
X05354Y02734*
X05349Y02736*
X05345Y02745*
X05342Y02747*
Y02807*
X05385*
Y02892*
X053*
Y02807*
X05327*
Y02747*
X05324Y02745*
X05319Y02735*
X05324Y02724*
X05333Y0272*
X05335Y02715*
X05285Y02665*
X05263*
X05258Y02663*
X05202Y02607*
X05044*
X05041Y02612*
X05124Y02695*
X05127Y027*
X05124Y02704*
X0512Y02707*
X05115Y02704*
X04945Y02534*
X04942Y0253*
Y02302*
X04939Y023*
X04934Y0229*
X04939Y02279*
X0495Y02274*
X0496Y02279*
X04965Y0229*
X0496Y023*
X04957Y02302*
Y02527*
X04972Y02543*
X04977Y0254*
Y02522*
X04974Y0252*
X04969Y0251*
X04974Y02499*
X04985Y02494*
X04995Y02499*
X05Y0251*
X04995Y0252*
X04992Y02522*
Y02542*
X05042Y02592*
X05205*
X05209Y02595*
X05266Y02651*
X05288*
X05293Y02653*
X05304Y02664*
X05309Y02662*
X05297Y02633*
X0531Y02601*
X05343Y02587*
X05375Y02601*
X05389Y02633*
X05375Y02665*
X05343Y02679*
X05314Y02667*
X05311Y02671*
X05386Y02746*
X05388Y02751*
Y02773*
X05425Y0281*
X05441Y02804*
X05474Y02817*
X05487Y0285*
X05474Y02882*
X05441Y02895*
G37*
G36*
X04335Y03003D02*
X04314Y02995D01*
X04306Y02975*
X04314Y02954*
X04335Y02946*
X04346Y02951*
X04524Y02773*
Y02755*
X04522Y02754*
X04517Y02743*
X04522Y02733*
X04532Y02728*
X04543Y02733*
X04547Y02743*
X04543Y02754*
X04541Y02755*
Y02777*
X04538Y02783*
X04358Y02963*
X04363Y02975*
X04355Y02995*
X04335Y03003*
G37*
G36*
X05441Y02679D02*
X05409Y02665D01*
X05395Y02633*
X05405Y0261*
X05177Y02382*
X05127*
X05125Y02385*
X05115Y0239*
X05104Y02385*
X05099Y02375*
X05104Y02364*
X05115Y02359*
X05125Y02364*
X05127Y02367*
X0518*
X05184Y0237*
X05413Y02599*
X05441Y02587*
X05474Y02601*
X05487Y02633*
X05474Y02665*
X05441Y02679*
G37*
G36*
X04395Y02311D02*
X04365D01*
Y02292*
X04395*
Y02311*
G37*
G36*
X04355D02*
X04324D01*
Y02292*
X04355*
Y02311*
G37*
G36*
X0451Y02308D02*
X0448D01*
Y0229*
X0451*
Y02308*
G37*
G36*
X0447D02*
X04439D01*
Y0229*
X0447*
Y02308*
G37*
G36*
X0486Y0264D02*
X04849Y02635D01*
X04844Y02625*
X04849Y02614*
X0486Y02609*
X04863Y02611*
X049Y02574*
Y02304*
X04896Y02303*
X04892Y02292*
X04896Y02281*
X04907Y02277*
X04918Y02281*
X04922Y02292*
X04918Y02303*
X04914Y02304*
Y02577*
X04912Y02582*
X04873Y02621*
X04875Y02625*
X0487Y02635*
X0486Y0264*
G37*
G36*
X04395Y02282D02*
X04365D01*
Y02263*
X04395*
Y02282*
G37*
G36*
X04355D02*
X04324D01*
Y02263*
X04355*
Y02282*
G37*
G36*
X0451Y0228D02*
X0448D01*
Y02261*
X0451*
Y0228*
G37*
G36*
X0447D02*
X04439D01*
Y02261*
X0447*
Y0228*
G37*
G36*
X06575Y02318D02*
X06554Y0231D01*
X06546Y0229*
X06554Y02269*
X06575Y02261*
X06595Y02269*
X06603Y0229*
X06595Y0231*
X06575Y02318*
G37*
G36*
X06475D02*
X06454Y0231D01*
X06446Y0229*
X06454Y02269*
X06475Y02261*
X06495Y02269*
X06503Y0229*
X06495Y0231*
X06475Y02318*
G37*
G36*
X04977Y02222D02*
X04966Y02218D01*
X04962Y02207*
X04963Y02203*
X04935Y02174*
X04932Y0217*
Y0207*
X04897*
Y01985*
X04972*
X05053Y01905*
X05058Y01902*
X05094*
X05099Y01905*
X05104Y0191*
X05107Y01915*
Y01964*
X05128*
Y01998*
X05071*
Y01964*
X05092*
Y01918*
X05091Y01917*
X05061*
X04982Y01995*
Y0207*
X04947*
Y02167*
X04973Y02193*
X04977Y02192*
X04988Y02196*
X04992Y02207*
X04988Y02218*
X04977Y02222*
G37*
G36*
X052Y02201D02*
X0517D01*
Y02182*
X052*
Y02201*
G37*
G36*
X0516D02*
X05129D01*
Y02182*
X0516*
Y02201*
G37*
G36*
X05355Y022D02*
X05325D01*
Y02181*
X05355*
Y022*
G37*
G36*
X05315D02*
X05284D01*
Y02181*
X05315*
Y022*
G37*
G36*
X06575Y02218D02*
X06554Y0221D01*
X06546Y0219*
X06554Y02169*
X06575Y02161*
X06595Y02169*
X06603Y0219*
X06595Y0221*
X06575Y02218*
G37*
G36*
X06475D02*
X06454Y0221D01*
X06446Y0219*
X06454Y02169*
X06475Y02161*
X06495Y02169*
X06503Y0219*
X06495Y0221*
X06475Y02218*
G37*
G36*
X052Y02172D02*
X0517D01*
Y02153*
X052*
Y02172*
G37*
G36*
X0516D02*
X05129D01*
Y02153*
X0516*
Y02172*
G37*
G36*
X05355Y02171D02*
X05325D01*
Y02152*
X05355*
Y02171*
G37*
G36*
X05315D02*
X05284D01*
Y02152*
X05315*
Y02171*
G37*
G36*
X0453Y02122D02*
X04523Y02119D01*
X04521Y02117*
X04518Y02111*
X04521Y02105*
X04527Y02102*
X04533Y02105*
X04536Y02107*
X04538Y02113*
X04536Y02119*
X0453Y02122*
G37*
G36*
X04407Y02119D02*
X04401Y02117D01*
X04398Y02114*
X04396Y02108*
X04398Y02102*
X04405Y02099*
X04411Y02102*
X04413Y02105*
X04416Y02111*
X04413Y02117*
X04407Y02119*
G37*
G36*
X06575Y02118D02*
X06554Y0211D01*
X06546Y0209*
X06554Y02069*
X06575Y02061*
X06595Y02069*
X06603Y0209*
X06595Y0211*
X06575Y02118*
G37*
G36*
X06475D02*
X06454Y0211D01*
X06446Y0209*
X06454Y02069*
X06475Y02061*
X06495Y02069*
X06503Y0209*
X06495Y0211*
X06475Y02118*
G37*
G36*
Y02018D02*
X06454Y0201D01*
X06446Y0199*
X06454Y01969*
X06475Y01961*
X06495Y01969*
X06503Y0199*
X06495Y0201*
X06475Y02018*
G37*
G36*
X02906Y01941D02*
X02853D01*
Y01888*
X02906*
Y01941*
G37*
G36*
X0298Y01943D02*
X02959Y01935D01*
X02951Y01915*
X02959Y01894*
X0298Y01886*
X03Y01894*
X03008Y01915*
X03Y01935*
X0298Y01943*
G37*
G36*
X06601Y02016D02*
X06548D01*
Y01972*
X06547Y01971*
Y01947*
X06447Y01847*
X06304*
X06297Y01862*
X06275Y01872*
X06252Y01862*
X06242Y0184*
X06252Y01817*
X06275Y01807*
X06297Y01817*
X06304Y01832*
X0645*
X06454Y01835*
X06558Y01938*
X06562Y0194*
X06565Y01946*
Y01963*
X06601*
Y02016*
G37*
G36*
X04989Y01841D02*
X04945D01*
Y01796*
X04989*
Y01841*
G37*
G36*
X04935D02*
X0489D01*
Y01796*
X04935*
Y01841*
G37*
G36*
X0298Y01843D02*
X02959Y01835D01*
X02951Y01815*
X02959Y01794*
X0298Y01786*
X03Y01794*
X03008Y01815*
X03Y01835*
X0298Y01843*
G37*
G36*
X0288D02*
X02859Y01835D01*
X02851Y01815*
X02859Y01794*
X0288Y01786*
X029Y01794*
X02908Y01815*
X029Y01835*
X0288Y01843*
G37*
G36*
X04989Y01786D02*
X04945D01*
Y01742*
X04989*
Y01786*
G37*
G36*
X04935D02*
X0489D01*
Y01742*
X04935*
Y01786*
G37*
G36*
X0298Y01743D02*
X02959Y01735D01*
X02951Y01715*
X02959Y01694*
X0298Y01686*
X03Y01694*
X03008Y01715*
X03Y01735*
X0298Y01743*
G37*
G36*
X0288D02*
X02859Y01735D01*
X02851Y01715*
X02859Y01694*
X0288Y01686*
X029Y01694*
X02908Y01715*
X029Y01735*
X0288Y01743*
G37*
G36*
X0298Y01643D02*
X02959Y01635D01*
X02951Y01615*
X02959Y01594*
X0298Y01586*
X03Y01594*
X03008Y01615*
X03Y01635*
X0298Y01643*
G37*
G36*
X0288D02*
X02859Y01635D01*
X02851Y01615*
X02859Y01594*
X0288Y01586*
X029Y01594*
X02908Y01615*
X029Y01635*
X0288Y01643*
G37*
G36*
X06661Y01413D02*
X06633D01*
Y01355*
X06661*
Y01413*
G37*
G36*
X06623D02*
X06594D01*
Y01355*
X06623*
Y01413*
G37*
G36*
X06661Y01345D02*
X06633D01*
Y01286*
X06661*
Y01345*
G37*
G36*
X06623D02*
X06594D01*
Y01286*
X06623*
Y01345*
G37*
G36*
X06554Y01195D02*
X06441D01*
Y01142*
X06554*
Y01195*
G37*
G36*
X05061Y00821D02*
X05008D01*
Y00768*
X05061*
Y00821*
G37*
G36*
X04935Y00823D02*
X04914Y00815D01*
X04906Y00795*
X04914Y00774*
X04935Y00766*
X04955Y00774*
X04963Y00795*
X04955Y00815*
X04935Y00823*
G37*
G36*
X04835D02*
X04814Y00815D01*
X04806Y00795*
X04814Y00774*
X04835Y00766*
X04855Y00774*
X04863Y00795*
X04855Y00815*
X04835Y00823*
G37*
G36*
X04735D02*
X04714Y00815D01*
X04706Y00795*
X04714Y00774*
X04735Y00766*
X04755Y00774*
X04763Y00795*
X04755Y00815*
X04735Y00823*
G37*
G36*
X0518Y01017D02*
X05157Y01007D01*
X05147Y00985*
X05157Y00962*
X05172Y00955*
Y00842*
X05048Y00718*
X05035Y00723*
X05014Y00715*
X05006Y00695*
X05014Y00674*
X05035Y00666*
X05055Y00674*
X05063Y00695*
X05058Y00708*
X05184Y00835*
X05187Y0084*
Y00955*
X05202Y00962*
X05212Y00985*
X05202Y01007*
X0518Y01017*
G37*
G36*
X04935Y00723D02*
X04914Y00715D01*
X04906Y00695*
X04914Y00674*
X04935Y00666*
X04955Y00674*
X04963Y00695*
X04955Y00715*
X04935Y00723*
G37*
G36*
X04835D02*
X04814Y00715D01*
X04806Y00695*
X04814Y00674*
X04835Y00666*
X04855Y00674*
X04863Y00695*
X04855Y00715*
X04835Y00723*
G37*
G36*
X04735D02*
X04714Y00715D01*
X04706Y00695*
X04714Y00674*
X04735Y00666*
X04755Y00674*
X04763Y00695*
X04755Y00715*
X04735Y00723*
G37*
%LNpcb1-3*%
%LPD*%
G54D12*
X04335Y03075D02*
X0458Y0283D01*
X04892Y03767D02*
X05192D01*
X04225Y0377D02*
X0455D01*
X03655D02*
X04225D01*
X03477Y04136D02*
X0348Y04133D01*
X03302Y04136D02*
X03477D01*
X033Y04138D02*
X03302Y04136D01*
X0447Y0233D02*
X045Y0236D01*
X0437Y0233D02*
X0447D01*
X04787Y03018D02*
X04795Y03011D01*
X05335Y02841D02*
X05343Y0285D01*
X05465Y03085D02*
X0612D01*
X05205Y02825D02*
X05465Y03085D01*
X0612D02*
X0621Y02995D01*
X06495D02*
X0655Y02939D01*
X0621Y02995D02*
X06495D01*
X06587Y03166D02*
X0659Y03163D01*
X0646Y03168D02*
X06462Y03166D01*
X0282Y04036D02*
X03123D01*
X03633Y0377D02*
X03655D01*
X03311Y04091D02*
X03633Y0377D01*
X033Y04091D02*
X03311D01*
X03527Y03082D02*
Y03447D01*
X03525Y02445D02*
Y0308D01*
X044Y01215D02*
X04695D01*
X0353Y01025D02*
Y01195D01*
X03123Y04036D02*
X03177Y04091D01*
X033*
X0655Y02939D02*
X0659Y02979D01*
X06545Y02934D02*
X0655Y02939D01*
X06547Y02825D02*
X06755D01*
X06539Y02755D02*
X0682Y02474D01*
Y01675D02*
Y02474D01*
X0681Y01665D02*
X0682Y01675D01*
X0648Y01665D02*
X0681D01*
X06376Y01561D02*
X0648Y01665D01*
X06376Y01395D02*
Y01561D01*
X0659Y02979D02*
Y03116D01*
X06467Y02755D02*
X06539D01*
X06465D02*
X06467D01*
Y0282*
X0647Y02822*
X06539Y02755D02*
X06545Y0276D01*
Y02822*
X06547Y02825*
X06376Y01395D02*
X06381Y0139D01*
X0514Y02327D02*
Y0233D01*
Y02327D02*
X05144Y02323D01*
Y02233D02*
Y02323D01*
Y02233D02*
X05153Y02225D01*
X05165*
X05319Y02224D02*
X0532Y02223D01*
X05165Y02224D02*
X05319D01*
X05165Y02225D02*
X05165Y02224D01*
X0505Y0224D02*
X0514Y0233D01*
X0483Y0224D02*
X0505D01*
X04795Y02275D02*
X0483Y0224D01*
X04795Y02275D02*
D01*
X04709Y0236D02*
X04795Y02275D01*
X0457Y025D02*
X04709Y0236D01*
X0457Y025D02*
Y02685D01*
X0467Y02785*
X0436Y02335D02*
X04371D01*
X045Y0236D02*
X04709D01*
X04335Y02975D02*
X04532Y02777D01*
Y02743D02*
Y02777D01*
X0485Y02965D02*
X05065D01*
X05205Y02825*
X04795Y0291D02*
X0485Y02965D01*
X0467Y02785D02*
X04795Y0291D01*
Y03011*
X04667Y03018D02*
X04787D01*
X04665Y03021D02*
X04667Y03018D01*
X04527Y02111D02*
X0453Y02113D01*
X04405Y02108D02*
X04407Y02111D01*
X06055Y0249D02*
X06057Y02487D01*
Y02247D02*
Y02487D01*
Y02247D02*
X0606Y02245D01*
X06185Y03733D02*
X06188Y03736D01*
X06506*
X0651Y0374*
X06055Y0137D02*
Y0171D01*
X059Y01215D02*
X06055Y0137D01*
X05305Y01215D02*
X059D01*
X04225D02*
X044D01*
X04155Y01145D02*
X04225Y01215D01*
X04155Y00995D02*
Y01145D01*
X04095Y00935D02*
X04155Y00995D01*
X0362Y00935D02*
X04095D01*
X0353Y01025D02*
X0362Y00935D01*
X03525Y03455D02*
Y0364D01*
Y03455D02*
X0353Y0345D01*
X03525Y0364D02*
X03655Y0377D01*
X05302Y01217D02*
X05305Y01215D01*
X05007Y01217D02*
X05302D01*
X05005Y0122D02*
X05007Y01217D01*
X05002D02*
X05005Y0122D01*
X04697Y01217D02*
X05002D01*
X04695Y01215D02*
X04697Y01217D01*
X06556Y01946D02*
Y01971D01*
X06575Y0199*
X06055Y01965D02*
X06057Y01967D01*
Y02242*
X0606Y02245*
X06055Y0171D02*
Y01965D01*
X06335Y03965D02*
Y04245D01*
X06255Y04325D02*
X06335Y04245D01*
X06045Y04325D02*
X06255D01*
X06179Y03739D02*
X06185Y03733D01*
X05875Y03739D02*
X06179D01*
X0587Y03745D02*
X05875Y03739D01*
X05867Y03747D02*
X0587Y03745D01*
X05557Y03747D02*
X05867D01*
X05555Y0375D02*
X05557Y03747D01*
X05548Y0375D02*
X05555D01*
X05523Y03775D02*
X05548Y0375D01*
X052Y03775D02*
X05523D01*
X04805Y0436D02*
X05065Y041D01*
Y039D02*
Y041D01*
X05192Y03767D02*
X052Y03775D01*
X04885Y0376D02*
X04892Y03767D01*
X0488Y03765D02*
X04885Y0376D01*
X04555Y03765D02*
X0488D01*
X0455Y0377D02*
X04555Y03765D01*
X03522Y01197D02*
Y01492D01*
X03523Y01498D02*
Y01796D01*
X03522Y01802D02*
Y02117D01*
Y02122D02*
Y02442D01*
X03527Y03447D02*
X0353Y0345D01*
G54D13*
X0436Y02287D03*
Y02335D03*
X04475Y02285D03*
Y02332D03*
X051Y01981D03*
Y02028D03*
X05165Y02177D03*
Y02225D03*
X0348Y04086D03*
Y04133D03*
X033Y04091D03*
Y04138D03*
X0646Y03121D03*
Y03168D03*
X06755Y0282D03*
Y02772D03*
X0632Y02851D03*
Y02898D03*
X0659Y03163D03*
Y03116D03*
X0466Y03026D03*
Y03073D03*
X0481Y03022D03*
Y0307D03*
X0532Y02223D03*
Y02176D03*
G54D22*
X0588Y02995D03*
X05865Y0287D03*
G54D45*
X0494Y0217D02*
X04977Y02207D01*
X0494Y02028D02*
Y0217D01*
X05094Y0191D02*
X051Y01915D01*
Y01981*
X05058Y0191D02*
X05094D01*
X0494Y02028D02*
X05058Y0191D01*
X051Y02189D02*
X05144Y02233D01*
X051Y02028D02*
Y02189D01*
X05712Y03022D02*
X0578D01*
X0554Y0285D02*
X05712Y03022D01*
X05381Y02776D02*
X0544Y02835D01*
X05381Y02751D02*
Y02776D01*
X05205Y026D02*
X05263Y02658D01*
X05288*
X05335Y02735D02*
Y02841D01*
X0585Y029D02*
X05865D01*
X0578Y0283D02*
X0585Y029D01*
X056Y02775D02*
X05835D01*
X056Y0283D02*
X0578D01*
X0554Y0277D02*
X056Y0283D01*
X0554Y02633D02*
Y0277D01*
X05835Y02775D02*
X05945Y02885D01*
X05288Y02658D02*
X05381Y02751D01*
X0504Y026D02*
X05205D01*
X05945Y02885D02*
X0612D01*
X04907Y02292D02*
Y02577D01*
X0486Y02625D02*
X04907Y02577D01*
X06462Y03166D02*
X06587D01*
X06449Y02898D02*
X06463Y02912D01*
X0632Y02898D02*
X06449D01*
X0518Y02375D02*
X05432Y02627D01*
X05115Y02375D02*
X0518D01*
X04985Y02545D02*
X0504Y026D01*
X04985Y0251D02*
Y02545D01*
X0495Y0253D02*
X0512Y027D01*
X0495Y0229D02*
Y0253D01*
X05035Y00695D02*
X0518Y0084D01*
Y00985*
X0645Y0184D02*
X06556Y01946D01*
X06275Y0184D02*
X0645D01*
X0288Y03105D02*
Y0327D01*
X02895Y03285*
X03185*
G54D46*
X0612Y03085D03*
X04335Y03075D03*
X06575Y0199D03*
X0288Y01915D03*
Y03105D03*
G54D47*
X0612Y02985D03*
Y02885D03*
Y02785D03*
X0578Y0283D03*
X05745Y04225D03*
X05845D03*
X05945D03*
X06045D03*
X05745Y04325D03*
X05845D03*
X05945D03*
X04335Y02975D03*
Y02875D03*
X06475Y0229D03*
Y0219D03*
Y0209D03*
Y0199D03*
X06575Y0229D03*
Y0219D03*
Y0209D03*
X04935Y00795D03*
X04835D03*
X04735D03*
X05035Y00695D03*
X04935D03*
X04835D03*
X04735D03*
X0288Y01815D03*
Y01715D03*
Y01615D03*
X0298Y01915D03*
Y01815D03*
Y01715D03*
Y01615D03*
X0288Y03005D03*
Y02905D03*
Y02805D03*
X0298Y03105D03*
Y03005D03*
Y02905D03*
Y02805D03*
X04705Y0436D03*
X04605D03*
X04505D03*
X04805Y0426D03*
X04705D03*
X04605D03*
X04505D03*
G54D48*
X0494Y02028D03*
Y01791D03*
X05343Y0285D03*
G54D49*
X05441Y0285D03*
X0554D03*
X05343Y02633D03*
X05441D03*
X0554D03*
G54D50*
X0264Y04595D03*
X0696Y04605D03*
Y00475D03*
X0265Y00485D03*
G54D51*
X06905Y03155D03*
G54D52*
X06905Y03255D03*
Y03355D03*
G54D53*
X02795Y04279D03*
Y04031D03*
X06498Y01168D03*
G54D54*
X02976Y04149D03*
X06628Y0135D03*
X0638D03*
G54D55*
X0578Y03022D03*
X06045Y04325D03*
X05035Y00795D03*
X04805Y0436D03*
G54D56*
X0458Y0283D03*
X04977Y02207D03*
X05335Y02735D03*
X05985Y03022D03*
X056Y02775D03*
X0486Y02625D03*
X06381Y0139D03*
X06376Y01395D03*
X05115Y02375D03*
X04985Y0251D03*
X0495Y0229D03*
X04907Y02292D03*
X0514Y0233D03*
X04709Y0236D03*
X0467Y02785D03*
X04795Y0291D03*
X05205Y02825D03*
X04532Y02743D03*
G54D57*
X0353Y02445D03*
X0518Y00985D03*
X044Y01215D03*
X04695Y01207D03*
X05305Y01215D03*
X05005Y0122D03*
X06275Y0184D03*
X06055Y0171D03*
Y01965D03*
X0606Y02245D03*
X06055Y0249D03*
X06335Y03965D03*
X0651Y0374D03*
X06185Y03733D03*
X0587Y03745D03*
X05555Y0375D03*
X05065Y039D03*
X052Y03775D03*
X04885Y0376D03*
X0455Y0377D03*
X04225D03*
X0354Y0119D03*
X0353Y01495D03*
Y018D03*
Y0212D03*
Y02775D03*
X03185Y03285D03*
X0353Y0309D03*
Y0345D03*
G54D58*
X0647Y02925D03*
X06545D03*
X0647Y02822D03*
X06507D03*
G54D59*
X06545Y02822D03*
M02*