G04*
G04 #@! TF.GenerationSoftware,Altium Limited,Altium Designer,19.1.5 (86)*
G04*
G04 Layer_Color=255*
%FSLAX25Y25*%
%MOIN*%
G70*
G01*
G75*
%ADD13R,0.05118X0.02756*%
%ADD14R,0.02756X0.05118*%
%ADD15R,0.02362X0.06102*%
%ADD16O,0.02362X0.06102*%
%ADD17R,0.06102X0.02362*%
%ADD18O,0.06102X0.02362*%
G04:AMPARAMS|DCode=19|XSize=9.84mil|YSize=61.02mil|CornerRadius=0mil|HoleSize=0mil|Usage=FLASHONLY|Rotation=225.000|XOffset=0mil|YOffset=0mil|HoleType=Round|Shape=Rectangle|*
%AMROTATEDRECTD19*
4,1,4,-0.01810,0.02506,0.02506,-0.01810,0.01810,-0.02506,-0.02506,0.01810,-0.01810,0.02506,0.0*
%
%ADD19ROTATEDRECTD19*%

G04:AMPARAMS|DCode=20|XSize=9.84mil|YSize=61.02mil|CornerRadius=0mil|HoleSize=0mil|Usage=FLASHONLY|Rotation=135.000|XOffset=0mil|YOffset=0mil|HoleType=Round|Shape=Rectangle|*
%AMROTATEDRECTD20*
4,1,4,0.02506,0.01810,-0.01810,-0.02506,-0.02506,-0.01810,0.01810,0.02506,0.02506,0.01810,0.0*
%
%ADD20ROTATEDRECTD20*%

G04:AMPARAMS|DCode=21|XSize=9.84mil|YSize=61.02mil|CornerRadius=0mil|HoleSize=0mil|Usage=FLASHONLY|Rotation=135.000|XOffset=0mil|YOffset=0mil|HoleType=Round|Shape=Round|*
%AMOVALD21*
21,1,0.05118,0.00984,0.00000,0.00000,225.0*
1,1,0.00984,0.01810,0.01810*
1,1,0.00984,-0.01810,-0.01810*
%
%ADD21OVALD21*%

%ADD22R,0.02362X0.01968*%
%ADD46R,0.05906X0.05906*%
%ADD47C,0.05906*%
%ADD48C,0.07874*%
%ADD49R,0.07874X0.07874*%
%ADD50R,0.10630X0.04724*%
%ADD51R,0.04724X0.10630*%
%ADD52R,0.04724X0.04724*%
%ADD53C,0.04724*%
%ADD54R,0.04724X0.04724*%
D13*
X159306Y383138D02*
D03*
Y387862D02*
D03*
X263806Y114362D02*
D03*
Y109638D02*
D03*
X118806Y382138D02*
D03*
Y386862D02*
D03*
X185306Y383138D02*
D03*
Y387862D02*
D03*
X216305Y382138D02*
D03*
Y386862D02*
D03*
X196306Y383638D02*
D03*
Y388362D02*
D03*
X293305Y383638D02*
D03*
Y388362D02*
D03*
X249306Y383138D02*
D03*
Y387862D02*
D03*
X261305Y383138D02*
D03*
Y387862D02*
D03*
X227805Y382138D02*
D03*
Y386862D02*
D03*
X53806Y381638D02*
D03*
Y386362D02*
D03*
X281805Y384138D02*
D03*
Y388862D02*
D03*
X65306Y381138D02*
D03*
Y385862D02*
D03*
X130306Y382138D02*
D03*
Y386862D02*
D03*
X148805Y382638D02*
D03*
Y387362D02*
D03*
X98305Y381638D02*
D03*
Y386362D02*
D03*
X86805Y381638D02*
D03*
Y386362D02*
D03*
X276306Y114862D02*
D03*
Y110138D02*
D03*
X245305Y115000D02*
D03*
Y110276D02*
D03*
X215305Y116000D02*
D03*
Y111276D02*
D03*
X185306Y114862D02*
D03*
Y110138D02*
D03*
X232805Y115000D02*
D03*
Y110276D02*
D03*
X202306Y115862D02*
D03*
Y111138D02*
D03*
X174305Y115500D02*
D03*
Y110776D02*
D03*
D14*
X96668Y243000D02*
D03*
X91943D02*
D03*
X96530Y254500D02*
D03*
X91805D02*
D03*
X367806Y114000D02*
D03*
X372530D02*
D03*
X96806Y219500D02*
D03*
X92081D02*
D03*
X97168Y230500D02*
D03*
X92443D02*
D03*
X96668Y192000D02*
D03*
X91943D02*
D03*
X96806Y203000D02*
D03*
X92081D02*
D03*
X368081Y184000D02*
D03*
X372806D02*
D03*
X367081Y206000D02*
D03*
X371806D02*
D03*
X367081Y216000D02*
D03*
X371806D02*
D03*
X367219Y144500D02*
D03*
X371943D02*
D03*
X367719Y174000D02*
D03*
X372443D02*
D03*
X366443Y239000D02*
D03*
X371168D02*
D03*
X366943Y283000D02*
D03*
X371668D02*
D03*
X366943Y312000D02*
D03*
X371668D02*
D03*
X367806Y124500D02*
D03*
X372530D02*
D03*
X367081Y155500D02*
D03*
X371806D02*
D03*
X366443Y249500D02*
D03*
X371168D02*
D03*
X366943Y272500D02*
D03*
X371668D02*
D03*
X366943Y303000D02*
D03*
X371668D02*
D03*
X367305Y339500D02*
D03*
X372030D02*
D03*
X367305Y350000D02*
D03*
X372030D02*
D03*
X96668Y178276D02*
D03*
X91943D02*
D03*
X96668Y166500D02*
D03*
X91943D02*
D03*
D15*
X69806Y342740D02*
D03*
X169806Y153000D02*
D03*
X199805D02*
D03*
X230805D02*
D03*
X260306D02*
D03*
X232306Y342740D02*
D03*
X200805D02*
D03*
X163805D02*
D03*
X134306D02*
D03*
X297806D02*
D03*
X265806D02*
D03*
X101305D02*
D03*
D16*
X64806D02*
D03*
X59806D02*
D03*
X54805D02*
D03*
X69806Y364000D02*
D03*
X64806D02*
D03*
X59806D02*
D03*
X54805D02*
D03*
X174805Y153000D02*
D03*
X179806D02*
D03*
X184806D02*
D03*
X169806Y131740D02*
D03*
X174805D02*
D03*
X179806D02*
D03*
X184806D02*
D03*
X204805Y153000D02*
D03*
X209805D02*
D03*
X214806D02*
D03*
X199805Y131740D02*
D03*
X204805D02*
D03*
X209805D02*
D03*
X214806D02*
D03*
X235806Y153000D02*
D03*
X240806D02*
D03*
X245806D02*
D03*
X230805Y131740D02*
D03*
X235806D02*
D03*
X240806D02*
D03*
X245806D02*
D03*
X265305Y153000D02*
D03*
X270305D02*
D03*
X275306D02*
D03*
X260306Y131740D02*
D03*
X265305D02*
D03*
X270305D02*
D03*
X275306D02*
D03*
X227306Y342740D02*
D03*
X222305D02*
D03*
X217305D02*
D03*
X232306Y364000D02*
D03*
X227306D02*
D03*
X222305D02*
D03*
X217305D02*
D03*
X195806Y342740D02*
D03*
X190805D02*
D03*
X185805D02*
D03*
X200805Y364000D02*
D03*
X195806D02*
D03*
X190805D02*
D03*
X185805D02*
D03*
X158806Y342740D02*
D03*
X153805D02*
D03*
X148805D02*
D03*
X163805Y364000D02*
D03*
X158806D02*
D03*
X153805D02*
D03*
X148805D02*
D03*
X129306Y342740D02*
D03*
X124305D02*
D03*
X119306D02*
D03*
X134306Y364000D02*
D03*
X129306D02*
D03*
X124305D02*
D03*
X119306D02*
D03*
X292806Y342740D02*
D03*
X287806D02*
D03*
X282805D02*
D03*
X297806Y364000D02*
D03*
X292806D02*
D03*
X287806D02*
D03*
X282805D02*
D03*
X260806Y342740D02*
D03*
X255805D02*
D03*
X250805D02*
D03*
X265806Y364000D02*
D03*
X260806D02*
D03*
X255805D02*
D03*
X250805D02*
D03*
X96306Y342740D02*
D03*
X91306D02*
D03*
X86305D02*
D03*
X101305Y364000D02*
D03*
X96306D02*
D03*
X91306D02*
D03*
X86305D02*
D03*
D17*
X136565Y259500D02*
D03*
Y207000D02*
D03*
Y181000D02*
D03*
X325306Y109000D02*
D03*
Y139500D02*
D03*
Y169500D02*
D03*
Y201500D02*
D03*
Y234500D02*
D03*
Y268000D02*
D03*
Y298500D02*
D03*
Y335000D02*
D03*
X136565Y235000D02*
D03*
D18*
Y254500D02*
D03*
Y249500D02*
D03*
Y244500D02*
D03*
X115305Y259500D02*
D03*
Y254500D02*
D03*
Y249500D02*
D03*
Y244500D02*
D03*
X136565Y202000D02*
D03*
Y197000D02*
D03*
Y192000D02*
D03*
X115305Y207000D02*
D03*
Y202000D02*
D03*
Y197000D02*
D03*
Y192000D02*
D03*
X136565Y176000D02*
D03*
Y171000D02*
D03*
Y166000D02*
D03*
X115305Y181000D02*
D03*
Y176000D02*
D03*
Y171000D02*
D03*
Y166000D02*
D03*
X325306Y114000D02*
D03*
Y119000D02*
D03*
Y124000D02*
D03*
X346565Y109000D02*
D03*
Y114000D02*
D03*
Y119000D02*
D03*
Y124000D02*
D03*
X325306Y144500D02*
D03*
Y149500D02*
D03*
Y154500D02*
D03*
X346565Y139500D02*
D03*
Y144500D02*
D03*
Y149500D02*
D03*
Y154500D02*
D03*
X325306Y174500D02*
D03*
Y179500D02*
D03*
Y184500D02*
D03*
X346565Y169500D02*
D03*
Y174500D02*
D03*
Y179500D02*
D03*
Y184500D02*
D03*
X325306Y206500D02*
D03*
Y211500D02*
D03*
Y216500D02*
D03*
X346565Y201500D02*
D03*
Y206500D02*
D03*
Y211500D02*
D03*
Y216500D02*
D03*
X325306Y239500D02*
D03*
Y244500D02*
D03*
Y249500D02*
D03*
X346565Y234500D02*
D03*
Y239500D02*
D03*
Y244500D02*
D03*
Y249500D02*
D03*
X325306Y273000D02*
D03*
Y278000D02*
D03*
Y283000D02*
D03*
X346565Y268000D02*
D03*
Y273000D02*
D03*
Y278000D02*
D03*
Y283000D02*
D03*
X325306Y303500D02*
D03*
Y308500D02*
D03*
Y313500D02*
D03*
X346565Y298500D02*
D03*
Y303500D02*
D03*
Y308500D02*
D03*
Y313500D02*
D03*
X325306Y340000D02*
D03*
Y345000D02*
D03*
Y350000D02*
D03*
X346565Y335000D02*
D03*
Y340000D02*
D03*
Y345000D02*
D03*
Y350000D02*
D03*
X136565Y230000D02*
D03*
Y225000D02*
D03*
Y220000D02*
D03*
X115305Y235000D02*
D03*
Y230000D02*
D03*
Y225000D02*
D03*
Y220000D02*
D03*
D19*
X213049Y285744D02*
D03*
X211657Y284352D02*
D03*
X210265Y282960D02*
D03*
X208873Y281568D02*
D03*
X207481Y280176D02*
D03*
X206089Y278784D02*
D03*
X204697Y277392D02*
D03*
X203306Y276000D02*
D03*
X201914Y274608D02*
D03*
X200522Y273216D02*
D03*
X199130Y271824D02*
D03*
X197738Y270432D02*
D03*
X196346Y269040D02*
D03*
X194954Y267648D02*
D03*
X193562Y266256D02*
D03*
X192170Y264864D02*
D03*
X222681Y234353D02*
D03*
X224073Y235745D02*
D03*
X225465Y237137D02*
D03*
X226857Y238529D02*
D03*
X228249Y239921D02*
D03*
X229641Y241313D02*
D03*
X231033Y242705D02*
D03*
X232425Y244097D02*
D03*
X233817Y245489D02*
D03*
X235209Y246881D02*
D03*
X236601Y248273D02*
D03*
X237993Y249664D02*
D03*
X239385Y251056D02*
D03*
X240776Y252448D02*
D03*
X242168Y253840D02*
D03*
X243560Y255232D02*
D03*
D20*
X192170D02*
D03*
X193562Y253840D02*
D03*
X194954Y252448D02*
D03*
X196346Y251056D02*
D03*
X197738Y249664D02*
D03*
X199130Y248273D02*
D03*
X200522Y246881D02*
D03*
X201914Y245489D02*
D03*
X203306Y244097D02*
D03*
X204697Y242705D02*
D03*
X206089Y241313D02*
D03*
X207481Y239921D02*
D03*
X208873Y238529D02*
D03*
X210265Y237137D02*
D03*
X211657Y235745D02*
D03*
X213049Y234353D02*
D03*
X243560Y264864D02*
D03*
X242168Y266256D02*
D03*
X240776Y267648D02*
D03*
X239385Y269040D02*
D03*
X237993Y270432D02*
D03*
X236601Y271824D02*
D03*
X235209Y273216D02*
D03*
X233817Y274608D02*
D03*
X232425Y276000D02*
D03*
X231033Y277392D02*
D03*
X229641Y278784D02*
D03*
X228249Y280176D02*
D03*
X226857Y281568D02*
D03*
X225465Y282960D02*
D03*
X224073Y284352D02*
D03*
D21*
X222681Y285744D02*
D03*
D22*
X122306Y302500D02*
D03*
X123805Y290000D02*
D03*
D46*
X19805Y315500D02*
D03*
D47*
Y325500D02*
D03*
Y335500D02*
D03*
D48*
X156306Y263347D02*
D03*
X166148D02*
D03*
X175990D02*
D03*
X156306Y285000D02*
D03*
X166148D02*
D03*
D49*
X175990D02*
D03*
D50*
X430805Y427972D02*
D03*
Y403169D02*
D03*
X60495Y116890D02*
D03*
D51*
X412695Y414980D02*
D03*
X47502Y135000D02*
D03*
X72306D02*
D03*
D52*
X132306Y302291D02*
D03*
X105806Y432500D02*
D03*
X206805Y79500D02*
D03*
X229805Y436000D02*
D03*
D53*
X132306Y283000D02*
D03*
X135805Y422500D02*
D03*
X125805D02*
D03*
X115805D02*
D03*
X105806D02*
D03*
X135805Y432500D02*
D03*
X125805D02*
D03*
X115805D02*
D03*
X98305Y278500D02*
D03*
Y288500D02*
D03*
Y298500D02*
D03*
X276805Y297500D02*
D03*
Y287500D02*
D03*
X62805Y229000D02*
D03*
Y219000D02*
D03*
Y209000D02*
D03*
Y199000D02*
D03*
X52806Y229000D02*
D03*
Y219000D02*
D03*
Y209000D02*
D03*
X216806Y79500D02*
D03*
X226805D02*
D03*
X236806D02*
D03*
X206805Y69500D02*
D03*
X216806D02*
D03*
X226805D02*
D03*
X236806D02*
D03*
X422305Y181500D02*
D03*
Y171500D02*
D03*
Y161500D02*
D03*
X412305Y191500D02*
D03*
Y181500D02*
D03*
Y171500D02*
D03*
Y161500D02*
D03*
X422305Y300500D02*
D03*
Y290500D02*
D03*
Y280500D02*
D03*
X412305Y310500D02*
D03*
Y300500D02*
D03*
Y290500D02*
D03*
Y280500D02*
D03*
X239806Y436000D02*
D03*
X249805D02*
D03*
X259805D02*
D03*
X229805Y426000D02*
D03*
X239806D02*
D03*
X249805D02*
D03*
X259805D02*
D03*
D54*
X98305Y308500D02*
D03*
X276805Y307500D02*
D03*
X52806Y199000D02*
D03*
X422305Y191500D02*
D03*
Y310500D02*
D03*
M02*
