%TF.GenerationSoftware,Altium Limited,Altium Designer,19.1.5 (86)*%
G04 Layer_Color=16711935*
%FSLAX45Y45*%
%MOMM*%
%TF.FileFunction,Soldermask,Bot*%
%TF.Part,Single*%
G01*
G75*
%TA.AperFunction,SMDPad,CuDef*%
%ADD10R,1.50320X0.90320*%
%ADD11R,2.20320X2.20320*%
%ADD12O,0.80320X1.30320*%
%ADD13R,0.80320X1.30320*%
%ADD14R,0.80320X0.70320*%
%TA.AperFunction,ComponentPad*%
%ADD15R,1.70320X1.70320*%
%ADD16C,1.70320*%
%ADD17C,2.20320*%
%ADD18R,2.20320X2.20320*%
%ADD19R,2.90320X1.40320*%
%ADD20R,1.40320X2.90320*%
%ADD21R,1.40320X1.40320*%
%ADD22C,1.40320*%
%ADD23R,1.40320X1.40320*%
%TA.AperFunction,ViaPad*%
%ADD24C,0.66040*%
%ADD25C,1.47320*%
D10*
X12953999Y5152700D02*
D03*
Y5032700D02*
D03*
X8839200Y10379400D02*
D03*
Y10499400D02*
D03*
X8382000Y10392100D02*
D03*
Y10512100D02*
D03*
X16408400Y7928300D02*
D03*
Y8048300D02*
D03*
X17157700Y7162800D02*
D03*
Y7042800D02*
D03*
X16052800Y7242500D02*
D03*
Y7362500D02*
D03*
X16738600Y8035600D02*
D03*
Y7915600D02*
D03*
X11366500Y5923900D02*
D03*
Y5803900D02*
D03*
X11074400Y5930900D02*
D03*
Y5810900D02*
D03*
X11836400Y7687000D02*
D03*
Y7807000D02*
D03*
X12217400Y7677800D02*
D03*
Y7797800D02*
D03*
X13119099Y5651500D02*
D03*
Y5531500D02*
D03*
X13512801Y5648000D02*
D03*
Y5528000D02*
D03*
D11*
X12547600Y4551400D02*
D03*
Y5151400D02*
D03*
D12*
X16434300Y7429500D02*
D03*
X16624300D02*
D03*
X16434300Y7169500D02*
D03*
X16529300D02*
D03*
D13*
X16624300D02*
D03*
D14*
X14935201Y7607300D02*
D03*
X14897099Y7289800D02*
D03*
D15*
X17538699Y8013700D02*
D03*
D16*
Y8267700D02*
D03*
Y8521700D02*
D03*
D17*
X14071600Y6689000D02*
D03*
X13821600D02*
D03*
X13571600D02*
D03*
X14071600Y7239000D02*
D03*
X13821600D02*
D03*
D18*
X13571600D02*
D03*
D19*
X7099300Y10870500D02*
D03*
Y10240500D02*
D03*
X16505200Y2969000D02*
D03*
D20*
X7559300Y10540500D02*
D03*
X16835201Y3429000D02*
D03*
X16205200D02*
D03*
D21*
X14681200Y7678200D02*
D03*
X15354300Y10985500D02*
D03*
X12788900Y2019300D02*
D03*
X12204700Y11074400D02*
D03*
D22*
X14681200Y7188200D02*
D03*
X14592300Y10731500D02*
D03*
X14846300D02*
D03*
X15100301D02*
D03*
X15354300D02*
D03*
X14592300Y10985500D02*
D03*
X14846300D02*
D03*
X15100301D02*
D03*
X15544800Y7073900D02*
D03*
Y7327900D02*
D03*
Y7581900D02*
D03*
X11010900Y7556500D02*
D03*
Y7302500D02*
D03*
X16446500Y5816600D02*
D03*
Y5562600D02*
D03*
Y5308600D02*
D03*
Y5054600D02*
D03*
X16700500Y5816600D02*
D03*
Y5562600D02*
D03*
Y5308600D02*
D03*
X12534900Y2019300D02*
D03*
X12280900D02*
D03*
X12026900D02*
D03*
X12788900Y1765300D02*
D03*
X12534900D02*
D03*
X12280900D02*
D03*
X12026900D02*
D03*
X7315200Y4610100D02*
D03*
Y4356100D02*
D03*
Y4102100D02*
D03*
X7569200Y4864100D02*
D03*
Y4610100D02*
D03*
Y4356100D02*
D03*
Y4102100D02*
D03*
X7315200Y7632700D02*
D03*
Y7378700D02*
D03*
Y7124700D02*
D03*
X7569200Y7886700D02*
D03*
Y7632700D02*
D03*
Y7378700D02*
D03*
Y7124700D02*
D03*
X11950700Y11074400D02*
D03*
X11696700D02*
D03*
X11442700D02*
D03*
X12204700Y10820400D02*
D03*
X11950700D02*
D03*
X11696700D02*
D03*
X11442700D02*
D03*
D23*
X15544800Y7835900D02*
D03*
X11010900Y7810500D02*
D03*
X16700500Y5054600D02*
D03*
X7315200Y4864100D02*
D03*
Y7886700D02*
D03*
D24*
X12642850Y5607050D02*
D03*
X13550900Y6946900D02*
D03*
X15201900Y7678200D02*
D03*
X14224001Y7048500D02*
D03*
X12344400Y6667500D02*
D03*
X16210201Y3530600D02*
D03*
X16197501Y3543300D02*
D03*
X12992101Y6032500D02*
D03*
X12661900Y6375400D02*
D03*
X12573000Y5816600D02*
D03*
X12465050Y5822950D02*
D03*
X13055600Y5918200D02*
D03*
X11633200Y7188200D02*
D03*
X11961745Y5996055D02*
D03*
X11861800Y7073900D02*
D03*
X12179300Y7391400D02*
D03*
X13220700Y7175500D02*
D03*
X11513123Y6969555D02*
D03*
D25*
X8966200Y6210300D02*
D03*
X13157201Y2501900D02*
D03*
X11176000Y3086100D02*
D03*
X11925300Y3066800D02*
D03*
X13474699Y3086100D02*
D03*
X12712700Y3098800D02*
D03*
X15938499Y4673600D02*
D03*
X15379700Y4343400D02*
D03*
Y4991100D02*
D03*
X15392400Y5702300D02*
D03*
X15379700Y6324600D02*
D03*
X16090900Y10071100D02*
D03*
X16535400Y9499600D02*
D03*
X15709900Y9482300D02*
D03*
X14909801Y9512300D02*
D03*
X14109700Y9525000D02*
D03*
X12865100Y9906000D02*
D03*
X13208000Y9588500D02*
D03*
X12407900Y9550400D02*
D03*
X11557000Y9575800D02*
D03*
X10731500D02*
D03*
X8991600Y3022600D02*
D03*
X8966200Y3797300D02*
D03*
Y4572000D02*
D03*
Y5384800D02*
D03*
Y7048500D02*
D03*
X8089900Y8343900D02*
D03*
X8966200Y7848600D02*
D03*
Y8763000D02*
D03*
%TF.MD5,3d16cb2c2a4f5f070cc43d54495e4538*%
M02*
