G04*
G04 #@! TF.GenerationSoftware,Altium Limited,Altium Designer,19.1.5 (86)*
G04*
G04 Layer_Color=16711935*
%FSLAX25Y25*%
%MOIN*%
G70*
G01*
G75*
%ADD23R,0.05918X0.03556*%
%ADD32R,0.03162X0.02769*%
%ADD33R,0.06706X0.06706*%
%ADD34C,0.06706*%
%ADD35C,0.08674*%
%ADD36R,0.08674X0.08674*%
%ADD37R,0.11430X0.05524*%
%ADD38R,0.05524X0.11430*%
%ADD39R,0.05524X0.05524*%
%ADD40C,0.05524*%
%ADD41R,0.05524X0.05524*%
%ADD42C,0.12611*%
%ADD43C,0.02600*%
%ADD44C,0.05800*%
%ADD60O,0.03162X0.05131*%
%ADD61R,0.03162X0.05131*%
D23*
X200306Y202862D02*
D03*
Y198138D02*
D03*
X362305Y408638D02*
D03*
Y413362D02*
D03*
X380306Y409138D02*
D03*
Y413862D02*
D03*
X64306Y312138D02*
D03*
Y316862D02*
D03*
X34806Y282000D02*
D03*
Y277276D02*
D03*
X78306Y285138D02*
D03*
Y289862D02*
D03*
X51306Y316362D02*
D03*
Y311638D02*
D03*
X262806Y233224D02*
D03*
Y228500D02*
D03*
X274306Y233500D02*
D03*
Y228776D02*
D03*
X244305Y302638D02*
D03*
Y307362D02*
D03*
X229306Y302276D02*
D03*
Y307000D02*
D03*
X193806Y222500D02*
D03*
Y217776D02*
D03*
X178305Y222362D02*
D03*
Y217638D02*
D03*
D32*
X122306Y299500D02*
D03*
X123805Y287000D02*
D03*
D33*
X19805Y315500D02*
D03*
D34*
Y325500D02*
D03*
Y335500D02*
D03*
D35*
X156306Y263347D02*
D03*
X166148D02*
D03*
X175990D02*
D03*
X156306Y285000D02*
D03*
X166148D02*
D03*
D36*
X216305Y179189D02*
D03*
Y202811D02*
D03*
X175990Y285000D02*
D03*
D37*
X430805Y427972D02*
D03*
Y403169D02*
D03*
X60495Y116890D02*
D03*
D38*
X412695Y414980D02*
D03*
X47502Y135000D02*
D03*
X72306D02*
D03*
D39*
X132306Y302291D02*
D03*
X105806Y432500D02*
D03*
X206805Y79500D02*
D03*
X229805Y436000D02*
D03*
D40*
X132306Y283000D02*
D03*
X135805Y422500D02*
D03*
X125805D02*
D03*
X115805D02*
D03*
X105806D02*
D03*
X135805Y432500D02*
D03*
X125805D02*
D03*
X115805D02*
D03*
X98305Y278500D02*
D03*
Y288500D02*
D03*
Y298500D02*
D03*
X276805Y297500D02*
D03*
Y287500D02*
D03*
X62805Y229000D02*
D03*
Y219000D02*
D03*
Y209000D02*
D03*
Y199000D02*
D03*
X52806Y229000D02*
D03*
Y219000D02*
D03*
Y209000D02*
D03*
X216806Y79500D02*
D03*
X226805D02*
D03*
X236806D02*
D03*
X206805Y69500D02*
D03*
X216806D02*
D03*
X226805D02*
D03*
X236806D02*
D03*
X422305Y181500D02*
D03*
Y171500D02*
D03*
Y161500D02*
D03*
X412305Y191500D02*
D03*
Y181500D02*
D03*
Y171500D02*
D03*
Y161500D02*
D03*
X422305Y300500D02*
D03*
Y290500D02*
D03*
Y280500D02*
D03*
X412305Y310500D02*
D03*
Y300500D02*
D03*
Y290500D02*
D03*
Y280500D02*
D03*
X239806Y436000D02*
D03*
X249805D02*
D03*
X259805D02*
D03*
X229805Y426000D02*
D03*
X239806D02*
D03*
X249805D02*
D03*
X259805D02*
D03*
D41*
X98305Y308500D02*
D03*
X276805Y307500D02*
D03*
X52806Y199000D02*
D03*
X422305Y191500D02*
D03*
Y310500D02*
D03*
D42*
X6306Y464500D02*
D03*
X447806Y46500D02*
D03*
D43*
X212556Y220750D02*
D03*
X176805Y273500D02*
D03*
X111805Y302291D02*
D03*
X150305Y277500D02*
D03*
X224306Y262500D02*
D03*
X72109Y139000D02*
D03*
X72609Y139500D02*
D03*
X198805Y237500D02*
D03*
X211806Y251000D02*
D03*
X215305Y229000D02*
D03*
X219555Y229250D02*
D03*
X196306Y233000D02*
D03*
X252306Y283000D02*
D03*
X239371Y236065D02*
D03*
X243305Y278500D02*
D03*
X230805Y291000D02*
D03*
X189805Y282500D02*
D03*
X257033Y274392D02*
D03*
D44*
X357306Y244500D02*
D03*
X192306Y98500D02*
D03*
X270305Y121500D02*
D03*
X240806Y120740D02*
D03*
X179806Y121500D02*
D03*
X209805Y122000D02*
D03*
X82806Y184000D02*
D03*
X104806Y171000D02*
D03*
Y196500D02*
D03*
X104306Y224500D02*
D03*
X104806Y249000D02*
D03*
X76806Y396500D02*
D03*
X59306Y374000D02*
D03*
X91805Y373319D02*
D03*
X123305Y374500D02*
D03*
X154806Y375000D02*
D03*
X203805Y390000D02*
D03*
X190305Y377500D02*
D03*
X221806Y376000D02*
D03*
X255306Y377000D02*
D03*
X287806D02*
D03*
X356306Y119000D02*
D03*
X357306Y149500D02*
D03*
Y180000D02*
D03*
Y212000D02*
D03*
Y277500D02*
D03*
X391806Y328500D02*
D03*
X357306Y309000D02*
D03*
Y345000D02*
D03*
D60*
X63286Y292500D02*
D03*
X55805D02*
D03*
X63286Y282264D02*
D03*
X59546D02*
D03*
D61*
X55805D02*
D03*
M02*
