G04*
G04 #@! TF.GenerationSoftware,Altium Limited,Altium Designer,19.1.5 (86)*
G04*
G04 Layer_Color=65535*
%FSLAX25Y25*%
%MOIN*%
G70*
G01*
G75*
%ADD10C,0.00787*%
%ADD11C,0.00197*%
%ADD12C,0.01000*%
G36*
X395386Y312577D02*
X395394Y312569D01*
X395409Y312553D01*
X395433Y312522D01*
X395472Y312483D01*
X395511Y312428D01*
X395566Y312366D01*
X395628Y312288D01*
X395691Y312210D01*
X395761Y312116D01*
X395839Y312006D01*
X395925Y311897D01*
X396003Y311772D01*
X396089Y311639D01*
X396183Y311499D01*
X396269Y311343D01*
X396362Y311187D01*
X396370Y311179D01*
X396386Y311147D01*
X396409Y311101D01*
X396440Y311038D01*
X396479Y310960D01*
X396526Y310866D01*
X396581Y310757D01*
X396636Y310640D01*
X396690Y310515D01*
X396753Y310374D01*
X396815Y310226D01*
X396878Y310070D01*
X396995Y309749D01*
X397104Y309406D01*
Y309398D01*
X397112Y309375D01*
X397120Y309343D01*
X397135Y309296D01*
X397151Y309234D01*
X397167Y309164D01*
X397182Y309078D01*
X397206Y308992D01*
X397221Y308890D01*
X397245Y308781D01*
X397284Y308547D01*
X397315Y308281D01*
X397339Y308000D01*
X397987D01*
Y308008D01*
Y308031D01*
Y308063D01*
X397979Y308109D01*
Y308164D01*
X397971Y308234D01*
X397963Y308320D01*
X397955Y308406D01*
X397940Y308508D01*
X397924Y308625D01*
X397909Y308742D01*
X397885Y308867D01*
X397862Y309008D01*
X397831Y309148D01*
X397752Y309460D01*
Y309468D01*
X397745Y309500D01*
X397729Y309546D01*
X397713Y309609D01*
X397690Y309687D01*
X397659Y309773D01*
X397627Y309874D01*
X397588Y309992D01*
X397542Y310109D01*
X397495Y310242D01*
X397385Y310523D01*
X397253Y310819D01*
X397104Y311116D01*
X397096Y311124D01*
X397081Y311155D01*
X397057Y311194D01*
X397026Y311249D01*
X396987Y311319D01*
X396940Y311397D01*
X396885Y311483D01*
X396831Y311585D01*
X396690Y311796D01*
X396534Y312022D01*
X396370Y312249D01*
X396190Y312467D01*
X398705D01*
Y313069D01*
X395386D01*
Y312577D01*
D02*
G37*
G36*
X400353Y308000D02*
X400986D01*
Y312014D01*
X400994Y312006D01*
X401025Y311975D01*
X401080Y311936D01*
X401150Y311882D01*
X401236Y311811D01*
X401337Y311741D01*
X401454Y311655D01*
X401587Y311577D01*
X401595D01*
X401603Y311569D01*
X401650Y311538D01*
X401720Y311499D01*
X401806Y311452D01*
X401907Y311397D01*
X402017Y311350D01*
X402134Y311296D01*
X402243Y311249D01*
Y311866D01*
X402235D01*
X402220Y311874D01*
X402188Y311889D01*
X402157Y311913D01*
X402110Y311936D01*
X402056Y311960D01*
X401931Y312030D01*
X401790Y312116D01*
X401634Y312217D01*
X401478Y312334D01*
X401329Y312459D01*
X401322Y312467D01*
X401314Y312475D01*
X401267Y312522D01*
X401197Y312592D01*
X401111Y312678D01*
X401017Y312788D01*
X400923Y312905D01*
X400837Y313030D01*
X400767Y313155D01*
X400353D01*
Y308000D01*
D02*
G37*
G36*
X400369Y299500D02*
X401001D01*
Y303514D01*
X401009Y303506D01*
X401040Y303475D01*
X401095Y303436D01*
X401165Y303382D01*
X401251Y303311D01*
X401353Y303241D01*
X401470Y303155D01*
X401603Y303077D01*
X401611D01*
X401618Y303069D01*
X401665Y303038D01*
X401735Y302999D01*
X401821Y302952D01*
X401923Y302897D01*
X402032Y302851D01*
X402149Y302796D01*
X402259Y302749D01*
Y303366D01*
X402251D01*
X402235Y303374D01*
X402204Y303389D01*
X402173Y303413D01*
X402126Y303436D01*
X402071Y303460D01*
X401946Y303530D01*
X401806Y303616D01*
X401650Y303717D01*
X401493Y303835D01*
X401345Y303959D01*
X401337Y303967D01*
X401329Y303975D01*
X401283Y304022D01*
X401212Y304092D01*
X401126Y304178D01*
X401033Y304288D01*
X400939Y304405D01*
X400853Y304530D01*
X400783Y304655D01*
X400369D01*
Y299500D01*
D02*
G37*
G36*
X396987Y304647D02*
X396925D01*
X396862Y304631D01*
X396706Y304608D01*
X396534Y304561D01*
X396354Y304491D01*
X396261Y304444D01*
X396175Y304397D01*
X396089Y304334D01*
X396011Y304264D01*
X396003Y304256D01*
X395995Y304248D01*
X395972Y304225D01*
X395948Y304194D01*
X395917Y304155D01*
X395878Y304108D01*
X395800Y303999D01*
X395730Y303858D01*
X395659Y303694D01*
X395613Y303514D01*
X395605Y303413D01*
X395597Y303311D01*
Y303296D01*
Y303249D01*
X395605Y303186D01*
X395620Y303100D01*
X395644Y302999D01*
X395675Y302897D01*
X395722Y302788D01*
X395784Y302687D01*
X395792Y302679D01*
X395815Y302647D01*
X395862Y302601D01*
X395925Y302538D01*
X396003Y302476D01*
X396105Y302413D01*
X396222Y302343D01*
X396354Y302288D01*
X396347D01*
X396331Y302280D01*
X396308Y302273D01*
X396276Y302257D01*
X396190Y302218D01*
X396089Y302171D01*
X395972Y302101D01*
X395855Y302015D01*
X395737Y301905D01*
X395636Y301788D01*
X395628Y301773D01*
X395597Y301726D01*
X395558Y301656D01*
X395511Y301554D01*
X395464Y301437D01*
X395425Y301296D01*
X395394Y301140D01*
X395386Y300968D01*
Y300960D01*
Y300937D01*
Y300906D01*
X395394Y300859D01*
X395402Y300804D01*
X395409Y300734D01*
X395441Y300578D01*
X395503Y300406D01*
X395534Y300312D01*
X395581Y300219D01*
X395636Y300125D01*
X395698Y300031D01*
X395769Y299945D01*
X395855Y299859D01*
X395862Y299851D01*
X395878Y299844D01*
X395901Y299820D01*
X395940Y299789D01*
X395987Y299758D01*
X396042Y299719D01*
X396105Y299680D01*
X396183Y299641D01*
X396269Y299594D01*
X396362Y299555D01*
X396464Y299516D01*
X396573Y299484D01*
X396683Y299453D01*
X396807Y299430D01*
X396940Y299422D01*
X397081Y299414D01*
X397151D01*
X397206Y299422D01*
X397268Y299430D01*
X397346Y299437D01*
X397424Y299453D01*
X397518Y299469D01*
X397713Y299523D01*
X397815Y299563D01*
X397916Y299602D01*
X398018Y299656D01*
X398119Y299711D01*
X398213Y299781D01*
X398307Y299859D01*
X398315Y299867D01*
X398330Y299883D01*
X398346Y299906D01*
X398377Y299937D01*
X398416Y299984D01*
X398455Y300039D01*
X398494Y300101D01*
X398533Y300172D01*
X398580Y300250D01*
X398619Y300336D01*
X398697Y300523D01*
X398729Y300633D01*
X398744Y300742D01*
X398760Y300859D01*
X398768Y300984D01*
Y300992D01*
Y301007D01*
Y301031D01*
X398760Y301070D01*
Y301109D01*
X398752Y301164D01*
X398737Y301273D01*
X398705Y301406D01*
X398658Y301546D01*
X398604Y301687D01*
X398518Y301820D01*
Y301827D01*
X398502Y301835D01*
X398471Y301874D01*
X398409Y301937D01*
X398330Y302007D01*
X398229Y302085D01*
X398104Y302163D01*
X397955Y302234D01*
X397792Y302288D01*
X397799D01*
X397807Y302296D01*
X397854Y302312D01*
X397924Y302351D01*
X398010Y302390D01*
X398112Y302452D01*
X398205Y302522D01*
X398299Y302601D01*
X398377Y302694D01*
X398385Y302710D01*
X398409Y302741D01*
X398440Y302796D01*
X398471Y302874D01*
X398502Y302968D01*
X398533Y303077D01*
X398557Y303194D01*
X398565Y303327D01*
Y303335D01*
Y303350D01*
Y303382D01*
X398557Y303421D01*
X398549Y303467D01*
X398541Y303522D01*
X398518Y303655D01*
X398471Y303803D01*
X398393Y303959D01*
X398354Y304045D01*
X398299Y304123D01*
X398237Y304202D01*
X398166Y304272D01*
X398159Y304280D01*
X398151Y304288D01*
X398127Y304311D01*
X398096Y304334D01*
X398049Y304358D01*
X398002Y304397D01*
X397948Y304428D01*
X397877Y304467D01*
X397729Y304537D01*
X397542Y304592D01*
X397331Y304639D01*
X397221Y304647D01*
X397096Y304655D01*
X397034D01*
X396987Y304647D01*
D02*
G37*
G36*
X397065Y294147D02*
X397026D01*
X396971Y294139D01*
X396847Y294123D01*
X396706Y294084D01*
X396557Y294037D01*
X396393Y293975D01*
X396237Y293881D01*
X396230D01*
X396222Y293866D01*
X396198Y293850D01*
X396167Y293834D01*
X396097Y293772D01*
X396003Y293686D01*
X395901Y293569D01*
X395792Y293444D01*
X395691Y293288D01*
X395605Y293108D01*
Y293100D01*
X395597Y293085D01*
X395581Y293053D01*
X395573Y293014D01*
X395550Y292968D01*
X395534Y292905D01*
X395519Y292827D01*
X395495Y292741D01*
X395472Y292647D01*
X395456Y292538D01*
X395433Y292421D01*
X395417Y292296D01*
X395409Y292155D01*
X395394Y292007D01*
X395386Y291843D01*
Y291671D01*
Y291663D01*
Y291624D01*
Y291577D01*
Y291507D01*
X395394Y291429D01*
Y291327D01*
X395402Y291226D01*
X395409Y291109D01*
X395441Y290859D01*
X395480Y290593D01*
X395534Y290335D01*
X395566Y290218D01*
X395605Y290101D01*
Y290093D01*
X395613Y290078D01*
X395628Y290047D01*
X395644Y290007D01*
X395667Y289953D01*
X395691Y289898D01*
X395761Y289773D01*
X395855Y289625D01*
X395964Y289476D01*
X396089Y289336D01*
X396237Y289211D01*
X396245D01*
X396253Y289195D01*
X396276Y289187D01*
X396315Y289164D01*
X396354Y289141D01*
X396401Y289117D01*
X396518Y289062D01*
X396667Y289008D01*
X396831Y288961D01*
X397026Y288930D01*
X397229Y288914D01*
X397284D01*
X397331Y288922D01*
X397378D01*
X397440Y288930D01*
X397581Y288953D01*
X397737Y288992D01*
X397901Y289055D01*
X398057Y289133D01*
X398213Y289242D01*
X398221Y289250D01*
X398229Y289258D01*
X398276Y289305D01*
X398338Y289383D01*
X398416Y289484D01*
X398494Y289617D01*
X398565Y289781D01*
X398627Y289968D01*
X398666Y290187D01*
X398065Y290234D01*
Y290226D01*
Y290218D01*
X398057Y290195D01*
X398049Y290164D01*
X398034Y290086D01*
X398002Y290000D01*
X397963Y289898D01*
X397916Y289797D01*
X397854Y289695D01*
X397776Y289617D01*
X397768Y289609D01*
X397737Y289586D01*
X397690Y289555D01*
X397620Y289523D01*
X397542Y289492D01*
X397448Y289461D01*
X397339Y289437D01*
X397214Y289430D01*
X397167D01*
X397112Y289437D01*
X397042Y289445D01*
X396964Y289461D01*
X396878Y289484D01*
X396792Y289515D01*
X396706Y289562D01*
X396698Y289570D01*
X396667Y289586D01*
X396628Y289617D01*
X396581Y289656D01*
X396518Y289703D01*
X396464Y289765D01*
X396401Y289836D01*
X396347Y289914D01*
X396339Y289922D01*
X396323Y289953D01*
X396300Y290007D01*
X396261Y290078D01*
X396230Y290164D01*
X396190Y290265D01*
X396151Y290382D01*
X396112Y290515D01*
Y290523D01*
X396105Y290531D01*
Y290554D01*
X396097Y290578D01*
X396081Y290656D01*
X396065Y290757D01*
X396050Y290874D01*
X396034Y290999D01*
X396019Y291140D01*
Y291288D01*
Y291296D01*
Y291320D01*
Y291359D01*
Y291413D01*
X396026Y291398D01*
X396058Y291366D01*
X396097Y291304D01*
X396159Y291242D01*
X396230Y291163D01*
X396323Y291077D01*
X396425Y290999D01*
X396542Y290921D01*
X396557Y290914D01*
X396597Y290890D01*
X396667Y290867D01*
X396753Y290835D01*
X396854Y290796D01*
X396971Y290773D01*
X397104Y290749D01*
X397245Y290742D01*
X397307D01*
X397354Y290749D01*
X397409Y290757D01*
X397471Y290765D01*
X397620Y290796D01*
X397792Y290851D01*
X397877Y290890D01*
X397971Y290937D01*
X398057Y290992D01*
X398151Y291054D01*
X398237Y291124D01*
X398323Y291202D01*
X398330Y291210D01*
X398338Y291226D01*
X398362Y291249D01*
X398393Y291288D01*
X398424Y291335D01*
X398463Y291390D01*
X398502Y291452D01*
X398541Y291530D01*
X398580Y291609D01*
X398619Y291702D01*
X398658Y291804D01*
X398690Y291913D01*
X398721Y292030D01*
X398744Y292147D01*
X398752Y292280D01*
X398760Y292421D01*
Y292429D01*
Y292452D01*
Y292499D01*
X398752Y292553D01*
X398744Y292616D01*
X398737Y292694D01*
X398721Y292780D01*
X398705Y292874D01*
X398651Y293069D01*
X398611Y293178D01*
X398565Y293280D01*
X398518Y293389D01*
X398455Y293491D01*
X398385Y293584D01*
X398307Y293678D01*
X398299Y293686D01*
X398284Y293702D01*
X398260Y293725D01*
X398221Y293756D01*
X398182Y293788D01*
X398127Y293827D01*
X398065Y293873D01*
X397987Y293920D01*
X397909Y293959D01*
X397823Y294006D01*
X397627Y294084D01*
X397518Y294108D01*
X397401Y294131D01*
X397276Y294147D01*
X397151Y294155D01*
X397104D01*
X397065Y294147D01*
D02*
G37*
G36*
X400369Y289000D02*
X401001D01*
Y293014D01*
X401009Y293006D01*
X401040Y292975D01*
X401095Y292936D01*
X401165Y292882D01*
X401251Y292811D01*
X401353Y292741D01*
X401470Y292655D01*
X401603Y292577D01*
X401611D01*
X401618Y292569D01*
X401665Y292538D01*
X401735Y292499D01*
X401821Y292452D01*
X401923Y292397D01*
X402032Y292351D01*
X402149Y292296D01*
X402259Y292249D01*
Y292866D01*
X402251D01*
X402235Y292874D01*
X402204Y292889D01*
X402173Y292913D01*
X402126Y292936D01*
X402071Y292960D01*
X401946Y293030D01*
X401806Y293116D01*
X401650Y293217D01*
X401493Y293335D01*
X401345Y293460D01*
X401337Y293467D01*
X401329Y293475D01*
X401283Y293522D01*
X401212Y293592D01*
X401126Y293678D01*
X401033Y293788D01*
X400939Y293905D01*
X400853Y294030D01*
X400783Y294155D01*
X400369D01*
Y289000D01*
D02*
G37*
G36*
X136916Y408000D02*
X137548D01*
Y412014D01*
X137556Y412007D01*
X137587Y411975D01*
X137642Y411936D01*
X137712Y411882D01*
X137798Y411811D01*
X137899Y411741D01*
X138017Y411655D01*
X138149Y411577D01*
X138157D01*
X138165Y411569D01*
X138212Y411538D01*
X138282Y411499D01*
X138368Y411452D01*
X138470Y411397D01*
X138579Y411350D01*
X138696Y411296D01*
X138805Y411249D01*
Y411866D01*
X138798D01*
X138782Y411874D01*
X138751Y411889D01*
X138720Y411913D01*
X138673Y411936D01*
X138618Y411960D01*
X138493Y412030D01*
X138353Y412116D01*
X138196Y412217D01*
X138040Y412335D01*
X137892Y412460D01*
X137884Y412467D01*
X137876Y412475D01*
X137829Y412522D01*
X137759Y412592D01*
X137673Y412678D01*
X137579Y412787D01*
X137486Y412905D01*
X137400Y413030D01*
X137329Y413155D01*
X136916D01*
Y408000D01*
D02*
G37*
G36*
X133487Y413147D02*
X133393Y413131D01*
X133284Y413116D01*
X133159Y413084D01*
X133034Y413037D01*
X132917Y412983D01*
X132901Y412975D01*
X132862Y412952D01*
X132807Y412913D01*
X132729Y412866D01*
X132651Y412795D01*
X132565Y412709D01*
X132479Y412616D01*
X132401Y412506D01*
X132394Y412491D01*
X132370Y412452D01*
X132331Y412381D01*
X132284Y412295D01*
X132237Y412186D01*
X132183Y412053D01*
X132128Y411905D01*
X132081Y411741D01*
Y411733D01*
X132073Y411718D01*
Y411694D01*
X132065Y411655D01*
X132050Y411616D01*
X132042Y411561D01*
X132034Y411491D01*
X132019Y411421D01*
X132011Y411335D01*
X132003Y411249D01*
X131987Y411147D01*
X131980Y411038D01*
X131972Y410921D01*
Y410804D01*
X131964Y410530D01*
Y410523D01*
Y410491D01*
Y410444D01*
Y410382D01*
X131972Y410304D01*
Y410218D01*
X131980Y410116D01*
X131987Y410007D01*
X132011Y409773D01*
X132042Y409531D01*
X132089Y409289D01*
X132120Y409179D01*
X132151Y409070D01*
Y409062D01*
X132159Y409047D01*
X132167Y409015D01*
X132183Y408976D01*
X132206Y408929D01*
X132229Y408883D01*
X132292Y408758D01*
X132370Y408617D01*
X132464Y408476D01*
X132573Y408336D01*
X132706Y408211D01*
X132714D01*
X132721Y408195D01*
X132745Y408187D01*
X132768Y408164D01*
X132854Y408117D01*
X132956Y408063D01*
X133096Y408008D01*
X133253Y407961D01*
X133432Y407930D01*
X133635Y407914D01*
X133706D01*
X133760Y407922D01*
X133823Y407930D01*
X133893Y407945D01*
X133971Y407961D01*
X134057Y407977D01*
X134245Y408039D01*
X134346Y408086D01*
X134440Y408133D01*
X134541Y408195D01*
X134635Y408265D01*
X134721Y408344D01*
X134807Y408437D01*
X134815Y408445D01*
X134830Y408469D01*
X134854Y408508D01*
X134885Y408562D01*
X134924Y408633D01*
X134963Y408718D01*
X135010Y408820D01*
X135057Y408945D01*
X135104Y409078D01*
X135150Y409234D01*
X135189Y409406D01*
X135229Y409593D01*
X135260Y409804D01*
X135283Y410023D01*
X135299Y410273D01*
X135307Y410530D01*
Y410538D01*
Y410569D01*
Y410616D01*
Y410679D01*
X135299Y410757D01*
Y410843D01*
X135291Y410944D01*
X135283Y411054D01*
X135260Y411288D01*
X135229Y411530D01*
X135189Y411772D01*
X135158Y411882D01*
X135127Y411991D01*
Y411999D01*
X135119Y412014D01*
X135104Y412046D01*
X135088Y412085D01*
X135072Y412132D01*
X135049Y412186D01*
X134986Y412311D01*
X134908Y412452D01*
X134815Y412592D01*
X134705Y412725D01*
X134573Y412850D01*
X134565D01*
X134557Y412866D01*
X134533Y412881D01*
X134502Y412897D01*
X134424Y412944D01*
X134315Y413006D01*
X134182Y413061D01*
X134018Y413108D01*
X133838Y413139D01*
X133635Y413155D01*
X133565D01*
X133487Y413147D01*
D02*
G37*
G36*
X124611D02*
X124572D01*
X124517Y413139D01*
X124392Y413123D01*
X124251Y413084D01*
X124103Y413037D01*
X123939Y412975D01*
X123783Y412881D01*
X123775D01*
X123767Y412866D01*
X123744Y412850D01*
X123713Y412834D01*
X123642Y412772D01*
X123549Y412686D01*
X123447Y412569D01*
X123338Y412444D01*
X123236Y412288D01*
X123150Y412108D01*
Y412100D01*
X123143Y412085D01*
X123127Y412053D01*
X123119Y412014D01*
X123096Y411968D01*
X123080Y411905D01*
X123064Y411827D01*
X123041Y411741D01*
X123018Y411647D01*
X123002Y411538D01*
X122978Y411421D01*
X122963Y411296D01*
X122955Y411155D01*
X122939Y411007D01*
X122932Y410843D01*
Y410671D01*
Y410663D01*
Y410624D01*
Y410577D01*
Y410507D01*
X122939Y410429D01*
Y410327D01*
X122947Y410226D01*
X122955Y410109D01*
X122986Y409859D01*
X123025Y409593D01*
X123080Y409336D01*
X123111Y409218D01*
X123150Y409101D01*
Y409093D01*
X123158Y409078D01*
X123174Y409047D01*
X123189Y409008D01*
X123213Y408953D01*
X123236Y408898D01*
X123307Y408773D01*
X123400Y408625D01*
X123510Y408476D01*
X123635Y408336D01*
X123783Y408211D01*
X123791D01*
X123799Y408195D01*
X123822Y408187D01*
X123861Y408164D01*
X123900Y408141D01*
X123947Y408117D01*
X124064Y408063D01*
X124212Y408008D01*
X124376Y407961D01*
X124572Y407930D01*
X124775Y407914D01*
X124829D01*
X124876Y407922D01*
X124923D01*
X124986Y407930D01*
X125126Y407953D01*
X125282Y407992D01*
X125446Y408055D01*
X125603Y408133D01*
X125759Y408242D01*
X125767Y408250D01*
X125774Y408258D01*
X125821Y408305D01*
X125884Y408383D01*
X125962Y408484D01*
X126040Y408617D01*
X126110Y408781D01*
X126173Y408968D01*
X126212Y409187D01*
X125610Y409234D01*
Y409226D01*
Y409218D01*
X125603Y409195D01*
X125595Y409164D01*
X125579Y409086D01*
X125548Y409000D01*
X125509Y408898D01*
X125462Y408797D01*
X125399Y408695D01*
X125321Y408617D01*
X125314Y408609D01*
X125282Y408586D01*
X125235Y408555D01*
X125165Y408523D01*
X125087Y408492D01*
X124993Y408461D01*
X124884Y408437D01*
X124759Y408430D01*
X124712D01*
X124658Y408437D01*
X124587Y408445D01*
X124509Y408461D01*
X124423Y408484D01*
X124337Y408516D01*
X124251Y408562D01*
X124244Y408570D01*
X124212Y408586D01*
X124173Y408617D01*
X124127Y408656D01*
X124064Y408703D01*
X124009Y408765D01*
X123947Y408836D01*
X123892Y408914D01*
X123884Y408922D01*
X123869Y408953D01*
X123845Y409008D01*
X123806Y409078D01*
X123775Y409164D01*
X123736Y409265D01*
X123697Y409382D01*
X123658Y409515D01*
Y409523D01*
X123650Y409531D01*
Y409554D01*
X123642Y409578D01*
X123627Y409656D01*
X123611Y409757D01*
X123595Y409874D01*
X123580Y409999D01*
X123564Y410140D01*
Y410288D01*
Y410296D01*
Y410320D01*
Y410359D01*
Y410413D01*
X123572Y410398D01*
X123603Y410366D01*
X123642Y410304D01*
X123705Y410242D01*
X123775Y410163D01*
X123869Y410077D01*
X123970Y409999D01*
X124088Y409921D01*
X124103Y409913D01*
X124142Y409890D01*
X124212Y409867D01*
X124298Y409835D01*
X124400Y409796D01*
X124517Y409773D01*
X124650Y409749D01*
X124790Y409742D01*
X124853D01*
X124900Y409749D01*
X124954Y409757D01*
X125017Y409765D01*
X125165Y409796D01*
X125337Y409851D01*
X125423Y409890D01*
X125517Y409937D01*
X125603Y409992D01*
X125696Y410054D01*
X125782Y410124D01*
X125868Y410202D01*
X125876Y410210D01*
X125884Y410226D01*
X125907Y410249D01*
X125938Y410288D01*
X125970Y410335D01*
X126009Y410390D01*
X126048Y410452D01*
X126087Y410530D01*
X126126Y410608D01*
X126165Y410702D01*
X126204Y410804D01*
X126235Y410913D01*
X126267Y411030D01*
X126290Y411147D01*
X126298Y411280D01*
X126305Y411421D01*
Y411429D01*
Y411452D01*
Y411499D01*
X126298Y411553D01*
X126290Y411616D01*
X126282Y411694D01*
X126267Y411780D01*
X126251Y411874D01*
X126196Y412069D01*
X126157Y412178D01*
X126110Y412280D01*
X126063Y412389D01*
X126001Y412491D01*
X125931Y412584D01*
X125853Y412678D01*
X125845Y412686D01*
X125829Y412702D01*
X125806Y412725D01*
X125767Y412756D01*
X125728Y412787D01*
X125673Y412827D01*
X125610Y412873D01*
X125532Y412920D01*
X125454Y412959D01*
X125368Y413006D01*
X125173Y413084D01*
X125064Y413108D01*
X124947Y413131D01*
X124822Y413147D01*
X124697Y413155D01*
X124650D01*
X124611Y413147D01*
D02*
G37*
G36*
X102361D02*
X102314D01*
X102252Y413139D01*
X102111Y413116D01*
X101955Y413069D01*
X101791Y413006D01*
X101627Y412928D01*
X101549Y412873D01*
X101470Y412811D01*
X101463D01*
X101455Y412795D01*
X101408Y412748D01*
X101346Y412670D01*
X101267Y412569D01*
X101181Y412436D01*
X101111Y412280D01*
X101041Y412092D01*
X101002Y411882D01*
X101627Y411835D01*
Y411842D01*
Y411850D01*
X101642Y411897D01*
X101666Y411960D01*
X101689Y412038D01*
X101767Y412217D01*
X101814Y412295D01*
X101869Y412366D01*
X101877Y412381D01*
X101916Y412413D01*
X101970Y412452D01*
X102041Y412506D01*
X102134Y412553D01*
X102244Y412600D01*
X102369Y412631D01*
X102501Y412639D01*
X102556D01*
X102611Y412631D01*
X102681Y412616D01*
X102767Y412600D01*
X102861Y412569D01*
X102947Y412522D01*
X103040Y412467D01*
X103056Y412460D01*
X103087Y412428D01*
X103142Y412374D01*
X103204Y412303D01*
X103282Y412217D01*
X103360Y412108D01*
X103439Y411975D01*
X103509Y411827D01*
Y411819D01*
X103517Y411811D01*
X103524Y411780D01*
X103532Y411749D01*
X103548Y411710D01*
X103564Y411655D01*
X103579Y411593D01*
X103595Y411522D01*
X103610Y411444D01*
X103626Y411358D01*
X103642Y411257D01*
X103657Y411155D01*
X103665Y411038D01*
X103673Y410913D01*
X103681Y410780D01*
Y410648D01*
X103673Y410655D01*
X103642Y410694D01*
X103595Y410757D01*
X103524Y410835D01*
X103446Y410921D01*
X103353Y411007D01*
X103243Y411085D01*
X103126Y411155D01*
X103111Y411163D01*
X103071Y411179D01*
X103001Y411210D01*
X102915Y411241D01*
X102814Y411272D01*
X102697Y411304D01*
X102572Y411319D01*
X102439Y411327D01*
X102376D01*
X102330Y411319D01*
X102275Y411311D01*
X102212Y411304D01*
X102064Y411272D01*
X101900Y411210D01*
X101806Y411179D01*
X101720Y411132D01*
X101627Y411077D01*
X101533Y411015D01*
X101447Y410944D01*
X101361Y410858D01*
X101353Y410851D01*
X101346Y410835D01*
X101322Y410812D01*
X101291Y410773D01*
X101260Y410726D01*
X101221Y410671D01*
X101181Y410608D01*
X101135Y410538D01*
X101096Y410452D01*
X101057Y410366D01*
X101017Y410265D01*
X100986Y410163D01*
X100955Y410046D01*
X100932Y409929D01*
X100924Y409796D01*
X100916Y409663D01*
Y409656D01*
Y409640D01*
Y409617D01*
Y409585D01*
X100924Y409539D01*
Y409492D01*
X100939Y409367D01*
X100971Y409234D01*
X101002Y409078D01*
X101057Y408922D01*
X101127Y408765D01*
Y408758D01*
X101135Y408750D01*
X101150Y408726D01*
X101166Y408695D01*
X101213Y408625D01*
X101275Y408531D01*
X101361Y408430D01*
X101463Y408328D01*
X101572Y408226D01*
X101705Y408133D01*
X101720Y408125D01*
X101767Y408102D01*
X101845Y408063D01*
X101939Y408023D01*
X102064Y407984D01*
X102205Y407945D01*
X102361Y407922D01*
X102525Y407914D01*
X102556D01*
X102603Y407922D01*
X102658D01*
X102720Y407930D01*
X102798Y407945D01*
X102884Y407961D01*
X102978Y407984D01*
X103079Y408016D01*
X103189Y408055D01*
X103290Y408102D01*
X103400Y408156D01*
X103509Y408226D01*
X103618Y408305D01*
X103720Y408391D01*
X103814Y408492D01*
X103821Y408500D01*
X103837Y408523D01*
X103860Y408555D01*
X103892Y408601D01*
X103931Y408664D01*
X103970Y408742D01*
X104016Y408836D01*
X104056Y408945D01*
X104102Y409070D01*
X104149Y409211D01*
X104188Y409367D01*
X104227Y409539D01*
X104259Y409726D01*
X104282Y409937D01*
X104298Y410156D01*
X104306Y410398D01*
Y410405D01*
Y410413D01*
Y410437D01*
Y410460D01*
Y410538D01*
X104298Y410640D01*
X104290Y410765D01*
X104274Y410905D01*
X104259Y411061D01*
X104235Y411226D01*
X104212Y411405D01*
X104173Y411585D01*
X104126Y411764D01*
X104071Y411936D01*
X104009Y412116D01*
X103938Y412272D01*
X103852Y412428D01*
X103759Y412561D01*
X103751Y412569D01*
X103735Y412584D01*
X103712Y412616D01*
X103673Y412655D01*
X103618Y412702D01*
X103564Y412748D01*
X103493Y412803D01*
X103415Y412858D01*
X103329Y412913D01*
X103228Y412967D01*
X103126Y413014D01*
X103009Y413061D01*
X102884Y413100D01*
X102751Y413131D01*
X102611Y413147D01*
X102462Y413155D01*
X102408D01*
X102361Y413147D01*
D02*
G37*
G36*
X112150Y412452D02*
X114197D01*
X114478Y411069D01*
X114470Y411077D01*
X114454Y411085D01*
X114431Y411101D01*
X114400Y411124D01*
X114353Y411147D01*
X114306Y411171D01*
X114181Y411233D01*
X114040Y411296D01*
X113876Y411343D01*
X113697Y411382D01*
X113509Y411397D01*
X113447D01*
X113400Y411389D01*
X113337Y411382D01*
X113275Y411374D01*
X113197Y411358D01*
X113119Y411343D01*
X112939Y411280D01*
X112845Y411249D01*
X112752Y411202D01*
X112650Y411147D01*
X112556Y411085D01*
X112463Y411015D01*
X112377Y410929D01*
X112369Y410921D01*
X112353Y410905D01*
X112330Y410882D01*
X112306Y410843D01*
X112267Y410796D01*
X112228Y410741D01*
X112189Y410679D01*
X112143Y410608D01*
X112096Y410523D01*
X112057Y410437D01*
X112018Y410335D01*
X111978Y410234D01*
X111955Y410116D01*
X111932Y409999D01*
X111916Y409867D01*
X111908Y409734D01*
Y409726D01*
Y409703D01*
Y409663D01*
X111916Y409617D01*
X111924Y409554D01*
X111932Y409484D01*
X111939Y409406D01*
X111955Y409320D01*
X112010Y409132D01*
X112080Y408937D01*
X112127Y408828D01*
X112181Y408726D01*
X112244Y408625D01*
X112314Y408531D01*
X112322Y408523D01*
X112338Y408508D01*
X112369Y408476D01*
X112408Y408437D01*
X112455Y408391D01*
X112517Y408336D01*
X112588Y408281D01*
X112673Y408226D01*
X112759Y408164D01*
X112861Y408109D01*
X112978Y408055D01*
X113095Y408008D01*
X113228Y407969D01*
X113361Y407937D01*
X113509Y407922D01*
X113665Y407914D01*
X113736D01*
X113783Y407922D01*
X113837Y407930D01*
X113908Y407937D01*
X113986Y407945D01*
X114072Y407961D01*
X114251Y408008D01*
X114439Y408078D01*
X114532Y408125D01*
X114626Y408180D01*
X114720Y408234D01*
X114806Y408305D01*
X114813Y408312D01*
X114821Y408320D01*
X114845Y408344D01*
X114876Y408375D01*
X114907Y408414D01*
X114946Y408461D01*
X114985Y408516D01*
X115032Y408578D01*
X115118Y408726D01*
X115204Y408906D01*
X115267Y409109D01*
X115290Y409226D01*
X115305Y409343D01*
X114642Y409390D01*
Y409382D01*
Y409367D01*
X114634Y409343D01*
X114626Y409312D01*
X114603Y409226D01*
X114571Y409117D01*
X114532Y409000D01*
X114470Y408883D01*
X114400Y408765D01*
X114306Y408664D01*
X114290Y408656D01*
X114259Y408625D01*
X114204Y408594D01*
X114126Y408547D01*
X114032Y408508D01*
X113923Y408469D01*
X113798Y408437D01*
X113665Y408430D01*
X113619D01*
X113587Y408437D01*
X113501Y408445D01*
X113392Y408469D01*
X113275Y408516D01*
X113142Y408570D01*
X113017Y408656D01*
X112955Y408703D01*
X112892Y408765D01*
Y408773D01*
X112877Y408781D01*
X112845Y408828D01*
X112791Y408906D01*
X112736Y409008D01*
X112681Y409140D01*
X112627Y409297D01*
X112595Y409476D01*
X112580Y409679D01*
Y409687D01*
Y409703D01*
Y409734D01*
X112588Y409765D01*
Y409812D01*
X112595Y409867D01*
X112619Y409992D01*
X112650Y410124D01*
X112705Y410265D01*
X112783Y410405D01*
X112884Y410530D01*
X112900Y410546D01*
X112939Y410577D01*
X113002Y410632D01*
X113095Y410687D01*
X113205Y410741D01*
X113345Y410796D01*
X113501Y410827D01*
X113673Y410843D01*
X113728D01*
X113783Y410835D01*
X113861Y410827D01*
X113947Y410804D01*
X114040Y410780D01*
X114134Y410741D01*
X114228Y410694D01*
X114235Y410687D01*
X114267Y410671D01*
X114314Y410640D01*
X114368Y410601D01*
X114423Y410546D01*
X114485Y410484D01*
X114548Y410413D01*
X114603Y410335D01*
X115196Y410421D01*
X114696Y413053D01*
X112150D01*
Y412452D01*
D02*
G37*
G36*
X234393Y94647D02*
X234346D01*
X234284Y94639D01*
X234143Y94616D01*
X233987Y94569D01*
X233823Y94506D01*
X233659Y94428D01*
X233581Y94373D01*
X233503Y94311D01*
X233495D01*
X233487Y94295D01*
X233440Y94248D01*
X233378Y94170D01*
X233300Y94069D01*
X233214Y93936D01*
X233144Y93780D01*
X233073Y93592D01*
X233034Y93382D01*
X233659Y93335D01*
Y93343D01*
Y93350D01*
X233675Y93397D01*
X233698Y93460D01*
X233721Y93538D01*
X233800Y93717D01*
X233846Y93796D01*
X233901Y93866D01*
X233909Y93881D01*
X233948Y93913D01*
X234003Y93952D01*
X234073Y94006D01*
X234167Y94053D01*
X234276Y94100D01*
X234401Y94131D01*
X234534Y94139D01*
X234588D01*
X234643Y94131D01*
X234713Y94116D01*
X234799Y94100D01*
X234893Y94069D01*
X234979Y94022D01*
X235073Y93967D01*
X235088Y93959D01*
X235120Y93928D01*
X235174Y93874D01*
X235237Y93803D01*
X235315Y93717D01*
X235393Y93608D01*
X235471Y93475D01*
X235541Y93327D01*
Y93319D01*
X235549Y93311D01*
X235557Y93280D01*
X235565Y93249D01*
X235580Y93210D01*
X235596Y93155D01*
X235612Y93093D01*
X235627Y93022D01*
X235643Y92944D01*
X235658Y92858D01*
X235674Y92757D01*
X235690Y92655D01*
X235697Y92538D01*
X235705Y92413D01*
X235713Y92280D01*
Y92148D01*
X235705Y92155D01*
X235674Y92194D01*
X235627Y92257D01*
X235557Y92335D01*
X235479Y92421D01*
X235385Y92507D01*
X235276Y92585D01*
X235159Y92655D01*
X235143Y92663D01*
X235104Y92679D01*
X235034Y92710D01*
X234948Y92741D01*
X234846Y92772D01*
X234729Y92804D01*
X234604Y92819D01*
X234471Y92827D01*
X234409D01*
X234362Y92819D01*
X234307Y92811D01*
X234245Y92804D01*
X234096Y92772D01*
X233932Y92710D01*
X233839Y92679D01*
X233753Y92632D01*
X233659Y92577D01*
X233565Y92515D01*
X233479Y92444D01*
X233394Y92358D01*
X233386Y92351D01*
X233378Y92335D01*
X233354Y92312D01*
X233323Y92273D01*
X233292Y92226D01*
X233253Y92171D01*
X233214Y92109D01*
X233167Y92038D01*
X233128Y91952D01*
X233089Y91866D01*
X233050Y91765D01*
X233019Y91663D01*
X232987Y91546D01*
X232964Y91429D01*
X232956Y91296D01*
X232948Y91163D01*
Y91156D01*
Y91140D01*
Y91117D01*
Y91085D01*
X232956Y91039D01*
Y90992D01*
X232972Y90867D01*
X233003Y90734D01*
X233034Y90578D01*
X233089Y90422D01*
X233159Y90265D01*
Y90258D01*
X233167Y90250D01*
X233183Y90226D01*
X233198Y90195D01*
X233245Y90125D01*
X233308Y90031D01*
X233394Y89929D01*
X233495Y89828D01*
X233604Y89727D01*
X233737Y89633D01*
X233753Y89625D01*
X233800Y89601D01*
X233878Y89562D01*
X233971Y89523D01*
X234096Y89484D01*
X234237Y89445D01*
X234393Y89422D01*
X234557Y89414D01*
X234588D01*
X234635Y89422D01*
X234690D01*
X234752Y89430D01*
X234830Y89445D01*
X234916Y89461D01*
X235010Y89484D01*
X235112Y89516D01*
X235221Y89555D01*
X235323Y89601D01*
X235432Y89656D01*
X235541Y89727D01*
X235651Y89805D01*
X235752Y89890D01*
X235846Y89992D01*
X235854Y90000D01*
X235869Y90023D01*
X235893Y90055D01*
X235924Y90101D01*
X235963Y90164D01*
X236002Y90242D01*
X236049Y90336D01*
X236088Y90445D01*
X236135Y90570D01*
X236182Y90711D01*
X236221Y90867D01*
X236260Y91039D01*
X236291Y91226D01*
X236314Y91437D01*
X236330Y91656D01*
X236338Y91898D01*
Y91905D01*
Y91913D01*
Y91937D01*
Y91960D01*
Y92038D01*
X236330Y92140D01*
X236322Y92265D01*
X236307Y92405D01*
X236291Y92562D01*
X236268Y92725D01*
X236244Y92905D01*
X236205Y93085D01*
X236158Y93264D01*
X236104Y93436D01*
X236041Y93616D01*
X235971Y93772D01*
X235885Y93928D01*
X235791Y94061D01*
X235783Y94069D01*
X235768Y94085D01*
X235744Y94116D01*
X235705Y94155D01*
X235651Y94202D01*
X235596Y94248D01*
X235526Y94303D01*
X235448Y94358D01*
X235362Y94412D01*
X235260Y94467D01*
X235159Y94514D01*
X235041Y94561D01*
X234916Y94600D01*
X234784Y94631D01*
X234643Y94647D01*
X234495Y94655D01*
X234440D01*
X234393Y94647D01*
D02*
G37*
G36*
X237915Y89500D02*
X238548D01*
Y93514D01*
X238556Y93506D01*
X238587Y93475D01*
X238642Y93436D01*
X238712Y93382D01*
X238798Y93311D01*
X238899Y93241D01*
X239017Y93155D01*
X239149Y93077D01*
X239157D01*
X239165Y93069D01*
X239212Y93038D01*
X239282Y92999D01*
X239368Y92952D01*
X239470Y92897D01*
X239579Y92851D01*
X239696Y92796D01*
X239806Y92749D01*
Y93366D01*
X239798D01*
X239782Y93374D01*
X239751Y93389D01*
X239720Y93413D01*
X239673Y93436D01*
X239618Y93460D01*
X239493Y93530D01*
X239352Y93616D01*
X239196Y93717D01*
X239040Y93835D01*
X238892Y93959D01*
X238884Y93967D01*
X238876Y93975D01*
X238829Y94022D01*
X238759Y94092D01*
X238673Y94178D01*
X238579Y94288D01*
X238486Y94405D01*
X238400Y94530D01*
X238329Y94655D01*
X237915D01*
Y89500D01*
D02*
G37*
G36*
X221651Y93452D02*
X223698D01*
X223979Y92069D01*
X223971Y92077D01*
X223955Y92085D01*
X223932Y92101D01*
X223901Y92124D01*
X223854Y92147D01*
X223807Y92171D01*
X223682Y92233D01*
X223541Y92296D01*
X223377Y92343D01*
X223198Y92382D01*
X223010Y92397D01*
X222948D01*
X222901Y92390D01*
X222838Y92382D01*
X222776Y92374D01*
X222698Y92358D01*
X222620Y92343D01*
X222440Y92280D01*
X222346Y92249D01*
X222253Y92202D01*
X222151Y92147D01*
X222058Y92085D01*
X221964Y92015D01*
X221878Y91929D01*
X221870Y91921D01*
X221854Y91905D01*
X221831Y91882D01*
X221808Y91843D01*
X221768Y91796D01*
X221729Y91741D01*
X221690Y91679D01*
X221644Y91609D01*
X221597Y91523D01*
X221558Y91437D01*
X221519Y91335D01*
X221480Y91234D01*
X221456Y91116D01*
X221433Y90999D01*
X221417Y90867D01*
X221409Y90734D01*
Y90726D01*
Y90703D01*
Y90663D01*
X221417Y90617D01*
X221425Y90554D01*
X221433Y90484D01*
X221441Y90406D01*
X221456Y90320D01*
X221511Y90132D01*
X221581Y89937D01*
X221628Y89828D01*
X221683Y89726D01*
X221745Y89625D01*
X221815Y89531D01*
X221823Y89523D01*
X221839Y89508D01*
X221870Y89476D01*
X221909Y89437D01*
X221956Y89390D01*
X222018Y89336D01*
X222089Y89281D01*
X222175Y89227D01*
X222261Y89164D01*
X222362Y89109D01*
X222479Y89055D01*
X222596Y89008D01*
X222729Y88969D01*
X222862Y88937D01*
X223010Y88922D01*
X223166Y88914D01*
X223237D01*
X223284Y88922D01*
X223338Y88930D01*
X223409Y88937D01*
X223487Y88945D01*
X223573Y88961D01*
X223752Y89008D01*
X223940Y89078D01*
X224033Y89125D01*
X224127Y89180D01*
X224221Y89234D01*
X224307Y89305D01*
X224315Y89312D01*
X224322Y89320D01*
X224346Y89344D01*
X224377Y89375D01*
X224408Y89414D01*
X224447Y89461D01*
X224486Y89516D01*
X224533Y89578D01*
X224619Y89726D01*
X224705Y89906D01*
X224768Y90109D01*
X224791Y90226D01*
X224807Y90343D01*
X224143Y90390D01*
Y90382D01*
Y90367D01*
X224135Y90343D01*
X224127Y90312D01*
X224104Y90226D01*
X224073Y90117D01*
X224033Y90000D01*
X223971Y89882D01*
X223901Y89765D01*
X223807Y89664D01*
X223791Y89656D01*
X223760Y89625D01*
X223705Y89594D01*
X223627Y89547D01*
X223534Y89508D01*
X223424Y89469D01*
X223299Y89437D01*
X223166Y89429D01*
X223120D01*
X223088Y89437D01*
X223003Y89445D01*
X222893Y89469D01*
X222776Y89516D01*
X222643Y89570D01*
X222518Y89656D01*
X222456Y89703D01*
X222393Y89765D01*
Y89773D01*
X222378Y89781D01*
X222346Y89828D01*
X222292Y89906D01*
X222237Y90008D01*
X222182Y90140D01*
X222128Y90297D01*
X222096Y90476D01*
X222081Y90679D01*
Y90687D01*
Y90703D01*
Y90734D01*
X222089Y90765D01*
Y90812D01*
X222096Y90867D01*
X222120Y90991D01*
X222151Y91124D01*
X222206Y91265D01*
X222284Y91405D01*
X222386Y91530D01*
X222401Y91546D01*
X222440Y91577D01*
X222503Y91632D01*
X222596Y91687D01*
X222706Y91741D01*
X222846Y91796D01*
X223003Y91827D01*
X223174Y91843D01*
X223229D01*
X223284Y91835D01*
X223362Y91827D01*
X223448Y91804D01*
X223541Y91780D01*
X223635Y91741D01*
X223729Y91694D01*
X223737Y91687D01*
X223768Y91671D01*
X223815Y91640D01*
X223869Y91601D01*
X223924Y91546D01*
X223987Y91484D01*
X224049Y91413D01*
X224104Y91335D01*
X224697Y91421D01*
X224197Y94053D01*
X221651D01*
Y93452D01*
D02*
G37*
G36*
X226415Y89000D02*
X227048D01*
Y93014D01*
X227056Y93006D01*
X227087Y92975D01*
X227142Y92936D01*
X227212Y92882D01*
X227298Y92811D01*
X227399Y92741D01*
X227517Y92655D01*
X227649Y92577D01*
X227657D01*
X227665Y92569D01*
X227712Y92538D01*
X227782Y92499D01*
X227868Y92452D01*
X227970Y92397D01*
X228079Y92351D01*
X228196Y92296D01*
X228306Y92249D01*
Y92866D01*
X228298D01*
X228282Y92874D01*
X228251Y92889D01*
X228220Y92913D01*
X228173Y92936D01*
X228118Y92960D01*
X227993Y93030D01*
X227853Y93116D01*
X227696Y93217D01*
X227540Y93335D01*
X227392Y93459D01*
X227384Y93467D01*
X227376Y93475D01*
X227329Y93522D01*
X227259Y93592D01*
X227173Y93678D01*
X227079Y93787D01*
X226986Y93905D01*
X226900Y94030D01*
X226829Y94155D01*
X226415D01*
Y89000D01*
D02*
G37*
G36*
X201159Y90804D02*
X200464D01*
Y90226D01*
X201159D01*
Y89000D01*
X201792D01*
Y90226D01*
X204017D01*
Y90804D01*
X201675Y94123D01*
X201159D01*
Y90804D01*
D02*
G37*
G36*
X205416Y89000D02*
X206048D01*
Y93014D01*
X206056Y93006D01*
X206087Y92975D01*
X206142Y92936D01*
X206212Y92882D01*
X206298Y92811D01*
X206399Y92741D01*
X206517Y92655D01*
X206649Y92577D01*
X206657D01*
X206665Y92569D01*
X206712Y92538D01*
X206782Y92499D01*
X206868Y92452D01*
X206970Y92397D01*
X207079Y92351D01*
X207196Y92296D01*
X207306Y92249D01*
Y92866D01*
X207298D01*
X207282Y92874D01*
X207251Y92889D01*
X207220Y92913D01*
X207173Y92936D01*
X207118Y92960D01*
X206993Y93030D01*
X206853Y93116D01*
X206696Y93217D01*
X206540Y93335D01*
X206392Y93459D01*
X206384Y93467D01*
X206376Y93475D01*
X206329Y93522D01*
X206259Y93592D01*
X206173Y93678D01*
X206079Y93787D01*
X205986Y93905D01*
X205900Y94030D01*
X205829Y94155D01*
X205416D01*
Y89000D01*
D02*
G37*
G36*
X212049Y94647D02*
X211948Y94631D01*
X211831Y94608D01*
X211698Y94577D01*
X211565Y94530D01*
X211432Y94467D01*
X211425D01*
X211417Y94459D01*
X211370Y94436D01*
X211307Y94397D01*
X211229Y94342D01*
X211143Y94272D01*
X211050Y94186D01*
X210964Y94085D01*
X210886Y93975D01*
X210878Y93959D01*
X210854Y93920D01*
X210823Y93858D01*
X210792Y93780D01*
X210761Y93678D01*
X210730Y93569D01*
X210706Y93452D01*
X210698Y93319D01*
Y93304D01*
Y93264D01*
X210706Y93202D01*
X210722Y93124D01*
X210745Y93030D01*
X210776Y92929D01*
X210815Y92819D01*
X210878Y92718D01*
X210886Y92702D01*
X210909Y92671D01*
X210956Y92624D01*
X211011Y92562D01*
X211089Y92491D01*
X211175Y92421D01*
X211284Y92343D01*
X211409Y92280D01*
X211401D01*
X211385Y92273D01*
X211362D01*
X211331Y92257D01*
X211253Y92234D01*
X211151Y92187D01*
X211042Y92132D01*
X210925Y92054D01*
X210808Y91960D01*
X210706Y91843D01*
X210698Y91827D01*
X210667Y91781D01*
X210628Y91710D01*
X210573Y91616D01*
X210526Y91499D01*
X210487Y91359D01*
X210456Y91195D01*
X210448Y91015D01*
Y91007D01*
Y90984D01*
Y90953D01*
X210456Y90906D01*
X210464Y90843D01*
X210472Y90781D01*
X210487Y90703D01*
X210511Y90625D01*
X210565Y90445D01*
X210605Y90343D01*
X210659Y90250D01*
X210714Y90156D01*
X210776Y90062D01*
X210854Y89969D01*
X210940Y89875D01*
X210948Y89867D01*
X210964Y89851D01*
X210987Y89836D01*
X211026Y89805D01*
X211073Y89766D01*
X211136Y89727D01*
X211206Y89687D01*
X211276Y89648D01*
X211362Y89601D01*
X211456Y89562D01*
X211557Y89523D01*
X211667Y89484D01*
X211784Y89453D01*
X211909Y89438D01*
X212042Y89422D01*
X212174Y89414D01*
X212237D01*
X212284Y89422D01*
X212346Y89430D01*
X212409Y89438D01*
X212487Y89445D01*
X212565Y89461D01*
X212744Y89508D01*
X212932Y89586D01*
X213026Y89625D01*
X213111Y89680D01*
X213205Y89742D01*
X213291Y89812D01*
X213299Y89820D01*
X213307Y89828D01*
X213330Y89851D01*
X213362Y89883D01*
X213393Y89929D01*
X213432Y89976D01*
X213479Y90031D01*
X213518Y90094D01*
X213611Y90250D01*
X213689Y90429D01*
X213760Y90632D01*
X213783Y90742D01*
X213799Y90859D01*
X213166Y90945D01*
Y90937D01*
X213158Y90921D01*
Y90890D01*
X213143Y90859D01*
X213119Y90765D01*
X213080Y90648D01*
X213033Y90523D01*
X212971Y90390D01*
X212893Y90273D01*
X212807Y90172D01*
X212791Y90164D01*
X212760Y90133D01*
X212705Y90101D01*
X212627Y90055D01*
X212541Y90016D01*
X212432Y89976D01*
X212307Y89945D01*
X212174Y89937D01*
X212127D01*
X212096Y89945D01*
X212018Y89953D01*
X211917Y89976D01*
X211792Y90016D01*
X211667Y90062D01*
X211542Y90140D01*
X211425Y90242D01*
X211409Y90258D01*
X211378Y90297D01*
X211331Y90359D01*
X211268Y90453D01*
X211214Y90562D01*
X211167Y90695D01*
X211136Y90843D01*
X211120Y91007D01*
Y91015D01*
Y91023D01*
Y91046D01*
X211128Y91078D01*
X211136Y91156D01*
X211159Y91257D01*
X211190Y91367D01*
X211245Y91492D01*
X211315Y91609D01*
X211409Y91718D01*
X211425Y91734D01*
X211456Y91765D01*
X211518Y91804D01*
X211604Y91859D01*
X211706Y91913D01*
X211831Y91952D01*
X211964Y91984D01*
X212120Y91999D01*
X212190D01*
X212245Y91991D01*
X212307Y91984D01*
X212385Y91976D01*
X212471Y91960D01*
X212565Y91937D01*
X212494Y92491D01*
X212456D01*
X212424Y92483D01*
X212323D01*
X212252Y92491D01*
X212151Y92507D01*
X212042Y92530D01*
X211924Y92569D01*
X211799Y92616D01*
X211674Y92686D01*
X211659Y92694D01*
X211620Y92725D01*
X211573Y92780D01*
X211510Y92851D01*
X211448Y92936D01*
X211401Y93046D01*
X211362Y93178D01*
X211347Y93335D01*
Y93343D01*
Y93350D01*
Y93389D01*
X211362Y93452D01*
X211378Y93538D01*
X211401Y93624D01*
X211448Y93717D01*
X211503Y93819D01*
X211581Y93905D01*
X211589Y93913D01*
X211620Y93944D01*
X211674Y93983D01*
X211745Y94022D01*
X211831Y94069D01*
X211932Y94100D01*
X212049Y94131D01*
X212182Y94139D01*
X212245D01*
X212315Y94124D01*
X212393Y94108D01*
X212494Y94085D01*
X212596Y94038D01*
X212698Y93983D01*
X212799Y93905D01*
X212807Y93897D01*
X212838Y93866D01*
X212877Y93811D01*
X212924Y93733D01*
X212979Y93639D01*
X213026Y93522D01*
X213072Y93382D01*
X213104Y93218D01*
X213736Y93327D01*
Y93335D01*
X213728Y93358D01*
X213721Y93389D01*
X213713Y93428D01*
X213697Y93483D01*
X213682Y93546D01*
X213627Y93686D01*
X213564Y93842D01*
X213471Y94006D01*
X213362Y94163D01*
X213221Y94303D01*
X213213Y94311D01*
X213205Y94319D01*
X213182Y94334D01*
X213143Y94358D01*
X213104Y94381D01*
X213057Y94412D01*
X212940Y94483D01*
X212791Y94545D01*
X212612Y94600D01*
X212416Y94639D01*
X212307Y94655D01*
X212127D01*
X212049Y94647D01*
D02*
G37*
G36*
X215416Y89500D02*
X216048D01*
Y93514D01*
X216056Y93506D01*
X216087Y93475D01*
X216142Y93436D01*
X216212Y93382D01*
X216298Y93311D01*
X216400Y93241D01*
X216517Y93155D01*
X216650Y93077D01*
X216657D01*
X216665Y93069D01*
X216712Y93038D01*
X216782Y92999D01*
X216868Y92952D01*
X216970Y92897D01*
X217079Y92851D01*
X217196Y92796D01*
X217305Y92749D01*
Y93366D01*
X217298D01*
X217282Y93374D01*
X217251Y93389D01*
X217220Y93413D01*
X217173Y93436D01*
X217118Y93460D01*
X216993Y93530D01*
X216852Y93616D01*
X216696Y93717D01*
X216540Y93835D01*
X216392Y93959D01*
X216384Y93967D01*
X216376Y93975D01*
X216329Y94022D01*
X216259Y94092D01*
X216173Y94178D01*
X216079Y94288D01*
X215986Y94405D01*
X215900Y94530D01*
X215829Y94655D01*
X215416D01*
Y89500D01*
D02*
G37*
G36*
X73915Y199500D02*
X74548D01*
Y203514D01*
X74556Y203506D01*
X74587Y203475D01*
X74642Y203436D01*
X74712Y203382D01*
X74798Y203311D01*
X74900Y203241D01*
X75017Y203155D01*
X75150Y203077D01*
X75157D01*
X75165Y203069D01*
X75212Y203038D01*
X75282Y202999D01*
X75368Y202952D01*
X75470Y202897D01*
X75579Y202851D01*
X75696Y202796D01*
X75805Y202749D01*
Y203366D01*
X75798D01*
X75782Y203374D01*
X75751Y203389D01*
X75720Y203413D01*
X75673Y203436D01*
X75618Y203460D01*
X75493Y203530D01*
X75353Y203616D01*
X75196Y203717D01*
X75040Y203835D01*
X74892Y203959D01*
X74884Y203967D01*
X74876Y203975D01*
X74829Y204022D01*
X74759Y204092D01*
X74673Y204178D01*
X74579Y204288D01*
X74486Y204405D01*
X74400Y204530D01*
X74329Y204655D01*
X73915D01*
Y199500D01*
D02*
G37*
G36*
X74892Y213147D02*
X74830Y213139D01*
X74759Y213131D01*
X74681Y213123D01*
X74595Y213100D01*
X74408Y213053D01*
X74213Y212983D01*
X74111Y212936D01*
X74017Y212881D01*
X73931Y212811D01*
X73845Y212741D01*
X73838Y212733D01*
X73830Y212725D01*
X73807Y212702D01*
X73775Y212670D01*
X73744Y212624D01*
X73705Y212577D01*
X73627Y212459D01*
X73549Y212311D01*
X73478Y212139D01*
X73424Y211944D01*
X73416Y211835D01*
X73408Y211725D01*
Y211710D01*
Y211671D01*
X73416Y211608D01*
X73424Y211530D01*
X73439Y211436D01*
X73463Y211335D01*
X73494Y211226D01*
X73541Y211116D01*
X73549Y211101D01*
X73564Y211062D01*
X73596Y211007D01*
X73642Y210929D01*
X73697Y210835D01*
X73767Y210726D01*
X73861Y210616D01*
X73963Y210491D01*
X73978Y210476D01*
X74017Y210429D01*
X74088Y210359D01*
X74134Y210312D01*
X74189Y210257D01*
X74252Y210195D01*
X74330Y210124D01*
X74408Y210054D01*
X74494Y209968D01*
X74588Y209882D01*
X74697Y209788D01*
X74806Y209695D01*
X74931Y209585D01*
X74939Y209578D01*
X74954Y209562D01*
X74986Y209539D01*
X75025Y209507D01*
X75118Y209429D01*
X75236Y209328D01*
X75353Y209218D01*
X75478Y209109D01*
X75579Y209015D01*
X75618Y208976D01*
X75657Y208937D01*
X75665Y208929D01*
X75681Y208906D01*
X75712Y208875D01*
X75751Y208828D01*
X75837Y208726D01*
X75923Y208601D01*
X73400D01*
Y208000D01*
X76798D01*
Y208008D01*
Y208039D01*
Y208086D01*
X76790Y208141D01*
X76782Y208203D01*
X76774Y208273D01*
X76751Y208351D01*
X76727Y208430D01*
Y208437D01*
X76720Y208445D01*
X76704Y208492D01*
X76673Y208555D01*
X76626Y208648D01*
X76571Y208750D01*
X76493Y208867D01*
X76415Y208984D01*
X76314Y209109D01*
Y209117D01*
X76298Y209125D01*
X76259Y209172D01*
X76196Y209242D01*
X76103Y209335D01*
X75985Y209445D01*
X75845Y209578D01*
X75673Y209726D01*
X75486Y209890D01*
X75478Y209898D01*
X75447Y209921D01*
X75407Y209952D01*
X75353Y210007D01*
X75283Y210062D01*
X75204Y210132D01*
X75033Y210280D01*
X74845Y210460D01*
X74658Y210640D01*
X74564Y210726D01*
X74486Y210812D01*
X74416Y210897D01*
X74353Y210976D01*
Y210983D01*
X74338Y210991D01*
X74322Y211015D01*
X74306Y211046D01*
X74259Y211124D01*
X74205Y211226D01*
X74150Y211343D01*
X74103Y211468D01*
X74072Y211608D01*
X74056Y211741D01*
Y211749D01*
Y211757D01*
X74064Y211804D01*
X74072Y211874D01*
X74088Y211960D01*
X74127Y212061D01*
X74173Y212163D01*
X74236Y212272D01*
X74330Y212374D01*
X74345Y212381D01*
X74377Y212413D01*
X74439Y212452D01*
X74517Y212506D01*
X74619Y212553D01*
X74736Y212592D01*
X74876Y212624D01*
X75033Y212631D01*
X75080D01*
X75111Y212624D01*
X75189Y212616D01*
X75290Y212600D01*
X75407Y212561D01*
X75533Y212514D01*
X75650Y212444D01*
X75759Y212350D01*
X75767Y212334D01*
X75798Y212303D01*
X75845Y212241D01*
X75892Y212155D01*
X75946Y212046D01*
X75985Y211921D01*
X76017Y211772D01*
X76032Y211600D01*
X76680Y211671D01*
Y211679D01*
Y211702D01*
X76673Y211741D01*
X76665Y211788D01*
X76649Y211850D01*
X76641Y211921D01*
X76595Y212077D01*
X76532Y212256D01*
X76446Y212436D01*
X76329Y212616D01*
X76267Y212694D01*
X76188Y212772D01*
X76181Y212780D01*
X76165Y212788D01*
X76142Y212811D01*
X76110Y212834D01*
X76064Y212858D01*
X76009Y212897D01*
X75946Y212928D01*
X75876Y212967D01*
X75798Y212998D01*
X75712Y213037D01*
X75611Y213069D01*
X75509Y213092D01*
X75275Y213139D01*
X75150Y213147D01*
X75017Y213155D01*
X74947D01*
X74892Y213147D01*
D02*
G37*
G36*
X74947Y227304D02*
X74252D01*
Y226726D01*
X74947D01*
Y225500D01*
X75580D01*
Y226726D01*
X77806D01*
Y227304D01*
X75463Y230623D01*
X74947D01*
Y227304D01*
D02*
G37*
G36*
X75056Y221147D02*
X74954Y221131D01*
X74837Y221108D01*
X74705Y221076D01*
X74572Y221030D01*
X74439Y220967D01*
X74431D01*
X74423Y220959D01*
X74377Y220936D01*
X74314Y220897D01*
X74236Y220842D01*
X74150Y220772D01*
X74056Y220686D01*
X73971Y220585D01*
X73892Y220475D01*
X73885Y220460D01*
X73861Y220421D01*
X73830Y220358D01*
X73799Y220280D01*
X73767Y220178D01*
X73736Y220069D01*
X73713Y219952D01*
X73705Y219819D01*
Y219804D01*
Y219764D01*
X73713Y219702D01*
X73728Y219624D01*
X73752Y219530D01*
X73783Y219429D01*
X73822Y219319D01*
X73885Y219218D01*
X73892Y219202D01*
X73916Y219171D01*
X73963Y219124D01*
X74017Y219061D01*
X74095Y218991D01*
X74181Y218921D01*
X74291Y218843D01*
X74416Y218780D01*
X74408D01*
X74392Y218773D01*
X74369D01*
X74338Y218757D01*
X74259Y218734D01*
X74158Y218687D01*
X74049Y218632D01*
X73931Y218554D01*
X73814Y218460D01*
X73713Y218343D01*
X73705Y218327D01*
X73674Y218281D01*
X73635Y218210D01*
X73580Y218116D01*
X73533Y217999D01*
X73494Y217859D01*
X73463Y217695D01*
X73455Y217515D01*
Y217507D01*
Y217484D01*
Y217453D01*
X73463Y217406D01*
X73471Y217343D01*
X73478Y217281D01*
X73494Y217203D01*
X73518Y217125D01*
X73572Y216945D01*
X73611Y216844D01*
X73666Y216750D01*
X73721Y216656D01*
X73783Y216562D01*
X73861Y216469D01*
X73947Y216375D01*
X73955Y216367D01*
X73971Y216352D01*
X73994Y216336D01*
X74033Y216305D01*
X74080Y216266D01*
X74142Y216227D01*
X74213Y216187D01*
X74283Y216148D01*
X74369Y216102D01*
X74462Y216062D01*
X74564Y216023D01*
X74673Y215984D01*
X74791Y215953D01*
X74915Y215937D01*
X75048Y215922D01*
X75181Y215914D01*
X75244D01*
X75290Y215922D01*
X75353Y215930D01*
X75415Y215937D01*
X75493Y215945D01*
X75572Y215961D01*
X75751Y216008D01*
X75939Y216086D01*
X76032Y216125D01*
X76118Y216180D01*
X76212Y216242D01*
X76298Y216312D01*
X76306Y216320D01*
X76314Y216328D01*
X76337Y216352D01*
X76368Y216383D01*
X76399Y216430D01*
X76438Y216476D01*
X76485Y216531D01*
X76524Y216594D01*
X76618Y216750D01*
X76696Y216929D01*
X76766Y217132D01*
X76790Y217242D01*
X76806Y217359D01*
X76173Y217445D01*
Y217437D01*
X76165Y217421D01*
Y217390D01*
X76149Y217359D01*
X76126Y217265D01*
X76087Y217148D01*
X76040Y217023D01*
X75978Y216890D01*
X75899Y216773D01*
X75814Y216672D01*
X75798Y216664D01*
X75767Y216633D01*
X75712Y216601D01*
X75634Y216554D01*
X75548Y216515D01*
X75439Y216476D01*
X75314Y216445D01*
X75181Y216437D01*
X75134D01*
X75103Y216445D01*
X75025Y216453D01*
X74923Y216476D01*
X74798Y216515D01*
X74673Y216562D01*
X74548Y216640D01*
X74431Y216742D01*
X74416Y216758D01*
X74384Y216797D01*
X74338Y216859D01*
X74275Y216953D01*
X74220Y217062D01*
X74173Y217195D01*
X74142Y217343D01*
X74127Y217507D01*
Y217515D01*
Y217523D01*
Y217546D01*
X74134Y217578D01*
X74142Y217656D01*
X74166Y217757D01*
X74197Y217867D01*
X74252Y217992D01*
X74322Y218109D01*
X74416Y218218D01*
X74431Y218234D01*
X74462Y218265D01*
X74525Y218304D01*
X74611Y218359D01*
X74712Y218413D01*
X74837Y218452D01*
X74970Y218484D01*
X75126Y218499D01*
X75197D01*
X75251Y218491D01*
X75314Y218484D01*
X75392Y218476D01*
X75478Y218460D01*
X75572Y218437D01*
X75501Y218991D01*
X75462D01*
X75431Y218983D01*
X75329D01*
X75259Y218991D01*
X75158Y219007D01*
X75048Y219030D01*
X74931Y219069D01*
X74806Y219116D01*
X74681Y219186D01*
X74666Y219194D01*
X74626Y219226D01*
X74580Y219280D01*
X74517Y219351D01*
X74455Y219436D01*
X74408Y219546D01*
X74369Y219678D01*
X74353Y219835D01*
Y219843D01*
Y219850D01*
Y219889D01*
X74369Y219952D01*
X74384Y220038D01*
X74408Y220124D01*
X74455Y220217D01*
X74509Y220319D01*
X74588Y220405D01*
X74595Y220413D01*
X74626Y220444D01*
X74681Y220483D01*
X74752Y220522D01*
X74837Y220569D01*
X74939Y220600D01*
X75056Y220631D01*
X75189Y220639D01*
X75251D01*
X75322Y220623D01*
X75400Y220608D01*
X75501Y220585D01*
X75603Y220538D01*
X75704Y220483D01*
X75806Y220405D01*
X75814Y220397D01*
X75845Y220366D01*
X75884Y220311D01*
X75931Y220233D01*
X75985Y220139D01*
X76032Y220022D01*
X76079Y219882D01*
X76110Y219718D01*
X76743Y219827D01*
Y219835D01*
X76735Y219858D01*
X76727Y219889D01*
X76720Y219928D01*
X76704Y219983D01*
X76688Y220046D01*
X76634Y220186D01*
X76571Y220342D01*
X76477Y220506D01*
X76368Y220663D01*
X76228Y220803D01*
X76220Y220811D01*
X76212Y220819D01*
X76188Y220834D01*
X76149Y220858D01*
X76110Y220881D01*
X76064Y220913D01*
X75946Y220983D01*
X75798Y221045D01*
X75618Y221100D01*
X75423Y221139D01*
X75314Y221155D01*
X75134D01*
X75056Y221147D01*
D02*
G37*
G36*
X236987Y414647D02*
X236924Y414639D01*
X236854Y414631D01*
X236776Y414623D01*
X236690Y414600D01*
X236503Y414553D01*
X236307Y414483D01*
X236206Y414436D01*
X236112Y414381D01*
X236026Y414311D01*
X235940Y414241D01*
X235932Y414233D01*
X235925Y414225D01*
X235901Y414202D01*
X235870Y414170D01*
X235839Y414123D01*
X235800Y414077D01*
X235722Y413960D01*
X235644Y413811D01*
X235573Y413639D01*
X235519Y413444D01*
X235511Y413335D01*
X235503Y413225D01*
Y413210D01*
Y413171D01*
X235511Y413108D01*
X235519Y413030D01*
X235534Y412936D01*
X235558Y412835D01*
X235589Y412725D01*
X235636Y412616D01*
X235644Y412601D01*
X235659Y412562D01*
X235690Y412507D01*
X235737Y412429D01*
X235792Y412335D01*
X235862Y412226D01*
X235956Y412116D01*
X236057Y411991D01*
X236073Y411976D01*
X236112Y411929D01*
X236182Y411859D01*
X236229Y411812D01*
X236284Y411757D01*
X236347Y411695D01*
X236425Y411624D01*
X236503Y411554D01*
X236589Y411468D01*
X236682Y411382D01*
X236792Y411288D01*
X236901Y411195D01*
X237026Y411085D01*
X237034Y411078D01*
X237049Y411062D01*
X237081Y411039D01*
X237120Y411007D01*
X237213Y410929D01*
X237331Y410828D01*
X237448Y410718D01*
X237573Y410609D01*
X237674Y410515D01*
X237713Y410476D01*
X237752Y410437D01*
X237760Y410429D01*
X237776Y410406D01*
X237807Y410375D01*
X237846Y410328D01*
X237932Y410226D01*
X238018Y410101D01*
X235495D01*
Y409500D01*
X238893D01*
Y409508D01*
Y409539D01*
Y409586D01*
X238885Y409641D01*
X238877Y409703D01*
X238869Y409773D01*
X238846Y409852D01*
X238822Y409930D01*
Y409937D01*
X238814Y409945D01*
X238799Y409992D01*
X238768Y410054D01*
X238721Y410148D01*
X238666Y410250D01*
X238588Y410367D01*
X238510Y410484D01*
X238408Y410609D01*
Y410617D01*
X238393Y410625D01*
X238354Y410672D01*
X238291Y410742D01*
X238197Y410836D01*
X238080Y410945D01*
X237940Y411078D01*
X237768Y411226D01*
X237580Y411390D01*
X237573Y411398D01*
X237541Y411421D01*
X237502Y411452D01*
X237448Y411507D01*
X237377Y411562D01*
X237299Y411632D01*
X237127Y411781D01*
X236940Y411960D01*
X236753Y412140D01*
X236659Y412226D01*
X236581Y412312D01*
X236510Y412397D01*
X236448Y412476D01*
Y412483D01*
X236432Y412491D01*
X236417Y412515D01*
X236401Y412546D01*
X236354Y412624D01*
X236300Y412725D01*
X236245Y412843D01*
X236198Y412968D01*
X236167Y413108D01*
X236151Y413241D01*
Y413249D01*
Y413257D01*
X236159Y413304D01*
X236167Y413374D01*
X236182Y413460D01*
X236222Y413561D01*
X236268Y413663D01*
X236331Y413772D01*
X236425Y413874D01*
X236440Y413881D01*
X236471Y413913D01*
X236534Y413952D01*
X236612Y414006D01*
X236714Y414053D01*
X236831Y414092D01*
X236971Y414123D01*
X237127Y414131D01*
X237174D01*
X237206Y414123D01*
X237284Y414116D01*
X237385Y414100D01*
X237502Y414061D01*
X237627Y414014D01*
X237744Y413944D01*
X237854Y413850D01*
X237862Y413835D01*
X237893Y413803D01*
X237940Y413741D01*
X237987Y413655D01*
X238041Y413546D01*
X238080Y413421D01*
X238111Y413272D01*
X238127Y413100D01*
X238775Y413171D01*
Y413178D01*
Y413202D01*
X238768Y413241D01*
X238760Y413288D01*
X238744Y413350D01*
X238736Y413421D01*
X238689Y413577D01*
X238627Y413757D01*
X238541Y413936D01*
X238424Y414116D01*
X238362Y414194D01*
X238283Y414272D01*
X238276Y414280D01*
X238260Y414288D01*
X238236Y414311D01*
X238205Y414334D01*
X238158Y414358D01*
X238104Y414397D01*
X238041Y414428D01*
X237971Y414467D01*
X237893Y414498D01*
X237807Y414537D01*
X237705Y414569D01*
X237604Y414592D01*
X237370Y414639D01*
X237245Y414647D01*
X237112Y414655D01*
X237042D01*
X236987Y414647D01*
D02*
G37*
G36*
X240416Y409500D02*
X241048D01*
Y413514D01*
X241056Y413507D01*
X241087Y413475D01*
X241142Y413436D01*
X241212Y413382D01*
X241298Y413311D01*
X241400Y413241D01*
X241517Y413155D01*
X241650Y413077D01*
X241657D01*
X241665Y413069D01*
X241712Y413038D01*
X241782Y412999D01*
X241868Y412952D01*
X241970Y412897D01*
X242079Y412851D01*
X242196Y412796D01*
X242305Y412749D01*
Y413366D01*
X242298D01*
X242282Y413374D01*
X242251Y413389D01*
X242220Y413413D01*
X242173Y413436D01*
X242118Y413460D01*
X241993Y413530D01*
X241852Y413616D01*
X241696Y413717D01*
X241540Y413835D01*
X241392Y413960D01*
X241384Y413967D01*
X241376Y413975D01*
X241329Y414022D01*
X241259Y414092D01*
X241173Y414178D01*
X241079Y414288D01*
X240986Y414405D01*
X240900Y414530D01*
X240829Y414655D01*
X240416D01*
Y409500D01*
D02*
G37*
G36*
X225932D02*
X226565D01*
Y413514D01*
X226573Y413507D01*
X226604Y413475D01*
X226659Y413436D01*
X226729Y413382D01*
X226815Y413311D01*
X226916Y413241D01*
X227034Y413155D01*
X227166Y413077D01*
X227174D01*
X227182Y413069D01*
X227229Y413038D01*
X227299Y412999D01*
X227385Y412952D01*
X227487Y412897D01*
X227596Y412851D01*
X227713Y412796D01*
X227822Y412749D01*
Y413366D01*
X227815D01*
X227799Y413374D01*
X227768Y413389D01*
X227736Y413413D01*
X227690Y413436D01*
X227635Y413460D01*
X227510Y413530D01*
X227369Y413616D01*
X227213Y413717D01*
X227057Y413835D01*
X226909Y413960D01*
X226901Y413967D01*
X226893Y413975D01*
X226846Y414022D01*
X226776Y414092D01*
X226690Y414178D01*
X226596Y414288D01*
X226502Y414405D01*
X226417Y414530D01*
X226346Y414655D01*
X225932D01*
Y409500D01*
D02*
G37*
G36*
X229915D02*
X230548D01*
Y413514D01*
X230556Y413507D01*
X230587Y413475D01*
X230642Y413436D01*
X230712Y413382D01*
X230798Y413311D01*
X230900Y413241D01*
X231017Y413155D01*
X231150Y413077D01*
X231157D01*
X231165Y413069D01*
X231212Y413038D01*
X231282Y412999D01*
X231368Y412952D01*
X231470Y412897D01*
X231579Y412851D01*
X231696Y412796D01*
X231805Y412749D01*
Y413366D01*
X231798D01*
X231782Y413374D01*
X231751Y413389D01*
X231720Y413413D01*
X231673Y413436D01*
X231618Y413460D01*
X231493Y413530D01*
X231352Y413616D01*
X231196Y413717D01*
X231040Y413835D01*
X230892Y413960D01*
X230884Y413967D01*
X230876Y413975D01*
X230829Y414022D01*
X230759Y414092D01*
X230673Y414178D01*
X230579Y414288D01*
X230486Y414405D01*
X230400Y414530D01*
X230329Y414655D01*
X229915D01*
Y409500D01*
D02*
G37*
G36*
X247486Y414077D02*
X247494Y414069D01*
X247510Y414053D01*
X247533Y414022D01*
X247572Y413983D01*
X247611Y413928D01*
X247666Y413866D01*
X247728Y413788D01*
X247791Y413710D01*
X247861Y413616D01*
X247939Y413507D01*
X248025Y413397D01*
X248103Y413272D01*
X248189Y413139D01*
X248283Y412999D01*
X248369Y412843D01*
X248463Y412686D01*
X248470Y412679D01*
X248486Y412647D01*
X248509Y412601D01*
X248541Y412538D01*
X248580Y412460D01*
X248626Y412366D01*
X248681Y412257D01*
X248736Y412140D01*
X248791Y412015D01*
X248853Y411874D01*
X248916Y411726D01*
X248978Y411570D01*
X249095Y411249D01*
X249204Y410906D01*
Y410898D01*
X249212Y410875D01*
X249220Y410843D01*
X249236Y410796D01*
X249251Y410734D01*
X249267Y410664D01*
X249283Y410578D01*
X249306Y410492D01*
X249322Y410390D01*
X249345Y410281D01*
X249384Y410047D01*
X249415Y409781D01*
X249439Y409500D01*
X250087D01*
Y409508D01*
Y409531D01*
Y409562D01*
X250079Y409609D01*
Y409664D01*
X250071Y409734D01*
X250063Y409820D01*
X250056Y409906D01*
X250040Y410008D01*
X250025Y410125D01*
X250009Y410242D01*
X249985Y410367D01*
X249962Y410507D01*
X249931Y410648D01*
X249853Y410960D01*
Y410968D01*
X249845Y410999D01*
X249829Y411046D01*
X249814Y411109D01*
X249790Y411187D01*
X249759Y411273D01*
X249728Y411374D01*
X249689Y411492D01*
X249642Y411609D01*
X249595Y411741D01*
X249486Y412023D01*
X249353Y412319D01*
X249204Y412616D01*
X249197Y412624D01*
X249181Y412655D01*
X249158Y412694D01*
X249126Y412749D01*
X249087Y412819D01*
X249040Y412897D01*
X248986Y412983D01*
X248931Y413085D01*
X248791Y413296D01*
X248634Y413522D01*
X248470Y413749D01*
X248291Y413967D01*
X250805D01*
Y414569D01*
X247486D01*
Y414077D01*
D02*
G37*
G36*
X260025Y414733D02*
X259962D01*
X259900Y414717D01*
X259744Y414694D01*
X259572Y414647D01*
X259392Y414576D01*
X259298Y414530D01*
X259213Y414483D01*
X259127Y414420D01*
X259049Y414350D01*
X259041Y414342D01*
X259033Y414334D01*
X259010Y414311D01*
X258986Y414280D01*
X258955Y414241D01*
X258916Y414194D01*
X258838Y414084D01*
X258767Y413944D01*
X258697Y413780D01*
X258650Y413600D01*
X258643Y413499D01*
X258635Y413397D01*
Y413382D01*
Y413335D01*
X258643Y413272D01*
X258658Y413186D01*
X258682Y413085D01*
X258713Y412983D01*
X258760Y412874D01*
X258822Y412772D01*
X258830Y412765D01*
X258853Y412733D01*
X258900Y412686D01*
X258963Y412624D01*
X259041Y412562D01*
X259142Y412499D01*
X259259Y412429D01*
X259392Y412374D01*
X259384D01*
X259369Y412366D01*
X259345Y412359D01*
X259314Y412343D01*
X259228Y412304D01*
X259127Y412257D01*
X259010Y412187D01*
X258892Y412101D01*
X258775Y411991D01*
X258674Y411874D01*
X258666Y411859D01*
X258635Y411812D01*
X258596Y411741D01*
X258549Y411640D01*
X258502Y411523D01*
X258463Y411382D01*
X258432Y411226D01*
X258424Y411054D01*
Y411046D01*
Y411023D01*
Y410992D01*
X258432Y410945D01*
X258439Y410890D01*
X258447Y410820D01*
X258478Y410664D01*
X258541Y410492D01*
X258572Y410398D01*
X258619Y410304D01*
X258674Y410211D01*
X258736Y410117D01*
X258806Y410031D01*
X258892Y409945D01*
X258900Y409937D01*
X258916Y409930D01*
X258939Y409906D01*
X258978Y409875D01*
X259025Y409844D01*
X259080Y409805D01*
X259142Y409765D01*
X259220Y409726D01*
X259306Y409680D01*
X259400Y409641D01*
X259502Y409601D01*
X259611Y409570D01*
X259720Y409539D01*
X259845Y409516D01*
X259978Y409508D01*
X260119Y409500D01*
X260189D01*
X260244Y409508D01*
X260306Y409516D01*
X260384Y409523D01*
X260462Y409539D01*
X260556Y409555D01*
X260751Y409609D01*
X260853Y409648D01*
X260954Y409687D01*
X261056Y409742D01*
X261157Y409797D01*
X261251Y409867D01*
X261345Y409945D01*
X261352Y409953D01*
X261368Y409969D01*
X261384Y409992D01*
X261415Y410023D01*
X261454Y410070D01*
X261493Y410125D01*
X261532Y410187D01*
X261571Y410258D01*
X261618Y410336D01*
X261657Y410422D01*
X261735Y410609D01*
X261766Y410718D01*
X261782Y410828D01*
X261798Y410945D01*
X261806Y411070D01*
Y411078D01*
Y411093D01*
Y411117D01*
X261798Y411156D01*
Y411195D01*
X261790Y411249D01*
X261774Y411359D01*
X261743Y411492D01*
X261696Y411632D01*
X261642Y411773D01*
X261556Y411905D01*
Y411913D01*
X261540Y411921D01*
X261509Y411960D01*
X261446Y412023D01*
X261368Y412093D01*
X261267Y412171D01*
X261142Y412249D01*
X260993Y412319D01*
X260829Y412374D01*
X260837D01*
X260845Y412382D01*
X260892Y412397D01*
X260962Y412437D01*
X261048Y412476D01*
X261150Y412538D01*
X261243Y412608D01*
X261337Y412686D01*
X261415Y412780D01*
X261423Y412796D01*
X261446Y412827D01*
X261477Y412882D01*
X261509Y412960D01*
X261540Y413054D01*
X261571Y413163D01*
X261595Y413280D01*
X261602Y413413D01*
Y413421D01*
Y413436D01*
Y413468D01*
X261595Y413507D01*
X261587Y413553D01*
X261579Y413608D01*
X261556Y413741D01*
X261509Y413889D01*
X261431Y414045D01*
X261392Y414131D01*
X261337Y414209D01*
X261274Y414288D01*
X261204Y414358D01*
X261196Y414366D01*
X261189Y414373D01*
X261165Y414397D01*
X261134Y414420D01*
X261087Y414444D01*
X261040Y414483D01*
X260985Y414514D01*
X260915Y414553D01*
X260767Y414623D01*
X260579Y414678D01*
X260368Y414725D01*
X260259Y414733D01*
X260134Y414741D01*
X260072D01*
X260025Y414733D01*
D02*
G37*
G36*
X392854Y189500D02*
X393487D01*
Y193514D01*
X393495Y193507D01*
X393526Y193475D01*
X393581Y193436D01*
X393651Y193382D01*
X393737Y193311D01*
X393839Y193241D01*
X393956Y193155D01*
X394088Y193077D01*
X394096D01*
X394104Y193069D01*
X394151Y193038D01*
X394221Y192999D01*
X394307Y192952D01*
X394409Y192897D01*
X394518Y192850D01*
X394635Y192796D01*
X394744Y192749D01*
Y193366D01*
X394737D01*
X394721Y193374D01*
X394690Y193389D01*
X394659Y193413D01*
X394612Y193436D01*
X394557Y193460D01*
X394432Y193530D01*
X394291Y193616D01*
X394135Y193717D01*
X393979Y193834D01*
X393831Y193959D01*
X393823Y193967D01*
X393815Y193975D01*
X393768Y194022D01*
X393698Y194092D01*
X393612Y194178D01*
X393518Y194288D01*
X393425Y194405D01*
X393339Y194530D01*
X393268Y194655D01*
X392854D01*
Y189500D01*
D02*
G37*
G36*
X397392Y194647D02*
X397330Y194639D01*
X397259Y194631D01*
X397181Y194623D01*
X397095Y194600D01*
X396908Y194553D01*
X396713Y194483D01*
X396611Y194436D01*
X396517Y194381D01*
X396431Y194311D01*
X396345Y194241D01*
X396338Y194233D01*
X396330Y194225D01*
X396306Y194202D01*
X396275Y194170D01*
X396244Y194123D01*
X396205Y194077D01*
X396127Y193959D01*
X396049Y193811D01*
X395978Y193639D01*
X395924Y193444D01*
X395916Y193335D01*
X395908Y193225D01*
Y193210D01*
Y193171D01*
X395916Y193108D01*
X395924Y193030D01*
X395939Y192936D01*
X395963Y192835D01*
X395994Y192726D01*
X396041Y192616D01*
X396049Y192601D01*
X396064Y192561D01*
X396096Y192507D01*
X396143Y192429D01*
X396197Y192335D01*
X396267Y192226D01*
X396361Y192116D01*
X396463Y191991D01*
X396478Y191976D01*
X396517Y191929D01*
X396588Y191859D01*
X396635Y191812D01*
X396689Y191757D01*
X396752Y191695D01*
X396830Y191624D01*
X396908Y191554D01*
X396994Y191468D01*
X397088Y191382D01*
X397197Y191288D01*
X397306Y191195D01*
X397431Y191085D01*
X397439Y191078D01*
X397455Y191062D01*
X397486Y191039D01*
X397525Y191007D01*
X397619Y190929D01*
X397736Y190828D01*
X397853Y190718D01*
X397978Y190609D01*
X398079Y190515D01*
X398118Y190476D01*
X398157Y190437D01*
X398165Y190429D01*
X398181Y190406D01*
X398212Y190375D01*
X398251Y190328D01*
X398337Y190226D01*
X398423Y190101D01*
X395900D01*
Y189500D01*
X399298D01*
Y189508D01*
Y189539D01*
Y189586D01*
X399290Y189641D01*
X399282Y189703D01*
X399274Y189773D01*
X399251Y189851D01*
X399227Y189929D01*
Y189937D01*
X399220Y189945D01*
X399204Y189992D01*
X399173Y190055D01*
X399126Y190148D01*
X399071Y190250D01*
X398993Y190367D01*
X398915Y190484D01*
X398814Y190609D01*
Y190617D01*
X398798Y190625D01*
X398759Y190672D01*
X398696Y190742D01*
X398603Y190835D01*
X398485Y190945D01*
X398345Y191078D01*
X398173Y191226D01*
X397986Y191390D01*
X397978Y191398D01*
X397947Y191421D01*
X397907Y191453D01*
X397853Y191507D01*
X397782Y191562D01*
X397704Y191632D01*
X397533Y191780D01*
X397345Y191960D01*
X397158Y192140D01*
X397064Y192226D01*
X396986Y192312D01*
X396916Y192397D01*
X396853Y192476D01*
Y192483D01*
X396837Y192491D01*
X396822Y192515D01*
X396806Y192546D01*
X396759Y192624D01*
X396705Y192726D01*
X396650Y192843D01*
X396603Y192968D01*
X396572Y193108D01*
X396556Y193241D01*
Y193249D01*
Y193257D01*
X396564Y193304D01*
X396572Y193374D01*
X396588Y193460D01*
X396627Y193561D01*
X396673Y193663D01*
X396736Y193772D01*
X396830Y193874D01*
X396845Y193881D01*
X396877Y193913D01*
X396939Y193952D01*
X397017Y194006D01*
X397119Y194053D01*
X397236Y194092D01*
X397376Y194123D01*
X397533Y194131D01*
X397580D01*
X397611Y194123D01*
X397689Y194116D01*
X397790Y194100D01*
X397907Y194061D01*
X398032Y194014D01*
X398150Y193944D01*
X398259Y193850D01*
X398267Y193834D01*
X398298Y193803D01*
X398345Y193741D01*
X398392Y193655D01*
X398446Y193546D01*
X398485Y193421D01*
X398517Y193272D01*
X398532Y193100D01*
X399181Y193171D01*
Y193178D01*
Y193202D01*
X399173Y193241D01*
X399165Y193288D01*
X399149Y193350D01*
X399142Y193421D01*
X399095Y193577D01*
X399032Y193756D01*
X398946Y193936D01*
X398829Y194116D01*
X398767Y194194D01*
X398689Y194272D01*
X398681Y194280D01*
X398665Y194288D01*
X398642Y194311D01*
X398610Y194334D01*
X398564Y194358D01*
X398509Y194397D01*
X398446Y194428D01*
X398376Y194467D01*
X398298Y194498D01*
X398212Y194537D01*
X398111Y194569D01*
X398009Y194592D01*
X397775Y194639D01*
X397650Y194647D01*
X397517Y194655D01*
X397447D01*
X397392Y194647D01*
D02*
G37*
G36*
X393409Y183647D02*
X393347Y183639D01*
X393276Y183631D01*
X393198Y183623D01*
X393112Y183600D01*
X392925Y183553D01*
X392729Y183483D01*
X392628Y183436D01*
X392534Y183381D01*
X392448Y183311D01*
X392362Y183241D01*
X392355Y183233D01*
X392347Y183225D01*
X392323Y183202D01*
X392292Y183170D01*
X392261Y183124D01*
X392222Y183077D01*
X392144Y182959D01*
X392066Y182811D01*
X391995Y182639D01*
X391941Y182444D01*
X391933Y182335D01*
X391925Y182225D01*
Y182210D01*
Y182171D01*
X391933Y182108D01*
X391941Y182030D01*
X391956Y181936D01*
X391980Y181835D01*
X392011Y181726D01*
X392058Y181616D01*
X392066Y181601D01*
X392081Y181562D01*
X392112Y181507D01*
X392159Y181429D01*
X392214Y181335D01*
X392284Y181226D01*
X392378Y181116D01*
X392480Y180991D01*
X392495Y180976D01*
X392534Y180929D01*
X392604Y180859D01*
X392651Y180812D01*
X392706Y180757D01*
X392769Y180695D01*
X392847Y180624D01*
X392925Y180554D01*
X393011Y180468D01*
X393104Y180382D01*
X393214Y180289D01*
X393323Y180195D01*
X393448Y180085D01*
X393456Y180078D01*
X393471Y180062D01*
X393503Y180039D01*
X393542Y180007D01*
X393635Y179929D01*
X393753Y179828D01*
X393870Y179718D01*
X393995Y179609D01*
X394096Y179515D01*
X394135Y179476D01*
X394174Y179437D01*
X394182Y179429D01*
X394198Y179406D01*
X394229Y179375D01*
X394268Y179328D01*
X394354Y179226D01*
X394440Y179101D01*
X391917D01*
Y178500D01*
X395315D01*
Y178508D01*
Y178539D01*
Y178586D01*
X395307Y178641D01*
X395299Y178703D01*
X395291Y178773D01*
X395268Y178851D01*
X395244Y178929D01*
Y178937D01*
X395236Y178945D01*
X395221Y178992D01*
X395190Y179054D01*
X395143Y179148D01*
X395088Y179250D01*
X395010Y179367D01*
X394932Y179484D01*
X394830Y179609D01*
Y179617D01*
X394815Y179625D01*
X394776Y179672D01*
X394713Y179742D01*
X394619Y179835D01*
X394502Y179945D01*
X394362Y180078D01*
X394190Y180226D01*
X394003Y180390D01*
X393995Y180398D01*
X393964Y180421D01*
X393924Y180453D01*
X393870Y180507D01*
X393799Y180562D01*
X393721Y180632D01*
X393549Y180780D01*
X393362Y180960D01*
X393175Y181140D01*
X393081Y181226D01*
X393003Y181312D01*
X392933Y181397D01*
X392870Y181476D01*
Y181483D01*
X392854Y181491D01*
X392839Y181515D01*
X392823Y181546D01*
X392776Y181624D01*
X392722Y181726D01*
X392667Y181843D01*
X392620Y181968D01*
X392589Y182108D01*
X392573Y182241D01*
Y182249D01*
Y182257D01*
X392581Y182304D01*
X392589Y182374D01*
X392604Y182460D01*
X392644Y182561D01*
X392690Y182663D01*
X392753Y182772D01*
X392847Y182874D01*
X392862Y182881D01*
X392894Y182913D01*
X392956Y182952D01*
X393034Y183006D01*
X393136Y183053D01*
X393253Y183092D01*
X393393Y183124D01*
X393549Y183131D01*
X393596D01*
X393628Y183124D01*
X393706Y183116D01*
X393807Y183100D01*
X393924Y183061D01*
X394049Y183014D01*
X394166Y182944D01*
X394276Y182850D01*
X394284Y182834D01*
X394315Y182803D01*
X394362Y182741D01*
X394409Y182655D01*
X394463Y182546D01*
X394502Y182421D01*
X394534Y182272D01*
X394549Y182100D01*
X395197Y182171D01*
Y182178D01*
Y182202D01*
X395190Y182241D01*
X395182Y182288D01*
X395166Y182350D01*
X395158Y182421D01*
X395111Y182577D01*
X395049Y182756D01*
X394963Y182936D01*
X394846Y183116D01*
X394783Y183194D01*
X394705Y183272D01*
X394698Y183280D01*
X394682Y183288D01*
X394659Y183311D01*
X394627Y183334D01*
X394581Y183358D01*
X394526Y183397D01*
X394463Y183428D01*
X394393Y183467D01*
X394315Y183498D01*
X394229Y183537D01*
X394127Y183569D01*
X394026Y183592D01*
X393792Y183639D01*
X393667Y183647D01*
X393534Y183655D01*
X393464D01*
X393409Y183647D01*
D02*
G37*
G36*
X397392D02*
X397330Y183639D01*
X397259Y183631D01*
X397181Y183623D01*
X397095Y183600D01*
X396908Y183553D01*
X396713Y183483D01*
X396611Y183436D01*
X396517Y183381D01*
X396431Y183311D01*
X396345Y183241D01*
X396338Y183233D01*
X396330Y183225D01*
X396306Y183202D01*
X396275Y183170D01*
X396244Y183124D01*
X396205Y183077D01*
X396127Y182959D01*
X396049Y182811D01*
X395978Y182639D01*
X395924Y182444D01*
X395916Y182335D01*
X395908Y182225D01*
Y182210D01*
Y182171D01*
X395916Y182108D01*
X395924Y182030D01*
X395939Y181936D01*
X395963Y181835D01*
X395994Y181726D01*
X396041Y181616D01*
X396049Y181601D01*
X396064Y181562D01*
X396096Y181507D01*
X396143Y181429D01*
X396197Y181335D01*
X396267Y181226D01*
X396361Y181116D01*
X396463Y180991D01*
X396478Y180976D01*
X396517Y180929D01*
X396588Y180859D01*
X396635Y180812D01*
X396689Y180757D01*
X396752Y180695D01*
X396830Y180624D01*
X396908Y180554D01*
X396994Y180468D01*
X397088Y180382D01*
X397197Y180289D01*
X397306Y180195D01*
X397431Y180085D01*
X397439Y180078D01*
X397455Y180062D01*
X397486Y180039D01*
X397525Y180007D01*
X397619Y179929D01*
X397736Y179828D01*
X397853Y179718D01*
X397978Y179609D01*
X398079Y179515D01*
X398118Y179476D01*
X398157Y179437D01*
X398165Y179429D01*
X398181Y179406D01*
X398212Y179375D01*
X398251Y179328D01*
X398337Y179226D01*
X398423Y179101D01*
X395900D01*
Y178500D01*
X399298D01*
Y178508D01*
Y178539D01*
Y178586D01*
X399290Y178641D01*
X399282Y178703D01*
X399274Y178773D01*
X399251Y178851D01*
X399227Y178929D01*
Y178937D01*
X399220Y178945D01*
X399204Y178992D01*
X399173Y179054D01*
X399126Y179148D01*
X399071Y179250D01*
X398993Y179367D01*
X398915Y179484D01*
X398814Y179609D01*
Y179617D01*
X398798Y179625D01*
X398759Y179672D01*
X398696Y179742D01*
X398603Y179835D01*
X398485Y179945D01*
X398345Y180078D01*
X398173Y180226D01*
X397986Y180390D01*
X397978Y180398D01*
X397947Y180421D01*
X397907Y180453D01*
X397853Y180507D01*
X397782Y180562D01*
X397704Y180632D01*
X397533Y180780D01*
X397345Y180960D01*
X397158Y181140D01*
X397064Y181226D01*
X396986Y181312D01*
X396916Y181397D01*
X396853Y181476D01*
Y181483D01*
X396837Y181491D01*
X396822Y181515D01*
X396806Y181546D01*
X396759Y181624D01*
X396705Y181726D01*
X396650Y181843D01*
X396603Y181968D01*
X396572Y182108D01*
X396556Y182241D01*
Y182249D01*
Y182257D01*
X396564Y182304D01*
X396572Y182374D01*
X396588Y182460D01*
X396627Y182561D01*
X396673Y182663D01*
X396736Y182772D01*
X396830Y182874D01*
X396845Y182881D01*
X396877Y182913D01*
X396939Y182952D01*
X397017Y183006D01*
X397119Y183053D01*
X397236Y183092D01*
X397376Y183124D01*
X397533Y183131D01*
X397580D01*
X397611Y183124D01*
X397689Y183116D01*
X397790Y183100D01*
X397907Y183061D01*
X398032Y183014D01*
X398150Y182944D01*
X398259Y182850D01*
X398267Y182834D01*
X398298Y182803D01*
X398345Y182741D01*
X398392Y182655D01*
X398446Y182546D01*
X398485Y182421D01*
X398517Y182272D01*
X398532Y182100D01*
X399181Y182171D01*
Y182178D01*
Y182202D01*
X399173Y182241D01*
X399165Y182288D01*
X399149Y182350D01*
X399142Y182421D01*
X399095Y182577D01*
X399032Y182756D01*
X398946Y182936D01*
X398829Y183116D01*
X398767Y183194D01*
X398689Y183272D01*
X398681Y183280D01*
X398665Y183288D01*
X398642Y183311D01*
X398610Y183334D01*
X398564Y183358D01*
X398509Y183397D01*
X398446Y183428D01*
X398376Y183467D01*
X398298Y183498D01*
X398212Y183537D01*
X398111Y183569D01*
X398009Y183592D01*
X397775Y183639D01*
X397650Y183647D01*
X397517Y183655D01*
X397447D01*
X397392Y183647D01*
D02*
G37*
G36*
X393471Y173147D02*
X393370Y173131D01*
X393253Y173108D01*
X393120Y173076D01*
X392987Y173030D01*
X392854Y172967D01*
X392847D01*
X392839Y172959D01*
X392792Y172936D01*
X392729Y172897D01*
X392651Y172842D01*
X392565Y172772D01*
X392472Y172686D01*
X392386Y172584D01*
X392308Y172475D01*
X392300Y172459D01*
X392277Y172421D01*
X392245Y172358D01*
X392214Y172280D01*
X392183Y172178D01*
X392151Y172069D01*
X392128Y171952D01*
X392120Y171819D01*
Y171803D01*
Y171764D01*
X392128Y171702D01*
X392144Y171624D01*
X392167Y171530D01*
X392198Y171429D01*
X392237Y171319D01*
X392300Y171218D01*
X392308Y171202D01*
X392331Y171171D01*
X392378Y171124D01*
X392433Y171062D01*
X392511Y170991D01*
X392597Y170921D01*
X392706Y170843D01*
X392831Y170780D01*
X392823D01*
X392808Y170773D01*
X392784D01*
X392753Y170757D01*
X392675Y170733D01*
X392573Y170687D01*
X392464Y170632D01*
X392347Y170554D01*
X392230Y170460D01*
X392128Y170343D01*
X392120Y170327D01*
X392089Y170281D01*
X392050Y170210D01*
X391995Y170116D01*
X391949Y169999D01*
X391909Y169859D01*
X391878Y169695D01*
X391870Y169515D01*
Y169507D01*
Y169484D01*
Y169453D01*
X391878Y169406D01*
X391886Y169343D01*
X391894Y169281D01*
X391909Y169203D01*
X391933Y169125D01*
X391987Y168945D01*
X392027Y168843D01*
X392081Y168750D01*
X392136Y168656D01*
X392198Y168562D01*
X392277Y168469D01*
X392362Y168375D01*
X392370Y168367D01*
X392386Y168351D01*
X392409Y168336D01*
X392448Y168305D01*
X392495Y168265D01*
X392558Y168227D01*
X392628Y168187D01*
X392698Y168148D01*
X392784Y168102D01*
X392878Y168062D01*
X392979Y168023D01*
X393089Y167984D01*
X393206Y167953D01*
X393331Y167938D01*
X393464Y167922D01*
X393596Y167914D01*
X393659D01*
X393706Y167922D01*
X393768Y167930D01*
X393831Y167938D01*
X393909Y167945D01*
X393987Y167961D01*
X394166Y168008D01*
X394354Y168086D01*
X394448Y168125D01*
X394534Y168180D01*
X394627Y168242D01*
X394713Y168312D01*
X394721Y168320D01*
X394729Y168328D01*
X394752Y168351D01*
X394783Y168383D01*
X394815Y168430D01*
X394854Y168476D01*
X394901Y168531D01*
X394940Y168594D01*
X395033Y168750D01*
X395111Y168929D01*
X395182Y169132D01*
X395205Y169242D01*
X395221Y169359D01*
X394588Y169445D01*
Y169437D01*
X394581Y169421D01*
Y169390D01*
X394565Y169359D01*
X394541Y169265D01*
X394502Y169148D01*
X394456Y169023D01*
X394393Y168890D01*
X394315Y168773D01*
X394229Y168672D01*
X394213Y168664D01*
X394182Y168633D01*
X394127Y168601D01*
X394049Y168554D01*
X393964Y168516D01*
X393854Y168476D01*
X393729Y168445D01*
X393596Y168437D01*
X393549D01*
X393518Y168445D01*
X393440Y168453D01*
X393339Y168476D01*
X393214Y168516D01*
X393089Y168562D01*
X392964Y168640D01*
X392847Y168742D01*
X392831Y168758D01*
X392800Y168797D01*
X392753Y168859D01*
X392690Y168953D01*
X392636Y169062D01*
X392589Y169195D01*
X392558Y169343D01*
X392542Y169507D01*
Y169515D01*
Y169523D01*
Y169546D01*
X392550Y169578D01*
X392558Y169656D01*
X392581Y169757D01*
X392612Y169867D01*
X392667Y169992D01*
X392737Y170109D01*
X392831Y170218D01*
X392847Y170234D01*
X392878Y170265D01*
X392940Y170304D01*
X393026Y170359D01*
X393128Y170413D01*
X393253Y170452D01*
X393386Y170484D01*
X393542Y170499D01*
X393612D01*
X393667Y170491D01*
X393729Y170484D01*
X393807Y170476D01*
X393893Y170460D01*
X393987Y170437D01*
X393917Y170991D01*
X393878D01*
X393846Y170983D01*
X393745D01*
X393674Y170991D01*
X393573Y171007D01*
X393464Y171030D01*
X393347Y171069D01*
X393221Y171116D01*
X393096Y171186D01*
X393081Y171194D01*
X393042Y171226D01*
X392995Y171280D01*
X392933Y171351D01*
X392870Y171436D01*
X392823Y171546D01*
X392784Y171678D01*
X392769Y171835D01*
Y171843D01*
Y171850D01*
Y171889D01*
X392784Y171952D01*
X392800Y172038D01*
X392823Y172124D01*
X392870Y172217D01*
X392925Y172319D01*
X393003Y172405D01*
X393011Y172413D01*
X393042Y172444D01*
X393096Y172483D01*
X393167Y172522D01*
X393253Y172569D01*
X393354Y172600D01*
X393471Y172631D01*
X393604Y172639D01*
X393667D01*
X393737Y172624D01*
X393815Y172608D01*
X393917Y172584D01*
X394018Y172538D01*
X394120Y172483D01*
X394221Y172405D01*
X394229Y172397D01*
X394260Y172366D01*
X394299Y172311D01*
X394346Y172233D01*
X394401Y172139D01*
X394448Y172022D01*
X394495Y171882D01*
X394526Y171718D01*
X395158Y171827D01*
Y171835D01*
X395151Y171858D01*
X395143Y171889D01*
X395135Y171928D01*
X395119Y171983D01*
X395104Y172046D01*
X395049Y172186D01*
X394987Y172342D01*
X394893Y172506D01*
X394783Y172663D01*
X394643Y172803D01*
X394635Y172811D01*
X394627Y172819D01*
X394604Y172834D01*
X394565Y172858D01*
X394526Y172881D01*
X394479Y172913D01*
X394362Y172983D01*
X394213Y173045D01*
X394034Y173100D01*
X393839Y173139D01*
X393729Y173155D01*
X393549D01*
X393471Y173147D01*
D02*
G37*
G36*
X397392D02*
X397330Y173139D01*
X397259Y173131D01*
X397181Y173123D01*
X397095Y173100D01*
X396908Y173053D01*
X396713Y172983D01*
X396611Y172936D01*
X396517Y172881D01*
X396431Y172811D01*
X396345Y172741D01*
X396338Y172733D01*
X396330Y172725D01*
X396306Y172702D01*
X396275Y172670D01*
X396244Y172624D01*
X396205Y172577D01*
X396127Y172459D01*
X396049Y172311D01*
X395978Y172139D01*
X395924Y171944D01*
X395916Y171835D01*
X395908Y171725D01*
Y171710D01*
Y171671D01*
X395916Y171608D01*
X395924Y171530D01*
X395939Y171436D01*
X395963Y171335D01*
X395994Y171226D01*
X396041Y171116D01*
X396049Y171101D01*
X396064Y171062D01*
X396096Y171007D01*
X396143Y170929D01*
X396197Y170835D01*
X396267Y170726D01*
X396361Y170616D01*
X396463Y170491D01*
X396478Y170476D01*
X396517Y170429D01*
X396588Y170359D01*
X396635Y170312D01*
X396689Y170257D01*
X396752Y170195D01*
X396830Y170124D01*
X396908Y170054D01*
X396994Y169968D01*
X397088Y169882D01*
X397197Y169789D01*
X397306Y169695D01*
X397431Y169585D01*
X397439Y169578D01*
X397455Y169562D01*
X397486Y169539D01*
X397525Y169507D01*
X397619Y169429D01*
X397736Y169328D01*
X397853Y169218D01*
X397978Y169109D01*
X398079Y169015D01*
X398118Y168976D01*
X398157Y168937D01*
X398165Y168929D01*
X398181Y168906D01*
X398212Y168875D01*
X398251Y168828D01*
X398337Y168726D01*
X398423Y168601D01*
X395900D01*
Y168000D01*
X399298D01*
Y168008D01*
Y168039D01*
Y168086D01*
X399290Y168141D01*
X399282Y168203D01*
X399274Y168273D01*
X399251Y168351D01*
X399227Y168430D01*
Y168437D01*
X399220Y168445D01*
X399204Y168492D01*
X399173Y168554D01*
X399126Y168648D01*
X399071Y168750D01*
X398993Y168867D01*
X398915Y168984D01*
X398814Y169109D01*
Y169117D01*
X398798Y169125D01*
X398759Y169172D01*
X398696Y169242D01*
X398603Y169335D01*
X398485Y169445D01*
X398345Y169578D01*
X398173Y169726D01*
X397986Y169890D01*
X397978Y169898D01*
X397947Y169921D01*
X397907Y169952D01*
X397853Y170007D01*
X397782Y170062D01*
X397704Y170132D01*
X397533Y170281D01*
X397345Y170460D01*
X397158Y170640D01*
X397064Y170726D01*
X396986Y170812D01*
X396916Y170897D01*
X396853Y170976D01*
Y170983D01*
X396837Y170991D01*
X396822Y171015D01*
X396806Y171046D01*
X396759Y171124D01*
X396705Y171226D01*
X396650Y171343D01*
X396603Y171468D01*
X396572Y171608D01*
X396556Y171741D01*
Y171749D01*
Y171757D01*
X396564Y171803D01*
X396572Y171874D01*
X396588Y171960D01*
X396627Y172061D01*
X396673Y172163D01*
X396736Y172272D01*
X396830Y172374D01*
X396845Y172381D01*
X396877Y172413D01*
X396939Y172452D01*
X397017Y172506D01*
X397119Y172553D01*
X397236Y172592D01*
X397376Y172624D01*
X397533Y172631D01*
X397580D01*
X397611Y172624D01*
X397689Y172616D01*
X397790Y172600D01*
X397907Y172561D01*
X398032Y172514D01*
X398150Y172444D01*
X398259Y172350D01*
X398267Y172335D01*
X398298Y172303D01*
X398345Y172241D01*
X398392Y172155D01*
X398446Y172046D01*
X398485Y171921D01*
X398517Y171772D01*
X398532Y171600D01*
X399181Y171671D01*
Y171678D01*
Y171702D01*
X399173Y171741D01*
X399165Y171788D01*
X399149Y171850D01*
X399142Y171921D01*
X399095Y172077D01*
X399032Y172256D01*
X398946Y172436D01*
X398829Y172616D01*
X398767Y172694D01*
X398689Y172772D01*
X398681Y172780D01*
X398665Y172787D01*
X398642Y172811D01*
X398610Y172834D01*
X398564Y172858D01*
X398509Y172897D01*
X398446Y172928D01*
X398376Y172967D01*
X398298Y172998D01*
X398212Y173037D01*
X398111Y173069D01*
X398009Y173092D01*
X397775Y173139D01*
X397650Y173147D01*
X397517Y173155D01*
X397447D01*
X397392Y173147D01*
D02*
G37*
G36*
X392081Y158304D02*
X391386D01*
Y157726D01*
X392081D01*
Y156500D01*
X392714D01*
Y157726D01*
X394940D01*
Y158304D01*
X392597Y161623D01*
X392081D01*
Y158304D01*
D02*
G37*
G36*
X396892Y161647D02*
X396830Y161639D01*
X396759Y161631D01*
X396681Y161623D01*
X396595Y161600D01*
X396408Y161553D01*
X396213Y161483D01*
X396111Y161436D01*
X396017Y161381D01*
X395931Y161311D01*
X395846Y161241D01*
X395838Y161233D01*
X395830Y161225D01*
X395807Y161202D01*
X395775Y161170D01*
X395744Y161124D01*
X395705Y161077D01*
X395627Y160959D01*
X395549Y160811D01*
X395478Y160639D01*
X395424Y160444D01*
X395416Y160335D01*
X395408Y160225D01*
Y160210D01*
Y160171D01*
X395416Y160108D01*
X395424Y160030D01*
X395439Y159936D01*
X395463Y159835D01*
X395494Y159725D01*
X395541Y159616D01*
X395549Y159601D01*
X395564Y159562D01*
X395596Y159507D01*
X395642Y159429D01*
X395697Y159335D01*
X395767Y159226D01*
X395861Y159116D01*
X395963Y158991D01*
X395978Y158976D01*
X396017Y158929D01*
X396088Y158859D01*
X396134Y158812D01*
X396189Y158757D01*
X396252Y158695D01*
X396330Y158624D01*
X396408Y158554D01*
X396494Y158468D01*
X396587Y158382D01*
X396697Y158289D01*
X396806Y158195D01*
X396931Y158085D01*
X396939Y158078D01*
X396954Y158062D01*
X396986Y158039D01*
X397025Y158007D01*
X397118Y157929D01*
X397236Y157828D01*
X397353Y157718D01*
X397478Y157609D01*
X397579Y157515D01*
X397618Y157476D01*
X397657Y157437D01*
X397665Y157429D01*
X397681Y157406D01*
X397712Y157375D01*
X397751Y157328D01*
X397837Y157226D01*
X397923Y157101D01*
X395400D01*
Y156500D01*
X398798D01*
Y156508D01*
Y156539D01*
Y156586D01*
X398790Y156641D01*
X398782Y156703D01*
X398774Y156773D01*
X398751Y156851D01*
X398727Y156930D01*
Y156937D01*
X398720Y156945D01*
X398704Y156992D01*
X398673Y157054D01*
X398626Y157148D01*
X398571Y157250D01*
X398493Y157367D01*
X398415Y157484D01*
X398313Y157609D01*
Y157617D01*
X398298Y157625D01*
X398259Y157671D01*
X398196Y157742D01*
X398103Y157835D01*
X397985Y157945D01*
X397845Y158078D01*
X397673Y158226D01*
X397486Y158390D01*
X397478Y158398D01*
X397447Y158421D01*
X397408Y158452D01*
X397353Y158507D01*
X397283Y158562D01*
X397204Y158632D01*
X397033Y158781D01*
X396845Y158960D01*
X396658Y159140D01*
X396564Y159226D01*
X396486Y159312D01*
X396416Y159397D01*
X396353Y159476D01*
Y159483D01*
X396338Y159491D01*
X396322Y159515D01*
X396306Y159546D01*
X396259Y159624D01*
X396205Y159725D01*
X396150Y159843D01*
X396103Y159968D01*
X396072Y160108D01*
X396056Y160241D01*
Y160249D01*
Y160257D01*
X396064Y160303D01*
X396072Y160374D01*
X396088Y160460D01*
X396127Y160561D01*
X396174Y160663D01*
X396236Y160772D01*
X396330Y160874D01*
X396345Y160881D01*
X396377Y160913D01*
X396439Y160952D01*
X396517Y161006D01*
X396619Y161053D01*
X396736Y161092D01*
X396876Y161124D01*
X397033Y161131D01*
X397079D01*
X397111Y161124D01*
X397189Y161116D01*
X397290Y161100D01*
X397408Y161061D01*
X397533Y161014D01*
X397650Y160944D01*
X397759Y160850D01*
X397767Y160835D01*
X397798Y160803D01*
X397845Y160741D01*
X397892Y160655D01*
X397946Y160546D01*
X397985Y160421D01*
X398017Y160272D01*
X398032Y160100D01*
X398680Y160171D01*
Y160178D01*
Y160202D01*
X398673Y160241D01*
X398665Y160288D01*
X398649Y160350D01*
X398641Y160421D01*
X398595Y160577D01*
X398532Y160756D01*
X398446Y160936D01*
X398329Y161116D01*
X398267Y161194D01*
X398188Y161272D01*
X398181Y161280D01*
X398165Y161287D01*
X398142Y161311D01*
X398110Y161334D01*
X398063Y161358D01*
X398009Y161397D01*
X397946Y161428D01*
X397876Y161467D01*
X397798Y161498D01*
X397712Y161537D01*
X397611Y161569D01*
X397509Y161592D01*
X397275Y161639D01*
X397150Y161647D01*
X397017Y161655D01*
X396947D01*
X396892Y161647D01*
D02*
G37*
G36*
X400892Y281647D02*
X400830Y281639D01*
X400759Y281631D01*
X400681Y281623D01*
X400595Y281600D01*
X400408Y281553D01*
X400213Y281483D01*
X400111Y281436D01*
X400017Y281381D01*
X399931Y281311D01*
X399846Y281241D01*
X399838Y281233D01*
X399830Y281225D01*
X399806Y281202D01*
X399775Y281170D01*
X399744Y281123D01*
X399705Y281077D01*
X399627Y280960D01*
X399549Y280811D01*
X399478Y280639D01*
X399424Y280444D01*
X399416Y280335D01*
X399408Y280225D01*
Y280210D01*
Y280171D01*
X399416Y280108D01*
X399424Y280030D01*
X399439Y279936D01*
X399463Y279835D01*
X399494Y279726D01*
X399541Y279616D01*
X399549Y279601D01*
X399564Y279561D01*
X399596Y279507D01*
X399642Y279429D01*
X399697Y279335D01*
X399767Y279226D01*
X399861Y279116D01*
X399963Y278991D01*
X399978Y278976D01*
X400017Y278929D01*
X400088Y278859D01*
X400135Y278812D01*
X400189Y278757D01*
X400252Y278695D01*
X400330Y278624D01*
X400408Y278554D01*
X400494Y278468D01*
X400588Y278382D01*
X400697Y278289D01*
X400806Y278195D01*
X400931Y278085D01*
X400939Y278078D01*
X400954Y278062D01*
X400986Y278039D01*
X401025Y278007D01*
X401119Y277929D01*
X401236Y277828D01*
X401353Y277718D01*
X401478Y277609D01*
X401579Y277515D01*
X401618Y277476D01*
X401657Y277437D01*
X401665Y277429D01*
X401681Y277406D01*
X401712Y277375D01*
X401751Y277328D01*
X401837Y277226D01*
X401923Y277101D01*
X399400D01*
Y276500D01*
X402798D01*
Y276508D01*
Y276539D01*
Y276586D01*
X402790Y276641D01*
X402782Y276703D01*
X402774Y276773D01*
X402751Y276852D01*
X402727Y276930D01*
Y276937D01*
X402720Y276945D01*
X402704Y276992D01*
X402673Y277055D01*
X402626Y277148D01*
X402571Y277250D01*
X402493Y277367D01*
X402415Y277484D01*
X402314Y277609D01*
Y277617D01*
X402298Y277625D01*
X402259Y277672D01*
X402196Y277742D01*
X402103Y277835D01*
X401985Y277945D01*
X401845Y278078D01*
X401673Y278226D01*
X401486Y278390D01*
X401478Y278398D01*
X401447Y278421D01*
X401407Y278452D01*
X401353Y278507D01*
X401283Y278562D01*
X401204Y278632D01*
X401033Y278781D01*
X400845Y278960D01*
X400658Y279140D01*
X400564Y279226D01*
X400486Y279312D01*
X400416Y279398D01*
X400353Y279476D01*
Y279483D01*
X400338Y279491D01*
X400322Y279515D01*
X400306Y279546D01*
X400259Y279624D01*
X400205Y279726D01*
X400150Y279843D01*
X400103Y279968D01*
X400072Y280108D01*
X400056Y280241D01*
Y280249D01*
Y280257D01*
X400064Y280304D01*
X400072Y280374D01*
X400088Y280460D01*
X400127Y280561D01*
X400174Y280663D01*
X400236Y280772D01*
X400330Y280874D01*
X400345Y280881D01*
X400377Y280913D01*
X400439Y280952D01*
X400517Y281006D01*
X400619Y281053D01*
X400736Y281092D01*
X400876Y281123D01*
X401033Y281131D01*
X401080D01*
X401111Y281123D01*
X401189Y281116D01*
X401290Y281100D01*
X401407Y281061D01*
X401533Y281014D01*
X401650Y280944D01*
X401759Y280850D01*
X401767Y280835D01*
X401798Y280803D01*
X401845Y280741D01*
X401892Y280655D01*
X401946Y280546D01*
X401985Y280421D01*
X402017Y280272D01*
X402032Y280100D01*
X402680Y280171D01*
Y280178D01*
Y280202D01*
X402673Y280241D01*
X402665Y280288D01*
X402649Y280350D01*
X402641Y280421D01*
X402595Y280577D01*
X402532Y280756D01*
X402446Y280936D01*
X402329Y281116D01*
X402267Y281194D01*
X402188Y281272D01*
X402181Y281280D01*
X402165Y281288D01*
X402142Y281311D01*
X402110Y281334D01*
X402064Y281358D01*
X402009Y281397D01*
X401946Y281428D01*
X401876Y281467D01*
X401798Y281498D01*
X401712Y281537D01*
X401611Y281569D01*
X401509Y281592D01*
X401275Y281639D01*
X401150Y281647D01*
X401017Y281655D01*
X400947D01*
X400892Y281647D01*
D02*
G37*
G36*
X396909D02*
X396815Y281631D01*
X396706Y281615D01*
X396581Y281584D01*
X396456Y281537D01*
X396339Y281483D01*
X396323Y281475D01*
X396284Y281452D01*
X396230Y281413D01*
X396151Y281366D01*
X396073Y281295D01*
X395987Y281209D01*
X395901Y281116D01*
X395823Y281006D01*
X395815Y280991D01*
X395792Y280952D01*
X395753Y280881D01*
X395706Y280796D01*
X395659Y280686D01*
X395605Y280553D01*
X395550Y280405D01*
X395503Y280241D01*
Y280233D01*
X395495Y280218D01*
Y280194D01*
X395487Y280155D01*
X395472Y280116D01*
X395464Y280061D01*
X395456Y279991D01*
X395441Y279921D01*
X395433Y279835D01*
X395425Y279749D01*
X395409Y279647D01*
X395402Y279538D01*
X395394Y279421D01*
Y279304D01*
X395386Y279030D01*
Y279023D01*
Y278991D01*
Y278944D01*
Y278882D01*
X395394Y278804D01*
Y278718D01*
X395402Y278616D01*
X395409Y278507D01*
X395433Y278273D01*
X395464Y278031D01*
X395511Y277789D01*
X395542Y277679D01*
X395573Y277570D01*
Y277562D01*
X395581Y277547D01*
X395589Y277515D01*
X395605Y277476D01*
X395628Y277429D01*
X395652Y277382D01*
X395714Y277258D01*
X395792Y277117D01*
X395886Y276976D01*
X395995Y276836D01*
X396128Y276711D01*
X396136D01*
X396144Y276695D01*
X396167Y276687D01*
X396190Y276664D01*
X396276Y276617D01*
X396378Y276562D01*
X396518Y276508D01*
X396675Y276461D01*
X396854Y276430D01*
X397057Y276414D01*
X397128D01*
X397182Y276422D01*
X397245Y276430D01*
X397315Y276445D01*
X397393Y276461D01*
X397479Y276477D01*
X397667Y276539D01*
X397768Y276586D01*
X397862Y276633D01*
X397963Y276695D01*
X398057Y276765D01*
X398143Y276844D01*
X398229Y276937D01*
X398237Y276945D01*
X398252Y276969D01*
X398276Y277008D01*
X398307Y277062D01*
X398346Y277133D01*
X398385Y277219D01*
X398432Y277320D01*
X398479Y277445D01*
X398526Y277578D01*
X398572Y277734D01*
X398611Y277906D01*
X398651Y278093D01*
X398682Y278304D01*
X398705Y278523D01*
X398721Y278773D01*
X398729Y279030D01*
Y279038D01*
Y279069D01*
Y279116D01*
Y279179D01*
X398721Y279257D01*
Y279343D01*
X398713Y279444D01*
X398705Y279554D01*
X398682Y279788D01*
X398651Y280030D01*
X398611Y280272D01*
X398580Y280382D01*
X398549Y280491D01*
Y280499D01*
X398541Y280514D01*
X398526Y280546D01*
X398510Y280585D01*
X398494Y280631D01*
X398471Y280686D01*
X398409Y280811D01*
X398330Y280952D01*
X398237Y281092D01*
X398127Y281225D01*
X397994Y281350D01*
X397987D01*
X397979Y281366D01*
X397955Y281381D01*
X397924Y281397D01*
X397846Y281444D01*
X397737Y281506D01*
X397604Y281561D01*
X397440Y281608D01*
X397260Y281639D01*
X397057Y281655D01*
X396987D01*
X396909Y281647D01*
D02*
G37*
%LPC*%
G36*
X397081Y304139D02*
X397143D01*
X397206Y304123D01*
X397292Y304108D01*
X397385Y304084D01*
X397487Y304038D01*
X397588Y303983D01*
X397682Y303905D01*
X397690Y303897D01*
X397721Y303866D01*
X397752Y303811D01*
X397799Y303749D01*
X397838Y303671D01*
X397877Y303569D01*
X397909Y303467D01*
X397916Y303350D01*
Y303335D01*
Y303288D01*
X397901Y303225D01*
X397885Y303139D01*
X397862Y303046D01*
X397823Y302952D01*
X397768Y302851D01*
X397690Y302757D01*
X397682Y302749D01*
X397651Y302726D01*
X397596Y302687D01*
X397526Y302647D01*
X397440Y302601D01*
X397331Y302569D01*
X397214Y302538D01*
X397081Y302530D01*
X397018D01*
X396956Y302546D01*
X396870Y302561D01*
X396776Y302585D01*
X396675Y302624D01*
X396573Y302679D01*
X396479Y302757D01*
X396472Y302765D01*
X396440Y302796D01*
X396401Y302843D01*
X396362Y302913D01*
X396315Y302991D01*
X396284Y303093D01*
X396253Y303202D01*
X396245Y303319D01*
Y303327D01*
Y303335D01*
Y303374D01*
X396261Y303444D01*
X396276Y303522D01*
X396308Y303608D01*
X396347Y303710D01*
X396409Y303803D01*
X396487Y303897D01*
X396495Y303905D01*
X396526Y303936D01*
X396581Y303975D01*
X396651Y304022D01*
X396737Y304061D01*
X396839Y304100D01*
X396948Y304131D01*
X397081Y304139D01*
D02*
G37*
G36*
X397096Y302015D02*
X397135D01*
X397167Y302007D01*
X397253Y301999D01*
X397354Y301976D01*
X397471Y301944D01*
X397596Y301890D01*
X397713Y301820D01*
X397831Y301718D01*
X397846Y301702D01*
X397877Y301663D01*
X397924Y301601D01*
X397971Y301515D01*
X398026Y301406D01*
X398073Y301281D01*
X398104Y301132D01*
X398119Y300976D01*
Y300968D01*
Y300929D01*
X398112Y300882D01*
X398104Y300812D01*
X398088Y300734D01*
X398065Y300640D01*
X398034Y300547D01*
X397994Y300453D01*
X397987Y300445D01*
X397971Y300414D01*
X397940Y300367D01*
X397901Y300312D01*
X397846Y300250D01*
X397784Y300180D01*
X397706Y300117D01*
X397620Y300062D01*
X397604Y300055D01*
X397573Y300039D01*
X397526Y300023D01*
X397456Y300000D01*
X397370Y299969D01*
X397284Y299953D01*
X397182Y299937D01*
X397073Y299930D01*
X397026D01*
X396995Y299937D01*
X396917Y299945D01*
X396807Y299969D01*
X396690Y300000D01*
X396565Y300055D01*
X396448Y300125D01*
X396331Y300219D01*
X396315Y300234D01*
X396284Y300273D01*
X396237Y300336D01*
X396183Y300422D01*
X396128Y300523D01*
X396081Y300656D01*
X396050Y300797D01*
X396034Y300960D01*
Y300968D01*
Y300984D01*
Y301007D01*
X396042Y301039D01*
X396050Y301117D01*
X396073Y301226D01*
X396105Y301343D01*
X396159Y301468D01*
X396237Y301593D01*
X396339Y301710D01*
X396354Y301726D01*
X396393Y301757D01*
X396456Y301804D01*
X396542Y301866D01*
X396651Y301921D01*
X396784Y301968D01*
X396932Y301999D01*
X397096Y302015D01*
D02*
G37*
G36*
X397073Y293631D02*
X397112D01*
X397143Y293623D01*
X397221Y293616D01*
X397323Y293592D01*
X397440Y293545D01*
X397557Y293483D01*
X397682Y293405D01*
X397745Y293350D01*
X397807Y293288D01*
X397823Y293272D01*
X397854Y293225D01*
X397901Y293147D01*
X397955Y293046D01*
X398018Y292921D01*
X398065Y292764D01*
X398096Y292593D01*
X398112Y292397D01*
Y292389D01*
Y292374D01*
Y292351D01*
X398104Y292319D01*
X398096Y292226D01*
X398073Y292116D01*
X398041Y291983D01*
X397987Y291851D01*
X397916Y291726D01*
X397823Y291601D01*
X397807Y291585D01*
X397768Y291554D01*
X397706Y291507D01*
X397620Y291452D01*
X397510Y291390D01*
X397385Y291343D01*
X397245Y291312D01*
X397089Y291296D01*
X397049D01*
X397018Y291304D01*
X396940Y291312D01*
X396839Y291335D01*
X396729Y291374D01*
X396604Y291421D01*
X396487Y291499D01*
X396378Y291601D01*
X396362Y291616D01*
X396331Y291655D01*
X396284Y291726D01*
X396230Y291819D01*
X396183Y291944D01*
X396136Y292085D01*
X396105Y292257D01*
X396089Y292444D01*
Y292452D01*
Y292468D01*
Y292499D01*
X396097Y292538D01*
Y292585D01*
X396105Y292632D01*
X396128Y292757D01*
X396159Y292897D01*
X396214Y293038D01*
X396284Y293178D01*
X396378Y293311D01*
X396393Y293327D01*
X396432Y293358D01*
X396487Y293413D01*
X396573Y293475D01*
X396675Y293530D01*
X396792Y293584D01*
X396925Y293616D01*
X397073Y293631D01*
D02*
G37*
G36*
X133643Y412631D02*
X133682D01*
X133713Y412624D01*
X133791Y412616D01*
X133893Y412584D01*
X134002Y412538D01*
X134119Y412475D01*
X134237Y412381D01*
X134291Y412319D01*
X134338Y412256D01*
Y412249D01*
X134354Y412233D01*
X134369Y412202D01*
X134385Y412163D01*
X134408Y412108D01*
X134440Y412046D01*
X134471Y411960D01*
X134494Y411866D01*
X134526Y411757D01*
X134557Y411632D01*
X134580Y411491D01*
X134611Y411327D01*
X134627Y411155D01*
X134643Y410968D01*
X134658Y410757D01*
Y410530D01*
Y410515D01*
Y410476D01*
Y410413D01*
X134651Y410327D01*
Y410226D01*
X134643Y410109D01*
X134635Y409976D01*
X134619Y409843D01*
X134588Y409562D01*
X134533Y409281D01*
X134502Y409156D01*
X134463Y409039D01*
X134416Y408929D01*
X134369Y408844D01*
Y408836D01*
X134354Y408828D01*
X134315Y408781D01*
X134252Y408711D01*
X134166Y408640D01*
X134057Y408562D01*
X133932Y408492D01*
X133791Y408445D01*
X133713Y408437D01*
X133635Y408430D01*
X133596D01*
X133565Y408437D01*
X133487Y408453D01*
X133385Y408484D01*
X133268Y408531D01*
X133151Y408601D01*
X133089Y408648D01*
X133026Y408711D01*
X132964Y408773D01*
X132909Y408844D01*
Y408851D01*
X132893Y408867D01*
X132878Y408890D01*
X132862Y408929D01*
X132839Y408976D01*
X132815Y409047D01*
X132792Y409125D01*
X132761Y409211D01*
X132729Y409320D01*
X132706Y409437D01*
X132683Y409578D01*
X132659Y409734D01*
X132636Y409906D01*
X132628Y410093D01*
X132612Y410304D01*
Y410530D01*
Y410546D01*
Y410585D01*
Y410648D01*
X132620Y410734D01*
Y410835D01*
X132628Y410952D01*
X132636Y411077D01*
X132651Y411218D01*
X132683Y411499D01*
X132737Y411772D01*
X132768Y411905D01*
X132807Y412022D01*
X132854Y412124D01*
X132909Y412210D01*
Y412217D01*
X132925Y412225D01*
X132964Y412272D01*
X133026Y412342D01*
X133112Y412421D01*
X133221Y412499D01*
X133346Y412569D01*
X133487Y412616D01*
X133565Y412624D01*
X133643Y412631D01*
D02*
G37*
G36*
X124618D02*
X124658D01*
X124689Y412624D01*
X124767Y412616D01*
X124869Y412592D01*
X124986Y412545D01*
X125103Y412483D01*
X125228Y412405D01*
X125290Y412350D01*
X125353Y412288D01*
X125368Y412272D01*
X125399Y412225D01*
X125446Y412147D01*
X125501Y412046D01*
X125564Y411921D01*
X125610Y411764D01*
X125642Y411593D01*
X125657Y411397D01*
Y411389D01*
Y411374D01*
Y411350D01*
X125649Y411319D01*
X125642Y411226D01*
X125618Y411116D01*
X125587Y410983D01*
X125532Y410851D01*
X125462Y410726D01*
X125368Y410601D01*
X125353Y410585D01*
X125314Y410554D01*
X125251Y410507D01*
X125165Y410452D01*
X125056Y410390D01*
X124931Y410343D01*
X124790Y410312D01*
X124634Y410296D01*
X124595D01*
X124564Y410304D01*
X124486Y410312D01*
X124384Y410335D01*
X124275Y410374D01*
X124150Y410421D01*
X124033Y410499D01*
X123924Y410601D01*
X123908Y410616D01*
X123877Y410655D01*
X123830Y410726D01*
X123775Y410819D01*
X123728Y410944D01*
X123681Y411085D01*
X123650Y411257D01*
X123635Y411444D01*
Y411452D01*
Y411468D01*
Y411499D01*
X123642Y411538D01*
Y411585D01*
X123650Y411632D01*
X123673Y411757D01*
X123705Y411897D01*
X123759Y412038D01*
X123830Y412178D01*
X123924Y412311D01*
X123939Y412327D01*
X123978Y412358D01*
X124033Y412413D01*
X124119Y412475D01*
X124220Y412530D01*
X124337Y412584D01*
X124470Y412616D01*
X124618Y412631D01*
D02*
G37*
G36*
X102564Y410773D02*
X102603D01*
X102634Y410765D01*
X102712Y410757D01*
X102814Y410734D01*
X102923Y410694D01*
X103048Y410640D01*
X103165Y410562D01*
X103282Y410460D01*
X103298Y410444D01*
X103329Y410405D01*
X103376Y410335D01*
X103431Y410249D01*
X103485Y410132D01*
X103532Y409992D01*
X103564Y409835D01*
X103579Y409656D01*
Y409640D01*
Y409601D01*
X103571Y409539D01*
X103564Y409460D01*
X103548Y409359D01*
X103524Y409257D01*
X103493Y409148D01*
X103446Y409031D01*
X103439Y409015D01*
X103423Y408984D01*
X103392Y408929D01*
X103345Y408867D01*
X103290Y408789D01*
X103228Y408718D01*
X103150Y408640D01*
X103064Y408578D01*
X103056Y408570D01*
X103017Y408555D01*
X102970Y408531D01*
X102908Y408508D01*
X102829Y408476D01*
X102736Y408453D01*
X102642Y408437D01*
X102540Y408430D01*
X102501D01*
X102470Y408437D01*
X102400Y408445D01*
X102298Y408469D01*
X102197Y408508D01*
X102080Y408562D01*
X101962Y408640D01*
X101853Y408750D01*
X101838Y408765D01*
X101806Y408812D01*
X101759Y408883D01*
X101705Y408976D01*
X101658Y409101D01*
X101611Y409257D01*
X101580Y409429D01*
X101564Y409624D01*
Y409632D01*
Y409648D01*
Y409679D01*
X101572Y409710D01*
Y409757D01*
X101580Y409812D01*
X101595Y409929D01*
X101635Y410062D01*
X101681Y410202D01*
X101752Y410335D01*
X101845Y410460D01*
X101861Y410476D01*
X101892Y410507D01*
X101955Y410562D01*
X102041Y410616D01*
X102142Y410671D01*
X102267Y410726D01*
X102408Y410757D01*
X102564Y410773D01*
D02*
G37*
G36*
X234596Y92273D02*
X234635D01*
X234666Y92265D01*
X234745Y92257D01*
X234846Y92234D01*
X234956Y92194D01*
X235081Y92140D01*
X235198Y92062D01*
X235315Y91960D01*
X235330Y91944D01*
X235362Y91905D01*
X235408Y91835D01*
X235463Y91749D01*
X235518Y91632D01*
X235565Y91492D01*
X235596Y91335D01*
X235612Y91156D01*
Y91140D01*
Y91101D01*
X235604Y91039D01*
X235596Y90961D01*
X235580Y90859D01*
X235557Y90757D01*
X235526Y90648D01*
X235479Y90531D01*
X235471Y90515D01*
X235455Y90484D01*
X235424Y90429D01*
X235377Y90367D01*
X235323Y90289D01*
X235260Y90219D01*
X235182Y90140D01*
X235096Y90078D01*
X235088Y90070D01*
X235049Y90055D01*
X235002Y90031D01*
X234940Y90008D01*
X234862Y89976D01*
X234768Y89953D01*
X234674Y89937D01*
X234573Y89929D01*
X234534D01*
X234503Y89937D01*
X234432Y89945D01*
X234331Y89969D01*
X234229Y90008D01*
X234112Y90062D01*
X233995Y90140D01*
X233886Y90250D01*
X233870Y90265D01*
X233839Y90312D01*
X233792Y90382D01*
X233737Y90476D01*
X233690Y90601D01*
X233643Y90757D01*
X233612Y90929D01*
X233596Y91124D01*
Y91132D01*
Y91148D01*
Y91179D01*
X233604Y91210D01*
Y91257D01*
X233612Y91312D01*
X233628Y91429D01*
X233667Y91562D01*
X233714Y91702D01*
X233784Y91835D01*
X233878Y91960D01*
X233893Y91976D01*
X233925Y92007D01*
X233987Y92062D01*
X234073Y92116D01*
X234174Y92171D01*
X234299Y92226D01*
X234440Y92257D01*
X234596Y92273D01*
D02*
G37*
G36*
X201792Y93100D02*
X203400Y90804D01*
X201792D01*
Y93100D01*
D02*
G37*
G36*
X75580Y229600D02*
X77188Y227304D01*
X75580D01*
Y229600D01*
D02*
G37*
G36*
X260119Y414225D02*
X260181D01*
X260244Y414209D01*
X260329Y414194D01*
X260423Y414170D01*
X260525Y414123D01*
X260626Y414069D01*
X260720Y413991D01*
X260728Y413983D01*
X260759Y413952D01*
X260790Y413897D01*
X260837Y413835D01*
X260876Y413757D01*
X260915Y413655D01*
X260946Y413553D01*
X260954Y413436D01*
Y413421D01*
Y413374D01*
X260939Y413311D01*
X260923Y413225D01*
X260899Y413132D01*
X260860Y413038D01*
X260806Y412936D01*
X260728Y412843D01*
X260720Y412835D01*
X260689Y412811D01*
X260634Y412772D01*
X260564Y412733D01*
X260478Y412686D01*
X260368Y412655D01*
X260251Y412624D01*
X260119Y412616D01*
X260056D01*
X259994Y412632D01*
X259908Y412647D01*
X259814Y412671D01*
X259712Y412710D01*
X259611Y412765D01*
X259517Y412843D01*
X259509Y412851D01*
X259478Y412882D01*
X259439Y412929D01*
X259400Y412999D01*
X259353Y413077D01*
X259322Y413178D01*
X259291Y413288D01*
X259283Y413405D01*
Y413413D01*
Y413421D01*
Y413460D01*
X259298Y413530D01*
X259314Y413608D01*
X259345Y413694D01*
X259384Y413796D01*
X259447Y413889D01*
X259525Y413983D01*
X259533Y413991D01*
X259564Y414022D01*
X259619Y414061D01*
X259689Y414108D01*
X259775Y414147D01*
X259876Y414186D01*
X259986Y414217D01*
X260119Y414225D01*
D02*
G37*
G36*
X260134Y412101D02*
X260173D01*
X260204Y412093D01*
X260290Y412085D01*
X260392Y412062D01*
X260509Y412030D01*
X260634Y411976D01*
X260751Y411905D01*
X260868Y411804D01*
X260884Y411788D01*
X260915Y411749D01*
X260962Y411687D01*
X261009Y411601D01*
X261064Y411492D01*
X261110Y411367D01*
X261142Y411218D01*
X261157Y411062D01*
Y411054D01*
Y411015D01*
X261150Y410968D01*
X261142Y410898D01*
X261126Y410820D01*
X261103Y410726D01*
X261071Y410632D01*
X261032Y410539D01*
X261024Y410531D01*
X261009Y410500D01*
X260978Y410453D01*
X260939Y410398D01*
X260884Y410336D01*
X260821Y410265D01*
X260743Y410203D01*
X260657Y410148D01*
X260642Y410140D01*
X260611Y410125D01*
X260564Y410109D01*
X260493Y410086D01*
X260407Y410054D01*
X260322Y410039D01*
X260220Y410023D01*
X260111Y410015D01*
X260064D01*
X260033Y410023D01*
X259955Y410031D01*
X259845Y410054D01*
X259728Y410086D01*
X259603Y410140D01*
X259486Y410211D01*
X259369Y410304D01*
X259353Y410320D01*
X259322Y410359D01*
X259275Y410422D01*
X259220Y410507D01*
X259166Y410609D01*
X259119Y410742D01*
X259088Y410882D01*
X259072Y411046D01*
Y411054D01*
Y411070D01*
Y411093D01*
X259080Y411125D01*
X259088Y411203D01*
X259111Y411312D01*
X259142Y411429D01*
X259197Y411554D01*
X259275Y411679D01*
X259377Y411796D01*
X259392Y411812D01*
X259431Y411843D01*
X259494Y411890D01*
X259580Y411952D01*
X259689Y412007D01*
X259822Y412054D01*
X259970Y412085D01*
X260134Y412101D01*
D02*
G37*
G36*
X392714Y160600D02*
X394323Y158304D01*
X392714D01*
Y160600D01*
D02*
G37*
G36*
X397065Y281131D02*
X397104D01*
X397135Y281123D01*
X397214Y281116D01*
X397315Y281084D01*
X397424Y281038D01*
X397542Y280975D01*
X397659Y280881D01*
X397713Y280819D01*
X397760Y280756D01*
Y280749D01*
X397776Y280733D01*
X397792Y280702D01*
X397807Y280663D01*
X397831Y280608D01*
X397862Y280546D01*
X397893Y280460D01*
X397916Y280366D01*
X397948Y280257D01*
X397979Y280132D01*
X398002Y279991D01*
X398034Y279827D01*
X398049Y279655D01*
X398065Y279468D01*
X398080Y279257D01*
Y279030D01*
Y279015D01*
Y278976D01*
Y278913D01*
X398073Y278827D01*
Y278726D01*
X398065Y278609D01*
X398057Y278476D01*
X398041Y278343D01*
X398010Y278062D01*
X397955Y277781D01*
X397924Y277656D01*
X397885Y277539D01*
X397838Y277429D01*
X397792Y277344D01*
Y277336D01*
X397776Y277328D01*
X397737Y277281D01*
X397674Y277211D01*
X397588Y277140D01*
X397479Y277062D01*
X397354Y276992D01*
X397214Y276945D01*
X397135Y276937D01*
X397057Y276930D01*
X397018D01*
X396987Y276937D01*
X396909Y276953D01*
X396807Y276984D01*
X396690Y277031D01*
X396573Y277101D01*
X396511Y277148D01*
X396448Y277211D01*
X396386Y277273D01*
X396331Y277344D01*
Y277351D01*
X396315Y277367D01*
X396300Y277390D01*
X396284Y277429D01*
X396261Y277476D01*
X396237Y277547D01*
X396214Y277625D01*
X396183Y277711D01*
X396151Y277820D01*
X396128Y277937D01*
X396105Y278078D01*
X396081Y278234D01*
X396058Y278406D01*
X396050Y278593D01*
X396034Y278804D01*
Y279030D01*
Y279046D01*
Y279085D01*
Y279148D01*
X396042Y279234D01*
Y279335D01*
X396050Y279452D01*
X396058Y279577D01*
X396073Y279718D01*
X396105Y279999D01*
X396159Y280272D01*
X396190Y280405D01*
X396230Y280522D01*
X396276Y280624D01*
X396331Y280710D01*
Y280717D01*
X396347Y280725D01*
X396386Y280772D01*
X396448Y280842D01*
X396534Y280921D01*
X396643Y280999D01*
X396768Y281069D01*
X396909Y281116D01*
X396987Y281123D01*
X397065Y281131D01*
D02*
G37*
%LPD*%
D10*
X72306Y354620D02*
G03*
X72306Y352120I0J-1250D01*
G01*
X124685Y262000D02*
G03*
X127185Y262000I1250J0D01*
G01*
X124685Y209500D02*
G03*
X127185Y209500I1250J0D01*
G01*
X124685Y183500D02*
G03*
X127185Y183500I1250J0D01*
G01*
X167306Y141120D02*
G03*
X167306Y143620I0J1250D01*
G01*
X197306Y141120D02*
G03*
X197306Y143620I0J1250D01*
G01*
X228306Y141120D02*
G03*
X228306Y143620I0J1250D01*
G01*
X257805Y141120D02*
G03*
X257805Y143620I0J1250D01*
G01*
X337185Y106500D02*
G03*
X334685Y106500I-1250J0D01*
G01*
X337185Y137000D02*
G03*
X334685Y137000I-1250J0D01*
G01*
X337185Y167000D02*
G03*
X334685Y167000I-1250J0D01*
G01*
X337185Y199000D02*
G03*
X334685Y199000I-1250J0D01*
G01*
X337185Y232000D02*
G03*
X334685Y232000I-1250J0D01*
G01*
X337185Y265500D02*
G03*
X334685Y265500I-1250J0D01*
G01*
X337185Y296000D02*
G03*
X334685Y296000I-1250J0D01*
G01*
X337185Y332500D02*
G03*
X334685Y332500I-1250J0D01*
G01*
X234805Y354620D02*
G03*
X234805Y352120I0J-1250D01*
G01*
X203306Y354620D02*
G03*
X203306Y352120I0J-1250D01*
G01*
X166305Y354620D02*
G03*
X166305Y352120I0J-1250D01*
G01*
X136805Y354620D02*
G03*
X136805Y352120I0J-1250D01*
G01*
X300306Y354620D02*
G03*
X300306Y352120I0J-1250D01*
G01*
X268305Y354620D02*
G03*
X268305Y352120I0J-1250D01*
G01*
X103805Y354620D02*
G03*
X103805Y352120I0J-1250D01*
G01*
X124685Y237500D02*
G03*
X127185Y237500I1250J0D01*
G01*
X155306Y380500D02*
Y390500D01*
X163305D02*
X155306D01*
X163305Y380500D02*
Y390500D01*
Y380500D02*
X155306D01*
X267806Y107000D02*
Y117000D01*
Y107000D02*
X259805D01*
Y117000D01*
X267806D02*
X259805D01*
X114805Y379500D02*
Y389500D01*
X122806D02*
X114805D01*
X122806Y379500D02*
Y389500D01*
Y379500D02*
X114805D01*
X181306Y380500D02*
Y390500D01*
X189305D02*
X181306D01*
X189305Y380500D02*
Y390500D01*
Y380500D02*
X181306D01*
X212305Y379500D02*
Y389500D01*
X220305D02*
X212305D01*
X220305Y379500D02*
Y389500D01*
Y379500D02*
X212305D01*
X192306Y381000D02*
Y391000D01*
X200306D02*
X192306D01*
X200306Y381000D02*
Y391000D01*
Y381000D02*
X192306D01*
X289305D02*
Y391000D01*
X297305D02*
X289305D01*
X297305Y381000D02*
Y391000D01*
Y381000D02*
X289305D01*
X245305Y380500D02*
Y390500D01*
X253306D02*
X245305D01*
X253306Y380500D02*
Y390500D01*
Y380500D02*
X245305D01*
X257306D02*
Y390500D01*
X265305D02*
X257306D01*
X265305Y380500D02*
Y390500D01*
Y380500D02*
X257306D01*
X223805Y379500D02*
Y389500D01*
X231805D02*
X223805D01*
X231805Y379500D02*
Y389500D01*
Y379500D02*
X223805D01*
X49806Y379000D02*
Y389000D01*
X57806D02*
X49806D01*
X57806Y379000D02*
Y389000D01*
Y379000D02*
X49806D01*
X277805Y381500D02*
Y391500D01*
X285806D02*
X277805D01*
X285806Y381500D02*
Y391500D01*
Y381500D02*
X277805D01*
X99305Y239000D02*
X89306D01*
Y247000D01*
X99305D02*
X89306D01*
X99305Y239000D02*
Y247000D01*
X61305Y378500D02*
Y388500D01*
X69305D02*
X61305D01*
X69305Y378500D02*
Y388500D01*
Y378500D02*
X61305D01*
X99168Y250500D02*
X89168D01*
Y258500D01*
X99168D02*
X89168D01*
X99168Y250500D02*
Y258500D01*
X375168Y118000D02*
X365168D01*
X375168Y110000D02*
Y118000D01*
Y110000D02*
X365168D01*
Y118000D01*
X99443Y215500D02*
X89443D01*
Y223500D01*
X99443D02*
X89443D01*
X99443Y215500D02*
Y223500D01*
X99805Y226500D02*
X89806D01*
Y234500D01*
X99805D02*
X89806D01*
X99805Y226500D02*
Y234500D01*
X126305Y379500D02*
Y389500D01*
X134306D02*
X126305D01*
X134306Y379500D02*
Y389500D01*
Y379500D02*
X126305D01*
X144806Y380000D02*
Y390000D01*
X152805D02*
X144806D01*
X152805Y380000D02*
Y390000D01*
Y380000D02*
X144806D01*
X99305Y188000D02*
X89306D01*
Y196000D01*
X99305D02*
X89306D01*
X99305Y188000D02*
Y196000D01*
X99443Y199000D02*
X89443D01*
Y207000D01*
X99443D02*
X89443D01*
X99443Y199000D02*
Y207000D01*
X94305Y379000D02*
Y389000D01*
X102305D02*
X94305D01*
X102305Y379000D02*
Y389000D01*
Y379000D02*
X94305D01*
X82806D02*
Y389000D01*
X90806D02*
X82806D01*
X90806Y379000D02*
Y389000D01*
Y379000D02*
X82806D01*
X375443Y188000D02*
X365443D01*
X375443Y180000D02*
Y188000D01*
Y180000D02*
X365443D01*
Y188000D01*
X374443Y210000D02*
X364443D01*
X374443Y202000D02*
Y210000D01*
Y202000D02*
X364443D01*
Y210000D01*
X374443Y220000D02*
X364443D01*
X374443Y212000D02*
Y220000D01*
Y212000D02*
X364443D01*
Y220000D01*
X280306Y107500D02*
Y117500D01*
Y107500D02*
X272305D01*
Y117500D01*
X280306D02*
X272305D01*
X374581Y148500D02*
X364581D01*
X374581Y140500D02*
Y148500D01*
Y140500D02*
X364581D01*
Y148500D01*
X375081Y178000D02*
X365081D01*
X375081Y170000D02*
Y178000D01*
Y170000D02*
X365081D01*
Y178000D01*
X373805Y243000D02*
X363806D01*
X373805Y235000D02*
Y243000D01*
Y235000D02*
X363806D01*
Y243000D01*
X374306Y287000D02*
X364305D01*
X374306Y279000D02*
Y287000D01*
Y279000D02*
X364305D01*
Y287000D01*
X374306Y316000D02*
X364305D01*
X374306Y308000D02*
Y316000D01*
Y308000D02*
X364305D01*
Y316000D01*
X375168Y128500D02*
X365168D01*
X375168Y120500D02*
Y128500D01*
Y120500D02*
X365168D01*
Y128500D01*
X374443Y159500D02*
X364443D01*
X374443Y151500D02*
Y159500D01*
Y151500D02*
X364443D01*
Y159500D01*
X373805Y253500D02*
X363806D01*
X373805Y245500D02*
Y253500D01*
Y245500D02*
X363806D01*
Y253500D01*
X374306Y276500D02*
X364305D01*
X374306Y268500D02*
Y276500D01*
Y268500D02*
X364305D01*
Y276500D01*
X374306Y307000D02*
X364305D01*
X374306Y299000D02*
Y307000D01*
Y299000D02*
X364305D01*
Y307000D01*
X374668Y343500D02*
X364668D01*
X374668Y335500D02*
Y343500D01*
Y335500D02*
X364668D01*
Y343500D01*
X374668Y354000D02*
X364668D01*
X374668Y346000D02*
Y354000D01*
Y346000D02*
X364668D01*
Y354000D01*
X99305Y174276D02*
X89306D01*
Y182276D01*
X99305D02*
X89306D01*
X99305Y174276D02*
Y182276D01*
X249306Y107638D02*
Y117638D01*
Y107638D02*
X241305D01*
Y117638D01*
X249306D02*
X241305D01*
X219305Y108638D02*
Y118638D01*
Y108638D02*
X211305D01*
Y118638D01*
X219305D02*
X211305D01*
X189305Y107500D02*
Y117500D01*
Y107500D02*
X181306D01*
Y117500D01*
X189305D02*
X181306D01*
X99305Y162500D02*
X89306D01*
Y170500D01*
X99305D02*
X89306D01*
X99305Y162500D02*
Y170500D01*
X236806Y107638D02*
Y117638D01*
Y107638D02*
X228805D01*
Y117638D01*
X236806D02*
X228805D01*
X206306Y108500D02*
Y118500D01*
Y108500D02*
X198305D01*
Y118500D01*
X206306D02*
X198305D01*
X178305Y108138D02*
Y118138D01*
Y108138D02*
X170306D01*
Y118138D01*
X178305D02*
X170306D01*
X72306Y349079D02*
Y352120D01*
Y354620D02*
Y357661D01*
X52306D01*
Y349079D02*
Y357661D01*
X72306Y349079D02*
X52306D01*
X130227Y262000D02*
X127185D01*
X124685D02*
X121644D01*
Y242000D02*
Y262000D01*
X130227Y242000D02*
X121644D01*
X130227D02*
Y262000D01*
Y209500D02*
X127185D01*
X124685D02*
X121644D01*
Y189500D02*
Y209500D01*
X130227Y189500D02*
X121644D01*
X130227D02*
Y209500D01*
Y183500D02*
X127185D01*
X124685D02*
X121644D01*
Y163500D02*
Y183500D01*
X130227Y163500D02*
X121644D01*
X130227D02*
Y183500D01*
X167306Y143620D02*
Y146661D01*
Y138079D02*
Y141120D01*
X187305Y138079D02*
X167306D01*
X187305D02*
Y146661D01*
X167306D01*
X197306Y143620D02*
Y146661D01*
Y138079D02*
Y141120D01*
X217305Y138079D02*
X197306D01*
X217305D02*
Y146661D01*
X197306D01*
X228306Y143620D02*
Y146661D01*
Y138079D02*
Y141120D01*
X248306Y138079D02*
X228306D01*
X248306D02*
Y146661D01*
X228306D01*
X257805Y143620D02*
Y146661D01*
Y138079D02*
Y141120D01*
X277805Y138079D02*
X257805D01*
X277805D02*
Y146661D01*
X257805D01*
X221512Y279619D02*
X214218D01*
X194648Y260048D01*
X217865Y236831D02*
X194648Y260048D01*
X241083D02*
X217865Y236831D01*
X241083Y260048D02*
X221512Y279619D01*
X334685Y106500D02*
X331644D01*
X340227D02*
X337185D01*
X340227D02*
Y126500D01*
X331644D01*
Y106500D02*
Y126500D01*
X334685Y137000D02*
X331644D01*
X340227D02*
X337185D01*
X340227D02*
Y157000D01*
X331644D01*
Y137000D02*
Y157000D01*
X334685Y167000D02*
X331644D01*
X340227D02*
X337185D01*
X340227D02*
Y187000D01*
X331644D01*
Y167000D02*
Y187000D01*
X334685Y199000D02*
X331644D01*
X340227D02*
X337185D01*
X340227D02*
Y219000D01*
X331644D01*
Y199000D02*
Y219000D01*
X334685Y232000D02*
X331644D01*
X340227D02*
X337185D01*
X340227D02*
Y252000D01*
X331644D01*
Y232000D02*
Y252000D01*
X334685Y265500D02*
X331644D01*
X340227D02*
X337185D01*
X340227D02*
Y285500D01*
X331644D01*
Y265500D02*
Y285500D01*
X334685Y296000D02*
X331644D01*
X340227D02*
X337185D01*
X340227D02*
Y316000D01*
X331644D01*
Y296000D02*
Y316000D01*
X334685Y332500D02*
X331644D01*
X340227D02*
X337185D01*
X340227D02*
Y352500D01*
X331644D01*
Y332500D02*
Y352500D01*
X234805Y349079D02*
Y352120D01*
Y354620D02*
Y357661D01*
X214806D01*
Y349079D02*
Y357661D01*
X234805Y349079D02*
X214806D01*
X203306D02*
Y352120D01*
Y354620D02*
Y357661D01*
X183306D01*
Y349079D02*
Y357661D01*
X203306Y349079D02*
X183306D01*
X166305D02*
Y352120D01*
Y354620D02*
Y357661D01*
X146306D01*
Y349079D02*
Y357661D01*
X166305Y349079D02*
X146306D01*
X136805D02*
Y352120D01*
Y354620D02*
Y357661D01*
X116806D01*
Y349079D02*
Y357661D01*
X136805Y349079D02*
X116806D01*
X300306D02*
Y352120D01*
Y354620D02*
Y357661D01*
X280306D01*
Y349079D02*
Y357661D01*
X300306Y349079D02*
X280306D01*
X268305D02*
Y352120D01*
Y354620D02*
Y357661D01*
X248306D01*
Y349079D02*
Y357661D01*
X268305Y349079D02*
X248306D01*
X103805D02*
Y352120D01*
Y354620D02*
Y357661D01*
X83806D01*
Y349079D02*
Y357661D01*
X103805Y349079D02*
X83806D01*
X130227Y237500D02*
X127185D01*
X124685D02*
X121644D01*
Y217500D02*
Y237500D01*
X130227Y217500D02*
X121644D01*
X130227D02*
Y237500D01*
D11*
X124805Y297500D02*
Y305000D01*
Y297500D02*
X119880D01*
Y305000D01*
X124805D02*
X119880D01*
X126305Y285000D02*
Y292500D01*
Y285000D02*
X121380D01*
Y292500D01*
X126305D02*
X121380D01*
D12*
X101805Y440000D02*
X101305Y439500D01*
Y415000D02*
Y439500D01*
X140805Y415000D02*
X101305D01*
X140805D02*
Y440000D01*
X101805D01*
X45805Y194500D02*
X45305Y195000D01*
X70306Y194500D02*
X45805D01*
X70306D02*
Y234000D01*
X45305D01*
Y195000D02*
Y234000D01*
X241806Y87000D02*
X202805D01*
X241806Y62000D02*
Y87000D01*
Y62000D02*
X202306D01*
Y86500D01*
X202805Y87000D02*
X202306Y86500D01*
X429806Y156500D02*
Y195500D01*
Y156500D02*
X404806D01*
Y196000D01*
X429306D02*
X404806D01*
X429806Y195500D02*
X429306Y196000D01*
X429806Y275500D02*
Y314500D01*
Y275500D02*
X404806D01*
Y315000D01*
X429306D02*
X404806D01*
X429806Y314500D02*
X429306Y315000D01*
X264806Y443500D02*
X225805D01*
X264806Y418500D02*
Y443500D01*
Y418500D02*
X225306D01*
Y443000D01*
X225805Y443500D02*
X225306Y443000D01*
X75807Y355998D02*
X77806Y354998D01*
X79805Y352999D01*
Y351000D01*
X78806Y350000D01*
X76806D01*
X75807Y351000D01*
Y351999D01*
X76806Y352999D01*
X79805D01*
X142567Y198500D02*
X146565D01*
X142567Y202499D01*
Y203498D01*
X143566Y204498D01*
X145566D01*
X146565Y203498D01*
X438304Y142499D02*
X439304Y141499D01*
Y139500D01*
X438304Y138500D01*
X434305D01*
X433306Y139500D01*
Y141499D01*
X434305Y142499D01*
X433306Y145498D02*
Y147497D01*
X434305Y148497D01*
X436305D01*
X437304Y147497D01*
Y145498D01*
X436305Y144498D01*
X434305D01*
X433306Y145498D01*
Y150496D02*
X437304D01*
Y153495D01*
X436305Y154495D01*
X433306D01*
Y156494D02*
X437304D01*
Y159493D01*
X436305Y160493D01*
X433306D01*
Y165491D02*
Y163492D01*
X434305Y162492D01*
X436305D01*
X437304Y163492D01*
Y165491D01*
X436305Y166491D01*
X435305D01*
Y162492D01*
X437304Y172489D02*
Y169490D01*
X436305Y168490D01*
X434305D01*
X433306Y169490D01*
Y172489D01*
X438304Y175488D02*
X437304D01*
Y174488D01*
Y176488D01*
Y175488D01*
X434305D01*
X433306Y176488D01*
Y180486D02*
Y182486D01*
X434305Y183485D01*
X436305D01*
X437304Y182486D01*
Y180486D01*
X436305Y179487D01*
X434305D01*
X433306Y180486D01*
X437304Y185485D02*
X433306D01*
X435305D01*
X436305Y186485D01*
X437304Y187484D01*
Y188484D01*
X439304Y195482D02*
X438304Y193482D01*
X436305Y191483D01*
X434305D01*
X433306Y192482D01*
Y194482D01*
X434305Y195482D01*
X435305D01*
X436305Y194482D01*
Y191483D01*
X438304Y261499D02*
X439304Y260499D01*
Y258500D01*
X438304Y257500D01*
X434305D01*
X433306Y258500D01*
Y260499D01*
X434305Y261499D01*
X433306Y264498D02*
Y266497D01*
X434305Y267497D01*
X436305D01*
X437304Y266497D01*
Y264498D01*
X436305Y263498D01*
X434305D01*
X433306Y264498D01*
Y269496D02*
X437304D01*
Y272495D01*
X436305Y273495D01*
X433306D01*
Y275494D02*
X437304D01*
Y278493D01*
X436305Y279493D01*
X433306D01*
Y284491D02*
Y282492D01*
X434305Y281492D01*
X436305D01*
X437304Y282492D01*
Y284491D01*
X436305Y285491D01*
X435305D01*
Y281492D01*
X437304Y291489D02*
Y288490D01*
X436305Y287490D01*
X434305D01*
X433306Y288490D01*
Y291489D01*
X438304Y294488D02*
X437304D01*
Y293488D01*
Y295488D01*
Y294488D01*
X434305D01*
X433306Y295488D01*
Y299486D02*
Y301486D01*
X434305Y302485D01*
X436305D01*
X437304Y301486D01*
Y299486D01*
X436305Y298487D01*
X434305D01*
X433306Y299486D01*
X437304Y304485D02*
X433306D01*
X435305D01*
X436305Y305485D01*
X437304Y306484D01*
Y307484D01*
X439304Y314482D02*
Y310483D01*
X436305D01*
X437304Y312482D01*
Y313482D01*
X436305Y314482D01*
X434305D01*
X433306Y313482D01*
Y311483D01*
X434305Y310483D01*
X245807Y59998D02*
X246807Y60998D01*
X248806D01*
X249805Y59998D01*
Y56000D01*
X248806Y55000D01*
X246807D01*
X245807Y56000D01*
X242808Y55000D02*
X240808D01*
X239809Y56000D01*
Y57999D01*
X240808Y58999D01*
X242808D01*
X243807Y57999D01*
Y56000D01*
X242808Y55000D01*
X237809D02*
Y58999D01*
X234810D01*
X233811Y57999D01*
Y55000D01*
X231811D02*
Y58999D01*
X228812D01*
X227813Y57999D01*
Y55000D01*
X222814D02*
X224814D01*
X225813Y56000D01*
Y57999D01*
X224814Y58999D01*
X222814D01*
X221815Y57999D01*
Y56999D01*
X225813D01*
X215816Y58999D02*
X218815D01*
X219815Y57999D01*
Y56000D01*
X218815Y55000D01*
X215816D01*
X212818Y59998D02*
Y58999D01*
X213817D01*
X211818D01*
X212818D01*
Y56000D01*
X211818Y55000D01*
X207819D02*
X205820D01*
X204820Y56000D01*
Y57999D01*
X205820Y58999D01*
X207819D01*
X208819Y57999D01*
Y56000D01*
X207819Y55000D01*
X202821Y58999D02*
Y55000D01*
Y56999D01*
X201821Y57999D01*
X200821Y58999D01*
X199822D01*
X193824Y55000D02*
Y60998D01*
X196823Y57999D01*
X192824D01*
X336807Y128500D02*
X340806D01*
X336807Y132499D01*
Y133498D01*
X337807Y134498D01*
X339806D01*
X340806Y133498D01*
X331808Y128500D02*
Y134498D01*
X334807Y131499D01*
X330809D01*
X337067Y158000D02*
X341065D01*
X337067Y161999D01*
Y162998D01*
X338066Y163998D01*
X340066D01*
X341065Y162998D01*
X335067D02*
X334068Y163998D01*
X332068D01*
X331069Y162998D01*
Y161999D01*
X332068Y160999D01*
X333068D01*
X332068D01*
X331069Y159999D01*
Y159000D01*
X332068Y158000D01*
X334068D01*
X335067Y159000D01*
X337807Y188500D02*
X341806D01*
X337807Y192499D01*
Y193498D01*
X338807Y194498D01*
X340806D01*
X341806Y193498D01*
X331809Y188500D02*
X335807D01*
X331809Y192499D01*
Y193498D01*
X332808Y194498D01*
X334808D01*
X335807Y193498D01*
X335307Y222000D02*
X339305D01*
X335307Y225999D01*
Y226998D01*
X336307Y227998D01*
X338306D01*
X339305Y226998D01*
X333307Y222000D02*
X331308D01*
X332308D01*
Y227998D01*
X333307Y226998D01*
X336307Y254000D02*
X340305D01*
X336307Y257999D01*
Y258998D01*
X337306Y259998D01*
X339306D01*
X340305Y258998D01*
X334307D02*
X333308Y259998D01*
X331308D01*
X330309Y258998D01*
Y255000D01*
X331308Y254000D01*
X333308D01*
X334307Y255000D01*
Y258998D01*
X340305Y288000D02*
X338306D01*
X339306D01*
Y293998D01*
X340305Y292998D01*
X335307Y289000D02*
X334307Y288000D01*
X332308D01*
X331308Y289000D01*
Y292998D01*
X332308Y293998D01*
X334307D01*
X335307Y292998D01*
Y291999D01*
X334307Y290999D01*
X331308D01*
X338806Y318500D02*
X336806D01*
X337806D01*
Y324498D01*
X338806Y323498D01*
X333807D02*
X332807Y324498D01*
X330808D01*
X329808Y323498D01*
Y322499D01*
X330808Y321499D01*
X329808Y320499D01*
Y319500D01*
X330808Y318500D01*
X332807D01*
X333807Y319500D01*
Y320499D01*
X332807Y321499D01*
X333807Y322499D01*
Y323498D01*
X332807Y321499D02*
X330808D01*
X338806Y356000D02*
X336806D01*
X337806D01*
Y361998D01*
X338806Y360998D01*
X333807Y361998D02*
X329808D01*
Y360998D01*
X333807Y357000D01*
Y356000D01*
X274805Y161240D02*
X272806D01*
X273806D01*
Y167238D01*
X274805Y166238D01*
X265808Y167238D02*
X267808Y166238D01*
X269807Y164239D01*
Y162240D01*
X268807Y161240D01*
X266808D01*
X265808Y162240D01*
Y163240D01*
X266808Y164239D01*
X269807D01*
X244806Y161000D02*
X242806D01*
X243806D01*
Y166998D01*
X244806Y165998D01*
X235808Y166998D02*
X239807D01*
Y163999D01*
X237808Y164999D01*
X236808D01*
X235808Y163999D01*
Y162000D01*
X236808Y161000D01*
X238807D01*
X239807Y162000D01*
X181806Y159000D02*
X179806D01*
X180806D01*
Y164998D01*
X181806Y163998D01*
X173808Y159000D02*
Y164998D01*
X176807Y161999D01*
X172808D01*
X213305Y159000D02*
X211306D01*
X212306D01*
Y164998D01*
X213305Y163998D01*
X208307D02*
X207307Y164998D01*
X205308D01*
X204308Y163998D01*
Y162999D01*
X205308Y161999D01*
X206308D01*
X205308D01*
X204308Y160999D01*
Y160000D01*
X205308Y159000D01*
X207307D01*
X208307Y160000D01*
X136307Y448498D02*
X137306Y449498D01*
X139306D01*
X140305Y448498D01*
Y444500D01*
X139306Y443500D01*
X137306D01*
X136307Y444500D01*
X133308Y443500D02*
X131308D01*
X130309Y444500D01*
Y446499D01*
X131308Y447499D01*
X133308D01*
X134307Y446499D01*
Y444500D01*
X133308Y443500D01*
X128309D02*
Y447499D01*
X125310D01*
X124311Y446499D01*
Y443500D01*
X122311D02*
Y447499D01*
X119312D01*
X118313Y446499D01*
Y443500D01*
X113314D02*
X115314D01*
X116313Y444500D01*
Y446499D01*
X115314Y447499D01*
X113314D01*
X112315Y446499D01*
Y445499D01*
X116313D01*
X106316Y447499D02*
X109316D01*
X110315Y446499D01*
Y444500D01*
X109316Y443500D01*
X106316D01*
X103317Y448498D02*
Y447499D01*
X104317D01*
X102318D01*
X103317D01*
Y444500D01*
X102318Y443500D01*
X98319D02*
X96320D01*
X95320Y444500D01*
Y446499D01*
X96320Y447499D01*
X98319D01*
X99319Y446499D01*
Y444500D01*
X98319Y443500D01*
X93321Y447499D02*
Y443500D01*
Y445499D01*
X92321Y446499D01*
X91321Y447499D01*
X90322D01*
X87323Y448498D02*
X86323Y449498D01*
X84324D01*
X83324Y448498D01*
Y447499D01*
X84324Y446499D01*
X85323D01*
X84324D01*
X83324Y445499D01*
Y444500D01*
X84324Y443500D01*
X86323D01*
X87323Y444500D01*
X260307Y451998D02*
X261307Y452998D01*
X263306D01*
X264305Y451998D01*
Y448000D01*
X263306Y447000D01*
X261307D01*
X260307Y448000D01*
X257308Y447000D02*
X255308D01*
X254309Y448000D01*
Y449999D01*
X255308Y450999D01*
X257308D01*
X258307Y449999D01*
Y448000D01*
X257308Y447000D01*
X252309D02*
Y450999D01*
X249310D01*
X248311Y449999D01*
Y447000D01*
X246311D02*
Y450999D01*
X243312D01*
X242313Y449999D01*
Y447000D01*
X237314D02*
X239314D01*
X240313Y448000D01*
Y449999D01*
X239314Y450999D01*
X237314D01*
X236315Y449999D01*
Y448999D01*
X240313D01*
X230316Y450999D02*
X233315D01*
X234315Y449999D01*
Y448000D01*
X233315Y447000D01*
X230316D01*
X227318Y451998D02*
Y450999D01*
X228317D01*
X226318D01*
X227318D01*
Y448000D01*
X226318Y447000D01*
X222319D02*
X220320D01*
X219320Y448000D01*
Y449999D01*
X220320Y450999D01*
X222319D01*
X223319Y449999D01*
Y448000D01*
X222319Y447000D01*
X217321Y450999D02*
Y447000D01*
Y448999D01*
X216321Y449999D01*
X215321Y450999D01*
X214322D01*
X207324Y447000D02*
X211323D01*
X207324Y450999D01*
Y451998D01*
X208324Y452998D01*
X210323D01*
X211323Y451998D01*
X43804Y191499D02*
X44804Y190499D01*
Y188500D01*
X43804Y187500D01*
X39805D01*
X38805Y188500D01*
Y190499D01*
X39805Y191499D01*
X38805Y194498D02*
Y196497D01*
X39805Y197497D01*
X41805D01*
X42804Y196497D01*
Y194498D01*
X41805Y193498D01*
X39805D01*
X38805Y194498D01*
Y199496D02*
X42804D01*
Y202495D01*
X41805Y203495D01*
X38805D01*
Y205494D02*
X42804D01*
Y208493D01*
X41805Y209493D01*
X38805D01*
Y214491D02*
Y212492D01*
X39805Y211492D01*
X41805D01*
X42804Y212492D01*
Y214491D01*
X41805Y215491D01*
X40805D01*
Y211492D01*
X42804Y221489D02*
Y218490D01*
X41805Y217490D01*
X39805D01*
X38805Y218490D01*
Y221489D01*
X43804Y224488D02*
X42804D01*
Y223488D01*
Y225488D01*
Y224488D01*
X39805D01*
X38805Y225488D01*
Y229486D02*
Y231486D01*
X39805Y232485D01*
X41805D01*
X42804Y231486D01*
Y229486D01*
X41805Y228487D01*
X39805D01*
X38805Y229486D01*
X42804Y234485D02*
X38805D01*
X40805D01*
X41805Y235485D01*
X42804Y236484D01*
Y237484D01*
X38805Y240483D02*
Y242482D01*
Y241482D01*
X44804D01*
X43804Y240483D01*
X245305Y350000D02*
X243306D01*
X244306D01*
Y355998D01*
X245305Y354998D01*
X236308Y350000D02*
X240307D01*
X236308Y353999D01*
Y354998D01*
X237308Y355998D01*
X239307D01*
X240307Y354998D01*
X212305Y349000D02*
X210306D01*
X211306D01*
Y354998D01*
X212305Y353998D01*
X207307Y349000D02*
X205308D01*
X206307D01*
Y354998D01*
X207307Y353998D01*
X178805Y349500D02*
X176806D01*
X177806D01*
Y355498D01*
X178805Y354498D01*
X173807D02*
X172807Y355498D01*
X170808D01*
X169808Y354498D01*
Y350500D01*
X170808Y349500D01*
X172807D01*
X173807Y350500D01*
Y354498D01*
X142806Y351500D02*
X141806Y350500D01*
X139806D01*
X138807Y351500D01*
Y355498D01*
X139806Y356498D01*
X141806D01*
X142806Y355498D01*
Y354499D01*
X141806Y353499D01*
X138807D01*
X306306Y352998D02*
X305306Y353998D01*
X303307D01*
X302307Y352998D01*
Y351999D01*
X303307Y350999D01*
X302307Y349999D01*
Y349000D01*
X303307Y348000D01*
X305306D01*
X306306Y349000D01*
Y349999D01*
X305306Y350999D01*
X306306Y351999D01*
Y352998D01*
X305306Y350999D02*
X303307D01*
X275306Y355498D02*
X271307D01*
Y354498D01*
X275306Y350500D01*
Y349500D01*
X108307Y355998D02*
X112305D01*
Y352999D01*
X110306Y353999D01*
X109307D01*
X108307Y352999D01*
Y351000D01*
X109307Y350000D01*
X111306D01*
X112305Y351000D01*
X143807Y247000D02*
Y252998D01*
X146806Y249999D01*
X142807D01*
X146806Y228498D02*
X145806Y229498D01*
X143807D01*
X142807Y228498D01*
Y227499D01*
X143807Y226499D01*
X144806D01*
X143807D01*
X142807Y225499D01*
Y224500D01*
X143807Y223500D01*
X145806D01*
X146806Y224500D01*
X144565Y172000D02*
X142566D01*
X143566D01*
Y177998D01*
X144565Y176998D01*
M02*
