G04*
G04 #@! TF.GenerationSoftware,Altium Limited,Altium Designer,19.1.5 (86)*
G04*
G04 Layer_Physical_Order=2*
G04 Layer_Color=16711680*
%FSLAX25Y25*%
%MOIN*%
G70*
G01*
G75*
%ADD12C,0.01000*%
%ADD13R,0.05118X0.02756*%
%ADD22R,0.02362X0.01968*%
%ADD45C,0.00700*%
%ADD46R,0.05906X0.05906*%
%ADD47C,0.05906*%
%ADD48C,0.07874*%
%ADD49R,0.07874X0.07874*%
%ADD50R,0.10630X0.04724*%
%ADD51R,0.04724X0.10630*%
%ADD52R,0.04724X0.04724*%
%ADD53C,0.04724*%
%ADD54R,0.04724X0.04724*%
%ADD55C,0.11811*%
%ADD56C,0.01800*%
%ADD57C,0.05000*%
%ADD58O,0.02362X0.04331*%
%ADD59R,0.02362X0.04331*%
G36*
X8805Y460500D02*
Y55500D01*
X10306Y54000D01*
X440805D01*
Y461000D01*
X439806Y462000D01*
X8805Y460500D01*
D02*
G37*
%LPC*%
G36*
X239806Y438881D02*
X241843Y438038D01*
X242687Y436000D01*
X241843Y433962D01*
X239806Y433118D01*
X237768Y433962D01*
X236924Y436000D01*
X237768Y438038D01*
X239806Y438881D01*
D02*
G37*
G36*
X249805D02*
X251843Y438038D01*
X252687Y436000D01*
X251843Y433962D01*
X249805Y433118D01*
X247768Y433962D01*
X246924Y436000D01*
X247768Y438038D01*
X249805Y438881D01*
D02*
G37*
G36*
X259805D02*
X261843Y438038D01*
X262687Y436000D01*
X261843Y433962D01*
X259805Y433118D01*
X257768Y433962D01*
X256924Y436000D01*
X257768Y438038D01*
X259805Y438881D01*
D02*
G37*
G36*
X115805Y435382D02*
X117843Y434538D01*
X118687Y432500D01*
X117843Y430462D01*
X115805Y429619D01*
X113768Y430462D01*
X112924Y432500D01*
X113768Y434538D01*
X115805Y435382D01*
D02*
G37*
G36*
X125805D02*
X127843Y434538D01*
X128687Y432500D01*
X127843Y430462D01*
X125805Y429619D01*
X123768Y430462D01*
X122924Y432500D01*
X123768Y434538D01*
X125805Y435382D01*
D02*
G37*
G36*
X135805D02*
X137843Y434538D01*
X138687Y432500D01*
X137843Y430462D01*
X135805Y429619D01*
X133768Y430462D01*
X132924Y432500D01*
X133768Y434538D01*
X135805Y435382D01*
D02*
G37*
G36*
X424490Y431335D02*
X430305D01*
Y428472D01*
X424490D01*
Y431335D01*
D02*
G37*
G36*
X431306D02*
X437120D01*
Y428472D01*
X431306D01*
Y431335D01*
D02*
G37*
G36*
X424490Y427472D02*
X430305D01*
Y424610D01*
X424490D01*
Y427472D01*
D02*
G37*
G36*
X431306D02*
X437120D01*
Y424610D01*
X431306D01*
Y427472D01*
D02*
G37*
G36*
X229805Y428882D02*
X231843Y428038D01*
X232687Y426000D01*
X231843Y423962D01*
X229805Y423118D01*
X227768Y423962D01*
X226924Y426000D01*
X227768Y428038D01*
X229805Y428882D01*
D02*
G37*
G36*
X239806D02*
X241843Y428038D01*
X242687Y426000D01*
X241843Y423962D01*
X239806Y423118D01*
X237768Y423962D01*
X236924Y426000D01*
X237768Y428038D01*
X239806Y428882D01*
D02*
G37*
G36*
X249805D02*
X251843Y428038D01*
X252687Y426000D01*
X251843Y423962D01*
X249805Y423118D01*
X247768Y423962D01*
X246924Y426000D01*
X247768Y428038D01*
X249805Y428882D01*
D02*
G37*
G36*
X259805D02*
X261843Y428038D01*
X262687Y426000D01*
X261843Y423962D01*
X259805Y423118D01*
X257768Y423962D01*
X256924Y426000D01*
X257768Y428038D01*
X259805Y428882D01*
D02*
G37*
G36*
X105806Y425382D02*
X107843Y424538D01*
X108687Y422500D01*
X107843Y420462D01*
X105806Y419619D01*
X103768Y420462D01*
X102924Y422500D01*
X103768Y424538D01*
X105806Y425382D01*
D02*
G37*
G36*
X115805D02*
X117843Y424538D01*
X118687Y422500D01*
X117843Y420462D01*
X115805Y419619D01*
X113768Y420462D01*
X112924Y422500D01*
X113768Y424538D01*
X115805Y425382D01*
D02*
G37*
G36*
X125805D02*
X127843Y424538D01*
X128687Y422500D01*
X127843Y420462D01*
X125805Y419619D01*
X123768Y420462D01*
X122924Y422500D01*
X123768Y424538D01*
X125805Y425382D01*
D02*
G37*
G36*
X135805D02*
X137843Y424538D01*
X138687Y422500D01*
X137843Y420462D01*
X135805Y419619D01*
X133768Y420462D01*
X132924Y422500D01*
X133768Y424538D01*
X135805Y425382D01*
D02*
G37*
G36*
X377447Y415540D02*
X383165D01*
Y412184D01*
X377447D01*
Y412746D01*
X365165D01*
Y411684D01*
X359447D01*
Y415040D01*
X365165D01*
Y414478D01*
X377447D01*
Y415540D01*
D02*
G37*
G36*
X410033Y420595D02*
X415357D01*
Y409365D01*
X410033D01*
Y420595D01*
D02*
G37*
G36*
X358747Y411016D02*
X361806D01*
Y409138D01*
X358747D01*
Y411016D01*
D02*
G37*
G36*
X362806D02*
X365865D01*
Y409138D01*
X362806D01*
Y411016D01*
D02*
G37*
G36*
X358747Y408138D02*
X361806D01*
Y406260D01*
X358747D01*
Y408138D01*
D02*
G37*
G36*
X362806D02*
X365865D01*
Y406260D01*
X362806D01*
Y408138D01*
D02*
G37*
G36*
X103143Y435162D02*
X108468D01*
Y429838D01*
X103143D01*
Y431634D01*
X85164D01*
X77671Y424141D01*
Y399172D01*
X78948Y398643D01*
X79836Y396500D01*
X78948Y394357D01*
X76806Y393469D01*
X74663Y394357D01*
X73775Y396500D01*
X74663Y398643D01*
X75940Y399172D01*
Y424500D01*
X76193Y425112D01*
X84193Y433112D01*
X84806Y433366D01*
X103143D01*
Y435162D01*
D02*
G37*
G36*
X227143Y438662D02*
X232468D01*
Y433338D01*
X228368D01*
X204671Y409641D01*
Y392672D01*
X205948Y392143D01*
X206836Y390000D01*
X205948Y387857D01*
X203805Y386969D01*
X201662Y387857D01*
X200775Y390000D01*
X201662Y392143D01*
X202940Y392672D01*
Y410000D01*
X203193Y410612D01*
X227143Y434562D01*
Y438662D01*
D02*
G37*
G36*
X377447Y410816D02*
X383165D01*
Y410004D01*
X392561D01*
X393174Y409750D01*
X398361Y404563D01*
X425190D01*
Y405831D01*
X436420D01*
Y400507D01*
X425190D01*
Y402831D01*
X398002D01*
X397390Y403085D01*
X392203Y408272D01*
X383165D01*
Y407460D01*
X378671D01*
X347599Y376388D01*
X347423Y376315D01*
X347305Y375725D01*
X358418Y364612D01*
X358671Y364000D01*
Y347465D01*
X359449Y347143D01*
X360336Y345000D01*
X359449Y342857D01*
X358421Y342431D01*
Y311568D01*
X359449Y311143D01*
X360336Y309000D01*
X359449Y306857D01*
X358671Y306535D01*
Y279965D01*
X359449Y279643D01*
X360336Y277500D01*
X359449Y275357D01*
X358671Y275035D01*
Y246965D01*
X359449Y246643D01*
X360336Y244500D01*
X359449Y242357D01*
X358921Y242139D01*
Y214361D01*
X359449Y214143D01*
X360336Y212000D01*
X359449Y209857D01*
X358921Y209639D01*
Y182361D01*
X359449Y182143D01*
X360336Y180000D01*
X359449Y177857D01*
X358853Y177610D01*
Y151890D01*
X359449Y151643D01*
X360336Y149500D01*
X359449Y147357D01*
X358891Y147126D01*
Y120074D01*
X359336Y119000D01*
X358449Y116857D01*
X358171Y116742D01*
Y102500D01*
X357918Y101888D01*
X348918Y92888D01*
X348306Y92634D01*
X300805D01*
X300193Y92888D01*
X294193Y98888D01*
X293940Y99500D01*
Y114141D01*
X287447Y120634D01*
X272977D01*
X272448Y119357D01*
X270305Y118469D01*
X268162Y119357D01*
X267634Y120634D01*
X243792D01*
X242949Y118597D01*
X240806Y117710D01*
X238663Y118597D01*
X237775Y120740D01*
X237679Y120884D01*
X212374D01*
X211948Y119857D01*
X209805Y118969D01*
X207663Y119857D01*
X207237Y120884D01*
X182581D01*
X181948Y119357D01*
X179806Y118469D01*
X177663Y119357D01*
X177134Y120634D01*
X120306D01*
X119693Y120888D01*
X104193Y136388D01*
X103940Y137000D01*
Y168328D01*
X102663Y168857D01*
X101775Y171000D01*
X102663Y173143D01*
X103940Y173672D01*
Y193828D01*
X102663Y194357D01*
X101775Y196500D01*
X102663Y198643D01*
X103690Y199068D01*
Y221724D01*
X102163Y222357D01*
X101275Y224500D01*
X102163Y226643D01*
X103690Y227276D01*
Y246431D01*
X102663Y246857D01*
X101775Y249000D01*
X102663Y251143D01*
X104806Y252031D01*
X106948Y251143D01*
X107836Y249000D01*
X106948Y246857D01*
X105421Y246224D01*
Y227068D01*
X106448Y226643D01*
X107336Y224500D01*
X106448Y222357D01*
X105421Y221932D01*
Y199276D01*
X106948Y198643D01*
X107836Y196500D01*
X106948Y194357D01*
X105671Y193828D01*
Y173672D01*
X106948Y173143D01*
X107836Y171000D01*
X106948Y168857D01*
X105671Y168328D01*
Y137359D01*
X120664Y122366D01*
X177134D01*
X177663Y123643D01*
X179806Y124531D01*
X181948Y123643D01*
X182374Y122616D01*
X207030D01*
X207663Y124143D01*
X209805Y125031D01*
X211948Y124143D01*
X212581Y122616D01*
X238552D01*
X238663Y122883D01*
X240806Y123771D01*
X242949Y122883D01*
X243163Y122366D01*
X267634D01*
X268162Y123643D01*
X270305Y124531D01*
X272448Y123643D01*
X272977Y122366D01*
X287806D01*
X288418Y122112D01*
X295418Y115112D01*
X295671Y114500D01*
Y99859D01*
X301164Y94366D01*
X347947D01*
X356440Y102859D01*
Y115880D01*
X356306Y115969D01*
X354163Y116857D01*
X353275Y119000D01*
X354163Y121143D01*
X356306Y122031D01*
X356744Y121849D01*
X357160Y122127D01*
Y146530D01*
X355163Y147357D01*
X354275Y149500D01*
X355163Y151643D01*
X357121Y152454D01*
Y177046D01*
X355163Y177857D01*
X354275Y180000D01*
X355163Y182143D01*
X357190Y182983D01*
Y209017D01*
X355163Y209857D01*
X354275Y212000D01*
X355163Y214143D01*
X357190Y214983D01*
Y241517D01*
X355163Y242357D01*
X354275Y244500D01*
X355163Y246643D01*
X356940Y247379D01*
Y274621D01*
X355163Y275357D01*
X354275Y277500D01*
X355163Y279643D01*
X356940Y280379D01*
Y306121D01*
X355163Y306857D01*
X354275Y309000D01*
X355163Y311143D01*
X356690Y311776D01*
Y342224D01*
X355163Y342857D01*
X354275Y345000D01*
X355163Y347143D01*
X356940Y347879D01*
Y363641D01*
X344447Y376134D01*
X290477D01*
X289949Y374857D01*
X287806Y373969D01*
X285663Y374857D01*
X285134Y376134D01*
X257978D01*
X257449Y374857D01*
X255306Y373969D01*
X253163Y374857D01*
X252841Y375634D01*
X224685D01*
X223949Y373857D01*
X221806Y372969D01*
X219662Y373857D01*
X218823Y375884D01*
X192667D01*
X192448Y375357D01*
X190305Y374469D01*
X188163Y375357D01*
X187634Y376634D01*
X158321D01*
X157500Y375813D01*
X157836Y375000D01*
X156948Y372857D01*
X154806Y371969D01*
X152663Y372857D01*
X152237Y373884D01*
X126081D01*
X125449Y372357D01*
X123305Y371469D01*
X121162Y372357D01*
X120878Y373043D01*
X94722D01*
X93949Y371176D01*
X91805Y370288D01*
X89662Y371176D01*
X88992Y372794D01*
X61836D01*
X61449Y371857D01*
X59306Y370969D01*
X57162Y371857D01*
X56275Y374000D01*
X57162Y376143D01*
X59306Y377031D01*
X61449Y376143D01*
X62119Y374525D01*
X89275D01*
X89662Y375462D01*
X91805Y376350D01*
X93949Y375462D01*
X94233Y374775D01*
X120389D01*
X121162Y376643D01*
X123305Y377531D01*
X125449Y376643D01*
X125874Y375616D01*
X152030D01*
X152663Y377143D01*
X154806Y378031D01*
X156547Y377309D01*
X157350Y378112D01*
X157962Y378366D01*
X187634D01*
X188163Y379643D01*
X190305Y380531D01*
X192448Y379643D01*
X193288Y377616D01*
X219444D01*
X219662Y378143D01*
X221806Y379031D01*
X223949Y378143D01*
X224270Y377366D01*
X252426D01*
X253163Y379143D01*
X255306Y380031D01*
X257449Y379143D01*
X257978Y377866D01*
X285134D01*
X285663Y379143D01*
X287806Y380031D01*
X289949Y379143D01*
X290477Y377866D01*
X346628D01*
X377447Y408684D01*
Y410816D01*
D02*
G37*
G36*
X19805Y339021D02*
X22295Y337990D01*
X23326Y335500D01*
X22295Y333010D01*
X19805Y331979D01*
X17316Y333010D01*
X16285Y335500D01*
X17316Y337990D01*
X19805Y339021D01*
D02*
G37*
G36*
X19306Y329571D02*
Y326000D01*
X15734D01*
X16780Y328525D01*
X19306Y329571D01*
D02*
G37*
G36*
X20305D02*
X22831Y328525D01*
X23877Y326000D01*
X20305D01*
Y329571D01*
D02*
G37*
G36*
X391806Y331531D02*
X393949Y330643D01*
X394545Y329204D01*
X420806D01*
X421303Y328997D01*
X422803Y327498D01*
X423009Y327000D01*
Y313162D01*
X424968D01*
Y307838D01*
X419643D01*
Y313162D01*
X421602D01*
Y326709D01*
X420514Y327797D01*
X394545D01*
X393949Y326357D01*
X391806Y325469D01*
X389663Y326357D01*
X388775Y328500D01*
X389663Y330643D01*
X391806Y331531D01*
D02*
G37*
G36*
X15734Y325000D02*
X19306D01*
Y321429D01*
X16780Y322475D01*
X15734Y325000D01*
D02*
G37*
G36*
X20305D02*
X23877D01*
X22831Y322475D01*
X20305Y321429D01*
Y325000D01*
D02*
G37*
G36*
X61446Y318540D02*
X67164D01*
Y315184D01*
X61446D01*
Y315909D01*
X54164D01*
Y314684D01*
X48446D01*
Y318040D01*
X54164D01*
Y317316D01*
X61446D01*
Y318540D01*
D02*
G37*
G36*
X60747Y314516D02*
X63806D01*
Y312638D01*
X60747D01*
Y314516D01*
D02*
G37*
G36*
X64806D02*
X67865D01*
Y312638D01*
X64806D01*
Y314516D01*
D02*
G37*
G36*
X16553Y318753D02*
X23058D01*
Y312247D01*
X16553D01*
Y318753D01*
D02*
G37*
G36*
X60747Y311638D02*
X63806D01*
Y309760D01*
X60747D01*
Y311638D01*
D02*
G37*
G36*
X64806D02*
X67865D01*
Y309760D01*
X64806D01*
Y311638D01*
D02*
G37*
G36*
X240746Y309740D02*
X243806D01*
Y307862D01*
X240746D01*
Y309740D01*
D02*
G37*
G36*
X244806D02*
X247865D01*
Y307862D01*
X244806D01*
Y309740D01*
D02*
G37*
G36*
X412305Y313382D02*
X414343Y312538D01*
X415187Y310500D01*
X414343Y308462D01*
X412305Y307618D01*
X410268Y308462D01*
X409424Y310500D01*
X410268Y312538D01*
X412305Y313382D01*
D02*
G37*
G36*
X225746Y309378D02*
X228805D01*
Y307500D01*
X225746D01*
Y309378D01*
D02*
G37*
G36*
X229805D02*
X232865D01*
Y307500D01*
X229805D01*
Y309378D01*
D02*
G37*
G36*
X240746Y306862D02*
X243806D01*
Y304984D01*
X240746D01*
Y306862D01*
D02*
G37*
G36*
X244806D02*
X247865D01*
Y304984D01*
X244806D01*
Y306862D01*
D02*
G37*
G36*
X225746Y306500D02*
X228805D01*
Y304622D01*
X225746D01*
Y306500D01*
D02*
G37*
G36*
X229805D02*
X232865D01*
Y304622D01*
X229805D01*
Y306500D01*
D02*
G37*
G36*
X129643Y304954D02*
X134968D01*
Y302995D01*
X139014D01*
X139512Y302789D01*
X153766Y288534D01*
X156306Y289586D01*
X159548Y288243D01*
X160892Y285000D01*
X159548Y281757D01*
X156306Y280414D01*
X153383Y281624D01*
X153100Y281200D01*
X156803Y277498D01*
X157009Y277000D01*
Y267641D01*
X159548Y266589D01*
X160892Y263347D01*
X159548Y260104D01*
X156306Y258760D01*
X153063Y260104D01*
X151719Y263347D01*
X153063Y266589D01*
X155602Y267641D01*
Y276709D01*
X150014Y282296D01*
X134896D01*
X134343Y280962D01*
X132306Y280118D01*
X130268Y280962D01*
X129424Y283000D01*
X129976Y284334D01*
X126449Y287862D01*
X125987Y287671D01*
Y287500D01*
X123805D01*
X121624D01*
Y288984D01*
X123253D01*
X123352Y289484D01*
X123308Y289503D01*
X123102Y290000D01*
X123308Y290497D01*
X123805Y290704D01*
X125305D01*
X125803Y290497D01*
X130972Y285329D01*
X132306Y285881D01*
X134343Y285038D01*
X134896Y283703D01*
X150305D01*
X150803Y283498D01*
X152506Y281795D01*
X152930Y282078D01*
X151719Y285000D01*
X152771Y287539D01*
X138723Y301588D01*
X134968D01*
Y299629D01*
X129643D01*
Y301588D01*
X124944D01*
X124487Y301484D01*
Y300000D01*
X122306D01*
X120124D01*
Y301296D01*
X112539D01*
X111805Y300992D01*
X110887Y301373D01*
X110507Y302291D01*
X110887Y303210D01*
X111805Y303590D01*
X112724Y303210D01*
X112934Y302703D01*
X121806D01*
X122303Y302498D01*
X122468Y302671D01*
X122517Y302789D01*
X123014Y302995D01*
X129643D01*
Y304954D01*
D02*
G37*
G36*
X412305Y303381D02*
X414343Y302538D01*
X415187Y300500D01*
X414343Y298462D01*
X412305Y297619D01*
X410268Y298462D01*
X409424Y300500D01*
X410268Y302538D01*
X412305Y303381D01*
D02*
G37*
G36*
X422305D02*
X424343Y302538D01*
X425187Y300500D01*
X424343Y298462D01*
X422305Y297619D01*
X420268Y298462D01*
X419424Y300500D01*
X420268Y302538D01*
X422305Y303381D01*
D02*
G37*
G36*
X120124Y299000D02*
X121806D01*
Y297516D01*
X120124D01*
Y299000D01*
D02*
G37*
G36*
X122806D02*
X124487D01*
Y297516D01*
X122806D01*
Y299000D01*
D02*
G37*
G36*
X98305Y301381D02*
X100343Y300538D01*
X101187Y298500D01*
X100343Y296462D01*
X98305Y295619D01*
X96268Y296462D01*
X95424Y298500D01*
X96268Y300538D01*
X98305Y301381D01*
D02*
G37*
G36*
X48446Y313316D02*
X54164D01*
Y309960D01*
X52171D01*
Y298343D01*
X55298Y295217D01*
X60193Y300112D01*
X60805Y300366D01*
X88947D01*
X95643Y307062D01*
Y311162D01*
X100968D01*
Y309366D01*
X163805D01*
X164418Y309112D01*
X189753Y283777D01*
X189805Y283799D01*
X189858Y283777D01*
X203193Y297112D01*
X203805Y297366D01*
X225306D01*
X225918Y297112D01*
X229478Y293552D01*
X229940Y293744D01*
Y300598D01*
X226447D01*
Y303954D01*
X232165D01*
Y302754D01*
X241446D01*
Y304316D01*
X247165D01*
Y300960D01*
X241446D01*
Y301022D01*
X232165D01*
Y300598D01*
X231671D01*
Y291940D01*
X231724Y291918D01*
X232104Y291000D01*
X232083Y290948D01*
X243253Y279777D01*
X243305Y279799D01*
X244224Y279418D01*
X244604Y278500D01*
X244583Y278448D01*
X253918Y269112D01*
X254171Y268500D01*
Y250000D01*
X253918Y249388D01*
X241923Y237393D01*
X242114Y236931D01*
X260240D01*
X260853Y236678D01*
X262628Y234902D01*
X265665D01*
Y233866D01*
X271446D01*
Y235178D01*
X277165D01*
Y231822D01*
X271446D01*
Y232134D01*
X265665D01*
Y231546D01*
X259946D01*
Y234902D01*
X259569Y235199D01*
X240311D01*
X240289Y235147D01*
X239371Y234766D01*
X239318Y234788D01*
X231418Y226888D01*
X231418Y226888D01*
X227918Y223388D01*
X227306Y223134D01*
X205306D01*
X204693Y223388D01*
X197192Y230889D01*
X196730Y230697D01*
Y223507D01*
X200803Y219434D01*
X201009Y218937D01*
Y204540D01*
X203165D01*
Y201184D01*
X197447D01*
Y204540D01*
X199602D01*
Y218646D01*
X197126Y221121D01*
X196665Y220930D01*
Y220822D01*
X190946D01*
Y221565D01*
X181165D01*
Y220684D01*
X175446D01*
Y222346D01*
X175440Y222362D01*
X175446Y222379D01*
Y224040D01*
X181165D01*
Y223297D01*
X190946D01*
Y224178D01*
X194999D01*
Y232343D01*
X195139Y232681D01*
X195007Y233000D01*
X195387Y233918D01*
X196306Y234299D01*
X197224Y233918D01*
X197604Y233000D01*
X197583Y232947D01*
X205664Y224866D01*
X226947D01*
X230193Y228112D01*
X230193Y228112D01*
X238094Y236013D01*
X238072Y236065D01*
X238452Y236984D01*
X239371Y237364D01*
X239423Y237342D01*
X252440Y250359D01*
Y268141D01*
X243358Y277223D01*
X243305Y277201D01*
X242387Y277582D01*
X242007Y278500D01*
X242028Y278553D01*
X230858Y289723D01*
X230805Y289701D01*
X229887Y290082D01*
X229507Y291000D01*
X229528Y291053D01*
X224947Y295634D01*
X204164D01*
X191083Y282553D01*
X191104Y282500D01*
X190724Y281582D01*
X189805Y281201D01*
X188887Y281582D01*
X188507Y282500D01*
X188528Y282553D01*
X163447Y307634D01*
X100968D01*
Y305838D01*
X96868D01*
X89918Y298888D01*
X89306Y298634D01*
X61164D01*
X57000Y294470D01*
X57409Y293484D01*
Y291516D01*
X56939Y290382D01*
X55805Y289913D01*
X54672Y290382D01*
X54202Y291516D01*
Y293484D01*
X54313Y293752D01*
X50693Y297372D01*
X50440Y297984D01*
Y309960D01*
X48446D01*
Y313316D01*
D02*
G37*
G36*
X63286Y295087D02*
X64419Y294618D01*
X64889Y293484D01*
Y291516D01*
X64819Y291346D01*
X65599Y290566D01*
X75446D01*
Y291540D01*
X81164D01*
Y288184D01*
X75446D01*
Y289159D01*
X65308D01*
X64811Y289365D01*
X63977Y290199D01*
X63286Y289913D01*
X62152Y290382D01*
X61683Y291516D01*
Y293484D01*
X62152Y294618D01*
X63286Y295087D01*
D02*
G37*
G36*
X276306Y290932D02*
Y288000D01*
X273373D01*
X274232Y290073D01*
X276306Y290932D01*
D02*
G37*
G36*
X277306D02*
X279379Y290073D01*
X280238Y288000D01*
X277306D01*
Y290932D01*
D02*
G37*
G36*
X412305Y293382D02*
X414343Y292538D01*
X415187Y290500D01*
X414343Y288462D01*
X412305Y287618D01*
X410268Y288462D01*
X409424Y290500D01*
X410268Y292538D01*
X412305Y293382D01*
D02*
G37*
G36*
X422305D02*
X424343Y292538D01*
X425187Y290500D01*
X424343Y288462D01*
X422305Y287618D01*
X420268Y288462D01*
X419424Y290500D01*
X420268Y292538D01*
X422305Y293382D01*
D02*
G37*
G36*
X74747Y287516D02*
X77806D01*
Y285638D01*
X74747D01*
Y287516D01*
D02*
G37*
G36*
X78806D02*
X81865D01*
Y285638D01*
X78806D01*
Y287516D01*
D02*
G37*
G36*
X98305Y291382D02*
X100343Y290538D01*
X100896Y289204D01*
X115749D01*
X116246Y288998D01*
X127040Y278204D01*
X149298D01*
X149387Y278418D01*
X150305Y278799D01*
X151224Y278418D01*
X151604Y277500D01*
X151224Y276582D01*
X150305Y276201D01*
X149387Y276582D01*
X149298Y276797D01*
X126749D01*
X126251Y277003D01*
X115457Y287796D01*
X100896D01*
X100343Y286462D01*
X98305Y285618D01*
X96268Y286462D01*
X95424Y288500D01*
X96268Y290538D01*
X98305Y291382D01*
D02*
G37*
G36*
X121624Y286500D02*
X123305D01*
Y285016D01*
X121624D01*
Y286500D01*
D02*
G37*
G36*
X124305D02*
X125987D01*
Y285016D01*
X124305D01*
Y286500D01*
D02*
G37*
G36*
X273373Y287000D02*
X276306D01*
Y284068D01*
X274232Y284927D01*
X273373Y287000D01*
D02*
G37*
G36*
X277306D02*
X280238D01*
X279379Y284927D01*
X277306Y284068D01*
Y287000D01*
D02*
G37*
G36*
X74747Y284638D02*
X77806D01*
Y282760D01*
X74747D01*
Y284638D01*
D02*
G37*
G36*
X78806D02*
X81865D01*
Y282760D01*
X78806D01*
Y284638D01*
D02*
G37*
G36*
X59046Y285402D02*
Y282264D01*
X60046D01*
Y285402D01*
X61215Y284917D01*
X61545Y284122D01*
X62045D01*
X62152Y284382D01*
X63286Y284851D01*
X64419Y284382D01*
X64889Y283248D01*
Y281279D01*
X64419Y280146D01*
X64412Y280143D01*
Y275918D01*
X64586Y275500D01*
X64332Y274888D01*
X63720Y274634D01*
X56750D01*
X29171Y247056D01*
Y167859D01*
X29664Y167366D01*
X62305D01*
X62918Y167112D01*
X73221Y156809D01*
X73475Y156197D01*
Y140615D01*
X74968D01*
Y129385D01*
X69643D01*
Y140615D01*
X71743D01*
Y155838D01*
X61947Y165634D01*
X29305D01*
X28693Y165888D01*
X27693Y166888D01*
X27440Y167500D01*
Y247414D01*
X27693Y248026D01*
X55178Y275511D01*
X54940Y276086D01*
Y279798D01*
X54324D01*
Y281634D01*
X37665D01*
Y280322D01*
X31946D01*
Y283678D01*
X37665D01*
Y283366D01*
X54324D01*
Y284729D01*
X57287D01*
Y284729D01*
X57759Y284635D01*
X57876Y284917D01*
X59046Y285402D01*
D02*
G37*
G36*
X274143Y310162D02*
X279468D01*
Y304838D01*
X275368D01*
X253583Y283052D01*
X253604Y283000D01*
X253224Y282082D01*
X252306Y281701D01*
X251387Y282082D01*
X251007Y283000D01*
X251387Y283918D01*
X252306Y284299D01*
X252358Y284277D01*
X274143Y306062D01*
Y310162D01*
D02*
G37*
G36*
X97806Y281932D02*
Y279000D01*
X94873D01*
X95732Y281073D01*
X97806Y281932D01*
D02*
G37*
G36*
X98805D02*
X100879Y281073D01*
X101738Y279000D01*
X98805D01*
Y281932D01*
D02*
G37*
G36*
X31246Y279654D02*
X34306D01*
Y277776D01*
X31246D01*
Y279654D01*
D02*
G37*
G36*
X35306D02*
X38365D01*
Y277776D01*
X35306D01*
Y279654D01*
D02*
G37*
G36*
X412305Y283382D02*
X414343Y282538D01*
X415187Y280500D01*
X414343Y278462D01*
X412305Y277619D01*
X410268Y278462D01*
X409424Y280500D01*
X410268Y282538D01*
X412305Y283382D01*
D02*
G37*
G36*
X422305D02*
X424343Y282538D01*
X425187Y280500D01*
X424343Y278462D01*
X422305Y277619D01*
X420268Y278462D01*
X419424Y280500D01*
X420268Y282538D01*
X422305Y283382D01*
D02*
G37*
G36*
X94873Y278000D02*
X97806D01*
Y275068D01*
X95732Y275927D01*
X94873Y278000D01*
D02*
G37*
G36*
X98805D02*
X101738D01*
X100879Y275927D01*
X98805Y275068D01*
Y278000D01*
D02*
G37*
G36*
X31246Y276776D02*
X34306D01*
Y274898D01*
X31246D01*
Y276776D01*
D02*
G37*
G36*
X35306D02*
X38365D01*
Y274898D01*
X35306D01*
Y276776D01*
D02*
G37*
G36*
X166148Y289586D02*
X169391Y288243D01*
X170734Y285000D01*
X169391Y281757D01*
X169333Y281467D01*
X172678Y278122D01*
X172884Y277625D01*
Y275416D01*
X175082Y273218D01*
X175507Y273500D01*
X175887Y274418D01*
X176102Y274507D01*
Y280763D01*
X171754D01*
Y289237D01*
X180227D01*
Y280763D01*
X177509D01*
Y274507D01*
X177724Y274418D01*
X178104Y273500D01*
X177724Y272582D01*
X176805Y272201D01*
X176524Y271777D01*
X181722Y266579D01*
X183931D01*
X184428Y266372D01*
X190097Y260703D01*
X205900D01*
X206107Y261204D01*
X197808Y269502D01*
X197602Y270000D01*
X197808Y270497D01*
X198305Y270704D01*
X198803Y270497D01*
X215803Y253498D01*
X216009Y253000D01*
Y230008D01*
X216224Y229918D01*
X216604Y229000D01*
X216224Y228082D01*
X215305Y227701D01*
X214387Y228082D01*
X214007Y229000D01*
X214387Y229918D01*
X214602Y230008D01*
Y252709D01*
X213009Y254302D01*
X212509Y254094D01*
Y252008D01*
X212724Y251918D01*
X213104Y251000D01*
X212724Y250082D01*
X211806Y249701D01*
X210887Y250082D01*
X210507Y251000D01*
X210887Y251918D01*
X211102Y252008D01*
Y254209D01*
X206014Y259296D01*
X189805D01*
X189308Y259503D01*
X183639Y265172D01*
X181430D01*
X180933Y265377D01*
X179812Y266498D01*
X179388Y266215D01*
X180577Y263347D01*
X179233Y260104D01*
X175990Y258760D01*
X172748Y260104D01*
X171404Y263347D01*
X172748Y266589D01*
X175990Y267933D01*
X178859Y266744D01*
X179142Y267168D01*
X171683Y274627D01*
X171477Y275125D01*
Y277334D01*
X167738Y281072D01*
X166148Y280414D01*
X162905Y281757D01*
X161562Y285000D01*
X162905Y288243D01*
X166148Y289586D01*
D02*
G37*
G36*
X276805Y300381D02*
X278843Y299538D01*
X279687Y297500D01*
X278843Y295462D01*
X276805Y294619D01*
X275634Y295104D01*
X257899Y277369D01*
Y275332D01*
X257951Y275310D01*
X258332Y274392D01*
X257951Y273474D01*
X257033Y273093D01*
X256115Y273474D01*
X255734Y274392D01*
X256115Y275310D01*
X256167Y275332D01*
Y277727D01*
X256421Y278340D01*
X274409Y296328D01*
X273924Y297500D01*
X274768Y299538D01*
X276805Y300381D01*
D02*
G37*
G36*
X166148Y267933D02*
X169391Y266589D01*
X170734Y263347D01*
X169773Y261027D01*
X192597Y238204D01*
X197798D01*
X197887Y238418D01*
X198805Y238799D01*
X199724Y238418D01*
X200104Y237500D01*
X199724Y236582D01*
X198805Y236201D01*
X197887Y236582D01*
X197798Y236796D01*
X192306D01*
X191808Y237002D01*
X168907Y259903D01*
X166148Y258760D01*
X162905Y260104D01*
X161562Y263347D01*
X162905Y266589D01*
X166148Y267933D01*
D02*
G37*
G36*
X270746Y231153D02*
X273805D01*
Y229276D01*
X270746D01*
Y231153D01*
D02*
G37*
G36*
X274805D02*
X277865D01*
Y229276D01*
X274805D01*
Y231153D01*
D02*
G37*
G36*
X259246Y230878D02*
X262305D01*
Y229000D01*
X259246D01*
Y230878D01*
D02*
G37*
G36*
X263305D02*
X266365D01*
Y229000D01*
X263305D01*
Y230878D01*
D02*
G37*
G36*
X224306Y263799D02*
X225224Y263418D01*
X225604Y262500D01*
X225224Y261582D01*
X224306Y261201D01*
X224091Y261290D01*
X220259Y257459D01*
Y230258D01*
X220474Y230168D01*
X220854Y229250D01*
X220474Y228332D01*
X219555Y227951D01*
X218637Y228332D01*
X218257Y229250D01*
X218637Y230168D01*
X218852Y230258D01*
Y257750D01*
X219058Y258247D01*
X223096Y262285D01*
X223007Y262500D01*
X223387Y263418D01*
X224306Y263799D01*
D02*
G37*
G36*
X270746Y228276D02*
X273805D01*
Y226398D01*
X270746D01*
Y228276D01*
D02*
G37*
G36*
X274805D02*
X277865D01*
Y226398D01*
X274805D01*
Y228276D01*
D02*
G37*
G36*
X259246Y228000D02*
X262305D01*
Y226122D01*
X259246D01*
Y228000D01*
D02*
G37*
G36*
X263305D02*
X266365D01*
Y226122D01*
X263305D01*
Y228000D01*
D02*
G37*
G36*
X52806Y231881D02*
X54843Y231038D01*
X55687Y229000D01*
X54843Y226962D01*
X52806Y226118D01*
X50768Y226962D01*
X49924Y229000D01*
X50768Y231038D01*
X52806Y231881D01*
D02*
G37*
G36*
X62805D02*
X64843Y231038D01*
X65687Y229000D01*
X64843Y226962D01*
X62805Y226118D01*
X60768Y226962D01*
X59924Y229000D01*
X60768Y231038D01*
X62805Y231881D01*
D02*
G37*
G36*
X212556Y222049D02*
X213474Y221668D01*
X213854Y220750D01*
X213765Y220535D01*
X216803Y217497D01*
X217009Y217000D01*
Y207048D01*
X220543D01*
Y198574D01*
X213064D01*
X204992Y190503D01*
X204495Y190296D01*
X200891D01*
X200394Y190503D01*
X199808Y191088D01*
X199602Y191586D01*
Y196460D01*
X197447D01*
Y199816D01*
X203165D01*
Y196460D01*
X201009D01*
Y191877D01*
X201183Y191703D01*
X204203D01*
X212069Y199569D01*
Y207048D01*
X215602D01*
Y216709D01*
X212770Y219540D01*
X212556Y219451D01*
X211637Y219832D01*
X211257Y220750D01*
X211637Y221668D01*
X212556Y222049D01*
D02*
G37*
G36*
X190246Y220153D02*
X193306D01*
Y218276D01*
X190246D01*
Y220153D01*
D02*
G37*
G36*
X194306D02*
X197365D01*
Y218276D01*
X194306D01*
Y220153D01*
D02*
G37*
G36*
X174747Y220016D02*
X177805D01*
Y218138D01*
X174747D01*
Y220016D01*
D02*
G37*
G36*
X178805D02*
X181865D01*
Y218138D01*
X178805D01*
Y220016D01*
D02*
G37*
G36*
X52806Y221882D02*
X54843Y221038D01*
X55687Y219000D01*
X54843Y216962D01*
X52806Y216119D01*
X50768Y216962D01*
X49924Y219000D01*
X50768Y221038D01*
X52806Y221882D01*
D02*
G37*
G36*
X62805D02*
X64843Y221038D01*
X65687Y219000D01*
X64843Y216962D01*
X62805Y216119D01*
X60768Y216962D01*
X59924Y219000D01*
X60768Y221038D01*
X62805Y221882D01*
D02*
G37*
G36*
X190246Y217276D02*
X193306D01*
Y215398D01*
X190246D01*
Y217276D01*
D02*
G37*
G36*
X194306D02*
X197365D01*
Y215398D01*
X194306D01*
Y217276D01*
D02*
G37*
G36*
X174747Y217138D02*
X177805D01*
Y215260D01*
X174747D01*
Y217138D01*
D02*
G37*
G36*
X178805D02*
X181865D01*
Y215260D01*
X178805D01*
Y217138D01*
D02*
G37*
G36*
X257306Y212228D02*
X257918Y211975D01*
X258168Y211724D01*
X258421Y211112D01*
X258168Y210500D01*
X257556Y210246D01*
X256943Y210500D01*
X256693Y210750D01*
X256440Y211362D01*
X256693Y211975D01*
X257306Y212228D01*
D02*
G37*
G36*
X269555Y211978D02*
X270168Y211724D01*
X270418Y211474D01*
X270671Y210862D01*
X270418Y210250D01*
X269806Y209996D01*
X269193Y210250D01*
X268943Y210500D01*
X268690Y211112D01*
X268943Y211724D01*
X269555Y211978D01*
D02*
G37*
G36*
X52806Y211881D02*
X54843Y211038D01*
X55687Y209000D01*
X54843Y206962D01*
X52806Y206118D01*
X50768Y206962D01*
X49924Y209000D01*
X50768Y211038D01*
X52806Y211881D01*
D02*
G37*
G36*
X62805D02*
X64843Y211038D01*
X65687Y209000D01*
X64843Y206962D01*
X62805Y206118D01*
X60768Y206962D01*
X59924Y209000D01*
X60768Y211038D01*
X62805Y211881D01*
D02*
G37*
G36*
Y201882D02*
X64843Y201038D01*
X65687Y199000D01*
X64843Y196962D01*
X62805Y196118D01*
X60768Y196962D01*
X59924Y199000D01*
X60768Y201038D01*
X62805Y201882D01*
D02*
G37*
G36*
X419643Y194162D02*
X424968D01*
Y188838D01*
X419643D01*
Y194162D01*
D02*
G37*
G36*
X412305Y194381D02*
X414343Y193538D01*
X415187Y191500D01*
X414343Y189462D01*
X412305Y188619D01*
X410268Y189462D01*
X409424Y191500D01*
X410268Y193538D01*
X412305Y194381D01*
D02*
G37*
G36*
X50143Y201662D02*
X55468D01*
Y197297D01*
X55534Y197138D01*
Y194767D01*
X65597Y184704D01*
X80066D01*
X80663Y186143D01*
X82806Y187031D01*
X84948Y186143D01*
X85836Y184000D01*
X84948Y181857D01*
X82806Y180969D01*
X80663Y181857D01*
X80066Y183297D01*
X65306D01*
X64808Y183502D01*
X54447Y193863D01*
X54055Y194026D01*
X53802Y194638D01*
Y196338D01*
X50143D01*
Y201662D01*
D02*
G37*
G36*
X211368Y184126D02*
X215806D01*
Y179689D01*
X211368D01*
Y184126D01*
D02*
G37*
G36*
X216806D02*
X221242D01*
Y179689D01*
X216806D01*
Y184126D01*
D02*
G37*
G36*
X412305Y184381D02*
X414343Y183538D01*
X415187Y181500D01*
X414343Y179462D01*
X412305Y178619D01*
X410268Y179462D01*
X409424Y181500D01*
X410268Y183538D01*
X412305Y184381D01*
D02*
G37*
G36*
X422305D02*
X424343Y183538D01*
X425187Y181500D01*
X424343Y179462D01*
X422305Y178619D01*
X420268Y179462D01*
X419424Y181500D01*
X420268Y183538D01*
X422305Y184381D01*
D02*
G37*
G36*
X211368Y178689D02*
X215806D01*
Y174252D01*
X211368D01*
Y178689D01*
D02*
G37*
G36*
X216806D02*
X221242D01*
Y174252D01*
X216806D01*
Y178689D01*
D02*
G37*
G36*
X412305Y174381D02*
X414343Y173538D01*
X415187Y171500D01*
X414343Y169462D01*
X412305Y168619D01*
X410268Y169462D01*
X409424Y171500D01*
X410268Y173538D01*
X412305Y174381D01*
D02*
G37*
G36*
X422305D02*
X424343Y173538D01*
X425187Y171500D01*
X424343Y169462D01*
X422305Y168619D01*
X420268Y169462D01*
X419424Y171500D01*
X420268Y173538D01*
X422305Y174381D01*
D02*
G37*
G36*
X412305Y164382D02*
X414343Y163538D01*
X415187Y161500D01*
X414343Y159462D01*
X412305Y158618D01*
X410268Y159462D01*
X409424Y161500D01*
X410268Y163538D01*
X412305Y164382D01*
D02*
G37*
G36*
X422305D02*
X424343Y163538D01*
X425187Y161500D01*
X424343Y159462D01*
X422305Y158618D01*
X420268Y159462D01*
X419424Y161500D01*
X420268Y163538D01*
X422305Y164382D01*
D02*
G37*
G36*
X44140Y141315D02*
X47002D01*
Y135500D01*
X44140D01*
Y141315D01*
D02*
G37*
G36*
X48002D02*
X50865D01*
Y135500D01*
X48002D01*
Y141315D01*
D02*
G37*
G36*
X44140Y134500D02*
X47002D01*
Y128685D01*
X44140D01*
Y134500D01*
D02*
G37*
G36*
X48002D02*
X50865D01*
Y128685D01*
X48002D01*
Y134500D01*
D02*
G37*
G36*
X54879Y119552D02*
X66109D01*
Y114228D01*
X54879D01*
Y119552D01*
D02*
G37*
G36*
X204143Y82162D02*
X209468D01*
Y76838D01*
X204143D01*
Y82162D01*
D02*
G37*
G36*
X216806Y82381D02*
X218843Y81538D01*
X219687Y79500D01*
X218843Y77462D01*
X216806Y76618D01*
X214768Y77462D01*
X213924Y79500D01*
X214768Y81538D01*
X216806Y82381D01*
D02*
G37*
G36*
X226805D02*
X228843Y81538D01*
X229687Y79500D01*
X228843Y77462D01*
X226805Y76618D01*
X224768Y77462D01*
X223924Y79500D01*
X224768Y81538D01*
X226805Y82381D01*
D02*
G37*
G36*
X236806D02*
X238843Y81538D01*
X239687Y79500D01*
X238843Y77462D01*
X236806Y76618D01*
X234768Y77462D01*
X233924Y79500D01*
X234768Y81538D01*
X236806Y82381D01*
D02*
G37*
G36*
X192306Y101531D02*
X194448Y100643D01*
X195336Y98500D01*
X194448Y96357D01*
X193009Y95761D01*
Y84291D01*
X205471Y71829D01*
X206805Y72382D01*
X208843Y71538D01*
X209687Y69500D01*
X208843Y67462D01*
X206805Y66619D01*
X204768Y67462D01*
X203924Y69500D01*
X204476Y70834D01*
X191808Y83503D01*
X191602Y84000D01*
Y95761D01*
X190163Y96357D01*
X189275Y98500D01*
X190163Y100643D01*
X192306Y101531D01*
D02*
G37*
G36*
X216806Y72382D02*
X218843Y71538D01*
X219687Y69500D01*
X218843Y67462D01*
X216806Y66619D01*
X214768Y67462D01*
X213924Y69500D01*
X214768Y71538D01*
X216806Y72382D01*
D02*
G37*
G36*
X226805D02*
X228843Y71538D01*
X229687Y69500D01*
X228843Y67462D01*
X226805Y66619D01*
X224768Y67462D01*
X223924Y69500D01*
X224768Y71538D01*
X226805Y72382D01*
D02*
G37*
G36*
X236806D02*
X238843Y71538D01*
X239687Y69500D01*
X238843Y67462D01*
X236806Y66619D01*
X234768Y67462D01*
X233924Y69500D01*
X234768Y71538D01*
X236806Y72382D01*
D02*
G37*
%LPD*%
D12*
X362556Y413612D02*
X362305Y413362D01*
X380055Y413612D02*
X362556D01*
X380306Y413862D02*
X380055Y413612D01*
X263305Y233000D02*
X260240Y236065D01*
X273306Y233000D02*
X263305D01*
X231556Y301888D02*
X230805Y301138D01*
X176805Y284185D02*
X175990Y285000D01*
X163805Y308500D02*
X98305D01*
X189805Y282500D02*
X163805Y308500D01*
X98305D02*
X89306Y299500D01*
X60805D02*
X55298Y293992D01*
X89306Y299500D02*
X60805D01*
X51556Y316612D02*
X51306Y316362D01*
X64306Y316862D02*
X64056Y316612D01*
X428305Y403697D02*
X398002D01*
X346987Y377000D02*
X344806D01*
X379124Y409138D02*
X346987Y377000D01*
X380306Y409138D02*
X379124D01*
X357556Y308250D02*
Y344750D01*
X357805Y244500D02*
Y308000D01*
X270305Y121500D02*
X240806D01*
X357306Y102500D02*
Y119500D01*
X398002Y403697D02*
X392561Y409138D01*
X380306D01*
X55298Y293992D02*
X51306Y297984D01*
X55805Y293484D02*
X55298Y293992D01*
X55569Y282500D02*
X34806D01*
X56391Y275500D02*
X28306Y247414D01*
Y167500D02*
Y247414D01*
X29305Y166500D02*
X28306Y167500D01*
X62305Y166500D02*
X29305D01*
X72609Y156197D02*
X62305Y166500D01*
X72609Y139500D02*
Y156197D01*
X51306Y297984D02*
Y311638D01*
X63547Y275500D02*
X56391D01*
X63720D02*
X63547D01*
Y282003D01*
X63286Y282264D01*
X56391Y275500D02*
X55805Y276086D01*
Y282264D01*
X55569Y282500D01*
X72609Y139500D02*
X72109Y139000D01*
X196306Y232784D02*
Y233000D01*
Y232784D02*
X195865Y232343D01*
Y223378D02*
Y232343D01*
Y223378D02*
X194987Y222500D01*
X193806D01*
X178374Y222431D02*
X178305Y222362D01*
X193737Y222431D02*
X178374D01*
X193806Y222500D02*
X193737Y222431D01*
X205306Y224000D02*
X196306Y233000D01*
X227306Y224000D02*
X205306D01*
X230805Y227500D02*
X227306Y224000D01*
X230805Y227500D02*
Y227500D01*
X239371Y236065D02*
X230805Y227500D01*
X253306Y250000D02*
X239371Y236065D01*
X253306Y250000D02*
Y268500D01*
X243305Y278500D01*
X276805Y307500D02*
X252306Y283000D01*
X274306Y233500D02*
X273124D01*
X260240Y236065D02*
X239371D01*
X276805Y297500D02*
X257033Y277727D01*
Y274392D02*
Y277727D01*
X225306Y296500D02*
X203805D01*
X189805Y282500D01*
X230805Y291000D02*
X225306Y296500D01*
X243305Y278500D02*
X230805Y291000D01*
Y301138D01*
X243555Y301888D02*
X231556D01*
X243806Y302138D02*
X243555Y301888D01*
X176374Y222431D02*
X176305Y222362D01*
X257556Y211112D02*
X257306Y211362D01*
X269806Y210862D02*
X269555Y211112D01*
X104806Y249000D02*
X104555Y248750D01*
Y224750D02*
Y248750D01*
Y224750D02*
X104306Y224500D01*
X91805Y373319D02*
X91465Y373659D01*
X59646D01*
X59306Y374000D01*
X104806Y137000D02*
Y171000D01*
X120306Y121500D02*
X104806Y137000D01*
X179806Y121500D02*
X120306D01*
X287806D02*
X270305D01*
X294806Y114500D02*
X287806Y121500D01*
X294806Y99500D02*
Y114500D01*
X300805Y93500D02*
X294806Y99500D01*
X348306Y93500D02*
X300805D01*
X357306Y102500D02*
X348306Y93500D01*
X357805Y345500D02*
Y364000D01*
Y345500D02*
X357306Y345000D01*
X357805Y364000D02*
X344806Y377000D01*
X287806D01*
X180055Y121750D02*
X179806Y121500D01*
X209556Y121750D02*
X180055D01*
X209805Y122000D02*
X209556Y121750D01*
X210055D02*
X209805Y122000D01*
X240556Y121750D02*
X210055D01*
X240806Y121500D02*
X240556Y121750D01*
X54668Y194638D02*
Y197138D01*
X52806Y199000D01*
X104806Y196500D02*
X104555Y196750D01*
Y224250D01*
X104306Y224500D01*
X104806Y171000D02*
Y196500D01*
X76806Y396500D02*
Y424500D01*
X84806Y432500D02*
X76806Y424500D01*
X105806Y432500D02*
X84806D01*
X92396Y373909D02*
X91805Y373319D01*
X122715Y373909D02*
X92396D01*
X123305Y374500D02*
X122715Y373909D01*
X123556Y374750D02*
X123305Y374500D01*
X154555Y374750D02*
X123556D01*
X154806Y375000D02*
X154555Y374750D01*
X155462Y375000D02*
X154806D01*
X157962Y377500D02*
X155462Y375000D01*
X190305Y377500D02*
X157962D01*
X229805Y436000D02*
X203805Y410000D01*
Y390000D02*
Y410000D01*
X191056Y376750D02*
X190305Y377500D01*
X221806Y376000D02*
X221056Y376750D01*
X191056D01*
X222305Y376500D02*
X221806Y376000D01*
X254805Y376500D02*
X222305D01*
X255306Y377000D02*
X254805Y376500D01*
X287806Y377000D02*
X255306D01*
X358026Y119780D02*
Y149220D01*
X357987Y149819D02*
Y179681D01*
X358055Y180250D02*
Y211750D01*
Y212250D02*
Y244250D01*
X357556Y344750D02*
X357306Y345000D01*
D13*
X200306Y202862D02*
D03*
Y198138D02*
D03*
X362305Y408638D02*
D03*
Y413362D02*
D03*
X380306Y409138D02*
D03*
Y413862D02*
D03*
X64306Y312138D02*
D03*
Y316862D02*
D03*
X34806Y282000D02*
D03*
Y277276D02*
D03*
X78306Y285138D02*
D03*
Y289862D02*
D03*
X51306Y316362D02*
D03*
Y311638D02*
D03*
X262806Y233224D02*
D03*
Y228500D02*
D03*
X274306Y233500D02*
D03*
Y228776D02*
D03*
X244305Y302638D02*
D03*
Y307362D02*
D03*
X229306Y302276D02*
D03*
Y307000D02*
D03*
X193806Y222500D02*
D03*
Y217776D02*
D03*
X178305Y222362D02*
D03*
Y217638D02*
D03*
D22*
X122306Y299500D02*
D03*
X123805Y287000D02*
D03*
D45*
X216305Y217000D02*
X212556Y220750D01*
X216305Y202811D02*
Y217000D01*
X200891Y191000D02*
X200306Y191586D01*
Y198138D01*
X204495Y191000D02*
X200891D01*
X216305Y202811D02*
X204495Y191000D01*
X200306Y218937D02*
X195865Y223378D01*
X200306Y202862D02*
Y218937D01*
X121806Y302000D02*
X112305D01*
X132306Y302291D02*
X123014D01*
X139014D02*
X132306D01*
X156306Y285000D02*
X139014Y302291D01*
X172180Y277625D02*
X166305Y283500D01*
X172180Y275125D02*
Y277625D01*
X189805Y260000D02*
X183931Y265875D01*
X181430D01*
X176805Y273500D02*
Y284185D01*
X125305Y290000D02*
X123805D01*
X132306Y283000D02*
X125305Y290000D01*
X150305Y277500D02*
X126749D01*
X150305Y283000D02*
X132306D01*
X156306Y277000D02*
X150305Y283000D01*
X156306Y263347D02*
Y277000D01*
X126749Y277500D02*
X115749Y288500D01*
X181430Y265875D02*
X172180Y275125D01*
X206306Y260000D02*
X189805D01*
X115749Y288500D02*
X98305D01*
X219555Y229250D02*
Y257750D01*
X224306Y262500D02*
X219555Y257750D01*
X64056Y316612D02*
X51556D01*
X65308Y289862D02*
X63915Y291255D01*
X78306Y289862D02*
X65308D01*
X192306Y237500D02*
X167055Y262750D01*
X198805Y237500D02*
X192306D01*
X211806Y254500D02*
X206306Y260000D01*
X211806Y251000D02*
Y254500D01*
X215305Y253000D02*
X198305Y270000D01*
X215305Y229000D02*
Y253000D01*
X206805Y69500D02*
X192306Y84000D01*
Y98500D01*
X65306Y184000D02*
X54668Y194638D01*
X82806Y184000D02*
X65306D01*
X422305Y310500D02*
Y327000D01*
X420806Y328500D01*
X391806D01*
D46*
X19805Y315500D02*
D03*
D47*
Y325500D02*
D03*
Y335500D02*
D03*
D48*
X156306Y263347D02*
D03*
X166148D02*
D03*
X175990D02*
D03*
X156306Y285000D02*
D03*
X166148D02*
D03*
D49*
X216305Y179189D02*
D03*
Y202811D02*
D03*
X175990Y285000D02*
D03*
D50*
X430805Y427972D02*
D03*
Y403169D02*
D03*
X60495Y116890D02*
D03*
D51*
X412695Y414980D02*
D03*
X47502Y135000D02*
D03*
X72306D02*
D03*
D52*
X132306Y302291D02*
D03*
X105806Y432500D02*
D03*
X206805Y79500D02*
D03*
X229805Y436000D02*
D03*
D53*
X132306Y283000D02*
D03*
X135805Y422500D02*
D03*
X125805D02*
D03*
X115805D02*
D03*
X105806D02*
D03*
X135805Y432500D02*
D03*
X125805D02*
D03*
X115805D02*
D03*
X98305Y278500D02*
D03*
Y288500D02*
D03*
Y298500D02*
D03*
X276805Y297500D02*
D03*
Y287500D02*
D03*
X62805Y229000D02*
D03*
Y219000D02*
D03*
Y209000D02*
D03*
Y199000D02*
D03*
X52806Y229000D02*
D03*
Y219000D02*
D03*
Y209000D02*
D03*
X216806Y79500D02*
D03*
X226805D02*
D03*
X236806D02*
D03*
X206805Y69500D02*
D03*
X216806D02*
D03*
X226805D02*
D03*
X236806D02*
D03*
X422305Y181500D02*
D03*
Y171500D02*
D03*
Y161500D02*
D03*
X412305Y191500D02*
D03*
Y181500D02*
D03*
Y171500D02*
D03*
Y161500D02*
D03*
X422305Y300500D02*
D03*
Y290500D02*
D03*
Y280500D02*
D03*
X412305Y310500D02*
D03*
Y300500D02*
D03*
Y290500D02*
D03*
Y280500D02*
D03*
X239806Y436000D02*
D03*
X249805D02*
D03*
X259805D02*
D03*
X229805Y426000D02*
D03*
X239806D02*
D03*
X249805D02*
D03*
X259805D02*
D03*
D54*
X98305Y308500D02*
D03*
X276805Y307500D02*
D03*
X52806Y199000D02*
D03*
X422305Y191500D02*
D03*
Y310500D02*
D03*
D55*
X6306Y464500D02*
D03*
X447806Y46500D02*
D03*
D56*
X212556Y220750D02*
D03*
X176805Y273500D02*
D03*
X111805Y302291D02*
D03*
X150305Y277500D02*
D03*
X224306Y262500D02*
D03*
X72109Y139000D02*
D03*
X72609Y139500D02*
D03*
X198805Y237500D02*
D03*
X211806Y251000D02*
D03*
X215305Y229000D02*
D03*
X219555Y229250D02*
D03*
X196306Y233000D02*
D03*
X252306Y283000D02*
D03*
X239371Y236065D02*
D03*
X243305Y278500D02*
D03*
X230805Y291000D02*
D03*
X189805Y282500D02*
D03*
X257033Y274392D02*
D03*
D57*
X357306Y244500D02*
D03*
X192306Y98500D02*
D03*
X270305Y121500D02*
D03*
X240806Y120740D02*
D03*
X179806Y121500D02*
D03*
X209805Y122000D02*
D03*
X82806Y184000D02*
D03*
X104806Y171000D02*
D03*
Y196500D02*
D03*
X104306Y224500D02*
D03*
X104806Y249000D02*
D03*
X76806Y396500D02*
D03*
X59306Y374000D02*
D03*
X91805Y373319D02*
D03*
X123305Y374500D02*
D03*
X154806Y375000D02*
D03*
X203805Y390000D02*
D03*
X190305Y377500D02*
D03*
X221806Y376000D02*
D03*
X255306Y377000D02*
D03*
X287806D02*
D03*
X356306Y119000D02*
D03*
X357306Y149500D02*
D03*
Y180000D02*
D03*
Y212000D02*
D03*
Y277500D02*
D03*
X391806Y328500D02*
D03*
X357306Y309000D02*
D03*
Y345000D02*
D03*
D58*
X63286Y292500D02*
D03*
X55805D02*
D03*
X63286Y282264D02*
D03*
X59546D02*
D03*
D59*
X55805D02*
D03*
M02*
