G04*
G04 #@! TF.GenerationSoftware,Altium Limited,Altium Designer,19.1.5 (86)*
G04*
G04 Layer_Color=16711935*
%FSLAX44Y44*%
%MOMM*%
G71*
G01*
G75*
%ADD23R,1.5032X0.9032*%
%ADD32R,0.8032X0.7032*%
%ADD33R,1.4032X1.4032*%
%ADD34C,1.4032*%
%ADD35R,2.2032X2.2032*%
%ADD36C,2.2032*%
%ADD37C,3.2032*%
%ADD38R,1.7032X1.7032*%
%ADD39C,1.7032*%
%ADD40R,2.9032X1.4032*%
%ADD41R,1.4032X2.9032*%
%ADD42R,1.4032X1.4032*%
%ADD43C,0.6604*%
%ADD44C,1.4732*%
%ADD60O,0.8032X1.3032*%
%ADD61R,0.8032X1.3032*%
D23*
X1107440Y581090D02*
D03*
Y593090D02*
D03*
X1136650Y580390D02*
D03*
Y592390D02*
D03*
X1295400Y503270D02*
D03*
Y515270D02*
D03*
X1311910Y553150D02*
D03*
Y565150D02*
D03*
X883920Y1037940D02*
D03*
Y1049940D02*
D03*
X838200Y1039210D02*
D03*
Y1051210D02*
D03*
X1640840Y792830D02*
D03*
Y804830D02*
D03*
X1715770Y716280D02*
D03*
Y704280D02*
D03*
X1605280Y724250D02*
D03*
Y736250D02*
D03*
X1673860Y803560D02*
D03*
Y791560D02*
D03*
X1183640Y768700D02*
D03*
Y780700D02*
D03*
X1221740Y767780D02*
D03*
Y779780D02*
D03*
X1351280Y564800D02*
D03*
Y552800D02*
D03*
D32*
X1493520Y760730D02*
D03*
X1489710Y728980D02*
D03*
D33*
X1554480Y783590D02*
D03*
X1101090Y781050D02*
D03*
X1670050Y505460D02*
D03*
X731520Y486410D02*
D03*
Y788670D02*
D03*
D34*
X1554480Y758190D02*
D03*
Y732790D02*
D03*
Y707390D02*
D03*
X1468120Y718820D02*
D03*
X1459230Y1073150D02*
D03*
X1484630D02*
D03*
X1510030D02*
D03*
X1535430D02*
D03*
X1459230Y1098550D02*
D03*
X1484630D02*
D03*
X1510030D02*
D03*
X1101090Y755650D02*
D03*
Y730250D02*
D03*
X1644650Y581660D02*
D03*
Y556260D02*
D03*
Y530860D02*
D03*
Y505460D02*
D03*
X1670050Y581660D02*
D03*
Y556260D02*
D03*
Y530860D02*
D03*
X1253490Y201930D02*
D03*
X1228090D02*
D03*
X1202690D02*
D03*
X1278890Y176530D02*
D03*
X1253490D02*
D03*
X1228090D02*
D03*
X1202690D02*
D03*
X731520Y461010D02*
D03*
Y435610D02*
D03*
Y410210D02*
D03*
X756920Y486410D02*
D03*
Y461010D02*
D03*
Y435610D02*
D03*
Y410210D02*
D03*
X731520Y763270D02*
D03*
Y737870D02*
D03*
Y712470D02*
D03*
X756920Y788670D02*
D03*
Y763270D02*
D03*
Y737870D02*
D03*
Y712470D02*
D03*
X1195070Y1107440D02*
D03*
X1169670D02*
D03*
X1144270D02*
D03*
X1220470Y1082040D02*
D03*
X1195070D02*
D03*
X1169670D02*
D03*
X1144270D02*
D03*
D35*
X1254760Y515140D02*
D03*
Y455140D02*
D03*
X1357160Y723900D02*
D03*
D36*
X1382160D02*
D03*
X1407160D02*
D03*
X1357160Y668900D02*
D03*
X1382160D02*
D03*
X1407160D02*
D03*
D37*
X670560Y1167130D02*
D03*
X1767840Y1169670D02*
D03*
Y120650D02*
D03*
X673100Y123190D02*
D03*
D38*
X1753870Y801370D02*
D03*
D39*
Y826770D02*
D03*
Y852170D02*
D03*
D40*
X709930Y1087050D02*
D03*
Y1024050D02*
D03*
X1650520Y296900D02*
D03*
D41*
X755930Y1054050D02*
D03*
X1683520Y342900D02*
D03*
X1620520D02*
D03*
D42*
X1468120Y767820D02*
D03*
X1535430Y1098550D02*
D03*
X1278890Y201930D02*
D03*
X1220470Y1107440D02*
D03*
D43*
X1163320Y718820D02*
D03*
X1264285Y560705D02*
D03*
X1355090Y694690D02*
D03*
X1520190Y767820D02*
D03*
X1422400Y704850D02*
D03*
X1234440Y666750D02*
D03*
X1621020Y353060D02*
D03*
X1619750Y354330D02*
D03*
X1299210Y603250D02*
D03*
X1266190Y637540D02*
D03*
X1257300Y581660D02*
D03*
X1246505Y582295D02*
D03*
X1305560Y591820D02*
D03*
X1196174Y599605D02*
D03*
X1186180Y707390D02*
D03*
X1217930Y739140D02*
D03*
X1322070Y717550D02*
D03*
X1151312Y696955D02*
D03*
D44*
X896620Y621030D02*
D03*
X1315720Y250190D02*
D03*
X1117600Y308610D02*
D03*
X1192530Y306680D02*
D03*
X1347470Y308610D02*
D03*
X1271270Y309880D02*
D03*
X1593850Y467360D02*
D03*
X1537970Y434340D02*
D03*
Y499110D02*
D03*
X1539240Y570230D02*
D03*
X1537970Y632460D02*
D03*
X1609090Y1007110D02*
D03*
X1653540Y949960D02*
D03*
X1570990Y948230D02*
D03*
X1490980Y951230D02*
D03*
X1410970Y952500D02*
D03*
X1286510Y990600D02*
D03*
X1320800Y958850D02*
D03*
X1240790Y955040D02*
D03*
X1155700Y957580D02*
D03*
X1073150D02*
D03*
X899160Y302260D02*
D03*
X896620Y379730D02*
D03*
Y457200D02*
D03*
Y538480D02*
D03*
Y704850D02*
D03*
X808990Y834390D02*
D03*
X896620Y784860D02*
D03*
Y876300D02*
D03*
D60*
X1643430Y742950D02*
D03*
X1662430D02*
D03*
X1643430Y716950D02*
D03*
X1652930D02*
D03*
D61*
X1662430D02*
D03*
M02*
