G04*
G04 #@! TF.GenerationSoftware,Altium Limited,Altium Designer,19.1.5 (86)*
G04*
G04 Layer_Color=128*
%FSLAX44Y44*%
%MOMM*%
G71*
G01*
G75*
%ADD13R,1.3000X0.7000*%
%ADD22R,0.6000X0.5000*%
%ADD48R,2.0000X2.0000*%
%ADD58O,0.6000X1.1000*%
%ADD59R,0.6000X1.1000*%
D13*
X1107440Y581090D02*
D03*
Y593090D02*
D03*
X1136650Y580390D02*
D03*
Y592390D02*
D03*
X1295400Y503270D02*
D03*
Y515270D02*
D03*
X1311910Y553150D02*
D03*
Y565150D02*
D03*
X883920Y1037940D02*
D03*
Y1049940D02*
D03*
X838200Y1039210D02*
D03*
Y1051210D02*
D03*
X1640840Y792830D02*
D03*
Y804830D02*
D03*
X1715770Y716280D02*
D03*
Y704280D02*
D03*
X1605280Y724250D02*
D03*
Y736250D02*
D03*
X1673860Y803560D02*
D03*
Y791560D02*
D03*
X1183640Y768700D02*
D03*
Y780700D02*
D03*
X1221740Y767780D02*
D03*
Y779780D02*
D03*
X1351280Y564800D02*
D03*
Y552800D02*
D03*
D22*
X1493520Y760730D02*
D03*
X1489710Y728980D02*
D03*
D48*
X1254760Y515140D02*
D03*
Y455140D02*
D03*
D58*
X1643430Y742950D02*
D03*
X1662430D02*
D03*
X1643430Y716950D02*
D03*
X1652930D02*
D03*
D59*
X1662430D02*
D03*
M02*
