G04*
G04 #@! TF.GenerationSoftware,Altium Limited,Altium Designer,19.1.5 (86)*
G04*
G04 Layer_Color=32896*
%FSLAX44Y44*%
%MOMM*%
G71*
G01*
G75*
%ADD10C,0.2000*%
%ADD12C,0.2540*%
%ADD62C,0.1270*%
G36*
X1531137Y786298D02*
X1531384Y786249D01*
X1531612Y786179D01*
X1531800Y786100D01*
X1531949Y786011D01*
X1532008Y785971D01*
X1532058Y785941D01*
X1532107Y785912D01*
X1532137Y785892D01*
X1532147Y785882D01*
X1532157Y785872D01*
X1532335Y785694D01*
X1532474Y785496D01*
X1532593Y785288D01*
X1532672Y785090D01*
X1532741Y784911D01*
X1532761Y784832D01*
X1532781Y784763D01*
X1532791Y784713D01*
X1532801Y784674D01*
X1532811Y784644D01*
Y784634D01*
X1532008Y784495D01*
X1531969Y784703D01*
X1531909Y784882D01*
X1531850Y785030D01*
X1531781Y785149D01*
X1531721Y785248D01*
X1531672Y785318D01*
X1531632Y785357D01*
X1531622Y785367D01*
X1531493Y785466D01*
X1531364Y785535D01*
X1531236Y785595D01*
X1531107Y785624D01*
X1531008Y785644D01*
X1530919Y785664D01*
X1530840D01*
X1530671Y785654D01*
X1530522Y785615D01*
X1530394Y785575D01*
X1530285Y785516D01*
X1530196Y785466D01*
X1530126Y785416D01*
X1530087Y785377D01*
X1530077Y785367D01*
X1529978Y785258D01*
X1529908Y785129D01*
X1529849Y785010D01*
X1529819Y784901D01*
X1529799Y784792D01*
X1529780Y784713D01*
Y784664D01*
Y784654D01*
Y784644D01*
X1529799Y784446D01*
X1529849Y784277D01*
X1529908Y784139D01*
X1529987Y784030D01*
X1530067Y783941D01*
X1530126Y783871D01*
X1530176Y783832D01*
X1530196Y783822D01*
X1530354Y783733D01*
X1530513Y783673D01*
X1530661Y783624D01*
X1530800Y783594D01*
X1530929Y783574D01*
X1531018Y783564D01*
X1531147D01*
X1531186Y783574D01*
X1531236D01*
X1531325Y782871D01*
X1531206Y782900D01*
X1531097Y782920D01*
X1530998Y782930D01*
X1530919Y782940D01*
X1530849Y782950D01*
X1530760D01*
X1530562Y782930D01*
X1530394Y782890D01*
X1530235Y782841D01*
X1530106Y782772D01*
X1529997Y782702D01*
X1529918Y782653D01*
X1529879Y782613D01*
X1529859Y782593D01*
X1529740Y782455D01*
X1529651Y782306D01*
X1529581Y782148D01*
X1529542Y782009D01*
X1529512Y781880D01*
X1529502Y781781D01*
X1529492Y781741D01*
Y781712D01*
Y781702D01*
Y781692D01*
X1529512Y781484D01*
X1529552Y781296D01*
X1529611Y781127D01*
X1529680Y780988D01*
X1529760Y780870D01*
X1529819Y780790D01*
X1529859Y780741D01*
X1529879Y780721D01*
X1530027Y780592D01*
X1530186Y780493D01*
X1530344Y780434D01*
X1530503Y780384D01*
X1530631Y780355D01*
X1530730Y780345D01*
X1530770Y780335D01*
X1530830D01*
X1530998Y780345D01*
X1531156Y780384D01*
X1531295Y780434D01*
X1531404Y780483D01*
X1531503Y780543D01*
X1531573Y780582D01*
X1531612Y780622D01*
X1531632Y780632D01*
X1531741Y780761D01*
X1531840Y780909D01*
X1531919Y781078D01*
X1531979Y781236D01*
X1532028Y781385D01*
X1532058Y781504D01*
X1532078Y781543D01*
Y781583D01*
X1532088Y781603D01*
Y781613D01*
X1532890Y781504D01*
X1532870Y781355D01*
X1532841Y781216D01*
X1532751Y780959D01*
X1532652Y780731D01*
X1532533Y780533D01*
X1532484Y780454D01*
X1532424Y780384D01*
X1532375Y780325D01*
X1532335Y780265D01*
X1532296Y780226D01*
X1532266Y780196D01*
X1532256Y780186D01*
X1532246Y780176D01*
X1532137Y780087D01*
X1532018Y780008D01*
X1531909Y779939D01*
X1531790Y779889D01*
X1531553Y779790D01*
X1531325Y779731D01*
X1531226Y779711D01*
X1531127Y779701D01*
X1531048Y779691D01*
X1530968Y779681D01*
X1530909Y779671D01*
X1530830D01*
X1530661Y779681D01*
X1530493Y779701D01*
X1530334Y779721D01*
X1530186Y779760D01*
X1530047Y779810D01*
X1529918Y779859D01*
X1529799Y779909D01*
X1529690Y779968D01*
X1529601Y780018D01*
X1529512Y780067D01*
X1529433Y780117D01*
X1529373Y780166D01*
X1529324Y780206D01*
X1529294Y780226D01*
X1529274Y780246D01*
X1529264Y780256D01*
X1529155Y780374D01*
X1529056Y780493D01*
X1528977Y780612D01*
X1528908Y780731D01*
X1528838Y780850D01*
X1528789Y780979D01*
X1528720Y781207D01*
X1528690Y781305D01*
X1528670Y781405D01*
X1528660Y781484D01*
X1528650Y781563D01*
X1528640Y781622D01*
Y781662D01*
Y781692D01*
Y781702D01*
X1528650Y781930D01*
X1528690Y782138D01*
X1528739Y782316D01*
X1528799Y782465D01*
X1528868Y782583D01*
X1528918Y782673D01*
X1528957Y782732D01*
X1528967Y782752D01*
X1529096Y782900D01*
X1529245Y783019D01*
X1529393Y783118D01*
X1529532Y783188D01*
X1529661Y783247D01*
X1529760Y783277D01*
X1529799Y783297D01*
X1529829D01*
X1529849Y783307D01*
X1529859D01*
X1529700Y783386D01*
X1529562Y783485D01*
X1529453Y783574D01*
X1529354Y783663D01*
X1529284Y783742D01*
X1529225Y783802D01*
X1529195Y783841D01*
X1529185Y783861D01*
X1529106Y783990D01*
X1529056Y784129D01*
X1529017Y784258D01*
X1528987Y784376D01*
X1528967Y784475D01*
X1528957Y784555D01*
Y784604D01*
Y784624D01*
X1528967Y784792D01*
X1528997Y784941D01*
X1529037Y785080D01*
X1529076Y785209D01*
X1529116Y785307D01*
X1529155Y785387D01*
X1529185Y785436D01*
X1529195Y785456D01*
X1529294Y785595D01*
X1529403Y785724D01*
X1529522Y785833D01*
X1529631Y785922D01*
X1529730Y785991D01*
X1529809Y786041D01*
X1529869Y786070D01*
X1529879Y786080D01*
X1529888D01*
X1530057Y786160D01*
X1530225Y786219D01*
X1530394Y786258D01*
X1530542Y786288D01*
X1530671Y786308D01*
X1530770Y786318D01*
X1530998D01*
X1531137Y786298D01*
D02*
G37*
G36*
X1523559D02*
X1523806Y786249D01*
X1524034Y786179D01*
X1524222Y786100D01*
X1524371Y786011D01*
X1524430Y785971D01*
X1524480Y785941D01*
X1524529Y785912D01*
X1524559Y785892D01*
X1524569Y785882D01*
X1524579Y785872D01*
X1524757Y785694D01*
X1524896Y785496D01*
X1525015Y785288D01*
X1525094Y785090D01*
X1525163Y784911D01*
X1525183Y784832D01*
X1525203Y784763D01*
X1525213Y784713D01*
X1525223Y784674D01*
X1525233Y784644D01*
Y784634D01*
X1524430Y784495D01*
X1524391Y784703D01*
X1524331Y784882D01*
X1524272Y785030D01*
X1524202Y785149D01*
X1524143Y785248D01*
X1524093Y785318D01*
X1524054Y785357D01*
X1524044Y785367D01*
X1523915Y785466D01*
X1523786Y785535D01*
X1523658Y785595D01*
X1523529Y785624D01*
X1523430Y785644D01*
X1523341Y785664D01*
X1523261D01*
X1523093Y785654D01*
X1522944Y785615D01*
X1522816Y785575D01*
X1522707Y785516D01*
X1522617Y785466D01*
X1522548Y785416D01*
X1522509Y785377D01*
X1522499Y785367D01*
X1522399Y785258D01*
X1522330Y785129D01*
X1522271Y785010D01*
X1522241Y784901D01*
X1522221Y784792D01*
X1522201Y784713D01*
Y784664D01*
Y784654D01*
Y784644D01*
X1522221Y784446D01*
X1522271Y784277D01*
X1522330Y784139D01*
X1522410Y784030D01*
X1522489Y783941D01*
X1522548Y783871D01*
X1522598Y783832D01*
X1522617Y783822D01*
X1522776Y783733D01*
X1522935Y783673D01*
X1523083Y783624D01*
X1523222Y783594D01*
X1523351Y783574D01*
X1523440Y783564D01*
X1523569D01*
X1523608Y783574D01*
X1523658D01*
X1523747Y782871D01*
X1523628Y782900D01*
X1523519Y782920D01*
X1523420Y782930D01*
X1523341Y782940D01*
X1523271Y782950D01*
X1523182D01*
X1522984Y782930D01*
X1522816Y782890D01*
X1522657Y782841D01*
X1522528Y782772D01*
X1522419Y782702D01*
X1522340Y782653D01*
X1522301Y782613D01*
X1522281Y782593D01*
X1522162Y782455D01*
X1522073Y782306D01*
X1522003Y782148D01*
X1521964Y782009D01*
X1521934Y781880D01*
X1521924Y781781D01*
X1521914Y781741D01*
Y781712D01*
Y781702D01*
Y781692D01*
X1521934Y781484D01*
X1521974Y781296D01*
X1522033Y781127D01*
X1522102Y780988D01*
X1522182Y780870D01*
X1522241Y780790D01*
X1522281Y780741D01*
X1522301Y780721D01*
X1522449Y780592D01*
X1522608Y780493D01*
X1522766Y780434D01*
X1522925Y780384D01*
X1523053Y780355D01*
X1523152Y780345D01*
X1523192Y780335D01*
X1523251D01*
X1523420Y780345D01*
X1523578Y780384D01*
X1523717Y780434D01*
X1523826Y780483D01*
X1523925Y780543D01*
X1523994Y780582D01*
X1524034Y780622D01*
X1524054Y780632D01*
X1524163Y780761D01*
X1524262Y780909D01*
X1524341Y781078D01*
X1524401Y781236D01*
X1524450Y781385D01*
X1524480Y781504D01*
X1524500Y781543D01*
Y781583D01*
X1524509Y781603D01*
Y781613D01*
X1525312Y781504D01*
X1525292Y781355D01*
X1525262Y781216D01*
X1525173Y780959D01*
X1525074Y780731D01*
X1524955Y780533D01*
X1524906Y780454D01*
X1524846Y780384D01*
X1524797Y780325D01*
X1524757Y780265D01*
X1524718Y780226D01*
X1524688Y780196D01*
X1524678Y780186D01*
X1524668Y780176D01*
X1524559Y780087D01*
X1524440Y780008D01*
X1524331Y779939D01*
X1524212Y779889D01*
X1523975Y779790D01*
X1523747Y779731D01*
X1523648Y779711D01*
X1523549Y779701D01*
X1523469Y779691D01*
X1523390Y779681D01*
X1523331Y779671D01*
X1523251D01*
X1523083Y779681D01*
X1522915Y779701D01*
X1522756Y779721D01*
X1522608Y779760D01*
X1522469Y779810D01*
X1522340Y779859D01*
X1522221Y779909D01*
X1522112Y779968D01*
X1522023Y780018D01*
X1521934Y780067D01*
X1521855Y780117D01*
X1521795Y780166D01*
X1521746Y780206D01*
X1521716Y780226D01*
X1521696Y780246D01*
X1521686Y780256D01*
X1521577Y780374D01*
X1521478Y780493D01*
X1521399Y780612D01*
X1521330Y780731D01*
X1521260Y780850D01*
X1521211Y780979D01*
X1521142Y781207D01*
X1521112Y781305D01*
X1521092Y781405D01*
X1521082Y781484D01*
X1521072Y781563D01*
X1521062Y781622D01*
Y781662D01*
Y781692D01*
Y781702D01*
X1521072Y781930D01*
X1521112Y782138D01*
X1521161Y782316D01*
X1521221Y782465D01*
X1521290Y782583D01*
X1521340Y782673D01*
X1521379Y782732D01*
X1521389Y782752D01*
X1521518Y782900D01*
X1521667Y783019D01*
X1521815Y783118D01*
X1521954Y783188D01*
X1522083Y783247D01*
X1522182Y783277D01*
X1522221Y783297D01*
X1522251D01*
X1522271Y783307D01*
X1522281D01*
X1522122Y783386D01*
X1521983Y783485D01*
X1521875Y783574D01*
X1521776Y783663D01*
X1521706Y783742D01*
X1521647Y783802D01*
X1521617Y783841D01*
X1521607Y783861D01*
X1521528Y783990D01*
X1521478Y784129D01*
X1521439Y784258D01*
X1521409Y784376D01*
X1521389Y784475D01*
X1521379Y784555D01*
Y784604D01*
Y784624D01*
X1521389Y784792D01*
X1521419Y784941D01*
X1521458Y785080D01*
X1521498Y785209D01*
X1521538Y785307D01*
X1521577Y785387D01*
X1521607Y785436D01*
X1521617Y785456D01*
X1521716Y785595D01*
X1521825Y785724D01*
X1521944Y785833D01*
X1522053Y785922D01*
X1522152Y785991D01*
X1522231Y786041D01*
X1522291Y786070D01*
X1522301Y786080D01*
X1522310D01*
X1522479Y786160D01*
X1522647Y786219D01*
X1522816Y786258D01*
X1522964Y786288D01*
X1523093Y786308D01*
X1523192Y786318D01*
X1523420D01*
X1523559Y786298D01*
D02*
G37*
G36*
X1518090Y779780D02*
X1517209D01*
X1514663Y786288D01*
X1515535D01*
X1517298Y781563D01*
X1517367Y781365D01*
X1517437Y781167D01*
X1517496Y780988D01*
X1517546Y780830D01*
X1517585Y780691D01*
X1517615Y780582D01*
X1517625Y780543D01*
X1517635Y780513D01*
X1517645Y780503D01*
Y780493D01*
X1517754Y780870D01*
X1517813Y781048D01*
X1517872Y781216D01*
X1517922Y781355D01*
X1517952Y781464D01*
X1517972Y781504D01*
X1517982Y781533D01*
X1517991Y781553D01*
Y781563D01*
X1519675Y786288D01*
X1520616D01*
X1518090Y779780D01*
D02*
G37*
G36*
X1527402D02*
X1526491D01*
Y780691D01*
X1527402D01*
Y779780D01*
D02*
G37*
G36*
X1526701Y755650D02*
X1525799D01*
X1524432Y760603D01*
X1524403Y760732D01*
X1524363Y760861D01*
X1524333Y760979D01*
X1524303Y761108D01*
X1524274Y761207D01*
X1524254Y761296D01*
X1524234Y761346D01*
Y761366D01*
X1524224Y761336D01*
X1524214Y761296D01*
X1524185Y761188D01*
X1524155Y761069D01*
X1524115Y760930D01*
X1524086Y760811D01*
X1524056Y760702D01*
X1524046Y760662D01*
X1524036Y760633D01*
X1524026Y760613D01*
Y760603D01*
X1522659Y755650D01*
X1521817D01*
X1520044Y762158D01*
X1520916D01*
X1521926Y757968D01*
X1521995Y757681D01*
X1522065Y757413D01*
X1522114Y757166D01*
X1522164Y756958D01*
X1522184Y756868D01*
X1522204Y756789D01*
X1522213Y756720D01*
X1522233Y756660D01*
X1522243Y756611D01*
Y756581D01*
X1522253Y756561D01*
Y756551D01*
X1522322Y756958D01*
X1522402Y757364D01*
X1522491Y757760D01*
X1522530Y757938D01*
X1522570Y758107D01*
X1522610Y758265D01*
X1522639Y758414D01*
X1522679Y758543D01*
X1522699Y758652D01*
X1522728Y758741D01*
X1522738Y758800D01*
X1522758Y758850D01*
Y758859D01*
X1523689Y762158D01*
X1524729D01*
X1525968Y757760D01*
X1525978Y757720D01*
X1525988Y757661D01*
X1526007Y757582D01*
X1526027Y757502D01*
X1526077Y757304D01*
X1526126Y757096D01*
X1526186Y756888D01*
X1526205Y756799D01*
X1526225Y756720D01*
X1526245Y756650D01*
X1526255Y756601D01*
X1526265Y756561D01*
Y756551D01*
X1526314Y756799D01*
X1526354Y757037D01*
X1526404Y757265D01*
X1526443Y757463D01*
X1526483Y757631D01*
X1526503Y757701D01*
X1526513Y757770D01*
X1526523Y757810D01*
X1526532Y757849D01*
X1526542Y757869D01*
Y757879D01*
X1527523Y762158D01*
X1528405D01*
X1526701Y755650D01*
D02*
G37*
G36*
X1519232D02*
X1516894D01*
X1516676Y755660D01*
X1516478Y755670D01*
X1516299Y755690D01*
X1516151Y755709D01*
X1516022Y755729D01*
X1515933Y755739D01*
X1515874Y755759D01*
X1515854D01*
X1515685Y755808D01*
X1515537Y755858D01*
X1515408Y755908D01*
X1515299Y755957D01*
X1515210Y756007D01*
X1515141Y756046D01*
X1515091Y756066D01*
X1515081Y756076D01*
X1514962Y756165D01*
X1514853Y756264D01*
X1514744Y756363D01*
X1514665Y756452D01*
X1514586Y756542D01*
X1514536Y756611D01*
X1514497Y756650D01*
X1514487Y756670D01*
X1514388Y756819D01*
X1514299Y756977D01*
X1514219Y757136D01*
X1514160Y757284D01*
X1514110Y757423D01*
X1514071Y757522D01*
X1514061Y757562D01*
X1514051Y757592D01*
X1514041Y757611D01*
Y757621D01*
X1513981Y757839D01*
X1513942Y758067D01*
X1513902Y758295D01*
X1513882Y758493D01*
X1513873Y758671D01*
Y758751D01*
X1513863Y758810D01*
Y758869D01*
Y758909D01*
Y758929D01*
Y758939D01*
X1513873Y759256D01*
X1513902Y759543D01*
X1513942Y759801D01*
X1513972Y759920D01*
X1513991Y760029D01*
X1514011Y760127D01*
X1514041Y760217D01*
X1514061Y760296D01*
X1514081Y760355D01*
X1514100Y760405D01*
X1514110Y760444D01*
X1514120Y760464D01*
Y760474D01*
X1514229Y760722D01*
X1514348Y760940D01*
X1514477Y761128D01*
X1514606Y761286D01*
X1514715Y761415D01*
X1514804Y761514D01*
X1514873Y761574D01*
X1514883Y761594D01*
X1514893D01*
X1515051Y761712D01*
X1515210Y761812D01*
X1515368Y761891D01*
X1515517Y761950D01*
X1515646Y762000D01*
X1515755Y762029D01*
X1515794Y762049D01*
X1515814D01*
X1515834Y762059D01*
X1515844D01*
X1516002Y762089D01*
X1516190Y762119D01*
X1516389Y762138D01*
X1516567Y762148D01*
X1516735Y762158D01*
X1519232D01*
Y755650D01*
D02*
G37*
G36*
X1531872Y762257D02*
X1532100Y762228D01*
X1532298Y762198D01*
X1532476Y762158D01*
X1532615Y762109D01*
X1532674Y762089D01*
X1532724Y762079D01*
X1532773Y762059D01*
X1532803Y762049D01*
X1532813Y762039D01*
X1532823D01*
X1533011Y761950D01*
X1533179Y761841D01*
X1533318Y761732D01*
X1533427Y761633D01*
X1533516Y761534D01*
X1533586Y761455D01*
X1533625Y761405D01*
X1533635Y761395D01*
Y761386D01*
X1533724Y761227D01*
X1533793Y761059D01*
X1533843Y760910D01*
X1533873Y760761D01*
X1533893Y760643D01*
X1533912Y760554D01*
Y760514D01*
Y760484D01*
Y760474D01*
Y760464D01*
X1533902Y760306D01*
X1533873Y760147D01*
X1533843Y760009D01*
X1533793Y759890D01*
X1533754Y759791D01*
X1533724Y759721D01*
X1533694Y759672D01*
X1533685Y759652D01*
X1533586Y759523D01*
X1533477Y759404D01*
X1533367Y759305D01*
X1533249Y759216D01*
X1533150Y759147D01*
X1533070Y759097D01*
X1533011Y759058D01*
X1533001Y759048D01*
X1532991D01*
X1532922Y759008D01*
X1532833Y758978D01*
X1532644Y758909D01*
X1532436Y758840D01*
X1532228Y758770D01*
X1532040Y758721D01*
X1531961Y758701D01*
X1531891Y758681D01*
X1531832Y758661D01*
X1531783Y758652D01*
X1531753Y758642D01*
X1531743D01*
X1531584Y758602D01*
X1531436Y758562D01*
X1531297Y758533D01*
X1531178Y758503D01*
X1531079Y758473D01*
X1530980Y758444D01*
X1530901Y758424D01*
X1530822Y758404D01*
X1530762Y758384D01*
X1530713Y758364D01*
X1530634Y758344D01*
X1530594Y758335D01*
X1530584Y758325D01*
X1530445Y758265D01*
X1530316Y758196D01*
X1530217Y758136D01*
X1530138Y758077D01*
X1530079Y758018D01*
X1530029Y757978D01*
X1530009Y757948D01*
X1530000Y757938D01*
X1529940Y757849D01*
X1529900Y757760D01*
X1529861Y757671D01*
X1529841Y757582D01*
X1529831Y757512D01*
X1529821Y757453D01*
Y757413D01*
Y757403D01*
X1529831Y757294D01*
X1529851Y757195D01*
X1529881Y757096D01*
X1529910Y757017D01*
X1529950Y756948D01*
X1529980Y756898D01*
X1530000Y756859D01*
X1530009Y756849D01*
X1530089Y756759D01*
X1530178Y756680D01*
X1530267Y756611D01*
X1530366Y756551D01*
X1530445Y756502D01*
X1530515Y756472D01*
X1530554Y756452D01*
X1530574Y756442D01*
X1530723Y756393D01*
X1530871Y756363D01*
X1531010Y756333D01*
X1531149Y756324D01*
X1531257Y756314D01*
X1531357Y756304D01*
X1531436D01*
X1531634Y756314D01*
X1531822Y756333D01*
X1532000Y756363D01*
X1532139Y756403D01*
X1532268Y756433D01*
X1532357Y756462D01*
X1532417Y756482D01*
X1532426Y756492D01*
X1532436D01*
X1532585Y756571D01*
X1532724Y756650D01*
X1532833Y756740D01*
X1532922Y756819D01*
X1533001Y756888D01*
X1533051Y756948D01*
X1533080Y756987D01*
X1533090Y756997D01*
X1533159Y757126D01*
X1533219Y757255D01*
X1533259Y757393D01*
X1533298Y757522D01*
X1533318Y757641D01*
X1533338Y757730D01*
X1533348Y757790D01*
Y757800D01*
Y757810D01*
X1534160Y757740D01*
X1534140Y757502D01*
X1534101Y757284D01*
X1534041Y757076D01*
X1533982Y756908D01*
X1533922Y756759D01*
X1533893Y756700D01*
X1533863Y756650D01*
X1533843Y756611D01*
X1533823Y756581D01*
X1533813Y756571D01*
Y756561D01*
X1533675Y756383D01*
X1533516Y756225D01*
X1533367Y756096D01*
X1533209Y755987D01*
X1533080Y755898D01*
X1532971Y755838D01*
X1532932Y755818D01*
X1532902Y755799D01*
X1532882Y755789D01*
X1532872D01*
X1532634Y755709D01*
X1532387Y755650D01*
X1532139Y755601D01*
X1531911Y755571D01*
X1531802Y755561D01*
X1531703Y755551D01*
X1531614D01*
X1531545Y755541D01*
X1531396D01*
X1531139Y755551D01*
X1530911Y755581D01*
X1530693Y755620D01*
X1530515Y755670D01*
X1530356Y755709D01*
X1530297Y755729D01*
X1530247Y755749D01*
X1530208Y755769D01*
X1530178Y755779D01*
X1530158Y755789D01*
X1530148D01*
X1529950Y755898D01*
X1529772Y756007D01*
X1529623Y756125D01*
X1529504Y756244D01*
X1529405Y756343D01*
X1529346Y756423D01*
X1529296Y756482D01*
X1529286Y756502D01*
X1529187Y756670D01*
X1529118Y756849D01*
X1529058Y757017D01*
X1529029Y757166D01*
X1529009Y757294D01*
X1528989Y757393D01*
Y757433D01*
Y757463D01*
Y757473D01*
Y757483D01*
X1528999Y757671D01*
X1529029Y757849D01*
X1529078Y758008D01*
X1529128Y758136D01*
X1529177Y758255D01*
X1529227Y758335D01*
X1529256Y758384D01*
X1529266Y758404D01*
X1529375Y758543D01*
X1529504Y758671D01*
X1529643Y758790D01*
X1529781Y758889D01*
X1529910Y758959D01*
X1530009Y759018D01*
X1530049Y759038D01*
X1530069Y759058D01*
X1530089Y759068D01*
X1530099D01*
X1530178Y759097D01*
X1530277Y759137D01*
X1530376Y759176D01*
X1530495Y759206D01*
X1530733Y759276D01*
X1530970Y759345D01*
X1531188Y759395D01*
X1531287Y759424D01*
X1531376Y759444D01*
X1531446Y759464D01*
X1531495Y759474D01*
X1531535Y759484D01*
X1531545D01*
X1531733Y759533D01*
X1531901Y759573D01*
X1532050Y759612D01*
X1532189Y759662D01*
X1532308Y759702D01*
X1532407Y759731D01*
X1532496Y759771D01*
X1532575Y759810D01*
X1532644Y759840D01*
X1532704Y759860D01*
X1532743Y759890D01*
X1532773Y759910D01*
X1532823Y759939D01*
X1532833Y759949D01*
X1532912Y760038D01*
X1532971Y760127D01*
X1533021Y760227D01*
X1533051Y760316D01*
X1533070Y760395D01*
X1533080Y760464D01*
Y760504D01*
Y760524D01*
X1533060Y760672D01*
X1533021Y760801D01*
X1532971Y760920D01*
X1532902Y761019D01*
X1532843Y761108D01*
X1532783Y761168D01*
X1532743Y761207D01*
X1532733Y761217D01*
X1532664Y761267D01*
X1532585Y761316D01*
X1532407Y761386D01*
X1532218Y761435D01*
X1532030Y761465D01*
X1531862Y761495D01*
X1531783D01*
X1531723Y761504D01*
X1531594D01*
X1531327Y761495D01*
X1531099Y761455D01*
X1530901Y761405D01*
X1530742Y761346D01*
X1530624Y761286D01*
X1530534Y761237D01*
X1530485Y761197D01*
X1530465Y761188D01*
X1530336Y761059D01*
X1530227Y760910D01*
X1530148Y760761D01*
X1530089Y760613D01*
X1530049Y760474D01*
X1530029Y760365D01*
X1530019Y760326D01*
X1530009Y760296D01*
Y760276D01*
Y760266D01*
X1529187Y760326D01*
X1529207Y760534D01*
X1529247Y760722D01*
X1529306Y760900D01*
X1529366Y761049D01*
X1529415Y761168D01*
X1529465Y761267D01*
X1529504Y761326D01*
X1529514Y761346D01*
X1529633Y761504D01*
X1529772Y761643D01*
X1529910Y761762D01*
X1530049Y761861D01*
X1530178Y761930D01*
X1530277Y761990D01*
X1530316Y762010D01*
X1530346Y762020D01*
X1530356Y762029D01*
X1530366D01*
X1530574Y762109D01*
X1530792Y762168D01*
X1531010Y762208D01*
X1531208Y762237D01*
X1531376Y762257D01*
X1531446D01*
X1531515Y762267D01*
X1531634D01*
X1531872Y762257D01*
D02*
G37*
G36*
X1527971Y730250D02*
X1527069D01*
X1525702Y735203D01*
X1525673Y735332D01*
X1525633Y735461D01*
X1525603Y735579D01*
X1525573Y735708D01*
X1525544Y735807D01*
X1525524Y735896D01*
X1525504Y735946D01*
Y735966D01*
X1525494Y735936D01*
X1525484Y735896D01*
X1525455Y735788D01*
X1525425Y735669D01*
X1525385Y735530D01*
X1525356Y735411D01*
X1525326Y735302D01*
X1525316Y735262D01*
X1525306Y735233D01*
X1525296Y735213D01*
Y735203D01*
X1523929Y730250D01*
X1523087D01*
X1521314Y736758D01*
X1522186D01*
X1523196Y732568D01*
X1523265Y732281D01*
X1523335Y732013D01*
X1523384Y731766D01*
X1523434Y731558D01*
X1523454Y731468D01*
X1523474Y731389D01*
X1523483Y731320D01*
X1523503Y731260D01*
X1523513Y731211D01*
Y731181D01*
X1523523Y731161D01*
Y731151D01*
X1523592Y731558D01*
X1523672Y731964D01*
X1523761Y732360D01*
X1523800Y732538D01*
X1523840Y732707D01*
X1523880Y732865D01*
X1523909Y733014D01*
X1523949Y733143D01*
X1523969Y733251D01*
X1523999Y733341D01*
X1524008Y733400D01*
X1524028Y733450D01*
Y733459D01*
X1524959Y736758D01*
X1525999D01*
X1527238Y732360D01*
X1527248Y732320D01*
X1527258Y732261D01*
X1527277Y732182D01*
X1527297Y732102D01*
X1527347Y731904D01*
X1527396Y731696D01*
X1527456Y731488D01*
X1527475Y731399D01*
X1527495Y731320D01*
X1527515Y731251D01*
X1527525Y731201D01*
X1527535Y731161D01*
Y731151D01*
X1527584Y731399D01*
X1527624Y731637D01*
X1527674Y731865D01*
X1527713Y732063D01*
X1527753Y732231D01*
X1527773Y732300D01*
X1527783Y732370D01*
X1527793Y732410D01*
X1527802Y732449D01*
X1527812Y732469D01*
Y732479D01*
X1528793Y736758D01*
X1529675D01*
X1527971Y730250D01*
D02*
G37*
G36*
X1518005Y736847D02*
X1518302Y736808D01*
X1518570Y736738D01*
X1518689Y736709D01*
X1518798Y736669D01*
X1518897Y736629D01*
X1518996Y736600D01*
X1519075Y736560D01*
X1519135Y736530D01*
X1519194Y736511D01*
X1519234Y736491D01*
X1519254Y736471D01*
X1519263D01*
X1519511Y736312D01*
X1519739Y736124D01*
X1519927Y735936D01*
X1520076Y735748D01*
X1520204Y735579D01*
X1520254Y735510D01*
X1520294Y735451D01*
X1520323Y735391D01*
X1520343Y735352D01*
X1520363Y735332D01*
Y735322D01*
X1520492Y735035D01*
X1520591Y734727D01*
X1520650Y734430D01*
X1520700Y734153D01*
X1520720Y734024D01*
X1520730Y733915D01*
X1520739Y733806D01*
Y733717D01*
X1520749Y733648D01*
Y733598D01*
Y733559D01*
Y733549D01*
X1520739Y733202D01*
X1520700Y732885D01*
X1520640Y732588D01*
X1520611Y732449D01*
X1520581Y732330D01*
X1520551Y732211D01*
X1520522Y732112D01*
X1520492Y732023D01*
X1520462Y731944D01*
X1520442Y731885D01*
X1520422Y731845D01*
X1520412Y731815D01*
Y731805D01*
X1520274Y731518D01*
X1520105Y731270D01*
X1519947Y731052D01*
X1519778Y730884D01*
X1519640Y730745D01*
X1519521Y730646D01*
X1519471Y730617D01*
X1519442Y730587D01*
X1519422Y730577D01*
X1519412Y730567D01*
X1519283Y730488D01*
X1519144Y730428D01*
X1518867Y730319D01*
X1518580Y730250D01*
X1518302Y730191D01*
X1518184Y730181D01*
X1518065Y730161D01*
X1517966Y730151D01*
X1517877D01*
X1517797Y730141D01*
X1517698D01*
X1517510Y730151D01*
X1517332Y730161D01*
X1517005Y730230D01*
X1516856Y730270D01*
X1516708Y730319D01*
X1516579Y730369D01*
X1516460Y730418D01*
X1516351Y730468D01*
X1516262Y730518D01*
X1516183Y730567D01*
X1516113Y730607D01*
X1516054Y730646D01*
X1516014Y730676D01*
X1515994Y730686D01*
X1515984Y730696D01*
X1515856Y730805D01*
X1515737Y730924D01*
X1515539Y731181D01*
X1515360Y731449D01*
X1515232Y731716D01*
X1515172Y731835D01*
X1515133Y731944D01*
X1515093Y732053D01*
X1515053Y732132D01*
X1515034Y732211D01*
X1515014Y732261D01*
X1515004Y732300D01*
Y732310D01*
X1515866Y732528D01*
X1515945Y732241D01*
X1516044Y731983D01*
X1516163Y731776D01*
X1516272Y731597D01*
X1516381Y731468D01*
X1516470Y731369D01*
X1516529Y731310D01*
X1516539Y731300D01*
X1516549Y731290D01*
X1516747Y731151D01*
X1516945Y731052D01*
X1517153Y730973D01*
X1517342Y730924D01*
X1517510Y730894D01*
X1517589Y730884D01*
X1517649D01*
X1517698Y730874D01*
X1517768D01*
X1517986Y730884D01*
X1518194Y730924D01*
X1518382Y730973D01*
X1518540Y731023D01*
X1518679Y731082D01*
X1518788Y731122D01*
X1518828Y731142D01*
X1518857Y731161D01*
X1518867Y731171D01*
X1518877D01*
X1519055Y731300D01*
X1519204Y731449D01*
X1519333Y731597D01*
X1519442Y731756D01*
X1519521Y731885D01*
X1519570Y732003D01*
X1519590Y732043D01*
X1519610Y732073D01*
X1519620Y732093D01*
Y732102D01*
X1519699Y732340D01*
X1519759Y732588D01*
X1519798Y732835D01*
X1519828Y733063D01*
X1519838Y733162D01*
X1519848Y733251D01*
Y733341D01*
X1519858Y733410D01*
Y733469D01*
Y733509D01*
Y733539D01*
Y733549D01*
X1519848Y733786D01*
X1519828Y734014D01*
X1519798Y734222D01*
X1519759Y734410D01*
X1519719Y734569D01*
X1519709Y734638D01*
X1519689Y734688D01*
X1519680Y734737D01*
X1519670Y734767D01*
X1519660Y734787D01*
Y734797D01*
X1519570Y735015D01*
X1519462Y735213D01*
X1519343Y735371D01*
X1519234Y735510D01*
X1519125Y735619D01*
X1519036Y735698D01*
X1518976Y735748D01*
X1518966Y735768D01*
X1518956D01*
X1518758Y735887D01*
X1518550Y735976D01*
X1518342Y736045D01*
X1518144Y736085D01*
X1517966Y736114D01*
X1517896Y736124D01*
X1517827D01*
X1517778Y736134D01*
X1517708D01*
X1517470Y736124D01*
X1517262Y736085D01*
X1517074Y736035D01*
X1516926Y735976D01*
X1516797Y735906D01*
X1516708Y735857D01*
X1516648Y735817D01*
X1516628Y735807D01*
X1516470Y735669D01*
X1516341Y735510D01*
X1516222Y735332D01*
X1516133Y735163D01*
X1516064Y735015D01*
X1516034Y734945D01*
X1516004Y734886D01*
X1515984Y734837D01*
X1515975Y734797D01*
X1515965Y734777D01*
Y734767D01*
X1515113Y734965D01*
X1515232Y735282D01*
X1515301Y735431D01*
X1515370Y735560D01*
X1515450Y735688D01*
X1515529Y735807D01*
X1515598Y735906D01*
X1515677Y736005D01*
X1515747Y736085D01*
X1515816Y736154D01*
X1515885Y736223D01*
X1515935Y736273D01*
X1515984Y736312D01*
X1516014Y736342D01*
X1516034Y736352D01*
X1516044Y736362D01*
X1516173Y736451D01*
X1516302Y736530D01*
X1516440Y736600D01*
X1516579Y736659D01*
X1516856Y736748D01*
X1517114Y736808D01*
X1517233Y736828D01*
X1517342Y736837D01*
X1517441Y736847D01*
X1517520Y736857D01*
X1517589Y736867D01*
X1517688D01*
X1518005Y736847D01*
D02*
G37*
G36*
X1533142Y736857D02*
X1533370Y736828D01*
X1533568Y736798D01*
X1533746Y736758D01*
X1533885Y736709D01*
X1533944Y736689D01*
X1533994Y736679D01*
X1534043Y736659D01*
X1534073Y736649D01*
X1534083Y736639D01*
X1534093D01*
X1534281Y736550D01*
X1534449Y736441D01*
X1534588Y736332D01*
X1534697Y736233D01*
X1534786Y736134D01*
X1534855Y736055D01*
X1534895Y736005D01*
X1534905Y735995D01*
Y735986D01*
X1534994Y735827D01*
X1535063Y735659D01*
X1535113Y735510D01*
X1535143Y735361D01*
X1535163Y735243D01*
X1535182Y735154D01*
Y735114D01*
Y735084D01*
Y735074D01*
Y735064D01*
X1535172Y734906D01*
X1535143Y734747D01*
X1535113Y734609D01*
X1535063Y734490D01*
X1535024Y734391D01*
X1534994Y734321D01*
X1534964Y734272D01*
X1534955Y734252D01*
X1534855Y734123D01*
X1534747Y734004D01*
X1534637Y733905D01*
X1534519Y733816D01*
X1534420Y733747D01*
X1534340Y733697D01*
X1534281Y733658D01*
X1534271Y733648D01*
X1534261D01*
X1534192Y733608D01*
X1534103Y733578D01*
X1533914Y733509D01*
X1533706Y733440D01*
X1533498Y733370D01*
X1533310Y733321D01*
X1533231Y733301D01*
X1533161Y733281D01*
X1533102Y733261D01*
X1533053Y733251D01*
X1533023Y733242D01*
X1533013D01*
X1532854Y733202D01*
X1532706Y733162D01*
X1532567Y733133D01*
X1532448Y733103D01*
X1532349Y733073D01*
X1532250Y733044D01*
X1532171Y733024D01*
X1532092Y733004D01*
X1532032Y732984D01*
X1531983Y732964D01*
X1531904Y732944D01*
X1531864Y732934D01*
X1531854Y732925D01*
X1531715Y732865D01*
X1531586Y732796D01*
X1531487Y732736D01*
X1531408Y732677D01*
X1531349Y732617D01*
X1531299Y732578D01*
X1531279Y732548D01*
X1531270Y732538D01*
X1531210Y732449D01*
X1531170Y732360D01*
X1531131Y732271D01*
X1531111Y732182D01*
X1531101Y732112D01*
X1531091Y732053D01*
Y732013D01*
Y732003D01*
X1531101Y731894D01*
X1531121Y731795D01*
X1531151Y731696D01*
X1531180Y731617D01*
X1531220Y731548D01*
X1531250Y731498D01*
X1531270Y731459D01*
X1531279Y731449D01*
X1531359Y731359D01*
X1531448Y731280D01*
X1531537Y731211D01*
X1531636Y731151D01*
X1531715Y731102D01*
X1531785Y731072D01*
X1531824Y731052D01*
X1531844Y731042D01*
X1531993Y730993D01*
X1532141Y730963D01*
X1532280Y730934D01*
X1532419Y730924D01*
X1532527Y730914D01*
X1532627Y730904D01*
X1532706D01*
X1532904Y730914D01*
X1533092Y730934D01*
X1533271Y730963D01*
X1533409Y731003D01*
X1533538Y731033D01*
X1533627Y731062D01*
X1533687Y731082D01*
X1533696Y731092D01*
X1533706D01*
X1533855Y731171D01*
X1533994Y731251D01*
X1534103Y731340D01*
X1534192Y731419D01*
X1534271Y731488D01*
X1534321Y731548D01*
X1534350Y731587D01*
X1534360Y731597D01*
X1534429Y731726D01*
X1534489Y731855D01*
X1534529Y731993D01*
X1534568Y732122D01*
X1534588Y732241D01*
X1534608Y732330D01*
X1534618Y732390D01*
Y732400D01*
Y732410D01*
X1535430Y732340D01*
X1535410Y732102D01*
X1535371Y731885D01*
X1535311Y731676D01*
X1535252Y731508D01*
X1535192Y731359D01*
X1535163Y731300D01*
X1535133Y731251D01*
X1535113Y731211D01*
X1535093Y731181D01*
X1535083Y731171D01*
Y731161D01*
X1534945Y730983D01*
X1534786Y730825D01*
X1534637Y730696D01*
X1534479Y730587D01*
X1534350Y730498D01*
X1534241Y730438D01*
X1534202Y730418D01*
X1534172Y730399D01*
X1534152Y730389D01*
X1534142D01*
X1533905Y730309D01*
X1533657Y730250D01*
X1533409Y730201D01*
X1533181Y730171D01*
X1533072Y730161D01*
X1532973Y730151D01*
X1532884D01*
X1532815Y730141D01*
X1532666D01*
X1532409Y730151D01*
X1532181Y730181D01*
X1531963Y730220D01*
X1531785Y730270D01*
X1531626Y730309D01*
X1531567Y730329D01*
X1531517Y730349D01*
X1531478Y730369D01*
X1531448Y730379D01*
X1531428Y730389D01*
X1531418D01*
X1531220Y730498D01*
X1531042Y730607D01*
X1530893Y730725D01*
X1530774Y730844D01*
X1530675Y730943D01*
X1530616Y731023D01*
X1530566Y731082D01*
X1530556Y731102D01*
X1530457Y731270D01*
X1530388Y731449D01*
X1530328Y731617D01*
X1530299Y731766D01*
X1530279Y731894D01*
X1530259Y731993D01*
Y732033D01*
Y732063D01*
Y732073D01*
Y732083D01*
X1530269Y732271D01*
X1530299Y732449D01*
X1530348Y732608D01*
X1530398Y732736D01*
X1530447Y732855D01*
X1530497Y732934D01*
X1530526Y732984D01*
X1530536Y733004D01*
X1530645Y733143D01*
X1530774Y733271D01*
X1530913Y733390D01*
X1531051Y733489D01*
X1531180Y733559D01*
X1531279Y733618D01*
X1531319Y733638D01*
X1531339Y733658D01*
X1531359Y733668D01*
X1531369D01*
X1531448Y733697D01*
X1531547Y733737D01*
X1531646Y733776D01*
X1531765Y733806D01*
X1532003Y733876D01*
X1532240Y733945D01*
X1532458Y733995D01*
X1532557Y734024D01*
X1532646Y734044D01*
X1532716Y734064D01*
X1532765Y734074D01*
X1532805Y734084D01*
X1532815D01*
X1533003Y734133D01*
X1533171Y734173D01*
X1533320Y734212D01*
X1533459Y734262D01*
X1533578Y734302D01*
X1533677Y734331D01*
X1533766Y734371D01*
X1533845Y734410D01*
X1533914Y734440D01*
X1533974Y734460D01*
X1534013Y734490D01*
X1534043Y734510D01*
X1534093Y734539D01*
X1534103Y734549D01*
X1534182Y734638D01*
X1534241Y734727D01*
X1534291Y734827D01*
X1534321Y734916D01*
X1534340Y734995D01*
X1534350Y735064D01*
Y735104D01*
Y735124D01*
X1534330Y735272D01*
X1534291Y735401D01*
X1534241Y735520D01*
X1534172Y735619D01*
X1534113Y735708D01*
X1534053Y735768D01*
X1534013Y735807D01*
X1534003Y735817D01*
X1533934Y735867D01*
X1533855Y735916D01*
X1533677Y735986D01*
X1533488Y736035D01*
X1533300Y736065D01*
X1533132Y736095D01*
X1533053D01*
X1532993Y736104D01*
X1532864D01*
X1532597Y736095D01*
X1532369Y736055D01*
X1532171Y736005D01*
X1532012Y735946D01*
X1531894Y735887D01*
X1531804Y735837D01*
X1531755Y735797D01*
X1531735Y735788D01*
X1531606Y735659D01*
X1531497Y735510D01*
X1531418Y735361D01*
X1531359Y735213D01*
X1531319Y735074D01*
X1531299Y734965D01*
X1531289Y734926D01*
X1531279Y734896D01*
Y734876D01*
Y734866D01*
X1530457Y734926D01*
X1530477Y735134D01*
X1530517Y735322D01*
X1530576Y735500D01*
X1530636Y735649D01*
X1530685Y735768D01*
X1530735Y735867D01*
X1530774Y735926D01*
X1530784Y735946D01*
X1530903Y736104D01*
X1531042Y736243D01*
X1531180Y736362D01*
X1531319Y736461D01*
X1531448Y736530D01*
X1531547Y736590D01*
X1531586Y736610D01*
X1531616Y736620D01*
X1531626Y736629D01*
X1531636D01*
X1531844Y736709D01*
X1532062Y736768D01*
X1532280Y736808D01*
X1532478Y736837D01*
X1532646Y736857D01*
X1532716D01*
X1532785Y736867D01*
X1532904D01*
X1533142Y736857D01*
D02*
G37*
G36*
X1528159Y702310D02*
X1527337D01*
Y707421D01*
X1523919Y702310D01*
X1523038D01*
Y708818D01*
X1523860D01*
Y703707D01*
X1527287Y708818D01*
X1528159D01*
Y702310D01*
D02*
G37*
G36*
X1532537Y708907D02*
X1532854Y708868D01*
X1533152Y708798D01*
X1533280Y708759D01*
X1533399Y708729D01*
X1533508Y708689D01*
X1533607Y708650D01*
X1533696Y708620D01*
X1533766Y708580D01*
X1533815Y708561D01*
X1533865Y708541D01*
X1533885Y708521D01*
X1533895D01*
X1534033Y708442D01*
X1534152Y708353D01*
X1534390Y708164D01*
X1534578Y707966D01*
X1534747Y707768D01*
X1534865Y707580D01*
X1534915Y707511D01*
X1534964Y707441D01*
X1534994Y707382D01*
X1535014Y707342D01*
X1535034Y707312D01*
Y707303D01*
X1535163Y706995D01*
X1535262Y706678D01*
X1535331Y706381D01*
X1535381Y706104D01*
X1535400Y705985D01*
X1535410Y705876D01*
X1535420Y705777D01*
Y705688D01*
X1535430Y705619D01*
Y705569D01*
Y705539D01*
Y705529D01*
X1535410Y705183D01*
X1535371Y704856D01*
X1535301Y704559D01*
X1535271Y704420D01*
X1535232Y704301D01*
X1535192Y704182D01*
X1535163Y704083D01*
X1535123Y703994D01*
X1535093Y703925D01*
X1535073Y703865D01*
X1535054Y703826D01*
X1535034Y703796D01*
Y703786D01*
X1534865Y703519D01*
X1534677Y703281D01*
X1534489Y703073D01*
X1534291Y702904D01*
X1534122Y702776D01*
X1534053Y702726D01*
X1533984Y702686D01*
X1533934Y702647D01*
X1533885Y702627D01*
X1533865Y702617D01*
X1533855Y702607D01*
X1533558Y702468D01*
X1533251Y702369D01*
X1532963Y702300D01*
X1532686Y702251D01*
X1532567Y702231D01*
X1532458Y702221D01*
X1532359Y702211D01*
X1532270D01*
X1532201Y702201D01*
X1532112D01*
X1531854Y702211D01*
X1531596Y702241D01*
X1531369Y702280D01*
X1531160Y702330D01*
X1531071Y702350D01*
X1530982Y702369D01*
X1530913Y702389D01*
X1530853Y702409D01*
X1530804Y702429D01*
X1530764Y702439D01*
X1530744Y702449D01*
X1530735D01*
X1530487Y702558D01*
X1530239Y702676D01*
X1530021Y702805D01*
X1529823Y702924D01*
X1529655Y703043D01*
X1529586Y703083D01*
X1529526Y703132D01*
X1529476Y703162D01*
X1529447Y703192D01*
X1529427Y703202D01*
X1529417Y703211D01*
Y705629D01*
X1532171D01*
Y704866D01*
X1530259D01*
Y703637D01*
X1530378Y703548D01*
X1530507Y703459D01*
X1530636Y703380D01*
X1530764Y703310D01*
X1530883Y703251D01*
X1530982Y703211D01*
X1531022Y703192D01*
X1531051Y703182D01*
X1531062Y703172D01*
X1531071D01*
X1531270Y703102D01*
X1531468Y703053D01*
X1531656Y703013D01*
X1531814Y702993D01*
X1531953Y702974D01*
X1532062Y702964D01*
X1532161D01*
X1532399Y702974D01*
X1532627Y703003D01*
X1532825Y703053D01*
X1533013Y703102D01*
X1533161Y703152D01*
X1533231Y703182D01*
X1533280Y703202D01*
X1533320Y703211D01*
X1533350Y703231D01*
X1533370Y703241D01*
X1533380D01*
X1533578Y703360D01*
X1533756Y703499D01*
X1533905Y703647D01*
X1534023Y703786D01*
X1534113Y703915D01*
X1534182Y704014D01*
X1534212Y704053D01*
X1534231Y704083D01*
X1534241Y704103D01*
Y704113D01*
X1534340Y704351D01*
X1534410Y704588D01*
X1534469Y704836D01*
X1534499Y705074D01*
X1534509Y705173D01*
X1534519Y705272D01*
X1534529Y705361D01*
Y705430D01*
X1534539Y705500D01*
Y705539D01*
Y705569D01*
Y705579D01*
X1534529Y705836D01*
X1534499Y706084D01*
X1534459Y706302D01*
X1534410Y706500D01*
X1534370Y706659D01*
X1534350Y706728D01*
X1534330Y706778D01*
X1534311Y706827D01*
X1534301Y706857D01*
X1534291Y706877D01*
Y706887D01*
X1534231Y707015D01*
X1534172Y707134D01*
X1534103Y707243D01*
X1534033Y707342D01*
X1533974Y707421D01*
X1533924Y707481D01*
X1533895Y707521D01*
X1533885Y707531D01*
X1533776Y707639D01*
X1533667Y707729D01*
X1533548Y707808D01*
X1533439Y707877D01*
X1533340Y707937D01*
X1533261Y707976D01*
X1533211Y707996D01*
X1533191Y708006D01*
X1533023Y708065D01*
X1532854Y708115D01*
X1532676Y708145D01*
X1532518Y708174D01*
X1532379Y708184D01*
X1532270Y708194D01*
X1532171D01*
X1531993Y708184D01*
X1531824Y708164D01*
X1531676Y708135D01*
X1531547Y708105D01*
X1531438Y708075D01*
X1531349Y708046D01*
X1531299Y708026D01*
X1531279Y708016D01*
X1531131Y707946D01*
X1531012Y707877D01*
X1530903Y707798D01*
X1530814Y707729D01*
X1530744Y707659D01*
X1530695Y707610D01*
X1530665Y707570D01*
X1530655Y707560D01*
X1530576Y707441D01*
X1530507Y707312D01*
X1530447Y707184D01*
X1530398Y707065D01*
X1530358Y706946D01*
X1530318Y706857D01*
X1530309Y706797D01*
X1530299Y706787D01*
Y706778D01*
X1529516Y706995D01*
X1529586Y707233D01*
X1529665Y707441D01*
X1529744Y707620D01*
X1529823Y707768D01*
X1529902Y707897D01*
X1529962Y707986D01*
X1530002Y708036D01*
X1530011Y708055D01*
X1530140Y708204D01*
X1530289Y708323D01*
X1530437Y708432D01*
X1530586Y708521D01*
X1530715Y708600D01*
X1530814Y708650D01*
X1530853Y708670D01*
X1530883Y708680D01*
X1530903Y708689D01*
X1530913D01*
X1531131Y708769D01*
X1531349Y708828D01*
X1531567Y708868D01*
X1531755Y708897D01*
X1531923Y708917D01*
X1532003D01*
X1532062Y708927D01*
X1532181D01*
X1532537Y708907D01*
D02*
G37*
G36*
X1521591Y702310D02*
X1519254D01*
X1519036Y702320D01*
X1518837Y702330D01*
X1518659Y702350D01*
X1518511Y702369D01*
X1518382Y702389D01*
X1518293Y702399D01*
X1518233Y702419D01*
X1518213D01*
X1518045Y702468D01*
X1517896Y702518D01*
X1517768Y702568D01*
X1517659Y702617D01*
X1517569Y702667D01*
X1517500Y702706D01*
X1517451Y702726D01*
X1517441Y702736D01*
X1517322Y702825D01*
X1517213Y702924D01*
X1517104Y703023D01*
X1517025Y703112D01*
X1516945Y703202D01*
X1516896Y703271D01*
X1516856Y703310D01*
X1516846Y703330D01*
X1516747Y703479D01*
X1516658Y703637D01*
X1516579Y703796D01*
X1516519Y703944D01*
X1516470Y704083D01*
X1516430Y704182D01*
X1516420Y704222D01*
X1516411Y704252D01*
X1516401Y704271D01*
Y704281D01*
X1516341Y704499D01*
X1516302Y704727D01*
X1516262Y704955D01*
X1516242Y705153D01*
X1516232Y705331D01*
Y705411D01*
X1516222Y705470D01*
Y705529D01*
Y705569D01*
Y705589D01*
Y705599D01*
X1516232Y705916D01*
X1516262Y706203D01*
X1516302Y706461D01*
X1516331Y706580D01*
X1516351Y706689D01*
X1516371Y706787D01*
X1516401Y706877D01*
X1516420Y706956D01*
X1516440Y707015D01*
X1516460Y707065D01*
X1516470Y707104D01*
X1516480Y707124D01*
Y707134D01*
X1516589Y707382D01*
X1516708Y707600D01*
X1516836Y707788D01*
X1516965Y707946D01*
X1517074Y708075D01*
X1517163Y708174D01*
X1517233Y708234D01*
X1517243Y708254D01*
X1517253D01*
X1517411Y708372D01*
X1517569Y708472D01*
X1517728Y708551D01*
X1517877Y708610D01*
X1518005Y708660D01*
X1518114Y708689D01*
X1518154Y708709D01*
X1518174D01*
X1518194Y708719D01*
X1518203D01*
X1518362Y708749D01*
X1518550Y708779D01*
X1518748Y708798D01*
X1518927Y708808D01*
X1519095Y708818D01*
X1521591D01*
Y702310D01*
D02*
G37*
G36*
X1747984Y873760D02*
X1746258D01*
Y878283D01*
X1744135Y880326D01*
X1739494Y873760D01*
X1737212D01*
X1742925Y881497D01*
X1737450Y886793D01*
X1739791D01*
X1746258Y880346D01*
Y886793D01*
X1747984D01*
Y873760D01*
D02*
G37*
G36*
X1766155Y886972D02*
X1766750Y886892D01*
X1767286Y886753D01*
X1767524Y886694D01*
X1767742Y886615D01*
X1767940Y886535D01*
X1768139Y886476D01*
X1768297Y886396D01*
X1768416Y886337D01*
X1768535Y886297D01*
X1768615Y886258D01*
X1768655Y886218D01*
X1768674D01*
X1769170Y885900D01*
X1769627Y885524D01*
X1770004Y885147D01*
X1770301Y884770D01*
X1770559Y884433D01*
X1770658Y884294D01*
X1770737Y884175D01*
X1770797Y884056D01*
X1770837Y883976D01*
X1770876Y883937D01*
Y883917D01*
X1771134Y883342D01*
X1771333Y882727D01*
X1771452Y882131D01*
X1771551Y881576D01*
X1771591Y881318D01*
X1771610Y881100D01*
X1771630Y880882D01*
Y880703D01*
X1771650Y880564D01*
Y880465D01*
Y880386D01*
Y880366D01*
X1771630Y879671D01*
X1771551Y879037D01*
X1771432Y878442D01*
X1771372Y878164D01*
X1771313Y877926D01*
X1771253Y877688D01*
X1771194Y877489D01*
X1771134Y877311D01*
X1771075Y877152D01*
X1771035Y877033D01*
X1770995Y876954D01*
X1770975Y876894D01*
Y876874D01*
X1770698Y876299D01*
X1770361Y875803D01*
X1770043Y875367D01*
X1769706Y875030D01*
X1769428Y874752D01*
X1769190Y874554D01*
X1769091Y874494D01*
X1769032Y874435D01*
X1768992Y874415D01*
X1768972Y874395D01*
X1768714Y874236D01*
X1768436Y874117D01*
X1767881Y873899D01*
X1767306Y873760D01*
X1766750Y873641D01*
X1766512Y873621D01*
X1766274Y873581D01*
X1766076Y873562D01*
X1765897D01*
X1765739Y873542D01*
X1765540D01*
X1765163Y873562D01*
X1764806Y873581D01*
X1764151Y873720D01*
X1763854Y873800D01*
X1763556Y873899D01*
X1763298Y873998D01*
X1763060Y874097D01*
X1762842Y874196D01*
X1762664Y874296D01*
X1762505Y874395D01*
X1762366Y874474D01*
X1762247Y874554D01*
X1762168Y874613D01*
X1762128Y874633D01*
X1762108Y874653D01*
X1761850Y874871D01*
X1761612Y875109D01*
X1761216Y875625D01*
X1760858Y876160D01*
X1760601Y876696D01*
X1760482Y876934D01*
X1760402Y877152D01*
X1760323Y877370D01*
X1760244Y877529D01*
X1760204Y877688D01*
X1760164Y877787D01*
X1760144Y877866D01*
Y877886D01*
X1761870Y878323D01*
X1762029Y877747D01*
X1762227Y877232D01*
X1762465Y876815D01*
X1762684Y876458D01*
X1762902Y876200D01*
X1763080Y876002D01*
X1763199Y875883D01*
X1763219Y875863D01*
X1763239Y875843D01*
X1763636Y875565D01*
X1764032Y875367D01*
X1764449Y875208D01*
X1764826Y875109D01*
X1765163Y875049D01*
X1765322Y875030D01*
X1765441D01*
X1765540Y875010D01*
X1765679D01*
X1766115Y875030D01*
X1766532Y875109D01*
X1766909Y875208D01*
X1767226Y875307D01*
X1767504Y875426D01*
X1767722Y875506D01*
X1767802Y875545D01*
X1767861Y875585D01*
X1767881Y875605D01*
X1767901D01*
X1768258Y875863D01*
X1768555Y876160D01*
X1768813Y876458D01*
X1769032Y876775D01*
X1769190Y877033D01*
X1769289Y877271D01*
X1769329Y877351D01*
X1769369Y877410D01*
X1769388Y877450D01*
Y877470D01*
X1769547Y877946D01*
X1769666Y878442D01*
X1769746Y878938D01*
X1769805Y879394D01*
X1769825Y879592D01*
X1769845Y879771D01*
Y879949D01*
X1769865Y880088D01*
Y880207D01*
Y880286D01*
Y880346D01*
Y880366D01*
X1769845Y880842D01*
X1769805Y881298D01*
X1769746Y881715D01*
X1769666Y882092D01*
X1769587Y882409D01*
X1769567Y882548D01*
X1769527Y882647D01*
X1769508Y882746D01*
X1769488Y882806D01*
X1769468Y882846D01*
Y882865D01*
X1769289Y883302D01*
X1769071Y883699D01*
X1768833Y884016D01*
X1768615Y884294D01*
X1768397Y884512D01*
X1768218Y884671D01*
X1768099Y884770D01*
X1768079Y884809D01*
X1768059D01*
X1767663Y885048D01*
X1767246Y885226D01*
X1766830Y885365D01*
X1766433Y885444D01*
X1766076Y885504D01*
X1765937Y885524D01*
X1765798D01*
X1765699Y885543D01*
X1765560D01*
X1765084Y885524D01*
X1764667Y885444D01*
X1764290Y885345D01*
X1763993Y885226D01*
X1763735Y885087D01*
X1763556Y884988D01*
X1763437Y884909D01*
X1763398Y884889D01*
X1763080Y884611D01*
X1762822Y884294D01*
X1762584Y883937D01*
X1762406Y883599D01*
X1762267Y883302D01*
X1762207Y883163D01*
X1762148Y883044D01*
X1762108Y882945D01*
X1762088Y882865D01*
X1762068Y882826D01*
Y882806D01*
X1760363Y883203D01*
X1760601Y883837D01*
X1760739Y884135D01*
X1760878Y884393D01*
X1761037Y884651D01*
X1761196Y884889D01*
X1761335Y885087D01*
X1761493Y885285D01*
X1761632Y885444D01*
X1761771Y885583D01*
X1761910Y885722D01*
X1762009Y885821D01*
X1762108Y885900D01*
X1762168Y885960D01*
X1762207Y885980D01*
X1762227Y886000D01*
X1762485Y886178D01*
X1762743Y886337D01*
X1763021Y886476D01*
X1763298Y886595D01*
X1763854Y886773D01*
X1764370Y886892D01*
X1764608Y886932D01*
X1764826Y886952D01*
X1765024Y886972D01*
X1765183Y886992D01*
X1765322Y887011D01*
X1765520D01*
X1766155Y886972D01*
D02*
G37*
G36*
X1758101Y873760D02*
X1749968D01*
Y875287D01*
X1756375D01*
Y886793D01*
X1758101D01*
Y873760D01*
D02*
G37*
G36*
X1765027Y770690D02*
X1768459Y765810D01*
X1766515D01*
X1763975Y769420D01*
X1763539Y768726D01*
X1761595Y765810D01*
X1759631D01*
X1763063Y770690D01*
X1759849Y775253D01*
X1761793D01*
X1763380Y773011D01*
X1763618Y772654D01*
X1763737Y772475D01*
X1763856Y772317D01*
X1763956Y772178D01*
X1764035Y772079D01*
X1764075Y771999D01*
X1764094Y771979D01*
X1764293Y772317D01*
X1764511Y772654D01*
X1764610Y772793D01*
X1764670Y772912D01*
X1764729Y772991D01*
X1764749Y773011D01*
X1766237Y775253D01*
X1768201D01*
X1765027Y770690D01*
D02*
G37*
G36*
X1741103Y765810D02*
X1739496D01*
Y769559D01*
X1738385Y770630D01*
X1735251Y765810D01*
X1733267D01*
X1737234Y771741D01*
X1733624Y775253D01*
X1735707D01*
X1739496Y771424D01*
Y778843D01*
X1741103D01*
Y765810D01*
D02*
G37*
G36*
X1753065Y779022D02*
X1753660Y778942D01*
X1754196Y778803D01*
X1754434Y778744D01*
X1754652Y778665D01*
X1754850Y778585D01*
X1755049Y778526D01*
X1755207Y778446D01*
X1755326Y778387D01*
X1755445Y778347D01*
X1755525Y778308D01*
X1755564Y778268D01*
X1755584D01*
X1756080Y777951D01*
X1756536Y777574D01*
X1756913Y777197D01*
X1757211Y776820D01*
X1757469Y776482D01*
X1757568Y776344D01*
X1757647Y776225D01*
X1757707Y776106D01*
X1757746Y776026D01*
X1757786Y775987D01*
Y775967D01*
X1758044Y775391D01*
X1758242Y774777D01*
X1758361Y774181D01*
X1758461Y773626D01*
X1758500Y773368D01*
X1758520Y773150D01*
X1758540Y772932D01*
Y772753D01*
X1758560Y772614D01*
Y772515D01*
Y772436D01*
Y772416D01*
X1758540Y771721D01*
X1758461Y771087D01*
X1758342Y770492D01*
X1758282Y770214D01*
X1758223Y769976D01*
X1758163Y769738D01*
X1758103Y769539D01*
X1758044Y769361D01*
X1757984Y769202D01*
X1757945Y769083D01*
X1757905Y769004D01*
X1757885Y768944D01*
Y768924D01*
X1757608Y768349D01*
X1757270Y767853D01*
X1756953Y767417D01*
X1756616Y767080D01*
X1756338Y766802D01*
X1756100Y766603D01*
X1756001Y766544D01*
X1755941Y766485D01*
X1755901Y766465D01*
X1755882Y766445D01*
X1755624Y766286D01*
X1755346Y766167D01*
X1754791Y765949D01*
X1754215Y765810D01*
X1753660Y765691D01*
X1753422Y765671D01*
X1753184Y765631D01*
X1752985Y765612D01*
X1752807D01*
X1752648Y765592D01*
X1752450D01*
X1752073Y765612D01*
X1751716Y765631D01*
X1751061Y765770D01*
X1750764Y765850D01*
X1750466Y765949D01*
X1750208Y766048D01*
X1749970Y766147D01*
X1749752Y766246D01*
X1749573Y766346D01*
X1749415Y766445D01*
X1749276Y766524D01*
X1749157Y766603D01*
X1749077Y766663D01*
X1749038Y766683D01*
X1749018Y766703D01*
X1748760Y766921D01*
X1748522Y767159D01*
X1748125Y767675D01*
X1747768Y768210D01*
X1747510Y768746D01*
X1747391Y768984D01*
X1747312Y769202D01*
X1747233Y769420D01*
X1747153Y769579D01*
X1747114Y769738D01*
X1747074Y769837D01*
X1747054Y769916D01*
Y769936D01*
X1748780Y770373D01*
X1748939Y769797D01*
X1749137Y769281D01*
X1749375Y768865D01*
X1749593Y768508D01*
X1749812Y768250D01*
X1749990Y768052D01*
X1750109Y767933D01*
X1750129Y767913D01*
X1750149Y767893D01*
X1750545Y767615D01*
X1750942Y767417D01*
X1751359Y767258D01*
X1751736Y767159D01*
X1752073Y767099D01*
X1752232Y767080D01*
X1752351D01*
X1752450Y767060D01*
X1752589D01*
X1753025Y767080D01*
X1753442Y767159D01*
X1753819Y767258D01*
X1754136Y767357D01*
X1754414Y767476D01*
X1754632Y767556D01*
X1754711Y767595D01*
X1754771Y767635D01*
X1754791Y767655D01*
X1754810D01*
X1755168Y767913D01*
X1755465Y768210D01*
X1755723Y768508D01*
X1755941Y768825D01*
X1756100Y769083D01*
X1756199Y769321D01*
X1756239Y769401D01*
X1756279Y769460D01*
X1756298Y769500D01*
Y769520D01*
X1756457Y769996D01*
X1756576Y770492D01*
X1756655Y770988D01*
X1756715Y771444D01*
X1756735Y771642D01*
X1756755Y771821D01*
Y771999D01*
X1756774Y772138D01*
Y772257D01*
Y772337D01*
Y772396D01*
Y772416D01*
X1756755Y772892D01*
X1756715Y773348D01*
X1756655Y773765D01*
X1756576Y774142D01*
X1756497Y774459D01*
X1756477Y774598D01*
X1756437Y774697D01*
X1756417Y774796D01*
X1756398Y774856D01*
X1756378Y774895D01*
Y774915D01*
X1756199Y775352D01*
X1755981Y775749D01*
X1755743Y776066D01*
X1755525Y776344D01*
X1755306Y776562D01*
X1755128Y776721D01*
X1755009Y776820D01*
X1754989Y776859D01*
X1754969D01*
X1754572Y777097D01*
X1754156Y777276D01*
X1753739Y777415D01*
X1753342Y777494D01*
X1752985Y777554D01*
X1752847Y777574D01*
X1752708D01*
X1752608Y777593D01*
X1752470D01*
X1751994Y777574D01*
X1751577Y777494D01*
X1751200Y777395D01*
X1750903Y777276D01*
X1750645Y777137D01*
X1750466Y777038D01*
X1750347Y776959D01*
X1750307Y776939D01*
X1749990Y776661D01*
X1749732Y776344D01*
X1749494Y775987D01*
X1749315Y775649D01*
X1749177Y775352D01*
X1749117Y775213D01*
X1749058Y775094D01*
X1749018Y774995D01*
X1748998Y774915D01*
X1748978Y774876D01*
Y774856D01*
X1747272Y775253D01*
X1747510Y775887D01*
X1747649Y776185D01*
X1747788Y776443D01*
X1747947Y776701D01*
X1748105Y776939D01*
X1748244Y777137D01*
X1748403Y777336D01*
X1748542Y777494D01*
X1748681Y777633D01*
X1748820Y777772D01*
X1748919Y777871D01*
X1749018Y777951D01*
X1749077Y778010D01*
X1749117Y778030D01*
X1749137Y778050D01*
X1749395Y778228D01*
X1749653Y778387D01*
X1749931Y778526D01*
X1750208Y778645D01*
X1750764Y778823D01*
X1751279Y778942D01*
X1751517Y778982D01*
X1751736Y779002D01*
X1751934Y779022D01*
X1752093Y779042D01*
X1752232Y779061D01*
X1752430D01*
X1753065Y779022D01*
D02*
G37*
G36*
X1779270Y765810D02*
X1769550D01*
Y767337D01*
X1777544D01*
Y771781D01*
X1770343D01*
Y773308D01*
X1777544D01*
Y777316D01*
X1769847D01*
Y778843D01*
X1779270D01*
Y765810D01*
D02*
G37*
G36*
X1745170D02*
X1743563D01*
Y778843D01*
X1745170D01*
Y765810D01*
D02*
G37*
G36*
X1141139Y723900D02*
X1139493D01*
Y734136D01*
X1132649Y723900D01*
X1130883D01*
Y736933D01*
X1132530D01*
Y726697D01*
X1139394Y736933D01*
X1141139D01*
Y723900D01*
D02*
G37*
G36*
X1149908Y737112D02*
X1150542Y737032D01*
X1151137Y736893D01*
X1151395Y736814D01*
X1151633Y736755D01*
X1151852Y736675D01*
X1152050Y736596D01*
X1152228Y736536D01*
X1152367Y736457D01*
X1152467Y736417D01*
X1152566Y736378D01*
X1152605Y736338D01*
X1152625D01*
X1152903Y736179D01*
X1153141Y736001D01*
X1153617Y735624D01*
X1153994Y735227D01*
X1154331Y734830D01*
X1154569Y734454D01*
X1154669Y734315D01*
X1154768Y734176D01*
X1154827Y734057D01*
X1154867Y733977D01*
X1154906Y733918D01*
Y733898D01*
X1155164Y733283D01*
X1155363Y732648D01*
X1155502Y732053D01*
X1155601Y731498D01*
X1155640Y731260D01*
X1155660Y731041D01*
X1155680Y730843D01*
Y730665D01*
X1155700Y730526D01*
Y730426D01*
Y730367D01*
Y730347D01*
X1155660Y729653D01*
X1155581Y728998D01*
X1155442Y728403D01*
X1155383Y728125D01*
X1155303Y727887D01*
X1155224Y727649D01*
X1155164Y727451D01*
X1155085Y727272D01*
X1155025Y727133D01*
X1154986Y727014D01*
X1154946Y726935D01*
X1154906Y726876D01*
Y726856D01*
X1154569Y726320D01*
X1154192Y725844D01*
X1153815Y725427D01*
X1153419Y725090D01*
X1153082Y724832D01*
X1152943Y724733D01*
X1152804Y724654D01*
X1152705Y724575D01*
X1152605Y724535D01*
X1152566Y724515D01*
X1152546Y724495D01*
X1151951Y724217D01*
X1151336Y724019D01*
X1150760Y723880D01*
X1150205Y723781D01*
X1149967Y723741D01*
X1149749Y723721D01*
X1149550Y723702D01*
X1149372D01*
X1149233Y723682D01*
X1149054D01*
X1148539Y723702D01*
X1148023Y723761D01*
X1147567Y723840D01*
X1147150Y723940D01*
X1146972Y723979D01*
X1146793Y724019D01*
X1146654Y724059D01*
X1146535Y724098D01*
X1146436Y724138D01*
X1146357Y724158D01*
X1146317Y724178D01*
X1146297D01*
X1145801Y724396D01*
X1145305Y724634D01*
X1144869Y724892D01*
X1144472Y725130D01*
X1144135Y725368D01*
X1143996Y725447D01*
X1143877Y725546D01*
X1143778Y725606D01*
X1143718Y725666D01*
X1143679Y725685D01*
X1143659Y725705D01*
Y730546D01*
X1149174D01*
Y729018D01*
X1145345D01*
Y726558D01*
X1145583Y726380D01*
X1145841Y726201D01*
X1146099Y726042D01*
X1146357Y725904D01*
X1146595Y725785D01*
X1146793Y725705D01*
X1146872Y725666D01*
X1146932Y725646D01*
X1146952Y725626D01*
X1146972D01*
X1147368Y725487D01*
X1147765Y725388D01*
X1148142Y725309D01*
X1148459Y725269D01*
X1148737Y725229D01*
X1148955Y725209D01*
X1149154D01*
X1149630Y725229D01*
X1150086Y725289D01*
X1150483Y725388D01*
X1150860Y725487D01*
X1151157Y725586D01*
X1151296Y725646D01*
X1151395Y725685D01*
X1151475Y725705D01*
X1151534Y725745D01*
X1151574Y725765D01*
X1151594D01*
X1151990Y726003D01*
X1152347Y726281D01*
X1152645Y726578D01*
X1152883Y726856D01*
X1153062Y727114D01*
X1153201Y727312D01*
X1153260Y727391D01*
X1153300Y727451D01*
X1153319Y727491D01*
Y727510D01*
X1153518Y727987D01*
X1153657Y728463D01*
X1153776Y728959D01*
X1153835Y729435D01*
X1153855Y729633D01*
X1153875Y729831D01*
X1153895Y730010D01*
Y730149D01*
X1153915Y730288D01*
Y730367D01*
Y730426D01*
Y730446D01*
X1153895Y730962D01*
X1153835Y731458D01*
X1153756Y731895D01*
X1153657Y732291D01*
X1153577Y732609D01*
X1153538Y732747D01*
X1153498Y732847D01*
X1153458Y732946D01*
X1153438Y733005D01*
X1153419Y733045D01*
Y733065D01*
X1153300Y733323D01*
X1153181Y733561D01*
X1153042Y733779D01*
X1152903Y733977D01*
X1152784Y734136D01*
X1152685Y734255D01*
X1152625Y734334D01*
X1152605Y734354D01*
X1152387Y734573D01*
X1152169Y734751D01*
X1151931Y734910D01*
X1151713Y735049D01*
X1151514Y735168D01*
X1151356Y735247D01*
X1151256Y735287D01*
X1151217Y735306D01*
X1150880Y735425D01*
X1150542Y735525D01*
X1150185Y735584D01*
X1149868Y735644D01*
X1149590Y735664D01*
X1149372Y735683D01*
X1149174D01*
X1148816Y735664D01*
X1148479Y735624D01*
X1148182Y735564D01*
X1147924Y735505D01*
X1147706Y735445D01*
X1147527Y735386D01*
X1147428Y735346D01*
X1147388Y735326D01*
X1147091Y735188D01*
X1146852Y735049D01*
X1146634Y734890D01*
X1146456Y734751D01*
X1146317Y734612D01*
X1146218Y734513D01*
X1146158Y734434D01*
X1146138Y734414D01*
X1145980Y734176D01*
X1145841Y733918D01*
X1145722Y733660D01*
X1145623Y733422D01*
X1145543Y733184D01*
X1145464Y733005D01*
X1145444Y732886D01*
X1145424Y732867D01*
Y732847D01*
X1143857Y733283D01*
X1143996Y733759D01*
X1144155Y734176D01*
X1144313Y734533D01*
X1144472Y734830D01*
X1144631Y735088D01*
X1144750Y735267D01*
X1144829Y735366D01*
X1144849Y735406D01*
X1145107Y735703D01*
X1145404Y735941D01*
X1145702Y736160D01*
X1146000Y736338D01*
X1146257Y736497D01*
X1146456Y736596D01*
X1146535Y736636D01*
X1146595Y736655D01*
X1146634Y736675D01*
X1146654D01*
X1147091Y736834D01*
X1147527Y736953D01*
X1147963Y737032D01*
X1148340Y737092D01*
X1148678Y737132D01*
X1148836D01*
X1148955Y737151D01*
X1149193D01*
X1149908Y737112D01*
D02*
G37*
G36*
X1127987Y723900D02*
X1123306D01*
X1122869Y723920D01*
X1122472Y723940D01*
X1122115Y723979D01*
X1121818Y724019D01*
X1121560Y724059D01*
X1121381Y724079D01*
X1121262Y724118D01*
X1121223D01*
X1120885Y724217D01*
X1120588Y724317D01*
X1120330Y724416D01*
X1120112Y724515D01*
X1119933Y724614D01*
X1119794Y724694D01*
X1119695Y724733D01*
X1119675Y724753D01*
X1119437Y724931D01*
X1119219Y725130D01*
X1119001Y725328D01*
X1118842Y725507D01*
X1118683Y725685D01*
X1118584Y725824D01*
X1118505Y725904D01*
X1118485Y725943D01*
X1118287Y726241D01*
X1118108Y726558D01*
X1117949Y726876D01*
X1117830Y727173D01*
X1117731Y727451D01*
X1117652Y727649D01*
X1117632Y727729D01*
X1117612Y727788D01*
X1117592Y727828D01*
Y727848D01*
X1117473Y728284D01*
X1117394Y728740D01*
X1117315Y729197D01*
X1117275Y729593D01*
X1117255Y729950D01*
Y730109D01*
X1117235Y730228D01*
Y730347D01*
Y730426D01*
Y730466D01*
Y730486D01*
X1117255Y731121D01*
X1117315Y731696D01*
X1117394Y732212D01*
X1117454Y732450D01*
X1117493Y732668D01*
X1117533Y732867D01*
X1117592Y733045D01*
X1117632Y733204D01*
X1117672Y733323D01*
X1117711Y733422D01*
X1117731Y733501D01*
X1117751Y733541D01*
Y733561D01*
X1117969Y734057D01*
X1118207Y734493D01*
X1118465Y734870D01*
X1118723Y735188D01*
X1118941Y735445D01*
X1119120Y735644D01*
X1119259Y735763D01*
X1119278Y735802D01*
X1119298D01*
X1119616Y736040D01*
X1119933Y736239D01*
X1120251Y736398D01*
X1120548Y736517D01*
X1120806Y736616D01*
X1121024Y736675D01*
X1121104Y736715D01*
X1121143D01*
X1121183Y736735D01*
X1121203D01*
X1121520Y736794D01*
X1121897Y736854D01*
X1122294Y736893D01*
X1122651Y736913D01*
X1122988Y736933D01*
X1127987D01*
Y723900D01*
D02*
G37*
G36*
X1124967Y778310D02*
X1128399Y773430D01*
X1126454D01*
X1123915Y777040D01*
X1123479Y776346D01*
X1121535Y773430D01*
X1119571D01*
X1123003Y778310D01*
X1119789Y782873D01*
X1121733D01*
X1123320Y780631D01*
X1123558Y780274D01*
X1123677Y780095D01*
X1123796Y779937D01*
X1123895Y779798D01*
X1123975Y779699D01*
X1124014Y779619D01*
X1124034Y779599D01*
X1124233Y779937D01*
X1124451Y780274D01*
X1124550Y780413D01*
X1124610Y780532D01*
X1124669Y780611D01*
X1124689Y780631D01*
X1126177Y782873D01*
X1128141D01*
X1124967Y778310D01*
D02*
G37*
G36*
X1139190Y784936D02*
X1134905D01*
Y773430D01*
X1133179D01*
Y784936D01*
X1128894D01*
Y786463D01*
X1139190D01*
Y784936D01*
D02*
G37*
G36*
X1123935Y751640D02*
X1127367Y746760D01*
X1125423D01*
X1122884Y750370D01*
X1122447Y749676D01*
X1120503Y746760D01*
X1118539D01*
X1121971Y751640D01*
X1118757Y756203D01*
X1120702D01*
X1122289Y753961D01*
X1122527Y753604D01*
X1122646Y753425D01*
X1122765Y753267D01*
X1122864Y753128D01*
X1122943Y753029D01*
X1122983Y752949D01*
X1123003Y752929D01*
X1123201Y753267D01*
X1123419Y753604D01*
X1123519Y753743D01*
X1123578Y753862D01*
X1123637Y753941D01*
X1123657Y753961D01*
X1125145Y756203D01*
X1127109D01*
X1123935Y751640D01*
D02*
G37*
G36*
X1139190Y746760D02*
X1137464D01*
Y752552D01*
X1135242D01*
X1135044Y752533D01*
X1134885D01*
X1134746Y752513D01*
X1134647Y752493D01*
X1134568D01*
X1134528Y752473D01*
X1134508D01*
X1134211Y752374D01*
X1133973Y752255D01*
X1133874Y752195D01*
X1133794Y752156D01*
X1133755Y752136D01*
X1133735Y752116D01*
X1133576Y752017D01*
X1133437Y751878D01*
X1133140Y751600D01*
X1133040Y751461D01*
X1132941Y751342D01*
X1132882Y751263D01*
X1132862Y751243D01*
X1132663Y750985D01*
X1132465Y750708D01*
X1132247Y750410D01*
X1132048Y750113D01*
X1131870Y749855D01*
X1131731Y749656D01*
X1131692Y749577D01*
X1131652Y749517D01*
X1131612Y749478D01*
Y749458D01*
X1129886Y746760D01*
X1127724D01*
X1129985Y750291D01*
X1130243Y750668D01*
X1130501Y751005D01*
X1130739Y751303D01*
X1130957Y751561D01*
X1131136Y751759D01*
X1131275Y751918D01*
X1131374Y751997D01*
X1131414Y752037D01*
X1131553Y752156D01*
X1131731Y752275D01*
X1132068Y752493D01*
X1132207Y752572D01*
X1132326Y752632D01*
X1132406Y752672D01*
X1132445Y752691D01*
X1132108Y752751D01*
X1131791Y752810D01*
X1131493Y752890D01*
X1131235Y752989D01*
X1130977Y753088D01*
X1130759Y753187D01*
X1130541Y753287D01*
X1130362Y753386D01*
X1130204Y753485D01*
X1130065Y753564D01*
X1129946Y753663D01*
X1129847Y753723D01*
X1129787Y753802D01*
X1129728Y753842D01*
X1129688Y753882D01*
X1129529Y754060D01*
X1129390Y754258D01*
X1129152Y754655D01*
X1128994Y755032D01*
X1128894Y755409D01*
X1128815Y755726D01*
X1128795Y755865D01*
Y755984D01*
X1128775Y756084D01*
Y756163D01*
Y756203D01*
Y756222D01*
X1128795Y756619D01*
X1128855Y756976D01*
X1128954Y757314D01*
X1129053Y757611D01*
X1129152Y757849D01*
X1129251Y758028D01*
X1129311Y758147D01*
X1129331Y758186D01*
X1129549Y758504D01*
X1129787Y758762D01*
X1130025Y758980D01*
X1130263Y759138D01*
X1130462Y759277D01*
X1130620Y759377D01*
X1130739Y759416D01*
X1130759Y759436D01*
X1130779D01*
X1130957Y759496D01*
X1131156Y759555D01*
X1131572Y759634D01*
X1132009Y759714D01*
X1132425Y759753D01*
X1132822Y759773D01*
X1132981D01*
X1133140Y759793D01*
X1139190D01*
Y746760D01*
D02*
G37*
%LPC*%
G36*
X1518370Y761395D02*
X1517013D01*
X1516745Y761386D01*
X1516517Y761376D01*
X1516329Y761356D01*
X1516171Y761326D01*
X1516052Y761296D01*
X1515973Y761277D01*
X1515923Y761267D01*
X1515903Y761257D01*
X1515735Y761168D01*
X1515576Y761059D01*
X1515438Y760940D01*
X1515319Y760811D01*
X1515220Y760702D01*
X1515150Y760603D01*
X1515121Y760563D01*
X1515111Y760534D01*
X1515091Y760524D01*
Y760514D01*
X1515031Y760405D01*
X1514982Y760286D01*
X1514893Y760038D01*
X1514833Y759781D01*
X1514794Y759523D01*
X1514784Y759414D01*
X1514774Y759305D01*
X1514764Y759206D01*
X1514754Y759117D01*
Y759048D01*
Y758998D01*
Y758959D01*
Y758949D01*
X1514764Y758681D01*
X1514784Y758444D01*
X1514814Y758226D01*
X1514843Y758037D01*
X1514873Y757889D01*
X1514893Y757829D01*
X1514903Y757780D01*
X1514913Y757740D01*
X1514922Y757710D01*
X1514933Y757701D01*
Y757691D01*
X1515002Y757512D01*
X1515081Y757344D01*
X1515160Y757205D01*
X1515230Y757086D01*
X1515299Y756997D01*
X1515358Y756928D01*
X1515398Y756878D01*
X1515408Y756868D01*
X1515497Y756789D01*
X1515586Y756720D01*
X1515685Y756670D01*
X1515784Y756621D01*
X1515864Y756581D01*
X1515933Y756551D01*
X1515973Y756542D01*
X1515992Y756532D01*
X1516141Y756492D01*
X1516299Y756462D01*
X1516468Y756442D01*
X1516626Y756433D01*
X1516775Y756423D01*
X1516884Y756413D01*
X1518370D01*
Y761395D01*
D02*
G37*
G36*
X1520730Y708055D02*
X1519372D01*
X1519105Y708046D01*
X1518877Y708036D01*
X1518689Y708016D01*
X1518530Y707986D01*
X1518412Y707956D01*
X1518332Y707937D01*
X1518283Y707927D01*
X1518263Y707917D01*
X1518094Y707828D01*
X1517936Y707719D01*
X1517797Y707600D01*
X1517678Y707471D01*
X1517579Y707362D01*
X1517510Y707263D01*
X1517480Y707223D01*
X1517470Y707194D01*
X1517451Y707184D01*
Y707174D01*
X1517391Y707065D01*
X1517342Y706946D01*
X1517253Y706698D01*
X1517193Y706441D01*
X1517153Y706183D01*
X1517144Y706074D01*
X1517134Y705965D01*
X1517124Y705866D01*
X1517114Y705777D01*
Y705708D01*
Y705658D01*
Y705619D01*
Y705609D01*
X1517124Y705341D01*
X1517144Y705104D01*
X1517173Y704886D01*
X1517203Y704697D01*
X1517233Y704549D01*
X1517253Y704489D01*
X1517262Y704440D01*
X1517272Y704400D01*
X1517282Y704370D01*
X1517292Y704361D01*
Y704351D01*
X1517361Y704172D01*
X1517441Y704004D01*
X1517520Y703865D01*
X1517589Y703746D01*
X1517659Y703657D01*
X1517718Y703588D01*
X1517758Y703538D01*
X1517768Y703528D01*
X1517857Y703449D01*
X1517946Y703380D01*
X1518045Y703330D01*
X1518144Y703281D01*
X1518223Y703241D01*
X1518293Y703211D01*
X1518332Y703202D01*
X1518352Y703192D01*
X1518501Y703152D01*
X1518659Y703122D01*
X1518828Y703102D01*
X1518986Y703093D01*
X1519135Y703083D01*
X1519244Y703073D01*
X1520730D01*
Y708055D01*
D02*
G37*
G36*
X1126261Y735406D02*
X1123544D01*
X1123008Y735386D01*
X1122552Y735366D01*
X1122175Y735326D01*
X1121857Y735267D01*
X1121619Y735207D01*
X1121461Y735168D01*
X1121361Y735148D01*
X1121322Y735128D01*
X1120985Y734949D01*
X1120667Y734731D01*
X1120389Y734493D01*
X1120151Y734235D01*
X1119953Y734017D01*
X1119814Y733819D01*
X1119755Y733739D01*
X1119735Y733680D01*
X1119695Y733660D01*
Y733640D01*
X1119576Y733422D01*
X1119477Y733184D01*
X1119298Y732688D01*
X1119179Y732172D01*
X1119100Y731656D01*
X1119080Y731438D01*
X1119060Y731220D01*
X1119041Y731022D01*
X1119021Y730843D01*
Y730704D01*
Y730605D01*
Y730526D01*
Y730506D01*
X1119041Y729970D01*
X1119080Y729494D01*
X1119140Y729058D01*
X1119199Y728681D01*
X1119259Y728383D01*
X1119298Y728264D01*
X1119318Y728165D01*
X1119338Y728086D01*
X1119358Y728026D01*
X1119378Y728006D01*
Y727987D01*
X1119517Y727629D01*
X1119675Y727292D01*
X1119834Y727014D01*
X1119973Y726776D01*
X1120112Y726598D01*
X1120231Y726459D01*
X1120310Y726360D01*
X1120330Y726340D01*
X1120508Y726181D01*
X1120687Y726042D01*
X1120885Y725943D01*
X1121084Y725844D01*
X1121242Y725765D01*
X1121381Y725705D01*
X1121461Y725685D01*
X1121500Y725666D01*
X1121798Y725586D01*
X1122115Y725527D01*
X1122452Y725487D01*
X1122770Y725467D01*
X1123067Y725447D01*
X1123286Y725427D01*
X1126261D01*
Y735406D01*
D02*
G37*
G36*
X1137464Y758345D02*
X1133358D01*
X1132842Y758325D01*
X1132406Y758246D01*
X1132048Y758167D01*
X1131751Y758047D01*
X1131533Y757948D01*
X1131354Y757849D01*
X1131275Y757770D01*
X1131235Y757750D01*
X1131017Y757512D01*
X1130838Y757254D01*
X1130719Y756996D01*
X1130640Y756758D01*
X1130600Y756540D01*
X1130561Y756381D01*
Y756262D01*
Y756242D01*
Y756222D01*
X1130581Y755984D01*
X1130620Y755766D01*
X1130680Y755568D01*
X1130739Y755409D01*
X1130799Y755250D01*
X1130858Y755151D01*
X1130898Y755072D01*
X1130918Y755052D01*
X1131057Y754874D01*
X1131215Y754715D01*
X1131394Y754576D01*
X1131553Y754457D01*
X1131692Y754378D01*
X1131811Y754318D01*
X1131890Y754298D01*
X1131929Y754278D01*
X1132187Y754199D01*
X1132485Y754139D01*
X1132802Y754100D01*
X1133100Y754080D01*
X1133358Y754060D01*
X1133576Y754040D01*
X1137464D01*
Y758345D01*
D02*
G37*
%LPD*%
D10*
X1344660Y690150D02*
G03*
X1344660Y702650I0J6250D01*
G01*
X1455620Y737070D02*
G03*
X1455620Y749570I0J6250D01*
G01*
X1540130Y796290D02*
X1548130D01*
X1540130D02*
X1568450D01*
Y694690D02*
Y796290D01*
X1540130Y694690D02*
X1568450D01*
X1540130D02*
Y796290D01*
X1097280Y599790D02*
X1117600D01*
X1097280Y574390D02*
Y599790D01*
Y574390D02*
X1117600D01*
Y599790D01*
X1126490Y599090D02*
X1146810D01*
X1126490Y573690D02*
Y599090D01*
Y573690D02*
X1146810D01*
Y599090D01*
X1285240Y496570D02*
Y521970D01*
X1305560D01*
Y496570D02*
Y521970D01*
X1285240Y496570D02*
X1305560D01*
X1301750Y571850D02*
X1322070D01*
X1301750Y546450D02*
Y571850D01*
Y546450D02*
X1322070D01*
Y571850D01*
X1261500Y533400D02*
X1270000D01*
Y440690D02*
Y533400D01*
X1238250Y440690D02*
X1270000D01*
X1238250D02*
Y533400D01*
X1261500D01*
X1344660Y702650D02*
Y740410D01*
Y651510D02*
Y690150D01*
Y651510D02*
X1419660D01*
Y740410D01*
X1344660D02*
X1419660D01*
X1739900Y788670D02*
X1767840D01*
Y864870D01*
X1739900D02*
X1767840D01*
X1739900Y788670D02*
Y864870D01*
X688340Y1079500D02*
Y1162050D01*
Y1012190D02*
Y1079800D01*
Y1012190D02*
X772160D01*
Y1162050D01*
X688340D02*
X772160D01*
X1675970Y364490D02*
X1758520D01*
X1608660D02*
X1676270D01*
X1608660Y280670D02*
Y364490D01*
Y280670D02*
X1758520D01*
Y364490D01*
X873760Y1056640D02*
X894080D01*
X873760Y1031240D02*
Y1056640D01*
Y1031240D02*
X894080D01*
Y1056640D01*
X828040Y1057910D02*
X848360D01*
X828040Y1032510D02*
Y1057910D01*
Y1032510D02*
X848360D01*
Y1057910D01*
X1635760Y753780D02*
X1667180D01*
X1635760Y705520D02*
Y753780D01*
Y705520D02*
X1667180D01*
Y732190D01*
Y727575D02*
Y753780D01*
X1630680Y811530D02*
X1651000D01*
X1630680Y786130D02*
Y811530D01*
Y786130D02*
X1651000D01*
Y811530D01*
X1705610Y697580D02*
X1725930D01*
Y722980D01*
X1705610D02*
X1725930D01*
X1705610Y697580D02*
Y722980D01*
X1595120Y742950D02*
X1615440D01*
X1595120Y717550D02*
Y742950D01*
Y717550D02*
X1615440D01*
Y742950D01*
X1663700Y784860D02*
X1684020D01*
Y810260D01*
X1663700D02*
X1684020D01*
X1663700Y784860D02*
Y810260D01*
X1455620Y749570D02*
Y783060D01*
Y703050D02*
Y737070D01*
Y703050D02*
X1480620D01*
Y783060D01*
X1455620D02*
X1480620D01*
X1173480Y762000D02*
Y787400D01*
X1193800D01*
Y762000D02*
Y787400D01*
X1173480Y762000D02*
X1193800D01*
X1211580Y761080D02*
Y786480D01*
X1231900D01*
Y761080D02*
Y786480D01*
X1211580Y761080D02*
X1231900D01*
X1361440Y546100D02*
Y571500D01*
X1341120Y546100D02*
X1361440D01*
X1341120D02*
Y571500D01*
X1361440D01*
X1090040Y793750D02*
X1113790D01*
X1090040Y717550D02*
Y793750D01*
Y717550D02*
X1113790D01*
Y793750D01*
D12*
X1412243Y760726D02*
X1414783Y763265D01*
X1419861D01*
X1422400Y760726D01*
Y758187D01*
X1419861Y755648D01*
X1414783D01*
X1412243Y753108D01*
Y750569D01*
X1414783Y748030D01*
X1419861D01*
X1422400Y750569D01*
X1407165Y758187D02*
Y750569D01*
X1404626Y748030D01*
X1402087Y750569D01*
X1399547Y748030D01*
X1397008Y750569D01*
Y758187D01*
X1391930Y748030D02*
X1386852D01*
X1389391D01*
Y758187D01*
X1391930D01*
X1376695Y760726D02*
Y758187D01*
X1379234D01*
X1374156D01*
X1376695D01*
Y750569D01*
X1374156Y748030D01*
X1356381Y758187D02*
X1363999D01*
X1366538Y755648D01*
Y750569D01*
X1363999Y748030D01*
X1356381D01*
X1351303Y763265D02*
Y748030D01*
Y755648D01*
X1348764Y758187D01*
X1343685D01*
X1341146Y755648D01*
Y748030D01*
X1280160Y541020D02*
Y556255D01*
X1272542D01*
X1270003Y553716D01*
Y548638D01*
X1272542Y546098D01*
X1280160D01*
X1275082D02*
X1270003Y541020D01*
X1257307D02*
X1262386D01*
X1264925Y543559D01*
Y548638D01*
X1262386Y551177D01*
X1257307D01*
X1254768Y548638D01*
Y546098D01*
X1264925D01*
X1249690Y541020D02*
X1242072D01*
X1239533Y543559D01*
X1242072Y546098D01*
X1247151D01*
X1249690Y548638D01*
X1247151Y551177D01*
X1239533D01*
X1226837Y541020D02*
X1231916D01*
X1234455Y543559D01*
Y548638D01*
X1231916Y551177D01*
X1226837D01*
X1224298Y548638D01*
Y546098D01*
X1234455D01*
X1216681Y553716D02*
Y551177D01*
X1219220D01*
X1214141D01*
X1216681D01*
Y543559D01*
X1214141Y541020D01*
X1734815Y791207D02*
Y781050D01*
X1719580D01*
Y791207D01*
X1727198Y781050D02*
Y786128D01*
X1729737Y796285D02*
X1719580Y806442D01*
X1724658Y801363D01*
X1729737Y806442D01*
X1719580Y796285D01*
X1732276Y821677D02*
X1734815Y819138D01*
Y814059D01*
X1732276Y811520D01*
X1722119D01*
X1719580Y814059D01*
Y819138D01*
X1722119Y821677D01*
X1719580Y826755D02*
Y831834D01*
Y829294D01*
X1734815D01*
Y826755D01*
X1719580Y841990D02*
Y847069D01*
X1722119Y849608D01*
X1727198D01*
X1729737Y847069D01*
Y841990D01*
X1727198Y839451D01*
X1722119D01*
X1719580Y841990D01*
X1729737Y864843D02*
Y857225D01*
X1727198Y854686D01*
X1722119D01*
X1719580Y857225D01*
Y864843D01*
Y869921D02*
X1734815D01*
X1724658D02*
X1729737Y877539D01*
X1724658Y869921D02*
X1719580Y877539D01*
X727964Y1170764D02*
X722886D01*
X725425D01*
Y1185999D01*
X727964Y1183460D01*
X705111Y1185999D02*
X715268D01*
Y1178382D01*
X710190Y1180921D01*
X707651D01*
X705111Y1178382D01*
Y1173303D01*
X707651Y1170764D01*
X712729D01*
X715268Y1173303D01*
X700033Y1185999D02*
Y1175842D01*
X694955Y1170764D01*
X689876Y1175842D01*
Y1185999D01*
X1625427Y388439D02*
X1635584D01*
Y380821D01*
X1630506Y383361D01*
X1627966D01*
X1625427Y380821D01*
Y375743D01*
X1627966Y373204D01*
X1633045D01*
X1635584Y375743D01*
X1620349Y388439D02*
Y378282D01*
X1615271Y373204D01*
X1610192Y378282D01*
Y388439D01*
X1437645Y763270D02*
X1452880Y753113D01*
X1437645D02*
X1452880Y763270D01*
X1440184Y745496D02*
X1442723D01*
Y748035D01*
Y742957D01*
Y745496D01*
X1450341D01*
X1452880Y742957D01*
X1442723Y732800D02*
Y727721D01*
X1445262Y725182D01*
X1452880D01*
Y732800D01*
X1450341Y735339D01*
X1447802Y732800D01*
Y725182D01*
X1452880Y720104D02*
Y715026D01*
Y717565D01*
X1437645D01*
Y720104D01*
X1147444Y817621D02*
Y804925D01*
X1144905Y802386D01*
X1139826D01*
X1137287Y804925D01*
Y817621D01*
X1132209Y802386D02*
Y812543D01*
X1127131Y817621D01*
X1122052Y812543D01*
Y802386D01*
Y810004D01*
X1132209D01*
X1116974Y802386D02*
Y817621D01*
X1109356D01*
X1106817Y815082D01*
Y810004D01*
X1109356Y807464D01*
X1116974D01*
X1111896D02*
X1106817Y802386D01*
X1101739Y817621D02*
X1091582D01*
X1096660D01*
Y802386D01*
X1568453Y817875D02*
X1573532D01*
X1570992D01*
Y805179D01*
X1573532Y802640D01*
X1576071D01*
X1578610Y805179D01*
X1563375Y817875D02*
X1553218D01*
X1558297D01*
Y802640D01*
X1548140D02*
Y812797D01*
X1543062Y817875D01*
X1537983Y812797D01*
Y802640D01*
Y810257D01*
X1548140D01*
X1522748Y815336D02*
X1525287Y817875D01*
X1530366D01*
X1532905Y815336D01*
Y805179D01*
X1530366Y802640D01*
X1525287D01*
X1522748Y805179D01*
Y810257D01*
X1527826D01*
D62*
X1299210Y527050D02*
X1297517D01*
X1298364D01*
Y532128D01*
X1299210Y531282D01*
X1294978D02*
X1294132Y532128D01*
X1292439D01*
X1291593Y531282D01*
Y527896D01*
X1292439Y527050D01*
X1294132D01*
X1294978Y527896D01*
Y531282D01*
X1289900Y527050D02*
Y532128D01*
Y528743D02*
X1287361Y530436D01*
X1289900Y528743D02*
X1287361Y527050D01*
X863602Y1051560D02*
X868680D01*
Y1048174D01*
X863602Y1043096D02*
Y1046482D01*
X868680D01*
Y1043096D01*
X866141Y1046482D02*
Y1044789D01*
X863602Y1041403D02*
X868680D01*
Y1038864D01*
X867834Y1038018D01*
X864448D01*
X863602Y1038864D01*
Y1041403D01*
X868680Y1032939D02*
Y1036325D01*
X865294Y1032939D01*
X864448D01*
X863602Y1033786D01*
Y1035479D01*
X864448Y1036325D01*
X830580Y1066800D02*
X832273D01*
X831426D01*
Y1061722D01*
X830580Y1062568D01*
X834812Y1066800D02*
Y1065954D01*
X835658D01*
Y1066800D01*
X834812D01*
X842430Y1061722D02*
X839044D01*
Y1064261D01*
X840737Y1063414D01*
X841583D01*
X842430Y1064261D01*
Y1065954D01*
X841583Y1066800D01*
X839890D01*
X839044Y1065954D01*
X844122Y1061722D02*
Y1066800D01*
Y1065107D01*
X847508Y1061722D01*
X844969Y1064261D01*
X847508Y1066800D01*
X1647190Y821688D02*
Y816610D01*
X1643804D01*
X1638726Y821688D02*
X1642112D01*
Y816610D01*
X1638726D01*
X1642112Y819149D02*
X1640419D01*
X1637033Y821688D02*
Y816610D01*
X1634494D01*
X1633648Y817456D01*
Y820842D01*
X1634494Y821688D01*
X1637033D01*
X1682750Y819572D02*
X1681904Y820418D01*
X1680211D01*
X1679364Y819572D01*
Y818726D01*
X1680211Y817879D01*
X1681057D01*
X1680211D01*
X1679364Y817033D01*
Y816186D01*
X1680211Y815340D01*
X1681904D01*
X1682750Y816186D01*
X1677672Y819572D02*
X1676825Y820418D01*
X1675132D01*
X1674286Y819572D01*
Y818726D01*
X1675132Y817879D01*
X1675979D01*
X1675132D01*
X1674286Y817033D01*
Y816186D01*
X1675132Y815340D01*
X1676825D01*
X1677672Y816186D01*
X1672593Y819572D02*
X1671747Y820418D01*
X1670054D01*
X1669208Y819572D01*
Y816186D01*
X1670054Y815340D01*
X1671747D01*
X1672593Y816186D01*
Y819572D01*
X1667515Y815340D02*
Y820418D01*
X1664976D01*
X1664129Y819572D01*
Y817879D01*
X1664976Y817033D01*
X1667515D01*
X1665822D02*
X1664129Y815340D01*
X1670050Y764538D02*
X1666664D01*
X1668357D01*
Y759460D01*
X1664972D02*
Y764538D01*
X1662433D01*
X1661586Y763692D01*
Y761999D01*
X1662433Y761153D01*
X1664972D01*
X1656508Y763692D02*
X1657354Y764538D01*
X1659047D01*
X1659893Y763692D01*
Y762846D01*
X1659047Y761999D01*
X1657354D01*
X1656508Y761153D01*
Y760306D01*
X1657354Y759460D01*
X1659047D01*
X1659893Y760306D01*
X1654815Y764538D02*
X1651429D01*
Y763692D01*
X1654815Y760306D01*
Y759460D01*
X1649737Y763692D02*
X1648890Y764538D01*
X1647197D01*
X1646351Y763692D01*
Y762846D01*
X1647197Y761999D01*
X1648044D01*
X1647197D01*
X1646351Y761153D01*
Y760306D01*
X1647197Y759460D01*
X1648890D01*
X1649737Y760306D01*
X1641273Y764538D02*
X1642966Y763692D01*
X1644658Y761999D01*
Y760306D01*
X1643812Y759460D01*
X1642119D01*
X1641273Y760306D01*
Y761153D01*
X1642119Y761999D01*
X1644658D01*
X1639580Y763692D02*
X1638734Y764538D01*
X1637041D01*
X1636194Y763692D01*
Y762846D01*
X1637041Y761999D01*
X1637887D01*
X1637041D01*
X1636194Y761153D01*
Y760306D01*
X1637041Y759460D01*
X1638734D01*
X1639580Y760306D01*
X1634502Y763692D02*
X1633655Y764538D01*
X1631962D01*
X1631116Y763692D01*
Y762846D01*
X1631962Y761999D01*
X1632809D01*
X1631962D01*
X1631116Y761153D01*
Y760306D01*
X1631962Y759460D01*
X1633655D01*
X1634502Y760306D01*
X1720850Y727710D02*
X1719157D01*
X1720004D01*
Y732788D01*
X1720850Y731942D01*
X1716618Y731096D02*
Y728556D01*
X1715772Y727710D01*
X1713233D01*
Y731096D01*
X1710693Y727710D02*
Y731942D01*
Y730249D01*
X1711540D01*
X1709847D01*
X1710693D01*
Y731942D01*
X1709847Y732788D01*
X1617980Y750992D02*
X1617134Y751838D01*
X1615441D01*
X1614594Y750992D01*
Y747606D01*
X1615441Y746760D01*
X1617134D01*
X1617980Y747606D01*
Y750992D01*
X1612902Y746760D02*
Y747606D01*
X1612055D01*
Y746760D01*
X1612902D01*
X1608670Y750992D02*
X1607823Y751838D01*
X1606131D01*
X1605284Y750992D01*
Y747606D01*
X1606131Y746760D01*
X1607823D01*
X1608670Y747606D01*
Y750992D01*
X1603591Y746760D02*
X1601898D01*
X1602745D01*
Y751838D01*
X1603591Y750992D01*
X1599359Y750146D02*
Y747606D01*
X1598513Y746760D01*
X1595974D01*
Y750146D01*
X1593435Y746760D02*
Y750992D01*
Y749299D01*
X1594281D01*
X1592588D01*
X1593435D01*
Y750992D01*
X1592588Y751838D01*
X1148080Y610022D02*
X1147234Y610868D01*
X1145541D01*
X1144694Y610022D01*
Y606636D01*
X1145541Y605790D01*
X1147234D01*
X1148080Y606636D01*
Y610022D01*
X1143002Y605790D02*
Y606636D01*
X1142155D01*
Y605790D01*
X1143002D01*
X1138770D02*
X1137077D01*
X1137923D01*
Y610868D01*
X1138770Y610022D01*
X1134538Y609176D02*
Y606636D01*
X1133691Y605790D01*
X1131152D01*
Y609176D01*
X1128613Y605790D02*
Y610022D01*
Y608329D01*
X1129459D01*
X1127767D01*
X1128613D01*
Y610022D01*
X1127767Y610868D01*
X1117600Y608752D02*
X1116754Y609598D01*
X1115061D01*
X1114214Y608752D01*
Y605366D01*
X1115061Y604520D01*
X1116754D01*
X1117600Y605366D01*
Y608752D01*
X1112522Y604520D02*
Y605366D01*
X1111675D01*
Y604520D01*
X1112522D01*
X1108290Y608752D02*
X1107443Y609598D01*
X1105751D01*
X1104904Y608752D01*
Y605366D01*
X1105751Y604520D01*
X1107443D01*
X1108290Y605366D01*
Y608752D01*
X1103211Y604520D02*
X1101518D01*
X1102365D01*
Y609598D01*
X1103211Y608752D01*
X1098979Y607906D02*
Y605366D01*
X1098133Y604520D01*
X1095594D01*
Y607906D01*
X1093055Y604520D02*
Y608752D01*
Y607059D01*
X1093901D01*
X1092208D01*
X1093055D01*
Y608752D01*
X1092208Y609598D01*
X1192530Y796712D02*
X1191684Y797558D01*
X1189991D01*
X1189144Y796712D01*
Y793326D01*
X1189991Y792480D01*
X1191684D01*
X1192530Y793326D01*
Y796712D01*
X1187452Y792480D02*
Y793326D01*
X1186605D01*
Y792480D01*
X1187452D01*
X1183220D02*
X1181527D01*
X1182373D01*
Y797558D01*
X1183220Y796712D01*
X1178988Y795866D02*
Y793326D01*
X1178141Y792480D01*
X1175602D01*
Y795866D01*
X1173063Y792480D02*
Y796712D01*
Y795019D01*
X1173909D01*
X1172217D01*
X1173063D01*
Y796712D01*
X1172217Y797558D01*
X1235710Y796712D02*
X1234864Y797558D01*
X1233171D01*
X1232324Y796712D01*
Y793326D01*
X1233171Y792480D01*
X1234864D01*
X1235710Y793326D01*
Y796712D01*
X1230632Y792480D02*
Y793326D01*
X1229785D01*
Y792480D01*
X1230632D01*
X1226400Y796712D02*
X1225553Y797558D01*
X1223860D01*
X1223014Y796712D01*
Y793326D01*
X1223860Y792480D01*
X1225553D01*
X1226400Y793326D01*
Y796712D01*
X1221321Y792480D02*
X1219629D01*
X1220475D01*
Y797558D01*
X1221321Y796712D01*
X1217089Y795866D02*
Y793326D01*
X1216243Y792480D01*
X1213704D01*
Y795866D01*
X1211165Y792480D02*
Y796712D01*
Y795019D01*
X1212011D01*
X1210318D01*
X1211165D01*
Y796712D01*
X1210318Y797558D01*
X1318260Y583352D02*
X1317414Y584198D01*
X1315721D01*
X1314874Y583352D01*
Y579966D01*
X1315721Y579120D01*
X1317414D01*
X1318260Y579966D01*
Y583352D01*
X1313182Y579120D02*
Y579966D01*
X1312335D01*
Y579120D01*
X1313182D01*
X1308950D02*
X1307257D01*
X1308103D01*
Y584198D01*
X1308950Y583352D01*
X1304718Y582506D02*
Y579966D01*
X1303871Y579120D01*
X1301332D01*
Y582506D01*
X1298793Y579120D02*
Y583352D01*
Y581659D01*
X1299639D01*
X1297947D01*
X1298793D01*
Y583352D01*
X1297947Y584198D01*
X1361186Y583098D02*
X1360340Y583944D01*
X1358647D01*
X1357800Y583098D01*
Y579712D01*
X1358647Y578866D01*
X1360340D01*
X1361186Y579712D01*
Y583098D01*
X1356108Y578866D02*
Y579712D01*
X1355261D01*
Y578866D01*
X1356108D01*
X1351876Y583098D02*
X1351029Y583944D01*
X1349337D01*
X1348490Y583098D01*
Y579712D01*
X1349337Y578866D01*
X1351029D01*
X1351876Y579712D01*
Y583098D01*
X1346797Y578866D02*
X1345105D01*
X1345951D01*
Y583944D01*
X1346797Y583098D01*
X1342565Y582252D02*
Y579712D01*
X1341719Y578866D01*
X1339180D01*
Y582252D01*
X1336641Y578866D02*
Y583098D01*
Y581405D01*
X1337487D01*
X1335794D01*
X1336641D01*
Y583098D01*
X1335794Y583944D01*
M02*
