M48
;Layer_Color=9474304
;FILE_FORMAT=4:4
METRIC,LZ
;TYPE=PLATED
T1F00S00C0.2286
T3F00S00C0.6000
T4F00S00C0.7112
T5F00S00C1.0000
T6F00S00C1.1000
;TYPE=NON_PLATED
T7F00S00C3.0000
%
T01
X0097586Y0025781
X0097459Y0025908
X0087503Y0067257
X0077724Y006096
X0070993Y0059944
X0067691Y006223
X0057277Y0064389
X0058928Y005715
X0062103Y0054229
X0061214Y0048641
X00601345Y00487045
X00619125Y00465455
X006604Y0049657
X0065405Y00508
X00551015Y00504356
X0054102Y0061214
X0051816Y0062357
X00506152Y00601706
T03
X0055753Y0008128
Y0010668
X0058293
X0060833
X0063373
Y0008128
X0060833
X0058293
X0099949Y0041021
Y0043561
Y0046101
Y0048641
X0102489
Y0046101
Y0043561
Y0041021
X0090932Y0061214
Y0063754
Y0066294
Y0068834
X0082296Y0067257
Y0062357
X0045593Y00635
Y006604
Y006858
X0011176Y0069342
X0008636
Y0066802
Y0064262
Y0061722
X0011176
Y0064262
Y0066802
Y0039116
X0008636
Y0036576
Y0034036
Y0031496
X0011176
Y0034036
Y0036576
X0049911Y0098679
Y0101219
X0052451
Y0098679
X0054991
Y0101219
X0057531
Y0098679
X0081407Y009779
X0083947
X0086487
X0089027
Y010033
X0086487
X0083947
X0081407
T04
X00254Y0020701
X0025146Y0028448
X0047244Y0021336
X0054737Y0021143
X0062611Y0021463
X0070231Y0021336
X0067056Y0015494
X0094869Y0037211
X0089281Y0040386
Y0033909
X0089408Y0047498
X0089281Y0053721
X0025146Y0052578
Y0044323
Y0036195
Y006096
Y0068961
Y0078105
X0016383Y0073914
X0042799Y0086233
X0051054
X0059563Y0085979
X0064135Y0089535
X0067564Y008636
X0076581Y0085725
X0084582Y0085598
X0092583Y0085298
X0100838Y0085471
X0096393Y0091186
T05
X0110871Y0070612
Y0073152
Y0075692
T06
X00712Y0057365
X00737
X00762
Y0062865
X00737
X00712
T07
X0002794Y0002794
X0112268Y000254
X000254Y0107188
X0112268Y0107442
M30
