G04*
G04 #@! TF.GenerationSoftware,Altium Limited,Altium Designer,19.1.5 (86)*
G04*
G04 Layer_Color=65535*
%FSLAX44Y44*%
%MOMM*%
G71*
G01*
G75*
%ADD10C,0.2000*%
%ADD11C,0.0500*%
%ADD12C,0.2540*%
G36*
X799895Y793945D02*
X799876Y793925D01*
X799836Y793885D01*
X799777Y793806D01*
X799677Y793707D01*
X799578Y793568D01*
X799439Y793409D01*
X799281Y793211D01*
X799122Y793012D01*
X798943Y792774D01*
X798745Y792497D01*
X798527Y792219D01*
X798328Y791901D01*
X798110Y791564D01*
X797872Y791207D01*
X797654Y790810D01*
X797416Y790414D01*
X797396Y790394D01*
X797356Y790314D01*
X797297Y790195D01*
X797217Y790037D01*
X797118Y789838D01*
X796999Y789600D01*
X796860Y789323D01*
X796721Y789025D01*
X796583Y788708D01*
X796424Y788351D01*
X796265Y787974D01*
X796107Y787577D01*
X795809Y786764D01*
X795531Y785891D01*
Y785871D01*
X795511Y785811D01*
X795492Y785732D01*
X795452Y785613D01*
X795412Y785454D01*
X795373Y785276D01*
X795333Y785058D01*
X795273Y784839D01*
X795234Y784582D01*
X795174Y784304D01*
X795075Y783709D01*
X794996Y783034D01*
X794936Y782320D01*
X793290D01*
Y782340D01*
Y782399D01*
Y782479D01*
X793309Y782598D01*
Y782737D01*
X793329Y782915D01*
X793349Y783133D01*
X793369Y783352D01*
X793409Y783609D01*
X793448Y783907D01*
X793488Y784205D01*
X793548Y784522D01*
X793607Y784879D01*
X793686Y785236D01*
X793885Y786030D01*
Y786049D01*
X793905Y786129D01*
X793944Y786248D01*
X793984Y786406D01*
X794044Y786605D01*
X794123Y786823D01*
X794202Y787081D01*
X794301Y787378D01*
X794420Y787676D01*
X794539Y788013D01*
X794817Y788727D01*
X795154Y789481D01*
X795531Y790235D01*
X795551Y790255D01*
X795591Y790334D01*
X795650Y790434D01*
X795730Y790572D01*
X795829Y790751D01*
X795948Y790949D01*
X796087Y791168D01*
X796226Y791425D01*
X796583Y791961D01*
X796979Y792536D01*
X797396Y793111D01*
X797852Y793667D01*
X791465D01*
Y795194D01*
X799895D01*
Y793945D01*
D02*
G37*
G36*
X787279Y782320D02*
X785672D01*
Y792516D01*
X785652Y792497D01*
X785573Y792417D01*
X785434Y792318D01*
X785256Y792179D01*
X785037Y792001D01*
X784779Y791822D01*
X784482Y791604D01*
X784145Y791405D01*
X784125D01*
X784105Y791386D01*
X783986Y791306D01*
X783807Y791207D01*
X783589Y791088D01*
X783331Y790949D01*
X783054Y790830D01*
X782756Y790691D01*
X782478Y790572D01*
Y792140D01*
X782498D01*
X782538Y792159D01*
X782617Y792199D01*
X782697Y792259D01*
X782815Y792318D01*
X782954Y792378D01*
X783272Y792556D01*
X783629Y792774D01*
X784026Y793032D01*
X784422Y793330D01*
X784799Y793647D01*
X784819Y793667D01*
X784839Y793687D01*
X784958Y793806D01*
X785136Y793984D01*
X785355Y794203D01*
X785593Y794480D01*
X785831Y794778D01*
X786049Y795095D01*
X786228Y795413D01*
X787279D01*
Y782320D01*
D02*
G37*
G36*
X787239Y760730D02*
X785632D01*
Y770926D01*
X785613Y770907D01*
X785533Y770827D01*
X785394Y770728D01*
X785216Y770589D01*
X784998Y770411D01*
X784740Y770232D01*
X784442Y770014D01*
X784105Y769816D01*
X784085D01*
X784065Y769796D01*
X783946Y769716D01*
X783768Y769617D01*
X783549Y769498D01*
X783292Y769359D01*
X783014Y769240D01*
X782716Y769101D01*
X782439Y768982D01*
Y770549D01*
X782458D01*
X782498Y770569D01*
X782578Y770609D01*
X782657Y770668D01*
X782776Y770728D01*
X782915Y770788D01*
X783232Y770966D01*
X783589Y771184D01*
X783986Y771442D01*
X784383Y771740D01*
X784760Y772057D01*
X784779Y772077D01*
X784799Y772097D01*
X784918Y772216D01*
X785097Y772394D01*
X785315Y772613D01*
X785553Y772890D01*
X785791Y773188D01*
X786009Y773505D01*
X786188Y773823D01*
X787239D01*
Y760730D01*
D02*
G37*
G36*
X795829Y773803D02*
X795988D01*
X796146Y773763D01*
X796543Y773704D01*
X796979Y773585D01*
X797436Y773406D01*
X797674Y773287D01*
X797892Y773168D01*
X798110Y773009D01*
X798308Y772831D01*
X798328Y772811D01*
X798348Y772791D01*
X798408Y772732D01*
X798467Y772652D01*
X798547Y772553D01*
X798646Y772434D01*
X798844Y772156D01*
X799023Y771799D01*
X799201Y771383D01*
X799320Y770926D01*
X799340Y770668D01*
X799360Y770411D01*
Y770371D01*
Y770252D01*
X799340Y770093D01*
X799300Y769875D01*
X799241Y769617D01*
X799162Y769359D01*
X799043Y769081D01*
X798884Y768824D01*
X798864Y768804D01*
X798804Y768725D01*
X798685Y768605D01*
X798527Y768447D01*
X798328Y768288D01*
X798071Y768129D01*
X797773Y767951D01*
X797436Y767812D01*
X797456D01*
X797495Y767792D01*
X797555Y767772D01*
X797634Y767733D01*
X797852Y767633D01*
X798110Y767514D01*
X798408Y767336D01*
X798705Y767118D01*
X799003Y766840D01*
X799261Y766542D01*
X799281Y766503D01*
X799360Y766384D01*
X799459Y766205D01*
X799578Y765947D01*
X799697Y765650D01*
X799796Y765293D01*
X799876Y764896D01*
X799895Y764459D01*
Y764440D01*
Y764380D01*
Y764301D01*
X799876Y764182D01*
X799856Y764043D01*
X799836Y763864D01*
X799757Y763468D01*
X799598Y763031D01*
X799519Y762793D01*
X799400Y762555D01*
X799261Y762317D01*
X799102Y762079D01*
X798923Y761861D01*
X798705Y761643D01*
X798685Y761623D01*
X798646Y761603D01*
X798586Y761543D01*
X798487Y761464D01*
X798368Y761385D01*
X798229Y761285D01*
X798071Y761186D01*
X797872Y761087D01*
X797654Y760968D01*
X797416Y760869D01*
X797158Y760770D01*
X796880Y760690D01*
X796602Y760611D01*
X796285Y760552D01*
X795948Y760532D01*
X795591Y760512D01*
X795412D01*
X795273Y760532D01*
X795115Y760552D01*
X794916Y760571D01*
X794718Y760611D01*
X794480Y760651D01*
X793984Y760789D01*
X793726Y760889D01*
X793468Y760988D01*
X793210Y761127D01*
X792952Y761266D01*
X792714Y761444D01*
X792476Y761643D01*
X792457Y761662D01*
X792417Y761702D01*
X792377Y761761D01*
X792298Y761841D01*
X792199Y761960D01*
X792099Y762099D01*
X792000Y762258D01*
X791901Y762436D01*
X791782Y762634D01*
X791683Y762853D01*
X791485Y763329D01*
X791405Y763606D01*
X791365Y763884D01*
X791326Y764182D01*
X791306Y764499D01*
Y764519D01*
Y764559D01*
Y764618D01*
X791326Y764717D01*
Y764817D01*
X791346Y764955D01*
X791385Y765233D01*
X791465Y765570D01*
X791584Y765927D01*
X791722Y766284D01*
X791941Y766622D01*
Y766641D01*
X791980Y766661D01*
X792060Y766761D01*
X792218Y766919D01*
X792417Y767098D01*
X792675Y767296D01*
X792992Y767495D01*
X793369Y767673D01*
X793786Y767812D01*
X793766D01*
X793746Y767832D01*
X793627Y767871D01*
X793448Y767971D01*
X793230Y768070D01*
X792972Y768229D01*
X792734Y768407D01*
X792496Y768605D01*
X792298Y768844D01*
X792278Y768883D01*
X792218Y768962D01*
X792139Y769101D01*
X792060Y769300D01*
X791980Y769538D01*
X791901Y769816D01*
X791842Y770113D01*
X791822Y770450D01*
Y770470D01*
Y770510D01*
Y770589D01*
X791842Y770688D01*
X791861Y770807D01*
X791881Y770946D01*
X791941Y771283D01*
X792060Y771660D01*
X792258Y772057D01*
X792357Y772275D01*
X792496Y772474D01*
X792655Y772672D01*
X792833Y772851D01*
X792853Y772870D01*
X792873Y772890D01*
X792933Y772950D01*
X793012Y773009D01*
X793131Y773069D01*
X793250Y773168D01*
X793389Y773247D01*
X793567Y773347D01*
X793944Y773525D01*
X794420Y773664D01*
X794956Y773783D01*
X795234Y773803D01*
X795551Y773823D01*
X795710D01*
X795829Y773803D01*
D02*
G37*
G36*
X795630Y747133D02*
X795730D01*
X795869Y747113D01*
X796186Y747073D01*
X796543Y746974D01*
X796920Y746855D01*
X797337Y746696D01*
X797733Y746458D01*
X797753D01*
X797773Y746419D01*
X797832Y746379D01*
X797912Y746339D01*
X798090Y746181D01*
X798328Y745962D01*
X798586Y745665D01*
X798864Y745348D01*
X799122Y744951D01*
X799340Y744494D01*
Y744475D01*
X799360Y744435D01*
X799400Y744356D01*
X799419Y744256D01*
X799479Y744137D01*
X799519Y743979D01*
X799558Y743780D01*
X799618Y743562D01*
X799677Y743324D01*
X799717Y743046D01*
X799777Y742749D01*
X799816Y742431D01*
X799836Y742074D01*
X799876Y741697D01*
X799895Y741281D01*
Y740844D01*
Y740825D01*
Y740725D01*
Y740606D01*
Y740428D01*
X799876Y740229D01*
Y739971D01*
X799856Y739714D01*
X799836Y739416D01*
X799757Y738781D01*
X799658Y738107D01*
X799519Y737452D01*
X799439Y737155D01*
X799340Y736857D01*
Y736837D01*
X799320Y736798D01*
X799281Y736718D01*
X799241Y736619D01*
X799181Y736480D01*
X799122Y736341D01*
X798943Y736024D01*
X798705Y735647D01*
X798428Y735270D01*
X798110Y734913D01*
X797733Y734596D01*
X797713D01*
X797694Y734556D01*
X797634Y734536D01*
X797535Y734477D01*
X797436Y734417D01*
X797317Y734358D01*
X797019Y734219D01*
X796642Y734080D01*
X796226Y733961D01*
X795730Y733882D01*
X795214Y733842D01*
X795075D01*
X794956Y733862D01*
X794837D01*
X794678Y733882D01*
X794321Y733941D01*
X793924Y734040D01*
X793508Y734199D01*
X793111Y734397D01*
X792714Y734675D01*
X792695Y734695D01*
X792675Y734715D01*
X792556Y734834D01*
X792397Y735032D01*
X792199Y735290D01*
X792000Y735627D01*
X791822Y736044D01*
X791663Y736520D01*
X791564Y737075D01*
X793091Y737194D01*
Y737175D01*
Y737155D01*
X793111Y737095D01*
X793131Y737016D01*
X793171Y736817D01*
X793250Y736599D01*
X793349Y736341D01*
X793468Y736083D01*
X793627Y735826D01*
X793825Y735627D01*
X793845Y735607D01*
X793924Y735548D01*
X794044Y735469D01*
X794222Y735389D01*
X794420Y735310D01*
X794659Y735230D01*
X794936Y735171D01*
X795254Y735151D01*
X795373D01*
X795511Y735171D01*
X795690Y735191D01*
X795888Y735230D01*
X796107Y735290D01*
X796325Y735369D01*
X796543Y735488D01*
X796563Y735508D01*
X796642Y735548D01*
X796741Y735627D01*
X796860Y735726D01*
X797019Y735845D01*
X797158Y736004D01*
X797317Y736183D01*
X797456Y736381D01*
X797475Y736401D01*
X797515Y736480D01*
X797575Y736619D01*
X797674Y736798D01*
X797753Y737016D01*
X797852Y737274D01*
X797952Y737571D01*
X798051Y737908D01*
Y737928D01*
X798071Y737948D01*
Y738008D01*
X798090Y738067D01*
X798130Y738266D01*
X798170Y738523D01*
X798209Y738821D01*
X798249Y739138D01*
X798289Y739495D01*
Y739872D01*
Y739892D01*
Y739952D01*
Y740051D01*
Y740190D01*
X798269Y740150D01*
X798189Y740071D01*
X798090Y739912D01*
X797932Y739753D01*
X797753Y739555D01*
X797515Y739337D01*
X797257Y739138D01*
X796960Y738940D01*
X796920Y738920D01*
X796821Y738861D01*
X796642Y738801D01*
X796424Y738722D01*
X796166Y738623D01*
X795869Y738563D01*
X795531Y738504D01*
X795174Y738484D01*
X795015D01*
X794896Y738504D01*
X794758Y738523D01*
X794599Y738543D01*
X794222Y738623D01*
X793786Y738762D01*
X793567Y738861D01*
X793329Y738980D01*
X793111Y739118D01*
X792873Y739277D01*
X792655Y739456D01*
X792437Y739654D01*
X792417Y739674D01*
X792397Y739714D01*
X792337Y739773D01*
X792258Y739872D01*
X792179Y739991D01*
X792080Y740130D01*
X791980Y740289D01*
X791881Y740487D01*
X791782Y740686D01*
X791683Y740924D01*
X791584Y741182D01*
X791504Y741459D01*
X791425Y741757D01*
X791365Y742055D01*
X791346Y742392D01*
X791326Y742749D01*
Y742769D01*
Y742828D01*
Y742947D01*
X791346Y743086D01*
X791365Y743245D01*
X791385Y743443D01*
X791425Y743661D01*
X791465Y743899D01*
X791603Y744395D01*
X791703Y744673D01*
X791822Y744931D01*
X791941Y745209D01*
X792099Y745467D01*
X792278Y745705D01*
X792476Y745943D01*
X792496Y745962D01*
X792536Y746002D01*
X792595Y746062D01*
X792695Y746141D01*
X792794Y746220D01*
X792933Y746320D01*
X793091Y746439D01*
X793290Y746558D01*
X793488Y746657D01*
X793706Y746776D01*
X794202Y746974D01*
X794480Y747034D01*
X794778Y747093D01*
X795095Y747133D01*
X795412Y747153D01*
X795531D01*
X795630Y747133D01*
D02*
G37*
G36*
X787239Y734060D02*
X785632D01*
Y744256D01*
X785613Y744237D01*
X785533Y744157D01*
X785394Y744058D01*
X785216Y743919D01*
X784998Y743741D01*
X784740Y743562D01*
X784442Y743344D01*
X784105Y743146D01*
X784085D01*
X784065Y743126D01*
X783946Y743046D01*
X783768Y742947D01*
X783549Y742828D01*
X783292Y742689D01*
X783014Y742570D01*
X782716Y742431D01*
X782439Y742312D01*
Y743879D01*
X782458D01*
X782498Y743899D01*
X782578Y743939D01*
X782657Y743998D01*
X782776Y744058D01*
X782915Y744118D01*
X783232Y744296D01*
X783589Y744514D01*
X783986Y744772D01*
X784383Y745070D01*
X784760Y745387D01*
X784779Y745407D01*
X784799Y745427D01*
X784918Y745546D01*
X785097Y745724D01*
X785315Y745943D01*
X785553Y746220D01*
X785791Y746518D01*
X786009Y746835D01*
X786188Y747153D01*
X787239D01*
Y734060D01*
D02*
G37*
G36*
X1456411Y1036320D02*
X1454804D01*
Y1046516D01*
X1454784Y1046497D01*
X1454705Y1046417D01*
X1454566Y1046318D01*
X1454387Y1046179D01*
X1454169Y1046001D01*
X1453911Y1045822D01*
X1453614Y1045604D01*
X1453276Y1045406D01*
X1453257D01*
X1453237Y1045386D01*
X1453118Y1045306D01*
X1452939Y1045207D01*
X1452721Y1045088D01*
X1452463Y1044949D01*
X1452185Y1044830D01*
X1451888Y1044691D01*
X1451610Y1044572D01*
Y1046140D01*
X1451630D01*
X1451669Y1046159D01*
X1451749Y1046199D01*
X1451828Y1046258D01*
X1451947Y1046318D01*
X1452086Y1046378D01*
X1452404Y1046556D01*
X1452761Y1046774D01*
X1453157Y1047032D01*
X1453554Y1047330D01*
X1453931Y1047647D01*
X1453951Y1047667D01*
X1453971Y1047687D01*
X1454090Y1047806D01*
X1454268Y1047984D01*
X1454486Y1048203D01*
X1454724Y1048480D01*
X1454962Y1048778D01*
X1455181Y1049095D01*
X1455359Y1049413D01*
X1456411D01*
Y1036320D01*
D02*
G37*
G36*
X1465119Y1049393D02*
X1465357Y1049353D01*
X1465635Y1049314D01*
X1465952Y1049234D01*
X1466270Y1049115D01*
X1466567Y1048976D01*
X1466607Y1048956D01*
X1466706Y1048897D01*
X1466845Y1048798D01*
X1467043Y1048679D01*
X1467242Y1048500D01*
X1467460Y1048282D01*
X1467678Y1048044D01*
X1467877Y1047766D01*
X1467897Y1047727D01*
X1467956Y1047627D01*
X1468055Y1047449D01*
X1468174Y1047231D01*
X1468293Y1046953D01*
X1468432Y1046616D01*
X1468571Y1046239D01*
X1468690Y1045822D01*
Y1045802D01*
X1468710Y1045763D01*
Y1045703D01*
X1468730Y1045604D01*
X1468769Y1045505D01*
X1468789Y1045366D01*
X1468809Y1045187D01*
X1468849Y1045009D01*
X1468869Y1044791D01*
X1468888Y1044572D01*
X1468928Y1044314D01*
X1468948Y1044037D01*
X1468968Y1043739D01*
Y1043442D01*
X1468988Y1042747D01*
Y1042728D01*
Y1042648D01*
Y1042529D01*
Y1042370D01*
X1468968Y1042172D01*
Y1041954D01*
X1468948Y1041696D01*
X1468928Y1041418D01*
X1468869Y1040823D01*
X1468789Y1040208D01*
X1468670Y1039593D01*
X1468591Y1039315D01*
X1468512Y1039038D01*
Y1039018D01*
X1468492Y1038978D01*
X1468472Y1038899D01*
X1468432Y1038800D01*
X1468373Y1038681D01*
X1468313Y1038562D01*
X1468154Y1038244D01*
X1467956Y1037887D01*
X1467718Y1037530D01*
X1467440Y1037173D01*
X1467103Y1036856D01*
X1467083D01*
X1467063Y1036816D01*
X1467004Y1036796D01*
X1466944Y1036737D01*
X1466726Y1036618D01*
X1466468Y1036479D01*
X1466111Y1036340D01*
X1465714Y1036221D01*
X1465258Y1036142D01*
X1464742Y1036102D01*
X1464564D01*
X1464425Y1036122D01*
X1464266Y1036142D01*
X1464088Y1036181D01*
X1463889Y1036221D01*
X1463671Y1036261D01*
X1463195Y1036419D01*
X1462937Y1036538D01*
X1462699Y1036657D01*
X1462441Y1036816D01*
X1462203Y1036994D01*
X1461985Y1037193D01*
X1461767Y1037431D01*
X1461747Y1037451D01*
X1461707Y1037510D01*
X1461648Y1037609D01*
X1461568Y1037748D01*
X1461469Y1037927D01*
X1461370Y1038145D01*
X1461251Y1038403D01*
X1461132Y1038720D01*
X1461013Y1039058D01*
X1460894Y1039454D01*
X1460795Y1039891D01*
X1460695Y1040367D01*
X1460616Y1040902D01*
X1460557Y1041458D01*
X1460517Y1042093D01*
X1460497Y1042747D01*
Y1042767D01*
Y1042847D01*
Y1042965D01*
Y1043124D01*
X1460517Y1043323D01*
Y1043541D01*
X1460537Y1043799D01*
X1460557Y1044076D01*
X1460616Y1044671D01*
X1460695Y1045286D01*
X1460795Y1045901D01*
X1460874Y1046179D01*
X1460953Y1046457D01*
Y1046477D01*
X1460973Y1046516D01*
X1461013Y1046596D01*
X1461053Y1046695D01*
X1461092Y1046814D01*
X1461152Y1046953D01*
X1461310Y1047270D01*
X1461509Y1047627D01*
X1461747Y1047984D01*
X1462025Y1048322D01*
X1462362Y1048639D01*
X1462382D01*
X1462401Y1048679D01*
X1462461Y1048718D01*
X1462540Y1048758D01*
X1462739Y1048877D01*
X1463017Y1049036D01*
X1463354Y1049175D01*
X1463770Y1049294D01*
X1464227Y1049373D01*
X1464742Y1049413D01*
X1464921D01*
X1465119Y1049393D01*
D02*
G37*
G36*
X1487665D02*
X1487764D01*
X1487903Y1049373D01*
X1488220Y1049333D01*
X1488577Y1049234D01*
X1488954Y1049115D01*
X1489371Y1048956D01*
X1489767Y1048718D01*
X1489787D01*
X1489807Y1048679D01*
X1489867Y1048639D01*
X1489946Y1048599D01*
X1490125Y1048441D01*
X1490363Y1048222D01*
X1490621Y1047925D01*
X1490898Y1047607D01*
X1491156Y1047211D01*
X1491374Y1046755D01*
Y1046735D01*
X1491394Y1046695D01*
X1491434Y1046616D01*
X1491454Y1046516D01*
X1491513Y1046397D01*
X1491553Y1046239D01*
X1491593Y1046040D01*
X1491652Y1045822D01*
X1491711Y1045584D01*
X1491751Y1045306D01*
X1491811Y1045009D01*
X1491850Y1044691D01*
X1491870Y1044334D01*
X1491910Y1043957D01*
X1491930Y1043541D01*
Y1043104D01*
Y1043085D01*
Y1042985D01*
Y1042866D01*
Y1042688D01*
X1491910Y1042489D01*
Y1042232D01*
X1491890Y1041974D01*
X1491870Y1041676D01*
X1491791Y1041041D01*
X1491692Y1040367D01*
X1491553Y1039712D01*
X1491474Y1039415D01*
X1491374Y1039117D01*
Y1039097D01*
X1491355Y1039058D01*
X1491315Y1038978D01*
X1491275Y1038879D01*
X1491216Y1038740D01*
X1491156Y1038601D01*
X1490978Y1038284D01*
X1490739Y1037907D01*
X1490462Y1037530D01*
X1490144Y1037173D01*
X1489767Y1036856D01*
X1489748D01*
X1489728Y1036816D01*
X1489668Y1036796D01*
X1489569Y1036737D01*
X1489470Y1036677D01*
X1489351Y1036618D01*
X1489053Y1036479D01*
X1488676Y1036340D01*
X1488260Y1036221D01*
X1487764Y1036142D01*
X1487248Y1036102D01*
X1487109D01*
X1486990Y1036122D01*
X1486871D01*
X1486712Y1036142D01*
X1486355Y1036201D01*
X1485959Y1036300D01*
X1485542Y1036459D01*
X1485145Y1036657D01*
X1484749Y1036935D01*
X1484729Y1036955D01*
X1484709Y1036975D01*
X1484590Y1037094D01*
X1484431Y1037292D01*
X1484233Y1037550D01*
X1484034Y1037887D01*
X1483856Y1038304D01*
X1483697Y1038780D01*
X1483598Y1039335D01*
X1485125Y1039454D01*
Y1039435D01*
Y1039415D01*
X1485145Y1039355D01*
X1485165Y1039276D01*
X1485205Y1039077D01*
X1485284Y1038859D01*
X1485383Y1038601D01*
X1485502Y1038343D01*
X1485661Y1038085D01*
X1485860Y1037887D01*
X1485879Y1037867D01*
X1485959Y1037808D01*
X1486078Y1037729D01*
X1486256Y1037649D01*
X1486455Y1037570D01*
X1486693Y1037490D01*
X1486970Y1037431D01*
X1487288Y1037411D01*
X1487407D01*
X1487546Y1037431D01*
X1487724Y1037451D01*
X1487923Y1037490D01*
X1488141Y1037550D01*
X1488359Y1037629D01*
X1488577Y1037748D01*
X1488597Y1037768D01*
X1488676Y1037808D01*
X1488776Y1037887D01*
X1488895Y1037986D01*
X1489053Y1038105D01*
X1489192Y1038264D01*
X1489351Y1038443D01*
X1489490Y1038641D01*
X1489510Y1038661D01*
X1489549Y1038740D01*
X1489609Y1038879D01*
X1489708Y1039058D01*
X1489787Y1039276D01*
X1489886Y1039534D01*
X1489986Y1039831D01*
X1490085Y1040169D01*
Y1040188D01*
X1490105Y1040208D01*
Y1040268D01*
X1490125Y1040327D01*
X1490164Y1040526D01*
X1490204Y1040783D01*
X1490244Y1041081D01*
X1490283Y1041398D01*
X1490323Y1041755D01*
Y1042132D01*
Y1042152D01*
Y1042212D01*
Y1042311D01*
Y1042450D01*
X1490303Y1042410D01*
X1490224Y1042331D01*
X1490125Y1042172D01*
X1489966Y1042013D01*
X1489787Y1041815D01*
X1489549Y1041597D01*
X1489291Y1041398D01*
X1488994Y1041200D01*
X1488954Y1041180D01*
X1488855Y1041121D01*
X1488676Y1041061D01*
X1488458Y1040982D01*
X1488200Y1040883D01*
X1487903Y1040823D01*
X1487565Y1040764D01*
X1487209Y1040744D01*
X1487050D01*
X1486931Y1040764D01*
X1486792Y1040783D01*
X1486633Y1040803D01*
X1486256Y1040883D01*
X1485820Y1041021D01*
X1485602Y1041121D01*
X1485364Y1041240D01*
X1485145Y1041378D01*
X1484907Y1041537D01*
X1484689Y1041716D01*
X1484471Y1041914D01*
X1484451Y1041934D01*
X1484431Y1041974D01*
X1484372Y1042033D01*
X1484292Y1042132D01*
X1484213Y1042251D01*
X1484114Y1042390D01*
X1484015Y1042549D01*
X1483915Y1042747D01*
X1483816Y1042946D01*
X1483717Y1043184D01*
X1483618Y1043442D01*
X1483539Y1043719D01*
X1483459Y1044017D01*
X1483400Y1044314D01*
X1483380Y1044652D01*
X1483360Y1045009D01*
Y1045029D01*
Y1045088D01*
Y1045207D01*
X1483380Y1045346D01*
X1483400Y1045505D01*
X1483419Y1045703D01*
X1483459Y1045921D01*
X1483499Y1046159D01*
X1483638Y1046655D01*
X1483737Y1046933D01*
X1483856Y1047191D01*
X1483975Y1047469D01*
X1484134Y1047727D01*
X1484312Y1047965D01*
X1484511Y1048203D01*
X1484530Y1048222D01*
X1484570Y1048262D01*
X1484630Y1048322D01*
X1484729Y1048401D01*
X1484828Y1048480D01*
X1484967Y1048579D01*
X1485125Y1048699D01*
X1485324Y1048818D01*
X1485522Y1048917D01*
X1485741Y1049036D01*
X1486236Y1049234D01*
X1486514Y1049294D01*
X1486812Y1049353D01*
X1487129Y1049393D01*
X1487446Y1049413D01*
X1487565D01*
X1487665Y1049393D01*
D02*
G37*
G36*
X1544180D02*
X1544299D01*
X1544457Y1049373D01*
X1544814Y1049314D01*
X1545211Y1049194D01*
X1545628Y1049036D01*
X1546044Y1048837D01*
X1546243Y1048699D01*
X1546441Y1048540D01*
X1546461D01*
X1546481Y1048500D01*
X1546600Y1048381D01*
X1546758Y1048183D01*
X1546957Y1047925D01*
X1547175Y1047588D01*
X1547354Y1047191D01*
X1547532Y1046715D01*
X1547631Y1046179D01*
X1546044Y1046060D01*
Y1046080D01*
Y1046100D01*
X1546005Y1046219D01*
X1545945Y1046378D01*
X1545885Y1046576D01*
X1545687Y1047032D01*
X1545568Y1047231D01*
X1545429Y1047409D01*
X1545409Y1047449D01*
X1545310Y1047528D01*
X1545171Y1047627D01*
X1544993Y1047766D01*
X1544755Y1047885D01*
X1544477Y1048004D01*
X1544160Y1048084D01*
X1543822Y1048103D01*
X1543684D01*
X1543545Y1048084D01*
X1543366Y1048044D01*
X1543148Y1048004D01*
X1542910Y1047925D01*
X1542692Y1047806D01*
X1542454Y1047667D01*
X1542414Y1047647D01*
X1542335Y1047568D01*
X1542196Y1047429D01*
X1542037Y1047250D01*
X1541839Y1047032D01*
X1541640Y1046755D01*
X1541442Y1046417D01*
X1541263Y1046040D01*
Y1046021D01*
X1541244Y1046001D01*
X1541224Y1045921D01*
X1541204Y1045842D01*
X1541164Y1045743D01*
X1541125Y1045604D01*
X1541085Y1045445D01*
X1541045Y1045267D01*
X1541006Y1045068D01*
X1540966Y1044850D01*
X1540926Y1044592D01*
X1540887Y1044334D01*
X1540867Y1044037D01*
X1540847Y1043719D01*
X1540827Y1043382D01*
Y1043045D01*
X1540847Y1043065D01*
X1540926Y1043164D01*
X1541045Y1043323D01*
X1541224Y1043521D01*
X1541422Y1043739D01*
X1541660Y1043957D01*
X1541938Y1044156D01*
X1542235Y1044334D01*
X1542275Y1044354D01*
X1542374Y1044394D01*
X1542553Y1044473D01*
X1542771Y1044553D01*
X1543029Y1044632D01*
X1543327Y1044711D01*
X1543644Y1044751D01*
X1543981Y1044771D01*
X1544140D01*
X1544259Y1044751D01*
X1544398Y1044731D01*
X1544556Y1044711D01*
X1544933Y1044632D01*
X1545350Y1044473D01*
X1545588Y1044394D01*
X1545806Y1044275D01*
X1546044Y1044136D01*
X1546282Y1043977D01*
X1546501Y1043799D01*
X1546719Y1043580D01*
X1546738Y1043561D01*
X1546758Y1043521D01*
X1546818Y1043462D01*
X1546897Y1043362D01*
X1546977Y1043243D01*
X1547076Y1043104D01*
X1547175Y1042946D01*
X1547294Y1042767D01*
X1547393Y1042549D01*
X1547492Y1042331D01*
X1547592Y1042073D01*
X1547671Y1041815D01*
X1547750Y1041517D01*
X1547810Y1041220D01*
X1547830Y1040883D01*
X1547849Y1040545D01*
Y1040526D01*
Y1040486D01*
Y1040426D01*
Y1040347D01*
X1547830Y1040228D01*
Y1040109D01*
X1547790Y1039791D01*
X1547711Y1039454D01*
X1547631Y1039058D01*
X1547492Y1038661D01*
X1547314Y1038264D01*
Y1038244D01*
X1547294Y1038224D01*
X1547254Y1038165D01*
X1547215Y1038085D01*
X1547096Y1037907D01*
X1546937Y1037669D01*
X1546719Y1037411D01*
X1546461Y1037153D01*
X1546183Y1036895D01*
X1545846Y1036657D01*
X1545806Y1036637D01*
X1545687Y1036578D01*
X1545489Y1036479D01*
X1545251Y1036379D01*
X1544933Y1036280D01*
X1544576Y1036181D01*
X1544180Y1036122D01*
X1543763Y1036102D01*
X1543684D01*
X1543565Y1036122D01*
X1543426D01*
X1543267Y1036142D01*
X1543069Y1036181D01*
X1542850Y1036221D01*
X1542612Y1036280D01*
X1542354Y1036360D01*
X1542077Y1036459D01*
X1541819Y1036578D01*
X1541541Y1036717D01*
X1541263Y1036895D01*
X1540986Y1037094D01*
X1540728Y1037312D01*
X1540490Y1037570D01*
X1540470Y1037590D01*
X1540430Y1037649D01*
X1540371Y1037729D01*
X1540291Y1037848D01*
X1540192Y1038006D01*
X1540093Y1038205D01*
X1539974Y1038443D01*
X1539875Y1038720D01*
X1539756Y1039038D01*
X1539637Y1039395D01*
X1539538Y1039791D01*
X1539438Y1040228D01*
X1539359Y1040704D01*
X1539299Y1041240D01*
X1539260Y1041795D01*
X1539240Y1042410D01*
Y1042430D01*
Y1042450D01*
Y1042509D01*
Y1042569D01*
Y1042767D01*
X1539260Y1043025D01*
X1539280Y1043342D01*
X1539319Y1043699D01*
X1539359Y1044096D01*
X1539418Y1044513D01*
X1539478Y1044969D01*
X1539577Y1045425D01*
X1539696Y1045882D01*
X1539835Y1046318D01*
X1539994Y1046774D01*
X1540172Y1047171D01*
X1540391Y1047568D01*
X1540629Y1047905D01*
X1540648Y1047925D01*
X1540688Y1047965D01*
X1540748Y1048044D01*
X1540847Y1048143D01*
X1540986Y1048262D01*
X1541125Y1048381D01*
X1541303Y1048520D01*
X1541501Y1048659D01*
X1541720Y1048798D01*
X1541978Y1048937D01*
X1542235Y1049056D01*
X1542533Y1049175D01*
X1542850Y1049274D01*
X1543188Y1049353D01*
X1543545Y1049393D01*
X1543922Y1049413D01*
X1544061D01*
X1544180Y1049393D01*
D02*
G37*
G36*
X1519314Y1047627D02*
X1514117D01*
X1513403Y1044116D01*
X1513423Y1044136D01*
X1513462Y1044156D01*
X1513522Y1044195D01*
X1513601Y1044255D01*
X1513720Y1044314D01*
X1513839Y1044374D01*
X1514157Y1044533D01*
X1514514Y1044691D01*
X1514930Y1044810D01*
X1515387Y1044910D01*
X1515863Y1044949D01*
X1516021D01*
X1516140Y1044929D01*
X1516299Y1044910D01*
X1516458Y1044890D01*
X1516656Y1044850D01*
X1516855Y1044810D01*
X1517311Y1044652D01*
X1517549Y1044572D01*
X1517787Y1044453D01*
X1518045Y1044314D01*
X1518283Y1044156D01*
X1518521Y1043977D01*
X1518739Y1043759D01*
X1518759Y1043739D01*
X1518799Y1043699D01*
X1518858Y1043640D01*
X1518918Y1043541D01*
X1519017Y1043422D01*
X1519116Y1043283D01*
X1519215Y1043124D01*
X1519334Y1042946D01*
X1519453Y1042728D01*
X1519552Y1042509D01*
X1519651Y1042251D01*
X1519751Y1041993D01*
X1519810Y1041696D01*
X1519870Y1041398D01*
X1519909Y1041061D01*
X1519929Y1040724D01*
Y1040704D01*
Y1040645D01*
Y1040545D01*
X1519909Y1040426D01*
X1519890Y1040268D01*
X1519870Y1040089D01*
X1519850Y1039891D01*
X1519810Y1039672D01*
X1519671Y1039196D01*
X1519493Y1038700D01*
X1519374Y1038423D01*
X1519235Y1038165D01*
X1519076Y1037907D01*
X1518898Y1037669D01*
X1518878Y1037649D01*
X1518838Y1037609D01*
X1518759Y1037530D01*
X1518660Y1037431D01*
X1518541Y1037312D01*
X1518382Y1037173D01*
X1518203Y1037034D01*
X1517985Y1036895D01*
X1517767Y1036737D01*
X1517509Y1036598D01*
X1517211Y1036459D01*
X1516914Y1036340D01*
X1516577Y1036241D01*
X1516239Y1036161D01*
X1515863Y1036122D01*
X1515466Y1036102D01*
X1515287D01*
X1515168Y1036122D01*
X1515029Y1036142D01*
X1514851Y1036161D01*
X1514653Y1036181D01*
X1514434Y1036221D01*
X1513978Y1036340D01*
X1513502Y1036518D01*
X1513264Y1036637D01*
X1513026Y1036776D01*
X1512788Y1036915D01*
X1512570Y1037094D01*
X1512550Y1037113D01*
X1512530Y1037133D01*
X1512470Y1037193D01*
X1512391Y1037272D01*
X1512312Y1037371D01*
X1512213Y1037490D01*
X1512113Y1037629D01*
X1511994Y1037788D01*
X1511776Y1038165D01*
X1511558Y1038621D01*
X1511399Y1039137D01*
X1511340Y1039435D01*
X1511300Y1039732D01*
X1512986Y1039851D01*
Y1039831D01*
Y1039791D01*
X1513006Y1039732D01*
X1513026Y1039653D01*
X1513085Y1039435D01*
X1513165Y1039157D01*
X1513264Y1038859D01*
X1513423Y1038562D01*
X1513601Y1038264D01*
X1513839Y1038006D01*
X1513879Y1037986D01*
X1513958Y1037907D01*
X1514097Y1037828D01*
X1514295Y1037709D01*
X1514534Y1037609D01*
X1514811Y1037510D01*
X1515129Y1037431D01*
X1515466Y1037411D01*
X1515585D01*
X1515664Y1037431D01*
X1515882Y1037451D01*
X1516160Y1037510D01*
X1516458Y1037629D01*
X1516795Y1037768D01*
X1517112Y1037986D01*
X1517271Y1038105D01*
X1517430Y1038264D01*
Y1038284D01*
X1517469Y1038304D01*
X1517549Y1038423D01*
X1517688Y1038621D01*
X1517827Y1038879D01*
X1517965Y1039216D01*
X1518104Y1039613D01*
X1518184Y1040069D01*
X1518223Y1040585D01*
Y1040605D01*
Y1040645D01*
Y1040724D01*
X1518203Y1040803D01*
Y1040922D01*
X1518184Y1041061D01*
X1518124Y1041378D01*
X1518045Y1041716D01*
X1517906Y1042073D01*
X1517708Y1042430D01*
X1517450Y1042747D01*
X1517410Y1042787D01*
X1517311Y1042866D01*
X1517152Y1043005D01*
X1516914Y1043144D01*
X1516636Y1043283D01*
X1516279Y1043422D01*
X1515882Y1043501D01*
X1515446Y1043541D01*
X1515307D01*
X1515168Y1043521D01*
X1514970Y1043501D01*
X1514752Y1043442D01*
X1514514Y1043382D01*
X1514276Y1043283D01*
X1514038Y1043164D01*
X1514018Y1043144D01*
X1513938Y1043104D01*
X1513819Y1043025D01*
X1513681Y1042926D01*
X1513542Y1042787D01*
X1513383Y1042628D01*
X1513224Y1042450D01*
X1513085Y1042251D01*
X1511578Y1042470D01*
X1512847Y1049155D01*
X1519314D01*
Y1047627D01*
D02*
G37*
G36*
X1208817Y239133D02*
X1208936D01*
X1209095Y239113D01*
X1209452Y239053D01*
X1209849Y238934D01*
X1210265Y238776D01*
X1210682Y238577D01*
X1210880Y238438D01*
X1211079Y238280D01*
X1211099D01*
X1211118Y238240D01*
X1211237Y238121D01*
X1211396Y237923D01*
X1211595Y237665D01*
X1211813Y237328D01*
X1211991Y236931D01*
X1212170Y236455D01*
X1212269Y235919D01*
X1210682Y235800D01*
Y235820D01*
Y235840D01*
X1210642Y235959D01*
X1210583Y236118D01*
X1210523Y236316D01*
X1210325Y236772D01*
X1210206Y236971D01*
X1210067Y237149D01*
X1210047Y237189D01*
X1209948Y237268D01*
X1209809Y237367D01*
X1209631Y237506D01*
X1209393Y237625D01*
X1209115Y237744D01*
X1208798Y237824D01*
X1208460Y237843D01*
X1208321D01*
X1208183Y237824D01*
X1208004Y237784D01*
X1207786Y237744D01*
X1207548Y237665D01*
X1207329Y237546D01*
X1207092Y237407D01*
X1207052Y237387D01*
X1206972Y237308D01*
X1206834Y237169D01*
X1206675Y236990D01*
X1206477Y236772D01*
X1206278Y236495D01*
X1206080Y236157D01*
X1205901Y235780D01*
Y235760D01*
X1205881Y235741D01*
X1205862Y235661D01*
X1205842Y235582D01*
X1205802Y235483D01*
X1205762Y235344D01*
X1205723Y235185D01*
X1205683Y235007D01*
X1205643Y234808D01*
X1205604Y234590D01*
X1205564Y234332D01*
X1205524Y234074D01*
X1205505Y233777D01*
X1205485Y233459D01*
X1205465Y233122D01*
Y232785D01*
X1205485Y232805D01*
X1205564Y232904D01*
X1205683Y233063D01*
X1205862Y233261D01*
X1206060Y233479D01*
X1206298Y233697D01*
X1206576Y233896D01*
X1206873Y234074D01*
X1206913Y234094D01*
X1207012Y234134D01*
X1207191Y234213D01*
X1207409Y234293D01*
X1207667Y234372D01*
X1207964Y234451D01*
X1208282Y234491D01*
X1208619Y234511D01*
X1208778D01*
X1208897Y234491D01*
X1209035Y234471D01*
X1209194Y234451D01*
X1209571Y234372D01*
X1209988Y234213D01*
X1210226Y234134D01*
X1210444Y234015D01*
X1210682Y233876D01*
X1210920Y233717D01*
X1211138Y233539D01*
X1211357Y233321D01*
X1211376Y233301D01*
X1211396Y233261D01*
X1211456Y233202D01*
X1211535Y233102D01*
X1211614Y232983D01*
X1211714Y232844D01*
X1211813Y232686D01*
X1211932Y232507D01*
X1212031Y232289D01*
X1212130Y232071D01*
X1212229Y231813D01*
X1212309Y231555D01*
X1212388Y231257D01*
X1212448Y230960D01*
X1212467Y230623D01*
X1212487Y230285D01*
Y230266D01*
Y230226D01*
Y230166D01*
Y230087D01*
X1212467Y229968D01*
Y229849D01*
X1212428Y229531D01*
X1212348Y229194D01*
X1212269Y228798D01*
X1212130Y228401D01*
X1211952Y228004D01*
Y227984D01*
X1211932Y227964D01*
X1211892Y227905D01*
X1211852Y227826D01*
X1211733Y227647D01*
X1211575Y227409D01*
X1211357Y227151D01*
X1211099Y226893D01*
X1210821Y226635D01*
X1210484Y226397D01*
X1210444Y226377D01*
X1210325Y226318D01*
X1210127Y226219D01*
X1209889Y226119D01*
X1209571Y226020D01*
X1209214Y225921D01*
X1208817Y225862D01*
X1208401Y225842D01*
X1208321D01*
X1208202Y225862D01*
X1208064D01*
X1207905Y225882D01*
X1207706Y225921D01*
X1207488Y225961D01*
X1207250Y226020D01*
X1206992Y226100D01*
X1206715Y226199D01*
X1206457Y226318D01*
X1206179Y226457D01*
X1205901Y226635D01*
X1205623Y226834D01*
X1205366Y227052D01*
X1205128Y227310D01*
X1205108Y227330D01*
X1205068Y227389D01*
X1205008Y227468D01*
X1204929Y227588D01*
X1204830Y227746D01*
X1204731Y227945D01*
X1204612Y228183D01*
X1204513Y228460D01*
X1204394Y228778D01*
X1204275Y229135D01*
X1204175Y229531D01*
X1204076Y229968D01*
X1203997Y230444D01*
X1203937Y230980D01*
X1203898Y231535D01*
X1203878Y232150D01*
Y232170D01*
Y232190D01*
Y232249D01*
Y232309D01*
Y232507D01*
X1203898Y232765D01*
X1203917Y233082D01*
X1203957Y233440D01*
X1203997Y233836D01*
X1204056Y234253D01*
X1204116Y234709D01*
X1204215Y235165D01*
X1204334Y235622D01*
X1204473Y236058D01*
X1204632Y236514D01*
X1204810Y236911D01*
X1205028Y237308D01*
X1205266Y237645D01*
X1205286Y237665D01*
X1205326Y237705D01*
X1205385Y237784D01*
X1205485Y237883D01*
X1205623Y238002D01*
X1205762Y238121D01*
X1205941Y238260D01*
X1206139Y238399D01*
X1206357Y238538D01*
X1206615Y238677D01*
X1206873Y238796D01*
X1207171Y238915D01*
X1207488Y239014D01*
X1207825Y239093D01*
X1208183Y239133D01*
X1208559Y239153D01*
X1208698D01*
X1208817Y239133D01*
D02*
G37*
G36*
X1199871Y226060D02*
X1198264D01*
Y236256D01*
X1198244Y236237D01*
X1198165Y236157D01*
X1198026Y236058D01*
X1197847Y235919D01*
X1197629Y235741D01*
X1197371Y235562D01*
X1197074Y235344D01*
X1196736Y235145D01*
X1196717D01*
X1196697Y235126D01*
X1196578Y235046D01*
X1196399Y234947D01*
X1196181Y234828D01*
X1195923Y234689D01*
X1195645Y234570D01*
X1195348Y234431D01*
X1195070Y234312D01*
Y235879D01*
X1195090D01*
X1195129Y235899D01*
X1195209Y235939D01*
X1195288Y235998D01*
X1195407Y236058D01*
X1195546Y236118D01*
X1195863Y236296D01*
X1196221Y236514D01*
X1196617Y236772D01*
X1197014Y237070D01*
X1197391Y237387D01*
X1197411Y237407D01*
X1197431Y237427D01*
X1197550Y237546D01*
X1197728Y237724D01*
X1197946Y237943D01*
X1198185Y238220D01*
X1198422Y238518D01*
X1198641Y238835D01*
X1198819Y239153D01*
X1199871D01*
Y226060D01*
D02*
G37*
G36*
X1241181Y237367D02*
X1235984D01*
X1235270Y233856D01*
X1235290Y233876D01*
X1235329Y233896D01*
X1235389Y233935D01*
X1235468Y233995D01*
X1235587Y234055D01*
X1235706Y234114D01*
X1236024Y234273D01*
X1236381Y234431D01*
X1236797Y234550D01*
X1237254Y234650D01*
X1237730Y234689D01*
X1237888D01*
X1238008Y234669D01*
X1238166Y234650D01*
X1238325Y234630D01*
X1238523Y234590D01*
X1238722Y234550D01*
X1239178Y234392D01*
X1239416Y234312D01*
X1239654Y234193D01*
X1239912Y234055D01*
X1240150Y233896D01*
X1240388Y233717D01*
X1240606Y233499D01*
X1240626Y233479D01*
X1240666Y233440D01*
X1240725Y233380D01*
X1240785Y233281D01*
X1240884Y233162D01*
X1240983Y233023D01*
X1241082Y232864D01*
X1241201Y232686D01*
X1241320Y232467D01*
X1241420Y232249D01*
X1241519Y231991D01*
X1241618Y231733D01*
X1241677Y231436D01*
X1241737Y231138D01*
X1241777Y230801D01*
X1241796Y230464D01*
Y230444D01*
Y230385D01*
Y230285D01*
X1241777Y230166D01*
X1241757Y230008D01*
X1241737Y229829D01*
X1241717Y229631D01*
X1241677Y229412D01*
X1241538Y228936D01*
X1241360Y228440D01*
X1241241Y228163D01*
X1241102Y227905D01*
X1240943Y227647D01*
X1240765Y227409D01*
X1240745Y227389D01*
X1240705Y227349D01*
X1240626Y227270D01*
X1240527Y227171D01*
X1240408Y227052D01*
X1240249Y226913D01*
X1240071Y226774D01*
X1239852Y226635D01*
X1239634Y226477D01*
X1239376Y226338D01*
X1239079Y226199D01*
X1238781Y226080D01*
X1238444Y225981D01*
X1238107Y225901D01*
X1237730Y225862D01*
X1237333Y225842D01*
X1237154D01*
X1237035Y225862D01*
X1236897Y225882D01*
X1236718Y225901D01*
X1236520Y225921D01*
X1236301Y225961D01*
X1235845Y226080D01*
X1235369Y226258D01*
X1235131Y226377D01*
X1234893Y226516D01*
X1234655Y226655D01*
X1234437Y226834D01*
X1234417Y226854D01*
X1234397Y226873D01*
X1234338Y226933D01*
X1234258Y227012D01*
X1234179Y227111D01*
X1234080Y227230D01*
X1233980Y227369D01*
X1233861Y227528D01*
X1233643Y227905D01*
X1233425Y228361D01*
X1233266Y228877D01*
X1233207Y229174D01*
X1233167Y229472D01*
X1234853Y229591D01*
Y229571D01*
Y229531D01*
X1234873Y229472D01*
X1234893Y229393D01*
X1234952Y229174D01*
X1235032Y228897D01*
X1235131Y228599D01*
X1235290Y228302D01*
X1235468Y228004D01*
X1235706Y227746D01*
X1235746Y227726D01*
X1235825Y227647D01*
X1235964Y227568D01*
X1236163Y227449D01*
X1236401Y227349D01*
X1236678Y227250D01*
X1236996Y227171D01*
X1237333Y227151D01*
X1237452D01*
X1237531Y227171D01*
X1237750Y227191D01*
X1238027Y227250D01*
X1238325Y227369D01*
X1238662Y227508D01*
X1238979Y227726D01*
X1239138Y227845D01*
X1239297Y228004D01*
Y228024D01*
X1239337Y228044D01*
X1239416Y228163D01*
X1239555Y228361D01*
X1239694Y228619D01*
X1239833Y228956D01*
X1239971Y229353D01*
X1240051Y229809D01*
X1240090Y230325D01*
Y230345D01*
Y230385D01*
Y230464D01*
X1240071Y230543D01*
Y230662D01*
X1240051Y230801D01*
X1239991Y231119D01*
X1239912Y231456D01*
X1239773Y231813D01*
X1239575Y232170D01*
X1239317Y232487D01*
X1239277Y232527D01*
X1239178Y232606D01*
X1239019Y232745D01*
X1238781Y232884D01*
X1238503Y233023D01*
X1238146Y233162D01*
X1237750Y233241D01*
X1237313Y233281D01*
X1237174D01*
X1237035Y233261D01*
X1236837Y233241D01*
X1236619Y233182D01*
X1236381Y233122D01*
X1236143Y233023D01*
X1235905Y232904D01*
X1235885Y232884D01*
X1235806Y232844D01*
X1235686Y232765D01*
X1235548Y232666D01*
X1235409Y232527D01*
X1235250Y232368D01*
X1235091Y232190D01*
X1234952Y231991D01*
X1233445Y232210D01*
X1234715Y238895D01*
X1241181D01*
Y237367D01*
D02*
G37*
G36*
X1229081Y226060D02*
X1227474D01*
Y236256D01*
X1227454Y236237D01*
X1227375Y236157D01*
X1227236Y236058D01*
X1227057Y235919D01*
X1226839Y235741D01*
X1226581Y235562D01*
X1226284Y235344D01*
X1225946Y235145D01*
X1225927D01*
X1225907Y235126D01*
X1225788Y235046D01*
X1225609Y234947D01*
X1225391Y234828D01*
X1225133Y234689D01*
X1224855Y234570D01*
X1224558Y234431D01*
X1224280Y234312D01*
Y235879D01*
X1224300D01*
X1224340Y235899D01*
X1224419Y235939D01*
X1224498Y235998D01*
X1224617Y236058D01*
X1224756Y236118D01*
X1225073Y236296D01*
X1225431Y236514D01*
X1225827Y236772D01*
X1226224Y237070D01*
X1226601Y237387D01*
X1226621Y237407D01*
X1226641Y237427D01*
X1226760Y237546D01*
X1226938Y237724D01*
X1227156Y237943D01*
X1227394Y238220D01*
X1227633Y238518D01*
X1227851Y238835D01*
X1228029Y239153D01*
X1229081D01*
Y226060D01*
D02*
G37*
G36*
X1293232Y230424D02*
X1294998D01*
Y228956D01*
X1293232D01*
Y225842D01*
X1291625D01*
Y228956D01*
X1285972D01*
Y230424D01*
X1291923Y238855D01*
X1293232D01*
Y230424D01*
D02*
G37*
G36*
X1282421Y225842D02*
X1280814D01*
Y236038D01*
X1280794Y236018D01*
X1280715Y235939D01*
X1280576Y235840D01*
X1280397Y235701D01*
X1280179Y235522D01*
X1279921Y235344D01*
X1279624Y235126D01*
X1279286Y234927D01*
X1279267D01*
X1279247Y234907D01*
X1279128Y234828D01*
X1278949Y234729D01*
X1278731Y234610D01*
X1278473Y234471D01*
X1278195Y234352D01*
X1277898Y234213D01*
X1277620Y234094D01*
Y235661D01*
X1277640D01*
X1277680Y235681D01*
X1277759Y235721D01*
X1277838Y235780D01*
X1277957Y235840D01*
X1278096Y235899D01*
X1278413Y236078D01*
X1278771Y236296D01*
X1279167Y236554D01*
X1279564Y236852D01*
X1279941Y237169D01*
X1279961Y237189D01*
X1279981Y237209D01*
X1280100Y237328D01*
X1280278Y237506D01*
X1280496Y237724D01*
X1280735Y238002D01*
X1280972Y238300D01*
X1281191Y238617D01*
X1281369Y238934D01*
X1282421D01*
Y225842D01*
D02*
G37*
G36*
X1265571Y239133D02*
X1265828Y239093D01*
X1266126Y239034D01*
X1266463Y238954D01*
X1266801Y238835D01*
X1267138Y238677D01*
X1267158D01*
X1267177Y238657D01*
X1267296Y238597D01*
X1267455Y238498D01*
X1267654Y238359D01*
X1267872Y238181D01*
X1268110Y237962D01*
X1268328Y237705D01*
X1268526Y237427D01*
X1268546Y237387D01*
X1268606Y237288D01*
X1268685Y237129D01*
X1268764Y236931D01*
X1268844Y236673D01*
X1268923Y236395D01*
X1268983Y236098D01*
X1269002Y235760D01*
Y235721D01*
Y235622D01*
X1268983Y235463D01*
X1268943Y235265D01*
X1268883Y235026D01*
X1268804Y234769D01*
X1268705Y234491D01*
X1268546Y234233D01*
X1268526Y234193D01*
X1268467Y234114D01*
X1268348Y233995D01*
X1268209Y233836D01*
X1268011Y233658D01*
X1267792Y233479D01*
X1267515Y233281D01*
X1267197Y233122D01*
X1267217D01*
X1267257Y233102D01*
X1267316D01*
X1267396Y233063D01*
X1267594Y233003D01*
X1267852Y232884D01*
X1268130Y232745D01*
X1268427Y232547D01*
X1268725Y232309D01*
X1268983Y232011D01*
X1269002Y231971D01*
X1269082Y231852D01*
X1269181Y231674D01*
X1269320Y231436D01*
X1269439Y231138D01*
X1269538Y230781D01*
X1269617Y230365D01*
X1269637Y229909D01*
Y229889D01*
Y229829D01*
Y229750D01*
X1269617Y229631D01*
X1269598Y229472D01*
X1269578Y229313D01*
X1269538Y229115D01*
X1269479Y228917D01*
X1269340Y228460D01*
X1269240Y228202D01*
X1269102Y227964D01*
X1268963Y227726D01*
X1268804Y227488D01*
X1268606Y227250D01*
X1268388Y227012D01*
X1268368Y226992D01*
X1268328Y226953D01*
X1268269Y226913D01*
X1268169Y226834D01*
X1268050Y226735D01*
X1267891Y226635D01*
X1267713Y226536D01*
X1267534Y226437D01*
X1267316Y226318D01*
X1267078Y226219D01*
X1266820Y226119D01*
X1266543Y226020D01*
X1266245Y225941D01*
X1265928Y225901D01*
X1265590Y225862D01*
X1265253Y225842D01*
X1265095D01*
X1264975Y225862D01*
X1264817Y225882D01*
X1264658Y225901D01*
X1264460Y225921D01*
X1264261Y225961D01*
X1263805Y226080D01*
X1263329Y226278D01*
X1263091Y226377D01*
X1262873Y226516D01*
X1262635Y226675D01*
X1262416Y226854D01*
X1262397Y226873D01*
X1262377Y226893D01*
X1262317Y226953D01*
X1262238Y227032D01*
X1262159Y227151D01*
X1262059Y227270D01*
X1261940Y227409D01*
X1261841Y227568D01*
X1261603Y227964D01*
X1261405Y228421D01*
X1261226Y228936D01*
X1261167Y229214D01*
X1261127Y229512D01*
X1262734Y229730D01*
Y229710D01*
X1262754Y229670D01*
Y229591D01*
X1262793Y229512D01*
X1262853Y229274D01*
X1262952Y228976D01*
X1263071Y228659D01*
X1263230Y228321D01*
X1263428Y228024D01*
X1263646Y227766D01*
X1263686Y227746D01*
X1263765Y227667D01*
X1263904Y227588D01*
X1264103Y227468D01*
X1264321Y227369D01*
X1264598Y227270D01*
X1264916Y227191D01*
X1265253Y227171D01*
X1265372D01*
X1265452Y227191D01*
X1265650Y227211D01*
X1265908Y227270D01*
X1266225Y227369D01*
X1266543Y227488D01*
X1266860Y227687D01*
X1267158Y227945D01*
X1267197Y227984D01*
X1267277Y228083D01*
X1267396Y228242D01*
X1267554Y228480D01*
X1267693Y228758D01*
X1267812Y229095D01*
X1267891Y229472D01*
X1267931Y229889D01*
Y229909D01*
Y229928D01*
Y229988D01*
X1267911Y230067D01*
X1267891Y230266D01*
X1267832Y230523D01*
X1267753Y230801D01*
X1267614Y231119D01*
X1267435Y231416D01*
X1267197Y231694D01*
X1267158Y231733D01*
X1267078Y231813D01*
X1266919Y231912D01*
X1266701Y232051D01*
X1266443Y232190D01*
X1266126Y232289D01*
X1265789Y232368D01*
X1265392Y232408D01*
X1265213D01*
X1265075Y232388D01*
X1264916Y232368D01*
X1264718Y232348D01*
X1264499Y232309D01*
X1264261Y232249D01*
X1264440Y233658D01*
X1264539D01*
X1264618Y233638D01*
X1264876D01*
X1265055Y233658D01*
X1265313Y233697D01*
X1265590Y233757D01*
X1265888Y233856D01*
X1266205Y233975D01*
X1266523Y234154D01*
X1266562Y234174D01*
X1266662Y234253D01*
X1266781Y234392D01*
X1266939Y234570D01*
X1267098Y234788D01*
X1267217Y235066D01*
X1267316Y235403D01*
X1267356Y235800D01*
Y235820D01*
Y235840D01*
Y235939D01*
X1267316Y236098D01*
X1267277Y236316D01*
X1267217Y236534D01*
X1267098Y236772D01*
X1266959Y237030D01*
X1266761Y237248D01*
X1266741Y237268D01*
X1266662Y237348D01*
X1266523Y237447D01*
X1266344Y237546D01*
X1266126Y237665D01*
X1265868Y237744D01*
X1265571Y237824D01*
X1265233Y237843D01*
X1265075D01*
X1264896Y237804D01*
X1264698Y237764D01*
X1264440Y237705D01*
X1264182Y237586D01*
X1263924Y237447D01*
X1263666Y237248D01*
X1263646Y237229D01*
X1263567Y237149D01*
X1263468Y237010D01*
X1263349Y236812D01*
X1263210Y236574D01*
X1263091Y236276D01*
X1262972Y235919D01*
X1262893Y235503D01*
X1261286Y235780D01*
Y235800D01*
X1261305Y235860D01*
X1261325Y235939D01*
X1261345Y236038D01*
X1261385Y236177D01*
X1261425Y236336D01*
X1261563Y236693D01*
X1261722Y237090D01*
X1261960Y237506D01*
X1262238Y237903D01*
X1262595Y238260D01*
X1262615Y238280D01*
X1262635Y238300D01*
X1262694Y238339D01*
X1262793Y238399D01*
X1262893Y238458D01*
X1263011Y238538D01*
X1263309Y238716D01*
X1263686Y238875D01*
X1264142Y239014D01*
X1264638Y239113D01*
X1264916Y239153D01*
X1265372D01*
X1265571Y239133D01*
D02*
G37*
G36*
X1257021Y226060D02*
X1255414D01*
Y236256D01*
X1255394Y236237D01*
X1255315Y236157D01*
X1255176Y236058D01*
X1254997Y235919D01*
X1254779Y235741D01*
X1254521Y235562D01*
X1254224Y235344D01*
X1253886Y235145D01*
X1253867D01*
X1253847Y235126D01*
X1253728Y235046D01*
X1253549Y234947D01*
X1253331Y234828D01*
X1253073Y234689D01*
X1252795Y234570D01*
X1252498Y234431D01*
X1252220Y234312D01*
Y235879D01*
X1252240D01*
X1252280Y235899D01*
X1252359Y235939D01*
X1252438Y235998D01*
X1252557Y236058D01*
X1252696Y236118D01*
X1253014Y236296D01*
X1253371Y236514D01*
X1253767Y236772D01*
X1254164Y237070D01*
X1254541Y237387D01*
X1254561Y237407D01*
X1254581Y237427D01*
X1254700Y237546D01*
X1254878Y237724D01*
X1255096Y237943D01*
X1255334Y238220D01*
X1255573Y238518D01*
X1255791Y238835D01*
X1255969Y239153D01*
X1257021D01*
Y226060D01*
D02*
G37*
G36*
X1616431Y506730D02*
X1614824D01*
Y516926D01*
X1614804Y516907D01*
X1614725Y516827D01*
X1614586Y516728D01*
X1614407Y516589D01*
X1614189Y516411D01*
X1613931Y516232D01*
X1613634Y516014D01*
X1613296Y515816D01*
X1613277D01*
X1613257Y515796D01*
X1613138Y515716D01*
X1612959Y515617D01*
X1612741Y515498D01*
X1612483Y515359D01*
X1612205Y515240D01*
X1611908Y515101D01*
X1611630Y514982D01*
Y516549D01*
X1611650D01*
X1611689Y516569D01*
X1611769Y516609D01*
X1611848Y516669D01*
X1611967Y516728D01*
X1612106Y516788D01*
X1612424Y516966D01*
X1612781Y517184D01*
X1613177Y517442D01*
X1613574Y517740D01*
X1613951Y518057D01*
X1613971Y518077D01*
X1613991Y518097D01*
X1614110Y518216D01*
X1614288Y518394D01*
X1614506Y518613D01*
X1614745Y518890D01*
X1614982Y519188D01*
X1615201Y519505D01*
X1615379Y519823D01*
X1616431D01*
Y506730D01*
D02*
G37*
G36*
X1613950Y541393D02*
X1614109Y541373D01*
X1614287Y541353D01*
X1614486Y541333D01*
X1614704Y541274D01*
X1615180Y541155D01*
X1615676Y540976D01*
X1615934Y540857D01*
X1616172Y540718D01*
X1616390Y540540D01*
X1616608Y540361D01*
X1616628Y540341D01*
X1616648Y540322D01*
X1616708Y540262D01*
X1616787Y540183D01*
X1616866Y540064D01*
X1616965Y539945D01*
X1617164Y539647D01*
X1617362Y539270D01*
X1617541Y538834D01*
X1617680Y538338D01*
X1617699Y538060D01*
X1617719Y537782D01*
Y537743D01*
Y537644D01*
X1617699Y537485D01*
X1617680Y537286D01*
X1617640Y537048D01*
X1617580Y536791D01*
X1617501Y536513D01*
X1617382Y536235D01*
X1617362Y536195D01*
X1617323Y536096D01*
X1617243Y535957D01*
X1617124Y535759D01*
X1616985Y535521D01*
X1616807Y535243D01*
X1616569Y534966D01*
X1616311Y534648D01*
X1616271Y534608D01*
X1616172Y534489D01*
X1615993Y534311D01*
X1615874Y534192D01*
X1615735Y534053D01*
X1615577Y533894D01*
X1615379Y533716D01*
X1615180Y533537D01*
X1614962Y533319D01*
X1614724Y533101D01*
X1614446Y532863D01*
X1614168Y532625D01*
X1613851Y532347D01*
X1613831Y532327D01*
X1613792Y532287D01*
X1613712Y532228D01*
X1613613Y532149D01*
X1613375Y531950D01*
X1613077Y531692D01*
X1612780Y531415D01*
X1612462Y531137D01*
X1612204Y530899D01*
X1612105Y530800D01*
X1612006Y530700D01*
X1611986Y530681D01*
X1611947Y530621D01*
X1611867Y530542D01*
X1611768Y530423D01*
X1611550Y530165D01*
X1611332Y529847D01*
X1617739D01*
Y528320D01*
X1609110D01*
Y528340D01*
Y528419D01*
Y528538D01*
X1609130Y528677D01*
X1609149Y528836D01*
X1609169Y529014D01*
X1609229Y529213D01*
X1609288Y529411D01*
Y529431D01*
X1609308Y529451D01*
X1609348Y529570D01*
X1609427Y529729D01*
X1609546Y529967D01*
X1609685Y530224D01*
X1609884Y530522D01*
X1610082Y530820D01*
X1610340Y531137D01*
Y531157D01*
X1610379Y531177D01*
X1610479Y531296D01*
X1610637Y531474D01*
X1610875Y531712D01*
X1611173Y531990D01*
X1611530Y532327D01*
X1611966Y532704D01*
X1612442Y533121D01*
X1612462Y533140D01*
X1612542Y533200D01*
X1612641Y533279D01*
X1612780Y533418D01*
X1612958Y533557D01*
X1613157Y533736D01*
X1613593Y534113D01*
X1614069Y534569D01*
X1614545Y535025D01*
X1614783Y535243D01*
X1614982Y535462D01*
X1615160Y535680D01*
X1615319Y535878D01*
Y535898D01*
X1615359Y535918D01*
X1615398Y535977D01*
X1615438Y536057D01*
X1615557Y536255D01*
X1615696Y536513D01*
X1615835Y536810D01*
X1615954Y537128D01*
X1616033Y537485D01*
X1616073Y537822D01*
Y537842D01*
Y537862D01*
X1616053Y537981D01*
X1616033Y538159D01*
X1615993Y538378D01*
X1615894Y538635D01*
X1615775Y538893D01*
X1615616Y539171D01*
X1615379Y539429D01*
X1615339Y539449D01*
X1615259Y539528D01*
X1615101Y539627D01*
X1614902Y539766D01*
X1614644Y539885D01*
X1614347Y539984D01*
X1613990Y540064D01*
X1613593Y540084D01*
X1613474D01*
X1613395Y540064D01*
X1613196Y540044D01*
X1612939Y540004D01*
X1612641Y539905D01*
X1612323Y539786D01*
X1612026Y539608D01*
X1611748Y539369D01*
X1611728Y539330D01*
X1611649Y539250D01*
X1611530Y539092D01*
X1611411Y538873D01*
X1611272Y538596D01*
X1611173Y538278D01*
X1611094Y537901D01*
X1611054Y537465D01*
X1609407Y537644D01*
Y537663D01*
Y537723D01*
X1609427Y537822D01*
X1609447Y537941D01*
X1609487Y538100D01*
X1609507Y538278D01*
X1609626Y538675D01*
X1609784Y539131D01*
X1610002Y539588D01*
X1610300Y540044D01*
X1610459Y540242D01*
X1610657Y540441D01*
X1610677Y540461D01*
X1610717Y540480D01*
X1610776Y540540D01*
X1610856Y540599D01*
X1610975Y540659D01*
X1611113Y540758D01*
X1611272Y540837D01*
X1611451Y540937D01*
X1611649Y541016D01*
X1611867Y541115D01*
X1612125Y541194D01*
X1612383Y541254D01*
X1612978Y541373D01*
X1613295Y541393D01*
X1613633Y541413D01*
X1613811D01*
X1613950Y541393D01*
D02*
G37*
G36*
X1613810Y577352D02*
X1615576D01*
Y575885D01*
X1613810D01*
Y572770D01*
X1612204D01*
Y575885D01*
X1606550D01*
Y577352D01*
X1612501Y585783D01*
X1613810D01*
Y577352D01*
D02*
G37*
G36*
X1613534Y561713D02*
X1613792Y561673D01*
X1614089Y561614D01*
X1614426Y561534D01*
X1614763Y561415D01*
X1615101Y561257D01*
X1615121D01*
X1615140Y561237D01*
X1615259Y561177D01*
X1615418Y561078D01*
X1615616Y560939D01*
X1615835Y560761D01*
X1616073Y560542D01*
X1616291Y560285D01*
X1616489Y560007D01*
X1616509Y559967D01*
X1616569Y559868D01*
X1616648Y559709D01*
X1616727Y559511D01*
X1616807Y559253D01*
X1616886Y558975D01*
X1616946Y558678D01*
X1616965Y558340D01*
Y558301D01*
Y558202D01*
X1616946Y558043D01*
X1616906Y557845D01*
X1616846Y557607D01*
X1616767Y557349D01*
X1616668Y557071D01*
X1616509Y556813D01*
X1616489Y556773D01*
X1616430Y556694D01*
X1616311Y556575D01*
X1616172Y556416D01*
X1615974Y556238D01*
X1615755Y556059D01*
X1615478Y555861D01*
X1615160Y555702D01*
X1615180D01*
X1615220Y555682D01*
X1615279D01*
X1615359Y555643D01*
X1615557Y555583D01*
X1615815Y555464D01*
X1616093Y555325D01*
X1616390Y555127D01*
X1616688Y554889D01*
X1616946Y554591D01*
X1616965Y554552D01*
X1617045Y554432D01*
X1617144Y554254D01*
X1617283Y554016D01*
X1617402Y553718D01*
X1617501Y553361D01*
X1617580Y552945D01*
X1617600Y552489D01*
Y552469D01*
Y552409D01*
Y552330D01*
X1617580Y552211D01*
X1617561Y552052D01*
X1617541Y551893D01*
X1617501Y551695D01*
X1617442Y551497D01*
X1617303Y551040D01*
X1617204Y550782D01*
X1617065Y550544D01*
X1616926Y550306D01*
X1616767Y550068D01*
X1616569Y549830D01*
X1616351Y549592D01*
X1616331Y549572D01*
X1616291Y549533D01*
X1616232Y549493D01*
X1616132Y549414D01*
X1616013Y549314D01*
X1615855Y549215D01*
X1615676Y549116D01*
X1615497Y549017D01*
X1615279Y548898D01*
X1615041Y548799D01*
X1614783Y548699D01*
X1614506Y548600D01*
X1614208Y548521D01*
X1613891Y548481D01*
X1613553Y548442D01*
X1613216Y548422D01*
X1613058D01*
X1612939Y548442D01*
X1612780Y548461D01*
X1612621Y548481D01*
X1612423Y548501D01*
X1612224Y548541D01*
X1611768Y548660D01*
X1611292Y548858D01*
X1611054Y548957D01*
X1610836Y549096D01*
X1610598Y549255D01*
X1610379Y549434D01*
X1610360Y549453D01*
X1610340Y549473D01*
X1610280Y549533D01*
X1610201Y549612D01*
X1610121Y549731D01*
X1610022Y549850D01*
X1609903Y549989D01*
X1609804Y550148D01*
X1609566Y550544D01*
X1609368Y551001D01*
X1609189Y551516D01*
X1609130Y551794D01*
X1609090Y552092D01*
X1610697Y552310D01*
Y552290D01*
X1610717Y552250D01*
Y552171D01*
X1610756Y552092D01*
X1610816Y551854D01*
X1610915Y551556D01*
X1611034Y551239D01*
X1611193Y550901D01*
X1611391Y550604D01*
X1611609Y550346D01*
X1611649Y550326D01*
X1611728Y550247D01*
X1611867Y550168D01*
X1612066Y550048D01*
X1612284Y549949D01*
X1612561Y549850D01*
X1612879Y549771D01*
X1613216Y549751D01*
X1613335D01*
X1613415Y549771D01*
X1613613Y549791D01*
X1613871Y549850D01*
X1614188Y549949D01*
X1614506Y550068D01*
X1614823Y550267D01*
X1615121Y550525D01*
X1615160Y550564D01*
X1615240Y550663D01*
X1615359Y550822D01*
X1615517Y551060D01*
X1615656Y551338D01*
X1615775Y551675D01*
X1615855Y552052D01*
X1615894Y552469D01*
Y552489D01*
Y552508D01*
Y552568D01*
X1615874Y552647D01*
X1615855Y552845D01*
X1615795Y553103D01*
X1615716Y553381D01*
X1615577Y553699D01*
X1615398Y553996D01*
X1615160Y554274D01*
X1615121Y554314D01*
X1615041Y554393D01*
X1614883Y554492D01*
X1614664Y554631D01*
X1614406Y554770D01*
X1614089Y554869D01*
X1613752Y554948D01*
X1613355Y554988D01*
X1613177D01*
X1613038Y554968D01*
X1612879Y554948D01*
X1612681Y554929D01*
X1612462Y554889D01*
X1612224Y554829D01*
X1612403Y556238D01*
X1612502D01*
X1612581Y556218D01*
X1612839D01*
X1613018Y556238D01*
X1613276Y556277D01*
X1613553Y556337D01*
X1613851Y556436D01*
X1614168Y556555D01*
X1614486Y556734D01*
X1614525Y556754D01*
X1614625Y556833D01*
X1614744Y556972D01*
X1614902Y557150D01*
X1615061Y557369D01*
X1615180Y557646D01*
X1615279Y557983D01*
X1615319Y558380D01*
Y558400D01*
Y558420D01*
Y558519D01*
X1615279Y558678D01*
X1615240Y558896D01*
X1615180Y559114D01*
X1615061Y559352D01*
X1614922Y559610D01*
X1614724Y559828D01*
X1614704Y559848D01*
X1614625Y559927D01*
X1614486Y560027D01*
X1614307Y560126D01*
X1614089Y560245D01*
X1613831Y560324D01*
X1613534Y560404D01*
X1613196Y560423D01*
X1613038D01*
X1612859Y560384D01*
X1612661Y560344D01*
X1612403Y560285D01*
X1612145Y560165D01*
X1611887Y560027D01*
X1611629Y559828D01*
X1611609Y559809D01*
X1611530Y559729D01*
X1611431Y559590D01*
X1611312Y559392D01*
X1611173Y559154D01*
X1611054Y558856D01*
X1610935Y558499D01*
X1610856Y558083D01*
X1609249Y558360D01*
Y558380D01*
X1609268Y558440D01*
X1609288Y558519D01*
X1609308Y558618D01*
X1609348Y558757D01*
X1609388Y558916D01*
X1609526Y559273D01*
X1609685Y559670D01*
X1609923Y560086D01*
X1610201Y560483D01*
X1610558Y560840D01*
X1610578Y560860D01*
X1610598Y560880D01*
X1610657Y560919D01*
X1610756Y560979D01*
X1610856Y561038D01*
X1610975Y561118D01*
X1611272Y561296D01*
X1611649Y561455D01*
X1612105Y561594D01*
X1612601Y561693D01*
X1612879Y561733D01*
X1613335D01*
X1613534Y561713D01*
D02*
G37*
G36*
X1202229Y1053203D02*
X1202388Y1053183D01*
X1202567Y1053163D01*
X1202765Y1053143D01*
X1202983Y1053084D01*
X1203459Y1052965D01*
X1203955Y1052786D01*
X1204213Y1052667D01*
X1204451Y1052528D01*
X1204669Y1052350D01*
X1204887Y1052171D01*
X1204907Y1052151D01*
X1204927Y1052132D01*
X1204987Y1052072D01*
X1205066Y1051993D01*
X1205145Y1051874D01*
X1205245Y1051755D01*
X1205443Y1051457D01*
X1205641Y1051080D01*
X1205820Y1050644D01*
X1205959Y1050148D01*
X1205978Y1049870D01*
X1205998Y1049592D01*
Y1049553D01*
Y1049454D01*
X1205978Y1049295D01*
X1205959Y1049097D01*
X1205919Y1048858D01*
X1205860Y1048601D01*
X1205780Y1048323D01*
X1205661Y1048045D01*
X1205641Y1048005D01*
X1205602Y1047906D01*
X1205522Y1047767D01*
X1205403Y1047569D01*
X1205264Y1047331D01*
X1205086Y1047053D01*
X1204848Y1046776D01*
X1204590Y1046458D01*
X1204550Y1046419D01*
X1204451Y1046299D01*
X1204273Y1046121D01*
X1204154Y1046002D01*
X1204015Y1045863D01*
X1203856Y1045704D01*
X1203658Y1045526D01*
X1203459Y1045347D01*
X1203241Y1045129D01*
X1203003Y1044911D01*
X1202725Y1044673D01*
X1202448Y1044435D01*
X1202130Y1044157D01*
X1202110Y1044137D01*
X1202071Y1044098D01*
X1201991Y1044038D01*
X1201892Y1043959D01*
X1201654Y1043760D01*
X1201356Y1043502D01*
X1201059Y1043225D01*
X1200742Y1042947D01*
X1200484Y1042709D01*
X1200384Y1042610D01*
X1200285Y1042511D01*
X1200265Y1042491D01*
X1200226Y1042431D01*
X1200146Y1042352D01*
X1200047Y1042233D01*
X1199829Y1041975D01*
X1199611Y1041657D01*
X1206018D01*
Y1040130D01*
X1197389D01*
Y1040150D01*
Y1040229D01*
Y1040348D01*
X1197409Y1040487D01*
X1197429Y1040646D01*
X1197449Y1040824D01*
X1197508Y1041023D01*
X1197568Y1041221D01*
Y1041241D01*
X1197587Y1041261D01*
X1197627Y1041380D01*
X1197706Y1041538D01*
X1197825Y1041777D01*
X1197964Y1042034D01*
X1198163Y1042332D01*
X1198361Y1042629D01*
X1198619Y1042947D01*
Y1042967D01*
X1198659Y1042987D01*
X1198758Y1043106D01*
X1198916Y1043284D01*
X1199155Y1043522D01*
X1199452Y1043800D01*
X1199809Y1044137D01*
X1200246Y1044514D01*
X1200722Y1044931D01*
X1200742Y1044950D01*
X1200821Y1045010D01*
X1200920Y1045089D01*
X1201059Y1045228D01*
X1201237Y1045367D01*
X1201436Y1045546D01*
X1201872Y1045922D01*
X1202348Y1046379D01*
X1202824Y1046835D01*
X1203062Y1047053D01*
X1203261Y1047271D01*
X1203439Y1047490D01*
X1203598Y1047688D01*
Y1047708D01*
X1203638Y1047728D01*
X1203677Y1047787D01*
X1203717Y1047867D01*
X1203836Y1048065D01*
X1203975Y1048323D01*
X1204114Y1048620D01*
X1204233Y1048938D01*
X1204312Y1049295D01*
X1204352Y1049632D01*
Y1049652D01*
Y1049672D01*
X1204332Y1049791D01*
X1204312Y1049969D01*
X1204273Y1050188D01*
X1204173Y1050445D01*
X1204054Y1050703D01*
X1203896Y1050981D01*
X1203658Y1051239D01*
X1203618Y1051259D01*
X1203539Y1051338D01*
X1203380Y1051437D01*
X1203182Y1051576D01*
X1202924Y1051695D01*
X1202626Y1051794D01*
X1202269Y1051874D01*
X1201872Y1051894D01*
X1201753D01*
X1201674Y1051874D01*
X1201475Y1051854D01*
X1201218Y1051814D01*
X1200920Y1051715D01*
X1200603Y1051596D01*
X1200305Y1051417D01*
X1200027Y1051179D01*
X1200007Y1051140D01*
X1199928Y1051060D01*
X1199809Y1050902D01*
X1199690Y1050684D01*
X1199551Y1050406D01*
X1199452Y1050088D01*
X1199373Y1049712D01*
X1199333Y1049275D01*
X1197686Y1049454D01*
Y1049473D01*
Y1049533D01*
X1197706Y1049632D01*
X1197726Y1049751D01*
X1197766Y1049910D01*
X1197786Y1050088D01*
X1197905Y1050485D01*
X1198063Y1050941D01*
X1198282Y1051398D01*
X1198579Y1051854D01*
X1198738Y1052052D01*
X1198936Y1052251D01*
X1198956Y1052271D01*
X1198996Y1052290D01*
X1199055Y1052350D01*
X1199135Y1052409D01*
X1199254Y1052469D01*
X1199392Y1052568D01*
X1199551Y1052647D01*
X1199730Y1052747D01*
X1199928Y1052826D01*
X1200146Y1052925D01*
X1200404Y1053005D01*
X1200662Y1053064D01*
X1201257Y1053183D01*
X1201575Y1053203D01*
X1201912Y1053223D01*
X1202090D01*
X1202229Y1053203D01*
D02*
G37*
G36*
X1193521Y1040130D02*
X1191914D01*
Y1050326D01*
X1191894Y1050307D01*
X1191815Y1050227D01*
X1191676Y1050128D01*
X1191497Y1049989D01*
X1191279Y1049811D01*
X1191021Y1049632D01*
X1190724Y1049414D01*
X1190386Y1049215D01*
X1190367D01*
X1190347Y1049196D01*
X1190228Y1049116D01*
X1190049Y1049017D01*
X1189831Y1048898D01*
X1189573Y1048759D01*
X1189295Y1048640D01*
X1188998Y1048501D01*
X1188720Y1048382D01*
Y1049949D01*
X1188740D01*
X1188780Y1049969D01*
X1188859Y1050009D01*
X1188938Y1050069D01*
X1189057Y1050128D01*
X1189196Y1050188D01*
X1189513Y1050366D01*
X1189871Y1050584D01*
X1190267Y1050842D01*
X1190664Y1051140D01*
X1191041Y1051457D01*
X1191061Y1051477D01*
X1191081Y1051497D01*
X1191200Y1051616D01*
X1191378Y1051794D01*
X1191596Y1052013D01*
X1191834Y1052290D01*
X1192073Y1052588D01*
X1192291Y1052905D01*
X1192469Y1053223D01*
X1193521D01*
Y1040130D01*
D02*
G37*
G36*
X1230308D02*
X1228701D01*
Y1050326D01*
X1228681Y1050307D01*
X1228602Y1050227D01*
X1228463Y1050128D01*
X1228284Y1049989D01*
X1228066Y1049811D01*
X1227808Y1049632D01*
X1227511Y1049414D01*
X1227173Y1049215D01*
X1227154D01*
X1227134Y1049196D01*
X1227015Y1049116D01*
X1226836Y1049017D01*
X1226618Y1048898D01*
X1226360Y1048759D01*
X1226082Y1048640D01*
X1225785Y1048501D01*
X1225507Y1048382D01*
Y1049949D01*
X1225527D01*
X1225567Y1049969D01*
X1225646Y1050009D01*
X1225725Y1050069D01*
X1225844Y1050128D01*
X1225983Y1050188D01*
X1226301Y1050366D01*
X1226658Y1050584D01*
X1227054Y1050842D01*
X1227451Y1051140D01*
X1227828Y1051457D01*
X1227848Y1051477D01*
X1227868Y1051497D01*
X1227987Y1051616D01*
X1228165Y1051794D01*
X1228383Y1052013D01*
X1228622Y1052290D01*
X1228860Y1052588D01*
X1229078Y1052905D01*
X1229256Y1053223D01*
X1230308D01*
Y1040130D01*
D02*
G37*
G36*
X1220191D02*
X1218584D01*
Y1050326D01*
X1218564Y1050307D01*
X1218485Y1050227D01*
X1218346Y1050128D01*
X1218167Y1049989D01*
X1217949Y1049811D01*
X1217691Y1049632D01*
X1217394Y1049414D01*
X1217056Y1049215D01*
X1217037D01*
X1217017Y1049196D01*
X1216898Y1049116D01*
X1216719Y1049017D01*
X1216501Y1048898D01*
X1216243Y1048759D01*
X1215965Y1048640D01*
X1215668Y1048501D01*
X1215390Y1048382D01*
Y1049949D01*
X1215410D01*
X1215450Y1049969D01*
X1215529Y1050009D01*
X1215608Y1050069D01*
X1215727Y1050128D01*
X1215866Y1050188D01*
X1216183Y1050366D01*
X1216541Y1050584D01*
X1216937Y1050842D01*
X1217334Y1051140D01*
X1217711Y1051457D01*
X1217731Y1051477D01*
X1217751Y1051497D01*
X1217870Y1051616D01*
X1218048Y1051794D01*
X1218266Y1052013D01*
X1218504Y1052290D01*
X1218743Y1052588D01*
X1218961Y1052905D01*
X1219139Y1053223D01*
X1220191D01*
Y1040130D01*
D02*
G37*
G36*
X1175561Y1051755D02*
X1175541Y1051735D01*
X1175501Y1051695D01*
X1175442Y1051616D01*
X1175343Y1051517D01*
X1175244Y1051378D01*
X1175105Y1051219D01*
X1174946Y1051021D01*
X1174787Y1050822D01*
X1174609Y1050584D01*
X1174410Y1050307D01*
X1174192Y1050029D01*
X1173994Y1049712D01*
X1173775Y1049374D01*
X1173538Y1049017D01*
X1173319Y1048620D01*
X1173081Y1048224D01*
X1173061Y1048204D01*
X1173022Y1048124D01*
X1172962Y1048005D01*
X1172883Y1047847D01*
X1172784Y1047648D01*
X1172665Y1047410D01*
X1172526Y1047133D01*
X1172387Y1046835D01*
X1172248Y1046518D01*
X1172089Y1046161D01*
X1171931Y1045784D01*
X1171772Y1045387D01*
X1171474Y1044574D01*
X1171197Y1043701D01*
Y1043681D01*
X1171177Y1043621D01*
X1171157Y1043542D01*
X1171117Y1043423D01*
X1171078Y1043264D01*
X1171038Y1043086D01*
X1170998Y1042868D01*
X1170939Y1042649D01*
X1170899Y1042392D01*
X1170840Y1042114D01*
X1170740Y1041519D01*
X1170661Y1040844D01*
X1170602Y1040130D01*
X1168955D01*
Y1040150D01*
Y1040209D01*
Y1040289D01*
X1168975Y1040408D01*
Y1040547D01*
X1168995Y1040725D01*
X1169015Y1040943D01*
X1169034Y1041161D01*
X1169074Y1041419D01*
X1169114Y1041717D01*
X1169153Y1042015D01*
X1169213Y1042332D01*
X1169272Y1042689D01*
X1169352Y1043046D01*
X1169550Y1043840D01*
Y1043859D01*
X1169570Y1043939D01*
X1169610Y1044058D01*
X1169649Y1044217D01*
X1169709Y1044415D01*
X1169788Y1044633D01*
X1169868Y1044891D01*
X1169967Y1045189D01*
X1170086Y1045486D01*
X1170205Y1045823D01*
X1170482Y1046537D01*
X1170820Y1047291D01*
X1171197Y1048045D01*
X1171217Y1048065D01*
X1171256Y1048144D01*
X1171316Y1048243D01*
X1171395Y1048382D01*
X1171494Y1048561D01*
X1171613Y1048759D01*
X1171752Y1048978D01*
X1171891Y1049235D01*
X1172248Y1049771D01*
X1172645Y1050346D01*
X1173061Y1050921D01*
X1173518Y1051477D01*
X1167130D01*
Y1053005D01*
X1175561D01*
Y1051755D01*
D02*
G37*
G36*
X1143713Y1053421D02*
X1143872D01*
X1144030Y1053381D01*
X1144427Y1053322D01*
X1144864Y1053203D01*
X1145320Y1053024D01*
X1145558Y1052905D01*
X1145776Y1052786D01*
X1145994Y1052628D01*
X1146193Y1052449D01*
X1146212Y1052429D01*
X1146232Y1052409D01*
X1146292Y1052350D01*
X1146351Y1052271D01*
X1146431Y1052171D01*
X1146530Y1052052D01*
X1146728Y1051775D01*
X1146907Y1051417D01*
X1147085Y1051001D01*
X1147204Y1050545D01*
X1147224Y1050287D01*
X1147244Y1050029D01*
Y1049989D01*
Y1049870D01*
X1147224Y1049712D01*
X1147185Y1049493D01*
X1147125Y1049235D01*
X1147046Y1048978D01*
X1146927Y1048700D01*
X1146768Y1048442D01*
X1146748Y1048422D01*
X1146689Y1048343D01*
X1146570Y1048224D01*
X1146411Y1048065D01*
X1146212Y1047906D01*
X1145955Y1047748D01*
X1145657Y1047569D01*
X1145320Y1047430D01*
X1145340D01*
X1145379Y1047410D01*
X1145439Y1047391D01*
X1145518Y1047351D01*
X1145736Y1047252D01*
X1145994Y1047133D01*
X1146292Y1046954D01*
X1146589Y1046736D01*
X1146887Y1046458D01*
X1147145Y1046161D01*
X1147165Y1046121D01*
X1147244Y1046002D01*
X1147343Y1045823D01*
X1147462Y1045565D01*
X1147581Y1045268D01*
X1147680Y1044911D01*
X1147760Y1044514D01*
X1147780Y1044078D01*
Y1044058D01*
Y1043998D01*
Y1043919D01*
X1147760Y1043800D01*
X1147740Y1043661D01*
X1147720Y1043483D01*
X1147641Y1043086D01*
X1147482Y1042649D01*
X1147403Y1042411D01*
X1147284Y1042173D01*
X1147145Y1041935D01*
X1146986Y1041697D01*
X1146808Y1041479D01*
X1146589Y1041261D01*
X1146570Y1041241D01*
X1146530Y1041221D01*
X1146470Y1041161D01*
X1146371Y1041082D01*
X1146252Y1041003D01*
X1146113Y1040904D01*
X1145955Y1040805D01*
X1145756Y1040705D01*
X1145538Y1040586D01*
X1145300Y1040487D01*
X1145042Y1040388D01*
X1144764Y1040309D01*
X1144487Y1040229D01*
X1144169Y1040170D01*
X1143832Y1040150D01*
X1143475Y1040130D01*
X1143296D01*
X1143158Y1040150D01*
X1142999Y1040170D01*
X1142800Y1040190D01*
X1142602Y1040229D01*
X1142364Y1040269D01*
X1141868Y1040408D01*
X1141610Y1040507D01*
X1141352Y1040606D01*
X1141094Y1040745D01*
X1140836Y1040884D01*
X1140599Y1041062D01*
X1140360Y1041261D01*
X1140341Y1041281D01*
X1140301Y1041320D01*
X1140261Y1041380D01*
X1140182Y1041459D01*
X1140083Y1041578D01*
X1139984Y1041717D01*
X1139884Y1041876D01*
X1139785Y1042054D01*
X1139666Y1042253D01*
X1139567Y1042471D01*
X1139369Y1042947D01*
X1139289Y1043225D01*
X1139249Y1043502D01*
X1139210Y1043800D01*
X1139190Y1044117D01*
Y1044137D01*
Y1044177D01*
Y1044236D01*
X1139210Y1044335D01*
Y1044435D01*
X1139230Y1044574D01*
X1139269Y1044851D01*
X1139349Y1045189D01*
X1139468Y1045546D01*
X1139607Y1045903D01*
X1139825Y1046240D01*
Y1046260D01*
X1139865Y1046280D01*
X1139944Y1046379D01*
X1140102Y1046537D01*
X1140301Y1046716D01*
X1140559Y1046914D01*
X1140876Y1047113D01*
X1141253Y1047291D01*
X1141670Y1047430D01*
X1141650D01*
X1141630Y1047450D01*
X1141511Y1047490D01*
X1141332Y1047589D01*
X1141114Y1047688D01*
X1140856Y1047847D01*
X1140618Y1048025D01*
X1140380Y1048224D01*
X1140182Y1048462D01*
X1140162Y1048501D01*
X1140102Y1048581D01*
X1140023Y1048720D01*
X1139944Y1048918D01*
X1139865Y1049156D01*
X1139785Y1049434D01*
X1139726Y1049731D01*
X1139706Y1050069D01*
Y1050088D01*
Y1050128D01*
Y1050207D01*
X1139726Y1050307D01*
X1139745Y1050426D01*
X1139765Y1050564D01*
X1139825Y1050902D01*
X1139944Y1051279D01*
X1140142Y1051675D01*
X1140241Y1051894D01*
X1140380Y1052092D01*
X1140539Y1052290D01*
X1140717Y1052469D01*
X1140737Y1052489D01*
X1140757Y1052508D01*
X1140817Y1052568D01*
X1140896Y1052628D01*
X1141015Y1052687D01*
X1141134Y1052786D01*
X1141273Y1052866D01*
X1141451Y1052965D01*
X1141828Y1053143D01*
X1142305Y1053282D01*
X1142840Y1053401D01*
X1143118Y1053421D01*
X1143435Y1053441D01*
X1143594D01*
X1143713Y1053421D01*
D02*
G37*
G36*
X806326Y481330D02*
X804719D01*
Y491526D01*
X804699Y491507D01*
X804620Y491427D01*
X804481Y491328D01*
X804302Y491189D01*
X804084Y491011D01*
X803826Y490832D01*
X803529Y490614D01*
X803191Y490415D01*
X803171D01*
X803152Y490396D01*
X803033Y490316D01*
X802854Y490217D01*
X802636Y490098D01*
X802378Y489959D01*
X802100Y489840D01*
X801803Y489701D01*
X801525Y489582D01*
Y491149D01*
X801545D01*
X801585Y491169D01*
X801664Y491209D01*
X801743Y491269D01*
X801862Y491328D01*
X802001Y491388D01*
X802318Y491566D01*
X802676Y491784D01*
X803072Y492042D01*
X803469Y492340D01*
X803846Y492657D01*
X803866Y492677D01*
X803886Y492697D01*
X804005Y492816D01*
X804183Y492994D01*
X804401Y493213D01*
X804640Y493490D01*
X804878Y493788D01*
X805096Y494105D01*
X805274Y494423D01*
X806326D01*
Y481330D01*
D02*
G37*
G36*
X794800Y494403D02*
X794959Y494383D01*
X795137Y494363D01*
X795336Y494343D01*
X795554Y494284D01*
X796030Y494165D01*
X796526Y493986D01*
X796784Y493867D01*
X797022Y493728D01*
X797240Y493550D01*
X797458Y493371D01*
X797478Y493352D01*
X797498Y493332D01*
X797558Y493272D01*
X797637Y493193D01*
X797716Y493074D01*
X797815Y492955D01*
X798014Y492657D01*
X798212Y492280D01*
X798391Y491844D01*
X798530Y491348D01*
X798549Y491070D01*
X798569Y490792D01*
Y490753D01*
Y490654D01*
X798549Y490495D01*
X798530Y490297D01*
X798490Y490059D01*
X798430Y489801D01*
X798351Y489523D01*
X798232Y489245D01*
X798212Y489205D01*
X798173Y489106D01*
X798093Y488967D01*
X797974Y488769D01*
X797835Y488531D01*
X797657Y488253D01*
X797419Y487976D01*
X797161Y487658D01*
X797121Y487618D01*
X797022Y487499D01*
X796843Y487321D01*
X796724Y487202D01*
X796585Y487063D01*
X796427Y486904D01*
X796228Y486726D01*
X796030Y486547D01*
X795812Y486329D01*
X795574Y486111D01*
X795296Y485873D01*
X795018Y485635D01*
X794701Y485357D01*
X794681Y485337D01*
X794641Y485298D01*
X794562Y485238D01*
X794463Y485159D01*
X794225Y484960D01*
X793927Y484702D01*
X793630Y484425D01*
X793312Y484147D01*
X793055Y483909D01*
X792955Y483810D01*
X792856Y483711D01*
X792836Y483691D01*
X792797Y483631D01*
X792717Y483552D01*
X792618Y483433D01*
X792400Y483175D01*
X792182Y482858D01*
X798589D01*
Y481330D01*
X789960D01*
Y481350D01*
Y481429D01*
Y481548D01*
X789980Y481687D01*
X789999Y481846D01*
X790019Y482024D01*
X790079Y482223D01*
X790138Y482421D01*
Y482441D01*
X790158Y482461D01*
X790198Y482580D01*
X790277Y482738D01*
X790396Y482976D01*
X790535Y483234D01*
X790733Y483532D01*
X790932Y483829D01*
X791190Y484147D01*
Y484167D01*
X791229Y484187D01*
X791329Y484306D01*
X791487Y484484D01*
X791725Y484722D01*
X792023Y485000D01*
X792380Y485337D01*
X792816Y485714D01*
X793292Y486131D01*
X793312Y486151D01*
X793392Y486210D01*
X793491Y486289D01*
X793630Y486428D01*
X793808Y486567D01*
X794007Y486746D01*
X794443Y487122D01*
X794919Y487579D01*
X795395Y488035D01*
X795633Y488253D01*
X795832Y488471D01*
X796010Y488690D01*
X796169Y488888D01*
Y488908D01*
X796209Y488928D01*
X796248Y488987D01*
X796288Y489067D01*
X796407Y489265D01*
X796546Y489523D01*
X796685Y489820D01*
X796804Y490138D01*
X796883Y490495D01*
X796923Y490832D01*
Y490852D01*
Y490872D01*
X796903Y490991D01*
X796883Y491169D01*
X796843Y491388D01*
X796744Y491645D01*
X796625Y491903D01*
X796467Y492181D01*
X796228Y492439D01*
X796189Y492459D01*
X796109Y492538D01*
X795951Y492637D01*
X795752Y492776D01*
X795495Y492895D01*
X795197Y492994D01*
X794840Y493074D01*
X794443Y493094D01*
X794324D01*
X794245Y493074D01*
X794046Y493054D01*
X793789Y493014D01*
X793491Y492915D01*
X793174Y492796D01*
X792876Y492617D01*
X792598Y492379D01*
X792578Y492340D01*
X792499Y492260D01*
X792380Y492102D01*
X792261Y491884D01*
X792122Y491606D01*
X792023Y491288D01*
X791944Y490911D01*
X791904Y490475D01*
X790257Y490654D01*
Y490673D01*
Y490733D01*
X790277Y490832D01*
X790297Y490951D01*
X790337Y491110D01*
X790357Y491288D01*
X790476Y491685D01*
X790634Y492141D01*
X790853Y492598D01*
X791150Y493054D01*
X791309Y493252D01*
X791507Y493451D01*
X791527Y493470D01*
X791567Y493490D01*
X791626Y493550D01*
X791705Y493609D01*
X791825Y493669D01*
X791963Y493768D01*
X792122Y493847D01*
X792301Y493947D01*
X792499Y494026D01*
X792717Y494125D01*
X792975Y494204D01*
X793233Y494264D01*
X793828Y494383D01*
X794146Y494403D01*
X794483Y494423D01*
X794661D01*
X794800Y494403D01*
D02*
G37*
G36*
X804917Y466463D02*
X805076Y466443D01*
X805255Y466423D01*
X805453Y466403D01*
X805671Y466344D01*
X806147Y466225D01*
X806643Y466046D01*
X806901Y465927D01*
X807139Y465788D01*
X807357Y465610D01*
X807575Y465431D01*
X807595Y465411D01*
X807615Y465392D01*
X807675Y465332D01*
X807754Y465253D01*
X807833Y465134D01*
X807933Y465015D01*
X808131Y464717D01*
X808329Y464340D01*
X808508Y463904D01*
X808647Y463408D01*
X808667Y463130D01*
X808686Y462852D01*
Y462813D01*
Y462714D01*
X808667Y462555D01*
X808647Y462356D01*
X808607Y462118D01*
X808548Y461861D01*
X808468Y461583D01*
X808349Y461305D01*
X808329Y461265D01*
X808290Y461166D01*
X808210Y461027D01*
X808091Y460829D01*
X807952Y460591D01*
X807774Y460313D01*
X807536Y460036D01*
X807278Y459718D01*
X807238Y459678D01*
X807139Y459559D01*
X806961Y459381D01*
X806842Y459262D01*
X806703Y459123D01*
X806544Y458964D01*
X806346Y458786D01*
X806147Y458607D01*
X805929Y458389D01*
X805691Y458171D01*
X805413Y457933D01*
X805135Y457695D01*
X804818Y457417D01*
X804798Y457397D01*
X804759Y457357D01*
X804679Y457298D01*
X804580Y457219D01*
X804342Y457020D01*
X804044Y456762D01*
X803747Y456485D01*
X803429Y456207D01*
X803171Y455969D01*
X803072Y455870D01*
X802973Y455770D01*
X802953Y455751D01*
X802914Y455691D01*
X802834Y455612D01*
X802735Y455493D01*
X802517Y455235D01*
X802299Y454917D01*
X808706D01*
Y453390D01*
X800077D01*
Y453410D01*
Y453489D01*
Y453608D01*
X800097Y453747D01*
X800117Y453906D01*
X800136Y454084D01*
X800196Y454283D01*
X800255Y454481D01*
Y454501D01*
X800275Y454521D01*
X800315Y454640D01*
X800394Y454799D01*
X800513Y455037D01*
X800652Y455294D01*
X800851Y455592D01*
X801049Y455890D01*
X801307Y456207D01*
Y456227D01*
X801347Y456247D01*
X801446Y456366D01*
X801604Y456544D01*
X801842Y456782D01*
X802140Y457060D01*
X802497Y457397D01*
X802934Y457774D01*
X803410Y458191D01*
X803429Y458210D01*
X803509Y458270D01*
X803608Y458349D01*
X803747Y458488D01*
X803925Y458627D01*
X804124Y458806D01*
X804560Y459183D01*
X805036Y459639D01*
X805512Y460095D01*
X805750Y460313D01*
X805949Y460532D01*
X806127Y460750D01*
X806286Y460948D01*
Y460968D01*
X806326Y460988D01*
X806365Y461047D01*
X806405Y461127D01*
X806524Y461325D01*
X806663Y461583D01*
X806802Y461880D01*
X806921Y462198D01*
X807000Y462555D01*
X807040Y462892D01*
Y462912D01*
Y462932D01*
X807020Y463051D01*
X807000Y463229D01*
X806961Y463448D01*
X806861Y463705D01*
X806742Y463963D01*
X806584Y464241D01*
X806346Y464499D01*
X806306Y464519D01*
X806227Y464598D01*
X806068Y464697D01*
X805869Y464836D01*
X805611Y464955D01*
X805314Y465054D01*
X804957Y465134D01*
X804560Y465154D01*
X804441D01*
X804362Y465134D01*
X804163Y465114D01*
X803905Y465074D01*
X803608Y464975D01*
X803291Y464856D01*
X802993Y464678D01*
X802715Y464439D01*
X802695Y464400D01*
X802616Y464320D01*
X802497Y464162D01*
X802378Y463943D01*
X802239Y463666D01*
X802140Y463348D01*
X802061Y462971D01*
X802021Y462535D01*
X800375Y462714D01*
Y462733D01*
Y462793D01*
X800394Y462892D01*
X800414Y463011D01*
X800454Y463170D01*
X800474Y463348D01*
X800593Y463745D01*
X800751Y464201D01*
X800970Y464658D01*
X801267Y465114D01*
X801426Y465312D01*
X801624Y465511D01*
X801644Y465531D01*
X801684Y465550D01*
X801743Y465610D01*
X801823Y465669D01*
X801942Y465729D01*
X802081Y465828D01*
X802239Y465907D01*
X802418Y466007D01*
X802616Y466086D01*
X802834Y466185D01*
X803092Y466264D01*
X803350Y466324D01*
X803945Y466443D01*
X804263Y466463D01*
X804600Y466483D01*
X804778D01*
X804917Y466463D01*
D02*
G37*
G36*
X794800D02*
X794959Y466443D01*
X795137Y466423D01*
X795336Y466403D01*
X795554Y466344D01*
X796030Y466225D01*
X796526Y466046D01*
X796784Y465927D01*
X797022Y465788D01*
X797240Y465610D01*
X797458Y465431D01*
X797478Y465411D01*
X797498Y465392D01*
X797558Y465332D01*
X797637Y465253D01*
X797716Y465134D01*
X797815Y465015D01*
X798014Y464717D01*
X798212Y464340D01*
X798391Y463904D01*
X798530Y463408D01*
X798549Y463130D01*
X798569Y462852D01*
Y462813D01*
Y462714D01*
X798549Y462555D01*
X798530Y462356D01*
X798490Y462118D01*
X798430Y461861D01*
X798351Y461583D01*
X798232Y461305D01*
X798212Y461265D01*
X798173Y461166D01*
X798093Y461027D01*
X797974Y460829D01*
X797835Y460591D01*
X797657Y460313D01*
X797419Y460036D01*
X797161Y459718D01*
X797121Y459678D01*
X797022Y459559D01*
X796843Y459381D01*
X796724Y459262D01*
X796585Y459123D01*
X796427Y458964D01*
X796228Y458786D01*
X796030Y458607D01*
X795812Y458389D01*
X795574Y458171D01*
X795296Y457933D01*
X795018Y457695D01*
X794701Y457417D01*
X794681Y457397D01*
X794641Y457357D01*
X794562Y457298D01*
X794463Y457219D01*
X794225Y457020D01*
X793927Y456762D01*
X793630Y456485D01*
X793312Y456207D01*
X793055Y455969D01*
X792955Y455870D01*
X792856Y455770D01*
X792836Y455751D01*
X792797Y455691D01*
X792717Y455612D01*
X792618Y455493D01*
X792400Y455235D01*
X792182Y454917D01*
X798589D01*
Y453390D01*
X789960D01*
Y453410D01*
Y453489D01*
Y453608D01*
X789980Y453747D01*
X789999Y453906D01*
X790019Y454084D01*
X790079Y454283D01*
X790138Y454481D01*
Y454501D01*
X790158Y454521D01*
X790198Y454640D01*
X790277Y454799D01*
X790396Y455037D01*
X790535Y455294D01*
X790733Y455592D01*
X790932Y455890D01*
X791190Y456207D01*
Y456227D01*
X791229Y456247D01*
X791329Y456366D01*
X791487Y456544D01*
X791725Y456782D01*
X792023Y457060D01*
X792380Y457397D01*
X792816Y457774D01*
X793292Y458191D01*
X793312Y458210D01*
X793392Y458270D01*
X793491Y458349D01*
X793630Y458488D01*
X793808Y458627D01*
X794007Y458806D01*
X794443Y459183D01*
X794919Y459639D01*
X795395Y460095D01*
X795633Y460313D01*
X795832Y460532D01*
X796010Y460750D01*
X796169Y460948D01*
Y460968D01*
X796209Y460988D01*
X796248Y461047D01*
X796288Y461127D01*
X796407Y461325D01*
X796546Y461583D01*
X796685Y461880D01*
X796804Y462198D01*
X796883Y462555D01*
X796923Y462892D01*
Y462912D01*
Y462932D01*
X796903Y463051D01*
X796883Y463229D01*
X796843Y463448D01*
X796744Y463705D01*
X796625Y463963D01*
X796467Y464241D01*
X796228Y464499D01*
X796189Y464519D01*
X796109Y464598D01*
X795951Y464697D01*
X795752Y464836D01*
X795495Y464955D01*
X795197Y465054D01*
X794840Y465134D01*
X794443Y465154D01*
X794324D01*
X794245Y465134D01*
X794046Y465114D01*
X793789Y465074D01*
X793491Y464975D01*
X793174Y464856D01*
X792876Y464678D01*
X792598Y464439D01*
X792578Y464400D01*
X792499Y464320D01*
X792380Y464162D01*
X792261Y463943D01*
X792122Y463666D01*
X792023Y463348D01*
X791944Y462971D01*
X791904Y462535D01*
X790257Y462714D01*
Y462733D01*
Y462793D01*
X790277Y462892D01*
X790297Y463011D01*
X790337Y463170D01*
X790357Y463348D01*
X790476Y463745D01*
X790634Y464201D01*
X790853Y464658D01*
X791150Y465114D01*
X791309Y465312D01*
X791507Y465511D01*
X791527Y465531D01*
X791567Y465550D01*
X791626Y465610D01*
X791705Y465669D01*
X791825Y465729D01*
X791963Y465828D01*
X792122Y465907D01*
X792301Y466007D01*
X792499Y466086D01*
X792717Y466185D01*
X792975Y466264D01*
X793233Y466324D01*
X793828Y466443D01*
X794146Y466463D01*
X794483Y466483D01*
X794661D01*
X794800Y466463D01*
D02*
G37*
G36*
X804759Y439793D02*
X805016Y439753D01*
X805314Y439694D01*
X805651Y439614D01*
X805988Y439495D01*
X806326Y439337D01*
X806346D01*
X806365Y439317D01*
X806484Y439257D01*
X806643Y439158D01*
X806842Y439019D01*
X807060Y438841D01*
X807298Y438622D01*
X807516Y438365D01*
X807714Y438087D01*
X807734Y438047D01*
X807794Y437948D01*
X807873Y437789D01*
X807952Y437591D01*
X808032Y437333D01*
X808111Y437055D01*
X808171Y436758D01*
X808190Y436421D01*
Y436381D01*
Y436282D01*
X808171Y436123D01*
X808131Y435925D01*
X808071Y435686D01*
X807992Y435429D01*
X807893Y435151D01*
X807734Y434893D01*
X807714Y434853D01*
X807655Y434774D01*
X807536Y434655D01*
X807397Y434496D01*
X807198Y434318D01*
X806980Y434139D01*
X806703Y433941D01*
X806385Y433782D01*
X806405D01*
X806445Y433762D01*
X806504D01*
X806584Y433723D01*
X806782Y433663D01*
X807040Y433544D01*
X807318Y433405D01*
X807615Y433207D01*
X807913Y432969D01*
X808171Y432671D01*
X808190Y432631D01*
X808270Y432513D01*
X808369Y432334D01*
X808508Y432096D01*
X808627Y431798D01*
X808726Y431441D01*
X808805Y431025D01*
X808825Y430569D01*
Y430549D01*
Y430489D01*
Y430410D01*
X808805Y430291D01*
X808785Y430132D01*
X808766Y429973D01*
X808726Y429775D01*
X808667Y429577D01*
X808528Y429120D01*
X808428Y428862D01*
X808290Y428624D01*
X808151Y428386D01*
X807992Y428148D01*
X807794Y427910D01*
X807575Y427672D01*
X807556Y427652D01*
X807516Y427613D01*
X807456Y427573D01*
X807357Y427494D01*
X807238Y427394D01*
X807079Y427295D01*
X806901Y427196D01*
X806722Y427097D01*
X806504Y426978D01*
X806266Y426879D01*
X806008Y426780D01*
X805731Y426680D01*
X805433Y426601D01*
X805116Y426561D01*
X804778Y426522D01*
X804441Y426502D01*
X804282D01*
X804163Y426522D01*
X804005Y426541D01*
X803846Y426561D01*
X803648Y426581D01*
X803449Y426621D01*
X802993Y426740D01*
X802517Y426938D01*
X802279Y427037D01*
X802061Y427176D01*
X801823Y427335D01*
X801604Y427514D01*
X801585Y427533D01*
X801565Y427553D01*
X801505Y427613D01*
X801426Y427692D01*
X801347Y427811D01*
X801247Y427930D01*
X801128Y428069D01*
X801029Y428228D01*
X800791Y428624D01*
X800593Y429081D01*
X800414Y429596D01*
X800355Y429874D01*
X800315Y430172D01*
X801922Y430390D01*
Y430370D01*
X801942Y430330D01*
Y430251D01*
X801981Y430172D01*
X802041Y429934D01*
X802140Y429636D01*
X802259Y429319D01*
X802418Y428982D01*
X802616Y428684D01*
X802834Y428426D01*
X802874Y428406D01*
X802953Y428327D01*
X803092Y428247D01*
X803291Y428129D01*
X803509Y428029D01*
X803786Y427930D01*
X804104Y427851D01*
X804441Y427831D01*
X804560D01*
X804640Y427851D01*
X804838Y427871D01*
X805096Y427930D01*
X805413Y428029D01*
X805731Y428148D01*
X806048Y428347D01*
X806346Y428605D01*
X806385Y428644D01*
X806465Y428743D01*
X806584Y428902D01*
X806742Y429140D01*
X806881Y429418D01*
X807000Y429755D01*
X807079Y430132D01*
X807119Y430549D01*
Y430569D01*
Y430588D01*
Y430648D01*
X807099Y430727D01*
X807079Y430925D01*
X807020Y431183D01*
X806941Y431461D01*
X806802Y431778D01*
X806623Y432076D01*
X806385Y432354D01*
X806346Y432393D01*
X806266Y432473D01*
X806107Y432572D01*
X805889Y432711D01*
X805631Y432850D01*
X805314Y432949D01*
X804977Y433028D01*
X804580Y433068D01*
X804401D01*
X804263Y433048D01*
X804104Y433028D01*
X803905Y433008D01*
X803687Y432969D01*
X803449Y432909D01*
X803628Y434318D01*
X803727D01*
X803806Y434298D01*
X804064D01*
X804243Y434318D01*
X804501Y434357D01*
X804778Y434417D01*
X805076Y434516D01*
X805393Y434635D01*
X805711Y434814D01*
X805750Y434833D01*
X805850Y434913D01*
X805969Y435052D01*
X806127Y435230D01*
X806286Y435448D01*
X806405Y435726D01*
X806504Y436063D01*
X806544Y436460D01*
Y436480D01*
Y436500D01*
Y436599D01*
X806504Y436758D01*
X806465Y436976D01*
X806405Y437194D01*
X806286Y437432D01*
X806147Y437690D01*
X805949Y437908D01*
X805929Y437928D01*
X805850Y438008D01*
X805711Y438107D01*
X805532Y438206D01*
X805314Y438325D01*
X805056Y438404D01*
X804759Y438484D01*
X804421Y438503D01*
X804263D01*
X804084Y438464D01*
X803886Y438424D01*
X803628Y438365D01*
X803370Y438246D01*
X803112Y438107D01*
X802854Y437908D01*
X802834Y437888D01*
X802755Y437809D01*
X802656Y437670D01*
X802537Y437472D01*
X802398Y437234D01*
X802279Y436936D01*
X802160Y436579D01*
X802081Y436163D01*
X800474Y436440D01*
Y436460D01*
X800493Y436520D01*
X800513Y436599D01*
X800533Y436698D01*
X800573Y436837D01*
X800612Y436996D01*
X800751Y437353D01*
X800910Y437750D01*
X801148Y438166D01*
X801426Y438563D01*
X801783Y438920D01*
X801803Y438940D01*
X801823Y438960D01*
X801882Y438999D01*
X801981Y439059D01*
X802081Y439118D01*
X802199Y439198D01*
X802497Y439376D01*
X802874Y439535D01*
X803330Y439674D01*
X803826Y439773D01*
X804104Y439813D01*
X804560D01*
X804759Y439793D01*
D02*
G37*
G36*
X794800D02*
X794959Y439773D01*
X795137Y439753D01*
X795336Y439733D01*
X795554Y439674D01*
X796030Y439555D01*
X796526Y439376D01*
X796784Y439257D01*
X797022Y439118D01*
X797240Y438940D01*
X797458Y438761D01*
X797478Y438741D01*
X797498Y438722D01*
X797558Y438662D01*
X797637Y438583D01*
X797716Y438464D01*
X797815Y438345D01*
X798014Y438047D01*
X798212Y437670D01*
X798391Y437234D01*
X798530Y436738D01*
X798549Y436460D01*
X798569Y436182D01*
Y436143D01*
Y436044D01*
X798549Y435885D01*
X798530Y435686D01*
X798490Y435448D01*
X798430Y435191D01*
X798351Y434913D01*
X798232Y434635D01*
X798212Y434595D01*
X798173Y434496D01*
X798093Y434357D01*
X797974Y434159D01*
X797835Y433921D01*
X797657Y433643D01*
X797419Y433366D01*
X797161Y433048D01*
X797121Y433008D01*
X797022Y432889D01*
X796843Y432711D01*
X796724Y432592D01*
X796585Y432453D01*
X796427Y432294D01*
X796228Y432116D01*
X796030Y431937D01*
X795812Y431719D01*
X795574Y431501D01*
X795296Y431263D01*
X795018Y431025D01*
X794701Y430747D01*
X794681Y430727D01*
X794641Y430687D01*
X794562Y430628D01*
X794463Y430549D01*
X794225Y430350D01*
X793927Y430092D01*
X793630Y429815D01*
X793312Y429537D01*
X793055Y429299D01*
X792955Y429200D01*
X792856Y429100D01*
X792836Y429081D01*
X792797Y429021D01*
X792717Y428942D01*
X792618Y428823D01*
X792400Y428565D01*
X792182Y428247D01*
X798589D01*
Y426720D01*
X789960D01*
Y426740D01*
Y426819D01*
Y426938D01*
X789980Y427077D01*
X789999Y427236D01*
X790019Y427414D01*
X790079Y427613D01*
X790138Y427811D01*
Y427831D01*
X790158Y427851D01*
X790198Y427970D01*
X790277Y428129D01*
X790396Y428367D01*
X790535Y428624D01*
X790733Y428922D01*
X790932Y429220D01*
X791190Y429537D01*
Y429557D01*
X791229Y429577D01*
X791329Y429696D01*
X791487Y429874D01*
X791725Y430112D01*
X792023Y430390D01*
X792380Y430727D01*
X792816Y431104D01*
X793292Y431521D01*
X793312Y431540D01*
X793392Y431600D01*
X793491Y431679D01*
X793630Y431818D01*
X793808Y431957D01*
X794007Y432136D01*
X794443Y432513D01*
X794919Y432969D01*
X795395Y433425D01*
X795633Y433643D01*
X795832Y433862D01*
X796010Y434080D01*
X796169Y434278D01*
Y434298D01*
X796209Y434318D01*
X796248Y434377D01*
X796288Y434457D01*
X796407Y434655D01*
X796546Y434913D01*
X796685Y435210D01*
X796804Y435528D01*
X796883Y435885D01*
X796923Y436222D01*
Y436242D01*
Y436262D01*
X796903Y436381D01*
X796883Y436559D01*
X796843Y436778D01*
X796744Y437035D01*
X796625Y437293D01*
X796467Y437571D01*
X796228Y437829D01*
X796189Y437849D01*
X796109Y437928D01*
X795951Y438027D01*
X795752Y438166D01*
X795495Y438285D01*
X795197Y438384D01*
X794840Y438464D01*
X794443Y438484D01*
X794324D01*
X794245Y438464D01*
X794046Y438444D01*
X793789Y438404D01*
X793491Y438305D01*
X793174Y438186D01*
X792876Y438008D01*
X792598Y437769D01*
X792578Y437730D01*
X792499Y437650D01*
X792380Y437492D01*
X792261Y437273D01*
X792122Y436996D01*
X792023Y436678D01*
X791944Y436301D01*
X791904Y435865D01*
X790257Y436044D01*
Y436063D01*
Y436123D01*
X790277Y436222D01*
X790297Y436341D01*
X790337Y436500D01*
X790357Y436678D01*
X790476Y437075D01*
X790634Y437531D01*
X790853Y437988D01*
X791150Y438444D01*
X791309Y438642D01*
X791507Y438841D01*
X791527Y438861D01*
X791567Y438880D01*
X791626Y438940D01*
X791705Y438999D01*
X791825Y439059D01*
X791963Y439158D01*
X792122Y439237D01*
X792301Y439337D01*
X792499Y439416D01*
X792717Y439515D01*
X792975Y439594D01*
X793233Y439654D01*
X793828Y439773D01*
X794146Y439793D01*
X794483Y439813D01*
X794661D01*
X794800Y439793D01*
D02*
G37*
G36*
X808290Y402092D02*
X810055D01*
Y400625D01*
X808290D01*
Y397510D01*
X806683D01*
Y400625D01*
X801030D01*
Y402092D01*
X806981Y410523D01*
X808290D01*
Y402092D01*
D02*
G37*
G36*
X796070Y410583D02*
X796229Y410563D01*
X796407Y410543D01*
X796606Y410523D01*
X796824Y410464D01*
X797300Y410345D01*
X797796Y410166D01*
X798054Y410047D01*
X798292Y409908D01*
X798510Y409730D01*
X798728Y409551D01*
X798748Y409532D01*
X798768Y409512D01*
X798828Y409452D01*
X798907Y409373D01*
X798986Y409254D01*
X799085Y409135D01*
X799284Y408837D01*
X799482Y408460D01*
X799661Y408024D01*
X799800Y407528D01*
X799819Y407250D01*
X799839Y406972D01*
Y406933D01*
Y406834D01*
X799819Y406675D01*
X799800Y406477D01*
X799760Y406239D01*
X799700Y405981D01*
X799621Y405703D01*
X799502Y405425D01*
X799482Y405385D01*
X799443Y405286D01*
X799363Y405147D01*
X799244Y404949D01*
X799105Y404711D01*
X798927Y404433D01*
X798689Y404156D01*
X798431Y403838D01*
X798391Y403798D01*
X798292Y403679D01*
X798113Y403501D01*
X797994Y403382D01*
X797856Y403243D01*
X797697Y403084D01*
X797498Y402906D01*
X797300Y402727D01*
X797082Y402509D01*
X796844Y402291D01*
X796566Y402053D01*
X796288Y401815D01*
X795971Y401537D01*
X795951Y401517D01*
X795911Y401478D01*
X795832Y401418D01*
X795733Y401339D01*
X795495Y401140D01*
X795197Y400882D01*
X794900Y400605D01*
X794582Y400327D01*
X794324Y400089D01*
X794225Y399990D01*
X794126Y399891D01*
X794106Y399871D01*
X794067Y399811D01*
X793987Y399732D01*
X793888Y399613D01*
X793670Y399355D01*
X793452Y399038D01*
X799859D01*
Y397510D01*
X791230D01*
Y397530D01*
Y397609D01*
Y397728D01*
X791250Y397867D01*
X791270Y398026D01*
X791289Y398204D01*
X791349Y398403D01*
X791408Y398601D01*
Y398621D01*
X791428Y398641D01*
X791468Y398760D01*
X791547Y398918D01*
X791666Y399156D01*
X791805Y399414D01*
X792003Y399712D01*
X792202Y400009D01*
X792460Y400327D01*
Y400347D01*
X792499Y400367D01*
X792599Y400486D01*
X792757Y400664D01*
X792995Y400902D01*
X793293Y401180D01*
X793650Y401517D01*
X794086Y401894D01*
X794563Y402311D01*
X794582Y402331D01*
X794662Y402390D01*
X794761Y402469D01*
X794900Y402608D01*
X795078Y402747D01*
X795277Y402926D01*
X795713Y403302D01*
X796189Y403759D01*
X796665Y404215D01*
X796903Y404433D01*
X797102Y404651D01*
X797280Y404870D01*
X797439Y405068D01*
Y405088D01*
X797479Y405108D01*
X797518Y405167D01*
X797558Y405247D01*
X797677Y405445D01*
X797816Y405703D01*
X797955Y406000D01*
X798074Y406318D01*
X798153Y406675D01*
X798193Y407012D01*
Y407032D01*
Y407052D01*
X798173Y407171D01*
X798153Y407349D01*
X798113Y407568D01*
X798014Y407825D01*
X797895Y408083D01*
X797737Y408361D01*
X797498Y408619D01*
X797459Y408639D01*
X797379Y408718D01*
X797221Y408817D01*
X797022Y408956D01*
X796765Y409075D01*
X796467Y409174D01*
X796110Y409254D01*
X795713Y409274D01*
X795594D01*
X795515Y409254D01*
X795316Y409234D01*
X795059Y409194D01*
X794761Y409095D01*
X794444Y408976D01*
X794146Y408797D01*
X793868Y408559D01*
X793848Y408520D01*
X793769Y408440D01*
X793650Y408282D01*
X793531Y408064D01*
X793392Y407786D01*
X793293Y407468D01*
X793214Y407091D01*
X793174Y406655D01*
X791527Y406834D01*
Y406853D01*
Y406913D01*
X791547Y407012D01*
X791567Y407131D01*
X791607Y407290D01*
X791627Y407468D01*
X791746Y407865D01*
X791904Y408321D01*
X792122Y408778D01*
X792420Y409234D01*
X792579Y409432D01*
X792777Y409631D01*
X792797Y409650D01*
X792837Y409670D01*
X792896Y409730D01*
X792975Y409789D01*
X793095Y409849D01*
X793233Y409948D01*
X793392Y410027D01*
X793571Y410127D01*
X793769Y410206D01*
X793987Y410305D01*
X794245Y410384D01*
X794503Y410444D01*
X795098Y410563D01*
X795415Y410583D01*
X795753Y410603D01*
X795931D01*
X796070Y410583D01*
D02*
G37*
G36*
X785910Y715383D02*
X786069Y715363D01*
X786247Y715343D01*
X786446Y715323D01*
X786664Y715264D01*
X787140Y715145D01*
X787636Y714966D01*
X787894Y714847D01*
X788132Y714708D01*
X788350Y714530D01*
X788568Y714351D01*
X788588Y714332D01*
X788608Y714312D01*
X788668Y714252D01*
X788747Y714173D01*
X788826Y714054D01*
X788925Y713935D01*
X789124Y713637D01*
X789322Y713260D01*
X789501Y712824D01*
X789640Y712328D01*
X789659Y712050D01*
X789679Y711772D01*
Y711733D01*
Y711634D01*
X789659Y711475D01*
X789640Y711276D01*
X789600Y711039D01*
X789540Y710781D01*
X789461Y710503D01*
X789342Y710225D01*
X789322Y710185D01*
X789283Y710086D01*
X789203Y709947D01*
X789084Y709749D01*
X788945Y709511D01*
X788767Y709233D01*
X788529Y708956D01*
X788271Y708638D01*
X788231Y708598D01*
X788132Y708479D01*
X787953Y708301D01*
X787834Y708182D01*
X787695Y708043D01*
X787537Y707884D01*
X787338Y707706D01*
X787140Y707527D01*
X786922Y707309D01*
X786684Y707091D01*
X786406Y706853D01*
X786128Y706615D01*
X785811Y706337D01*
X785791Y706317D01*
X785751Y706277D01*
X785672Y706218D01*
X785573Y706139D01*
X785335Y705940D01*
X785037Y705682D01*
X784740Y705405D01*
X784422Y705127D01*
X784165Y704889D01*
X784065Y704790D01*
X783966Y704690D01*
X783946Y704671D01*
X783907Y704611D01*
X783827Y704532D01*
X783728Y704413D01*
X783510Y704155D01*
X783292Y703838D01*
X789699D01*
Y702310D01*
X781070D01*
Y702330D01*
Y702409D01*
Y702528D01*
X781090Y702667D01*
X781109Y702826D01*
X781129Y703004D01*
X781189Y703203D01*
X781248Y703401D01*
Y703421D01*
X781268Y703441D01*
X781308Y703560D01*
X781387Y703718D01*
X781506Y703957D01*
X781645Y704214D01*
X781843Y704512D01*
X782042Y704809D01*
X782300Y705127D01*
Y705147D01*
X782339Y705167D01*
X782439Y705286D01*
X782597Y705464D01*
X782835Y705702D01*
X783133Y705980D01*
X783490Y706317D01*
X783926Y706694D01*
X784402Y707111D01*
X784422Y707131D01*
X784502Y707190D01*
X784601Y707269D01*
X784740Y707408D01*
X784918Y707547D01*
X785117Y707726D01*
X785553Y708102D01*
X786029Y708559D01*
X786505Y709015D01*
X786743Y709233D01*
X786942Y709452D01*
X787120Y709670D01*
X787279Y709868D01*
Y709888D01*
X787319Y709908D01*
X787358Y709967D01*
X787398Y710047D01*
X787517Y710245D01*
X787656Y710503D01*
X787795Y710800D01*
X787914Y711118D01*
X787993Y711475D01*
X788033Y711812D01*
Y711832D01*
Y711852D01*
X788013Y711971D01*
X787993Y712149D01*
X787953Y712368D01*
X787854Y712625D01*
X787735Y712883D01*
X787577Y713161D01*
X787338Y713419D01*
X787299Y713439D01*
X787219Y713518D01*
X787061Y713617D01*
X786862Y713756D01*
X786605Y713875D01*
X786307Y713974D01*
X785950Y714054D01*
X785553Y714074D01*
X785434D01*
X785355Y714054D01*
X785156Y714034D01*
X784899Y713994D01*
X784601Y713895D01*
X784284Y713776D01*
X783986Y713597D01*
X783708Y713359D01*
X783688Y713320D01*
X783609Y713240D01*
X783490Y713082D01*
X783371Y712863D01*
X783232Y712586D01*
X783133Y712268D01*
X783054Y711891D01*
X783014Y711455D01*
X781367Y711634D01*
Y711653D01*
Y711713D01*
X781387Y711812D01*
X781407Y711931D01*
X781447Y712090D01*
X781467Y712268D01*
X781586Y712665D01*
X781744Y713121D01*
X781963Y713578D01*
X782260Y714034D01*
X782419Y714232D01*
X782617Y714431D01*
X782637Y714451D01*
X782677Y714470D01*
X782736Y714530D01*
X782815Y714589D01*
X782935Y714649D01*
X783073Y714748D01*
X783232Y714827D01*
X783411Y714927D01*
X783609Y715006D01*
X783827Y715105D01*
X784085Y715184D01*
X784343Y715244D01*
X784938Y715363D01*
X785256Y715383D01*
X785593Y715403D01*
X785771D01*
X785910Y715383D01*
D02*
G37*
G36*
X796027D02*
X796265Y715343D01*
X796543Y715303D01*
X796860Y715224D01*
X797178Y715105D01*
X797475Y714966D01*
X797515Y714946D01*
X797614Y714887D01*
X797753Y714788D01*
X797952Y714669D01*
X798150Y714490D01*
X798368Y714272D01*
X798586Y714034D01*
X798785Y713756D01*
X798804Y713717D01*
X798864Y713617D01*
X798963Y713439D01*
X799082Y713221D01*
X799201Y712943D01*
X799340Y712606D01*
X799479Y712229D01*
X799598Y711812D01*
Y711792D01*
X799618Y711753D01*
Y711693D01*
X799638Y711594D01*
X799677Y711495D01*
X799697Y711356D01*
X799717Y711177D01*
X799757Y710999D01*
X799777Y710781D01*
X799796Y710562D01*
X799836Y710304D01*
X799856Y710027D01*
X799876Y709729D01*
Y709432D01*
X799895Y708737D01*
Y708717D01*
Y708638D01*
Y708519D01*
Y708360D01*
X799876Y708162D01*
Y707944D01*
X799856Y707686D01*
X799836Y707408D01*
X799777Y706813D01*
X799697Y706198D01*
X799578Y705583D01*
X799499Y705305D01*
X799419Y705028D01*
Y705008D01*
X799400Y704968D01*
X799380Y704889D01*
X799340Y704790D01*
X799281Y704671D01*
X799221Y704552D01*
X799062Y704234D01*
X798864Y703877D01*
X798626Y703520D01*
X798348Y703163D01*
X798011Y702846D01*
X797991D01*
X797971Y702806D01*
X797912Y702786D01*
X797852Y702727D01*
X797634Y702608D01*
X797376Y702469D01*
X797019Y702330D01*
X796622Y702211D01*
X796166Y702132D01*
X795650Y702092D01*
X795472D01*
X795333Y702112D01*
X795174Y702132D01*
X794996Y702171D01*
X794797Y702211D01*
X794579Y702251D01*
X794103Y702409D01*
X793845Y702528D01*
X793607Y702647D01*
X793349Y702806D01*
X793111Y702984D01*
X792893Y703183D01*
X792675Y703421D01*
X792655Y703441D01*
X792615Y703500D01*
X792556Y703599D01*
X792476Y703738D01*
X792377Y703917D01*
X792278Y704135D01*
X792159Y704393D01*
X792040Y704710D01*
X791921Y705048D01*
X791802Y705444D01*
X791703Y705881D01*
X791603Y706357D01*
X791524Y706892D01*
X791465Y707448D01*
X791425Y708083D01*
X791405Y708737D01*
Y708757D01*
Y708837D01*
Y708956D01*
Y709114D01*
X791425Y709313D01*
Y709531D01*
X791445Y709789D01*
X791465Y710066D01*
X791524Y710661D01*
X791603Y711276D01*
X791703Y711891D01*
X791782Y712169D01*
X791861Y712447D01*
Y712467D01*
X791881Y712506D01*
X791921Y712586D01*
X791961Y712685D01*
X792000Y712804D01*
X792060Y712943D01*
X792218Y713260D01*
X792417Y713617D01*
X792655Y713974D01*
X792933Y714312D01*
X793270Y714629D01*
X793290D01*
X793309Y714669D01*
X793369Y714708D01*
X793448Y714748D01*
X793647Y714867D01*
X793924Y715026D01*
X794262Y715165D01*
X794678Y715284D01*
X795135Y715363D01*
X795650Y715403D01*
X795829D01*
X796027Y715383D01*
D02*
G37*
%LPC*%
G36*
X795591Y772513D02*
X795432D01*
X795273Y772474D01*
X795055Y772434D01*
X794817Y772375D01*
X794559Y772255D01*
X794301Y772117D01*
X794063Y771918D01*
X794044Y771898D01*
X793964Y771819D01*
X793885Y771680D01*
X793766Y771522D01*
X793667Y771323D01*
X793567Y771065D01*
X793488Y770807D01*
X793468Y770510D01*
Y770470D01*
Y770351D01*
X793508Y770192D01*
X793548Y769974D01*
X793607Y769736D01*
X793706Y769498D01*
X793845Y769240D01*
X794044Y769002D01*
X794063Y768982D01*
X794143Y768923D01*
X794281Y768824D01*
X794460Y768725D01*
X794678Y768605D01*
X794956Y768526D01*
X795254Y768447D01*
X795591Y768427D01*
X795750D01*
X795908Y768467D01*
X796126Y768506D01*
X796365Y768566D01*
X796622Y768665D01*
X796880Y768804D01*
X797118Y769002D01*
X797138Y769022D01*
X797217Y769101D01*
X797317Y769220D01*
X797416Y769399D01*
X797535Y769597D01*
X797614Y769855D01*
X797694Y770133D01*
X797713Y770431D01*
Y770450D01*
Y770470D01*
Y770569D01*
X797674Y770748D01*
X797634Y770946D01*
X797555Y771164D01*
X797456Y771422D01*
X797297Y771660D01*
X797098Y771898D01*
X797079Y771918D01*
X796999Y771998D01*
X796860Y772097D01*
X796682Y772216D01*
X796464Y772315D01*
X796206Y772414D01*
X795928Y772494D01*
X795591Y772513D01*
D02*
G37*
G36*
X795551Y767118D02*
X795452D01*
X795373Y767098D01*
X795154Y767078D01*
X794896Y767019D01*
X794599Y766939D01*
X794281Y766800D01*
X793984Y766622D01*
X793686Y766364D01*
X793647Y766324D01*
X793567Y766225D01*
X793448Y766066D01*
X793329Y765848D01*
X793191Y765570D01*
X793072Y765253D01*
X792992Y764876D01*
X792952Y764479D01*
Y764459D01*
Y764360D01*
X792972Y764241D01*
X792992Y764063D01*
X793032Y763864D01*
X793091Y763626D01*
X793171Y763388D01*
X793270Y763150D01*
X793290Y763130D01*
X793329Y763051D01*
X793409Y762932D01*
X793508Y762793D01*
X793647Y762634D01*
X793805Y762456D01*
X794004Y762297D01*
X794222Y762158D01*
X794262Y762139D01*
X794341Y762099D01*
X794460Y762059D01*
X794639Y762000D01*
X794857Y761920D01*
X795075Y761881D01*
X795333Y761841D01*
X795611Y761821D01*
X795730D01*
X795809Y761841D01*
X796007Y761861D01*
X796285Y761920D01*
X796583Y762000D01*
X796900Y762139D01*
X797198Y762317D01*
X797495Y762555D01*
X797535Y762595D01*
X797614Y762694D01*
X797733Y762853D01*
X797872Y763071D01*
X798011Y763329D01*
X798130Y763666D01*
X798209Y764023D01*
X798249Y764440D01*
Y764459D01*
Y764499D01*
Y764559D01*
X798229Y764638D01*
X798209Y764836D01*
X798150Y765114D01*
X798071Y765412D01*
X797932Y765729D01*
X797733Y766046D01*
X797475Y766344D01*
X797436Y766384D01*
X797337Y766463D01*
X797178Y766582D01*
X796960Y766741D01*
X796682Y766880D01*
X796345Y766999D01*
X795968Y767078D01*
X795551Y767118D01*
D02*
G37*
G36*
X795611Y745824D02*
X795511D01*
X795432Y745804D01*
X795234Y745784D01*
X794976Y745724D01*
X794678Y745605D01*
X794381Y745447D01*
X794063Y745248D01*
X793905Y745109D01*
X793746Y744951D01*
X793706Y744911D01*
X793627Y744792D01*
X793508Y744594D01*
X793369Y744336D01*
X793210Y744018D01*
X793091Y743622D01*
X793012Y743185D01*
X792972Y742689D01*
Y742669D01*
Y742630D01*
Y742570D01*
X792992Y742491D01*
X793012Y742253D01*
X793072Y741975D01*
X793151Y741638D01*
X793290Y741301D01*
X793468Y740983D01*
X793706Y740666D01*
X793746Y740626D01*
X793845Y740547D01*
X794004Y740428D01*
X794222Y740289D01*
X794500Y740130D01*
X794817Y740011D01*
X795174Y739932D01*
X795571Y739892D01*
X795670D01*
X795750Y739912D01*
X795948Y739932D01*
X796206Y739991D01*
X796484Y740091D01*
X796801Y740210D01*
X797098Y740408D01*
X797376Y740666D01*
X797416Y740705D01*
X797495Y740805D01*
X797614Y740983D01*
X797753Y741221D01*
X797872Y741539D01*
X797991Y741896D01*
X798071Y742332D01*
X798110Y742808D01*
Y742828D01*
Y742868D01*
Y742947D01*
X798090Y743046D01*
Y743165D01*
X798071Y743284D01*
X798011Y743602D01*
X797932Y743959D01*
X797793Y744316D01*
X797614Y744673D01*
X797376Y745010D01*
X797337Y745050D01*
X797237Y745129D01*
X797098Y745268D01*
X796880Y745427D01*
X796622Y745566D01*
X796325Y745705D01*
X795988Y745784D01*
X795611Y745824D01*
D02*
G37*
G36*
X1464722Y1048084D02*
X1464623D01*
X1464544Y1048064D01*
X1464346Y1048044D01*
X1464088Y1047965D01*
X1463810Y1047846D01*
X1463512Y1047687D01*
X1463215Y1047449D01*
X1463076Y1047290D01*
X1462957Y1047131D01*
Y1047112D01*
X1462917Y1047072D01*
X1462878Y1046992D01*
X1462838Y1046893D01*
X1462778Y1046755D01*
X1462699Y1046596D01*
X1462620Y1046378D01*
X1462560Y1046140D01*
X1462481Y1045862D01*
X1462401Y1045544D01*
X1462342Y1045187D01*
X1462263Y1044771D01*
X1462223Y1044334D01*
X1462183Y1043858D01*
X1462144Y1043323D01*
Y1042747D01*
Y1042708D01*
Y1042608D01*
Y1042450D01*
X1462164Y1042232D01*
Y1041974D01*
X1462183Y1041676D01*
X1462203Y1041339D01*
X1462243Y1041002D01*
X1462322Y1040287D01*
X1462461Y1039573D01*
X1462540Y1039256D01*
X1462640Y1038958D01*
X1462759Y1038681D01*
X1462878Y1038462D01*
Y1038443D01*
X1462917Y1038423D01*
X1463017Y1038304D01*
X1463175Y1038125D01*
X1463393Y1037947D01*
X1463671Y1037748D01*
X1463988Y1037570D01*
X1464346Y1037451D01*
X1464544Y1037431D01*
X1464742Y1037411D01*
X1464841D01*
X1464921Y1037431D01*
X1465119Y1037471D01*
X1465377Y1037550D01*
X1465675Y1037669D01*
X1465972Y1037848D01*
X1466131Y1037967D01*
X1466290Y1038125D01*
X1466448Y1038284D01*
X1466587Y1038462D01*
Y1038482D01*
X1466627Y1038522D01*
X1466667Y1038581D01*
X1466706Y1038681D01*
X1466766Y1038800D01*
X1466825Y1038978D01*
X1466885Y1039177D01*
X1466964Y1039395D01*
X1467043Y1039672D01*
X1467103Y1039970D01*
X1467162Y1040327D01*
X1467222Y1040724D01*
X1467281Y1041160D01*
X1467301Y1041636D01*
X1467341Y1042172D01*
Y1042747D01*
Y1042787D01*
Y1042886D01*
Y1043045D01*
X1467321Y1043263D01*
Y1043521D01*
X1467301Y1043819D01*
X1467281Y1044136D01*
X1467242Y1044493D01*
X1467162Y1045207D01*
X1467024Y1045901D01*
X1466944Y1046239D01*
X1466845Y1046536D01*
X1466726Y1046794D01*
X1466587Y1047012D01*
Y1047032D01*
X1466548Y1047052D01*
X1466448Y1047171D01*
X1466290Y1047350D01*
X1466071Y1047548D01*
X1465794Y1047746D01*
X1465476Y1047925D01*
X1465119Y1048044D01*
X1464921Y1048064D01*
X1464722Y1048084D01*
D02*
G37*
G36*
X1487645D02*
X1487546D01*
X1487466Y1048064D01*
X1487268Y1048044D01*
X1487010Y1047984D01*
X1486712Y1047865D01*
X1486415Y1047707D01*
X1486098Y1047508D01*
X1485939Y1047369D01*
X1485780Y1047211D01*
X1485741Y1047171D01*
X1485661Y1047052D01*
X1485542Y1046854D01*
X1485403Y1046596D01*
X1485245Y1046278D01*
X1485125Y1045882D01*
X1485046Y1045445D01*
X1485007Y1044949D01*
Y1044929D01*
Y1044890D01*
Y1044830D01*
X1485026Y1044751D01*
X1485046Y1044513D01*
X1485106Y1044235D01*
X1485185Y1043898D01*
X1485324Y1043561D01*
X1485502Y1043243D01*
X1485741Y1042926D01*
X1485780Y1042886D01*
X1485879Y1042807D01*
X1486038Y1042688D01*
X1486256Y1042549D01*
X1486534Y1042390D01*
X1486851Y1042271D01*
X1487209Y1042192D01*
X1487605Y1042152D01*
X1487704D01*
X1487784Y1042172D01*
X1487982Y1042192D01*
X1488240Y1042251D01*
X1488518Y1042351D01*
X1488835Y1042470D01*
X1489133Y1042668D01*
X1489410Y1042926D01*
X1489450Y1042965D01*
X1489529Y1043065D01*
X1489648Y1043243D01*
X1489787Y1043481D01*
X1489906Y1043799D01*
X1490025Y1044156D01*
X1490105Y1044592D01*
X1490144Y1045068D01*
Y1045088D01*
Y1045128D01*
Y1045207D01*
X1490125Y1045306D01*
Y1045425D01*
X1490105Y1045544D01*
X1490045Y1045862D01*
X1489966Y1046219D01*
X1489827Y1046576D01*
X1489648Y1046933D01*
X1489410Y1047270D01*
X1489371Y1047310D01*
X1489272Y1047389D01*
X1489133Y1047528D01*
X1488914Y1047687D01*
X1488657Y1047826D01*
X1488359Y1047965D01*
X1488022Y1048044D01*
X1487645Y1048084D01*
D02*
G37*
G36*
X1543664Y1043362D02*
X1543565D01*
X1543485Y1043342D01*
X1543287Y1043323D01*
X1543029Y1043263D01*
X1542751Y1043164D01*
X1542434Y1043025D01*
X1542136Y1042827D01*
X1541839Y1042569D01*
X1541799Y1042529D01*
X1541720Y1042430D01*
X1541601Y1042251D01*
X1541462Y1042033D01*
X1541323Y1041736D01*
X1541204Y1041378D01*
X1541125Y1040982D01*
X1541085Y1040526D01*
Y1040486D01*
Y1040387D01*
X1541105Y1040228D01*
X1541125Y1040030D01*
X1541164Y1039772D01*
X1541224Y1039514D01*
X1541303Y1039236D01*
X1541422Y1038939D01*
X1541442Y1038899D01*
X1541482Y1038820D01*
X1541561Y1038681D01*
X1541680Y1038522D01*
X1541819Y1038324D01*
X1541978Y1038145D01*
X1542176Y1037947D01*
X1542394Y1037788D01*
X1542414Y1037768D01*
X1542513Y1037729D01*
X1542632Y1037669D01*
X1542791Y1037609D01*
X1542989Y1037530D01*
X1543227Y1037471D01*
X1543465Y1037431D01*
X1543723Y1037411D01*
X1543822D01*
X1543902Y1037431D01*
X1544080Y1037451D01*
X1544338Y1037510D01*
X1544596Y1037609D01*
X1544894Y1037748D01*
X1545191Y1037947D01*
X1545469Y1038224D01*
X1545509Y1038264D01*
X1545588Y1038383D01*
X1545707Y1038562D01*
X1545846Y1038800D01*
X1545965Y1039117D01*
X1546084Y1039514D01*
X1546163Y1039950D01*
X1546203Y1040446D01*
Y1040466D01*
Y1040506D01*
Y1040585D01*
X1546183Y1040664D01*
Y1040783D01*
X1546163Y1040922D01*
X1546124Y1041220D01*
X1546024Y1041557D01*
X1545905Y1041914D01*
X1545727Y1042251D01*
X1545489Y1042569D01*
X1545449Y1042608D01*
X1545370Y1042688D01*
X1545211Y1042827D01*
X1544993Y1042965D01*
X1544735Y1043104D01*
X1544418Y1043243D01*
X1544061Y1043323D01*
X1543664Y1043362D01*
D02*
G37*
G36*
X1208301Y233102D02*
X1208202D01*
X1208123Y233082D01*
X1207925Y233063D01*
X1207667Y233003D01*
X1207389Y232904D01*
X1207072Y232765D01*
X1206774Y232567D01*
X1206477Y232309D01*
X1206437Y232269D01*
X1206357Y232170D01*
X1206238Y231991D01*
X1206100Y231773D01*
X1205961Y231476D01*
X1205842Y231119D01*
X1205762Y230722D01*
X1205723Y230266D01*
Y230226D01*
Y230127D01*
X1205742Y229968D01*
X1205762Y229770D01*
X1205802Y229512D01*
X1205862Y229254D01*
X1205941Y228976D01*
X1206060Y228678D01*
X1206080Y228639D01*
X1206119Y228559D01*
X1206199Y228421D01*
X1206318Y228262D01*
X1206457Y228064D01*
X1206615Y227885D01*
X1206814Y227687D01*
X1207032Y227528D01*
X1207052Y227508D01*
X1207151Y227468D01*
X1207270Y227409D01*
X1207429Y227349D01*
X1207627Y227270D01*
X1207865Y227211D01*
X1208103Y227171D01*
X1208361Y227151D01*
X1208460D01*
X1208540Y227171D01*
X1208718Y227191D01*
X1208976Y227250D01*
X1209234Y227349D01*
X1209531Y227488D01*
X1209829Y227687D01*
X1210107Y227964D01*
X1210146Y228004D01*
X1210226Y228123D01*
X1210345Y228302D01*
X1210484Y228540D01*
X1210603Y228857D01*
X1210722Y229254D01*
X1210801Y229690D01*
X1210841Y230186D01*
Y230206D01*
Y230246D01*
Y230325D01*
X1210821Y230404D01*
Y230523D01*
X1210801Y230662D01*
X1210761Y230960D01*
X1210662Y231297D01*
X1210543Y231654D01*
X1210365Y231991D01*
X1210127Y232309D01*
X1210087Y232348D01*
X1210008Y232428D01*
X1209849Y232567D01*
X1209631Y232705D01*
X1209373Y232844D01*
X1209055Y232983D01*
X1208698Y233063D01*
X1208301Y233102D01*
D02*
G37*
G36*
X1291625Y236256D02*
X1287539Y230424D01*
X1291625D01*
Y236256D01*
D02*
G37*
G36*
X1612204Y583185D02*
X1608117Y577352D01*
X1612204D01*
Y583185D01*
D02*
G37*
G36*
X1143475Y1052132D02*
X1143316D01*
X1143158Y1052092D01*
X1142939Y1052052D01*
X1142701Y1051993D01*
X1142443Y1051874D01*
X1142185Y1051735D01*
X1141947Y1051536D01*
X1141928Y1051517D01*
X1141848Y1051437D01*
X1141769Y1051299D01*
X1141650Y1051140D01*
X1141551Y1050941D01*
X1141451Y1050684D01*
X1141372Y1050426D01*
X1141352Y1050128D01*
Y1050088D01*
Y1049969D01*
X1141392Y1049811D01*
X1141432Y1049592D01*
X1141491Y1049354D01*
X1141590Y1049116D01*
X1141729Y1048858D01*
X1141928Y1048620D01*
X1141947Y1048601D01*
X1142027Y1048541D01*
X1142166Y1048442D01*
X1142344Y1048343D01*
X1142562Y1048224D01*
X1142840Y1048144D01*
X1143138Y1048065D01*
X1143475Y1048045D01*
X1143634D01*
X1143792Y1048085D01*
X1144010Y1048124D01*
X1144249Y1048184D01*
X1144506Y1048283D01*
X1144764Y1048422D01*
X1145002Y1048620D01*
X1145022Y1048640D01*
X1145101Y1048720D01*
X1145201Y1048839D01*
X1145300Y1049017D01*
X1145419Y1049215D01*
X1145498Y1049473D01*
X1145578Y1049751D01*
X1145598Y1050049D01*
Y1050069D01*
Y1050088D01*
Y1050188D01*
X1145558Y1050366D01*
X1145518Y1050564D01*
X1145439Y1050783D01*
X1145340Y1051041D01*
X1145181Y1051279D01*
X1144983Y1051517D01*
X1144963Y1051536D01*
X1144883Y1051616D01*
X1144744Y1051715D01*
X1144566Y1051834D01*
X1144348Y1051933D01*
X1144090Y1052032D01*
X1143812Y1052112D01*
X1143475Y1052132D01*
D02*
G37*
G36*
X1143435Y1046736D02*
X1143336D01*
X1143257Y1046716D01*
X1143038Y1046696D01*
X1142781Y1046637D01*
X1142483Y1046557D01*
X1142166Y1046419D01*
X1141868Y1046240D01*
X1141571Y1045982D01*
X1141531Y1045942D01*
X1141451Y1045843D01*
X1141332Y1045685D01*
X1141213Y1045466D01*
X1141075Y1045189D01*
X1140956Y1044871D01*
X1140876Y1044494D01*
X1140836Y1044098D01*
Y1044078D01*
Y1043979D01*
X1140856Y1043859D01*
X1140876Y1043681D01*
X1140916Y1043483D01*
X1140975Y1043244D01*
X1141055Y1043006D01*
X1141154Y1042768D01*
X1141174Y1042748D01*
X1141213Y1042669D01*
X1141293Y1042550D01*
X1141392Y1042411D01*
X1141531Y1042253D01*
X1141690Y1042074D01*
X1141888Y1041915D01*
X1142106Y1041777D01*
X1142146Y1041757D01*
X1142225Y1041717D01*
X1142344Y1041677D01*
X1142523Y1041618D01*
X1142741Y1041538D01*
X1142959Y1041499D01*
X1143217Y1041459D01*
X1143495Y1041439D01*
X1143614D01*
X1143693Y1041459D01*
X1143892Y1041479D01*
X1144169Y1041538D01*
X1144467Y1041618D01*
X1144784Y1041757D01*
X1145082Y1041935D01*
X1145379Y1042173D01*
X1145419Y1042213D01*
X1145498Y1042312D01*
X1145617Y1042471D01*
X1145756Y1042689D01*
X1145895Y1042947D01*
X1146014Y1043284D01*
X1146093Y1043641D01*
X1146133Y1044058D01*
Y1044078D01*
Y1044117D01*
Y1044177D01*
X1146113Y1044256D01*
X1146093Y1044455D01*
X1146034Y1044732D01*
X1145955Y1045030D01*
X1145816Y1045347D01*
X1145617Y1045665D01*
X1145359Y1045962D01*
X1145320Y1046002D01*
X1145221Y1046081D01*
X1145062Y1046200D01*
X1144844Y1046359D01*
X1144566Y1046498D01*
X1144229Y1046617D01*
X1143852Y1046696D01*
X1143435Y1046736D01*
D02*
G37*
G36*
X806683Y407925D02*
X802597Y402092D01*
X806683D01*
Y407925D01*
D02*
G37*
G36*
X795630Y714074D02*
X795531D01*
X795452Y714054D01*
X795254Y714034D01*
X794996Y713955D01*
X794718Y713836D01*
X794420Y713677D01*
X794123Y713439D01*
X793984Y713280D01*
X793865Y713121D01*
Y713102D01*
X793825Y713062D01*
X793786Y712982D01*
X793746Y712883D01*
X793686Y712745D01*
X793607Y712586D01*
X793528Y712368D01*
X793468Y712130D01*
X793389Y711852D01*
X793309Y711534D01*
X793250Y711177D01*
X793171Y710761D01*
X793131Y710324D01*
X793091Y709848D01*
X793052Y709313D01*
Y708737D01*
Y708698D01*
Y708598D01*
Y708440D01*
X793072Y708222D01*
Y707964D01*
X793091Y707666D01*
X793111Y707329D01*
X793151Y706992D01*
X793230Y706277D01*
X793369Y705563D01*
X793448Y705246D01*
X793548Y704948D01*
X793667Y704671D01*
X793786Y704452D01*
Y704433D01*
X793825Y704413D01*
X793924Y704294D01*
X794083Y704115D01*
X794301Y703937D01*
X794579Y703738D01*
X794896Y703560D01*
X795254Y703441D01*
X795452Y703421D01*
X795650Y703401D01*
X795750D01*
X795829Y703421D01*
X796027Y703461D01*
X796285Y703540D01*
X796583Y703659D01*
X796880Y703838D01*
X797039Y703957D01*
X797198Y704115D01*
X797356Y704274D01*
X797495Y704452D01*
Y704472D01*
X797535Y704512D01*
X797575Y704572D01*
X797614Y704671D01*
X797674Y704790D01*
X797733Y704968D01*
X797793Y705167D01*
X797872Y705385D01*
X797952Y705663D01*
X798011Y705960D01*
X798071Y706317D01*
X798130Y706714D01*
X798189Y707150D01*
X798209Y707626D01*
X798249Y708162D01*
Y708737D01*
Y708777D01*
Y708876D01*
Y709035D01*
X798229Y709253D01*
Y709511D01*
X798209Y709809D01*
X798189Y710126D01*
X798150Y710483D01*
X798071Y711197D01*
X797932Y711891D01*
X797852Y712229D01*
X797753Y712526D01*
X797634Y712784D01*
X797495Y713002D01*
Y713022D01*
X797456Y713042D01*
X797356Y713161D01*
X797198Y713340D01*
X796979Y713538D01*
X796702Y713736D01*
X796384Y713915D01*
X796027Y714034D01*
X795829Y714054D01*
X795630Y714074D01*
D02*
G37*
%LPD*%
D10*
X1620520Y894385D02*
G03*
X1620520Y900735I0J3175D01*
G01*
X1481125Y665480D02*
G03*
X1487475Y665480I3175J0D01*
G01*
X1481125Y532130D02*
G03*
X1487475Y532130I3175J0D01*
G01*
X1481125Y466090D02*
G03*
X1487475Y466090I3175J0D01*
G01*
X1379220Y364795D02*
G03*
X1379220Y358445I0J-3175D01*
G01*
X1303020Y364795D02*
G03*
X1303020Y358445I0J-3175D01*
G01*
X1224280Y364795D02*
G03*
X1224280Y358445I0J-3175D01*
G01*
X1149350Y364795D02*
G03*
X1149350Y358445I0J-3175D01*
G01*
X954075Y270510D02*
G03*
X947725Y270510I-3175J0D01*
G01*
X954075Y347980D02*
G03*
X947725Y347980I-3175J0D01*
G01*
X954075Y424180D02*
G03*
X947725Y424180I-3175J0D01*
G01*
X954075Y505460D02*
G03*
X947725Y505460I-3175J0D01*
G01*
X954075Y589280D02*
G03*
X947725Y589280I-3175J0D01*
G01*
X954075Y674370D02*
G03*
X947725Y674370I-3175J0D01*
G01*
X954075Y751840D02*
G03*
X947725Y751840I-3175J0D01*
G01*
X954075Y844550D02*
G03*
X947725Y844550I-3175J0D01*
G01*
X1207770Y894385D02*
G03*
X1207770Y900735I0J3175D01*
G01*
X1287780Y894385D02*
G03*
X1287780Y900735I0J3175D01*
G01*
X1381760Y894385D02*
G03*
X1381760Y900735I0J3175D01*
G01*
X1456690Y894385D02*
G03*
X1456690Y900735I0J3175D01*
G01*
X1041400Y894385D02*
G03*
X1041400Y900735I0J3175D01*
G01*
X1122680Y894385D02*
G03*
X1122680Y900735I0J3175D01*
G01*
X1540510Y894385D02*
G03*
X1540510Y900735I0J3175D01*
G01*
X1481125Y603250D02*
G03*
X1487475Y603250I3175J0D01*
G01*
X1409700Y966470D02*
Y991870D01*
X1389380D02*
X1409700D01*
X1389380Y966470D02*
Y991870D01*
Y966470D02*
X1409700D01*
X1123950Y271780D02*
Y297180D01*
Y271780D02*
X1144270D01*
Y297180D01*
X1123950D02*
X1144270D01*
X1512570Y963930D02*
Y989330D01*
X1492250D02*
X1512570D01*
X1492250Y963930D02*
Y989330D01*
Y963930D02*
X1512570D01*
X1343660Y966470D02*
Y991870D01*
X1323340D02*
X1343660D01*
X1323340Y966470D02*
Y991870D01*
Y966470D02*
X1343660D01*
X1264920Y963930D02*
Y989330D01*
X1244600D02*
X1264920D01*
X1244600Y963930D02*
Y989330D01*
Y963930D02*
X1264920D01*
X1315720Y967740D02*
Y993140D01*
X1295400D02*
X1315720D01*
X1295400Y967740D02*
Y993140D01*
Y967740D02*
X1315720D01*
X1069340D02*
Y993140D01*
X1049020D02*
X1069340D01*
X1049020Y967740D02*
Y993140D01*
Y967740D02*
X1069340D01*
X1181100Y966470D02*
Y991870D01*
X1160780D02*
X1181100D01*
X1160780Y966470D02*
Y991870D01*
Y966470D02*
X1181100D01*
X1150620D02*
Y991870D01*
X1130300D02*
X1150620D01*
X1130300Y966470D02*
Y991870D01*
Y966470D02*
X1150620D01*
X1235710Y963930D02*
Y989330D01*
X1215390D02*
X1235710D01*
X1215390Y963930D02*
Y989330D01*
Y963930D02*
X1235710D01*
X1677670Y962660D02*
Y988060D01*
X1657350D02*
X1677670D01*
X1657350Y962660D02*
Y988060D01*
Y962660D02*
X1677670D01*
X1098550Y969010D02*
Y994410D01*
X1078230D02*
X1098550D01*
X1078230Y969010D02*
Y994410D01*
Y969010D02*
X1098550D01*
X1551940Y607060D02*
X1577340D01*
Y627380D01*
X1551940D02*
X1577340D01*
X1551940Y607060D02*
Y627380D01*
X1648460Y961390D02*
Y986790D01*
X1628140D02*
X1648460D01*
X1628140Y961390D02*
Y986790D01*
Y961390D02*
X1648460D01*
X1552290Y636270D02*
X1577690D01*
Y656590D01*
X1552290D02*
X1577690D01*
X1552290Y636270D02*
Y656590D01*
X851250Y299720D02*
X876650D01*
X851250Y279400D02*
Y299720D01*
Y279400D02*
X876650D01*
Y299720D01*
X1551590Y547370D02*
X1576990D01*
Y567690D01*
X1551590D02*
X1576990D01*
X1551590Y547370D02*
Y567690D01*
X1550670Y575310D02*
X1576070D01*
Y595630D01*
X1550670D02*
X1576070D01*
X1550670Y575310D02*
Y595630D01*
X1483360Y963930D02*
Y989330D01*
X1463040D02*
X1483360D01*
X1463040Y963930D02*
Y989330D01*
Y963930D02*
X1483360D01*
X1436370Y965200D02*
Y990600D01*
X1416050D02*
X1436370D01*
X1416050Y965200D02*
Y990600D01*
Y965200D02*
X1436370D01*
X1551940Y477520D02*
X1577340D01*
Y497840D01*
X1551940D02*
X1577340D01*
X1551940Y477520D02*
Y497840D01*
X1551590Y505460D02*
X1576990D01*
Y525780D01*
X1551590D02*
X1576990D01*
X1551590Y505460D02*
Y525780D01*
X1564640Y962660D02*
Y988060D01*
X1544320D02*
X1564640D01*
X1544320Y962660D02*
Y988060D01*
Y962660D02*
X1564640D01*
X1593850D02*
Y988060D01*
X1573530D02*
X1593850D01*
X1573530Y962660D02*
Y988060D01*
Y962660D02*
X1593850D01*
X850550Y477520D02*
X875950D01*
X850550Y457200D02*
Y477520D01*
Y457200D02*
X875950D01*
Y477520D01*
X853090Y533400D02*
X878490D01*
X853090Y513080D02*
Y533400D01*
Y513080D02*
X878490D01*
Y533400D01*
X853090Y558800D02*
X878490D01*
X853090Y538480D02*
Y558800D01*
Y538480D02*
X878490D01*
Y558800D01*
X1092200Y273050D02*
Y298450D01*
Y273050D02*
X1112520D01*
Y298450D01*
X1092200D02*
X1112520D01*
X852740Y377190D02*
X878140D01*
X852740Y356870D02*
Y377190D01*
Y356870D02*
X878140D01*
Y377190D01*
X851470Y452120D02*
X876870D01*
X851470Y431800D02*
Y452120D01*
Y431800D02*
X876870D01*
Y452120D01*
X854710Y617220D02*
X880110D01*
X854710Y596900D02*
Y617220D01*
Y596900D02*
X880110D01*
Y617220D01*
X853440Y728980D02*
X878840D01*
X853440Y708660D02*
Y728980D01*
Y708660D02*
X878840D01*
Y728980D01*
X853440Y802640D02*
X878840D01*
X853440Y782320D02*
Y802640D01*
Y782320D02*
X878840D01*
Y802640D01*
X851250Y326390D02*
X876650D01*
X851250Y306070D02*
Y326390D01*
Y306070D02*
X876650D01*
Y326390D01*
X853090Y405130D02*
X878490D01*
X853090Y384810D02*
Y405130D01*
Y384810D02*
X878490D01*
Y405130D01*
X854710Y643890D02*
X880110D01*
X854710Y623570D02*
Y643890D01*
Y623570D02*
X880110D01*
Y643890D01*
X853440Y702310D02*
X878840D01*
X853440Y681990D02*
Y702310D01*
Y681990D02*
X878840D01*
Y702310D01*
X853440Y779780D02*
X878840D01*
X853440Y759460D02*
Y779780D01*
Y759460D02*
X878840D01*
Y779780D01*
X852520Y872490D02*
X877920D01*
X852520Y852170D02*
Y872490D01*
Y852170D02*
X877920D01*
Y872490D01*
X852520Y899160D02*
X877920D01*
X852520Y878840D02*
Y899160D01*
Y878840D02*
X877920D01*
Y899160D01*
X1551940Y442660D02*
X1577340D01*
Y462980D01*
X1551940D02*
X1577340D01*
X1551940Y442660D02*
Y462980D01*
X1170940Y273400D02*
Y298800D01*
Y273400D02*
X1191260D01*
Y298800D01*
X1170940D02*
X1191260D01*
X1247140Y275940D02*
Y301340D01*
Y275940D02*
X1267460D01*
Y301340D01*
X1247140D02*
X1267460D01*
X1323340Y273050D02*
Y298450D01*
Y273050D02*
X1343660D01*
Y298450D01*
X1323340D02*
X1343660D01*
X1551940Y412750D02*
X1577340D01*
Y433070D01*
X1551940D02*
X1577340D01*
X1551940Y412750D02*
Y433070D01*
X1202690Y273400D02*
Y298800D01*
Y273400D02*
X1223010D01*
Y298800D01*
X1202690D02*
X1223010D01*
X1280160Y275590D02*
Y300990D01*
Y275590D02*
X1300480D01*
Y300990D01*
X1280160D02*
X1300480D01*
X1351280Y274670D02*
Y300070D01*
Y274670D02*
X1371600D01*
Y300070D01*
X1351280D02*
X1371600D01*
X1620520Y886660D02*
Y894385D01*
Y900735D02*
Y908460D01*
X1671320D01*
Y886660D02*
Y908460D01*
X1620520Y886660D02*
X1671320D01*
X1473400Y665480D02*
X1481125D01*
X1487475D02*
X1495200D01*
Y614680D02*
Y665480D01*
X1473400Y614680D02*
X1495200D01*
X1473400D02*
Y665480D01*
Y532130D02*
X1481125D01*
X1487475D02*
X1495200D01*
Y481330D02*
Y532130D01*
X1473400Y481330D02*
X1495200D01*
X1473400D02*
Y532130D01*
Y466090D02*
X1481125D01*
X1487475D02*
X1495200D01*
Y415290D02*
Y466090D01*
X1473400Y415290D02*
X1495200D01*
X1473400D02*
Y466090D01*
X1379220Y364795D02*
Y372520D01*
Y350720D02*
Y358445D01*
X1328420Y350720D02*
X1379220D01*
X1328420D02*
Y372520D01*
X1379220D01*
X1303020Y364795D02*
Y372520D01*
Y350720D02*
Y358445D01*
X1252220Y350720D02*
X1303020D01*
X1252220D02*
Y372520D01*
X1303020D01*
X1224280Y364795D02*
Y372520D01*
Y350720D02*
Y358445D01*
X1173480Y350720D02*
X1224280D01*
X1173480D02*
Y372520D01*
X1224280D01*
X1149350Y364795D02*
Y372520D01*
Y350720D02*
Y358445D01*
X1098550Y350720D02*
X1149350D01*
X1098550D02*
Y372520D01*
X1149350D01*
X1241535Y710232D02*
X1260061D01*
X1309771Y660523D01*
X1250798Y601550D02*
X1309771Y660523D01*
X1191826D02*
X1250798Y601550D01*
X1191826Y660523D02*
X1241535Y710232D01*
X954075Y270510D02*
X961800D01*
X940000D02*
X947725D01*
X940000D02*
Y321310D01*
X961800D01*
Y270510D02*
Y321310D01*
X954075Y347980D02*
X961800D01*
X940000D02*
X947725D01*
X940000D02*
Y398780D01*
X961800D01*
Y347980D02*
Y398780D01*
X954075Y424180D02*
X961800D01*
X940000D02*
X947725D01*
X940000D02*
Y474980D01*
X961800D01*
Y424180D02*
Y474980D01*
X954075Y505460D02*
X961800D01*
X940000D02*
X947725D01*
X940000D02*
Y556260D01*
X961800D01*
Y505460D02*
Y556260D01*
X954075Y589280D02*
X961800D01*
X940000D02*
X947725D01*
X940000D02*
Y640080D01*
X961800D01*
Y589280D02*
Y640080D01*
X954075Y674370D02*
X961800D01*
X940000D02*
X947725D01*
X940000D02*
Y725170D01*
X961800D01*
Y674370D02*
Y725170D01*
X954075Y751840D02*
X961800D01*
X940000D02*
X947725D01*
X940000D02*
Y802640D01*
X961800D01*
Y751840D02*
Y802640D01*
X954075Y844550D02*
X961800D01*
X940000D02*
X947725D01*
X940000D02*
Y895350D01*
X961800D01*
Y844550D02*
Y895350D01*
X1207770Y886660D02*
Y894385D01*
Y900735D02*
Y908460D01*
X1258570D01*
Y886660D02*
Y908460D01*
X1207770Y886660D02*
X1258570D01*
X1287780D02*
Y894385D01*
Y900735D02*
Y908460D01*
X1338580D01*
Y886660D02*
Y908460D01*
X1287780Y886660D02*
X1338580D01*
X1381760D02*
Y894385D01*
Y900735D02*
Y908460D01*
X1432560D01*
Y886660D02*
Y908460D01*
X1381760Y886660D02*
X1432560D01*
X1456690D02*
Y894385D01*
Y900735D02*
Y908460D01*
X1507490D01*
Y886660D02*
Y908460D01*
X1456690Y886660D02*
X1507490D01*
X1041400D02*
Y894385D01*
Y900735D02*
Y908460D01*
X1092200D01*
Y886660D02*
Y908460D01*
X1041400Y886660D02*
X1092200D01*
X1122680D02*
Y894385D01*
Y900735D02*
Y908460D01*
X1173480D01*
Y886660D02*
Y908460D01*
X1122680Y886660D02*
X1173480D01*
X1540510D02*
Y894385D01*
Y900735D02*
Y908460D01*
X1591310D01*
Y886660D02*
Y908460D01*
X1540510Y886660D02*
X1591310D01*
X1473400Y603250D02*
X1481125D01*
X1487475D02*
X1495200D01*
Y552450D02*
Y603250D01*
X1473400Y552450D02*
X1495200D01*
X1473400D02*
Y603250D01*
D11*
X1487170Y755650D02*
Y774700D01*
Y755650D02*
X1499680D01*
Y774700D01*
X1487170D02*
X1499680D01*
X1483360Y723900D02*
Y742950D01*
Y723900D02*
X1495870D01*
Y742950D01*
X1483360D02*
X1495870D01*
D12*
X1545590Y1117600D02*
X1546860Y1116330D01*
Y1054100D02*
Y1116330D01*
X1446530Y1054100D02*
X1546860D01*
X1446530D02*
Y1117600D01*
X1545590D01*
X1687830Y494030D02*
X1689100Y495300D01*
X1625600Y494030D02*
X1687830D01*
X1625600D02*
Y594360D01*
X1689100D01*
Y495300D02*
Y594360D01*
X1189990Y220980D02*
X1289050D01*
X1189990Y157480D02*
Y220980D01*
Y157480D02*
X1290320D01*
Y219710D01*
X1289050Y220980D02*
X1290320Y219710D01*
X712470Y397510D02*
Y496570D01*
Y397510D02*
X775970D01*
Y497840D01*
X713740D02*
X775970D01*
X712470Y496570D02*
X713740Y497840D01*
X712470Y699770D02*
Y798830D01*
Y699770D02*
X775970D01*
Y800100D01*
X713740D02*
X775970D01*
X712470Y798830D02*
X713740Y800100D01*
X1131570Y1126490D02*
X1230630D01*
X1131570Y1062990D02*
Y1126490D01*
Y1062990D02*
X1231900D01*
Y1125220D01*
X1230630Y1126490D02*
X1231900Y1125220D01*
X850897Y1155695D02*
X845818D01*
X848357D01*
Y1142999D01*
X845818Y1140460D01*
X843279D01*
X840740Y1142999D01*
X855975Y1150617D02*
Y1142999D01*
X858514Y1140460D01*
X866132D01*
Y1150617D01*
X871210Y1140460D02*
X876289D01*
X873749D01*
Y1155695D01*
X871210D01*
X883906Y1150617D02*
Y1142999D01*
X886445Y1140460D01*
X894063D01*
Y1137921D01*
X891524Y1135382D01*
X888984D01*
X894063Y1140460D02*
Y1150617D01*
X924533Y1140460D02*
X914376D01*
X924533Y1150617D01*
Y1153156D01*
X921994Y1155695D01*
X916915D01*
X914376Y1153156D01*
X929611D02*
X932150Y1155695D01*
X937229D01*
X939768Y1153156D01*
Y1142999D01*
X937229Y1140460D01*
X932150D01*
X929611Y1142999D01*
Y1153156D01*
X944846Y1140460D02*
X949925D01*
X947385D01*
Y1155695D01*
X944846Y1153156D01*
X957542Y1142999D02*
X960081Y1140460D01*
X965160D01*
X967699Y1142999D01*
Y1153156D01*
X965160Y1155695D01*
X960081D01*
X957542Y1153156D01*
Y1150617D01*
X960081Y1148077D01*
X967699D01*
X988012Y1155695D02*
Y1145538D01*
X993091Y1140460D01*
X998169Y1145538D01*
Y1155695D01*
X1003247Y1140460D02*
X1008326D01*
X1005787D01*
Y1155695D01*
X1003247Y1153156D01*
X840740Y1181095D02*
Y1165860D01*
X848357D01*
X850897Y1168399D01*
Y1170938D01*
X848357Y1173477D01*
X840740D01*
X848357D01*
X850897Y1176017D01*
Y1178556D01*
X848357Y1181095D01*
X840740D01*
X855975D02*
Y1165860D01*
X866132D01*
X871210D02*
Y1181095D01*
X878828D01*
X881367Y1178556D01*
Y1173477D01*
X878828Y1170938D01*
X871210D01*
X901680Y1181095D02*
Y1165860D01*
X909298D01*
X911837Y1168399D01*
Y1178556D01*
X909298Y1181095D01*
X901680D01*
X924533Y1165860D02*
X919454D01*
X916915Y1168399D01*
Y1173477D01*
X919454Y1176017D01*
X924533D01*
X927072Y1173477D01*
Y1170938D01*
X916915D01*
X932150Y1165860D02*
X939768D01*
X942307Y1168399D01*
X939768Y1170938D01*
X934690D01*
X932150Y1173477D01*
X934690Y1176017D01*
X942307D01*
X947385Y1165860D02*
X952464D01*
X949925D01*
Y1176017D01*
X947385D01*
X965160Y1160782D02*
X967699D01*
X970238Y1163321D01*
Y1176017D01*
X962621D01*
X960081Y1173477D01*
Y1168399D01*
X962621Y1165860D01*
X970238D01*
X975316D02*
Y1176017D01*
X982934D01*
X985473Y1173477D01*
Y1165860D01*
X1611627Y899155D02*
X1606548Y896616D01*
X1601470Y891537D01*
Y886459D01*
X1604009Y883920D01*
X1609088D01*
X1611627Y886459D01*
Y888998D01*
X1609088Y891537D01*
X1601470D01*
X1441447Y504190D02*
X1431290D01*
X1441447Y514347D01*
Y516886D01*
X1438907Y519425D01*
X1433829D01*
X1431290Y516886D01*
X690884Y361947D02*
X688345Y359408D01*
Y354329D01*
X690884Y351790D01*
X701041D01*
X703580Y354329D01*
Y359408D01*
X701041Y361947D01*
X703580Y369564D02*
Y374643D01*
X701041Y377182D01*
X695963D01*
X693423Y374643D01*
Y369564D01*
X695963Y367025D01*
X701041D01*
X703580Y369564D01*
Y382260D02*
X693423D01*
Y389878D01*
X695963Y392417D01*
X703580D01*
Y397495D02*
X693423D01*
Y405113D01*
X695963Y407652D01*
X703580D01*
Y420348D02*
Y415270D01*
X701041Y412730D01*
X695963D01*
X693423Y415270D01*
Y420348D01*
X695963Y422887D01*
X698502D01*
Y412730D01*
X693423Y438122D02*
Y430504D01*
X695963Y427965D01*
X701041D01*
X703580Y430504D01*
Y438122D01*
X690884Y445740D02*
X693423D01*
Y443200D01*
Y448279D01*
Y445740D01*
X701041D01*
X703580Y448279D01*
Y458436D02*
Y463514D01*
X701041Y466053D01*
X695963D01*
X693423Y463514D01*
Y458436D01*
X695963Y455896D01*
X701041D01*
X703580Y458436D01*
X693423Y471131D02*
X703580D01*
X698502D01*
X695963Y473671D01*
X693423Y476210D01*
Y478749D01*
X688345Y496523D02*
X690884Y491445D01*
X695963Y486367D01*
X701041D01*
X703580Y488906D01*
Y493984D01*
X701041Y496523D01*
X698502D01*
X695963Y493984D01*
Y486367D01*
X690884Y664207D02*
X688345Y661667D01*
Y656589D01*
X690884Y654050D01*
X701041D01*
X703580Y656589D01*
Y661667D01*
X701041Y664207D01*
X703580Y671824D02*
Y676903D01*
X701041Y679442D01*
X695963D01*
X693423Y676903D01*
Y671824D01*
X695963Y669285D01*
X701041D01*
X703580Y671824D01*
Y684520D02*
X693423D01*
Y692138D01*
X695963Y694677D01*
X703580D01*
Y699755D02*
X693423D01*
Y707373D01*
X695963Y709912D01*
X703580D01*
Y722608D02*
Y717530D01*
X701041Y714990D01*
X695963D01*
X693423Y717530D01*
Y722608D01*
X695963Y725147D01*
X698502D01*
Y714990D01*
X693423Y740382D02*
Y732765D01*
X695963Y730225D01*
X701041D01*
X703580Y732765D01*
Y740382D01*
X690884Y748000D02*
X693423D01*
Y745460D01*
Y750539D01*
Y748000D01*
X701041D01*
X703580Y750539D01*
Y760695D02*
Y765774D01*
X701041Y768313D01*
X695963D01*
X693423Y765774D01*
Y760695D01*
X695963Y758156D01*
X701041D01*
X703580Y760695D01*
X693423Y773391D02*
X703580D01*
X698502D01*
X695963Y775931D01*
X693423Y778470D01*
Y781009D01*
X688345Y798783D02*
Y788626D01*
X695963D01*
X693423Y793705D01*
Y796244D01*
X695963Y798783D01*
X701041D01*
X703580Y796244D01*
Y791166D01*
X701041Y788626D01*
X1179827Y152396D02*
X1177288Y154935D01*
X1172209D01*
X1169670Y152396D01*
Y142239D01*
X1172209Y139700D01*
X1177288D01*
X1179827Y142239D01*
X1187444Y139700D02*
X1192523D01*
X1195062Y142239D01*
Y147317D01*
X1192523Y149857D01*
X1187444D01*
X1184905Y147317D01*
Y142239D01*
X1187444Y139700D01*
X1200140D02*
Y149857D01*
X1207758D01*
X1210297Y147317D01*
Y139700D01*
X1215375D02*
Y149857D01*
X1222993D01*
X1225532Y147317D01*
Y139700D01*
X1238228D02*
X1233149D01*
X1230610Y142239D01*
Y147317D01*
X1233149Y149857D01*
X1238228D01*
X1240767Y147317D01*
Y144778D01*
X1230610D01*
X1256002Y149857D02*
X1248384D01*
X1245845Y147317D01*
Y142239D01*
X1248384Y139700D01*
X1256002D01*
X1263620Y152396D02*
Y149857D01*
X1261080D01*
X1266159D01*
X1263620D01*
Y142239D01*
X1266159Y139700D01*
X1276316D02*
X1281394D01*
X1283933Y142239D01*
Y147317D01*
X1281394Y149857D01*
X1276316D01*
X1273776Y147317D01*
Y142239D01*
X1276316Y139700D01*
X1289011Y149857D02*
Y139700D01*
Y144778D01*
X1291551Y147317D01*
X1294090Y149857D01*
X1296629D01*
X1311864Y139700D02*
Y154935D01*
X1304247Y147317D01*
X1314403D01*
X948687Y326390D02*
X938530D01*
X948687Y336547D01*
Y339086D01*
X946148Y341625D01*
X941069D01*
X938530Y339086D01*
X961383Y326390D02*
Y341625D01*
X953765Y334007D01*
X963922D01*
X948027Y401320D02*
X937870D01*
X948027Y411477D01*
Y414016D01*
X945488Y416555D01*
X940409D01*
X937870Y414016D01*
X953105D02*
X955644Y416555D01*
X960723D01*
X963262Y414016D01*
Y411477D01*
X960723Y408937D01*
X958183D01*
X960723D01*
X963262Y406398D01*
Y403859D01*
X960723Y401320D01*
X955644D01*
X953105Y403859D01*
X946147Y478790D02*
X935990D01*
X946147Y488947D01*
Y491486D01*
X943607Y494025D01*
X938529D01*
X935990Y491486D01*
X961382Y478790D02*
X951225D01*
X961382Y488947D01*
Y491486D01*
X958843Y494025D01*
X953764D01*
X951225Y491486D01*
X952497Y563880D02*
X942340D01*
X952497Y574037D01*
Y576576D01*
X949958Y579115D01*
X944879D01*
X942340Y576576D01*
X957575Y563880D02*
X962653D01*
X960114D01*
Y579115D01*
X957575Y576576D01*
X949957Y645160D02*
X939800D01*
X949957Y655317D01*
Y657856D01*
X947418Y660395D01*
X942339D01*
X939800Y657856D01*
X955035D02*
X957574Y660395D01*
X962653D01*
X965192Y657856D01*
Y647699D01*
X962653Y645160D01*
X957574D01*
X955035Y647699D01*
Y657856D01*
X939800Y731520D02*
X944878D01*
X942339D01*
Y746755D01*
X939800Y744216D01*
X952496Y734059D02*
X955035Y731520D01*
X960113D01*
X962653Y734059D01*
Y744216D01*
X960113Y746755D01*
X955035D01*
X952496Y744216D01*
Y741677D01*
X955035Y739137D01*
X962653D01*
X943610Y808990D02*
X948688D01*
X946149D01*
Y824225D01*
X943610Y821686D01*
X956306D02*
X958845Y824225D01*
X963923D01*
X966463Y821686D01*
Y819147D01*
X963923Y816608D01*
X966463Y814068D01*
Y811529D01*
X963923Y808990D01*
X958845D01*
X956306Y811529D01*
Y814068D01*
X958845Y816608D01*
X956306Y819147D01*
Y821686D01*
X958845Y816608D02*
X963923D01*
X943610Y904240D02*
X948688D01*
X946149D01*
Y919475D01*
X943610Y916936D01*
X956306Y919475D02*
X966463D01*
Y916936D01*
X956306Y906779D01*
Y904240D01*
X1106170Y403860D02*
X1111248D01*
X1108709D01*
Y419095D01*
X1106170Y416556D01*
X1129023Y419095D02*
X1123944Y416556D01*
X1118866Y411478D01*
Y406399D01*
X1121405Y403860D01*
X1126483D01*
X1129023Y406399D01*
Y408938D01*
X1126483Y411478D01*
X1118866D01*
X1182370Y403860D02*
X1187448D01*
X1184909D01*
Y419095D01*
X1182370Y416556D01*
X1205223Y419095D02*
X1195066D01*
Y411478D01*
X1200144Y414017D01*
X1202683D01*
X1205223Y411478D01*
Y406399D01*
X1202683Y403860D01*
X1197605D01*
X1195066Y406399D01*
X1342390Y403860D02*
X1347468D01*
X1344929D01*
Y419095D01*
X1342390Y416556D01*
X1362703Y403860D02*
Y419095D01*
X1355086Y411478D01*
X1365243D01*
X1262380Y403860D02*
X1267458D01*
X1264919D01*
Y419095D01*
X1262380Y416556D01*
X1275076D02*
X1277615Y419095D01*
X1282693D01*
X1285233Y416556D01*
Y414017D01*
X1282693Y411478D01*
X1280154D01*
X1282693D01*
X1285233Y408938D01*
Y406399D01*
X1282693Y403860D01*
X1277615D01*
X1275076Y406399D01*
X1457957Y1139186D02*
X1455417Y1141725D01*
X1450339D01*
X1447800Y1139186D01*
Y1129029D01*
X1450339Y1126490D01*
X1455417D01*
X1457957Y1129029D01*
X1465574Y1126490D02*
X1470653D01*
X1473192Y1129029D01*
Y1134108D01*
X1470653Y1136647D01*
X1465574D01*
X1463035Y1134108D01*
Y1129029D01*
X1465574Y1126490D01*
X1478270D02*
Y1136647D01*
X1485888D01*
X1488427Y1134108D01*
Y1126490D01*
X1493505D02*
Y1136647D01*
X1501123D01*
X1503662Y1134108D01*
Y1126490D01*
X1516358D02*
X1511279D01*
X1508740Y1129029D01*
Y1134108D01*
X1511279Y1136647D01*
X1516358D01*
X1518897Y1134108D01*
Y1131568D01*
X1508740D01*
X1534132Y1136647D02*
X1526514D01*
X1523975Y1134108D01*
Y1129029D01*
X1526514Y1126490D01*
X1534132D01*
X1541750Y1139186D02*
Y1136647D01*
X1539210D01*
X1544289D01*
X1541750D01*
Y1129029D01*
X1544289Y1126490D01*
X1554445D02*
X1559524D01*
X1562063Y1129029D01*
Y1134108D01*
X1559524Y1136647D01*
X1554445D01*
X1551906Y1134108D01*
Y1129029D01*
X1554445Y1126490D01*
X1567141Y1136647D02*
Y1126490D01*
Y1131568D01*
X1569681Y1134108D01*
X1572220Y1136647D01*
X1574759D01*
X1582377Y1139186D02*
X1584916Y1141725D01*
X1589994D01*
X1592533Y1139186D01*
Y1136647D01*
X1589994Y1134108D01*
X1587455D01*
X1589994D01*
X1592533Y1131568D01*
Y1129029D01*
X1589994Y1126490D01*
X1584916D01*
X1582377Y1129029D01*
X1142997Y1148076D02*
X1140458Y1150615D01*
X1135379D01*
X1132840Y1148076D01*
Y1137919D01*
X1135379Y1135380D01*
X1140458D01*
X1142997Y1137919D01*
X1150614Y1135380D02*
X1155693D01*
X1158232Y1137919D01*
Y1142998D01*
X1155693Y1145537D01*
X1150614D01*
X1148075Y1142998D01*
Y1137919D01*
X1150614Y1135380D01*
X1163310D02*
Y1145537D01*
X1170928D01*
X1173467Y1142998D01*
Y1135380D01*
X1178545D02*
Y1145537D01*
X1186163D01*
X1188702Y1142998D01*
Y1135380D01*
X1201398D02*
X1196320D01*
X1193780Y1137919D01*
Y1142998D01*
X1196320Y1145537D01*
X1201398D01*
X1203937Y1142998D01*
Y1140458D01*
X1193780D01*
X1219172Y1145537D02*
X1211554D01*
X1209015Y1142998D01*
Y1137919D01*
X1211554Y1135380D01*
X1219172D01*
X1226790Y1148076D02*
Y1145537D01*
X1224250D01*
X1229329D01*
X1226790D01*
Y1137919D01*
X1229329Y1135380D01*
X1239485D02*
X1244564D01*
X1247103Y1137919D01*
Y1142998D01*
X1244564Y1145537D01*
X1239485D01*
X1236946Y1142998D01*
Y1137919D01*
X1239485Y1135380D01*
X1252181Y1145537D02*
Y1135380D01*
Y1140458D01*
X1254721Y1142998D01*
X1257260Y1145537D01*
X1259799D01*
X1277573Y1135380D02*
X1267417D01*
X1277573Y1145537D01*
Y1148076D01*
X1275034Y1150615D01*
X1269956D01*
X1267417Y1148076D01*
X1692914Y486407D02*
X1690375Y483867D01*
Y478789D01*
X1692914Y476250D01*
X1703071D01*
X1705610Y478789D01*
Y483867D01*
X1703071Y486407D01*
X1705610Y494024D02*
Y499103D01*
X1703071Y501642D01*
X1697993D01*
X1695453Y499103D01*
Y494024D01*
X1697993Y491485D01*
X1703071D01*
X1705610Y494024D01*
Y506720D02*
X1695453D01*
Y514338D01*
X1697993Y516877D01*
X1705610D01*
Y521955D02*
X1695453D01*
Y529573D01*
X1697993Y532112D01*
X1705610D01*
Y544808D02*
Y539729D01*
X1703071Y537190D01*
X1697993D01*
X1695453Y539729D01*
Y544808D01*
X1697993Y547347D01*
X1700532D01*
Y537190D01*
X1695453Y562582D02*
Y554964D01*
X1697993Y552425D01*
X1703071D01*
X1705610Y554964D01*
Y562582D01*
X1692914Y570200D02*
X1695453D01*
Y567660D01*
Y572739D01*
Y570200D01*
X1703071D01*
X1705610Y572739D01*
Y582896D02*
Y587974D01*
X1703071Y590513D01*
X1697993D01*
X1695453Y587974D01*
Y582896D01*
X1697993Y580356D01*
X1703071D01*
X1705610Y582896D01*
X1695453Y595591D02*
X1705610D01*
X1700532D01*
X1697993Y598131D01*
X1695453Y600670D01*
Y603209D01*
X1705610Y610826D02*
Y615905D01*
Y613366D01*
X1690375D01*
X1692914Y610826D01*
X1181100Y883920D02*
X1186178D01*
X1183639D01*
Y899155D01*
X1181100Y896616D01*
X1203953Y883920D02*
X1193796D01*
X1203953Y894077D01*
Y896616D01*
X1201413Y899155D01*
X1196335D01*
X1193796Y896616D01*
X1264920Y883920D02*
X1269998D01*
X1267459D01*
Y899155D01*
X1264920Y896616D01*
X1277616Y883920D02*
X1282694D01*
X1280155D01*
Y899155D01*
X1277616Y896616D01*
X1350010Y883920D02*
X1355088D01*
X1352549D01*
Y899155D01*
X1350010Y896616D01*
X1362706D02*
X1365245Y899155D01*
X1370323D01*
X1372863Y896616D01*
Y886459D01*
X1370323Y883920D01*
X1365245D01*
X1362706Y886459D01*
Y896616D01*
X1441450Y886459D02*
X1443989Y883920D01*
X1449068D01*
X1451607Y886459D01*
Y896616D01*
X1449068Y899155D01*
X1443989D01*
X1441450Y896616D01*
Y894077D01*
X1443989Y891537D01*
X1451607D01*
X1026160Y896616D02*
X1028699Y899155D01*
X1033777D01*
X1036317Y896616D01*
Y894077D01*
X1033777Y891537D01*
X1036317Y888998D01*
Y886459D01*
X1033777Y883920D01*
X1028699D01*
X1026160Y886459D01*
Y888998D01*
X1028699Y891537D01*
X1026160Y894077D01*
Y896616D01*
X1028699Y891537D02*
X1033777D01*
X1104900Y899155D02*
X1115057D01*
Y896616D01*
X1104900Y886459D01*
Y883920D01*
X1529077Y899155D02*
X1518920D01*
Y891537D01*
X1523998Y894077D01*
X1526537D01*
X1529077Y891537D01*
Y886459D01*
X1526537Y883920D01*
X1521459D01*
X1518920Y886459D01*
X1438907Y627380D02*
Y642615D01*
X1431290Y634997D01*
X1441447D01*
X1431290Y580386D02*
X1433829Y582925D01*
X1438907D01*
X1441447Y580386D01*
Y577847D01*
X1438907Y575308D01*
X1436368D01*
X1438907D01*
X1441447Y572768D01*
Y570229D01*
X1438907Y567690D01*
X1433829D01*
X1431290Y570229D01*
Y436880D02*
X1436368D01*
X1433829D01*
Y452115D01*
X1431290Y449576D01*
M02*
