G04*
G04 #@! TF.GenerationSoftware,Altium Limited,Altium Designer,19.1.5 (86)*
G04*
G04 Layer_Physical_Order=2*
G04 Layer_Color=16711680*
%FSLAX44Y44*%
%MOMM*%
G71*
G01*
G75*
%ADD12C,0.2540*%
%ADD13R,1.3000X0.7000*%
%ADD22R,0.6000X0.5000*%
%ADD45C,0.1778*%
%ADD46R,1.2000X1.2000*%
%ADD47C,1.2000*%
%ADD48R,2.0000X2.0000*%
%ADD49C,2.0000*%
%ADD50C,3.0000*%
%ADD51R,1.5000X1.5000*%
%ADD52C,1.5000*%
%ADD53R,2.7000X1.2000*%
%ADD54R,1.2000X2.7000*%
%ADD55R,1.2000X1.2000*%
%ADD56C,0.4572*%
%ADD57C,1.2700*%
%ADD58O,0.6000X1.1000*%
%ADD59R,0.6000X1.1000*%
G36*
X681990Y1139190D02*
X1770380D01*
Y153670D01*
X1769110Y152400D01*
X680720D01*
X675648Y1143870D01*
X676821Y1144359D01*
X681990Y1139190D01*
D02*
G37*
%LPC*%
G36*
X1195070Y1114759D02*
X1189895Y1112615D01*
X1187751Y1107440D01*
X1189895Y1102265D01*
X1195070Y1100121D01*
X1200245Y1102265D01*
X1202389Y1107440D01*
X1200245Y1112615D01*
X1195070Y1114759D01*
D02*
G37*
G36*
X1169670D02*
X1164495Y1112615D01*
X1162351Y1107440D01*
X1164495Y1102265D01*
X1169670Y1100121D01*
X1174845Y1102265D01*
X1176989Y1107440D01*
X1174845Y1112615D01*
X1169670Y1114759D01*
D02*
G37*
G36*
X1144270D02*
X1139095Y1112615D01*
X1136951Y1107440D01*
X1139095Y1102265D01*
X1144270Y1100121D01*
X1149445Y1102265D01*
X1151589Y1107440D01*
X1149445Y1112615D01*
X1144270Y1114759D01*
D02*
G37*
G36*
X1510030Y1105869D02*
X1504855Y1103725D01*
X1502711Y1098550D01*
X1504855Y1093375D01*
X1510030Y1091231D01*
X1515205Y1093375D01*
X1517349Y1098550D01*
X1515205Y1103725D01*
X1510030Y1105869D01*
D02*
G37*
G36*
X1484630D02*
X1479455Y1103725D01*
X1477311Y1098550D01*
X1479455Y1093375D01*
X1484630Y1091231D01*
X1489805Y1093375D01*
X1491949Y1098550D01*
X1489805Y1103725D01*
X1484630Y1105869D01*
D02*
G37*
G36*
X1459230D02*
X1454055Y1103725D01*
X1451911Y1098550D01*
X1454055Y1093375D01*
X1459230Y1091231D01*
X1464405Y1093375D01*
X1466549Y1098550D01*
X1464405Y1103725D01*
X1459230Y1105869D01*
D02*
G37*
G36*
X725970Y1095590D02*
X711200D01*
Y1088320D01*
X725970D01*
Y1095590D01*
D02*
G37*
G36*
X708660D02*
X693890D01*
Y1088320D01*
X708660D01*
Y1095590D01*
D02*
G37*
G36*
X725970Y1085780D02*
X711200D01*
Y1078510D01*
X725970D01*
Y1085780D01*
D02*
G37*
G36*
X708660D02*
X693890D01*
Y1078510D01*
X708660D01*
Y1085780D01*
D02*
G37*
G36*
X1220470Y1089359D02*
X1215295Y1087215D01*
X1213151Y1082040D01*
X1215295Y1076865D01*
X1220470Y1074721D01*
X1225645Y1076865D01*
X1227789Y1082040D01*
X1225645Y1087215D01*
X1220470Y1089359D01*
D02*
G37*
G36*
X1195070D02*
X1189895Y1087215D01*
X1187751Y1082040D01*
X1189895Y1076865D01*
X1195070Y1074721D01*
X1200245Y1076865D01*
X1202389Y1082040D01*
X1200245Y1087215D01*
X1195070Y1089359D01*
D02*
G37*
G36*
X1169670D02*
X1164495Y1087215D01*
X1162351Y1082040D01*
X1164495Y1076865D01*
X1169670Y1074721D01*
X1174845Y1076865D01*
X1176989Y1082040D01*
X1174845Y1087215D01*
X1169670Y1089359D01*
D02*
G37*
G36*
X1144270D02*
X1139095Y1087215D01*
X1136951Y1082040D01*
X1139095Y1076865D01*
X1144270Y1074721D01*
X1149445Y1076865D01*
X1151589Y1082040D01*
X1149445Y1087215D01*
X1144270Y1089359D01*
D02*
G37*
G36*
X1535430Y1080469D02*
X1530255Y1078325D01*
X1528111Y1073150D01*
X1530255Y1067975D01*
X1535430Y1065831D01*
X1540605Y1067975D01*
X1542749Y1073150D01*
X1540605Y1078325D01*
X1535430Y1080469D01*
D02*
G37*
G36*
X1510030D02*
X1504855Y1078325D01*
X1502711Y1073150D01*
X1504855Y1067975D01*
X1510030Y1065831D01*
X1515205Y1067975D01*
X1517349Y1073150D01*
X1515205Y1078325D01*
X1510030Y1080469D01*
D02*
G37*
G36*
X1484630D02*
X1479455Y1078325D01*
X1477311Y1073150D01*
X1479455Y1067975D01*
X1484630Y1065831D01*
X1489805Y1067975D01*
X1491949Y1073150D01*
X1489805Y1078325D01*
X1484630Y1080469D01*
D02*
G37*
G36*
X1459230D02*
X1454055Y1078325D01*
X1451911Y1073150D01*
X1454055Y1067975D01*
X1459230Y1065831D01*
X1464405Y1067975D01*
X1466549Y1073150D01*
X1464405Y1078325D01*
X1459230Y1080469D01*
D02*
G37*
G36*
X845462Y1055472D02*
X830938D01*
Y1046948D01*
X845462D01*
Y1048376D01*
X876658D01*
Y1045678D01*
X891182D01*
Y1054202D01*
X876658D01*
Y1052774D01*
X845462D01*
Y1055472D01*
D02*
G37*
G36*
X762692Y1068312D02*
X749168D01*
Y1039788D01*
X762692D01*
Y1068312D01*
D02*
G37*
G36*
X892960Y1043980D02*
X885190D01*
Y1039210D01*
X892960D01*
Y1043980D01*
D02*
G37*
G36*
X882650D02*
X874880D01*
Y1039210D01*
X882650D01*
Y1043980D01*
D02*
G37*
G36*
X892960Y1036670D02*
X885190D01*
Y1031900D01*
X892960D01*
Y1036670D01*
D02*
G37*
G36*
X882650D02*
X874880D01*
Y1031900D01*
X882650D01*
Y1036670D01*
D02*
G37*
G36*
X1542192Y1105312D02*
X1528668D01*
Y1091788D01*
X1542192D01*
Y1096351D01*
X1587859D01*
X1606891Y1077319D01*
Y1014447D01*
X1603258Y1012942D01*
X1600842Y1007110D01*
X1603258Y1001278D01*
X1609090Y998862D01*
X1614922Y1001278D01*
X1617338Y1007110D01*
X1614922Y1012942D01*
X1611289Y1014447D01*
Y1078230D01*
X1610645Y1079785D01*
X1590325Y1100105D01*
X1588770Y1100749D01*
X1542192D01*
Y1105312D01*
D02*
G37*
G36*
X1227232Y1114202D02*
X1213708D01*
Y1100678D01*
X1224122D01*
X1284311Y1040489D01*
Y997937D01*
X1280678Y996432D01*
X1278262Y990600D01*
X1280678Y984768D01*
X1286510Y982352D01*
X1292342Y984768D01*
X1294758Y990600D01*
X1292342Y996432D01*
X1288709Y997937D01*
Y1041400D01*
X1288065Y1042955D01*
X1227232Y1103788D01*
Y1114202D01*
D02*
G37*
G36*
X845462Y1043472D02*
X830938D01*
Y1041409D01*
X807070D01*
X805515Y1040765D01*
X792339Y1027589D01*
X724192D01*
Y1030812D01*
X695668D01*
Y1017288D01*
X724192D01*
Y1023191D01*
X793250D01*
X794805Y1023835D01*
X807981Y1037011D01*
X830938D01*
Y1034948D01*
X842352D01*
X921275Y956025D01*
X921723Y955839D01*
X922021Y954341D01*
X893795Y926115D01*
X893151Y924560D01*
Y883111D01*
X890788Y882132D01*
X888372Y876300D01*
X890788Y870468D01*
X893786Y869226D01*
Y791934D01*
X890788Y790692D01*
X888372Y784860D01*
X890788Y779028D01*
X893151Y778049D01*
Y711661D01*
X890788Y710682D01*
X888372Y704850D01*
X890788Y699018D01*
X893151Y698039D01*
Y627841D01*
X890788Y626862D01*
X888372Y621030D01*
X890788Y615198D01*
X892516Y614482D01*
Y545028D01*
X890788Y544312D01*
X888372Y538480D01*
X890788Y532648D01*
X892516Y531932D01*
Y463748D01*
X890788Y463032D01*
X888372Y457200D01*
X890788Y451368D01*
X892691Y450580D01*
Y386350D01*
X890788Y385562D01*
X888372Y379730D01*
X890788Y373898D01*
X892592Y373151D01*
Y306315D01*
X890912Y302260D01*
X893328Y296428D01*
X894421Y295975D01*
Y260350D01*
X895065Y258795D01*
X917925Y235935D01*
X919480Y235291D01*
X1040130D01*
X1041685Y235935D01*
X1056925Y251175D01*
X1057569Y252730D01*
Y289919D01*
X1074061Y306411D01*
X1110263D01*
X1111768Y302778D01*
X1117600Y300362D01*
X1123432Y302778D01*
X1124937Y306411D01*
X1184394D01*
X1186698Y300848D01*
X1192530Y298432D01*
X1198362Y300848D01*
X1200778Y306680D01*
X1201022Y307046D01*
X1264196D01*
X1265438Y304048D01*
X1271270Y301632D01*
X1277102Y304048D01*
X1278344Y307046D01*
X1339870D01*
X1341638Y302778D01*
X1347470Y300362D01*
X1353302Y302778D01*
X1354807Y306411D01*
X1498600D01*
X1500155Y307055D01*
X1539525Y346425D01*
X1540169Y347980D01*
Y427003D01*
X1543802Y428508D01*
X1546218Y434340D01*
X1543802Y440172D01*
X1540169Y441677D01*
Y491773D01*
X1543802Y493278D01*
X1546218Y499110D01*
X1543802Y504942D01*
X1540804Y506184D01*
Y562630D01*
X1545072Y564398D01*
X1547488Y570230D01*
X1545072Y576062D01*
X1540804Y577830D01*
Y625386D01*
X1543802Y626628D01*
X1546218Y632460D01*
X1543802Y638292D01*
X1537970Y640708D01*
X1532138Y638292D01*
X1529722Y632460D01*
X1532138Y626628D01*
X1536406Y624860D01*
Y577304D01*
X1533408Y576062D01*
X1530992Y570230D01*
X1533408Y564398D01*
X1536406Y563156D01*
Y506710D01*
X1532138Y504942D01*
X1529722Y499110D01*
X1532138Y493278D01*
X1535771Y491773D01*
Y441677D01*
X1532138Y440172D01*
X1529722Y434340D01*
X1532138Y428508D01*
X1535771Y427003D01*
Y348891D01*
X1497689Y310809D01*
X1354807D01*
X1353302Y314442D01*
X1347470Y316858D01*
X1341638Y314442D01*
X1340396Y311444D01*
X1278870D01*
X1277102Y315712D01*
X1271270Y318128D01*
X1265438Y315712D01*
X1263670Y311444D01*
X1198804D01*
X1198362Y312512D01*
X1192530Y314928D01*
X1186698Y312512D01*
X1185993Y310809D01*
X1124937D01*
X1123432Y314442D01*
X1117600Y316858D01*
X1111768Y314442D01*
X1110263Y310809D01*
X1073150D01*
X1071595Y310165D01*
X1053815Y292385D01*
X1053171Y290830D01*
Y253641D01*
X1039219Y239689D01*
X920391D01*
X898819Y261261D01*
Y293785D01*
X899160Y294012D01*
X904992Y296428D01*
X907408Y302260D01*
X904992Y308092D01*
X899160Y310508D01*
X898047Y310047D01*
X896991Y310752D01*
Y371636D01*
X902452Y373898D01*
X904868Y379730D01*
X902452Y385562D01*
X897089Y387783D01*
Y449147D01*
X902452Y451368D01*
X904868Y457200D01*
X902452Y463032D01*
X896914Y465326D01*
Y530354D01*
X902452Y532648D01*
X904868Y538480D01*
X902452Y544312D01*
X896914Y546606D01*
Y612904D01*
X902452Y615198D01*
X904868Y621030D01*
X902452Y626862D01*
X897549Y628893D01*
Y696987D01*
X902452Y699018D01*
X904868Y704850D01*
X902452Y710682D01*
X897549Y712713D01*
Y776997D01*
X902452Y779028D01*
X904868Y784860D01*
X902452Y790692D01*
X898184Y792460D01*
Y868700D01*
X902452Y870468D01*
X904868Y876300D01*
X902452Y882132D01*
X897549Y884163D01*
Y923649D01*
X929281Y955381D01*
X1065813D01*
X1067318Y951748D01*
X1073150Y949332D01*
X1078982Y951748D01*
X1080487Y955381D01*
X1148363D01*
X1149868Y951748D01*
X1155700Y949332D01*
X1161532Y951748D01*
X1162511Y954111D01*
X1232927D01*
X1234958Y949208D01*
X1240790Y946792D01*
X1246622Y949208D01*
X1248916Y954746D01*
X1314252D01*
X1314968Y953018D01*
X1320800Y950602D01*
X1326632Y953018D01*
X1328137Y956651D01*
X1402041D01*
X1403738Y954953D01*
X1402722Y952500D01*
X1405138Y946668D01*
X1410970Y944252D01*
X1416802Y946668D01*
X1418044Y949666D01*
X1483380D01*
X1485148Y945398D01*
X1490980Y942982D01*
X1496812Y945398D01*
X1497695Y947531D01*
X1563032D01*
X1565158Y942398D01*
X1570990Y939982D01*
X1576822Y942398D01*
X1578685Y946896D01*
X1646561D01*
X1647708Y944128D01*
X1653540Y941712D01*
X1659372Y944128D01*
X1661788Y949960D01*
X1659372Y955792D01*
X1653540Y958208D01*
X1647708Y955792D01*
X1645845Y951294D01*
X1577968D01*
X1576822Y954062D01*
X1570990Y956478D01*
X1565158Y954062D01*
X1564274Y951929D01*
X1498938D01*
X1496812Y957062D01*
X1490980Y959478D01*
X1485148Y957062D01*
X1483906Y954064D01*
X1418570D01*
X1416802Y958332D01*
X1410970Y960748D01*
X1406158Y958754D01*
X1404507Y960405D01*
X1402952Y961049D01*
X1328137D01*
X1326632Y964682D01*
X1320800Y967098D01*
X1314968Y964682D01*
X1312674Y959144D01*
X1247338D01*
X1246622Y960872D01*
X1240790Y963288D01*
X1234958Y960872D01*
X1233979Y958509D01*
X1163563D01*
X1161532Y963412D01*
X1155700Y965828D01*
X1149868Y963412D01*
X1148363Y959779D01*
X1080487D01*
X1078982Y963412D01*
X1073150Y965828D01*
X1067318Y963412D01*
X1065813Y959779D01*
X923741D01*
X845462Y1038058D01*
Y1043472D01*
D02*
G37*
G36*
X1753870Y861113D02*
X1747547Y858493D01*
X1744927Y852170D01*
X1747547Y845846D01*
X1753870Y843227D01*
X1760193Y845846D01*
X1762813Y852170D01*
X1760193Y858493D01*
X1753870Y861113D01*
D02*
G37*
G36*
X1755140Y837111D02*
Y828040D01*
X1764211D01*
X1761554Y834454D01*
X1755140Y837111D01*
D02*
G37*
G36*
X1752600D02*
X1746186Y834454D01*
X1743529Y828040D01*
X1752600D01*
Y837111D01*
D02*
G37*
G36*
X808990Y842638D02*
X803158Y840222D01*
X801482Y836177D01*
X735330D01*
X734066Y835654D01*
X730256Y831844D01*
X729733Y830580D01*
Y795432D01*
X724758D01*
Y781908D01*
X738282D01*
Y795432D01*
X733307D01*
Y829840D01*
X736070Y832603D01*
X801482D01*
X803158Y828558D01*
X808990Y826142D01*
X814822Y828558D01*
X817238Y834390D01*
X814822Y840222D01*
X808990Y842638D01*
D02*
G37*
G36*
X1764211Y825500D02*
X1755140D01*
Y816429D01*
X1761554Y819086D01*
X1764211Y825500D01*
D02*
G37*
G36*
X1752600D02*
X1743529D01*
X1746186Y819086D01*
X1752600Y816429D01*
Y825500D01*
D02*
G37*
G36*
X1648102Y809092D02*
X1633578D01*
Y800568D01*
X1648102D01*
Y802408D01*
X1666598D01*
Y799298D01*
X1681122D01*
Y807822D01*
X1666598D01*
Y805982D01*
X1648102D01*
Y809092D01*
D02*
G37*
G36*
X1649880Y798870D02*
X1642110D01*
Y794100D01*
X1649880D01*
Y798870D01*
D02*
G37*
G36*
X1639570D02*
X1631800D01*
Y794100D01*
X1639570D01*
Y798870D01*
D02*
G37*
G36*
X1762132Y809632D02*
X1745608D01*
Y793108D01*
X1762132D01*
Y809632D01*
D02*
G37*
G36*
X1649880Y791560D02*
X1642110D01*
Y786790D01*
X1649880D01*
Y791560D01*
D02*
G37*
G36*
X1639570D02*
X1631800D01*
Y786790D01*
X1639570D01*
Y791560D01*
D02*
G37*
G36*
X1192680Y786740D02*
X1184910D01*
Y781970D01*
X1192680D01*
Y786740D01*
D02*
G37*
G36*
X1182370D02*
X1174600D01*
Y781970D01*
X1182370D01*
Y786740D01*
D02*
G37*
G36*
X756920Y795989D02*
X751745Y793845D01*
X749601Y788670D01*
X751745Y783495D01*
X756920Y781351D01*
X762095Y783495D01*
X764239Y788670D01*
X762095Y793845D01*
X756920Y795989D01*
D02*
G37*
G36*
X1230780Y785820D02*
X1223010D01*
Y781050D01*
X1230780D01*
Y785820D01*
D02*
G37*
G36*
X1220470D02*
X1212700D01*
Y781050D01*
X1220470D01*
Y785820D01*
D02*
G37*
G36*
X1192680Y779430D02*
X1184910D01*
Y774660D01*
X1192680D01*
Y779430D01*
D02*
G37*
G36*
X1182370D02*
X1174600D01*
Y774660D01*
X1182370D01*
Y779430D01*
D02*
G37*
G36*
X1230780Y778510D02*
X1223010D01*
Y773740D01*
X1230780D01*
Y778510D01*
D02*
G37*
G36*
X1220470D02*
X1212700D01*
Y773740D01*
X1220470D01*
Y778510D01*
D02*
G37*
G36*
X1520190Y771669D02*
X1517468Y770542D01*
X1516341Y767820D01*
X1517468Y765098D01*
X1520190Y763971D01*
X1522912Y765098D01*
X1524039Y767820D01*
X1522912Y770542D01*
X1520190Y771669D01*
D02*
G37*
G36*
X1499060Y765770D02*
X1494790D01*
Y762000D01*
X1499060D01*
Y765770D01*
D02*
G37*
G36*
X1492250D02*
X1487980D01*
Y762000D01*
X1492250D01*
Y765770D01*
D02*
G37*
G36*
X1474882Y774582D02*
X1461358D01*
Y769607D01*
X1451080D01*
X1449816Y769084D01*
X1413610Y732877D01*
X1407160Y735549D01*
X1398923Y732137D01*
X1395511Y723900D01*
X1398923Y715663D01*
X1407160Y712251D01*
X1414583Y715326D01*
X1415302Y714249D01*
X1405896Y704844D01*
X1405373Y703580D01*
Y679809D01*
X1398923Y677137D01*
X1395511Y668900D01*
X1398923Y660663D01*
X1407160Y657251D01*
X1415397Y660663D01*
X1418809Y668900D01*
X1415397Y677137D01*
X1408947Y679809D01*
Y702840D01*
X1423140Y717033D01*
X1461541D01*
X1462945Y713645D01*
X1468120Y711501D01*
X1473295Y713645D01*
X1475439Y718820D01*
X1474036Y722208D01*
X1482997Y731170D01*
X1484170Y730683D01*
Y730250D01*
X1489710D01*
X1495250D01*
Y734020D01*
X1491114D01*
X1490862Y735290D01*
X1490974Y735336D01*
X1491497Y736600D01*
X1490974Y737864D01*
X1489710Y738387D01*
X1485900D01*
X1484636Y737864D01*
X1471508Y724736D01*
X1468120Y726139D01*
X1462945Y723995D01*
X1461541Y720607D01*
X1422400D01*
X1421136Y720084D01*
X1416811Y715758D01*
X1415734Y716478D01*
X1418809Y723900D01*
X1416137Y730350D01*
X1451820Y766033D01*
X1461358D01*
Y761058D01*
X1474882D01*
Y774582D01*
D02*
G37*
G36*
X756920Y770589D02*
X751745Y768445D01*
X749601Y763270D01*
X751745Y758095D01*
X756920Y755951D01*
X762095Y758095D01*
X764239Y763270D01*
X762095Y768445D01*
X756920Y770589D01*
D02*
G37*
G36*
X731520D02*
X726345Y768445D01*
X724201Y763270D01*
X726345Y758095D01*
X731520Y755951D01*
X736695Y758095D01*
X738839Y763270D01*
X736695Y768445D01*
X731520Y770589D01*
D02*
G37*
G36*
X1499060Y759460D02*
X1494790D01*
Y755690D01*
X1499060D01*
Y759460D01*
D02*
G37*
G36*
X1492250D02*
X1487980D01*
Y755690D01*
X1492250D01*
Y759460D01*
D02*
G37*
G36*
X1554480Y765509D02*
X1549305Y763365D01*
X1547161Y758190D01*
X1549305Y753015D01*
X1554480Y750871D01*
X1559655Y753015D01*
X1561799Y758190D01*
X1559655Y763365D01*
X1554480Y765509D01*
D02*
G37*
G36*
X1681122Y795822D02*
X1666598D01*
Y787298D01*
X1671661D01*
Y757791D01*
X1663720Y749850D01*
X1651285Y762285D01*
X1649730Y762929D01*
X1578251D01*
X1561242Y779938D01*
Y790352D01*
X1547718D01*
Y785789D01*
X1388110D01*
X1386555Y785145D01*
X1322592Y721183D01*
X1322070Y721399D01*
X1321548Y721183D01*
X1288065Y754665D01*
X1286510Y755309D01*
X1231900D01*
X1230345Y754665D01*
X1221303Y745623D01*
X1220129Y746109D01*
Y763518D01*
X1229002D01*
Y772042D01*
X1214478D01*
Y768994D01*
X1190902D01*
Y772962D01*
X1176378D01*
Y764438D01*
X1190902D01*
Y764596D01*
X1214478D01*
Y763518D01*
X1215731D01*
Y742078D01*
X1215208Y741862D01*
X1214081Y739140D01*
X1214297Y738618D01*
X1186702Y711023D01*
X1186180Y711239D01*
X1183458Y710112D01*
X1182331Y707390D01*
X1182547Y706868D01*
X1159225Y683545D01*
X1158581Y681990D01*
Y635000D01*
X1159225Y633445D01*
X1189691Y602978D01*
X1189205Y601805D01*
X1143166D01*
X1141610Y601161D01*
X1137102Y596652D01*
X1129388D01*
Y594019D01*
X1114702D01*
Y597352D01*
X1100178D01*
Y588828D01*
X1114702D01*
Y589621D01*
X1129388D01*
Y588128D01*
X1143912D01*
Y596652D01*
X1144870Y597406D01*
X1193237D01*
X1193453Y596884D01*
X1196174Y595756D01*
X1196697Y595973D01*
X1216375Y576295D01*
X1216375Y576295D01*
X1225265Y567405D01*
X1226820Y566761D01*
X1282700D01*
X1284255Y567405D01*
X1303307Y586457D01*
X1304481Y585971D01*
Y567708D01*
X1294136Y557364D01*
X1293613Y556100D01*
Y519532D01*
X1288138D01*
Y511008D01*
X1302662D01*
Y519532D01*
X1297187D01*
Y555360D01*
X1303475Y561647D01*
X1304648Y561161D01*
Y560888D01*
X1319172D01*
Y562776D01*
X1344018D01*
Y560538D01*
X1358542D01*
Y569062D01*
X1344018D01*
Y567174D01*
X1319172D01*
Y569412D01*
X1308879D01*
Y590150D01*
X1308798Y590346D01*
X1309409Y591820D01*
X1308282Y594542D01*
X1305560Y595669D01*
X1302838Y594542D01*
X1301711Y591820D01*
X1301927Y591298D01*
X1281789Y571159D01*
X1227731D01*
X1219485Y579405D01*
X1219485Y579405D01*
X1199807Y599083D01*
X1200023Y599605D01*
X1198896Y602327D01*
X1196174Y603455D01*
X1195652Y603238D01*
X1162979Y635911D01*
Y681079D01*
X1185658Y703757D01*
X1186180Y703541D01*
X1188902Y704668D01*
X1190029Y707390D01*
X1189813Y707912D01*
X1217408Y735507D01*
X1217930Y735291D01*
X1220652Y736418D01*
X1221779Y739140D01*
X1221563Y739662D01*
X1232811Y750911D01*
X1285599D01*
X1318437Y718072D01*
X1318221Y717550D01*
X1319348Y714828D01*
X1322070Y713701D01*
X1324792Y714828D01*
X1325919Y717550D01*
X1325703Y718072D01*
X1389021Y781391D01*
X1547718D01*
Y776828D01*
X1558132D01*
X1575785Y759175D01*
X1577340Y758531D01*
X1648819D01*
X1659395Y747954D01*
X1658358Y745450D01*
Y740450D01*
X1659551Y737571D01*
X1662430Y736378D01*
X1665309Y737571D01*
X1666502Y740450D01*
Y745450D01*
X1666220Y746130D01*
X1675415Y755325D01*
X1676059Y756880D01*
Y787298D01*
X1681122D01*
Y795822D01*
D02*
G37*
G36*
X1643430Y749522D02*
X1640551Y748329D01*
X1639358Y745450D01*
Y740450D01*
X1639536Y740020D01*
X1637554Y738037D01*
X1612542D01*
Y740512D01*
X1598018D01*
Y731988D01*
X1612542D01*
Y734463D01*
X1638294D01*
X1639557Y734986D01*
X1641676Y737105D01*
X1643430Y736378D01*
X1646309Y737571D01*
X1647502Y740450D01*
Y745450D01*
X1646309Y748329D01*
X1643430Y749522D01*
D02*
G37*
G36*
X1102360Y738968D02*
Y731520D01*
X1109808D01*
X1107626Y736786D01*
X1102360Y738968D01*
D02*
G37*
G36*
X1099820D02*
X1094554Y736786D01*
X1092372Y731520D01*
X1099820D01*
Y738968D01*
D02*
G37*
G36*
X756920Y745189D02*
X751745Y743045D01*
X749601Y737870D01*
X751745Y732695D01*
X756920Y730551D01*
X762095Y732695D01*
X764239Y737870D01*
X762095Y743045D01*
X756920Y745189D01*
D02*
G37*
G36*
X731520D02*
X726345Y743045D01*
X724201Y737870D01*
X726345Y732695D01*
X731520Y730551D01*
X736695Y732695D01*
X738839Y737870D01*
X736695Y743045D01*
X731520Y745189D01*
D02*
G37*
G36*
X1614320Y730290D02*
X1606550D01*
Y725520D01*
X1614320D01*
Y730290D01*
D02*
G37*
G36*
X1604010D02*
X1596240D01*
Y725520D01*
X1604010D01*
Y730290D01*
D02*
G37*
G36*
X1554480Y740109D02*
X1549305Y737965D01*
X1547901Y734577D01*
X1510174D01*
X1508911Y734054D01*
X1481494Y706637D01*
X1425509D01*
X1425122Y707572D01*
X1422400Y708699D01*
X1419678Y707572D01*
X1418551Y704850D01*
X1419678Y702128D01*
X1422400Y701001D01*
X1425122Y702128D01*
X1425509Y703063D01*
X1482234D01*
X1483498Y703586D01*
X1510915Y731003D01*
X1547901D01*
X1549305Y727615D01*
X1554480Y725471D01*
X1559655Y727615D01*
X1561799Y732790D01*
X1559655Y737965D01*
X1554480Y740109D01*
D02*
G37*
G36*
X1495250Y727710D02*
X1490980D01*
Y723940D01*
X1495250D01*
Y727710D01*
D02*
G37*
G36*
X1488440D02*
X1484170D01*
Y723940D01*
X1488440D01*
Y727710D01*
D02*
G37*
G36*
X1109808Y728980D02*
X1102360D01*
Y721532D01*
X1107626Y723714D01*
X1109808Y728980D01*
D02*
G37*
G36*
X1099820D02*
X1092372D01*
X1094554Y723714D01*
X1099820Y721532D01*
Y728980D01*
D02*
G37*
G36*
X1614320Y722980D02*
X1606550D01*
Y718210D01*
X1614320D01*
Y722980D01*
D02*
G37*
G36*
X1604010D02*
X1596240D01*
Y718210D01*
X1604010D01*
Y722980D01*
D02*
G37*
G36*
X1654200Y724920D02*
Y716950D01*
X1651660D01*
Y724920D01*
X1648690Y723690D01*
X1647853Y721669D01*
X1646583D01*
X1646309Y722329D01*
X1643430Y723522D01*
X1640551Y722329D01*
X1639358Y719450D01*
Y714450D01*
X1640551Y711571D01*
X1640569Y711563D01*
Y700832D01*
X1640128Y699770D01*
X1640773Y698215D01*
X1642328Y697571D01*
X1660031D01*
X1730081Y627521D01*
Y426361D01*
X1728829Y425109D01*
X1645920D01*
X1644365Y424465D01*
X1618195Y398295D01*
X1617551Y396740D01*
Y357268D01*
X1617295Y357162D01*
X1613758D01*
Y328638D01*
X1627282D01*
Y357162D01*
X1622205D01*
X1621949Y357268D01*
Y395829D01*
X1646831Y420711D01*
X1729740D01*
X1731295Y421355D01*
X1733835Y423895D01*
X1734479Y425450D01*
Y628432D01*
X1733835Y629987D01*
X1664025Y699798D01*
X1664629Y701258D01*
Y710688D01*
X1666192D01*
Y715351D01*
X1708508D01*
Y712018D01*
X1723032D01*
Y720542D01*
X1708508D01*
Y719749D01*
X1666192D01*
Y723212D01*
X1658668D01*
Y723212D01*
X1657467Y722973D01*
X1657170Y723690D01*
X1654200Y724920D01*
D02*
G37*
G36*
X1107852Y787812D02*
X1094328D01*
Y774288D01*
X1104742D01*
X1159687Y719342D01*
X1159471Y718820D01*
X1160598Y716098D01*
X1163320Y714971D01*
X1166042Y716098D01*
X1167169Y718820D01*
X1166042Y721542D01*
X1163320Y722669D01*
X1162798Y722453D01*
X1107852Y777398D01*
Y787812D01*
D02*
G37*
G36*
X1555750Y716108D02*
Y708660D01*
X1563198D01*
X1561016Y713926D01*
X1555750Y716108D01*
D02*
G37*
G36*
X1553210D02*
X1547944Y713926D01*
X1545762Y708660D01*
X1553210D01*
Y716108D01*
D02*
G37*
G36*
X1724810Y710320D02*
X1717040D01*
Y705550D01*
X1724810D01*
Y710320D01*
D02*
G37*
G36*
X1714500D02*
X1706730D01*
Y705550D01*
X1714500D01*
Y710320D01*
D02*
G37*
G36*
X756920Y719789D02*
X751745Y717645D01*
X749601Y712470D01*
X751745Y707295D01*
X756920Y705151D01*
X762095Y707295D01*
X764239Y712470D01*
X762095Y717645D01*
X756920Y719789D01*
D02*
G37*
G36*
X731520D02*
X726345Y717645D01*
X724201Y712470D01*
X726345Y707295D01*
X731520Y705151D01*
X736695Y707295D01*
X738839Y712470D01*
X736695Y717645D01*
X731520Y719789D01*
D02*
G37*
G36*
X1563198Y706120D02*
X1555750D01*
Y698672D01*
X1561016Y700854D01*
X1563198Y706120D01*
D02*
G37*
G36*
X1553210D02*
X1545762D01*
X1547944Y700854D01*
X1553210Y698672D01*
Y706120D01*
D02*
G37*
G36*
X1724810Y703010D02*
X1717040D01*
Y698240D01*
X1724810D01*
Y703010D01*
D02*
G37*
G36*
X1714500D02*
X1706730D01*
Y698240D01*
X1714500D01*
Y703010D01*
D02*
G37*
G36*
X1382160Y735549D02*
X1373923Y732137D01*
X1370511Y723900D01*
X1373923Y715663D01*
X1374070Y714927D01*
X1365574Y706431D01*
X1365051Y705167D01*
Y699558D01*
X1360112Y694620D01*
X1358777Y695080D01*
X1357812Y697412D01*
X1356877Y697799D01*
Y713138D01*
X1367922D01*
Y734662D01*
X1346398D01*
Y713138D01*
X1353303D01*
Y697799D01*
X1352368Y697412D01*
X1351241Y694690D01*
X1352368Y691968D01*
X1354700Y691003D01*
X1355161Y689668D01*
X1342602Y677110D01*
X1336992D01*
X1335729Y676586D01*
X1321330Y662187D01*
X1281190D01*
X1280664Y663457D01*
X1301744Y684536D01*
X1302267Y685800D01*
X1301744Y687064D01*
X1300480Y687587D01*
X1299216Y687064D01*
X1256036Y643884D01*
X1255513Y642620D01*
Y584769D01*
X1254578Y584382D01*
X1253451Y581660D01*
X1254578Y578938D01*
X1257300Y577811D01*
X1260022Y578938D01*
X1261149Y581660D01*
X1260022Y584382D01*
X1259087Y584769D01*
Y641880D01*
X1263133Y645926D01*
X1264403Y645400D01*
Y640649D01*
X1263468Y640262D01*
X1262341Y637540D01*
X1263468Y634818D01*
X1266190Y633691D01*
X1268912Y634818D01*
X1270039Y637540D01*
X1268912Y640262D01*
X1267977Y640649D01*
Y645690D01*
X1280900Y658613D01*
X1322070D01*
X1323334Y659136D01*
X1337733Y673536D01*
X1343342D01*
X1344606Y674059D01*
X1347453Y676905D01*
X1348529Y676186D01*
X1345511Y668900D01*
X1348923Y660663D01*
X1357160Y657251D01*
X1365397Y660663D01*
X1368809Y668900D01*
X1365397Y677137D01*
X1357160Y680549D01*
X1349874Y677531D01*
X1349155Y678607D01*
X1368101Y697554D01*
X1368625Y698818D01*
Y704427D01*
X1378121Y713924D01*
X1382160Y712251D01*
X1390397Y715663D01*
X1393809Y723900D01*
X1390397Y732137D01*
X1382160Y735549D01*
D02*
G37*
G36*
X1101090Y762969D02*
X1095915Y760825D01*
X1093771Y755650D01*
X1095915Y750475D01*
X1101090Y748331D01*
X1104066Y749564D01*
X1149113Y704517D01*
Y699893D01*
X1148591Y699677D01*
X1147463Y696955D01*
X1148591Y694234D01*
X1151312Y693107D01*
X1154034Y694234D01*
X1155161Y696955D01*
X1154034Y699677D01*
X1153512Y699893D01*
Y705428D01*
X1152868Y706983D01*
X1107176Y752674D01*
X1108409Y755650D01*
X1106265Y760825D01*
X1101090Y762969D01*
D02*
G37*
G36*
X1382160Y680549D02*
X1373923Y677137D01*
X1370511Y668900D01*
X1372952Y663009D01*
X1314980Y605037D01*
X1302319D01*
X1301932Y605972D01*
X1299210Y607099D01*
X1296488Y605972D01*
X1295361Y603250D01*
X1296488Y600528D01*
X1299210Y599401D01*
X1301932Y600528D01*
X1302319Y601463D01*
X1315720D01*
X1316984Y601986D01*
X1375152Y660154D01*
X1382160Y657251D01*
X1390397Y660663D01*
X1393809Y668900D01*
X1390397Y677137D01*
X1382160Y680549D01*
D02*
G37*
G36*
X1116480Y587130D02*
X1108710D01*
Y582360D01*
X1116480D01*
Y587130D01*
D02*
G37*
G36*
X1106170D02*
X1098400D01*
Y582360D01*
X1106170D01*
Y587130D01*
D02*
G37*
G36*
X1145690Y586430D02*
X1137920D01*
Y581660D01*
X1145690D01*
Y586430D01*
D02*
G37*
G36*
X1135380D02*
X1127610D01*
Y581660D01*
X1135380D01*
Y586430D01*
D02*
G37*
G36*
X1234440Y670599D02*
X1231718Y669472D01*
X1230591Y666750D01*
X1231718Y664028D01*
X1234440Y662901D01*
X1235375Y663288D01*
X1244718Y653945D01*
Y585404D01*
X1243783Y585017D01*
X1242656Y582295D01*
X1243783Y579573D01*
X1246505Y578446D01*
X1249227Y579573D01*
X1250354Y582295D01*
X1249227Y585017D01*
X1248292Y585404D01*
Y654685D01*
X1247769Y655949D01*
X1237902Y665815D01*
X1238289Y666750D01*
X1237162Y669472D01*
X1234440Y670599D01*
D02*
G37*
G36*
X1116480Y579820D02*
X1108710D01*
Y575050D01*
X1116480D01*
Y579820D01*
D02*
G37*
G36*
X1106170D02*
X1098400D01*
Y575050D01*
X1106170D01*
Y579820D01*
D02*
G37*
G36*
X1145690Y579120D02*
X1137920D01*
Y574350D01*
X1145690D01*
Y579120D01*
D02*
G37*
G36*
X1135380D02*
X1127610D01*
Y574350D01*
X1135380D01*
Y579120D01*
D02*
G37*
G36*
X1670050Y588979D02*
X1664875Y586835D01*
X1662731Y581660D01*
X1664875Y576485D01*
X1670050Y574341D01*
X1675225Y576485D01*
X1677369Y581660D01*
X1675225Y586835D01*
X1670050Y588979D01*
D02*
G37*
G36*
X1644650D02*
X1639475Y586835D01*
X1637331Y581660D01*
X1639475Y576485D01*
X1644650Y574341D01*
X1649825Y576485D01*
X1651969Y581660D01*
X1649825Y586835D01*
X1644650Y588979D01*
D02*
G37*
G36*
X1264285Y564554D02*
X1261563Y563427D01*
X1260436Y560705D01*
X1260823Y559770D01*
X1253496Y552444D01*
X1252973Y551180D01*
Y525902D01*
X1243998D01*
Y504378D01*
X1262995D01*
X1283496Y483876D01*
X1284760Y483353D01*
X1293912D01*
X1295176Y483876D01*
X1296664Y485364D01*
X1297187Y486628D01*
Y499008D01*
X1302662D01*
Y507532D01*
X1288138D01*
Y499008D01*
X1293613D01*
Y487368D01*
X1293172Y486927D01*
X1285500D01*
X1265522Y506905D01*
Y525902D01*
X1256547D01*
Y550440D01*
X1263350Y557243D01*
X1264285Y556856D01*
X1267007Y557983D01*
X1268134Y560705D01*
X1267007Y563427D01*
X1264285Y564554D01*
D02*
G37*
G36*
X1320950Y559190D02*
X1313180D01*
Y554420D01*
X1320950D01*
Y559190D01*
D02*
G37*
G36*
X1310640D02*
X1302870D01*
Y554420D01*
X1310640D01*
Y559190D01*
D02*
G37*
G36*
X1360320Y558840D02*
X1352550D01*
Y554070D01*
X1360320D01*
Y558840D01*
D02*
G37*
G36*
X1350010D02*
X1342240D01*
Y554070D01*
X1350010D01*
Y558840D01*
D02*
G37*
G36*
X1670050Y563579D02*
X1664875Y561435D01*
X1662731Y556260D01*
X1664875Y551085D01*
X1670050Y548941D01*
X1675225Y551085D01*
X1677369Y556260D01*
X1675225Y561435D01*
X1670050Y563579D01*
D02*
G37*
G36*
X1644650D02*
X1639475Y561435D01*
X1637331Y556260D01*
X1639475Y551085D01*
X1644650Y548941D01*
X1649825Y551085D01*
X1651969Y556260D01*
X1649825Y561435D01*
X1644650Y563579D01*
D02*
G37*
G36*
X1320950Y551880D02*
X1313180D01*
Y547110D01*
X1320950D01*
Y551880D01*
D02*
G37*
G36*
X1310640D02*
X1302870D01*
Y547110D01*
X1310640D01*
Y551880D01*
D02*
G37*
G36*
X1360320Y551530D02*
X1352550D01*
Y546760D01*
X1360320D01*
Y551530D01*
D02*
G37*
G36*
X1350010D02*
X1342240D01*
Y546760D01*
X1350010D01*
Y551530D01*
D02*
G37*
G36*
X1150620Y539059D02*
X1149065Y538415D01*
X1148430Y537780D01*
X1147786Y536225D01*
X1148430Y534670D01*
X1149985Y534026D01*
X1151540Y534670D01*
X1152175Y535305D01*
X1152819Y536860D01*
X1152175Y538415D01*
X1150620Y539059D01*
D02*
G37*
G36*
X1119505Y538424D02*
X1117950Y537780D01*
X1117315Y537145D01*
X1116671Y535590D01*
X1117315Y534035D01*
X1118870Y533391D01*
X1120425Y534035D01*
X1121060Y534670D01*
X1121704Y536225D01*
X1121060Y537780D01*
X1119505Y538424D01*
D02*
G37*
G36*
X1670050Y538179D02*
X1664875Y536035D01*
X1662731Y530860D01*
X1664875Y525685D01*
X1670050Y523541D01*
X1675225Y525685D01*
X1677369Y530860D01*
X1675225Y536035D01*
X1670050Y538179D01*
D02*
G37*
G36*
X1644650D02*
X1639475Y536035D01*
X1637331Y530860D01*
X1639475Y525685D01*
X1644650Y523541D01*
X1649825Y525685D01*
X1651969Y530860D01*
X1649825Y536035D01*
X1644650Y538179D01*
D02*
G37*
G36*
Y512779D02*
X1639475Y510635D01*
X1637331Y505460D01*
X1639475Y500285D01*
X1644650Y498141D01*
X1649825Y500285D01*
X1651969Y505460D01*
X1649825Y510635D01*
X1644650Y512779D01*
D02*
G37*
G36*
X738282Y493172D02*
X724758D01*
Y479648D01*
X738282D01*
Y493172D01*
D02*
G37*
G36*
X756920Y493729D02*
X751745Y491585D01*
X749601Y486410D01*
X751745Y481235D01*
X756920Y479091D01*
X762095Y481235D01*
X764239Y486410D01*
X762095Y491585D01*
X756920Y493729D01*
D02*
G37*
G36*
X1676812Y512222D02*
X1663288D01*
Y501134D01*
X1663121Y500730D01*
Y494708D01*
X1637560Y469147D01*
X1601358D01*
X1599682Y473192D01*
X1593850Y475608D01*
X1588018Y473192D01*
X1585602Y467360D01*
X1588018Y461528D01*
X1593850Y459112D01*
X1599682Y461528D01*
X1601358Y465573D01*
X1638300D01*
X1639564Y466096D01*
X1665880Y492412D01*
X1666875Y492825D01*
X1667519Y494380D01*
Y498698D01*
X1676812D01*
Y512222D01*
D02*
G37*
G36*
X1267300Y467680D02*
X1256030D01*
Y456410D01*
X1267300D01*
Y467680D01*
D02*
G37*
G36*
X1253490D02*
X1242220D01*
Y456410D01*
X1253490D01*
Y467680D01*
D02*
G37*
G36*
X756920Y468329D02*
X751745Y466185D01*
X749601Y461010D01*
X751745Y455835D01*
X756920Y453691D01*
X762095Y455835D01*
X764239Y461010D01*
X762095Y466185D01*
X756920Y468329D01*
D02*
G37*
G36*
X731520D02*
X726345Y466185D01*
X724201Y461010D01*
X726345Y455835D01*
X731520Y453691D01*
X736695Y455835D01*
X738839Y461010D01*
X736695Y466185D01*
X731520Y468329D01*
D02*
G37*
G36*
X1267300Y453870D02*
X1256030D01*
Y442600D01*
X1267300D01*
Y453870D01*
D02*
G37*
G36*
X1253490D02*
X1242220D01*
Y442600D01*
X1253490D01*
Y453870D01*
D02*
G37*
G36*
X756920Y442929D02*
X751745Y440785D01*
X749601Y435610D01*
X751745Y430435D01*
X756920Y428291D01*
X762095Y430435D01*
X764239Y435610D01*
X762095Y440785D01*
X756920Y442929D01*
D02*
G37*
G36*
X731520D02*
X726345Y440785D01*
X724201Y435610D01*
X726345Y430435D01*
X731520Y428291D01*
X736695Y430435D01*
X738839Y435610D01*
X736695Y440785D01*
X731520Y442929D01*
D02*
G37*
G36*
X756920Y417529D02*
X751745Y415385D01*
X749601Y410210D01*
X751745Y405035D01*
X756920Y402891D01*
X762095Y405035D01*
X764239Y410210D01*
X762095Y415385D01*
X756920Y417529D01*
D02*
G37*
G36*
X731520D02*
X726345Y415385D01*
X724201Y410210D01*
X726345Y405035D01*
X731520Y402891D01*
X736695Y405035D01*
X738839Y410210D01*
X736695Y415385D01*
X731520Y417529D01*
D02*
G37*
G36*
X1692060Y358940D02*
X1684790D01*
Y344170D01*
X1692060D01*
Y358940D01*
D02*
G37*
G36*
X1682250D02*
X1674980D01*
Y344170D01*
X1682250D01*
Y358940D01*
D02*
G37*
G36*
X1692060Y341630D02*
X1684790D01*
Y326860D01*
X1692060D01*
Y341630D01*
D02*
G37*
G36*
X1682250D02*
X1674980D01*
Y326860D01*
X1682250D01*
Y341630D01*
D02*
G37*
G36*
X1664782Y303662D02*
X1636258D01*
Y290138D01*
X1664782D01*
Y303662D01*
D02*
G37*
G36*
X1285652Y208692D02*
X1272128D01*
Y195168D01*
X1285652D01*
Y208692D01*
D02*
G37*
G36*
X1253490Y209249D02*
X1248315Y207105D01*
X1246171Y201930D01*
X1248315Y196755D01*
X1253490Y194611D01*
X1258665Y196755D01*
X1260809Y201930D01*
X1258665Y207105D01*
X1253490Y209249D01*
D02*
G37*
G36*
X1228090D02*
X1222915Y207105D01*
X1220771Y201930D01*
X1222915Y196755D01*
X1228090Y194611D01*
X1233265Y196755D01*
X1235409Y201930D01*
X1233265Y207105D01*
X1228090Y209249D01*
D02*
G37*
G36*
X1202690D02*
X1197515Y207105D01*
X1195371Y201930D01*
X1197515Y196755D01*
X1202690Y194611D01*
X1207865Y196755D01*
X1210009Y201930D01*
X1207865Y207105D01*
X1202690Y209249D01*
D02*
G37*
G36*
X1315720Y258438D02*
X1309888Y256022D01*
X1307472Y250190D01*
X1309888Y244358D01*
X1313933Y242682D01*
Y214100D01*
X1282278Y182446D01*
X1278890Y183849D01*
X1273715Y181705D01*
X1271571Y176530D01*
X1273715Y171355D01*
X1278890Y169211D01*
X1284065Y171355D01*
X1286209Y176530D01*
X1284806Y179918D01*
X1316984Y212096D01*
X1317507Y213360D01*
Y242682D01*
X1321552Y244358D01*
X1323968Y250190D01*
X1321552Y256022D01*
X1315720Y258438D01*
D02*
G37*
G36*
X1253490Y183849D02*
X1248315Y181705D01*
X1246171Y176530D01*
X1248315Y171355D01*
X1253490Y169211D01*
X1258665Y171355D01*
X1260809Y176530D01*
X1258665Y181705D01*
X1253490Y183849D01*
D02*
G37*
G36*
X1228090D02*
X1222915Y181705D01*
X1220771Y176530D01*
X1222915Y171355D01*
X1228090Y169211D01*
X1233265Y171355D01*
X1235409Y176530D01*
X1233265Y181705D01*
X1228090Y183849D01*
D02*
G37*
G36*
X1202690D02*
X1197515Y181705D01*
X1195371Y176530D01*
X1197515Y171355D01*
X1202690Y169211D01*
X1207865Y171355D01*
X1210009Y176530D01*
X1207865Y181705D01*
X1202690Y183849D01*
D02*
G37*
%LPD*%
D12*
X1101090Y781050D02*
X1163320Y718820D01*
X1242695Y956945D02*
X1318895D01*
X1073150Y957580D02*
X1155700D01*
X928370D02*
X1073150D01*
X883285Y1050575D02*
X883920Y1049940D01*
X838835Y1050575D02*
X883285D01*
X838200Y1051210D02*
X838835Y1050575D01*
X1135380Y591820D02*
X1143166Y599605D01*
X1109980Y591820D02*
X1135380D01*
X1216025Y766795D02*
X1217930Y764890D01*
X1355090Y721830D02*
X1357160Y723900D01*
X1388110Y783590D02*
X1554480D01*
X1322070Y717550D02*
X1388110Y783590D01*
X1554480D02*
X1577340Y760730D01*
X1649730D02*
X1663720Y746740D01*
X1577340Y760730D02*
X1649730D01*
X1673225Y804195D02*
X1673860Y803560D01*
X1640840Y804830D02*
X1641475Y804195D01*
X716280Y1025390D02*
X793250D01*
X922830Y957580D02*
X928370D01*
X841200Y1039210D02*
X922830Y957580D01*
X838200Y1039210D02*
X841200D01*
X895985Y782955D02*
Y875665D01*
X895350Y621030D02*
Y782320D01*
X1117600Y308610D02*
X1192530D01*
X896620Y260350D02*
Y303530D01*
X793250Y1025390D02*
X807070Y1039210D01*
X838200D01*
X1663720Y746740D02*
X1673860Y756880D01*
X1662430Y745450D02*
X1663720Y746740D01*
X1663030Y717550D02*
X1715770D01*
X1660942Y699770D02*
X1732280Y628432D01*
Y425450D02*
Y628432D01*
X1729740Y422910D02*
X1732280Y425450D01*
X1645920Y422910D02*
X1729740D01*
X1619750Y396740D02*
X1645920Y422910D01*
X1619750Y354330D02*
Y396740D01*
X1673860Y756880D02*
Y791560D01*
X1642768Y699770D02*
X1660942D01*
X1642328D02*
X1642768D01*
Y716288D01*
X1643430Y716950D01*
X1660942Y699770D02*
X1662430Y701258D01*
Y716950D01*
X1663030Y717550D01*
X1619750Y354330D02*
X1621020Y353060D01*
X1305560Y591270D02*
Y591820D01*
Y591270D02*
X1306680Y590150D01*
Y567380D02*
Y590150D01*
Y567380D02*
X1308910Y565150D01*
X1311910D01*
X1351105Y564975D02*
X1351280Y564800D01*
X1312085Y564975D02*
X1351105D01*
X1311910Y565150D02*
X1312085Y564975D01*
X1282700Y568960D02*
X1305560Y591820D01*
X1226820Y568960D02*
X1282700D01*
X1217930Y577850D02*
X1226820Y568960D01*
X1217930Y577850D02*
Y577850D01*
X1196174Y599605D02*
X1217930Y577850D01*
X1160780Y635000D02*
X1196174Y599605D01*
X1160780Y635000D02*
Y681990D01*
X1186180Y707390D01*
X1107440Y593090D02*
X1110440D01*
X1143166Y599605D02*
X1196174D01*
X1101090Y755650D02*
X1151312Y705428D01*
Y696955D02*
Y705428D01*
X1231900Y753110D02*
X1286510D01*
X1322070Y717550D01*
X1217930Y739140D02*
X1231900Y753110D01*
X1186180Y707390D02*
X1217930Y739140D01*
Y764890D01*
X1185545Y766795D02*
X1216025D01*
X1184910Y767430D02*
X1185545Y766795D01*
X1149985Y536225D02*
X1150620Y536860D01*
X1118870Y535590D02*
X1119505Y536225D01*
X1537970Y632460D02*
X1538605Y631825D01*
Y570865D02*
Y631825D01*
Y570865D02*
X1539240Y570230D01*
X1570990Y948230D02*
X1571855Y949095D01*
X1652675D01*
X1653540Y949960D01*
X1537970Y347980D02*
Y434340D01*
X1498600Y308610D02*
X1537970Y347980D01*
X1347470Y308610D02*
X1498600D01*
X1073150D02*
X1117600D01*
X1055370Y290830D02*
X1073150Y308610D01*
X1055370Y252730D02*
Y290830D01*
X1040130Y237490D02*
X1055370Y252730D01*
X919480Y237490D02*
X1040130D01*
X896620Y260350D02*
X919480Y237490D01*
X895350Y877570D02*
Y924560D01*
Y877570D02*
X896620Y876300D01*
X895350Y924560D02*
X928370Y957580D01*
X1346835Y309245D02*
X1347470Y308610D01*
X1271905Y309245D02*
X1346835D01*
X1271270Y309880D02*
X1271905Y309245D01*
X1270635D02*
X1271270Y309880D01*
X1193165Y309245D02*
X1270635D01*
X1192530Y308610D02*
X1193165Y309245D01*
X1665320Y494380D02*
Y500730D01*
X1670050Y505460D01*
X1537970Y499110D02*
X1538605Y499745D01*
Y569595D01*
X1539240Y570230D01*
X1537970Y434340D02*
Y499110D01*
X1609090Y1007110D02*
Y1078230D01*
X1588770Y1098550D02*
X1609090Y1078230D01*
X1535430Y1098550D02*
X1588770D01*
X1569490Y949730D02*
X1570990Y948230D01*
X1492480Y949730D02*
X1569490D01*
X1490980Y951230D02*
X1492480Y949730D01*
X1490345Y951865D02*
X1490980Y951230D01*
X1411605Y951865D02*
X1490345D01*
X1410970Y952500D02*
X1411605Y951865D01*
X1409302Y952500D02*
X1410970D01*
X1402952Y958850D02*
X1409302Y952500D01*
X1320800Y958850D02*
X1402952D01*
X1220470Y1107440D02*
X1286510Y1041400D01*
Y990600D02*
Y1041400D01*
X1318895Y956945D02*
X1320800Y958850D01*
X1240790Y955040D02*
X1242695Y956945D01*
X1239520Y956310D02*
X1240790Y955040D01*
X1156970Y956310D02*
X1239520D01*
X1155700Y957580D02*
X1156970Y956310D01*
X894791Y304241D02*
Y379019D01*
X894890Y380540D02*
Y456390D01*
X894715Y457835D02*
Y537845D01*
Y539115D02*
Y620395D01*
X895985Y875665D02*
X896620Y876300D01*
D13*
X1107440Y581090D02*
D03*
Y593090D02*
D03*
X1136650Y580390D02*
D03*
Y592390D02*
D03*
X1295400Y503270D02*
D03*
Y515270D02*
D03*
X1311910Y553150D02*
D03*
Y565150D02*
D03*
X883920Y1037940D02*
D03*
Y1049940D02*
D03*
X838200Y1039210D02*
D03*
Y1051210D02*
D03*
X1640840Y792830D02*
D03*
Y804830D02*
D03*
X1715770Y716280D02*
D03*
Y704280D02*
D03*
X1605280Y724250D02*
D03*
Y736250D02*
D03*
X1673860Y803560D02*
D03*
Y791560D02*
D03*
X1183640Y768700D02*
D03*
Y780700D02*
D03*
X1221740Y767780D02*
D03*
Y779780D02*
D03*
X1351280Y564800D02*
D03*
Y552800D02*
D03*
D22*
X1493520Y760730D02*
D03*
X1489710Y728980D02*
D03*
D45*
X1254760Y551180D02*
X1264285Y560705D01*
X1254760Y515140D02*
Y551180D01*
X1293912Y485140D02*
X1295400Y486628D01*
Y503270D01*
X1284760Y485140D02*
X1293912D01*
X1254760Y515140D02*
X1284760Y485140D01*
X1295400Y556100D02*
X1306680Y567380D01*
X1295400Y515270D02*
Y556100D01*
X1451080Y767820D02*
X1468120D01*
X1407160Y723900D02*
X1451080Y767820D01*
X1366837Y705167D02*
X1381760Y720090D01*
X1366837Y698818D02*
Y705167D01*
X1322070Y660400D02*
X1336992Y675322D01*
X1343342D01*
X1355090Y694690D02*
Y721830D01*
X1485900Y736600D02*
X1489710D01*
X1468120Y718820D02*
X1485900Y736600D01*
X1422400Y704850D02*
X1482234D01*
X1422400Y718820D02*
X1468120D01*
X1407160Y703580D02*
X1422400Y718820D01*
X1407160Y668900D02*
Y703580D01*
X1482234Y704850D02*
X1510174Y732790D01*
X1343342Y675322D02*
X1366837Y698818D01*
X1280160Y660400D02*
X1322070D01*
X1510174Y732790D02*
X1554480D01*
X1246505Y582295D02*
Y654685D01*
X1234440Y666750D02*
X1246505Y654685D01*
X1641475Y804195D02*
X1673225D01*
X1638294Y736250D02*
X1641832Y739788D01*
X1605280Y736250D02*
X1638294D01*
X1315720Y603250D02*
X1379855Y667385D01*
X1299210Y603250D02*
X1315720D01*
X1266190Y646430D02*
X1280160Y660400D01*
X1266190Y637540D02*
Y646430D01*
X1257300Y642620D02*
X1300480Y685800D01*
X1257300Y581660D02*
Y642620D01*
X1278890Y176530D02*
X1315720Y213360D01*
Y250190D01*
X1638300Y467360D02*
X1665320Y494380D01*
X1593850Y467360D02*
X1638300D01*
X731520Y788670D02*
Y830580D01*
X735330Y834390D01*
X808990D01*
D46*
X1554480Y783590D02*
D03*
X1101090Y781050D02*
D03*
X1670050Y505460D02*
D03*
X731520Y486410D02*
D03*
Y788670D02*
D03*
D47*
X1554480Y758190D02*
D03*
Y732790D02*
D03*
Y707390D02*
D03*
X1468120Y718820D02*
D03*
X1459230Y1073150D02*
D03*
X1484630D02*
D03*
X1510030D02*
D03*
X1535430D02*
D03*
X1459230Y1098550D02*
D03*
X1484630D02*
D03*
X1510030D02*
D03*
X1101090Y755650D02*
D03*
Y730250D02*
D03*
X1644650Y581660D02*
D03*
Y556260D02*
D03*
Y530860D02*
D03*
Y505460D02*
D03*
X1670050Y581660D02*
D03*
Y556260D02*
D03*
Y530860D02*
D03*
X1253490Y201930D02*
D03*
X1228090D02*
D03*
X1202690D02*
D03*
X1278890Y176530D02*
D03*
X1253490D02*
D03*
X1228090D02*
D03*
X1202690D02*
D03*
X731520Y461010D02*
D03*
Y435610D02*
D03*
Y410210D02*
D03*
X756920Y486410D02*
D03*
Y461010D02*
D03*
Y435610D02*
D03*
Y410210D02*
D03*
X731520Y763270D02*
D03*
Y737870D02*
D03*
Y712470D02*
D03*
X756920Y788670D02*
D03*
Y763270D02*
D03*
Y737870D02*
D03*
Y712470D02*
D03*
X1195070Y1107440D02*
D03*
X1169670D02*
D03*
X1144270D02*
D03*
X1220470Y1082040D02*
D03*
X1195070D02*
D03*
X1169670D02*
D03*
X1144270D02*
D03*
D48*
X1254760Y515140D02*
D03*
Y455140D02*
D03*
X1357160Y723900D02*
D03*
D49*
X1382160D02*
D03*
X1407160D02*
D03*
X1357160Y668900D02*
D03*
X1382160D02*
D03*
X1407160D02*
D03*
D50*
X670560Y1167130D02*
D03*
X1767840Y1169670D02*
D03*
Y120650D02*
D03*
X673100Y123190D02*
D03*
D51*
X1753870Y801370D02*
D03*
D52*
Y826770D02*
D03*
Y852170D02*
D03*
D53*
X709930Y1087050D02*
D03*
Y1024050D02*
D03*
X1650520Y296900D02*
D03*
D54*
X755930Y1054050D02*
D03*
X1683520Y342900D02*
D03*
X1620520D02*
D03*
D55*
X1468120Y767820D02*
D03*
X1535430Y1098550D02*
D03*
X1278890Y201930D02*
D03*
X1220470Y1107440D02*
D03*
D56*
X1163320Y718820D02*
D03*
X1264285Y560705D02*
D03*
X1355090Y694690D02*
D03*
X1520190Y767820D02*
D03*
X1422400Y704850D02*
D03*
X1234440Y666750D02*
D03*
X1621020Y353060D02*
D03*
X1619750Y354330D02*
D03*
X1299210Y603250D02*
D03*
X1266190Y637540D02*
D03*
X1257300Y581660D02*
D03*
X1246505Y582295D02*
D03*
X1305560Y591820D02*
D03*
X1196174Y599605D02*
D03*
X1186180Y707390D02*
D03*
X1217930Y739140D02*
D03*
X1322070Y717550D02*
D03*
X1151312Y696955D02*
D03*
D57*
X896620Y621030D02*
D03*
X1315720Y250190D02*
D03*
X1117600Y308610D02*
D03*
X1192530Y306680D02*
D03*
X1347470Y308610D02*
D03*
X1271270Y309880D02*
D03*
X1593850Y467360D02*
D03*
X1537970Y434340D02*
D03*
Y499110D02*
D03*
X1539240Y570230D02*
D03*
X1537970Y632460D02*
D03*
X1609090Y1007110D02*
D03*
X1653540Y949960D02*
D03*
X1570990Y948230D02*
D03*
X1490980Y951230D02*
D03*
X1410970Y952500D02*
D03*
X1286510Y990600D02*
D03*
X1320800Y958850D02*
D03*
X1240790Y955040D02*
D03*
X1155700Y957580D02*
D03*
X1073150D02*
D03*
X899160Y302260D02*
D03*
X896620Y379730D02*
D03*
Y457200D02*
D03*
Y538480D02*
D03*
Y704850D02*
D03*
X808990Y834390D02*
D03*
X896620Y784860D02*
D03*
Y876300D02*
D03*
D58*
X1643430Y742950D02*
D03*
X1662430D02*
D03*
X1643430Y716950D02*
D03*
X1652930D02*
D03*
D59*
X1662430D02*
D03*
M02*
