G04*
G04 #@! TF.GenerationSoftware,Altium Limited,Altium Designer,19.1.5 (86)*
G04*
G04 Layer_Color=128*
%FSLAX44Y44*%
%MOMM*%
G71*
G01*
G75*
%ADD63C,0.0508*%
D63*
X1551480Y783590D02*
X1557480D01*
X1554480Y780590D02*
Y786590D01*
X1551480Y758190D02*
X1557480D01*
X1554480Y755190D02*
Y761190D01*
X1551480Y732790D02*
X1557480D01*
X1554480Y729790D02*
Y735790D01*
X1551480Y707390D02*
X1557480D01*
X1554480Y704390D02*
Y710390D01*
X1351660Y723900D02*
X1362660D01*
X1357160Y718400D02*
Y729400D01*
X1376660Y723900D02*
X1387660D01*
X1382160Y718400D02*
Y729400D01*
X1401660Y723900D02*
X1412660D01*
X1407160Y718400D02*
Y729400D01*
X1351660Y668900D02*
X1362660D01*
X1357160Y663400D02*
Y674400D01*
X1376660Y668900D02*
X1387660D01*
X1382160Y663400D02*
Y674400D01*
X1401660Y668900D02*
X1412660D01*
X1407160Y663400D02*
Y674400D01*
X655560Y1167130D02*
X685560D01*
X670560Y1152130D02*
Y1182130D01*
X1752840Y1169670D02*
X1782840D01*
X1767840Y1154670D02*
Y1184670D01*
X1752840Y120650D02*
X1782840D01*
X1767840Y105650D02*
Y135650D01*
X658100Y123190D02*
X688100D01*
X673100Y108190D02*
Y138190D01*
X1748870Y801370D02*
X1758870D01*
X1753870Y796370D02*
Y806370D01*
X1748870Y826770D02*
X1758870D01*
X1753870Y821770D02*
Y831770D01*
X1748870Y852170D02*
X1758870D01*
X1753870Y847170D02*
Y857170D01*
X707430Y1087050D02*
X712430D01*
X709930Y1084550D02*
Y1089550D01*
X707430Y1024050D02*
X712430D01*
X709930Y1021550D02*
Y1026550D01*
X753430Y1054050D02*
X758430D01*
X755930Y1051550D02*
Y1056550D01*
X1681020Y342900D02*
X1686020D01*
X1683520Y340400D02*
Y345400D01*
X1618020Y342900D02*
X1623020D01*
X1620520Y340400D02*
Y345400D01*
X1648020Y296900D02*
X1653020D01*
X1650520Y294400D02*
Y299400D01*
X1465120Y767820D02*
X1471120D01*
X1468120Y764820D02*
Y770820D01*
X1465120Y718820D02*
X1471120D01*
X1468120Y715820D02*
Y721820D01*
X1456230Y1073150D02*
X1462230D01*
X1459230Y1070150D02*
Y1076150D01*
X1481630Y1073150D02*
X1487630D01*
X1484630Y1070150D02*
Y1076150D01*
X1507030Y1073150D02*
X1513030D01*
X1510030Y1070150D02*
Y1076150D01*
X1532430Y1073150D02*
X1538430D01*
X1535430Y1070150D02*
Y1076150D01*
X1456230Y1098550D02*
X1462230D01*
X1459230Y1095550D02*
Y1101550D01*
X1481630Y1098550D02*
X1487630D01*
X1484630Y1095550D02*
Y1101550D01*
X1507030Y1098550D02*
X1513030D01*
X1510030Y1095550D02*
Y1101550D01*
X1532430Y1098550D02*
X1538430D01*
X1535430Y1095550D02*
Y1101550D01*
X1098090Y781050D02*
X1104090D01*
X1101090Y778050D02*
Y784050D01*
X1098090Y755650D02*
X1104090D01*
X1101090Y752650D02*
Y758650D01*
X1098090Y730250D02*
X1104090D01*
X1101090Y727250D02*
Y733250D01*
X1641650Y581660D02*
X1647650D01*
X1644650Y578660D02*
Y584660D01*
X1641650Y556260D02*
X1647650D01*
X1644650Y553260D02*
Y559260D01*
X1641650Y530860D02*
X1647650D01*
X1644650Y527860D02*
Y533860D01*
X1641650Y505460D02*
X1647650D01*
X1644650Y502460D02*
Y508460D01*
X1667050Y581660D02*
X1673050D01*
X1670050Y578660D02*
Y584660D01*
X1667050Y556260D02*
X1673050D01*
X1670050Y553260D02*
Y559260D01*
X1667050Y530860D02*
X1673050D01*
X1670050Y527860D02*
Y533860D01*
X1667050Y505460D02*
X1673050D01*
X1670050Y502460D02*
Y508460D01*
X1275890Y201930D02*
X1281890D01*
X1278890Y198930D02*
Y204930D01*
X1250490Y201930D02*
X1256490D01*
X1253490Y198930D02*
Y204930D01*
X1225090Y201930D02*
X1231090D01*
X1228090Y198930D02*
Y204930D01*
X1199690Y201930D02*
X1205690D01*
X1202690Y198930D02*
Y204930D01*
X1275890Y176530D02*
X1281890D01*
X1278890Y173530D02*
Y179530D01*
X1250490Y176530D02*
X1256490D01*
X1253490Y173530D02*
Y179530D01*
X1225090Y176530D02*
X1231090D01*
X1228090Y173530D02*
Y179530D01*
X1199690Y176530D02*
X1205690D01*
X1202690Y173530D02*
Y179530D01*
X728520Y486410D02*
X734520D01*
X731520Y483410D02*
Y489410D01*
X728520Y461010D02*
X734520D01*
X731520Y458010D02*
Y464010D01*
X728520Y435610D02*
X734520D01*
X731520Y432610D02*
Y438610D01*
X728520Y410210D02*
X734520D01*
X731520Y407210D02*
Y413210D01*
X753920Y486410D02*
X759920D01*
X756920Y483410D02*
Y489410D01*
X753920Y461010D02*
X759920D01*
X756920Y458010D02*
Y464010D01*
X753920Y435610D02*
X759920D01*
X756920Y432610D02*
Y438610D01*
X753920Y410210D02*
X759920D01*
X756920Y407210D02*
Y413210D01*
X728520Y788670D02*
X734520D01*
X731520Y785670D02*
Y791670D01*
X728520Y763270D02*
X734520D01*
X731520Y760270D02*
Y766270D01*
X728520Y737870D02*
X734520D01*
X731520Y734870D02*
Y740870D01*
X728520Y712470D02*
X734520D01*
X731520Y709470D02*
Y715470D01*
X753920Y788670D02*
X759920D01*
X756920Y785670D02*
Y791670D01*
X753920Y763270D02*
X759920D01*
X756920Y760270D02*
Y766270D01*
X753920Y737870D02*
X759920D01*
X756920Y734870D02*
Y740870D01*
X753920Y712470D02*
X759920D01*
X756920Y709470D02*
Y715470D01*
X1217470Y1107440D02*
X1223470D01*
X1220470Y1104440D02*
Y1110440D01*
X1192070Y1107440D02*
X1198070D01*
X1195070Y1104440D02*
Y1110440D01*
X1166670Y1107440D02*
X1172670D01*
X1169670Y1104440D02*
Y1110440D01*
X1141270Y1107440D02*
X1147270D01*
X1144270Y1104440D02*
Y1110440D01*
X1217470Y1082040D02*
X1223470D01*
X1220470Y1079040D02*
Y1085040D01*
X1192070Y1082040D02*
X1198070D01*
X1195070Y1079040D02*
Y1085040D01*
X1166670Y1082040D02*
X1172670D01*
X1169670Y1079040D02*
Y1085040D01*
X1141270Y1082040D02*
X1147270D01*
X1144270Y1079040D02*
Y1085040D01*
X1162177Y718820D02*
X1164463D01*
X1163320Y717677D02*
Y719963D01*
X1263142Y560705D02*
X1265428D01*
X1264285Y559562D02*
Y561848D01*
X1353947Y694690D02*
X1356233D01*
X1355090Y693547D02*
Y695833D01*
X1519047Y767820D02*
X1521333D01*
X1520190Y766677D02*
Y768963D01*
X1421257Y704850D02*
X1423543D01*
X1422400Y703707D02*
Y705993D01*
X1233297Y666750D02*
X1235583D01*
X1234440Y665607D02*
Y667893D01*
X1619877Y353060D02*
X1622163D01*
X1621020Y351917D02*
Y354203D01*
X1618607Y354330D02*
X1620893D01*
X1619750Y353187D02*
Y355473D01*
X1298067Y603250D02*
X1300353D01*
X1299210Y602107D02*
Y604393D01*
X1265047Y637540D02*
X1267333D01*
X1266190Y636397D02*
Y638683D01*
X1256157Y581660D02*
X1258443D01*
X1257300Y580517D02*
Y582803D01*
X1245362Y582295D02*
X1247648D01*
X1246505Y581152D02*
Y583438D01*
X1304417Y591820D02*
X1306703D01*
X1305560Y590677D02*
Y592963D01*
X1195032Y599605D02*
X1197318D01*
X1196174Y598462D02*
Y600748D01*
X1185037Y707390D02*
X1187323D01*
X1186180Y706247D02*
Y708533D01*
X1216787Y739140D02*
X1219073D01*
X1217930Y737997D02*
Y740283D01*
X1320927Y717550D02*
X1323213D01*
X1322070Y716407D02*
Y718693D01*
X893064Y621030D02*
X900176D01*
X896620Y617474D02*
Y624586D01*
X1150169Y696955D02*
X1152455D01*
X1151312Y695813D02*
Y698099D01*
X1312164Y250190D02*
X1319276D01*
X1315720Y246634D02*
Y253746D01*
X1114044Y308610D02*
X1121156D01*
X1117600Y305054D02*
Y312166D01*
X1188974Y306680D02*
X1196086D01*
X1192530Y303124D02*
Y310236D01*
X1343914Y308610D02*
X1351026D01*
X1347470Y305054D02*
Y312166D01*
X1267714Y309880D02*
X1274826D01*
X1271270Y306324D02*
Y313436D01*
X1590294Y467360D02*
X1597406D01*
X1593850Y463804D02*
Y470916D01*
X1534414Y434340D02*
X1541526D01*
X1537970Y430784D02*
Y437896D01*
X1534414Y499110D02*
X1541526D01*
X1537970Y495554D02*
Y502666D01*
X1535684Y570230D02*
X1542796D01*
X1539240Y566674D02*
Y573786D01*
X1534414Y632460D02*
X1541526D01*
X1537970Y628904D02*
Y636016D01*
X1605534Y1007110D02*
X1612646D01*
X1609090Y1003554D02*
Y1010666D01*
X1649984Y949960D02*
X1657096D01*
X1653540Y946404D02*
Y953516D01*
X1567434Y948230D02*
X1574546D01*
X1570990Y944674D02*
Y951786D01*
X1487424Y951230D02*
X1494536D01*
X1490980Y947674D02*
Y954786D01*
X1407414Y952500D02*
X1414526D01*
X1410970Y948944D02*
Y956056D01*
X1282954Y990600D02*
X1290066D01*
X1286510Y987044D02*
Y994156D01*
X1317244Y958850D02*
X1324356D01*
X1320800Y955294D02*
Y962406D01*
X1237234Y955040D02*
X1244346D01*
X1240790Y951484D02*
Y958596D01*
X1152144Y957580D02*
X1159256D01*
X1155700Y954024D02*
Y961136D01*
X1069594Y957580D02*
X1076706D01*
X1073150Y954024D02*
Y961136D01*
X895604Y302260D02*
X902716D01*
X899160Y298704D02*
Y305816D01*
X893064Y379730D02*
X900176D01*
X896620Y376174D02*
Y383286D01*
X893064Y457200D02*
X900176D01*
X896620Y453644D02*
Y460756D01*
X893064Y538480D02*
X900176D01*
X896620Y534924D02*
Y542036D01*
X893064Y704850D02*
X900176D01*
X896620Y701294D02*
Y708406D01*
X805434Y834390D02*
X812546D01*
X808990Y830834D02*
Y837946D01*
X893064Y784860D02*
X900176D01*
X896620Y781304D02*
Y788416D01*
X893064Y876300D02*
X900176D01*
X896620Y872744D02*
Y879856D01*
M02*
