M48
;Layer_Color=9474304
;FILE_FORMAT=4:4
METRIC,LZ
T8F00S00C5.0800
%
G90
G05
T08
G00X01813528Y00070357
M15
G01X01818375Y00071857
G01X01822827Y0007429
G01X01826707Y0007756
G01X01829859Y00081535
G01X01832158Y00086058
G01X01833513Y00090947
G01X0183388Y0009525
G01X0183388Y0119761
G01X01833373Y01202658
G01X01831873Y01207505
G01X0182944Y01211957
G01X0182617Y01215837
G01X01822195Y01218989
G01X01817672Y01221288
G01X01812783Y01222643
G01X01808563Y0122301
G01X00642703Y0122682
G01X00637653Y0122633
G01X00632801Y01224846
G01X00628341Y01222427
G01X00624451Y0121917
G01X00621286Y01215204
G01X00618972Y01210689
G01X00617601Y01205804
G01X0061722Y01201361
G01X0061976Y00107924
G01X0061976Y0009525
G01X00620267Y00090202
G01X00621767Y00085355
G01X006242Y00080903
G01X0062747Y00077023
G01X00631445Y00073871
G01X00635968Y00071572
G01X00640857Y00070217
G01X0064516Y0006985
G01X0180848Y0006985
G01X01813528Y00070357
M16
M17
M30
