G04*
G04 #@! TF.GenerationSoftware,Altium Limited,Altium Designer,19.1.5 (86)*
G04*
G04 Layer_Color=8388736*
%FSLAX44Y44*%
%MOMM*%
G71*
G01*
G75*
%ADD23R,1.5032X0.9032*%
%ADD24R,0.9032X1.5032*%
%ADD25R,0.8032X1.7532*%
%ADD26O,0.8032X1.7532*%
%ADD27R,1.7532X0.8032*%
%ADD28O,1.7532X0.8032*%
G04:AMPARAMS|DCode=29|XSize=0.4532mm|YSize=1.7532mm|CornerRadius=0mm|HoleSize=0mm|Usage=FLASHONLY|Rotation=315.000|XOffset=0mm|YOffset=0mm|HoleType=Round|Shape=Rectangle|*
%AMROTATEDRECTD29*
4,1,4,-0.7801,-0.4596,0.4596,0.7801,0.7801,0.4596,-0.4596,-0.7801,-0.7801,-0.4596,0.0*
%
%ADD29ROTATEDRECTD29*%

G04:AMPARAMS|DCode=30|XSize=0.4532mm|YSize=1.7532mm|CornerRadius=0mm|HoleSize=0mm|Usage=FLASHONLY|Rotation=45.000|XOffset=0mm|YOffset=0mm|HoleType=Round|Shape=Rectangle|*
%AMROTATEDRECTD30*
4,1,4,0.4596,-0.7801,-0.7801,0.4596,-0.4596,0.7801,0.7801,-0.4596,0.4596,-0.7801,0.0*
%
%ADD30ROTATEDRECTD30*%

G04:AMPARAMS|DCode=31|XSize=0.4532mm|YSize=1.7532mm|CornerRadius=0mm|HoleSize=0mm|Usage=FLASHONLY|Rotation=45.000|XOffset=0mm|YOffset=0mm|HoleType=Round|Shape=Round|*
%AMOVALD31*
21,1,1.3000,0.4532,0.0000,0.0000,135.0*
1,1,0.4532,0.4596,-0.4596*
1,1,0.4532,-0.4596,0.4596*
%
%ADD31OVALD31*%

%ADD32R,0.8032X0.7032*%
%ADD33R,1.4032X1.4032*%
%ADD34C,1.4032*%
%ADD35R,2.2032X2.2032*%
%ADD36C,2.2032*%
%ADD37C,3.2032*%
%ADD38R,1.7032X1.7032*%
%ADD39C,1.7032*%
%ADD40R,2.9032X1.4032*%
%ADD41R,1.4032X2.9032*%
%ADD42R,1.4032X1.4032*%
%ADD43C,0.6604*%
%ADD44C,1.4732*%
D23*
X1399540Y973170D02*
D03*
Y985170D02*
D03*
X1134110Y290480D02*
D03*
Y278480D02*
D03*
X1502410Y970630D02*
D03*
Y982630D02*
D03*
X1333500Y973170D02*
D03*
Y985170D02*
D03*
X1254760Y970630D02*
D03*
Y982630D02*
D03*
X1305560Y974440D02*
D03*
Y986440D02*
D03*
X1059180Y974440D02*
D03*
Y986440D02*
D03*
X1170940Y973170D02*
D03*
Y985170D02*
D03*
X1140460Y973170D02*
D03*
Y985170D02*
D03*
X1225550Y970630D02*
D03*
Y982630D02*
D03*
X1667510Y969360D02*
D03*
Y981360D02*
D03*
X1088390Y975710D02*
D03*
Y987710D02*
D03*
X1638300Y968090D02*
D03*
Y980090D02*
D03*
X1473200Y970630D02*
D03*
Y982630D02*
D03*
X1426210Y971900D02*
D03*
Y983900D02*
D03*
X1554480Y969360D02*
D03*
Y981360D02*
D03*
X1583690Y969360D02*
D03*
Y981360D02*
D03*
X1102360Y291750D02*
D03*
Y279750D02*
D03*
X1181100Y292100D02*
D03*
Y280100D02*
D03*
X1257300Y294640D02*
D03*
Y282640D02*
D03*
X1333500Y291750D02*
D03*
Y279750D02*
D03*
X1212850Y292100D02*
D03*
Y280100D02*
D03*
X1290320Y294290D02*
D03*
Y282290D02*
D03*
X1361440Y293370D02*
D03*
Y281370D02*
D03*
D24*
X1558640Y617220D02*
D03*
X1570640D02*
D03*
X1558990Y646430D02*
D03*
X1570990D02*
D03*
X869950Y289560D02*
D03*
X857950D02*
D03*
X1558290Y557530D02*
D03*
X1570290D02*
D03*
X1557370Y585470D02*
D03*
X1569370D02*
D03*
X1558640Y487680D02*
D03*
X1570640D02*
D03*
X1558290Y515620D02*
D03*
X1570290D02*
D03*
X869250Y467360D02*
D03*
X857250D02*
D03*
X871790Y523240D02*
D03*
X859790D02*
D03*
X871790Y548640D02*
D03*
X859790D02*
D03*
X871440Y367030D02*
D03*
X859440D02*
D03*
X870170Y441960D02*
D03*
X858170D02*
D03*
X873410Y607060D02*
D03*
X861410D02*
D03*
X872140Y718820D02*
D03*
X860140D02*
D03*
X872140Y792480D02*
D03*
X860140D02*
D03*
X869950Y316230D02*
D03*
X857950D02*
D03*
X871790Y394970D02*
D03*
X859790D02*
D03*
X873410Y633730D02*
D03*
X861410D02*
D03*
X872140Y692150D02*
D03*
X860140D02*
D03*
X872140Y769620D02*
D03*
X860140D02*
D03*
X871220Y862330D02*
D03*
X859220D02*
D03*
X871220Y889000D02*
D03*
X859220D02*
D03*
X1558640Y452820D02*
D03*
X1570640D02*
D03*
X1558640Y422910D02*
D03*
X1570640D02*
D03*
D25*
X1626870Y870560D02*
D03*
X1372870Y388620D02*
D03*
X1296670D02*
D03*
X1217930D02*
D03*
X1143000D02*
D03*
X1214120Y870560D02*
D03*
X1294130D02*
D03*
X1388110D02*
D03*
X1463040D02*
D03*
X1047750D02*
D03*
X1129030D02*
D03*
X1546860D02*
D03*
D26*
X1639570D02*
D03*
X1652270D02*
D03*
X1664970D02*
D03*
X1626870Y924560D02*
D03*
X1639570D02*
D03*
X1652270D02*
D03*
X1664970D02*
D03*
X1360170Y388620D02*
D03*
X1347470D02*
D03*
X1334770D02*
D03*
X1372870Y334620D02*
D03*
X1360170D02*
D03*
X1347470D02*
D03*
X1334770D02*
D03*
X1283970Y388620D02*
D03*
X1271270D02*
D03*
X1258570D02*
D03*
X1296670Y334620D02*
D03*
X1283970D02*
D03*
X1271270D02*
D03*
X1258570D02*
D03*
X1205230Y388620D02*
D03*
X1192530D02*
D03*
X1179830D02*
D03*
X1217930Y334620D02*
D03*
X1205230D02*
D03*
X1192530D02*
D03*
X1179830D02*
D03*
X1130300Y388620D02*
D03*
X1117600D02*
D03*
X1104900D02*
D03*
X1143000Y334620D02*
D03*
X1130300D02*
D03*
X1117600D02*
D03*
X1104900D02*
D03*
X1226820Y870560D02*
D03*
X1239520D02*
D03*
X1252220D02*
D03*
X1214120Y924560D02*
D03*
X1226820D02*
D03*
X1239520D02*
D03*
X1252220D02*
D03*
X1306830Y870560D02*
D03*
X1319530D02*
D03*
X1332230D02*
D03*
X1294130Y924560D02*
D03*
X1306830D02*
D03*
X1319530D02*
D03*
X1332230D02*
D03*
X1400810Y870560D02*
D03*
X1413510D02*
D03*
X1426210D02*
D03*
X1388110Y924560D02*
D03*
X1400810D02*
D03*
X1413510D02*
D03*
X1426210D02*
D03*
X1475740Y870560D02*
D03*
X1488440D02*
D03*
X1501140D02*
D03*
X1463040Y924560D02*
D03*
X1475740D02*
D03*
X1488440D02*
D03*
X1501140D02*
D03*
X1060450Y870560D02*
D03*
X1073150D02*
D03*
X1085850D02*
D03*
X1047750Y924560D02*
D03*
X1060450D02*
D03*
X1073150D02*
D03*
X1085850D02*
D03*
X1141730Y870560D02*
D03*
X1154430D02*
D03*
X1167130D02*
D03*
X1129030Y924560D02*
D03*
X1141730D02*
D03*
X1154430D02*
D03*
X1167130D02*
D03*
X1559560Y870560D02*
D03*
X1572260D02*
D03*
X1584960D02*
D03*
X1546860Y924560D02*
D03*
X1559560D02*
D03*
X1572260D02*
D03*
X1584960D02*
D03*
D27*
X1457300Y659130D02*
D03*
Y525780D02*
D03*
Y459740D02*
D03*
X977900Y276860D02*
D03*
Y354330D02*
D03*
Y430530D02*
D03*
Y511810D02*
D03*
Y595630D02*
D03*
Y680720D02*
D03*
Y758190D02*
D03*
Y850900D02*
D03*
X1457300Y596900D02*
D03*
D28*
Y646430D02*
D03*
Y633730D02*
D03*
Y621030D02*
D03*
X1511300Y659130D02*
D03*
Y646430D02*
D03*
Y633730D02*
D03*
Y621030D02*
D03*
X1457300Y513080D02*
D03*
Y500380D02*
D03*
Y487680D02*
D03*
X1511300Y525780D02*
D03*
Y513080D02*
D03*
Y500380D02*
D03*
Y487680D02*
D03*
X1457300Y447040D02*
D03*
Y434340D02*
D03*
Y421640D02*
D03*
X1511300Y459740D02*
D03*
Y447040D02*
D03*
Y434340D02*
D03*
Y421640D02*
D03*
X977900Y289560D02*
D03*
Y302260D02*
D03*
Y314960D02*
D03*
X923900Y276860D02*
D03*
Y289560D02*
D03*
Y302260D02*
D03*
Y314960D02*
D03*
X977900Y367030D02*
D03*
Y379730D02*
D03*
Y392430D02*
D03*
X923900Y354330D02*
D03*
Y367030D02*
D03*
Y379730D02*
D03*
Y392430D02*
D03*
X977900Y443230D02*
D03*
Y455930D02*
D03*
Y468630D02*
D03*
X923900Y430530D02*
D03*
Y443230D02*
D03*
Y455930D02*
D03*
Y468630D02*
D03*
X977900Y524510D02*
D03*
Y537210D02*
D03*
Y549910D02*
D03*
X923900Y511810D02*
D03*
Y524510D02*
D03*
Y537210D02*
D03*
Y549910D02*
D03*
X977900Y608330D02*
D03*
Y621030D02*
D03*
Y633730D02*
D03*
X923900Y595630D02*
D03*
Y608330D02*
D03*
Y621030D02*
D03*
Y633730D02*
D03*
X977900Y693420D02*
D03*
Y706120D02*
D03*
Y718820D02*
D03*
X923900Y680720D02*
D03*
Y693420D02*
D03*
Y706120D02*
D03*
Y718820D02*
D03*
X977900Y770890D02*
D03*
Y783590D02*
D03*
Y796290D02*
D03*
X923900Y758190D02*
D03*
Y770890D02*
D03*
Y783590D02*
D03*
Y796290D02*
D03*
X977900Y863600D02*
D03*
Y876300D02*
D03*
Y889000D02*
D03*
X923900Y850900D02*
D03*
Y863600D02*
D03*
Y876300D02*
D03*
Y889000D02*
D03*
X1457300Y584200D02*
D03*
Y571500D02*
D03*
Y558800D02*
D03*
X1511300Y596900D02*
D03*
Y584200D02*
D03*
Y571500D02*
D03*
Y558800D02*
D03*
D29*
X1263031Y725789D02*
D03*
X1266567Y722253D02*
D03*
X1270102Y718718D02*
D03*
X1273638Y715182D02*
D03*
X1277173Y711647D02*
D03*
X1280709Y708111D02*
D03*
X1284245Y704576D02*
D03*
X1287780Y701040D02*
D03*
X1291315Y697505D02*
D03*
X1294851Y693969D02*
D03*
X1298387Y690433D02*
D03*
X1301922Y686898D02*
D03*
X1305458Y683362D02*
D03*
X1308993Y679827D02*
D03*
X1312529Y676291D02*
D03*
X1316064Y672756D02*
D03*
X1238565Y595257D02*
D03*
X1235030Y598792D02*
D03*
X1231494Y602328D02*
D03*
X1227959Y605864D02*
D03*
X1224423Y609399D02*
D03*
X1220888Y612935D02*
D03*
X1217352Y616470D02*
D03*
X1213817Y620006D02*
D03*
X1210281Y623541D02*
D03*
X1206746Y627077D02*
D03*
X1203210Y630612D02*
D03*
X1199675Y634148D02*
D03*
X1196139Y637683D02*
D03*
X1192604Y641219D02*
D03*
X1189068Y644754D02*
D03*
X1185533Y648290D02*
D03*
D30*
X1316064D02*
D03*
X1312529Y644754D02*
D03*
X1308993Y641219D02*
D03*
X1305458Y637683D02*
D03*
X1301922Y634148D02*
D03*
X1298387Y630612D02*
D03*
X1294851Y627077D02*
D03*
X1291315Y623541D02*
D03*
X1287780Y620006D02*
D03*
X1284245Y616470D02*
D03*
X1280709Y612935D02*
D03*
X1277173Y609399D02*
D03*
X1273638Y605864D02*
D03*
X1270102Y602328D02*
D03*
X1266567Y598792D02*
D03*
X1263031Y595257D02*
D03*
X1185533Y672756D02*
D03*
X1189068Y676291D02*
D03*
X1192604Y679827D02*
D03*
X1196139Y683362D02*
D03*
X1199675Y686898D02*
D03*
X1203210Y690433D02*
D03*
X1206746Y693969D02*
D03*
X1210281Y697505D02*
D03*
X1213817Y701040D02*
D03*
X1217352Y704576D02*
D03*
X1220888Y708111D02*
D03*
X1224423Y711647D02*
D03*
X1227959Y715182D02*
D03*
X1231494Y718718D02*
D03*
X1235030Y722253D02*
D03*
D31*
X1238565Y725789D02*
D03*
D32*
X1493520Y768350D02*
D03*
X1489710Y736600D02*
D03*
D33*
X1554480Y783590D02*
D03*
X1101090Y781050D02*
D03*
X1670050Y505460D02*
D03*
X731520Y486410D02*
D03*
Y788670D02*
D03*
D34*
X1554480Y758190D02*
D03*
Y732790D02*
D03*
Y707390D02*
D03*
X1468120Y718820D02*
D03*
X1459230Y1073150D02*
D03*
X1484630D02*
D03*
X1510030D02*
D03*
X1535430D02*
D03*
X1459230Y1098550D02*
D03*
X1484630D02*
D03*
X1510030D02*
D03*
X1101090Y755650D02*
D03*
Y730250D02*
D03*
X1644650Y581660D02*
D03*
Y556260D02*
D03*
Y530860D02*
D03*
Y505460D02*
D03*
X1670050Y581660D02*
D03*
Y556260D02*
D03*
Y530860D02*
D03*
X1253490Y201930D02*
D03*
X1228090D02*
D03*
X1202690D02*
D03*
X1278890Y176530D02*
D03*
X1253490D02*
D03*
X1228090D02*
D03*
X1202690D02*
D03*
X731520Y461010D02*
D03*
Y435610D02*
D03*
Y410210D02*
D03*
X756920Y486410D02*
D03*
Y461010D02*
D03*
Y435610D02*
D03*
Y410210D02*
D03*
X731520Y763270D02*
D03*
Y737870D02*
D03*
Y712470D02*
D03*
X756920Y788670D02*
D03*
Y763270D02*
D03*
Y737870D02*
D03*
Y712470D02*
D03*
X1195070Y1107440D02*
D03*
X1169670D02*
D03*
X1144270D02*
D03*
X1220470Y1082040D02*
D03*
X1195070D02*
D03*
X1169670D02*
D03*
X1144270D02*
D03*
D35*
X1357160Y723900D02*
D03*
D36*
X1382160D02*
D03*
X1407160D02*
D03*
X1357160Y668900D02*
D03*
X1382160D02*
D03*
X1407160D02*
D03*
D37*
X670560Y1167130D02*
D03*
X1767840Y1169670D02*
D03*
Y120650D02*
D03*
X673100Y123190D02*
D03*
D38*
X1753870Y801370D02*
D03*
D39*
Y826770D02*
D03*
Y852170D02*
D03*
D40*
X709930Y1087050D02*
D03*
Y1024050D02*
D03*
X1650520Y296900D02*
D03*
D41*
X755930Y1054050D02*
D03*
X1683520Y342900D02*
D03*
X1620520D02*
D03*
D42*
X1468120Y767820D02*
D03*
X1535430Y1098550D02*
D03*
X1278890Y201930D02*
D03*
X1220470Y1107440D02*
D03*
D43*
X1163320Y718820D02*
D03*
X1264285Y560705D02*
D03*
X1355090Y694690D02*
D03*
X1520190Y767820D02*
D03*
X1422400Y704850D02*
D03*
X1234440Y666750D02*
D03*
X1621020Y353060D02*
D03*
X1619750Y354330D02*
D03*
X1299210Y603250D02*
D03*
X1266190Y637540D02*
D03*
X1257300Y581660D02*
D03*
X1246505Y582295D02*
D03*
X1305560Y591820D02*
D03*
X1196174Y599605D02*
D03*
X1186180Y707390D02*
D03*
X1217930Y739140D02*
D03*
X1322070Y717550D02*
D03*
X1151312Y696955D02*
D03*
D44*
X896620Y621030D02*
D03*
X1315720Y250190D02*
D03*
X1117600Y308610D02*
D03*
X1192530Y306680D02*
D03*
X1347470Y308610D02*
D03*
X1271270Y309880D02*
D03*
X1593850Y467360D02*
D03*
X1537970Y434340D02*
D03*
Y499110D02*
D03*
X1539240Y570230D02*
D03*
X1537970Y632460D02*
D03*
X1609090Y1007110D02*
D03*
X1653540Y949960D02*
D03*
X1570990Y948230D02*
D03*
X1490980Y951230D02*
D03*
X1410970Y952500D02*
D03*
X1286510Y990600D02*
D03*
X1320800Y958850D02*
D03*
X1240790Y955040D02*
D03*
X1155700Y957580D02*
D03*
X1073150D02*
D03*
X899160Y302260D02*
D03*
X896620Y379730D02*
D03*
Y457200D02*
D03*
Y538480D02*
D03*
Y704850D02*
D03*
X808990Y834390D02*
D03*
X896620Y784860D02*
D03*
Y876300D02*
D03*
M02*
