M48
;Layer_Color=9474304
;FILE_FORMAT=2:5
INCH,LZ
;TYPE=PLATED
T1F00S00C0.00900
T3F00S00C0.02362
T4F00S00C0.02800
T5F00S00C0.03937
T6F00S00C0.04331
;TYPE=NON_PLATED
T7F00S00C0.11811
%
T01
X0384197Y01015
X0383697Y0102
X03445Y0264791
X0306Y024
X02795Y0236
X02665Y0245
X02255Y02535
X0232Y0225
X02445Y02135
X0241Y01915
X023675Y019175
X024375Y018325
X026Y01955
X02575Y02
X0216935Y0198565
X0213Y0241
X0204Y02455
X0199273Y0236892
T03
X02195Y0032
Y0042
X02295
X02395
X02495
Y0032
X02395
X02295
X03935Y01615
Y01715
Y01815
Y01915
X04035
Y01815
Y01715
Y01615
X0358Y0241
Y0251
Y0261
Y0271
X0324Y0264791
Y02455
X01795Y025
Y026
Y027
X0044Y0273
X0034
Y0263
Y0253
Y0243
X0044
Y0253
Y0263
Y0154
X0034
Y0144
Y0134
Y0124
X0044
Y0134
Y0144
X01965Y03885
Y03985
X02065
Y03885
X02165
Y03985
X02265
Y03885
X03205Y0385
X03305
X03405
X03505
Y0395
X03405
X03305
X03205
T04
X01Y00815
X0099Y0112
X0186Y0084
X02155Y008324
X02465Y00845
X02765Y0084
X0264Y0061
X03735Y01465
X03515Y0159
Y01335
X0352Y0187
X03515Y02115
X0099Y0207
Y01745
Y01425
Y024
Y02715
Y03075
X00645Y0291
X01685Y03395
X0201
X02345Y03385
X02525Y03525
X0266Y034
X03015Y03375
X0333Y0337
X03645Y0335819
X0397Y03365
X03795Y0359
T05
X04365Y0278
Y0288
Y0298
T06
X0280315Y0225847
X0290158
X03
Y02475
X0290158
X0280315
T07
X0011Y0011
X0442Y001
X001Y0422
X0442Y0423
M30
