G04*
G04 #@! TF.GenerationSoftware,Altium Limited,Altium Designer,19.1.5 (86)*
G04*
G04 Layer_Physical_Order=1*
G04 Layer_Color=255*
%FSLAX25Y25*%
%MOIN*%
G70*
G01*
G75*
%ADD12C,0.01000*%
%ADD13R,0.05118X0.02756*%
%ADD14R,0.02756X0.05118*%
%ADD15R,0.02362X0.06102*%
%ADD16O,0.02362X0.06102*%
%ADD17R,0.06102X0.02362*%
%ADD18O,0.06102X0.02362*%
G04:AMPARAMS|DCode=19|XSize=9.84mil|YSize=61.02mil|CornerRadius=0mil|HoleSize=0mil|Usage=FLASHONLY|Rotation=225.000|XOffset=0mil|YOffset=0mil|HoleType=Round|Shape=Rectangle|*
%AMROTATEDRECTD19*
4,1,4,-0.01810,0.02506,0.02506,-0.01810,0.01810,-0.02506,-0.02506,0.01810,-0.01810,0.02506,0.0*
%
%ADD19ROTATEDRECTD19*%

G04:AMPARAMS|DCode=20|XSize=9.84mil|YSize=61.02mil|CornerRadius=0mil|HoleSize=0mil|Usage=FLASHONLY|Rotation=135.000|XOffset=0mil|YOffset=0mil|HoleType=Round|Shape=Rectangle|*
%AMROTATEDRECTD20*
4,1,4,0.02506,0.01810,-0.01810,-0.02506,-0.02506,-0.01810,0.01810,0.02506,0.02506,0.01810,0.0*
%
%ADD20ROTATEDRECTD20*%

G04:AMPARAMS|DCode=21|XSize=9.84mil|YSize=61.02mil|CornerRadius=0mil|HoleSize=0mil|Usage=FLASHONLY|Rotation=135.000|XOffset=0mil|YOffset=0mil|HoleType=Round|Shape=Round|*
%AMOVALD21*
21,1,0.05118,0.00984,0.00000,0.00000,225.0*
1,1,0.00984,0.01810,0.01810*
1,1,0.00984,-0.01810,-0.01810*
%
%ADD21OVALD21*%

%ADD22R,0.02362X0.01968*%
%ADD45C,0.00700*%
%ADD46R,0.05906X0.05906*%
%ADD47C,0.05906*%
%ADD48C,0.07874*%
%ADD49R,0.07874X0.07874*%
%ADD50R,0.10630X0.04724*%
%ADD51R,0.04724X0.10630*%
%ADD52R,0.04724X0.04724*%
%ADD53C,0.04724*%
%ADD54R,0.04724X0.04724*%
%ADD55C,0.11811*%
%ADD56C,0.01800*%
%ADD57C,0.05000*%
G36*
X7806Y457500D02*
X6805Y456500D01*
Y50500D01*
X439305D01*
X439806Y50000D01*
X440805Y51000D01*
Y458646D01*
X440451Y458999D01*
X7806Y457500D01*
D02*
G37*
%LPC*%
G36*
X227143Y438662D02*
X232468D01*
Y433338D01*
X227143D01*
Y438662D01*
D02*
G37*
G36*
X239806Y438881D02*
X241843Y438038D01*
X242687Y436000D01*
X242134Y434666D01*
X246441Y430360D01*
X246647Y429862D01*
Y426638D01*
X247147Y426538D01*
X247768Y428038D01*
X249805Y428882D01*
X251843Y428038D01*
X252687Y426000D01*
X251843Y423962D01*
X250509Y423410D01*
Y396000D01*
X250303Y395502D01*
X245395Y390595D01*
X245748Y390240D01*
X246246Y390240D01*
X248805D01*
Y388362D01*
X245746D01*
Y389740D01*
X245746Y390239D01*
X245392Y390592D01*
X242509Y387709D01*
Y382411D01*
X250803Y374117D01*
X251009Y373619D01*
Y367389D01*
X251939Y367004D01*
X252409Y365870D01*
Y362130D01*
X251939Y360996D01*
X250805Y360527D01*
X249672Y360996D01*
X249202Y362130D01*
Y365870D01*
X249602Y366835D01*
Y373328D01*
X241308Y381622D01*
X241102Y382119D01*
Y388000D01*
X241308Y388497D01*
X249102Y396291D01*
Y423410D01*
X247768Y423962D01*
X247147Y425462D01*
X246647Y425362D01*
Y414463D01*
X248303Y412807D01*
X248509Y412309D01*
Y398000D01*
X248303Y397502D01*
X240509Y389709D01*
Y385500D01*
X240303Y385002D01*
X227509Y372209D01*
Y367389D01*
X228439Y367004D01*
X228909Y365870D01*
Y362130D01*
X228439Y360996D01*
X227306Y360527D01*
X226172Y360996D01*
X225702Y362130D01*
Y365870D01*
X226102Y366835D01*
Y372500D01*
X226308Y372997D01*
X239102Y385791D01*
Y390000D01*
X239308Y390497D01*
X247102Y398291D01*
Y412018D01*
X245446Y413674D01*
X245240Y414172D01*
Y429571D01*
X241140Y433671D01*
X239806Y433118D01*
X237768Y433962D01*
X236924Y436000D01*
X237768Y438038D01*
X239806Y438881D01*
D02*
G37*
G36*
X249805D02*
X251843Y438038D01*
X252687Y436000D01*
X252134Y434666D01*
X256303Y430498D01*
X256509Y430000D01*
Y426651D01*
X256760Y426255D01*
X256760D01*
Y426255D01*
X257009Y426205D01*
X257032Y426261D01*
X257768Y428038D01*
X259805Y428882D01*
X261843Y428038D01*
X262687Y426000D01*
X262135Y424666D01*
X275803Y410997D01*
X276009Y410500D01*
Y373661D01*
X282376Y367295D01*
X282805Y367473D01*
X283939Y367004D01*
X284409Y365870D01*
Y362130D01*
X283939Y360996D01*
X282805Y360527D01*
X281672Y360996D01*
X281202Y362130D01*
Y365870D01*
X281381Y366300D01*
X274808Y372873D01*
X274602Y373370D01*
Y410209D01*
X261139Y423671D01*
X259805Y423118D01*
X257768Y423962D01*
X257032Y425739D01*
X257009Y425795D01*
X256760Y425745D01*
Y425745D01*
X256760Y425745D01*
X256509Y425349D01*
Y417791D01*
X267303Y406997D01*
X267509Y406500D01*
Y378619D01*
X267303Y378122D01*
X261009Y371828D01*
Y367389D01*
X261939Y367004D01*
X262409Y365870D01*
Y362130D01*
X261939Y360996D01*
X260806Y360527D01*
X259672Y360996D01*
X259202Y362130D01*
Y365870D01*
X259602Y366835D01*
Y372119D01*
X259808Y372617D01*
X266102Y378911D01*
Y406209D01*
X255308Y417002D01*
X255102Y417500D01*
Y429709D01*
X251139Y433671D01*
X249805Y433118D01*
X247768Y433962D01*
X246924Y436000D01*
X247768Y438038D01*
X249805Y438881D01*
D02*
G37*
G36*
X259805D02*
X261843Y438038D01*
X262687Y436000D01*
X262135Y434666D01*
X299303Y397498D01*
X299509Y397000D01*
Y380869D01*
X299303Y380372D01*
X293509Y374578D01*
Y367182D01*
X293939Y367004D01*
X294409Y365870D01*
Y362130D01*
X293939Y360996D01*
X292806Y360527D01*
X291672Y360996D01*
X291202Y362130D01*
Y365870D01*
X291672Y367004D01*
X292102Y367182D01*
Y374869D01*
X292308Y375367D01*
X298102Y381161D01*
Y396709D01*
X261139Y433671D01*
X259805Y433118D01*
X257768Y433962D01*
X256924Y436000D01*
X257768Y438038D01*
X259805Y438881D01*
D02*
G37*
G36*
X103143Y435162D02*
X108468D01*
Y429838D01*
X103143D01*
Y435162D01*
D02*
G37*
G36*
X115805Y435382D02*
X117843Y434538D01*
X118687Y432500D01*
X118281Y431520D01*
X121303Y428498D01*
X121509Y428000D01*
Y401500D01*
X121303Y401003D01*
X119303Y399003D01*
X118806Y398797D01*
X111768D01*
X109009Y396037D01*
Y378370D01*
X108803Y377873D01*
X98255Y367325D01*
X97907Y367181D01*
X97583Y366657D01*
X97909Y365870D01*
Y362130D01*
X97439Y360996D01*
X96306Y360527D01*
X95172Y360996D01*
X94702Y362130D01*
Y364258D01*
X94602Y364500D01*
Y366370D01*
X94808Y366868D01*
X95761Y367820D01*
X96258Y368026D01*
X96592Y367888D01*
X97158Y368071D01*
X97260Y368320D01*
X107602Y378661D01*
Y396328D01*
X107808Y396826D01*
X110980Y399997D01*
X111477Y400204D01*
X118514D01*
X120102Y401791D01*
Y427709D01*
X117493Y430317D01*
X115805Y429619D01*
X113768Y430462D01*
X112924Y432500D01*
X113768Y434538D01*
X115805Y435382D01*
D02*
G37*
G36*
X125805D02*
X127843Y434538D01*
X128687Y432500D01*
X128427Y431873D01*
X131303Y428998D01*
X131509Y428500D01*
Y418791D01*
X137303Y412997D01*
X137509Y412500D01*
Y374870D01*
X137303Y374373D01*
X130355Y367425D01*
X130439Y367004D01*
X130909Y365870D01*
Y362130D01*
X130439Y360996D01*
X129306Y360527D01*
X128172Y360996D01*
X127702Y362130D01*
Y365870D01*
X128102Y366835D01*
Y366870D01*
X128308Y367368D01*
X136102Y375162D01*
Y412209D01*
X130308Y418003D01*
X130102Y418500D01*
Y428209D01*
X127847Y430463D01*
X127843Y430462D01*
X125805Y429619D01*
X123768Y430462D01*
X122924Y432500D01*
X123768Y434538D01*
X125805Y435382D01*
D02*
G37*
G36*
X135805D02*
X137843Y434538D01*
X138396Y433204D01*
X149805D01*
X150303Y432998D01*
X166303Y416997D01*
X166509Y416500D01*
Y380000D01*
X166303Y379503D01*
X159509Y372709D01*
Y367182D01*
X159939Y367004D01*
X160409Y365870D01*
Y362130D01*
X159939Y360996D01*
X158806Y360527D01*
X157672Y360996D01*
X157202Y362130D01*
Y365870D01*
X157672Y367004D01*
X158102Y367182D01*
Y373000D01*
X158308Y373498D01*
X165102Y380291D01*
Y416209D01*
X149514Y431797D01*
X138396D01*
X137843Y430462D01*
X135805Y429619D01*
X133768Y430462D01*
X132924Y432500D01*
X133768Y434538D01*
X135805Y435382D01*
D02*
G37*
G36*
X424490Y431335D02*
X430305D01*
Y428472D01*
X424490D01*
Y431335D01*
D02*
G37*
G36*
X431306D02*
X437120D01*
Y428472D01*
X431306D01*
Y431335D01*
D02*
G37*
G36*
X424490Y427472D02*
X430305D01*
Y424610D01*
X424490D01*
Y427472D01*
D02*
G37*
G36*
X431306D02*
X437120D01*
Y424610D01*
X431306D01*
Y427472D01*
D02*
G37*
G36*
X135805Y425382D02*
X137843Y424538D01*
X138687Y422500D01*
X138135Y421166D01*
X141303Y417998D01*
X141509Y417500D01*
Y382791D01*
X149303Y374997D01*
X149509Y374500D01*
Y367182D01*
X149939Y367004D01*
X150409Y365870D01*
Y362130D01*
X149939Y360996D01*
X148805Y360527D01*
X147672Y360996D01*
X147202Y362130D01*
Y365870D01*
X147672Y367004D01*
X148102Y367182D01*
Y374209D01*
X140308Y382002D01*
X140102Y382500D01*
Y417209D01*
X137139Y420171D01*
X135805Y419619D01*
X133768Y420462D01*
X132924Y422500D01*
X133768Y424538D01*
X135805Y425382D01*
D02*
G37*
G36*
X410033Y420595D02*
X415357D01*
Y409365D01*
X410033D01*
Y420595D01*
D02*
G37*
G36*
X425190Y405831D02*
X436420D01*
Y400507D01*
X425190D01*
Y405831D01*
D02*
G37*
G36*
X278246Y391240D02*
X281306D01*
Y389362D01*
X278246D01*
Y391240D01*
D02*
G37*
G36*
X282306D02*
X285365D01*
Y389362D01*
X282306D01*
Y391240D01*
D02*
G37*
G36*
X192746Y390740D02*
X195806D01*
Y388862D01*
X192746D01*
Y390740D01*
D02*
G37*
G36*
X289746D02*
X292806D01*
Y388862D01*
X289746D01*
Y390740D01*
D02*
G37*
G36*
X293806D02*
X296865D01*
Y388862D01*
X293806D01*
Y390740D01*
D02*
G37*
G36*
X196806D02*
X199865D01*
Y388862D01*
X196806D01*
Y390740D01*
D02*
G37*
G36*
X155746Y390240D02*
X158806D01*
Y388362D01*
X155746D01*
Y390240D01*
D02*
G37*
G36*
X181746D02*
X184806D01*
Y388362D01*
X181746D01*
Y390240D01*
D02*
G37*
G36*
X257747D02*
X260806D01*
Y388362D01*
X257747D01*
Y390240D01*
D02*
G37*
G36*
X185805D02*
X188865D01*
Y388362D01*
X185805D01*
Y390240D01*
D02*
G37*
G36*
X249805D02*
X252865D01*
Y388362D01*
X249805D01*
Y390240D01*
D02*
G37*
G36*
X261806D02*
X264865D01*
Y388362D01*
X261806D01*
Y390240D01*
D02*
G37*
G36*
X159806D02*
X162865D01*
Y388362D01*
X159806D01*
Y390240D01*
D02*
G37*
G36*
X145247Y389740D02*
X148305D01*
Y387862D01*
X145247D01*
Y389740D01*
D02*
G37*
G36*
X149305D02*
X152365D01*
Y387862D01*
X149305D01*
Y389740D01*
D02*
G37*
G36*
X115246Y389240D02*
X118306D01*
Y387362D01*
X115246D01*
Y389240D01*
D02*
G37*
G36*
X126746D02*
X129806D01*
Y387362D01*
X126746D01*
Y389240D01*
D02*
G37*
G36*
X212747D02*
X215806D01*
Y387362D01*
X212747D01*
Y389240D01*
D02*
G37*
G36*
X224247D02*
X227306D01*
Y387362D01*
X224247D01*
Y389240D01*
D02*
G37*
G36*
X119306D02*
X122365D01*
Y387362D01*
X119306D01*
Y389240D01*
D02*
G37*
G36*
X228306D02*
X231365D01*
Y387362D01*
X228306D01*
Y389240D01*
D02*
G37*
G36*
X130806D02*
X133865D01*
Y387362D01*
X130806D01*
Y389240D01*
D02*
G37*
G36*
X216806D02*
X219865D01*
Y387362D01*
X216806D01*
Y389240D01*
D02*
G37*
G36*
X50246Y388740D02*
X53306D01*
Y386862D01*
X50246D01*
Y388740D01*
D02*
G37*
G36*
X94747D02*
X97806D01*
Y386862D01*
X94747D01*
Y388740D01*
D02*
G37*
G36*
X98805D02*
X101865D01*
Y386862D01*
X98805D01*
Y388740D01*
D02*
G37*
G36*
X54305D02*
X57364D01*
Y386862D01*
X54305D01*
Y388740D01*
D02*
G37*
G36*
X87305D02*
X90364D01*
Y386862D01*
X87305D01*
Y388740D01*
D02*
G37*
G36*
X278246Y388362D02*
X281306D01*
Y386484D01*
X278246D01*
Y388362D01*
D02*
G37*
G36*
X282306D02*
X285365D01*
Y386484D01*
X282306D01*
Y388362D01*
D02*
G37*
G36*
X61747Y388240D02*
X64806D01*
Y386362D01*
X61747D01*
Y388240D01*
D02*
G37*
G36*
X65806D02*
X68865D01*
Y386362D01*
X65806D01*
Y388240D01*
D02*
G37*
G36*
X192746Y387862D02*
X195806D01*
Y385984D01*
X192746D01*
Y387862D01*
D02*
G37*
G36*
X196806D02*
X199865D01*
Y385984D01*
X196806D01*
Y387862D01*
D02*
G37*
G36*
X289746D02*
X292806D01*
Y385984D01*
X289746D01*
Y387862D01*
D02*
G37*
G36*
X293806D02*
X296865D01*
Y385984D01*
X293806D01*
Y387862D01*
D02*
G37*
G36*
X155746Y387362D02*
X158806D01*
Y385484D01*
X155746D01*
Y387362D01*
D02*
G37*
G36*
X159806D02*
X162865D01*
Y385484D01*
X159806D01*
Y387362D01*
D02*
G37*
G36*
X181746D02*
X184806D01*
Y385484D01*
X181746D01*
Y387362D01*
D02*
G37*
G36*
X185805D02*
X188865D01*
Y385484D01*
X185805D01*
Y387362D01*
D02*
G37*
G36*
X245746D02*
X248805D01*
Y385484D01*
X245746D01*
Y387362D01*
D02*
G37*
G36*
X249805D02*
X252865D01*
Y385484D01*
X249805D01*
Y387362D01*
D02*
G37*
G36*
X257747D02*
X260806D01*
Y385484D01*
X257747D01*
Y387362D01*
D02*
G37*
G36*
X261806D02*
X264865D01*
Y385484D01*
X261806D01*
Y387362D01*
D02*
G37*
G36*
X145247Y386862D02*
X148305D01*
Y384984D01*
X145247D01*
Y386862D01*
D02*
G37*
G36*
X149305D02*
X152365D01*
Y384984D01*
X149305D01*
Y386862D01*
D02*
G37*
G36*
X278946Y385816D02*
X284665D01*
Y384754D01*
X290446D01*
Y385316D01*
X296165D01*
Y381960D01*
X290446D01*
Y383022D01*
X288671D01*
Y379672D01*
X289949Y379143D01*
X290836Y377000D01*
X289949Y374857D01*
X288671Y374328D01*
Y367114D01*
X288939Y367004D01*
X289409Y365870D01*
Y362130D01*
X288939Y360996D01*
X287806Y360527D01*
X286672Y360996D01*
X286202Y362130D01*
Y365870D01*
X286672Y367004D01*
X286940Y367114D01*
Y374328D01*
X285663Y374857D01*
X284775Y377000D01*
X285663Y379143D01*
X286940Y379672D01*
Y383022D01*
X284665D01*
Y382460D01*
X278946D01*
Y385816D01*
D02*
G37*
G36*
X115246Y386362D02*
X118306D01*
Y384484D01*
X115246D01*
Y386362D01*
D02*
G37*
G36*
X119306D02*
X122365D01*
Y384484D01*
X119306D01*
Y386362D01*
D02*
G37*
G36*
X126746D02*
X129806D01*
Y384484D01*
X126746D01*
Y386362D01*
D02*
G37*
G36*
X130806D02*
X133865D01*
Y384484D01*
X130806D01*
Y386362D01*
D02*
G37*
G36*
X212747D02*
X215806D01*
Y384484D01*
X212747D01*
Y386362D01*
D02*
G37*
G36*
X216806D02*
X219865D01*
Y384484D01*
X216806D01*
Y386362D01*
D02*
G37*
G36*
X224247D02*
X227306D01*
Y384484D01*
X224247D01*
Y386362D01*
D02*
G37*
G36*
X228306D02*
X231365D01*
Y384484D01*
X228306D01*
Y386362D01*
D02*
G37*
G36*
X246446Y384816D02*
X252165D01*
Y384004D01*
X258447D01*
Y384816D01*
X264165D01*
Y381460D01*
X258447D01*
Y382272D01*
X256171D01*
Y379672D01*
X257449Y379143D01*
X258336Y377000D01*
X257449Y374857D01*
X256171Y374328D01*
Y367322D01*
X256939Y367004D01*
X257409Y365870D01*
Y362130D01*
X256939Y360996D01*
X255805Y360527D01*
X254672Y360996D01*
X254202Y362130D01*
Y365870D01*
X254440Y366443D01*
Y374328D01*
X253163Y374857D01*
X252275Y377000D01*
X253163Y379143D01*
X254440Y379672D01*
Y382272D01*
X252165D01*
Y381460D01*
X246446D01*
Y384816D01*
D02*
G37*
G36*
X50246Y385862D02*
X53306D01*
Y383984D01*
X50246D01*
Y385862D01*
D02*
G37*
G36*
X54305D02*
X57364D01*
Y383984D01*
X54305D01*
Y385862D01*
D02*
G37*
G36*
X83246D02*
X86305D01*
Y383984D01*
X83246D01*
Y385862D01*
D02*
G37*
G36*
X87305D02*
X90364D01*
Y383984D01*
X87305D01*
Y385862D01*
D02*
G37*
G36*
X94747D02*
X97806D01*
Y383984D01*
X94747D01*
Y385862D01*
D02*
G37*
G36*
X98805D02*
X101865D01*
Y383984D01*
X98805D01*
Y385862D01*
D02*
G37*
G36*
X61747Y385362D02*
X64806D01*
Y383484D01*
X61747D01*
Y385362D01*
D02*
G37*
G36*
X65806D02*
X68865D01*
Y383484D01*
X65806D01*
Y385362D01*
D02*
G37*
G36*
X115946Y383816D02*
X121665D01*
Y383004D01*
X127446D01*
Y383816D01*
X133165D01*
Y380460D01*
X127446D01*
Y381272D01*
X124671D01*
Y376965D01*
X125449Y376643D01*
X126336Y374500D01*
X125449Y372357D01*
X124671Y372035D01*
Y367322D01*
X125439Y367004D01*
X125909Y365870D01*
Y362130D01*
X125439Y360996D01*
X124305Y360527D01*
X123172Y360996D01*
X122702Y362130D01*
Y365870D01*
X122940Y366443D01*
Y371621D01*
X121162Y372357D01*
X120275Y374500D01*
X121162Y376643D01*
X122940Y377379D01*
Y381272D01*
X121665D01*
Y380460D01*
X115946D01*
Y383816D01*
D02*
G37*
G36*
X213446D02*
X219165D01*
Y383004D01*
X224946D01*
Y383816D01*
X230665D01*
Y380460D01*
X224946D01*
Y381272D01*
X222671D01*
Y378672D01*
X223949Y378143D01*
X224836Y376000D01*
X223949Y373857D01*
X222671Y373328D01*
Y367322D01*
X223439Y367004D01*
X223909Y365870D01*
Y362130D01*
X223439Y360996D01*
X222305Y360527D01*
X221172Y360996D01*
X220702Y362130D01*
Y365870D01*
X220940Y366443D01*
Y373328D01*
X219662Y373857D01*
X218775Y376000D01*
X219662Y378143D01*
X220940Y378672D01*
Y381272D01*
X219165D01*
Y380460D01*
X213446D01*
Y383816D01*
D02*
G37*
G36*
X83947Y383316D02*
X89665D01*
Y382504D01*
X95446D01*
Y383316D01*
X101164D01*
Y379960D01*
X95446D01*
Y380772D01*
X92671D01*
Y375991D01*
X93949Y375462D01*
X94836Y373319D01*
X93949Y371176D01*
X92671Y370647D01*
Y366443D01*
X92909Y365870D01*
Y362130D01*
X92439Y360996D01*
X91306Y360527D01*
X90172Y360996D01*
X89702Y362130D01*
Y365870D01*
X90172Y367004D01*
X90940Y367322D01*
Y370647D01*
X89662Y371176D01*
X88775Y373319D01*
X89662Y375462D01*
X90940Y375991D01*
Y380772D01*
X89665D01*
Y379960D01*
X83947D01*
Y383316D01*
D02*
G37*
G36*
X50946D02*
X56665D01*
Y382254D01*
X62446D01*
Y382816D01*
X68164D01*
Y379460D01*
X62446D01*
Y380522D01*
X60671D01*
Y376465D01*
X61449Y376143D01*
X62336Y374000D01*
X61449Y371857D01*
X60671Y371535D01*
Y367114D01*
X60939Y367004D01*
X61409Y365870D01*
Y362130D01*
X60939Y360996D01*
X59806Y360527D01*
X58672Y360996D01*
X58202Y362130D01*
Y365870D01*
X58672Y367004D01*
X58940Y367114D01*
Y371121D01*
X57162Y371857D01*
X56275Y374000D01*
X57162Y376143D01*
X58940Y376879D01*
Y380522D01*
X56665D01*
Y379960D01*
X50946D01*
Y383316D01*
D02*
G37*
G36*
X193447Y385316D02*
X199165D01*
Y381960D01*
X196973D01*
X196918Y381825D01*
X196306Y381572D01*
X191171D01*
Y380172D01*
X192448Y379643D01*
X193336Y377500D01*
X192448Y375357D01*
X191171Y374828D01*
Y367322D01*
X191939Y367004D01*
X192409Y365870D01*
Y362130D01*
X191939Y360996D01*
X190805Y360527D01*
X189672Y360996D01*
X189202Y362130D01*
Y365870D01*
X189451Y366471D01*
X189440Y366500D01*
Y374828D01*
X188163Y375357D01*
X187275Y377500D01*
X188163Y379643D01*
X189440Y380172D01*
Y381572D01*
X188165D01*
Y381460D01*
X182447D01*
Y384816D01*
X188165D01*
Y383304D01*
X193447D01*
Y385316D01*
D02*
G37*
G36*
X156447Y384816D02*
X162165D01*
Y381460D01*
X156447D01*
Y382022D01*
X154671D01*
Y378120D01*
X154806Y378031D01*
X156948Y377143D01*
X157836Y375000D01*
X156948Y372857D01*
X154806Y371969D01*
X154671Y371880D01*
Y367114D01*
X154939Y367004D01*
X155409Y365870D01*
Y362130D01*
X154939Y360996D01*
X153805Y360527D01*
X152672Y360996D01*
X152202Y362130D01*
Y365870D01*
X152672Y367004D01*
X152940Y367114D01*
Y372742D01*
X152663Y372857D01*
X151775Y375000D01*
X152663Y377143D01*
X152940Y377258D01*
Y382022D01*
X151665D01*
Y380960D01*
X145947D01*
Y384316D01*
X151665D01*
Y383754D01*
X156447D01*
Y384816D01*
D02*
G37*
G36*
X229805Y428882D02*
X231843Y428038D01*
X232687Y426000D01*
X231843Y423962D01*
X230509Y423410D01*
Y409500D01*
X230303Y409002D01*
X220303Y399003D01*
X219806Y398797D01*
X183097D01*
X176509Y392209D01*
Y374791D01*
X184359Y366941D01*
X184672Y367004D01*
X185805Y367473D01*
X186939Y367004D01*
X187409Y365870D01*
Y362130D01*
X186939Y360996D01*
X185805Y360527D01*
X184672Y360996D01*
X184202Y362130D01*
Y365108D01*
X175308Y374003D01*
X175102Y374500D01*
Y392500D01*
X175308Y392998D01*
X182308Y399997D01*
X182806Y400204D01*
X219514D01*
X229102Y409791D01*
Y423410D01*
X227768Y423962D01*
X226924Y426000D01*
X227768Y428038D01*
X229805Y428882D01*
D02*
G37*
G36*
X105806Y425382D02*
X107843Y424538D01*
X108687Y422500D01*
X107843Y420462D01*
X106509Y419910D01*
Y414500D01*
X106303Y414003D01*
X93803Y401503D01*
X93305Y401297D01*
X46097D01*
X45009Y400209D01*
Y367791D01*
X48597Y364204D01*
X53202D01*
Y365870D01*
X53672Y367004D01*
X54805Y367473D01*
X55939Y367004D01*
X56409Y365870D01*
Y362130D01*
X55939Y360996D01*
X54805Y360527D01*
X53672Y360996D01*
X53202Y362130D01*
Y362796D01*
X48305D01*
X47808Y363002D01*
X43808Y367003D01*
X43602Y367500D01*
Y400500D01*
X43808Y400997D01*
X45308Y402497D01*
X45805Y402704D01*
X93014D01*
X105102Y414791D01*
Y419910D01*
X103768Y420462D01*
X102924Y422500D01*
X103768Y424538D01*
X105806Y425382D01*
D02*
G37*
G36*
X76806Y399531D02*
X78948Y398643D01*
X79836Y396500D01*
X78948Y394357D01*
X77509Y393761D01*
Y382500D01*
X77303Y382002D01*
X65509Y370209D01*
Y367182D01*
X65939Y367004D01*
X66409Y365870D01*
Y362130D01*
X65939Y360996D01*
X64806Y360527D01*
X63672Y360996D01*
X63202Y362130D01*
Y365870D01*
X63672Y367004D01*
X64102Y367182D01*
Y370500D01*
X64308Y370998D01*
X76102Y382791D01*
Y393761D01*
X74663Y394357D01*
X73775Y396500D01*
X74663Y398643D01*
X76806Y399531D01*
D02*
G37*
G36*
X69806Y367473D02*
X70939Y367004D01*
X71409Y365870D01*
Y362130D01*
X70939Y360996D01*
X69806Y360527D01*
X68672Y360996D01*
X68202Y362130D01*
Y365870D01*
X68672Y367004D01*
X69806Y367473D01*
D02*
G37*
G36*
X115805Y425382D02*
X117843Y424538D01*
X118687Y422500D01*
X117843Y420462D01*
X116509Y419910D01*
Y405586D01*
X116303Y405088D01*
X115717Y404502D01*
X115220Y404296D01*
X108097D01*
X107009Y403209D01*
Y395000D01*
X106803Y394502D01*
X105303Y393003D01*
X104806Y392796D01*
X86597D01*
X82895Y389095D01*
X83248Y388740D01*
X83746Y388740D01*
X86305D01*
Y386862D01*
X83246D01*
Y388240D01*
X83246Y388739D01*
X82892Y389091D01*
X81009Y387209D01*
Y379791D01*
X87303Y373498D01*
X87509Y373000D01*
Y366835D01*
X87909Y365870D01*
Y362130D01*
X87439Y360996D01*
X86305Y360527D01*
X85172Y360996D01*
X84702Y362130D01*
Y365870D01*
X85172Y367004D01*
X86102Y367389D01*
Y372709D01*
X79808Y379002D01*
X79602Y379500D01*
Y387500D01*
X79808Y387998D01*
X85808Y393998D01*
X86305Y394203D01*
X104514D01*
X105602Y395291D01*
Y403500D01*
X105808Y403998D01*
X107308Y405498D01*
X107806Y405703D01*
X114928D01*
X115102Y405877D01*
Y419910D01*
X113768Y420462D01*
X112924Y422500D01*
X113768Y424538D01*
X115805Y425382D01*
D02*
G37*
G36*
X101305Y367473D02*
X102439Y367004D01*
X102909Y365870D01*
Y362130D01*
X102439Y360996D01*
X101305Y360527D01*
X100172Y360996D01*
X99702Y362130D01*
Y365870D01*
X100172Y367004D01*
X101305Y367473D01*
D02*
G37*
G36*
X125805Y425382D02*
X127843Y424538D01*
X128687Y422500D01*
X127843Y420462D01*
X127009Y420117D01*
Y398086D01*
X126803Y397588D01*
X126217Y397003D01*
X125720Y396796D01*
X112597D01*
X112009Y396209D01*
Y379791D01*
X119303Y372498D01*
X119509Y372000D01*
Y367389D01*
X120439Y367004D01*
X120909Y365870D01*
Y362130D01*
X120439Y360996D01*
X119306Y360527D01*
X118172Y360996D01*
X117702Y362130D01*
Y365870D01*
X118102Y366835D01*
Y371709D01*
X110808Y379002D01*
X110602Y379500D01*
Y396500D01*
X110808Y396997D01*
X111808Y397997D01*
X112305Y398203D01*
X125428D01*
X125602Y398377D01*
Y419703D01*
X123768Y420462D01*
X122924Y422500D01*
X123768Y424538D01*
X125805Y425382D01*
D02*
G37*
G36*
X134306Y367473D02*
X135439Y367004D01*
X135909Y365870D01*
Y362130D01*
X135439Y360996D01*
X134306Y360527D01*
X133172Y360996D01*
X132702Y362130D01*
Y365870D01*
X133172Y367004D01*
X134306Y367473D01*
D02*
G37*
G36*
X163805D02*
X164939Y367004D01*
X165409Y365870D01*
Y362130D01*
X164939Y360996D01*
X163805Y360527D01*
X162672Y360996D01*
X162202Y362130D01*
Y365870D01*
X162672Y367004D01*
X163805Y367473D01*
D02*
G37*
G36*
X203805Y393031D02*
X205948Y392143D01*
X206836Y390000D01*
X205948Y387857D01*
X204509Y387261D01*
Y383000D01*
X204303Y382503D01*
X196009Y374209D01*
Y367389D01*
X196939Y367004D01*
X197409Y365870D01*
Y362130D01*
X196939Y360996D01*
X195806Y360527D01*
X194672Y360996D01*
X194202Y362130D01*
Y365870D01*
X194602Y366835D01*
Y374500D01*
X194808Y374997D01*
X203102Y383291D01*
Y387261D01*
X201662Y387857D01*
X200775Y390000D01*
X201662Y392143D01*
X203805Y393031D01*
D02*
G37*
G36*
X200805Y367473D02*
X201939Y367004D01*
X202409Y365870D01*
Y362130D01*
X201939Y360996D01*
X200805Y360527D01*
X199672Y360996D01*
X199202Y362130D01*
Y365870D01*
X199672Y367004D01*
X200805Y367473D01*
D02*
G37*
G36*
X239806Y428882D02*
X241843Y428038D01*
X242687Y426000D01*
X241843Y423962D01*
X241009Y423617D01*
Y397086D01*
X240803Y396588D01*
X240217Y396003D01*
X239720Y395796D01*
X210183D01*
X210009Y395623D01*
Y381161D01*
X217303Y373867D01*
X217509Y373369D01*
Y367389D01*
X218439Y367004D01*
X218909Y365870D01*
Y362130D01*
X218439Y360996D01*
X217305Y360527D01*
X216172Y360996D01*
X215702Y362130D01*
Y365870D01*
X216102Y366835D01*
Y373078D01*
X208808Y380372D01*
X208602Y380869D01*
Y395914D01*
X208808Y396412D01*
X209394Y396997D01*
X209891Y397203D01*
X239428D01*
X239602Y397377D01*
Y423203D01*
X237768Y423962D01*
X236924Y426000D01*
X237768Y428038D01*
X239806Y428882D01*
D02*
G37*
G36*
X232306Y367473D02*
X233439Y367004D01*
X233909Y365870D01*
Y362130D01*
X233439Y360996D01*
X232306Y360527D01*
X231172Y360996D01*
X230702Y362130D01*
Y365870D01*
X231172Y367004D01*
X232306Y367473D01*
D02*
G37*
G36*
X265806D02*
X266939Y367004D01*
X267409Y365870D01*
Y362130D01*
X266939Y360996D01*
X265806Y360527D01*
X264672Y360996D01*
X264202Y362130D01*
Y365870D01*
X264672Y367004D01*
X265806Y367473D01*
D02*
G37*
G36*
X297806D02*
X298939Y367004D01*
X299409Y365870D01*
Y362130D01*
X298939Y360996D01*
X297806Y360527D01*
X296672Y360996D01*
X296202Y362130D01*
Y365870D01*
X296672Y367004D01*
X297806Y367473D01*
D02*
G37*
G36*
X369652Y353559D02*
X371530D01*
Y350500D01*
X369652D01*
Y353559D01*
D02*
G37*
G36*
X372530D02*
X374408D01*
Y350500D01*
X372530D01*
Y353559D01*
D02*
G37*
G36*
X359805Y363204D02*
X373805D01*
X374303Y362998D01*
X412803Y324498D01*
X413009Y324000D01*
Y313090D01*
X414343Y312538D01*
X415187Y310500D01*
X414343Y308462D01*
X412305Y307618D01*
X410268Y308462D01*
X409424Y310500D01*
X410268Y312538D01*
X411602Y313090D01*
Y323709D01*
X373514Y361796D01*
X360097D01*
X349547Y351246D01*
X349569Y351134D01*
X350039Y350000D01*
X349569Y348866D01*
X348435Y348397D01*
X344695D01*
X343562Y348866D01*
X343092Y350000D01*
X343562Y351134D01*
X344695Y351603D01*
X347914D01*
X359308Y362998D01*
X359805Y363204D01*
D02*
G37*
G36*
X369652Y349500D02*
X371530D01*
Y346441D01*
X369652D01*
Y349500D01*
D02*
G37*
G36*
X372530D02*
X374408D01*
Y346441D01*
X372530D01*
Y349500D01*
D02*
G37*
G36*
X323435Y347361D02*
X324805D01*
Y345500D01*
X321282D01*
X321766Y346669D01*
X323435Y347361D01*
D02*
G37*
G36*
X325805D02*
X327176D01*
X328845Y346669D01*
X329329Y345500D01*
X325805D01*
Y347361D01*
D02*
G37*
G36*
X365628Y352859D02*
X368984D01*
Y347141D01*
X368171D01*
Y342359D01*
X368984D01*
Y336641D01*
X365628D01*
Y342359D01*
X366440D01*
Y343884D01*
X359874D01*
X359449Y342857D01*
X357306Y341969D01*
X355163Y342857D01*
X354633Y344134D01*
X349680D01*
X349569Y343866D01*
X348435Y343397D01*
X344695D01*
X343562Y343866D01*
X343092Y345000D01*
X343562Y346134D01*
X344695Y346603D01*
X348435D01*
X349569Y346134D01*
X349680Y345866D01*
X354633D01*
X355163Y347143D01*
X357306Y348031D01*
X359449Y347143D01*
X360081Y345616D01*
X366440D01*
Y347141D01*
X365628D01*
Y352859D01*
D02*
G37*
G36*
X59306Y346764D02*
Y343240D01*
X57445D01*
Y344610D01*
X58136Y346280D01*
X59306Y346764D01*
D02*
G37*
G36*
X90806D02*
Y343240D01*
X88945D01*
Y344610D01*
X89636Y346280D01*
X90806Y346764D01*
D02*
G37*
G36*
X123805D02*
Y343240D01*
X121945D01*
Y344610D01*
X122636Y346280D01*
X123805Y346764D01*
D02*
G37*
G36*
X153305D02*
Y343240D01*
X151445D01*
Y344610D01*
X152136Y346280D01*
X153305Y346764D01*
D02*
G37*
G36*
X190305D02*
Y343240D01*
X188445D01*
Y344610D01*
X189136Y346280D01*
X190305Y346764D01*
D02*
G37*
G36*
X221806D02*
Y343240D01*
X219945D01*
Y344610D01*
X220636Y346280D01*
X221806Y346764D01*
D02*
G37*
G36*
X255306D02*
Y343240D01*
X253445D01*
Y344610D01*
X254136Y346280D01*
X255306Y346764D01*
D02*
G37*
G36*
X287305D02*
Y343240D01*
X285445D01*
Y344610D01*
X286136Y346280D01*
X287305Y346764D01*
D02*
G37*
G36*
X154306D02*
X155475Y346280D01*
X156166Y344610D01*
Y343240D01*
X154306D01*
Y346764D01*
D02*
G37*
G36*
X191305D02*
X192475Y346280D01*
X193166Y344610D01*
Y343240D01*
X191305D01*
Y346764D01*
D02*
G37*
G36*
X124805D02*
X125975Y346280D01*
X126666Y344610D01*
Y343240D01*
X124805D01*
Y346764D01*
D02*
G37*
G36*
X222806D02*
X223975Y346280D01*
X224666Y344610D01*
Y343240D01*
X222806D01*
Y346764D01*
D02*
G37*
G36*
X256306D02*
X257475Y346280D01*
X258166Y344610D01*
Y343240D01*
X256306D01*
Y346764D01*
D02*
G37*
G36*
X60306D02*
X61475Y346280D01*
X62166Y344610D01*
Y343240D01*
X60306D01*
Y346764D01*
D02*
G37*
G36*
X91805D02*
X92975Y346280D01*
X93666Y344610D01*
Y343240D01*
X91805D01*
Y346764D01*
D02*
G37*
G36*
X288305D02*
X289475Y346280D01*
X290166Y344610D01*
Y343240D01*
X288305D01*
Y346764D01*
D02*
G37*
G36*
X321282Y344500D02*
X324805D01*
Y342639D01*
X323435D01*
X321766Y343331D01*
X321282Y344500D01*
D02*
G37*
G36*
X325805D02*
X329329D01*
X328845Y343331D01*
X327176Y342639D01*
X325805D01*
Y344500D01*
D02*
G37*
G36*
X323435Y351603D02*
X327176D01*
X328309Y351134D01*
X328779Y350000D01*
X328309Y348866D01*
X327176Y348397D01*
X323435D01*
X322302Y348866D01*
X322124Y349296D01*
X316509D01*
Y340877D01*
X316683Y340704D01*
X322124D01*
X322302Y341134D01*
X323435Y341603D01*
X327176D01*
X328309Y341134D01*
X328779Y340000D01*
X328309Y338866D01*
X327176Y338397D01*
X323435D01*
X322302Y338866D01*
X322189Y338889D01*
X287345Y304044D01*
Y277164D01*
X287139Y276667D01*
X255803Y245331D01*
X255306Y245125D01*
X253168D01*
X252671Y245331D01*
X245865Y252137D01*
X245771Y252099D01*
X245649Y251514D01*
X252631Y244532D01*
X257261D01*
X317602Y304873D01*
Y313414D01*
X317808Y313912D01*
X318394Y314497D01*
X318891Y314703D01*
X322471D01*
X323435Y315103D01*
X327176D01*
X328309Y314634D01*
X328779Y313500D01*
X328309Y312366D01*
X327176Y311897D01*
X323435D01*
X322302Y312366D01*
X321917Y313297D01*
X319183D01*
X319009Y313123D01*
Y304873D01*
X319678Y304204D01*
X322124D01*
X322302Y304634D01*
X323435Y305103D01*
X327176D01*
X328309Y304634D01*
X328779Y303500D01*
X328309Y302366D01*
X327176Y301897D01*
X323435D01*
X322302Y302366D01*
X322124Y302797D01*
X319387D01*
X318889Y303003D01*
X318305Y303587D01*
X258050Y243331D01*
X257552Y243125D01*
X252340D01*
X251842Y243331D01*
X244450Y250723D01*
X244350Y250692D01*
X244208Y250127D01*
X252631Y241704D01*
X271330D01*
X303124Y273498D01*
X303621Y273704D01*
X317316D01*
X317650Y274204D01*
X317602Y274319D01*
Y282414D01*
X317808Y282912D01*
X318394Y283498D01*
X318891Y283703D01*
X322124D01*
X322302Y284134D01*
X323435Y284603D01*
X327176D01*
X328309Y284134D01*
X328779Y283000D01*
X328309Y281866D01*
X327176Y281397D01*
X323435D01*
X322302Y281866D01*
X322124Y282296D01*
X319183D01*
X319009Y282123D01*
Y274610D01*
X319916Y273704D01*
X322124D01*
X322302Y274134D01*
X323435Y274603D01*
X327176D01*
X328309Y274134D01*
X328779Y273000D01*
X328309Y271866D01*
X327176Y271397D01*
X323435D01*
X322302Y271866D01*
X322124Y272297D01*
X303913D01*
X272119Y240503D01*
X271621Y240297D01*
X252340D01*
X251842Y240503D01*
X243039Y249305D01*
X242931Y249282D01*
X242769Y248738D01*
X251802Y239703D01*
X316602D01*
Y248414D01*
X316808Y248912D01*
X317394Y249498D01*
X317891Y249704D01*
X321917D01*
X322302Y250634D01*
X323435Y251103D01*
X327176D01*
X328309Y250634D01*
X328779Y249500D01*
X328309Y248366D01*
X327176Y247897D01*
X323435D01*
X322471Y248296D01*
X318183D01*
X318009Y248123D01*
Y239877D01*
X318183Y239703D01*
X321917D01*
X322302Y240634D01*
X323435Y241103D01*
X327176D01*
X328309Y240634D01*
X328779Y239500D01*
X328309Y238366D01*
X327176Y237897D01*
X323435D01*
X322471Y238297D01*
X251511D01*
X251014Y238503D01*
X241625Y247891D01*
X241509Y247876D01*
X241329Y247348D01*
X280974Y207703D01*
X318454D01*
X318649Y207998D01*
X318725Y208204D01*
X318602Y208500D01*
Y216414D01*
X318808Y216912D01*
X319394Y217497D01*
X319891Y217704D01*
X322471D01*
X323435Y218103D01*
X327176D01*
X328309Y217634D01*
X328779Y216500D01*
X328309Y215366D01*
X327176Y214897D01*
X323435D01*
X322302Y215366D01*
X321917Y216297D01*
X320183D01*
X320009Y216123D01*
Y208791D01*
X321097Y207703D01*
X322471D01*
X323435Y208103D01*
X327176D01*
X328309Y207634D01*
X328779Y206500D01*
X328309Y205366D01*
X327176Y204897D01*
X323435D01*
X322302Y205366D01*
X321917Y206296D01*
X280683D01*
X280185Y206503D01*
X240258Y246430D01*
X239978Y246367D01*
X239869Y245981D01*
X300146Y185704D01*
X322471D01*
X323435Y186103D01*
X327176D01*
X328309Y185634D01*
X328779Y184500D01*
X328309Y183366D01*
X327176Y182897D01*
X323435D01*
X322302Y183366D01*
X321917Y184297D01*
X318597D01*
X318423Y184123D01*
Y176377D01*
X319097Y175704D01*
X322471D01*
X323435Y176103D01*
X327176D01*
X328309Y175634D01*
X328779Y174500D01*
X328309Y173366D01*
X327176Y172897D01*
X323435D01*
X322302Y173366D01*
X321917Y174296D01*
X318806D01*
X318308Y174503D01*
X317222Y175588D01*
X317016Y176086D01*
Y184297D01*
X299854D01*
X299357Y184502D01*
X238916Y244943D01*
X238390Y244762D01*
X238376Y244645D01*
X305663Y177358D01*
X305869Y176860D01*
Y170931D01*
X321553Y155247D01*
X321571Y155203D01*
X322124D01*
X322302Y155634D01*
X323435Y156103D01*
X327176D01*
X328309Y155634D01*
X328779Y154500D01*
X328309Y153366D01*
X327176Y152897D01*
X323435D01*
X322302Y153366D01*
X322124Y153797D01*
X320597D01*
X320009Y153209D01*
Y147291D01*
X321733Y145567D01*
X322302Y145634D01*
X323435Y146103D01*
X327176D01*
X328309Y145634D01*
X328779Y144500D01*
X328309Y143366D01*
X327176Y142897D01*
X323435D01*
X322302Y143366D01*
X322124Y143797D01*
X321806D01*
X321308Y144002D01*
X318808Y146502D01*
X318602Y147000D01*
Y153500D01*
X318808Y153998D01*
X319457Y154646D01*
X319458Y155352D01*
X304668Y170142D01*
X304462Y170640D01*
Y176569D01*
X237527Y243503D01*
X236986Y243338D01*
X236964Y243228D01*
X298242Y181951D01*
X298448Y181453D01*
Y151853D01*
X324697Y125603D01*
X327176D01*
X328309Y125134D01*
X328779Y124000D01*
X328309Y122866D01*
X327176Y122397D01*
X323435D01*
X322302Y122866D01*
X321832Y124000D01*
X322302Y125134D01*
X322505Y125218D01*
X322602Y125708D01*
X297247Y151064D01*
X297041Y151561D01*
Y181162D01*
X241019Y237183D01*
X240595Y236900D01*
X240671Y236716D01*
Y236500D01*
X240580Y236280D01*
X240669Y236065D01*
X240289Y235147D01*
X239371Y234766D01*
X239156Y234855D01*
X238936Y234764D01*
X238107D01*
X237495Y235018D01*
X233285Y239228D01*
X232859Y238802D01*
X229995Y241666D01*
X227130Y244531D01*
X227832Y245233D01*
X228077Y244988D01*
X228576D01*
X229223Y245635D01*
X229495Y245906D01*
X230534Y246945D01*
X230615Y247026D01*
X230887Y247298D01*
X230969Y247380D01*
X231926Y248337D01*
X232007Y248418D01*
X232279Y248690D01*
X232361Y248772D01*
X233317Y249728D01*
X233399Y249810D01*
X233671Y250082D01*
X233753Y250164D01*
X234709Y251120D01*
X234791Y251202D01*
X235063Y251474D01*
X235145Y251556D01*
X236101Y252512D01*
X236183Y252594D01*
X236455Y252866D01*
X236537Y252948D01*
X237493Y253904D01*
X237575Y253986D01*
X237847Y254258D01*
X237929Y254340D01*
X238885Y255296D01*
X238967Y255378D01*
X239239Y255650D01*
X239321Y255732D01*
X240277Y256688D01*
X240359Y256770D01*
X240631Y257042D01*
X241751Y258162D01*
X244924Y254989D01*
X245058Y254934D01*
X253459Y246532D01*
X255014D01*
X285938Y277456D01*
Y304336D01*
X286144Y304833D01*
X320145Y338835D01*
X319954Y339297D01*
X316391D01*
X315894Y339503D01*
X315308Y340088D01*
X315102Y340586D01*
Y349914D01*
X315308Y350412D01*
X315394Y350498D01*
X315891Y350704D01*
X322124D01*
X322302Y351134D01*
X323435Y351603D01*
D02*
G37*
G36*
X369652Y343059D02*
X371530D01*
Y340000D01*
X369652D01*
Y343059D01*
D02*
G37*
G36*
X372530D02*
X374408D01*
Y340000D01*
X372530D01*
Y343059D01*
D02*
G37*
G36*
X250805Y346213D02*
X251939Y345744D01*
X252409Y344610D01*
Y340870D01*
X252133Y340204D01*
X252467Y339703D01*
X253478D01*
X253756Y340119D01*
X253445Y340870D01*
Y342240D01*
X255805D01*
Y342740D01*
D01*
Y342240D01*
X258166D01*
Y340870D01*
X257855Y340119D01*
X258133Y339703D01*
X259014D01*
X259489Y340178D01*
X259202Y340870D01*
Y344610D01*
X259672Y345744D01*
X260806Y346213D01*
X261939Y345744D01*
X262409Y344610D01*
Y340870D01*
X261939Y339737D01*
X260806Y339267D01*
X260637Y339337D01*
X259803Y338503D01*
X259306Y338297D01*
X251009D01*
Y313552D01*
X250803Y313054D01*
X230436Y292687D01*
X230719Y292263D01*
X230805Y292299D01*
X231724Y291918D01*
X232104Y291000D01*
X231724Y290082D01*
X230805Y289701D01*
X230694Y289748D01*
X227550Y286604D01*
X227976Y286178D01*
X225112Y283313D01*
X222247Y280449D01*
X221546Y281150D01*
X222041Y281645D01*
X221144Y282542D01*
X221324Y282723D01*
X221041Y283147D01*
X220872Y283077D01*
X220266Y283328D01*
X220014Y283934D01*
X220266Y284540D01*
X223885Y288159D01*
X223942Y288183D01*
X249602Y313843D01*
Y339586D01*
Y339905D01*
X249202Y340870D01*
Y344610D01*
X249672Y345744D01*
X250805Y346213D01*
D02*
G37*
G36*
X68324Y346091D02*
X71287D01*
Y339389D01*
X68324D01*
Y346091D01*
D02*
G37*
G36*
X99824D02*
X102787D01*
Y339389D01*
X99824D01*
Y346091D01*
D02*
G37*
G36*
X132824D02*
X135787D01*
Y339389D01*
X132824D01*
Y346091D01*
D02*
G37*
G36*
X162324D02*
X165287D01*
Y339389D01*
X162324D01*
Y346091D01*
D02*
G37*
G36*
X199324D02*
X202287D01*
Y339389D01*
X199324D01*
Y346091D01*
D02*
G37*
G36*
X230824D02*
X233787D01*
Y339389D01*
X230824D01*
Y346091D01*
D02*
G37*
G36*
X264324D02*
X267287D01*
Y339389D01*
X264324D01*
Y346091D01*
D02*
G37*
G36*
X296324D02*
X299287D01*
Y339389D01*
X296324D01*
Y346091D01*
D02*
G37*
G36*
X57445Y342240D02*
X59306D01*
Y338716D01*
X58136Y339201D01*
X57445Y340870D01*
Y342240D01*
D02*
G37*
G36*
X285445D02*
X287305D01*
Y338716D01*
X286136Y339201D01*
X285445Y340870D01*
Y342240D01*
D02*
G37*
G36*
X121945D02*
X123805D01*
Y338716D01*
X122636Y339201D01*
X121945Y340870D01*
Y342240D01*
D02*
G37*
G36*
X151445D02*
X153305D01*
Y338716D01*
X152136Y339201D01*
X151445Y340870D01*
Y342240D01*
D02*
G37*
G36*
X124805D02*
X126666D01*
Y340870D01*
X125975Y339201D01*
X124805Y338716D01*
Y342240D01*
D02*
G37*
G36*
X154306D02*
X156166D01*
Y340870D01*
X155475Y339201D01*
X154306Y338716D01*
Y342240D01*
D02*
G37*
G36*
X60306D02*
X62166D01*
Y340870D01*
X61475Y339201D01*
X60306Y338716D01*
Y342240D01*
D02*
G37*
G36*
X288305D02*
X290166D01*
Y340870D01*
X289475Y339201D01*
X288305Y338716D01*
Y342240D01*
D02*
G37*
G36*
X344695Y341603D02*
X348435D01*
X349569Y341134D01*
X349747Y340704D01*
X353805D01*
X354303Y340497D01*
X365597Y329204D01*
X389066D01*
X389663Y330643D01*
X391806Y331531D01*
X393949Y330643D01*
X394836Y328500D01*
X393949Y326357D01*
X391806Y325469D01*
X389663Y326357D01*
X389066Y327797D01*
X365305D01*
X364808Y328003D01*
X353514Y339297D01*
X349747D01*
X349569Y338866D01*
X348435Y338397D01*
X344695D01*
X343562Y338866D01*
X343092Y340000D01*
X343562Y341134D01*
X344695Y341603D01*
D02*
G37*
G36*
X54805Y346213D02*
X55939Y345744D01*
X56409Y344610D01*
Y340870D01*
X55939Y339737D01*
X55509Y339558D01*
Y337877D01*
X55683Y337703D01*
X63928D01*
X64102Y337877D01*
Y339558D01*
X63672Y339737D01*
X63202Y340870D01*
Y344610D01*
X63672Y345744D01*
X64806Y346213D01*
X65939Y345744D01*
X66409Y344610D01*
Y340870D01*
X65939Y339737D01*
X65509Y339558D01*
Y336291D01*
X72597Y329204D01*
X99805D01*
X100303Y328997D01*
X106097Y323203D01*
X129977D01*
X130475Y322997D01*
X140769Y312703D01*
X167153D01*
X167650Y312497D01*
X200995Y279153D01*
X201101Y279178D01*
X201257Y279729D01*
X167690Y313297D01*
X141305D01*
X140808Y313503D01*
X130514Y323797D01*
X106806D01*
X106308Y324003D01*
X96308Y334002D01*
X96102Y334500D01*
Y336711D01*
X95391D01*
X95184Y336796D01*
X87391D01*
X86894Y337002D01*
X86308Y337588D01*
X86102Y338086D01*
Y339351D01*
X85172Y339737D01*
X84702Y340870D01*
Y344610D01*
X85172Y345744D01*
X86305Y346213D01*
X87439Y345744D01*
X87909Y344610D01*
Y340870D01*
X87509Y339905D01*
Y338377D01*
X87683Y338204D01*
X90737D01*
X90837Y338703D01*
X89636Y339201D01*
X88945Y340870D01*
Y342240D01*
X91306D01*
X93666D01*
Y340870D01*
X92975Y339201D01*
X91774Y338703D01*
X91874Y338204D01*
X95306D01*
X95513Y338118D01*
X95928D01*
X96102Y338291D01*
Y339351D01*
X95172Y339737D01*
X94702Y340870D01*
Y344610D01*
X95172Y345744D01*
X96306Y346213D01*
X97439Y345744D01*
X97909Y344610D01*
Y340870D01*
X97509Y339905D01*
Y334791D01*
X107097Y325203D01*
X130806D01*
X131303Y324997D01*
X141597Y314703D01*
X167981D01*
X168479Y314497D01*
X202521Y280455D01*
X203021D01*
X203160Y280593D01*
X203241Y280675D01*
X204198Y281632D01*
X204280Y281714D01*
X204552Y281985D01*
X204633Y282067D01*
X205443Y282877D01*
X205495Y283532D01*
X172372Y316655D01*
X146947D01*
X146450Y316861D01*
X128308Y335002D01*
X128102Y335500D01*
Y335796D01*
X119306D01*
X118808Y336002D01*
X118222Y336588D01*
X118016Y337086D01*
Y337914D01*
X118102Y338121D01*
Y339905D01*
X117702Y340870D01*
Y344610D01*
X118172Y345744D01*
X119306Y346213D01*
X120439Y345744D01*
X120909Y344610D01*
Y340870D01*
X120439Y339737D01*
X119509Y339351D01*
Y338000D01*
X119423Y337793D01*
Y337377D01*
X119597Y337204D01*
X127928D01*
X128102Y337377D01*
Y339905D01*
X127702Y340870D01*
Y344610D01*
X128172Y345744D01*
X129306Y346213D01*
X130439Y345744D01*
X130909Y344610D01*
Y340870D01*
X130439Y339737D01*
X129509Y339351D01*
Y335791D01*
X147239Y318062D01*
X172664D01*
X173161Y317856D01*
X206387Y284630D01*
X206484Y284665D01*
X206613Y285243D01*
X158308Y333547D01*
X158102Y334045D01*
Y335297D01*
X149805D01*
X149308Y335503D01*
X148308Y336503D01*
X148102Y337000D01*
Y339558D01*
X147672Y339737D01*
X147202Y340870D01*
Y344610D01*
X147672Y345744D01*
X148805Y346213D01*
X149939Y345744D01*
X150409Y344610D01*
Y340870D01*
X149939Y339737D01*
X149509Y339558D01*
Y337291D01*
X150097Y336703D01*
X157928D01*
X158102Y336877D01*
Y339558D01*
X157672Y339737D01*
X157202Y340870D01*
Y344610D01*
X157672Y345744D01*
X158806Y346213D01*
X159939Y345744D01*
X160409Y344610D01*
Y340870D01*
X159939Y339737D01*
X159509Y339558D01*
Y336586D01*
Y334336D01*
X207862Y285983D01*
X208057Y286046D01*
X208194Y286616D01*
X194808Y300003D01*
X194602Y300500D01*
Y337211D01*
X193891D01*
X193684Y337297D01*
X185891D01*
X185394Y337503D01*
X184808Y338088D01*
X184602Y338586D01*
Y339905D01*
X184202Y340870D01*
Y344610D01*
X184672Y345744D01*
X185805Y346213D01*
X186939Y345744D01*
X187409Y344610D01*
Y340870D01*
X186939Y339737D01*
X186009Y339351D01*
Y338877D01*
X186183Y338703D01*
X189055D01*
X189153Y339194D01*
X189136Y339201D01*
X188445Y340870D01*
Y342240D01*
X190805D01*
X193166D01*
Y340870D01*
X192475Y339201D01*
X192458Y339194D01*
X192556Y338703D01*
X193806D01*
X194013Y338618D01*
X194428D01*
X194602Y338791D01*
Y339905D01*
X194202Y340870D01*
Y344610D01*
X194672Y345744D01*
X195806Y346213D01*
X196939Y345744D01*
X197409Y344610D01*
Y340870D01*
X196939Y339737D01*
X196009Y339351D01*
Y338500D01*
Y300791D01*
X209398Y287403D01*
X209870Y287453D01*
X209900Y287962D01*
X205296Y292567D01*
X205207Y292603D01*
X198222Y299588D01*
X198016Y300086D01*
Y300914D01*
X198222Y301412D01*
X216102Y319291D01*
Y338586D01*
Y339905D01*
X215702Y340870D01*
Y344610D01*
X216172Y345744D01*
X217305Y346213D01*
X218439Y345744D01*
X218909Y344610D01*
Y340870D01*
X218439Y339737D01*
X218359Y339703D01*
X218459Y339204D01*
X220185D01*
X220463Y339619D01*
X219945Y340870D01*
Y342240D01*
X222305D01*
X224666D01*
Y340870D01*
X224148Y339619D01*
X224426Y339204D01*
X225928D01*
X226102Y339377D01*
Y339905D01*
X225702Y340870D01*
Y344610D01*
X226172Y345744D01*
X227306Y346213D01*
X228439Y345744D01*
X228909Y344610D01*
Y340870D01*
X228439Y339737D01*
X227509Y339351D01*
Y339086D01*
X227303Y338588D01*
X226717Y338002D01*
X226220Y337796D01*
X217509D01*
Y319000D01*
X217303Y318502D01*
X199423Y300623D01*
Y300377D01*
X206166Y293635D01*
X206254Y293598D01*
X211209Y288643D01*
X211240Y288673D01*
X215979Y283934D01*
X214941Y282896D01*
X214859Y282814D01*
X214587Y282542D01*
X214505Y282460D01*
X213548Y281504D01*
X213467Y281422D01*
X213195Y281150D01*
X213113Y281068D01*
X212157Y280112D01*
X212075Y280030D01*
X211803Y279758D01*
X211721Y279676D01*
X210765Y278720D01*
X210683Y278638D01*
X210411Y278366D01*
X210329Y278284D01*
X209373Y277328D01*
X209291Y277246D01*
X209019Y276974D01*
X208937Y276892D01*
X207981Y275936D01*
X207899Y275854D01*
X207627Y275582D01*
X207545Y275501D01*
X206589Y274544D01*
X206235Y274190D01*
X206153Y274109D01*
X205197Y273152D01*
X205115Y273070D01*
X204843Y272798D01*
X204762Y272717D01*
X203946Y271902D01*
X204441Y271407D01*
X203740Y270705D01*
X200875Y273570D01*
X198011Y276434D01*
X198437Y276860D01*
X193663Y281634D01*
X190746D01*
X190724Y281582D01*
X189805Y281201D01*
X188887Y281582D01*
X188507Y282500D01*
X188887Y283418D01*
X189805Y283799D01*
X190724Y283418D01*
X190746Y283366D01*
X194022D01*
X194130Y283321D01*
X194413Y283745D01*
X166861Y311297D01*
X140477D01*
X139980Y311503D01*
X129686Y321796D01*
X105806D01*
X105308Y322003D01*
X99514Y327797D01*
X72306D01*
X71808Y328003D01*
X64308Y335503D01*
X64102Y336000D01*
Y336297D01*
X56211D01*
X56004Y335796D01*
X72097Y319704D01*
X104306D01*
X104803Y319497D01*
X112303Y311998D01*
X112509Y311500D01*
Y303299D01*
X112724Y303210D01*
X113104Y302291D01*
X112724Y301373D01*
X111805Y300992D01*
X110887Y301373D01*
X110507Y302291D01*
X110887Y303210D01*
X111102Y303299D01*
Y311209D01*
X104014Y318297D01*
X71806D01*
X71308Y318502D01*
X55014Y334797D01*
X23035D01*
X22295Y333010D01*
X19805Y331979D01*
X17316Y333010D01*
X16285Y335500D01*
X17316Y337990D01*
X19805Y339021D01*
X22295Y337990D01*
X23035Y336204D01*
X54486D01*
X54693Y336703D01*
X54308Y337088D01*
X54102Y337586D01*
Y339558D01*
X53672Y339737D01*
X53202Y340870D01*
Y344610D01*
X53672Y345744D01*
X54805Y346213D01*
D02*
G37*
G36*
X282805D02*
X283939Y345744D01*
X284409Y344610D01*
Y340870D01*
X283939Y339737D01*
X283509Y339558D01*
Y337527D01*
X283303Y337030D01*
X283009Y336736D01*
Y336377D01*
X283183Y336204D01*
X292014D01*
X292102Y336291D01*
Y339558D01*
X291672Y339737D01*
X291202Y340870D01*
Y344610D01*
X291672Y345744D01*
X292806Y346213D01*
X293939Y345744D01*
X294409Y344610D01*
Y340870D01*
X293939Y339737D01*
X293509Y339558D01*
Y336000D01*
X293303Y335503D01*
X292803Y335002D01*
X292305Y334797D01*
X282891D01*
X282394Y335002D01*
X281835Y335562D01*
X229751Y283478D01*
X230059Y283106D01*
X230140Y283024D01*
X231097Y282067D01*
X231179Y281985D01*
X231451Y281714D01*
X231532Y281632D01*
X232489Y280675D01*
X232571Y280593D01*
X232842Y280322D01*
X232924Y280240D01*
X233881Y279283D01*
X233963Y279202D01*
X234234Y278930D01*
X234316Y278848D01*
X235273Y277891D01*
X235355Y277810D01*
X235626Y277538D01*
X235708Y277456D01*
X236665Y276499D01*
X236747Y276418D01*
X237018Y276146D01*
X237100Y276064D01*
X238004Y275160D01*
X238139Y275026D01*
X238621Y275069D01*
X242020Y278468D01*
X242007Y278500D01*
X242387Y279418D01*
X243305Y279799D01*
X244224Y279418D01*
X244604Y278500D01*
X244224Y277582D01*
X243305Y277201D01*
X243232Y277231D01*
X240078Y274077D01*
X240504Y273650D01*
X237639Y270786D01*
X234774Y267921D01*
X234073Y268623D01*
X234568Y269118D01*
X233753Y269933D01*
X233684Y270001D01*
X233298Y270322D01*
X225567Y262591D01*
X225604Y262500D01*
X225224Y261582D01*
X224306Y261201D01*
X223387Y261582D01*
X223007Y262500D01*
X223387Y263418D01*
X224306Y263799D01*
X224645Y263658D01*
X232276Y271290D01*
X231982Y271703D01*
X231926Y271760D01*
X230969Y272717D01*
X230887Y272798D01*
X230615Y273070D01*
X230534Y273152D01*
X229577Y274109D01*
X229495Y274190D01*
X229223Y274462D01*
X229142Y274544D01*
X228185Y275501D01*
X228103Y275582D01*
X227832Y275854D01*
X227750Y275936D01*
X226793Y276892D01*
X226711Y276974D01*
X226439Y277246D01*
X226358Y277328D01*
X225401Y278284D01*
X225319Y278366D01*
X225048Y278638D01*
X224966Y278720D01*
X224151Y279535D01*
X223656Y279040D01*
X222954Y279742D01*
X225819Y282606D01*
X228683Y285471D01*
X229219Y284935D01*
X281808Y337525D01*
X281808Y337525D01*
X282102Y337819D01*
Y339558D01*
X281672Y339737D01*
X281202Y340870D01*
Y344610D01*
X281672Y345744D01*
X282805Y346213D01*
D02*
G37*
G36*
X369652Y339000D02*
X371530D01*
Y335941D01*
X369652D01*
Y339000D01*
D02*
G37*
G36*
X372530D02*
X374408D01*
Y335941D01*
X372530D01*
Y339000D01*
D02*
G37*
G36*
X321954Y336481D02*
X328657D01*
Y333519D01*
X321954D01*
Y336481D01*
D02*
G37*
G36*
X344695Y336603D02*
X348435D01*
X349569Y336134D01*
X350039Y335000D01*
X349569Y333866D01*
X348435Y333397D01*
X344695D01*
X343562Y333866D01*
X343092Y335000D01*
X343562Y336134D01*
X344695Y336603D01*
D02*
G37*
G36*
X19306Y329571D02*
Y326000D01*
X15734D01*
X16780Y328525D01*
X19306Y329571D01*
D02*
G37*
G36*
X20305D02*
X22831Y328525D01*
X23877Y326000D01*
X20305D01*
Y329571D01*
D02*
G37*
G36*
X15734Y325000D02*
X19306D01*
Y321429D01*
X16780Y322475D01*
X15734Y325000D01*
D02*
G37*
G36*
X20305D02*
X23877D01*
X22831Y322475D01*
X20305Y321429D01*
Y325000D01*
D02*
G37*
G36*
X369290Y315559D02*
X371168D01*
Y312500D01*
X369290D01*
Y315559D01*
D02*
G37*
G36*
X372168D02*
X374046D01*
Y312500D01*
X372168D01*
Y315559D01*
D02*
G37*
G36*
X355805Y319203D02*
X394806D01*
X395303Y318998D01*
X411325Y302975D01*
X412305Y303381D01*
X414343Y302538D01*
X415187Y300500D01*
X414343Y298462D01*
X412844Y297841D01*
X412943Y297341D01*
X418152D01*
X419977Y299166D01*
X419424Y300500D01*
X420268Y302538D01*
X422305Y303381D01*
X424343Y302538D01*
X425187Y300500D01*
X424343Y298462D01*
X422305Y297619D01*
X420971Y298171D01*
X418941Y296140D01*
X418443Y295934D01*
X360668D01*
X360170Y296140D01*
X354014Y302296D01*
X349400D01*
X348435Y301897D01*
X344695D01*
X343562Y302366D01*
X343092Y303500D01*
X343562Y304634D01*
X344695Y305103D01*
X348435D01*
X349569Y304634D01*
X349954Y303703D01*
X354306D01*
X354803Y303498D01*
X360959Y297341D01*
X411668D01*
X411767Y297841D01*
X410268Y298462D01*
X409424Y300500D01*
X410123Y302188D01*
X394514Y317796D01*
X356097D01*
X350803Y312503D01*
X350306Y312297D01*
X349400D01*
X348435Y311897D01*
X344695D01*
X343562Y312366D01*
X343092Y313500D01*
X343562Y314634D01*
X344695Y315103D01*
X348435D01*
X349569Y314634D01*
X349765Y314161D01*
X350354Y314044D01*
X355308Y318998D01*
X355805Y319203D01*
D02*
G37*
G36*
X323435Y310861D02*
X324805D01*
Y309000D01*
X321282D01*
X321766Y310169D01*
X323435Y310861D01*
D02*
G37*
G36*
X325805D02*
X327176D01*
X328845Y310169D01*
X329329Y309000D01*
X325805D01*
Y310861D01*
D02*
G37*
G36*
X369290Y311500D02*
X371168D01*
Y308441D01*
X369290D01*
Y311500D01*
D02*
G37*
G36*
X372168D02*
X374046D01*
Y308441D01*
X372168D01*
Y311500D01*
D02*
G37*
G36*
X419643Y313162D02*
X424968D01*
Y307838D01*
X419643D01*
Y313162D01*
D02*
G37*
G36*
X365265Y314859D02*
X368621D01*
Y309141D01*
X367809D01*
Y305859D01*
X368621D01*
Y300141D01*
X365265D01*
Y305859D01*
X366077D01*
Y306634D01*
X358910D01*
X357306Y305969D01*
X355163Y306857D01*
X354633Y308134D01*
X349887D01*
X349569Y307366D01*
X348435Y306897D01*
X344695D01*
X343562Y307366D01*
X343092Y308500D01*
X343562Y309634D01*
X344695Y310103D01*
X348435D01*
X349008Y309866D01*
X354633D01*
X355163Y311143D01*
X357306Y312031D01*
X359449Y311143D01*
X360336Y309000D01*
X360246Y308782D01*
X360524Y308366D01*
X366077D01*
Y309141D01*
X365265D01*
Y314859D01*
D02*
G37*
G36*
X321282Y308000D02*
X324805D01*
Y306139D01*
X323435D01*
X321766Y306831D01*
X321282Y308000D01*
D02*
G37*
G36*
X325805D02*
X329329D01*
X328845Y306831D01*
X327176Y306139D01*
X325805D01*
Y308000D01*
D02*
G37*
G36*
X95643Y311162D02*
X100968D01*
Y305838D01*
X95643D01*
Y311162D01*
D02*
G37*
G36*
X274143Y310162D02*
X279468D01*
Y304838D01*
X274143D01*
Y310162D01*
D02*
G37*
G36*
X369290Y306559D02*
X371168D01*
Y303500D01*
X369290D01*
Y306559D01*
D02*
G37*
G36*
X372168D02*
X374046D01*
Y303500D01*
X372168D01*
Y306559D01*
D02*
G37*
G36*
X120824Y303784D02*
X123787D01*
Y301216D01*
X120824D01*
Y303784D01*
D02*
G37*
G36*
X129643Y304954D02*
X134968D01*
Y299629D01*
X129643D01*
Y304954D01*
D02*
G37*
G36*
X369290Y302500D02*
X371168D01*
Y299441D01*
X369290D01*
Y302500D01*
D02*
G37*
G36*
X372168D02*
X374046D01*
Y299441D01*
X372168D01*
Y302500D01*
D02*
G37*
G36*
X321954Y299981D02*
X328657D01*
Y297019D01*
X321954D01*
Y299981D01*
D02*
G37*
G36*
X344695Y300103D02*
X348435D01*
X349569Y299634D01*
X350039Y298500D01*
X349569Y297366D01*
X348435Y296897D01*
X344695D01*
X343562Y297366D01*
X343092Y298500D01*
X343562Y299634D01*
X344695Y300103D01*
D02*
G37*
G36*
X16553Y318753D02*
X23058D01*
Y313242D01*
X41303Y294998D01*
X41509Y294500D01*
Y269021D01*
X42327Y268203D01*
X109014D01*
X114808Y273997D01*
X115305Y274203D01*
X175376D01*
X175474Y274346D01*
X175210Y274847D01*
X147756D01*
X147258Y275052D01*
X133808Y288503D01*
X133602Y289000D01*
Y297297D01*
X100689D01*
X100343Y296462D01*
X98305Y295619D01*
X96268Y296462D01*
X95424Y298500D01*
X96268Y300538D01*
X98305Y301381D01*
X100343Y300538D01*
X101103Y298704D01*
X134306D01*
X134803Y298498D01*
X135009Y298000D01*
Y289291D01*
X148047Y276254D01*
X149062D01*
X149316Y276754D01*
X149007Y277500D01*
X149387Y278418D01*
X150305Y278799D01*
X151224Y278418D01*
X151313Y278204D01*
X187778D01*
X188276Y277997D01*
X194170Y272103D01*
X194670D01*
X194808Y272242D01*
X194890Y272324D01*
X195846Y273280D01*
X195928Y273362D01*
X196200Y273634D01*
X196282Y273716D01*
X197097Y274531D01*
X196602Y275026D01*
X197303Y275727D01*
X200168Y272863D01*
X203033Y269998D01*
X202331Y269296D01*
X201836Y269791D01*
X201021Y268976D01*
X200939Y268894D01*
X200668Y268623D01*
X200586Y268541D01*
X199629Y267584D01*
X199547Y267502D01*
X199276Y267231D01*
X199194Y267149D01*
X198155Y266110D01*
X197884Y265839D01*
X196845Y264801D01*
X196763Y264719D01*
X196492Y264447D01*
X196410Y264365D01*
X195453Y263408D01*
X195371Y263327D01*
X195100Y263055D01*
X195018Y262973D01*
X193980Y261935D01*
X189240Y266674D01*
X190279Y267712D01*
X190360Y267794D01*
X190632Y268066D01*
X190714Y268148D01*
X191679Y269113D01*
X191856Y269643D01*
X186653Y274847D01*
X177949D01*
X177754Y274346D01*
X178104Y273500D01*
X177724Y272582D01*
X176805Y272201D01*
X175887Y272582D01*
X175798Y272797D01*
X115597D01*
X109803Y267003D01*
X109306Y266796D01*
X42197D01*
X41805Y266634D01*
X41193Y266888D01*
X40193Y267888D01*
X39940Y268500D01*
X40102Y268892D01*
Y294209D01*
X22063Y312247D01*
X16553D01*
Y318753D01*
D02*
G37*
G36*
X276805Y300381D02*
X278843Y299538D01*
X279687Y297500D01*
X278843Y295462D01*
X276805Y294619D01*
X274768Y295462D01*
X273924Y297500D01*
X274768Y299538D01*
X276805Y300381D01*
D02*
G37*
G36*
X122324Y291284D02*
X125287D01*
Y288716D01*
X122324D01*
Y291284D01*
D02*
G37*
G36*
X276306Y290932D02*
Y288000D01*
X273373D01*
X274232Y290073D01*
X276306Y290932D01*
D02*
G37*
G36*
X277306D02*
X279379Y290073D01*
X280238Y288000D01*
X277306D01*
Y290932D01*
D02*
G37*
G36*
X412305Y293382D02*
X414343Y292538D01*
X415187Y290500D01*
X414343Y288462D01*
X412567Y287726D01*
X412511Y287703D01*
X412560Y287455D01*
X412560D01*
X412560Y287455D01*
X412956Y287204D01*
X418014D01*
X419977Y289166D01*
X419424Y290500D01*
X420268Y292538D01*
X422305Y293382D01*
X424343Y292538D01*
X425187Y290500D01*
X424343Y288462D01*
X422305Y287618D01*
X420971Y288171D01*
X418803Y286002D01*
X418305Y285796D01*
X397097D01*
X376303Y265002D01*
X375805Y264796D01*
X362305D01*
X361808Y265002D01*
X354514Y272297D01*
X349747D01*
X349569Y271866D01*
X348435Y271397D01*
X344695D01*
X343562Y271866D01*
X343092Y273000D01*
X343562Y274134D01*
X344695Y274603D01*
X348435D01*
X349569Y274134D01*
X349747Y273704D01*
X354805D01*
X355303Y273498D01*
X362597Y266203D01*
X375514D01*
X396308Y286998D01*
X396806Y287204D01*
X411655D01*
X412051Y287455D01*
Y287455D01*
X412051D01*
X412100Y287703D01*
X412044Y287726D01*
X410268Y288462D01*
X409715Y289796D01*
X355097D01*
X349547Y284246D01*
X349569Y284134D01*
X350039Y283000D01*
X349569Y281866D01*
X348435Y281397D01*
X344695D01*
X343562Y281866D01*
X343092Y283000D01*
X343562Y284134D01*
X344695Y284603D01*
X347914D01*
X354308Y290998D01*
X354805Y291203D01*
X409715D01*
X410268Y292538D01*
X412305Y293382D01*
D02*
G37*
G36*
X98305Y291382D02*
X100343Y290538D01*
X101187Y288500D01*
X100343Y286462D01*
X98305Y285618D01*
X96268Y286462D01*
X95424Y288500D01*
X96268Y290538D01*
X98305Y291382D01*
D02*
G37*
G36*
X273373Y287000D02*
X276306D01*
Y284068D01*
X274232Y284927D01*
X273373Y287000D01*
D02*
G37*
G36*
X277306D02*
X280238D01*
X279379Y284927D01*
X277306Y284068D01*
Y287000D01*
D02*
G37*
G36*
X369290Y286559D02*
X371168D01*
Y283500D01*
X369290D01*
Y286559D01*
D02*
G37*
G36*
X372168D02*
X374046D01*
Y283500D01*
X372168D01*
Y286559D01*
D02*
G37*
G36*
X171754Y289237D02*
X180227D01*
Y280763D01*
X171754D01*
Y289237D01*
D02*
G37*
G36*
X156306Y289586D02*
X159548Y288243D01*
X160892Y285000D01*
X159548Y281757D01*
X156306Y280414D01*
X153063Y281757D01*
X151719Y285000D01*
X153063Y288243D01*
X156306Y289586D01*
D02*
G37*
G36*
X166148D02*
X169391Y288243D01*
X170734Y285000D01*
X169391Y281757D01*
X166148Y280414D01*
X162905Y281757D01*
X161562Y285000D01*
X162905Y288243D01*
X166148Y289586D01*
D02*
G37*
G36*
X132306Y285881D02*
X134343Y285038D01*
X135187Y283000D01*
X134343Y280962D01*
X132306Y280118D01*
X130268Y280962D01*
X129424Y283000D01*
X130268Y285038D01*
X132306Y285881D01*
D02*
G37*
G36*
X369290Y282500D02*
X371168D01*
Y279441D01*
X369290D01*
Y282500D01*
D02*
G37*
G36*
X372168D02*
X374046D01*
Y279441D01*
X372168D01*
Y282500D01*
D02*
G37*
G36*
X97806Y281932D02*
Y279000D01*
X94873D01*
X95732Y281073D01*
X97806Y281932D01*
D02*
G37*
G36*
X98805D02*
X100879Y281073D01*
X101738Y279000D01*
X98805D01*
Y281932D01*
D02*
G37*
G36*
X323435Y280361D02*
X324805D01*
Y278500D01*
X321282D01*
X321766Y279669D01*
X323435Y280361D01*
D02*
G37*
G36*
X325805D02*
X327176D01*
X328845Y279669D01*
X329329Y278500D01*
X325805D01*
Y280361D01*
D02*
G37*
G36*
X365265Y285859D02*
X368621D01*
Y280141D01*
X367809D01*
Y275359D01*
X368621D01*
Y269641D01*
X365265D01*
Y275359D01*
X366077D01*
Y276884D01*
X360081D01*
X359449Y275357D01*
X357306Y274469D01*
X355163Y275357D01*
X354530Y276884D01*
X349576D01*
X349569Y276866D01*
X348435Y276397D01*
X344695D01*
X343562Y276866D01*
X343092Y278000D01*
X343562Y279134D01*
X344695Y279603D01*
X348435D01*
X349569Y279134D01*
X349783Y278616D01*
X354737D01*
X355163Y279643D01*
X357306Y280531D01*
X359449Y279643D01*
X359874Y278616D01*
X366077D01*
Y280141D01*
X365265D01*
Y285859D01*
D02*
G37*
G36*
X321282Y277500D02*
X324805D01*
Y275639D01*
X323435D01*
X321766Y276331D01*
X321282Y277500D01*
D02*
G37*
G36*
X325805D02*
X329329D01*
X328845Y276331D01*
X327176Y275639D01*
X325805D01*
Y277500D01*
D02*
G37*
G36*
X94873Y278000D02*
X97806D01*
Y275068D01*
X95732Y275927D01*
X94873Y278000D01*
D02*
G37*
G36*
X98805D02*
X101738D01*
X100879Y275927D01*
X98805Y275068D01*
Y278000D01*
D02*
G37*
G36*
X369290Y276059D02*
X371168D01*
Y273000D01*
X369290D01*
Y276059D01*
D02*
G37*
G36*
X372168D02*
X374046D01*
Y273000D01*
X372168D01*
Y276059D01*
D02*
G37*
G36*
X369290Y272000D02*
X371168D01*
Y268941D01*
X369290D01*
Y272000D01*
D02*
G37*
G36*
X372168D02*
X374046D01*
Y268941D01*
X372168D01*
Y272000D01*
D02*
G37*
G36*
X252306Y284299D02*
X253224Y283918D01*
X253604Y283000D01*
X253224Y282082D01*
X253009Y281993D01*
Y276569D01*
X252803Y276072D01*
X245299Y268568D01*
X245325Y268507D01*
X245916Y268391D01*
X252415Y274889D01*
X252912Y275096D01*
X256026D01*
X256115Y275310D01*
X257033Y275691D01*
X257951Y275310D01*
X258332Y274392D01*
X257951Y273474D01*
X257033Y273093D01*
X256115Y273474D01*
X256026Y273688D01*
X253204D01*
X246340Y266825D01*
X246490Y266674D01*
X241751Y261935D01*
X240712Y262973D01*
X240631Y263055D01*
X240359Y263327D01*
X240277Y263408D01*
X239321Y264365D01*
X239239Y264447D01*
X238967Y264719D01*
X238885Y264801D01*
X237929Y265757D01*
X237847Y265839D01*
X237575Y266110D01*
X237493Y266192D01*
X236678Y267007D01*
X236183Y266512D01*
X235482Y267214D01*
X238346Y270079D01*
X241211Y272943D01*
X241912Y272242D01*
X241417Y271747D01*
X242232Y270932D01*
X242314Y270850D01*
X242586Y270578D01*
X242668Y270496D01*
X243599Y269565D01*
X243706Y269458D01*
X244204Y269463D01*
X251602Y276861D01*
Y281993D01*
X251387Y282082D01*
X251007Y283000D01*
X251387Y283918D01*
X252306Y284299D01*
D02*
G37*
G36*
X321954Y269481D02*
X328657D01*
Y266519D01*
X321954D01*
Y269481D01*
D02*
G37*
G36*
X344695Y269603D02*
X348435D01*
X349569Y269134D01*
X350039Y268000D01*
X349569Y266866D01*
X348435Y266397D01*
X344695D01*
X343562Y266866D01*
X343092Y268000D01*
X343562Y269134D01*
X344695Y269603D01*
D02*
G37*
G36*
X156306Y267933D02*
X159548Y266589D01*
X160892Y263347D01*
X159548Y260104D01*
X156306Y258760D01*
X153063Y260104D01*
X151719Y263347D01*
X153063Y266589D01*
X156306Y267933D01*
D02*
G37*
G36*
X166148D02*
X169391Y266589D01*
X170734Y263347D01*
X169391Y260104D01*
X166148Y258760D01*
X162905Y260104D01*
X161562Y263347D01*
X162905Y266589D01*
X166148Y267933D01*
D02*
G37*
G36*
X175990D02*
X179233Y266589D01*
X180577Y263347D01*
X179233Y260104D01*
X175990Y258760D01*
X172748Y260104D01*
X171404Y263347D01*
X172748Y266589D01*
X175990Y267933D01*
D02*
G37*
G36*
X133214Y260981D02*
X139917D01*
Y258019D01*
X133214D01*
Y260981D01*
D02*
G37*
G36*
X113435Y261103D02*
X117176D01*
X118309Y260634D01*
X118779Y259500D01*
X118309Y258366D01*
X117176Y257897D01*
X113435D01*
X112302Y258366D01*
X111832Y259500D01*
X112302Y260634D01*
X113435Y261103D01*
D02*
G37*
G36*
X89428Y258059D02*
X91306D01*
Y255000D01*
X89428D01*
Y258059D01*
D02*
G37*
G36*
X92305D02*
X94183D01*
Y255000D01*
X92305D01*
Y258059D01*
D02*
G37*
G36*
X193980Y258162D02*
X195018Y257124D01*
X195100Y257042D01*
X195371Y256770D01*
X195453Y256688D01*
X196410Y255732D01*
X196492Y255650D01*
X196763Y255378D01*
X196845Y255296D01*
X197802Y254340D01*
X197884Y254258D01*
X198155Y253986D01*
X198237Y253904D01*
X199194Y252948D01*
X199276Y252866D01*
X199547Y252594D01*
X199629Y252512D01*
X200586Y251556D01*
X200668Y251474D01*
X200939Y251202D01*
X201021Y251120D01*
X201978Y250164D01*
X202059Y250082D01*
X202331Y249810D01*
X202413Y249728D01*
X203369Y248772D01*
X203451Y248690D01*
X203723Y248418D01*
X203805Y248337D01*
X204762Y247380D01*
X204843Y247298D01*
X205224Y247010D01*
X209711Y251498D01*
X210209Y251704D01*
X210798D01*
X210887Y251918D01*
X211806Y252299D01*
X212724Y251918D01*
X213104Y251000D01*
X212724Y250082D01*
X211806Y249701D01*
X210887Y250082D01*
X210336Y250132D01*
X206668Y246464D01*
X207208Y245923D01*
X204344Y243058D01*
X201479Y240194D01*
X200778Y240895D01*
X201023Y241140D01*
X201023Y241640D01*
X200400Y242262D01*
X199987Y242556D01*
X199509Y242078D01*
Y238508D01*
X199724Y238418D01*
X200104Y237500D01*
X199724Y236582D01*
X198805Y236201D01*
X197887Y236582D01*
X197671Y237102D01*
X197171Y237003D01*
Y233940D01*
X197224Y233918D01*
X197604Y233000D01*
X197224Y232082D01*
X196306Y231701D01*
X195387Y232082D01*
X195007Y233000D01*
X195387Y233918D01*
X195440Y233940D01*
Y242665D01*
X195537Y242900D01*
X195113Y243184D01*
X187238Y235308D01*
Y196404D01*
X187303Y196339D01*
X187509Y195841D01*
Y195791D01*
X215303Y167998D01*
X215509Y167500D01*
Y157414D01*
Y156182D01*
X215939Y156004D01*
X216409Y154870D01*
Y151130D01*
X215939Y149996D01*
X214806Y149527D01*
X213672Y149996D01*
X213202Y151130D01*
Y154870D01*
X213672Y156004D01*
X214102Y156182D01*
Y157123D01*
X213928Y157297D01*
X210954D01*
X210854Y156797D01*
X211475Y156539D01*
X212166Y154870D01*
Y153500D01*
X209805D01*
X207445D01*
Y154870D01*
X208136Y156539D01*
X208757Y156797D01*
X208657Y157297D01*
X205683D01*
X205509Y157123D01*
Y156182D01*
X205939Y156004D01*
X206409Y154870D01*
Y151130D01*
X205939Y149996D01*
X204805Y149527D01*
X203672Y149996D01*
X203202Y151130D01*
Y154870D01*
X203672Y156004D01*
X204102Y156182D01*
Y157414D01*
X204308Y157912D01*
X204894Y158498D01*
X205391Y158703D01*
X214102D01*
Y167209D01*
X186308Y195002D01*
X186102Y195500D01*
Y195550D01*
X186037Y195615D01*
X185831Y196112D01*
Y235599D01*
X186037Y236097D01*
X195954Y246014D01*
X195939Y246131D01*
X195414Y246312D01*
X185238Y236137D01*
Y195575D01*
X185303Y195510D01*
X185509Y195013D01*
Y159414D01*
Y156182D01*
X185939Y156004D01*
X186409Y154870D01*
Y151130D01*
X185939Y149996D01*
X184806Y149527D01*
X183672Y149996D01*
X183202Y151130D01*
Y154870D01*
X183672Y156004D01*
X184102Y156182D01*
Y159123D01*
X183928Y159297D01*
X175683D01*
X175509Y159123D01*
Y156182D01*
X175939Y156004D01*
X176409Y154870D01*
Y151130D01*
X175939Y149996D01*
X174805Y149527D01*
X173672Y149996D01*
X173202Y151130D01*
Y154870D01*
X173672Y156004D01*
X174102Y156182D01*
Y159414D01*
X174308Y159912D01*
X174894Y160497D01*
X175391Y160704D01*
X184102D01*
Y194721D01*
X184037Y194786D01*
X183831Y195284D01*
Y236428D01*
X184037Y236925D01*
X194573Y247461D01*
X194561Y247581D01*
X194039Y247766D01*
X161509Y215236D01*
Y194500D01*
X161303Y194002D01*
X143508Y176207D01*
X143803Y175912D01*
X144009Y175414D01*
Y166500D01*
X143803Y166003D01*
X143217Y165417D01*
X142720Y165211D01*
X141891D01*
X141684Y165296D01*
X139747D01*
X139569Y164866D01*
X138435Y164397D01*
X134695D01*
X133562Y164866D01*
X133092Y166000D01*
X133562Y167134D01*
X134695Y167603D01*
X138435D01*
X139569Y167134D01*
X139747Y166703D01*
X141806D01*
X142013Y166618D01*
X142428D01*
X142602Y166791D01*
Y175123D01*
X142428Y175296D01*
X139747D01*
X139569Y174866D01*
X138435Y174397D01*
X134695D01*
X133562Y174866D01*
X133092Y176000D01*
X133562Y177134D01*
X134695Y177603D01*
X138435D01*
X139569Y177134D01*
X139747Y176704D01*
X142014D01*
X160102Y194791D01*
Y215528D01*
X160308Y216025D01*
X193098Y248815D01*
X192922Y249347D01*
X192683Y249382D01*
X158933Y215633D01*
X158436Y215427D01*
X152727D01*
X140966Y203665D01*
X141157Y203204D01*
X142220D01*
X142717Y202997D01*
X143303Y202412D01*
X143509Y201914D01*
Y193086D01*
X143303Y192588D01*
X142717Y192002D01*
X142220Y191797D01*
X139954D01*
X139569Y190866D01*
X138435Y190397D01*
X134695D01*
X133562Y190866D01*
X133092Y192000D01*
X133562Y193134D01*
X134695Y193603D01*
X138435D01*
X139400Y193203D01*
X141928D01*
X142102Y193377D01*
Y201623D01*
X141928Y201797D01*
X139954D01*
X139569Y200866D01*
X138435Y200397D01*
X134695D01*
X133562Y200866D01*
X133092Y202000D01*
X133562Y203134D01*
X134695Y203603D01*
X138435D01*
X138774Y203463D01*
X151938Y216628D01*
X152436Y216834D01*
X158144D01*
X191414Y250104D01*
X191278Y250674D01*
X191178Y250706D01*
X169475Y229002D01*
X168977Y228797D01*
X145707D01*
X145509Y228500D01*
Y220086D01*
X145303Y219588D01*
X144717Y219003D01*
X144220Y218796D01*
X139400D01*
X138435Y218397D01*
X134695D01*
X133562Y218866D01*
X133092Y220000D01*
X133562Y221134D01*
X134695Y221603D01*
X138435D01*
X139569Y221134D01*
X139954Y220203D01*
X143928D01*
X144102Y220377D01*
Y228209D01*
X143514Y228797D01*
X139400D01*
X138435Y228397D01*
X134695D01*
X133562Y228866D01*
X133092Y230000D01*
X133562Y231134D01*
X134695Y231603D01*
X138435D01*
X139569Y231134D01*
X139954Y230204D01*
X168686D01*
X189994Y251512D01*
X189859Y252084D01*
X189760Y252117D01*
X174646Y237002D01*
X174149Y236796D01*
X152720D01*
X152222Y237002D01*
X145428Y243796D01*
X139747D01*
X139569Y243366D01*
X138435Y242897D01*
X134695D01*
X133562Y243366D01*
X133092Y244500D01*
X133562Y245634D01*
X134695Y246103D01*
X138435D01*
X139569Y245634D01*
X139747Y245203D01*
X145428D01*
X145602Y245377D01*
Y253623D01*
X145428Y253797D01*
X139747D01*
X139569Y253366D01*
X138435Y252897D01*
X134695D01*
X133562Y253366D01*
X133092Y254500D01*
X133562Y255634D01*
X134695Y256103D01*
X138435D01*
X139569Y255634D01*
X139747Y255204D01*
X145720D01*
X146217Y254997D01*
X146803Y254412D01*
X147009Y253914D01*
Y245086D01*
X146803Y244588D01*
X146715Y244500D01*
X153011Y238204D01*
X173857D01*
X190230Y254576D01*
X190509Y254692D01*
X193980Y258162D01*
D02*
G37*
G36*
X89428Y254000D02*
X91306D01*
Y250941D01*
X89428D01*
Y254000D01*
D02*
G37*
G36*
X92305D02*
X94183D01*
Y250941D01*
X92305D01*
Y254000D01*
D02*
G37*
G36*
X94852Y257359D02*
X98208D01*
Y251641D01*
X97465D01*
Y250366D01*
X102341D01*
X102663Y251143D01*
X104806Y252031D01*
X106948Y251143D01*
X107270Y250366D01*
X112191D01*
X112302Y250634D01*
X113435Y251103D01*
X117176D01*
X118309Y250634D01*
X118779Y249500D01*
X118309Y248366D01*
X117176Y247897D01*
X113435D01*
X112302Y248366D01*
X112191Y248634D01*
X107685D01*
X106948Y246857D01*
X104806Y245969D01*
X102663Y246857D01*
X101926Y248634D01*
X97465D01*
Y245859D01*
X98346D01*
Y240141D01*
X94990D01*
Y245859D01*
X95733D01*
Y249334D01*
X95664Y249500D01*
X95733Y249666D01*
Y251641D01*
X94852D01*
Y257359D01*
D02*
G37*
G36*
X368790Y253059D02*
X370668D01*
Y250000D01*
X368790D01*
Y253059D01*
D02*
G37*
G36*
X134695Y251861D02*
X136065D01*
Y250000D01*
X132542D01*
X133026Y251169D01*
X134695Y251861D01*
D02*
G37*
G36*
X137065D02*
X138435D01*
X140105Y251169D01*
X140589Y250000D01*
X137065D01*
Y251861D01*
D02*
G37*
G36*
X371668Y253059D02*
X373546D01*
Y250000D01*
X371668D01*
Y253059D01*
D02*
G37*
G36*
X412305Y283382D02*
X414343Y282538D01*
X415187Y280500D01*
X414343Y278462D01*
X412305Y277619D01*
X410971Y278171D01*
X405509Y272709D01*
Y257500D01*
X405303Y257002D01*
X404303Y256002D01*
X403805Y255797D01*
X355097D01*
X349676Y250376D01*
X350039Y249500D01*
X349569Y248366D01*
X348435Y247897D01*
X344695D01*
X343562Y248366D01*
X343092Y249500D01*
X343562Y250634D01*
X344695Y251103D01*
X348414D01*
X354308Y256997D01*
X354805Y257204D01*
X403514D01*
X404102Y257791D01*
Y273000D01*
X404308Y273498D01*
X409976Y279166D01*
X409424Y280500D01*
X410268Y282538D01*
X412305Y283382D01*
D02*
G37*
G36*
X132542Y249000D02*
X136065D01*
Y247139D01*
X134695D01*
X133026Y247831D01*
X132542Y249000D01*
D02*
G37*
G36*
X137065D02*
X140589D01*
X140105Y247831D01*
X138435Y247139D01*
X137065D01*
Y249000D01*
D02*
G37*
G36*
X368790D02*
X370668D01*
Y245941D01*
X368790D01*
Y249000D01*
D02*
G37*
G36*
X371668D02*
X373546D01*
Y245941D01*
X371668D01*
Y249000D01*
D02*
G37*
G36*
X323435Y246861D02*
X324805D01*
Y245000D01*
X321282D01*
X321766Y246169D01*
X323435Y246861D01*
D02*
G37*
G36*
X325805D02*
X327176D01*
X328845Y246169D01*
X329329Y245000D01*
X325805D01*
Y246861D01*
D02*
G37*
G36*
X89565Y246559D02*
X91443D01*
Y243500D01*
X89565D01*
Y246559D01*
D02*
G37*
G36*
X92443D02*
X94321D01*
Y243500D01*
X92443D01*
Y246559D01*
D02*
G37*
G36*
X364765Y252359D02*
X368121D01*
Y246641D01*
X367309D01*
Y241859D01*
X368121D01*
Y236141D01*
X364765D01*
Y241859D01*
X365577D01*
Y243384D01*
X359874D01*
X359449Y242357D01*
X357306Y241469D01*
X355163Y242357D01*
X354737Y243384D01*
X349576D01*
X349569Y243366D01*
X348435Y242897D01*
X344695D01*
X343562Y243366D01*
X343092Y244500D01*
X343562Y245634D01*
X344695Y246103D01*
X348435D01*
X349569Y245634D01*
X349783Y245116D01*
X354530D01*
X355163Y246643D01*
X357306Y247531D01*
X359449Y246643D01*
X360081Y245116D01*
X365577D01*
Y246641D01*
X364765D01*
Y252359D01*
D02*
G37*
G36*
X321282Y244000D02*
X324805D01*
Y242139D01*
X323435D01*
X321766Y242831D01*
X321282Y244000D01*
D02*
G37*
G36*
X325805D02*
X329329D01*
X328845Y242831D01*
X327176Y242139D01*
X325805D01*
Y244000D01*
D02*
G37*
G36*
X368790Y242559D02*
X370668D01*
Y239500D01*
X368790D01*
Y242559D01*
D02*
G37*
G36*
X371668D02*
X373546D01*
Y239500D01*
X371668D01*
Y242559D01*
D02*
G37*
G36*
X89565Y242500D02*
X91443D01*
Y239441D01*
X89565D01*
Y242500D01*
D02*
G37*
G36*
X92443D02*
X94321D01*
Y239441D01*
X92443D01*
Y242500D01*
D02*
G37*
G36*
X422305Y283382D02*
X424343Y282538D01*
X425187Y280500D01*
X424343Y278462D01*
X423009Y277910D01*
Y248500D01*
X422803Y248003D01*
X408303Y233503D01*
X407805Y233296D01*
X361806D01*
X361308Y233503D01*
X356514Y238297D01*
X349400D01*
X348435Y237897D01*
X344695D01*
X343562Y238366D01*
X343092Y239500D01*
X343562Y240634D01*
X344695Y241103D01*
X348435D01*
X349569Y240634D01*
X349954Y239703D01*
X356805D01*
X357303Y239497D01*
X362097Y234703D01*
X407514D01*
X421602Y248791D01*
Y277910D01*
X420268Y278462D01*
X419424Y280500D01*
X420268Y282538D01*
X422305Y283382D01*
D02*
G37*
G36*
X368790Y238500D02*
X370668D01*
Y235441D01*
X368790D01*
Y238500D01*
D02*
G37*
G36*
X371668D02*
X373546D01*
Y235441D01*
X371668D01*
Y238500D01*
D02*
G37*
G36*
X219463Y236864D02*
X221974Y234353D01*
X221273Y233652D01*
X218762Y236163D01*
X219463Y236864D01*
D02*
G37*
G36*
X133214Y236481D02*
X139917D01*
Y233519D01*
X133214D01*
Y236481D01*
D02*
G37*
G36*
X113435Y236603D02*
X117176D01*
X118309Y236134D01*
X118779Y235000D01*
X118309Y233866D01*
X117176Y233397D01*
X113435D01*
X112302Y233866D01*
X111832Y235000D01*
X112302Y236134D01*
X113435Y236603D01*
D02*
G37*
G36*
X321954Y235981D02*
X328657D01*
Y233019D01*
X321954D01*
Y235981D01*
D02*
G37*
G36*
X344695Y236103D02*
X348435D01*
X349569Y235634D01*
X350039Y234500D01*
X349569Y233366D01*
X348435Y232897D01*
X344695D01*
X343562Y233366D01*
X343092Y234500D01*
X343562Y235634D01*
X344695Y236103D01*
D02*
G37*
G36*
X226423Y243824D02*
X229287Y240959D01*
X232152Y238095D01*
X231451Y237393D01*
X230956Y237888D01*
X230140Y237073D01*
X230059Y236991D01*
X229787Y236719D01*
X229705Y236638D01*
X228748Y235681D01*
X228667Y235599D01*
X228395Y235328D01*
X228313Y235246D01*
X227357Y234289D01*
X227275Y234207D01*
X227003Y233936D01*
X226921Y233854D01*
X226106Y233039D01*
X226601Y232544D01*
X225900Y231842D01*
X223035Y234707D01*
X220170Y237571D01*
X220872Y238273D01*
X221367Y237778D01*
X222182Y238593D01*
X222264Y238675D01*
X222535Y238947D01*
X222617Y239028D01*
X223574Y239985D01*
X223656Y240067D01*
X223927Y240338D01*
X224009Y240420D01*
X224966Y241377D01*
X225048Y241459D01*
X225319Y241730D01*
X225401Y241812D01*
X226216Y242627D01*
X225721Y243122D01*
X226423Y243824D01*
D02*
G37*
G36*
X90065Y234059D02*
X91943D01*
Y231000D01*
X90065D01*
Y234059D01*
D02*
G37*
G36*
X92943D02*
X94821D01*
Y231000D01*
X92943D01*
Y234059D01*
D02*
G37*
G36*
X222681Y233646D02*
X225192Y231135D01*
X224491Y230433D01*
X221980Y232944D01*
X222681Y233646D01*
D02*
G37*
G36*
X219555Y230549D02*
X220474Y230168D01*
X220854Y229250D01*
X220765Y229035D01*
X265803Y183997D01*
X266009Y183500D01*
Y158852D01*
X266471Y158660D01*
X266808Y158997D01*
X267305Y159204D01*
X274720D01*
X275217Y158997D01*
X275803Y158412D01*
X276009Y157914D01*
Y156182D01*
X276439Y156004D01*
X276909Y154870D01*
Y151130D01*
X276439Y149996D01*
X275306Y149527D01*
X274172Y149996D01*
X273702Y151130D01*
Y154870D01*
X274172Y156004D01*
X274602Y156182D01*
Y157623D01*
X274428Y157797D01*
X267597D01*
X266373Y156572D01*
X266439Y156004D01*
X266909Y154870D01*
Y151130D01*
X266439Y149996D01*
X265305Y149527D01*
X264172Y149996D01*
X263702Y151130D01*
Y154870D01*
X264172Y156004D01*
X264602Y156182D01*
Y156500D01*
Y183209D01*
X219770Y228040D01*
X219555Y227951D01*
X218637Y228332D01*
X218257Y229250D01*
X218637Y230168D01*
X219555Y230549D01*
D02*
G37*
G36*
X215305Y230299D02*
X216224Y229918D01*
X216604Y229000D01*
X216515Y228785D01*
X236303Y208998D01*
X236509Y208500D01*
Y160317D01*
X236783Y160204D01*
X245220D01*
X245717Y159997D01*
X246303Y159412D01*
X246509Y158914D01*
Y156182D01*
X246939Y156004D01*
X247409Y154870D01*
Y151130D01*
X246939Y149996D01*
X245806Y149527D01*
X244672Y149996D01*
X244202Y151130D01*
Y154870D01*
X244672Y156004D01*
X245102Y156182D01*
Y158623D01*
X244928Y158797D01*
X236912D01*
X236509Y158393D01*
Y156182D01*
X236939Y156004D01*
X237409Y154870D01*
Y151130D01*
X236939Y149996D01*
X235806Y149527D01*
X234672Y149996D01*
X234202Y151130D01*
Y154870D01*
X234672Y156004D01*
X235102Y156182D01*
Y158522D01*
X234940Y158914D01*
X235102Y159306D01*
Y208209D01*
X215520Y227790D01*
X215305Y227701D01*
X214387Y228082D01*
X214007Y229000D01*
X214387Y229918D01*
X215305Y230299D01*
D02*
G37*
G36*
X90065Y230000D02*
X91943D01*
Y226941D01*
X90065D01*
Y230000D01*
D02*
G37*
G36*
X92943D02*
X94821D01*
Y226941D01*
X92943D01*
Y230000D01*
D02*
G37*
G36*
X65306Y265704D02*
X97306D01*
X97803Y265497D01*
X108097Y255204D01*
X112124D01*
X112302Y255634D01*
X113435Y256103D01*
X117176D01*
X118309Y255634D01*
X118779Y254500D01*
X118309Y253366D01*
X117176Y252897D01*
X113435D01*
X112302Y253366D01*
X112124Y253797D01*
X107806D01*
X107308Y254002D01*
X97014Y264297D01*
X65597D01*
X53509Y252209D01*
Y231590D01*
X54843Y231038D01*
X55687Y229000D01*
X54843Y226962D01*
X52806Y226118D01*
X50768Y226962D01*
X49924Y229000D01*
X50768Y231038D01*
X52102Y231590D01*
Y252500D01*
X52308Y252997D01*
X64808Y265497D01*
X65306Y265704D01*
D02*
G37*
G36*
X113435Y246103D02*
X117176D01*
X118309Y245634D01*
X118779Y244500D01*
X118309Y243366D01*
X117176Y242897D01*
X113435D01*
X112302Y243366D01*
X112124Y243796D01*
X109097D01*
X102303Y237002D01*
X101805Y236796D01*
X71597D01*
X65135Y230334D01*
X65687Y229000D01*
X64843Y226962D01*
X62805Y226118D01*
X60768Y226962D01*
X59924Y229000D01*
X60768Y231038D01*
X62805Y231881D01*
X64139Y231329D01*
X70808Y237998D01*
X71306Y238204D01*
X101514D01*
X108308Y244998D01*
X108806Y245203D01*
X112124D01*
X112302Y245634D01*
X113435Y246103D01*
D02*
G37*
G36*
X134695Y227361D02*
X136065D01*
Y225500D01*
X132542D01*
X133026Y226669D01*
X134695Y227361D01*
D02*
G37*
G36*
X137065D02*
X138435D01*
X140105Y226669D01*
X140589Y225500D01*
X137065D01*
Y227361D01*
D02*
G37*
G36*
X95490Y233359D02*
X98846D01*
Y227641D01*
X97852D01*
Y225366D01*
X101634D01*
X102163Y226643D01*
X104306Y227531D01*
X106448Y226643D01*
X106977Y225366D01*
X111984D01*
X112302Y226134D01*
X113435Y226603D01*
X117176D01*
X118309Y226134D01*
X118779Y225000D01*
X118309Y223866D01*
X117176Y223397D01*
X113435D01*
X112863Y223634D01*
X106977D01*
X106448Y222357D01*
X104306Y221469D01*
X102163Y222357D01*
X101634Y223634D01*
X97852D01*
Y222359D01*
X98484D01*
Y216641D01*
X95127D01*
Y222359D01*
X96121D01*
Y225000D01*
Y227641D01*
X95490D01*
Y233359D01*
D02*
G37*
G36*
X132542Y224500D02*
X136065D01*
Y222639D01*
X134695D01*
X133026Y223331D01*
X132542Y224500D01*
D02*
G37*
G36*
X137065D02*
X140589D01*
X140105Y223331D01*
X138435Y222639D01*
X137065D01*
Y224500D01*
D02*
G37*
G36*
X207916Y245216D02*
X208617Y244514D01*
X208122Y244019D01*
X208937Y243204D01*
X209019Y243122D01*
X209291Y242851D01*
X209373Y242769D01*
X210329Y241812D01*
X210411Y241730D01*
X210683Y241459D01*
X210765Y241377D01*
X211721Y240420D01*
X211803Y240338D01*
X212075Y240067D01*
X212157Y239985D01*
X213113Y239028D01*
X213195Y238947D01*
X213467Y238675D01*
X213548Y238593D01*
X214505Y237636D01*
X214587Y237555D01*
X214859Y237283D01*
X214941Y237201D01*
X215979Y236163D01*
X211240Y231423D01*
X210201Y232462D01*
X210119Y232544D01*
X209848Y232815D01*
X209766Y232897D01*
X208809Y233854D01*
X208727Y233936D01*
X208456Y234207D01*
X208374Y234289D01*
X207417Y235246D01*
X207335Y235328D01*
X207064Y235599D01*
X206982Y235681D01*
X206025Y236638D01*
X205943Y236719D01*
X205672Y236991D01*
X205590Y237073D01*
X204633Y238030D01*
X204571Y238092D01*
X204171Y238399D01*
X202009Y236238D01*
Y232291D01*
X212341Y221960D01*
X212556Y222049D01*
X213474Y221668D01*
X213854Y220750D01*
X213474Y219832D01*
X212556Y219451D01*
X211637Y219832D01*
X211257Y220750D01*
X211346Y220965D01*
X200808Y231503D01*
X200602Y232000D01*
Y236529D01*
X200808Y237027D01*
X202727Y238946D01*
X202186Y239487D01*
X205051Y242351D01*
X207916Y245216D01*
D02*
G37*
G36*
X89703Y223059D02*
X91581D01*
Y220000D01*
X89703D01*
Y223059D01*
D02*
G37*
G36*
X92581D02*
X94459D01*
Y220000D01*
X92581D01*
Y223059D01*
D02*
G37*
G36*
X369428Y219559D02*
X371305D01*
Y216500D01*
X369428D01*
Y219559D01*
D02*
G37*
G36*
X372305D02*
X374184D01*
Y216500D01*
X372305D01*
Y219559D01*
D02*
G37*
G36*
X81305Y236204D02*
X100805D01*
X101303Y235998D01*
X107097Y230204D01*
X111917D01*
X112302Y231134D01*
X113435Y231603D01*
X117176D01*
X118309Y231134D01*
X118779Y230000D01*
X118309Y228866D01*
X117176Y228397D01*
X113435D01*
X112471Y228797D01*
X106806D01*
X106308Y229002D01*
X100514Y234797D01*
X81597D01*
X70803Y224003D01*
X70306Y223797D01*
X58597D01*
X55134Y220334D01*
X55687Y219000D01*
X54843Y216962D01*
X52806Y216119D01*
X50768Y216962D01*
X49924Y219000D01*
X50768Y221038D01*
X52806Y221882D01*
X54140Y221329D01*
X57808Y224997D01*
X58306Y225203D01*
X70014D01*
X80808Y235998D01*
X81305Y236204D01*
D02*
G37*
G36*
X89703Y219000D02*
X91581D01*
Y215941D01*
X89703D01*
Y219000D01*
D02*
G37*
G36*
X92581D02*
X94459D01*
Y215941D01*
X92581D01*
Y219000D01*
D02*
G37*
G36*
X364305Y226203D02*
X386806D01*
X387303Y225997D01*
X412803Y200498D01*
X413009Y200000D01*
Y194090D01*
X414343Y193538D01*
X415187Y191500D01*
X414343Y189462D01*
X412305Y188619D01*
X410268Y189462D01*
X409424Y191500D01*
X410268Y193538D01*
X411602Y194090D01*
Y199709D01*
X386514Y224797D01*
X364597D01*
X356303Y216502D01*
X355805Y216297D01*
X349954D01*
X349569Y215366D01*
X348435Y214897D01*
X344695D01*
X343562Y215366D01*
X343092Y216500D01*
X343562Y217634D01*
X344695Y218103D01*
X348435D01*
X349400Y217704D01*
X355514D01*
X363808Y225997D01*
X364305Y226203D01*
D02*
G37*
G36*
X62805Y221882D02*
X64843Y221038D01*
X65603Y219203D01*
X78806D01*
X79303Y218998D01*
X85597Y212703D01*
X100014D01*
X107308Y219998D01*
X107806Y220203D01*
X111917D01*
X112302Y221134D01*
X113435Y221603D01*
X117176D01*
X118309Y221134D01*
X118779Y220000D01*
X118309Y218866D01*
X117176Y218397D01*
X113435D01*
X112471Y218796D01*
X108097D01*
X100803Y211503D01*
X100305Y211297D01*
X85306D01*
X84808Y211503D01*
X78514Y217796D01*
X65188D01*
X64843Y216962D01*
X62805Y216119D01*
X60768Y216962D01*
X59924Y219000D01*
X60768Y221038D01*
X62805Y221882D01*
D02*
G37*
G36*
X369428Y215500D02*
X371305D01*
Y212441D01*
X369428D01*
Y215500D01*
D02*
G37*
G36*
X372305D02*
X374184D01*
Y212441D01*
X372305D01*
Y215500D01*
D02*
G37*
G36*
X323435Y213861D02*
X324805D01*
Y212000D01*
X321282D01*
X321766Y213169D01*
X323435Y213861D01*
D02*
G37*
G36*
X325805D02*
X327176D01*
X328845Y213169D01*
X329329Y212000D01*
X325805D01*
Y213861D01*
D02*
G37*
G36*
X365403Y218859D02*
X368759D01*
Y213141D01*
X367947D01*
Y208859D01*
X368759D01*
Y203141D01*
X365403D01*
Y208859D01*
X366215D01*
Y210641D01*
X365722Y211134D01*
X359978D01*
X359449Y209857D01*
X357306Y208969D01*
X355163Y209857D01*
X354633Y211134D01*
X349887D01*
X349569Y210366D01*
X348435Y209897D01*
X344695D01*
X343562Y210366D01*
X343092Y211500D01*
X343562Y212634D01*
X344695Y213103D01*
X348435D01*
X349008Y212866D01*
X354633D01*
X355163Y214143D01*
X357306Y215031D01*
X359449Y214143D01*
X359978Y212866D01*
X365017D01*
X365403Y213141D01*
Y218859D01*
D02*
G37*
G36*
X321282Y211000D02*
X324805D01*
Y209139D01*
X323435D01*
X321766Y209831D01*
X321282Y211000D01*
D02*
G37*
G36*
X325805D02*
X329329D01*
X328845Y209831D01*
X327176Y209139D01*
X325805D01*
Y211000D01*
D02*
G37*
G36*
X369428Y209559D02*
X371305D01*
Y206500D01*
X369428D01*
Y209559D01*
D02*
G37*
G36*
X372305D02*
X374184D01*
Y206500D01*
X372305D01*
Y209559D01*
D02*
G37*
G36*
X57306Y214204D02*
X74805D01*
X75303Y213998D01*
X80097Y209204D01*
X101805D01*
X102303Y208998D01*
X108097Y203204D01*
X112471D01*
X113435Y203603D01*
X117176D01*
X118309Y203134D01*
X118779Y202000D01*
X118309Y200866D01*
X117176Y200397D01*
X113435D01*
X112302Y200866D01*
X111917Y201797D01*
X107806D01*
X107308Y202003D01*
X101514Y207797D01*
X79805D01*
X79308Y208002D01*
X74514Y212796D01*
X57597D01*
X55134Y210334D01*
X55687Y209000D01*
X54843Y206962D01*
X52806Y206118D01*
X50768Y206962D01*
X49924Y209000D01*
X50768Y211038D01*
X52806Y211881D01*
X54140Y211329D01*
X56808Y213998D01*
X57306Y214204D01*
D02*
G37*
G36*
X62805Y211881D02*
X64843Y211038D01*
X65687Y209000D01*
X65574Y208727D01*
X86097Y188204D01*
X89164D01*
X89565Y188441D01*
X89565Y188704D01*
Y191500D01*
X94321D01*
Y188704D01*
X94321Y188441D01*
X94723Y188204D01*
X102514D01*
X107308Y192998D01*
X107806Y193203D01*
X112471D01*
X113435Y193603D01*
X117176D01*
X118309Y193134D01*
X118779Y192000D01*
X118309Y190866D01*
X117176Y190397D01*
X113435D01*
X112302Y190866D01*
X111917Y191797D01*
X108097D01*
X103303Y187003D01*
X102805Y186796D01*
X85805D01*
X85308Y187003D01*
X65264Y207046D01*
X64843Y206962D01*
X62805Y206118D01*
X60768Y206962D01*
X59924Y209000D01*
X60768Y211038D01*
X62805Y211881D01*
D02*
G37*
G36*
X133214Y208481D02*
X139917D01*
Y205519D01*
X133214D01*
Y208481D01*
D02*
G37*
G36*
X113435Y208603D02*
X117176D01*
X118309Y208134D01*
X118779Y207000D01*
X118309Y205866D01*
X117176Y205397D01*
X113435D01*
X112302Y205866D01*
X111832Y207000D01*
X112302Y208134D01*
X113435Y208603D01*
D02*
G37*
G36*
X344695Y208103D02*
X348435D01*
X349400Y207703D01*
X353805D01*
X354303Y207498D01*
X362097Y199704D01*
X390806D01*
X391303Y199497D01*
X403097Y187704D01*
X417514D01*
X419643Y189833D01*
Y194162D01*
X424968D01*
Y188838D01*
X420638D01*
X418303Y186503D01*
X417805Y186296D01*
X402806D01*
X402308Y186503D01*
X390514Y198296D01*
X361806D01*
X361308Y198503D01*
X353514Y206296D01*
X349954D01*
X349569Y205366D01*
X348435Y204897D01*
X344695D01*
X343562Y205366D01*
X343092Y206500D01*
X343562Y207634D01*
X344695Y208103D01*
D02*
G37*
G36*
X89703Y206559D02*
X91581D01*
Y203500D01*
X89703D01*
Y206559D01*
D02*
G37*
G36*
X92581D02*
X94459D01*
Y203500D01*
X92581D01*
Y206559D01*
D02*
G37*
G36*
X369428Y205500D02*
X371305D01*
Y202441D01*
X369428D01*
Y205500D01*
D02*
G37*
G36*
X372305D02*
X374184D01*
Y202441D01*
X372305D01*
Y205500D01*
D02*
G37*
G36*
X321954Y202981D02*
X328657D01*
Y200019D01*
X321954D01*
Y202981D01*
D02*
G37*
G36*
X344695Y203103D02*
X348435D01*
X349569Y202634D01*
X350039Y201500D01*
X349569Y200366D01*
X348435Y199897D01*
X344695D01*
X343562Y200366D01*
X343092Y201500D01*
X343562Y202634D01*
X344695Y203103D01*
D02*
G37*
G36*
X89703Y202500D02*
X91581D01*
Y199441D01*
X89703D01*
Y202500D01*
D02*
G37*
G36*
X92581D02*
X94459D01*
Y199441D01*
X92581D01*
Y202500D01*
D02*
G37*
G36*
X95127Y205859D02*
X98484D01*
Y200141D01*
X97602D01*
Y198366D01*
X102548D01*
X102663Y198643D01*
X104806Y199531D01*
X106948Y198643D01*
X107063Y198366D01*
X112863D01*
X113435Y198603D01*
X117176D01*
X118309Y198134D01*
X118779Y197000D01*
X118309Y195866D01*
X117176Y195397D01*
X113435D01*
X112302Y195866D01*
X111984Y196634D01*
X107926D01*
X107836Y196500D01*
X106948Y194357D01*
X104806Y193469D01*
X102663Y194357D01*
X101775Y196500D01*
X101685Y196634D01*
X97602D01*
Y194859D01*
X98346D01*
Y189141D01*
X94990D01*
Y194859D01*
X95871D01*
Y197500D01*
Y200141D01*
X95127D01*
Y205859D01*
D02*
G37*
G36*
X134695Y199361D02*
X136065D01*
Y197500D01*
X132542D01*
X133026Y198669D01*
X134695Y199361D01*
D02*
G37*
G36*
X137065D02*
X138435D01*
X140105Y198669D01*
X140589Y197500D01*
X137065D01*
Y199361D01*
D02*
G37*
G36*
X50143Y201662D02*
X55468D01*
Y196338D01*
X50143D01*
Y201662D01*
D02*
G37*
G36*
X62805Y201882D02*
X64843Y201038D01*
X65687Y199000D01*
X64988Y197312D01*
X71303Y190998D01*
X71509Y190500D01*
Y174791D01*
X85097Y161204D01*
X101514D01*
X106808Y166498D01*
X107306Y166703D01*
X112124D01*
X112302Y167134D01*
X113435Y167603D01*
X117176D01*
X118309Y167134D01*
X118779Y166000D01*
X118309Y164866D01*
X117176Y164397D01*
X113435D01*
X112302Y164866D01*
X112124Y165296D01*
X107597D01*
X102303Y160003D01*
X101805Y159797D01*
X84806D01*
X84308Y160003D01*
X70308Y174003D01*
X70102Y174500D01*
Y190209D01*
X63786Y196525D01*
X62805Y196118D01*
X60768Y196962D01*
X59924Y199000D01*
X60768Y201038D01*
X62805Y201882D01*
D02*
G37*
G36*
X132542Y196500D02*
X136065D01*
Y194639D01*
X134695D01*
X133026Y195331D01*
X132542Y196500D01*
D02*
G37*
G36*
X137065D02*
X140589D01*
X140105Y195331D01*
X138435Y194639D01*
X137065D01*
Y196500D01*
D02*
G37*
G36*
X89565Y195559D02*
X91443D01*
Y192500D01*
X89565D01*
Y195559D01*
D02*
G37*
G36*
X92443D02*
X94321D01*
Y192500D01*
X92443D01*
Y195559D01*
D02*
G37*
G36*
X370428Y187559D02*
X372305D01*
Y184500D01*
X370428D01*
Y187559D01*
D02*
G37*
G36*
X373306D02*
X375184D01*
Y184500D01*
X373306D01*
Y187559D01*
D02*
G37*
G36*
X354306Y192703D02*
X389305D01*
X389803Y192498D01*
X400097Y182203D01*
X409715D01*
X410268Y183538D01*
X412305Y184381D01*
X414343Y183538D01*
X415187Y181500D01*
X414343Y179462D01*
X412305Y178619D01*
X410268Y179462D01*
X409715Y180797D01*
X399805D01*
X399308Y181002D01*
X389014Y191297D01*
X354597D01*
X349438Y186138D01*
X349536Y185647D01*
X349569Y185634D01*
X350039Y184500D01*
X349569Y183366D01*
X348435Y182897D01*
X344695D01*
X343562Y183366D01*
X343092Y184500D01*
X343562Y185634D01*
X344695Y186103D01*
X347414D01*
X353808Y192498D01*
X354306Y192703D01*
D02*
G37*
G36*
X82806Y187031D02*
X84948Y186143D01*
X85545Y184704D01*
X100805D01*
X101303Y184497D01*
X109097Y176704D01*
X112124D01*
X112302Y177134D01*
X113435Y177603D01*
X117176D01*
X118309Y177134D01*
X118779Y176000D01*
X118309Y174866D01*
X117176Y174397D01*
X113435D01*
X112302Y174866D01*
X112124Y175296D01*
X108806D01*
X108308Y175503D01*
X100514Y183297D01*
X85545D01*
X84948Y181857D01*
X82806Y180969D01*
X80663Y181857D01*
X79775Y184000D01*
X80663Y186143D01*
X82806Y187031D01*
D02*
G37*
G36*
X370428Y183500D02*
X372305D01*
Y180441D01*
X370428D01*
Y183500D01*
D02*
G37*
G36*
X373306D02*
X375184D01*
Y180441D01*
X373306D01*
Y183500D01*
D02*
G37*
G36*
X323435Y181861D02*
X324805D01*
Y180000D01*
X321282D01*
X321766Y181169D01*
X323435Y181861D01*
D02*
G37*
G36*
X325805D02*
X327176D01*
X328845Y181169D01*
X329329Y180000D01*
X325805D01*
Y181861D01*
D02*
G37*
G36*
X133214Y182481D02*
X139917D01*
Y179519D01*
X133214D01*
Y182481D01*
D02*
G37*
G36*
X113435Y182603D02*
X117176D01*
X118309Y182134D01*
X118779Y181000D01*
X118309Y179866D01*
X117176Y179397D01*
X113435D01*
X112302Y179866D01*
X111832Y181000D01*
X112302Y182134D01*
X113435Y182603D01*
D02*
G37*
G36*
X89565Y181835D02*
X91443D01*
Y178776D01*
X89565D01*
Y181835D01*
D02*
G37*
G36*
X92443D02*
X94321D01*
Y178776D01*
X92443D01*
Y181835D01*
D02*
G37*
G36*
X366403Y186859D02*
X369759D01*
Y181141D01*
X368766D01*
Y176859D01*
X369397D01*
Y171141D01*
X366041D01*
Y176859D01*
X367034D01*
Y178641D01*
X366541Y179134D01*
X359978D01*
X359449Y177857D01*
X357306Y176969D01*
X355163Y177857D01*
X354633Y179134D01*
X349887D01*
X349569Y178366D01*
X348435Y177897D01*
X344695D01*
X343562Y178366D01*
X343092Y179500D01*
X343562Y180634D01*
X344695Y181103D01*
X348435D01*
X349008Y180866D01*
X354633D01*
X355163Y182143D01*
X357306Y183031D01*
X359449Y182143D01*
X359978Y180866D01*
X366017D01*
X366403Y181141D01*
Y186859D01*
D02*
G37*
G36*
X321282Y179000D02*
X324805D01*
Y177139D01*
X323435D01*
X321766Y177831D01*
X321282Y179000D01*
D02*
G37*
G36*
X325805D02*
X329329D01*
X328845Y177831D01*
X327176Y177139D01*
X325805D01*
Y179000D01*
D02*
G37*
G36*
X89565Y177776D02*
X91443D01*
Y174716D01*
X89565D01*
Y177776D01*
D02*
G37*
G36*
X92443D02*
X94321D01*
Y174716D01*
X92443D01*
Y177776D01*
D02*
G37*
G36*
X370065Y177559D02*
X371943D01*
Y174500D01*
X370065D01*
Y177559D01*
D02*
G37*
G36*
X372943D02*
X374821D01*
Y174500D01*
X372943D01*
Y177559D01*
D02*
G37*
G36*
X422305Y184381D02*
X424343Y183538D01*
X425187Y181500D01*
X424343Y179462D01*
X422305Y178619D01*
X420971Y179171D01*
X418303Y176503D01*
X417805Y176296D01*
X403597D01*
X393803Y166502D01*
X393305Y166297D01*
X366240D01*
X365742Y166502D01*
X357948Y174296D01*
X349954D01*
X349569Y173366D01*
X348435Y172897D01*
X344695D01*
X343562Y173366D01*
X343092Y174500D01*
X343562Y175634D01*
X344695Y176103D01*
X348435D01*
X349400Y175704D01*
X358240D01*
X358737Y175497D01*
X366531Y167703D01*
X393014D01*
X402808Y177497D01*
X403305Y177703D01*
X417514D01*
X419977Y180166D01*
X419424Y181500D01*
X420268Y183538D01*
X422305Y184381D01*
D02*
G37*
G36*
X94990Y181135D02*
X98346D01*
Y175417D01*
X97534D01*
Y171866D01*
X102134D01*
X102663Y173143D01*
X104806Y174031D01*
X106948Y173143D01*
X107477Y171866D01*
X112191D01*
X112302Y172134D01*
X113435Y172603D01*
X117176D01*
X118309Y172134D01*
X118779Y171000D01*
X118309Y169866D01*
X117176Y169397D01*
X113435D01*
X112302Y169866D01*
X112191Y170134D01*
X107477D01*
X106948Y168857D01*
X104806Y167969D01*
X102663Y168857D01*
X102134Y170134D01*
X97534D01*
Y169359D01*
X98346D01*
Y163641D01*
X94990D01*
Y169359D01*
X95802D01*
Y171500D01*
Y175417D01*
X94990D01*
Y181135D01*
D02*
G37*
G36*
X134695Y173361D02*
X136065D01*
Y171500D01*
X132542D01*
X133026Y172669D01*
X134695Y173361D01*
D02*
G37*
G36*
X137065D02*
X138435D01*
X140105Y172669D01*
X140589Y171500D01*
X137065D01*
Y173361D01*
D02*
G37*
G36*
X370065Y173500D02*
X371943D01*
Y170441D01*
X370065D01*
Y173500D01*
D02*
G37*
G36*
X372943D02*
X374821D01*
Y170441D01*
X372943D01*
Y173500D01*
D02*
G37*
G36*
X132542Y170500D02*
X136065D01*
Y168639D01*
X134695D01*
X133026Y169331D01*
X132542Y170500D01*
D02*
G37*
G36*
X137065D02*
X140589D01*
X140105Y169331D01*
X138435Y168639D01*
X137065D01*
Y170500D01*
D02*
G37*
G36*
X412305Y174381D02*
X414343Y173538D01*
X415187Y171500D01*
X414343Y169462D01*
X412567Y168727D01*
X412511Y168703D01*
X412560Y168455D01*
X412560D01*
X412560Y168455D01*
X412956Y168203D01*
X418014D01*
X419977Y170166D01*
X419424Y171500D01*
X420268Y173538D01*
X422305Y174381D01*
X424343Y173538D01*
X425187Y171500D01*
X424343Y169462D01*
X422305Y168619D01*
X420971Y169171D01*
X418803Y167002D01*
X418305Y166797D01*
X406097D01*
X375303Y136003D01*
X374805Y135796D01*
X363305D01*
X362808Y136003D01*
X355014Y143797D01*
X349747D01*
X349569Y143366D01*
X348435Y142897D01*
X344695D01*
X343562Y143366D01*
X343092Y144500D01*
X343562Y145634D01*
X344695Y146103D01*
X348435D01*
X349569Y145634D01*
X349747Y145203D01*
X355306D01*
X355803Y144998D01*
X363597Y137204D01*
X374514D01*
X405308Y167998D01*
X405805Y168203D01*
X411655D01*
X412051Y168455D01*
Y168455D01*
X412051D01*
X412100Y168703D01*
X412044Y168727D01*
X410268Y169462D01*
X409715Y170797D01*
X404597D01*
X397303Y163503D01*
X396806Y163296D01*
X355597D01*
X348796Y156495D01*
X348913Y155905D01*
X349569Y155634D01*
X350039Y154500D01*
X349569Y153366D01*
X348435Y152897D01*
X344695D01*
X343562Y153366D01*
X343092Y154500D01*
X343562Y155634D01*
X344695Y156103D01*
X346414D01*
X354808Y164497D01*
X355306Y164704D01*
X396514D01*
X403808Y171997D01*
X404306Y172204D01*
X409715D01*
X410268Y173538D01*
X412305Y174381D01*
D02*
G37*
G36*
X321954Y170981D02*
X328657D01*
Y168019D01*
X321954D01*
Y170981D01*
D02*
G37*
G36*
X344695Y171103D02*
X348435D01*
X349569Y170634D01*
X350039Y169500D01*
X349569Y168366D01*
X348435Y167897D01*
X344695D01*
X343562Y168366D01*
X343092Y169500D01*
X343562Y170634D01*
X344695Y171103D01*
D02*
G37*
G36*
X89565Y170059D02*
X91443D01*
Y167000D01*
X89565D01*
Y170059D01*
D02*
G37*
G36*
X92443D02*
X94321D01*
Y167000D01*
X92443D01*
Y170059D01*
D02*
G37*
G36*
X89565Y166000D02*
X91443D01*
Y162941D01*
X89565D01*
Y166000D01*
D02*
G37*
G36*
X92443D02*
X94321D01*
Y162941D01*
X92443D01*
Y166000D01*
D02*
G37*
G36*
X369428Y159059D02*
X371305D01*
Y156000D01*
X369428D01*
Y159059D01*
D02*
G37*
G36*
X372305D02*
X374184D01*
Y156000D01*
X372305D01*
Y159059D01*
D02*
G37*
G36*
X240305Y157024D02*
Y153500D01*
X238445D01*
Y154870D01*
X239136Y156539D01*
X240305Y157024D01*
D02*
G37*
G36*
X269806D02*
Y153500D01*
X267945D01*
Y154870D01*
X268636Y156539D01*
X269806Y157024D01*
D02*
G37*
G36*
X179306D02*
Y153500D01*
X177445D01*
Y154870D01*
X178136Y156539D01*
X179306Y157024D01*
D02*
G37*
G36*
X241305D02*
X242475Y156539D01*
X243166Y154870D01*
Y153500D01*
X241305D01*
Y157024D01*
D02*
G37*
G36*
X270806D02*
X271975Y156539D01*
X272666Y154870D01*
Y153500D01*
X270806D01*
Y157024D01*
D02*
G37*
G36*
X180306D02*
X181475Y156539D01*
X182166Y154870D01*
Y153500D01*
X180306D01*
Y157024D01*
D02*
G37*
G36*
X369428Y155000D02*
X371305D01*
Y151941D01*
X369428D01*
Y155000D01*
D02*
G37*
G36*
X372305D02*
X374184D01*
Y151941D01*
X372305D01*
Y155000D01*
D02*
G37*
G36*
X323435Y151861D02*
X324805D01*
Y150000D01*
X321282D01*
X321766Y151169D01*
X323435Y151861D01*
D02*
G37*
G36*
X325805D02*
X327176D01*
X328845Y151169D01*
X329329Y150000D01*
X325805D01*
Y151861D01*
D02*
G37*
G36*
X168324Y156351D02*
X171287D01*
Y149649D01*
X168324D01*
Y156351D01*
D02*
G37*
G36*
X198324D02*
X201287D01*
Y149649D01*
X198324D01*
Y156351D01*
D02*
G37*
G36*
X229324D02*
X232287D01*
Y149649D01*
X229324D01*
Y156351D01*
D02*
G37*
G36*
X258824D02*
X261787D01*
Y149649D01*
X258824D01*
Y156351D01*
D02*
G37*
G36*
X238445Y152500D02*
X240305D01*
Y148976D01*
X239136Y149461D01*
X238445Y151130D01*
Y152500D01*
D02*
G37*
G36*
X177445D02*
X179306D01*
Y148976D01*
X178136Y149461D01*
X177445Y151130D01*
Y152500D01*
D02*
G37*
G36*
X207445D02*
X209306D01*
Y148976D01*
X208136Y149461D01*
X207445Y151130D01*
Y152500D01*
D02*
G37*
G36*
X267945D02*
X269806D01*
Y148976D01*
X268636Y149461D01*
X267945Y151130D01*
Y152500D01*
D02*
G37*
G36*
X180306D02*
X182166D01*
Y151130D01*
X181475Y149461D01*
X180306Y148976D01*
Y152500D01*
D02*
G37*
G36*
X210306D02*
X212166D01*
Y151130D01*
X211475Y149461D01*
X210306Y148976D01*
Y152500D01*
D02*
G37*
G36*
X270806D02*
X272666D01*
Y151130D01*
X271975Y149461D01*
X270806Y148976D01*
Y152500D01*
D02*
G37*
G36*
X241305D02*
X243166D01*
Y151130D01*
X242475Y149461D01*
X241305Y148976D01*
Y152500D01*
D02*
G37*
G36*
X365403Y158359D02*
X368759D01*
Y152641D01*
X368016D01*
Y150000D01*
Y147359D01*
X368897D01*
Y141641D01*
X365541D01*
Y147359D01*
X366284D01*
Y149134D01*
X360185D01*
X359449Y147357D01*
X357306Y146469D01*
X355163Y147357D01*
X354633Y148634D01*
X349680D01*
X349569Y148366D01*
X348435Y147897D01*
X344695D01*
X343562Y148366D01*
X343092Y149500D01*
X343562Y150634D01*
X344695Y151103D01*
X348435D01*
X349569Y150634D01*
X349680Y150366D01*
X354633D01*
X355163Y151643D01*
X357306Y152531D01*
X359449Y151643D01*
X359770Y150866D01*
X366284D01*
Y152641D01*
X365403D01*
Y158359D01*
D02*
G37*
G36*
X321282Y149000D02*
X324805D01*
Y147139D01*
X323435D01*
X321766Y147831D01*
X321282Y149000D01*
D02*
G37*
G36*
X325805D02*
X329329D01*
X328845Y147831D01*
X327176Y147139D01*
X325805D01*
Y149000D01*
D02*
G37*
G36*
X369565Y148059D02*
X371443D01*
Y145000D01*
X369565D01*
Y148059D01*
D02*
G37*
G36*
X372443D02*
X374321D01*
Y145000D01*
X372443D01*
Y148059D01*
D02*
G37*
G36*
X369565Y144000D02*
X371443D01*
Y140941D01*
X369565D01*
Y144000D01*
D02*
G37*
G36*
X372443D02*
X374321D01*
Y140941D01*
X372443D01*
Y144000D01*
D02*
G37*
G36*
X321954Y140981D02*
X328657D01*
Y138019D01*
X321954D01*
Y140981D01*
D02*
G37*
G36*
X344695Y141103D02*
X348435D01*
X349569Y140634D01*
X350039Y139500D01*
X349569Y138366D01*
X348435Y137897D01*
X344695D01*
X343562Y138366D01*
X343092Y139500D01*
X343562Y140634D01*
X344695Y141103D01*
D02*
G37*
G36*
X44140Y141315D02*
X47002D01*
Y135500D01*
X44140D01*
Y141315D01*
D02*
G37*
G36*
X48002D02*
X50865D01*
Y135500D01*
X48002D01*
Y141315D01*
D02*
G37*
G36*
X72609Y140799D02*
X73053Y140615D01*
X74968D01*
Y129385D01*
X69643D01*
Y140615D01*
X72165D01*
X72609Y140799D01*
D02*
G37*
G36*
X44140Y134500D02*
X47002D01*
Y128685D01*
X44140D01*
Y134500D01*
D02*
G37*
G36*
X48002D02*
X50865D01*
Y128685D01*
X48002D01*
Y134500D01*
D02*
G37*
G36*
X169806Y135213D02*
X170939Y134744D01*
X171409Y133610D01*
Y129870D01*
X170939Y128736D01*
X169806Y128267D01*
X168672Y128736D01*
X168202Y129870D01*
Y133610D01*
X168672Y134744D01*
X169806Y135213D01*
D02*
G37*
G36*
X199805D02*
X200939Y134744D01*
X201409Y133610D01*
Y129870D01*
X200939Y128736D01*
X199805Y128267D01*
X198672Y128736D01*
X198202Y129870D01*
Y133610D01*
X198672Y134744D01*
X199805Y135213D01*
D02*
G37*
G36*
X230805D02*
X231939Y134744D01*
X232409Y133610D01*
Y129870D01*
X231939Y128736D01*
X230805Y128267D01*
X229672Y128736D01*
X229202Y129870D01*
Y133610D01*
X229672Y134744D01*
X230805Y135213D01*
D02*
G37*
G36*
X245806D02*
X246939Y134744D01*
X247409Y133610D01*
Y130892D01*
X253303Y124997D01*
X253509Y124500D01*
Y85500D01*
X253303Y85002D01*
X251717Y83417D01*
X251220Y83211D01*
X250391D01*
X250184Y83297D01*
X232683D01*
X232509Y83123D01*
Y74500D01*
X232303Y74002D01*
X229134Y70834D01*
X229687Y69500D01*
X228843Y67462D01*
X226805Y66619D01*
X224768Y67462D01*
X223924Y69500D01*
X224768Y71538D01*
X226805Y72382D01*
X228139Y71829D01*
X231102Y74791D01*
Y83414D01*
X231308Y83912D01*
X231894Y84497D01*
X232391Y84703D01*
X250306D01*
X250513Y84618D01*
X250928D01*
X252102Y85791D01*
Y124209D01*
X247443Y128867D01*
X246953Y128770D01*
X246939Y128736D01*
X245806Y128267D01*
X244672Y128736D01*
X244202Y129870D01*
Y133610D01*
X244672Y134744D01*
X245806Y135213D01*
D02*
G37*
G36*
X260306D02*
X261439Y134744D01*
X261909Y133610D01*
Y129870D01*
X261439Y128736D01*
X260306Y128267D01*
X259172Y128736D01*
X258702Y129870D01*
Y133610D01*
X259172Y134744D01*
X260306Y135213D01*
D02*
G37*
G36*
X275306D02*
X276439Y134744D01*
X276909Y133610D01*
Y130892D01*
X283303Y124497D01*
X283509Y124000D01*
Y93500D01*
X283303Y93002D01*
X259303Y69002D01*
X258805Y68796D01*
X239396D01*
X238843Y67462D01*
X236806Y66619D01*
X234768Y67462D01*
X233924Y69500D01*
X234768Y71538D01*
X236806Y72382D01*
X238843Y71538D01*
X239396Y70204D01*
X258514D01*
X282102Y93791D01*
Y123709D01*
X276943Y128867D01*
X276453Y128770D01*
X276439Y128736D01*
X275306Y128267D01*
X274172Y128736D01*
X273702Y129870D01*
Y133610D01*
X274172Y134744D01*
X275306Y135213D01*
D02*
G37*
G36*
X370152Y128059D02*
X372030D01*
Y125000D01*
X370152D01*
Y128059D01*
D02*
G37*
G36*
X373030D02*
X374908D01*
Y125000D01*
X373030D01*
Y128059D01*
D02*
G37*
G36*
X412305Y164382D02*
X414343Y163538D01*
X415187Y161500D01*
X414343Y159462D01*
X412305Y158618D01*
X410645Y159306D01*
X409841Y158502D01*
X409343Y158297D01*
X402597D01*
X375303Y131002D01*
X374805Y130797D01*
X363097D01*
X356303Y124003D01*
X355805Y123796D01*
X349954D01*
X349569Y122866D01*
X348435Y122397D01*
X344695D01*
X343562Y122866D01*
X343092Y124000D01*
X343562Y125134D01*
X344695Y125603D01*
X348435D01*
X349400Y125204D01*
X355514D01*
X362308Y131998D01*
X362806Y132203D01*
X374514D01*
X401808Y159497D01*
X402306Y159704D01*
X409052D01*
X409841Y160493D01*
X409424Y161500D01*
X410268Y163538D01*
X412305Y164382D01*
D02*
G37*
G36*
X370152Y124000D02*
X372030D01*
Y120941D01*
X370152D01*
Y124000D01*
D02*
G37*
G36*
X373030D02*
X374908D01*
Y120941D01*
X373030D01*
Y124000D01*
D02*
G37*
G36*
X323435Y121361D02*
X324805D01*
Y119500D01*
X321282D01*
X321766Y120669D01*
X323435Y121361D01*
D02*
G37*
G36*
X325805D02*
X327176D01*
X328845Y120669D01*
X329329Y119500D01*
X325805D01*
Y121361D01*
D02*
G37*
G36*
X366128Y127359D02*
X369483D01*
Y121641D01*
X368671D01*
Y116859D01*
X369483D01*
Y111141D01*
X366128D01*
Y116859D01*
X366940D01*
Y118384D01*
X359081D01*
X358449Y116857D01*
X356306Y115969D01*
X354163Y116857D01*
X353633Y118134D01*
X349680D01*
X349569Y117866D01*
X348435Y117397D01*
X344695D01*
X343562Y117866D01*
X343092Y119000D01*
X343562Y120134D01*
X344695Y120603D01*
X348435D01*
X349569Y120134D01*
X349680Y119866D01*
X353633D01*
X354163Y121143D01*
X356306Y122031D01*
X358449Y121143D01*
X358874Y120116D01*
X366940D01*
Y121641D01*
X366128D01*
Y127359D01*
D02*
G37*
G36*
X209805Y135213D02*
X210939Y134744D01*
X211409Y133610D01*
Y129870D01*
X210939Y128736D01*
X210671Y128626D01*
Y124672D01*
X211948Y124143D01*
X212836Y122000D01*
X211948Y119857D01*
X210671Y119328D01*
Y117228D01*
X212446D01*
Y117678D01*
X218165D01*
Y114322D01*
X212446D01*
Y115496D01*
X205165D01*
Y114184D01*
X199446D01*
Y117540D01*
X205165D01*
Y117228D01*
X208940D01*
Y119328D01*
X207663Y119857D01*
X206775Y122000D01*
X207663Y124143D01*
X208940Y124672D01*
Y128626D01*
X208672Y128736D01*
X208202Y129870D01*
Y133610D01*
X208672Y134744D01*
X209805Y135213D01*
D02*
G37*
G36*
X321282Y118500D02*
X324805D01*
Y116639D01*
X323435D01*
X321766Y117331D01*
X321282Y118500D01*
D02*
G37*
G36*
X325805D02*
X329329D01*
X328845Y117331D01*
X327176Y116639D01*
X325805D01*
Y118500D01*
D02*
G37*
G36*
X179806Y135213D02*
X180939Y134744D01*
X181409Y133610D01*
Y129870D01*
X180939Y128736D01*
X180671Y128626D01*
Y124172D01*
X181948Y123643D01*
X182836Y121500D01*
X181948Y119357D01*
X180671Y118828D01*
Y116047D01*
X182447D01*
Y116540D01*
X188165D01*
Y113184D01*
X182447D01*
Y114315D01*
X177165D01*
Y113822D01*
X171447D01*
Y117178D01*
X177165D01*
Y116047D01*
X178940D01*
Y118828D01*
X177663Y119357D01*
X176775Y121500D01*
X177663Y123643D01*
X178940Y124172D01*
Y128626D01*
X178672Y128736D01*
X178202Y129870D01*
Y133610D01*
X178672Y134744D01*
X179806Y135213D01*
D02*
G37*
G36*
X270305D02*
X271439Y134744D01*
X271909Y133610D01*
Y129870D01*
X271439Y128736D01*
X271171Y128626D01*
Y124172D01*
X272448Y123643D01*
X273336Y121500D01*
X272448Y119357D01*
X271171Y118828D01*
Y115478D01*
X273446D01*
Y116540D01*
X279165D01*
Y113184D01*
X273446D01*
Y113746D01*
X266665D01*
Y112684D01*
X260946D01*
Y116040D01*
X266665D01*
Y115478D01*
X269440D01*
Y118828D01*
X268162Y119357D01*
X267275Y121500D01*
X268162Y123643D01*
X269440Y124172D01*
Y128626D01*
X269172Y128736D01*
X268702Y129870D01*
Y133610D01*
X269172Y134744D01*
X270305Y135213D01*
D02*
G37*
G36*
X240806D02*
X241939Y134744D01*
X242409Y133610D01*
Y129870D01*
X241939Y128736D01*
X241671Y128626D01*
Y123412D01*
X242949Y122883D01*
X243836Y120740D01*
X242949Y118597D01*
X241671Y118068D01*
Y115106D01*
X242446D01*
Y116678D01*
X248165D01*
Y113322D01*
X242446D01*
Y113374D01*
X235665D01*
Y113322D01*
X229946D01*
Y116678D01*
X235665D01*
Y115106D01*
X239940D01*
Y118068D01*
X238663Y118597D01*
X237775Y120740D01*
X238663Y122883D01*
X239940Y123412D01*
Y128626D01*
X239672Y128736D01*
X239202Y129870D01*
Y133610D01*
X239672Y134744D01*
X240806Y135213D01*
D02*
G37*
G36*
X370152Y117559D02*
X372030D01*
Y114500D01*
X370152D01*
Y117559D01*
D02*
G37*
G36*
X373030D02*
X374908D01*
Y114500D01*
X373030D01*
Y117559D01*
D02*
G37*
G36*
X54879Y119552D02*
X66109D01*
Y114228D01*
X54879D01*
Y119552D01*
D02*
G37*
G36*
X323435Y115603D02*
X327176D01*
X328309Y115134D01*
X328779Y114000D01*
X328309Y112866D01*
X327176Y112397D01*
X323435D01*
X322302Y112866D01*
X321832Y114000D01*
X322302Y115134D01*
X323435Y115603D01*
D02*
G37*
G36*
X422305Y164382D02*
X424343Y163538D01*
X425187Y161500D01*
X424343Y159462D01*
X422305Y158618D01*
X420268Y159462D01*
X420264Y159463D01*
X414303Y153503D01*
X413805Y153296D01*
X407597D01*
X387009Y132709D01*
Y114500D01*
X386803Y114003D01*
X377303Y104502D01*
X376805Y104297D01*
X368240D01*
X367742Y104502D01*
X358448Y113796D01*
X349954D01*
X349569Y112866D01*
X348435Y112397D01*
X344695D01*
X343562Y112866D01*
X343092Y114000D01*
X343562Y115134D01*
X344695Y115603D01*
X348435D01*
X349400Y115203D01*
X358740D01*
X359237Y114997D01*
X368531Y105703D01*
X376514D01*
X385602Y114791D01*
Y133000D01*
X385808Y133498D01*
X406808Y154498D01*
X407305Y154703D01*
X413514D01*
X419684Y160873D01*
X419424Y161500D01*
X420268Y163538D01*
X422305Y164382D01*
D02*
G37*
G36*
X211747Y113654D02*
X214806D01*
Y111776D01*
X211747D01*
Y113654D01*
D02*
G37*
G36*
X215806D02*
X218865D01*
Y111776D01*
X215806D01*
Y113654D01*
D02*
G37*
G36*
X198747Y113516D02*
X201805D01*
Y111638D01*
X198747D01*
Y113516D01*
D02*
G37*
G36*
X202805D02*
X205865D01*
Y111638D01*
X202805D01*
Y113516D01*
D02*
G37*
G36*
X170747Y113154D02*
X173805D01*
Y111276D01*
X170747D01*
Y113154D01*
D02*
G37*
G36*
X174805D02*
X177865D01*
Y111276D01*
X174805D01*
Y113154D01*
D02*
G37*
G36*
X229246Y112654D02*
X232306D01*
Y110776D01*
X229246D01*
Y112654D01*
D02*
G37*
G36*
X241746D02*
X244806D01*
Y110776D01*
X241746D01*
Y112654D01*
D02*
G37*
G36*
X233306D02*
X236365D01*
Y110776D01*
X233306D01*
Y112654D01*
D02*
G37*
G36*
X245806D02*
X248865D01*
Y110776D01*
X245806D01*
Y112654D01*
D02*
G37*
G36*
X181746Y112516D02*
X184806D01*
Y110638D01*
X181746D01*
Y112516D01*
D02*
G37*
G36*
X272746D02*
X275805D01*
Y110638D01*
X272746D01*
Y112516D01*
D02*
G37*
G36*
X276805D02*
X279865D01*
Y110638D01*
X276805D01*
Y112516D01*
D02*
G37*
G36*
X185805D02*
X188865D01*
Y110638D01*
X185805D01*
Y112516D01*
D02*
G37*
G36*
X370152Y113500D02*
X372030D01*
Y110441D01*
X370152D01*
Y113500D01*
D02*
G37*
G36*
X373030D02*
X374908D01*
Y110441D01*
X373030D01*
Y113500D01*
D02*
G37*
G36*
X260246Y112016D02*
X263305D01*
Y110138D01*
X260246D01*
Y112016D01*
D02*
G37*
G36*
X264305D02*
X267365D01*
Y110138D01*
X264305D01*
Y112016D01*
D02*
G37*
G36*
X211747Y110776D02*
X214806D01*
Y108898D01*
X211747D01*
Y110776D01*
D02*
G37*
G36*
X215806D02*
X218865D01*
Y108898D01*
X215806D01*
Y110776D01*
D02*
G37*
G36*
X198747Y110638D02*
X201805D01*
Y108760D01*
X198747D01*
Y110638D01*
D02*
G37*
G36*
X202805D02*
X205865D01*
Y108760D01*
X202805D01*
Y110638D01*
D02*
G37*
G36*
X170747Y110276D02*
X173805D01*
Y108398D01*
X170747D01*
Y110276D01*
D02*
G37*
G36*
X174805D02*
X177865D01*
Y108398D01*
X174805D01*
Y110276D01*
D02*
G37*
G36*
X229246Y109776D02*
X232306D01*
Y107898D01*
X229246D01*
Y109776D01*
D02*
G37*
G36*
X233306D02*
X236365D01*
Y107898D01*
X233306D01*
Y109776D01*
D02*
G37*
G36*
X241746D02*
X244806D01*
Y107898D01*
X241746D01*
Y109776D01*
D02*
G37*
G36*
X245806D02*
X248865D01*
Y107898D01*
X245806D01*
Y109776D01*
D02*
G37*
G36*
X181746Y109638D02*
X184806D01*
Y107760D01*
X181746D01*
Y109638D01*
D02*
G37*
G36*
X185805D02*
X188865D01*
Y107760D01*
X185805D01*
Y109638D01*
D02*
G37*
G36*
X272746D02*
X275805D01*
Y107760D01*
X272746D01*
Y109638D01*
D02*
G37*
G36*
X276805D02*
X279865D01*
Y107760D01*
X276805D01*
Y109638D01*
D02*
G37*
G36*
X321954Y110481D02*
X328657D01*
Y107519D01*
X321954D01*
Y110481D01*
D02*
G37*
G36*
X344695Y110603D02*
X348435D01*
X349569Y110134D01*
X350039Y109000D01*
X349569Y107866D01*
X348435Y107397D01*
X344695D01*
X343562Y107866D01*
X343092Y109000D01*
X343562Y110134D01*
X344695Y110603D01*
D02*
G37*
G36*
X260246Y109138D02*
X263305D01*
Y107260D01*
X260246D01*
Y109138D01*
D02*
G37*
G36*
X264305D02*
X267365D01*
Y107260D01*
X264305D01*
Y109138D01*
D02*
G37*
G36*
X184806Y135213D02*
X185939Y134744D01*
X186409Y133610D01*
Y129870D01*
X185939Y128736D01*
X185509Y128558D01*
Y123791D01*
X192803Y116498D01*
X193009Y116000D01*
Y101239D01*
X194448Y100643D01*
X195102Y99066D01*
X195602Y99165D01*
Y120000D01*
X195808Y120498D01*
X203734Y128424D01*
X203672Y128736D01*
X203202Y129870D01*
Y133610D01*
X203672Y134744D01*
X204805Y135213D01*
X205939Y134744D01*
X206409Y133610D01*
Y129870D01*
X205939Y128736D01*
X205509Y128558D01*
Y128500D01*
X205303Y128003D01*
X197009Y119709D01*
Y93791D01*
X197597Y93204D01*
X216220D01*
X216717Y92997D01*
X217303Y92412D01*
X217509Y91914D01*
Y82090D01*
X218843Y81538D01*
X219687Y79500D01*
X218843Y77462D01*
X216806Y76618D01*
X214768Y77462D01*
X213924Y79500D01*
X214768Y81538D01*
X216102Y82090D01*
Y91623D01*
X215928Y91796D01*
X197306D01*
X196808Y92002D01*
X195808Y93002D01*
X195602Y93500D01*
Y97835D01*
X195102Y97935D01*
X194448Y96357D01*
X192306Y95469D01*
X190163Y96357D01*
X189275Y98500D01*
X190163Y100643D01*
X191602Y101239D01*
Y115709D01*
X184308Y123003D01*
X184102Y123500D01*
Y128558D01*
X183672Y128736D01*
X183202Y129870D01*
Y133610D01*
X183672Y134744D01*
X184806Y135213D01*
D02*
G37*
G36*
X174805D02*
X175939Y134744D01*
X176409Y133610D01*
Y129870D01*
X175939Y128736D01*
X175509Y128558D01*
Y125500D01*
X175303Y125003D01*
X166509Y116209D01*
Y98291D01*
X184597Y80203D01*
X204143D01*
Y82162D01*
X209468D01*
Y76838D01*
X204143D01*
Y78796D01*
X184306D01*
X183808Y79002D01*
X165308Y97502D01*
X165102Y98000D01*
Y116500D01*
X165308Y116998D01*
X174102Y125791D01*
Y128558D01*
X173672Y128736D01*
X173202Y129870D01*
Y133610D01*
X173672Y134744D01*
X174805Y135213D01*
D02*
G37*
G36*
X235806D02*
X236939Y134744D01*
X237409Y133610D01*
Y129870D01*
X236939Y128736D01*
X236509Y128558D01*
Y125316D01*
X236303Y124818D01*
X227509Y116024D01*
Y82090D01*
X228843Y81538D01*
X229687Y79500D01*
X228843Y77462D01*
X226805Y76618D01*
X224768Y77462D01*
X223924Y79500D01*
X224768Y81538D01*
X226102Y82090D01*
Y116316D01*
X226308Y116813D01*
X235102Y125607D01*
Y128558D01*
X234672Y128736D01*
X234202Y129870D01*
Y133610D01*
X234672Y134744D01*
X235806Y135213D01*
D02*
G37*
G36*
X265305D02*
X266439Y134744D01*
X266909Y133610D01*
Y129870D01*
X266439Y128736D01*
X266009Y128558D01*
Y128500D01*
X265803Y128003D01*
X255509Y117709D01*
Y81086D01*
X255303Y80588D01*
X253717Y79002D01*
X253220Y78796D01*
X239396D01*
X238843Y77462D01*
X236806Y76618D01*
X234768Y77462D01*
X233924Y79500D01*
X234768Y81538D01*
X236806Y82381D01*
X238843Y81538D01*
X239396Y80203D01*
X252928D01*
X254102Y81377D01*
Y118000D01*
X254308Y118498D01*
X264234Y128424D01*
X264172Y128736D01*
X263702Y129870D01*
Y133610D01*
X264172Y134744D01*
X265305Y135213D01*
D02*
G37*
G36*
X206805Y72382D02*
X208843Y71538D01*
X209687Y69500D01*
X208843Y67462D01*
X206805Y66619D01*
X204768Y67462D01*
X203924Y69500D01*
X204768Y71538D01*
X206805Y72382D01*
D02*
G37*
G36*
X214806Y135213D02*
X215939Y134744D01*
X216409Y133610D01*
Y129870D01*
X215939Y128736D01*
X215877Y128424D01*
X221803Y122497D01*
X222009Y122000D01*
Y74000D01*
X221803Y73502D01*
X219134Y70834D01*
X219687Y69500D01*
X218843Y67462D01*
X216806Y66619D01*
X214768Y67462D01*
X213924Y69500D01*
X214768Y71538D01*
X216806Y72382D01*
X218140Y71829D01*
X220602Y74291D01*
Y121709D01*
X214308Y128003D01*
X214102Y128500D01*
Y128558D01*
X213672Y128736D01*
X213202Y129870D01*
Y133610D01*
X213672Y134744D01*
X214806Y135213D01*
D02*
G37*
%LPD*%
D12*
X239806Y236500D02*
X238936Y235630D01*
X41805Y267500D02*
X40806Y268500D01*
X59806Y365000D02*
Y381138D01*
X115305Y249500D02*
X96599D01*
X115676D02*
X115305D01*
X123805Y365000D02*
Y382138D01*
X153805Y365000D02*
Y382638D01*
X115676Y224500D02*
X104306D01*
X115676Y197500D02*
X96737D01*
X115305Y171000D02*
X104806D01*
X115676D02*
X115305D01*
X346565Y345000D02*
X345435D01*
X357306D02*
X346565D01*
X357306Y309000D02*
X345435D01*
X366943Y277750D02*
X345685D01*
X366443Y244250D02*
X345685D01*
X200522Y246881D02*
X196306Y242665D01*
Y233000D02*
Y242665D01*
X201914Y245478D02*
Y245489D01*
X236391Y159500D02*
X235806Y158914D01*
X239806Y236500D02*
Y236716D01*
X238936Y235630D02*
X238107D01*
X231033Y242705D01*
X239806Y236716D02*
X232425Y244097D01*
X243305Y278500D02*
X243277D01*
X236601Y271824D01*
X230805Y291000D02*
X230722D01*
X224073Y284352D01*
X194022Y282500D02*
X189805D01*
X201914Y274608D02*
X194022Y282500D01*
X345685Y244250D02*
X345435Y244000D01*
X221305Y382138D02*
X216305D01*
X227805D02*
X221305D01*
X221806Y381638D02*
X221305Y382138D01*
X221806Y376000D02*
Y381638D01*
X179806Y115181D02*
X174624D01*
X184987D02*
X179806D01*
X179806Y115181D02*
X179806Y115181D01*
X179806Y115181D02*
Y121500D01*
X174624Y115181D02*
X174305Y115500D01*
X185306Y114862D02*
X184987Y115181D01*
X210306Y116362D02*
X202805D01*
X215806D02*
X210306D01*
X209805Y116862D01*
Y122000D01*
X240806Y114240D02*
X232805D01*
X245305D02*
X240806D01*
Y120740D01*
X270056Y114612D02*
X264055D01*
X276056D02*
X270056D01*
X270305Y114862D02*
X270056Y114612D01*
X270305Y114862D02*
Y121500D01*
X264055Y114612D02*
X263806Y114362D01*
X276306Y114862D02*
X276056Y114612D01*
X96668Y171500D02*
Y178276D01*
Y166500D02*
Y171500D01*
X97168Y171000D02*
X96668Y171500D01*
X104806Y171000D02*
X97168D01*
X96737Y197500D02*
Y202931D01*
Y192069D02*
Y197500D01*
Y192069D02*
X96668Y192000D01*
X96806Y203000D02*
X96737Y202931D01*
X96987Y225000D02*
Y230319D01*
Y219681D02*
Y225000D01*
X97487Y224500D02*
X96987Y225000D01*
X104306Y224500D02*
X97487D01*
X96987Y219681D02*
X96806Y219500D01*
X97168Y230500D02*
X96987Y230319D01*
X96599Y249500D02*
X96530D01*
X96599D02*
Y254431D01*
Y243069D02*
Y249500D01*
X96668Y243000D02*
X96599Y243069D01*
Y254431D02*
X96530Y254500D01*
X54056Y381388D02*
X53806Y381638D01*
X65056Y381388D02*
X54056D01*
X65306Y381138D02*
X65056Y381388D01*
X91805Y381638D02*
X86805D01*
X98305D02*
X91805D01*
Y373319D02*
Y381638D01*
X123805Y382138D02*
X118806D01*
X130306D02*
X123805D01*
X149056Y382888D02*
X148805Y382638D01*
X159055Y382888D02*
X149056D01*
X159306Y383138D02*
X159055Y382888D01*
X196306Y382438D02*
X186005D01*
X185306Y383138D01*
X190305Y377500D02*
Y382414D01*
X196306Y383638D02*
X195141D01*
X255306Y383138D02*
X249306D01*
X261305D02*
X255306D01*
Y377000D02*
Y383138D01*
X287556Y383888D02*
X282055D01*
X293056D02*
X287556D01*
X287806Y383638D02*
X287556Y383888D01*
X287806Y377000D02*
Y383638D01*
X367806Y119250D02*
Y124500D01*
Y114000D02*
Y119250D01*
X357556D01*
X357306Y119500D01*
X367150Y150000D02*
Y155431D01*
Y144569D02*
Y150000D01*
X357805D01*
X357306Y149500D01*
X367219Y144500D02*
X367150Y144569D01*
Y155431D02*
X367081Y155500D01*
X367900Y179000D02*
Y183819D01*
Y174181D02*
Y179000D01*
X366900Y180000D01*
X357306D01*
X367900Y174181D02*
X367719Y174000D01*
X368081Y184000D02*
X367900Y183819D01*
X367081Y211000D02*
Y216000D01*
Y206000D02*
Y211000D01*
X366081Y212000D01*
X357306D01*
X366443Y244250D02*
Y249500D01*
Y239000D02*
Y244250D01*
X366943Y277750D02*
Y283000D01*
Y272500D02*
Y277750D01*
Y307500D02*
Y312000D01*
Y303000D02*
Y307500D01*
X357805D01*
X357306Y308000D01*
X367305Y344750D02*
Y350000D01*
Y339500D02*
Y344750D01*
X357556D01*
X357306Y345000D01*
X270305Y121500D02*
Y130370D01*
X240806Y120740D02*
Y129610D01*
X209805Y122000D02*
Y130370D01*
X357306Y212000D02*
X347935D01*
X357306Y180000D02*
X347935D01*
X357306Y149500D02*
X348435D01*
X356306Y119000D02*
X346935D01*
X179806Y121500D02*
Y130370D01*
X91805Y365000D02*
Y373319D01*
X190305Y366500D02*
Y377500D01*
X221806Y365500D02*
Y376000D01*
X287806Y365500D02*
Y377000D01*
X255306Y365500D02*
Y377000D01*
X345685Y277750D02*
X345435Y278000D01*
D13*
X159306Y383138D02*
D03*
Y387862D02*
D03*
X263806Y114362D02*
D03*
Y109638D02*
D03*
X118806Y382138D02*
D03*
Y386862D02*
D03*
X185306Y383138D02*
D03*
Y387862D02*
D03*
X216305Y382138D02*
D03*
Y386862D02*
D03*
X196306Y383638D02*
D03*
Y388362D02*
D03*
X293305Y383638D02*
D03*
Y388362D02*
D03*
X249306Y383138D02*
D03*
Y387862D02*
D03*
X261305Y383138D02*
D03*
Y387862D02*
D03*
X227805Y382138D02*
D03*
Y386862D02*
D03*
X53806Y381638D02*
D03*
Y386362D02*
D03*
X281805Y384138D02*
D03*
Y388862D02*
D03*
X65306Y381138D02*
D03*
Y385862D02*
D03*
X130306Y382138D02*
D03*
Y386862D02*
D03*
X148805Y382638D02*
D03*
Y387362D02*
D03*
X98305Y381638D02*
D03*
Y386362D02*
D03*
X86805Y381638D02*
D03*
Y386362D02*
D03*
X276306Y114862D02*
D03*
Y110138D02*
D03*
X245305Y115000D02*
D03*
Y110276D02*
D03*
X215305Y116000D02*
D03*
Y111276D02*
D03*
X185306Y114862D02*
D03*
Y110138D02*
D03*
X232805Y115000D02*
D03*
Y110276D02*
D03*
X202306Y115862D02*
D03*
Y111138D02*
D03*
X174305Y115500D02*
D03*
Y110776D02*
D03*
D14*
X96668Y243000D02*
D03*
X91943D02*
D03*
X96530Y254500D02*
D03*
X91805D02*
D03*
X367806Y114000D02*
D03*
X372530D02*
D03*
X96806Y219500D02*
D03*
X92081D02*
D03*
X97168Y230500D02*
D03*
X92443D02*
D03*
X96668Y192000D02*
D03*
X91943D02*
D03*
X96806Y203000D02*
D03*
X92081D02*
D03*
X368081Y184000D02*
D03*
X372806D02*
D03*
X367081Y206000D02*
D03*
X371806D02*
D03*
X367081Y216000D02*
D03*
X371806D02*
D03*
X367219Y144500D02*
D03*
X371943D02*
D03*
X367719Y174000D02*
D03*
X372443D02*
D03*
X366443Y239000D02*
D03*
X371168D02*
D03*
X366943Y283000D02*
D03*
X371668D02*
D03*
X366943Y312000D02*
D03*
X371668D02*
D03*
X367806Y124500D02*
D03*
X372530D02*
D03*
X367081Y155500D02*
D03*
X371806D02*
D03*
X366443Y249500D02*
D03*
X371168D02*
D03*
X366943Y272500D02*
D03*
X371668D02*
D03*
X366943Y303000D02*
D03*
X371668D02*
D03*
X367305Y339500D02*
D03*
X372030D02*
D03*
X367305Y350000D02*
D03*
X372030D02*
D03*
X96668Y178276D02*
D03*
X91943D02*
D03*
X96668Y166500D02*
D03*
X91943D02*
D03*
D15*
X69806Y342740D02*
D03*
X169806Y153000D02*
D03*
X199805D02*
D03*
X230805D02*
D03*
X260306D02*
D03*
X232306Y342740D02*
D03*
X200805D02*
D03*
X163805D02*
D03*
X134306D02*
D03*
X297806D02*
D03*
X265806D02*
D03*
X101305D02*
D03*
D16*
X64806D02*
D03*
X59806D02*
D03*
X54805D02*
D03*
X69806Y364000D02*
D03*
X64806D02*
D03*
X59806D02*
D03*
X54805D02*
D03*
X174805Y153000D02*
D03*
X179806D02*
D03*
X184806D02*
D03*
X169806Y131740D02*
D03*
X174805D02*
D03*
X179806D02*
D03*
X184806D02*
D03*
X204805Y153000D02*
D03*
X209805D02*
D03*
X214806D02*
D03*
X199805Y131740D02*
D03*
X204805D02*
D03*
X209805D02*
D03*
X214806D02*
D03*
X235806Y153000D02*
D03*
X240806D02*
D03*
X245806D02*
D03*
X230805Y131740D02*
D03*
X235806D02*
D03*
X240806D02*
D03*
X245806D02*
D03*
X265305Y153000D02*
D03*
X270305D02*
D03*
X275306D02*
D03*
X260306Y131740D02*
D03*
X265305D02*
D03*
X270305D02*
D03*
X275306D02*
D03*
X227306Y342740D02*
D03*
X222305D02*
D03*
X217305D02*
D03*
X232306Y364000D02*
D03*
X227306D02*
D03*
X222305D02*
D03*
X217305D02*
D03*
X195806Y342740D02*
D03*
X190805D02*
D03*
X185805D02*
D03*
X200805Y364000D02*
D03*
X195806D02*
D03*
X190805D02*
D03*
X185805D02*
D03*
X158806Y342740D02*
D03*
X153805D02*
D03*
X148805D02*
D03*
X163805Y364000D02*
D03*
X158806D02*
D03*
X153805D02*
D03*
X148805D02*
D03*
X129306Y342740D02*
D03*
X124305D02*
D03*
X119306D02*
D03*
X134306Y364000D02*
D03*
X129306D02*
D03*
X124305D02*
D03*
X119306D02*
D03*
X292806Y342740D02*
D03*
X287806D02*
D03*
X282805D02*
D03*
X297806Y364000D02*
D03*
X292806D02*
D03*
X287806D02*
D03*
X282805D02*
D03*
X260806Y342740D02*
D03*
X255805D02*
D03*
X250805D02*
D03*
X265806Y364000D02*
D03*
X260806D02*
D03*
X255805D02*
D03*
X250805D02*
D03*
X96306Y342740D02*
D03*
X91306D02*
D03*
X86305D02*
D03*
X101305Y364000D02*
D03*
X96306D02*
D03*
X91306D02*
D03*
X86305D02*
D03*
D17*
X136565Y259500D02*
D03*
Y207000D02*
D03*
Y181000D02*
D03*
X325306Y109000D02*
D03*
Y139500D02*
D03*
Y169500D02*
D03*
Y201500D02*
D03*
Y234500D02*
D03*
Y268000D02*
D03*
Y298500D02*
D03*
Y335000D02*
D03*
X136565Y235000D02*
D03*
D18*
Y254500D02*
D03*
Y249500D02*
D03*
Y244500D02*
D03*
X115305Y259500D02*
D03*
Y254500D02*
D03*
Y249500D02*
D03*
Y244500D02*
D03*
X136565Y202000D02*
D03*
Y197000D02*
D03*
Y192000D02*
D03*
X115305Y207000D02*
D03*
Y202000D02*
D03*
Y197000D02*
D03*
Y192000D02*
D03*
X136565Y176000D02*
D03*
Y171000D02*
D03*
Y166000D02*
D03*
X115305Y181000D02*
D03*
Y176000D02*
D03*
Y171000D02*
D03*
Y166000D02*
D03*
X325306Y114000D02*
D03*
Y119000D02*
D03*
Y124000D02*
D03*
X346565Y109000D02*
D03*
Y114000D02*
D03*
Y119000D02*
D03*
Y124000D02*
D03*
X325306Y144500D02*
D03*
Y149500D02*
D03*
Y154500D02*
D03*
X346565Y139500D02*
D03*
Y144500D02*
D03*
Y149500D02*
D03*
Y154500D02*
D03*
X325306Y174500D02*
D03*
Y179500D02*
D03*
Y184500D02*
D03*
X346565Y169500D02*
D03*
Y174500D02*
D03*
Y179500D02*
D03*
Y184500D02*
D03*
X325306Y206500D02*
D03*
Y211500D02*
D03*
Y216500D02*
D03*
X346565Y201500D02*
D03*
Y206500D02*
D03*
Y211500D02*
D03*
Y216500D02*
D03*
X325306Y239500D02*
D03*
Y244500D02*
D03*
Y249500D02*
D03*
X346565Y234500D02*
D03*
Y239500D02*
D03*
Y244500D02*
D03*
Y249500D02*
D03*
X325306Y273000D02*
D03*
Y278000D02*
D03*
Y283000D02*
D03*
X346565Y268000D02*
D03*
Y273000D02*
D03*
Y278000D02*
D03*
Y283000D02*
D03*
X325306Y303500D02*
D03*
Y308500D02*
D03*
Y313500D02*
D03*
X346565Y298500D02*
D03*
Y303500D02*
D03*
Y308500D02*
D03*
Y313500D02*
D03*
X325306Y340000D02*
D03*
Y345000D02*
D03*
Y350000D02*
D03*
X346565Y335000D02*
D03*
Y340000D02*
D03*
Y345000D02*
D03*
Y350000D02*
D03*
X136565Y230000D02*
D03*
Y225000D02*
D03*
Y220000D02*
D03*
X115305Y235000D02*
D03*
Y230000D02*
D03*
Y225000D02*
D03*
Y220000D02*
D03*
D19*
X213049Y285744D02*
D03*
X211657Y284352D02*
D03*
X210265Y282960D02*
D03*
X208873Y281568D02*
D03*
X207481Y280176D02*
D03*
X206089Y278784D02*
D03*
X204697Y277392D02*
D03*
X203306Y276000D02*
D03*
X201914Y274608D02*
D03*
X200522Y273216D02*
D03*
X199130Y271824D02*
D03*
X197738Y270432D02*
D03*
X196346Y269040D02*
D03*
X194954Y267648D02*
D03*
X193562Y266256D02*
D03*
X192170Y264864D02*
D03*
X222681Y234353D02*
D03*
X224073Y235745D02*
D03*
X225465Y237137D02*
D03*
X226857Y238529D02*
D03*
X228249Y239921D02*
D03*
X229641Y241313D02*
D03*
X231033Y242705D02*
D03*
X232425Y244097D02*
D03*
X233817Y245489D02*
D03*
X235209Y246881D02*
D03*
X236601Y248273D02*
D03*
X237993Y249664D02*
D03*
X239385Y251056D02*
D03*
X240776Y252448D02*
D03*
X242168Y253840D02*
D03*
X243560Y255232D02*
D03*
D20*
X192170D02*
D03*
X193562Y253840D02*
D03*
X194954Y252448D02*
D03*
X196346Y251056D02*
D03*
X197738Y249664D02*
D03*
X199130Y248273D02*
D03*
X200522Y246881D02*
D03*
X201914Y245489D02*
D03*
X203306Y244097D02*
D03*
X204697Y242705D02*
D03*
X206089Y241313D02*
D03*
X207481Y239921D02*
D03*
X208873Y238529D02*
D03*
X210265Y237137D02*
D03*
X211657Y235745D02*
D03*
X213049Y234353D02*
D03*
X243560Y264864D02*
D03*
X242168Y266256D02*
D03*
X240776Y267648D02*
D03*
X239385Y269040D02*
D03*
X237993Y270432D02*
D03*
X236601Y271824D02*
D03*
X235209Y273216D02*
D03*
X233817Y274608D02*
D03*
X232425Y276000D02*
D03*
X231033Y277392D02*
D03*
X229641Y278784D02*
D03*
X228249Y280176D02*
D03*
X226857Y281568D02*
D03*
X225465Y282960D02*
D03*
X224073Y284352D02*
D03*
D21*
X222681Y285744D02*
D03*
D22*
X122306Y302500D02*
D03*
X123805Y290000D02*
D03*
D45*
X212556Y220750D02*
X201306Y232000D01*
Y236529D01*
X206089Y241313D02*
X201306Y236529D01*
X40806Y268500D02*
Y294500D01*
X19805Y315500D01*
X109306Y267500D02*
X41805D01*
X115305Y273500D02*
X109306Y267500D01*
X176805Y273500D02*
X115305D01*
X55305Y335500D02*
X19805D01*
X71806Y319000D02*
X55305Y335500D01*
X104306Y319000D02*
X71806D01*
X111805Y311500D02*
X104306Y319000D01*
X111805Y302291D02*
Y311500D01*
X187778Y277500D02*
X150305D01*
X134306Y298000D02*
X98305D01*
X134306Y289000D02*
Y298000D01*
X147756Y275550D02*
X134306Y289000D01*
X195952Y269326D02*
X187778Y277500D01*
X186944Y275550D02*
X147756D01*
X194560Y267934D02*
X186944Y275550D01*
X234893Y272912D02*
X224481Y262500D01*
X224306D01*
X319387Y303500D02*
X318305Y304581D01*
X325306Y303500D02*
X319387D01*
X318305Y304581D02*
X257552Y243828D01*
X318305Y304581D02*
Y313414D01*
X257552Y243828D02*
X252340D01*
X198805Y237500D02*
Y242370D01*
X201914Y245478D02*
X198805Y242370D01*
X152720Y237500D02*
X145720Y244500D01*
X174149Y237500D02*
X152720D01*
X146306Y245086D02*
X145720Y244500D01*
X190727Y254078D02*
X174149Y237500D01*
X321056Y154500D02*
X320305D01*
X211806Y251000D02*
X210209D01*
X203306Y244097D01*
X54805Y363500D02*
X48305D01*
X44306Y367500D01*
X185805Y364500D02*
X175805Y374500D01*
X252805Y124500D02*
X245806Y131500D01*
X282805Y124000D02*
X275805Y131000D01*
X355306Y164000D02*
X345806Y154500D01*
X354306Y192000D02*
X347305Y185000D01*
X354805Y256500D02*
X347806Y249500D01*
X403805Y256500D02*
X354805D01*
Y290500D02*
X347056Y282750D01*
X235806Y158914D02*
Y208500D01*
Y153000D02*
Y158914D01*
Y208500D02*
X215305Y229000D01*
X245220Y159500D02*
X236391D01*
X245806Y158914D02*
X245220Y159500D01*
X245806Y153000D02*
Y158914D01*
X250306Y339586D02*
Y344240D01*
Y313552D02*
X221780Y285026D01*
X260306Y340000D02*
Y344240D01*
X212742Y286116D02*
X205756Y293101D01*
X205705D02*
X198720Y300086D01*
X205756Y293101D02*
X205705D01*
X226805Y339086D02*
Y344240D01*
X216806Y338586D02*
Y344240D01*
X198720Y300086D02*
Y300914D01*
X265305Y153000D02*
Y156500D01*
Y151630D02*
Y153000D01*
X275306D02*
Y157914D01*
Y151630D02*
Y153000D01*
X252306Y276569D02*
X242081Y266344D01*
X252306Y276569D02*
Y283000D01*
X252912Y274392D02*
X243473Y264952D01*
X282805Y365870D02*
X275306Y373370D01*
X282805Y364000D02*
Y365870D01*
X96258Y367323D02*
X95306Y366370D01*
X317305Y239586D02*
Y248414D01*
X317891Y249000D02*
X317305Y248414D01*
X324176Y239000D02*
X317891D01*
X324176Y249000D02*
X317891D01*
Y239000D02*
X317305Y239586D01*
X209306Y284000D02*
X208850D01*
X202889Y276263D02*
X167153Y312000D01*
X299854Y185000D02*
X236920Y247935D01*
X359805Y362500D02*
X347305Y350000D01*
X373805Y362500D02*
X359805D01*
X208850Y284000D02*
X158806Y334045D01*
Y336586D01*
X207664Y282358D02*
X172664Y317358D01*
X146947D01*
X167153Y312000D02*
X140477D01*
X257033Y274392D02*
X252912D01*
X192141Y252664D02*
X168977Y229500D01*
X143806D01*
X193806Y251500D02*
X158436Y216130D01*
X198780Y247846D02*
X186534Y235599D01*
X158436Y216130D02*
X152436D01*
X197366Y249260D02*
X184534Y236428D01*
X206805Y79500D02*
X184306D01*
X165805Y98000D01*
Y116500D01*
X174805Y125500D02*
X165805Y116500D01*
X174805Y125500D02*
Y130370D01*
X192306Y98500D02*
Y116000D01*
X184806Y123500D01*
Y130370D01*
X216806Y79500D02*
Y91914D01*
X216220Y92500D01*
X197306D01*
X196306Y93500D01*
Y120000D01*
X204805Y128500D02*
X196306Y120000D01*
X204805Y128500D02*
Y130370D01*
X221305Y74000D02*
X216806Y69500D01*
X221305Y74000D02*
Y122000D01*
X214806Y128500D01*
Y130370D01*
X235806Y125316D02*
X226805Y116316D01*
Y79500D02*
Y116316D01*
X235806Y125316D02*
Y130370D01*
X231805Y74500D02*
X226805Y69500D01*
X231805Y74500D02*
Y83414D01*
X232391Y84000D02*
X231805Y83414D01*
X250306Y84000D02*
X232391D01*
X250391Y83914D02*
X250306Y84000D01*
X251220Y83914D02*
X250391D01*
X252805Y85500D02*
X251220Y83914D01*
X252805Y85500D02*
Y124500D01*
X254805Y81086D02*
X253220Y79500D01*
X236806D01*
X254805Y81086D02*
Y118000D01*
X265305Y128500D02*
X254805Y118000D01*
X265305Y128500D02*
Y130370D01*
X258805Y69500D02*
X236806D01*
X282805Y93500D02*
X258805Y69500D01*
X282805Y93500D02*
Y124000D01*
X214806Y157414D02*
Y167500D01*
Y151630D02*
Y157414D01*
X186534Y196112D02*
Y235599D01*
X186805Y195841D02*
X186534Y196112D01*
X186805Y195500D02*
Y195841D01*
X214806Y167500D02*
X186805Y195500D01*
X184806Y159414D02*
Y195013D01*
Y151630D02*
Y159414D01*
X184534Y195284D02*
Y236428D01*
X184806Y195013D02*
X184534Y195284D01*
X184806Y159414D02*
X184220Y160000D01*
X175391D01*
X174805Y159414D01*
Y151630D02*
Y159414D01*
X214806Y157414D02*
X214220Y158000D01*
X205391D01*
X204805Y157414D01*
Y151630D02*
Y157414D01*
X265305Y156500D02*
Y183500D01*
X267305Y158500D02*
X265305Y156500D01*
X274720Y158500D02*
X267305D01*
X275306Y157914D02*
X274720Y158500D01*
X265305Y183500D02*
X219555Y229250D01*
X142720Y176000D02*
X142306D01*
X194292Y249014D02*
X160805Y215528D01*
Y194500D02*
Y215528D01*
Y194500D02*
X142306Y176000D01*
X136935D01*
X152436Y216130D02*
X138805Y202500D01*
X142806Y201914D02*
X142220Y202500D01*
X138805D01*
X142806Y193086D02*
Y201914D01*
X141806Y166000D02*
X136935D01*
X141891Y165914D02*
X141806Y166000D01*
X142720Y165914D02*
X141891D01*
X143306Y166500D02*
X142720Y165914D01*
X143306Y166500D02*
Y175414D01*
X142720Y176000D01*
X138805Y202500D02*
X136935D01*
X142220Y192500D02*
X136935D01*
X142806Y193086D02*
X142220Y192500D01*
X143806Y229500D02*
X136935D01*
X144220Y219500D02*
X136935D01*
X144806Y220086D02*
X144220Y219500D01*
X144806Y220086D02*
Y228500D01*
X143806Y229500D01*
X136305D02*
X135805Y230000D01*
X136935Y229500D02*
X136305D01*
X145720Y244500D02*
X136935D01*
X146306Y245086D02*
Y253914D01*
X145720Y254500D01*
X136935D01*
X70806Y190500D02*
X62805Y198500D01*
Y199000D01*
X70806Y174500D02*
Y190500D01*
X84806Y160500D02*
X70806Y174500D01*
X101805Y160500D02*
X84806D01*
X107306Y166000D02*
X101805Y160500D01*
X115676Y166000D02*
X107306D01*
X64306Y209000D02*
X62805D01*
X85805Y187500D02*
X64306Y209000D01*
X102805Y187500D02*
X85805D01*
X100805Y184000D02*
X82806D01*
X108806Y176000D02*
X100805Y184000D01*
X115676Y176000D02*
X108806D01*
X107806Y192500D02*
X102805Y187500D01*
X115676Y192500D02*
X107806D01*
X74805Y213500D02*
X57306D01*
X52806Y209000D01*
X79805Y208500D02*
X74805Y213500D01*
X101805Y208500D02*
X79805D01*
X107806Y202500D02*
X101805Y208500D01*
X115676Y202500D02*
X107806D01*
X78806Y218500D02*
X63305D01*
X62805Y219000D01*
X85306Y212000D02*
X78806Y218500D01*
X100305Y212000D02*
X85306D01*
X107806Y219500D02*
X100305Y212000D01*
X115676Y219500D02*
X107806D01*
X100805Y235500D02*
X81305D01*
X106806Y229500D02*
X100805Y235500D01*
X81305D02*
X70306Y224500D01*
X71306Y237500D02*
X62805Y229000D01*
X101805Y237500D02*
X71306D01*
X108806Y244500D02*
X101805Y237500D01*
X58306Y224500D02*
X52806Y219000D01*
X70306Y224500D02*
X58306D01*
X115676Y229500D02*
X106806D01*
X115676Y244500D02*
X108806D01*
X52806Y229000D02*
Y252500D01*
X65306Y265000D02*
X52806Y252500D01*
X97306Y265000D02*
X65306D01*
X107806Y254500D02*
X97306Y265000D01*
X115676Y254500D02*
X107806D01*
X64806Y336000D02*
Y337586D01*
X140477Y312000D02*
X129977Y322500D01*
X105806D01*
X99805Y328500D01*
X72306D01*
X64806Y336000D01*
Y337586D02*
Y343740D01*
X55391Y337000D02*
X54805Y337586D01*
Y343740D01*
X64220Y337000D02*
X55391D01*
X64806Y337586D02*
X64220Y337000D01*
X167981Y314000D02*
X141305D01*
X204304Y277678D02*
X167981Y314000D01*
X96806Y334500D02*
Y338000D01*
X141305Y314000D02*
X130806Y324500D01*
X106806D01*
X96806Y334500D01*
Y338000D02*
Y343740D01*
X87391Y337500D02*
X86805Y338086D01*
Y343740D01*
X95306Y337500D02*
X87391D01*
X95391Y337414D02*
X95306Y337500D01*
X96220Y337414D02*
X95391D01*
X96806Y338000D02*
X96220Y337414D01*
X128805Y335500D02*
Y337086D01*
X146947Y317358D02*
X128805Y335500D01*
Y337086D02*
Y343740D01*
X118806Y338000D02*
X118720Y337914D01*
Y337086D02*
Y337914D01*
X119306Y336500D02*
X118720Y337086D01*
X118806Y338000D02*
Y343740D01*
X128220Y336500D02*
X119306D01*
X128805Y337086D02*
X128220Y336500D01*
X158806Y336586D02*
Y343740D01*
X148805Y337000D02*
Y343740D01*
X149805Y336000D02*
X148805Y337000D01*
X158220Y336000D02*
X149805D01*
X158806Y336586D02*
X158220Y336000D01*
X105806Y414500D02*
Y422500D01*
Y414500D02*
X93305Y402000D01*
X45805D01*
X44306Y400500D01*
Y367500D02*
Y400500D01*
X76806Y382500D02*
Y396500D01*
Y382500D02*
X64806Y370500D01*
Y365000D02*
Y370500D01*
X115805Y405586D02*
X115220Y405000D01*
X115805Y405586D02*
Y422500D01*
X115220Y405000D02*
X107806D01*
X106306Y403500D01*
Y395000D02*
Y403500D01*
Y395000D02*
X104806Y393500D01*
X86305D01*
X80305Y387500D01*
Y379500D02*
Y387500D01*
X86805Y373000D02*
X80305Y379500D01*
X86805Y365000D02*
Y373000D01*
X120806Y428000D02*
X116305Y432500D01*
X115805D01*
X120806Y401500D02*
Y428000D01*
Y401500D02*
X118806Y399500D01*
X111477D01*
X108306Y396328D01*
Y378370D02*
Y396328D01*
Y378370D02*
X97758Y367823D01*
X95306Y364500D02*
Y366370D01*
X126305Y398086D02*
X125720Y397500D01*
X126305Y398086D02*
Y422000D01*
X125805Y422500D01*
X125720Y397500D02*
X112305D01*
X111305Y396500D01*
Y379500D02*
Y396500D01*
X118806Y372000D02*
X111305Y379500D01*
X118806Y365000D02*
Y372000D01*
X130806Y428500D02*
X126805Y432500D01*
X125805D01*
X130806Y418500D02*
Y428500D01*
X136805Y412500D02*
X130806Y418500D01*
X136805Y374870D02*
Y412500D01*
Y374870D02*
X128805Y366870D01*
Y365000D02*
Y366870D01*
X140805Y382500D02*
Y417500D01*
X135805Y422500D01*
X148805Y374500D02*
X140805Y382500D01*
X148805Y365000D02*
Y374500D01*
X165805Y416500D02*
X149805Y432500D01*
X135805D01*
X165805Y380000D02*
Y416500D01*
Y380000D02*
X158806Y373000D01*
Y365000D02*
Y373000D01*
X195306Y338500D02*
Y345240D01*
Y300500D02*
Y338500D01*
X210806Y285000D02*
X195306Y300500D01*
X185891Y338000D02*
X185306Y338586D01*
Y345240D01*
X193806Y338000D02*
X185891D01*
X193891Y337914D02*
X193806Y338000D01*
X194720Y337914D02*
X193891D01*
X195306Y338500D02*
X194720Y337914D01*
X216806Y319000D02*
Y338586D01*
X216891Y338500D02*
X216806Y338586D01*
Y319000D02*
X198720Y300914D01*
X226220Y338500D02*
X216891D01*
X226805Y339086D02*
X226220Y338500D01*
X250306Y313552D02*
Y339586D01*
X250891Y339000D02*
X250306Y339586D01*
X259306Y339000D02*
X250891D01*
X260306Y340000D02*
X259306Y339000D01*
X227132Y281854D02*
Y282026D01*
X282306Y337028D02*
X228292Y283014D01*
X282805Y337527D02*
X282306Y337028D01*
Y336086D02*
Y337028D01*
X282805Y337527D02*
Y344240D01*
X292806Y336000D02*
X292305Y335500D01*
X282891D02*
X282306Y336086D01*
X292305Y335500D02*
X282891D01*
X292806Y336000D02*
Y344240D01*
X229805Y409500D02*
Y426000D01*
Y409500D02*
X219806Y399500D01*
X182806D01*
X203805Y383000D02*
X195306Y374500D01*
X203805Y383000D02*
Y390000D01*
X182806Y399500D02*
X175805Y392500D01*
Y374500D02*
Y392500D01*
X209891Y396500D02*
X209306Y395914D01*
Y380869D02*
Y395914D01*
X216806Y373369D02*
X209306Y380869D01*
X216806Y365500D02*
Y373369D01*
X195306Y366500D02*
Y374500D01*
X240305Y397086D02*
X239720Y396500D01*
X240305Y397086D02*
Y425500D01*
X239806Y426000D01*
X239720Y396500D02*
X209891D01*
X245943Y414172D02*
Y429862D01*
X239806Y436000D01*
X247806Y412309D02*
X245943Y414172D01*
X247806Y398000D02*
Y412309D01*
Y398000D02*
X239806Y390000D01*
Y385500D02*
Y390000D01*
Y385500D02*
X226805Y372500D01*
Y365500D02*
Y372500D01*
X249805Y396000D02*
Y426000D01*
Y396000D02*
X241806Y388000D01*
Y382119D02*
Y388000D01*
X250306Y373619D02*
X241806Y382119D01*
X250306Y365500D02*
Y373619D01*
X255805Y417500D02*
Y430000D01*
X249805Y436000D01*
X266806Y406500D02*
X255805Y417500D01*
X266806Y378619D02*
Y406500D01*
Y378619D02*
X260306Y372119D01*
Y365500D02*
Y372119D01*
X275306Y410500D02*
X259805Y426000D01*
X275306Y373370D02*
Y410500D01*
X298805Y380869D02*
Y397000D01*
X259805Y436000D01*
X298805Y380869D02*
X292806Y374869D01*
Y365500D02*
Y374869D01*
X421306Y161500D02*
X413805Y154000D01*
X422305Y161500D02*
X421306D01*
X413805Y154000D02*
X407305D01*
X386305Y133000D01*
Y114500D02*
Y133000D01*
Y114500D02*
X376805Y105000D01*
X368240D01*
X358740Y114500D01*
X347935D01*
X409343Y159000D02*
X402306D01*
X411843Y161500D02*
X409343Y159000D01*
X412305Y161500D02*
X411843D01*
X402306Y159000D02*
X374805Y131500D01*
X362806D01*
X355805Y124500D01*
X347935D01*
X418305Y167500D02*
X405805D01*
X422305Y171500D02*
X418305Y167500D01*
X405805D02*
X374805Y136500D01*
X363305D01*
X355306Y144500D01*
X348435D01*
X412305Y171500D02*
X404306D01*
X396806Y164000D01*
X355306D01*
X422305Y191500D02*
X417805Y187000D01*
Y177000D02*
X403305D01*
X422305Y181500D02*
X417805Y177000D01*
X403305D02*
X393305Y167000D01*
X366240D01*
X358240Y175000D01*
X347935D01*
X412305Y181500D02*
X399805D01*
X389305Y192000D01*
X354306D01*
X417805Y187000D02*
X402806D01*
X423306Y190500D02*
X422305Y191500D01*
X402806Y187000D02*
X390806Y199000D01*
X361806D01*
X353805Y207000D01*
X347935D01*
X412305Y191500D02*
Y200000D01*
X386806Y225500D01*
X364305D01*
X355805Y217000D01*
X347935D01*
X321056Y154750D02*
X305166Y170640D01*
X252340Y243828D02*
X243487Y252681D01*
X253168Y245828D02*
X244560Y254436D01*
X255306Y245828D02*
X253168D01*
X244560Y254436D02*
X244421D01*
X319624Y273000D02*
X303621D01*
X324176D02*
X319624D01*
X252340Y241000D02*
X241823Y251517D01*
X271621Y241000D02*
X252340D01*
X303621Y273000D02*
X271621Y241000D01*
X317891Y239000D02*
X251511D01*
X240408Y250103D01*
X320806Y207000D02*
X280683D01*
X326676D02*
X320806D01*
X280683D02*
X239244Y248439D01*
X318305Y185000D02*
X299854D01*
X326676D02*
X318305D01*
X305166Y176860D02*
X236166Y245860D01*
X327176Y154500D02*
X321056D01*
X305166Y170640D02*
Y176860D01*
X297744Y181453D02*
X235251Y243946D01*
X297744Y151561D02*
Y181453D01*
X324805Y124500D02*
X297744Y151561D01*
X326676Y124500D02*
X324805D01*
X243921Y254936D02*
X242421Y256436D01*
X327176Y144500D02*
X321806D01*
X319305Y147000D01*
Y153500D01*
X320305Y154500D02*
X319305Y153500D01*
X326676Y175000D02*
X318806D01*
X317720Y176086D01*
Y184414D01*
X318305Y185000D02*
X317720Y184414D01*
X326676Y217000D02*
X319891D01*
X320806Y207000D02*
X319305Y208500D01*
Y216414D01*
X319891Y217000D02*
X319305Y216414D01*
X322305Y340000D02*
X316391D01*
X286641Y277164D02*
X255306Y245828D01*
X286641Y277164D02*
Y304336D01*
X322305Y340000D02*
X286641Y304336D01*
X324176Y340000D02*
X322305D01*
X324176Y283000D02*
X318891D01*
X318305Y282414D01*
Y274319D02*
Y282414D01*
X319624Y273000D02*
X318305Y274319D01*
X318891Y314000D02*
X318305Y313414D01*
X324176Y314000D02*
X318891D01*
X315891Y350000D02*
X315806Y349914D01*
X324176Y350000D02*
X315891D01*
X315806Y340586D02*
Y349914D01*
X316391Y340000D02*
X315806Y340586D01*
X422305Y248500D02*
X407805Y234000D01*
X422305Y248500D02*
Y280500D01*
X407805Y234000D02*
X361806D01*
X356805Y239000D01*
X345435D01*
X404806Y257500D02*
Y273000D01*
X412305Y280500D02*
X404806Y273000D01*
Y257500D02*
X403805Y256500D01*
X418305Y286500D02*
X396806D01*
X422305Y290500D02*
X418305Y286500D01*
X396806D02*
X375805Y265500D01*
X362305D01*
X354805Y273000D01*
X345435D01*
X412305Y290500D02*
X354805D01*
X418443Y296638D02*
X360668D01*
X354306Y303000D01*
X412305Y300500D02*
Y301000D01*
X394806Y318500D01*
X355805D01*
X350306Y313000D01*
X345435D01*
X390806Y328500D02*
X365305D01*
X412305Y310500D02*
Y324000D01*
X373805Y362500D01*
X422305Y300500D02*
X418443Y296638D01*
X354306Y303000D02*
X345435D01*
X365305Y328500D02*
X353805Y340000D01*
X345435D01*
X54668Y197138D02*
X52806Y199000D01*
D46*
X19805Y315500D02*
D03*
D47*
Y325500D02*
D03*
Y335500D02*
D03*
D48*
X156306Y263347D02*
D03*
X166148D02*
D03*
X175990D02*
D03*
X156306Y285000D02*
D03*
X166148D02*
D03*
D49*
X175990D02*
D03*
D50*
X430805Y427972D02*
D03*
Y403169D02*
D03*
X60495Y116890D02*
D03*
D51*
X412695Y414980D02*
D03*
X47502Y135000D02*
D03*
X72306D02*
D03*
D52*
X132306Y302291D02*
D03*
X105806Y432500D02*
D03*
X206805Y79500D02*
D03*
X229805Y436000D02*
D03*
D53*
X132306Y283000D02*
D03*
X135805Y422500D02*
D03*
X125805D02*
D03*
X115805D02*
D03*
X105806D02*
D03*
X135805Y432500D02*
D03*
X125805D02*
D03*
X115805D02*
D03*
X98305Y278500D02*
D03*
Y288500D02*
D03*
Y298500D02*
D03*
X276805Y297500D02*
D03*
Y287500D02*
D03*
X62805Y229000D02*
D03*
Y219000D02*
D03*
Y209000D02*
D03*
Y199000D02*
D03*
X52806Y229000D02*
D03*
Y219000D02*
D03*
Y209000D02*
D03*
X216806Y79500D02*
D03*
X226805D02*
D03*
X236806D02*
D03*
X206805Y69500D02*
D03*
X216806D02*
D03*
X226805D02*
D03*
X236806D02*
D03*
X422305Y181500D02*
D03*
Y171500D02*
D03*
Y161500D02*
D03*
X412305Y191500D02*
D03*
Y181500D02*
D03*
Y171500D02*
D03*
Y161500D02*
D03*
X422305Y300500D02*
D03*
Y290500D02*
D03*
Y280500D02*
D03*
X412305Y310500D02*
D03*
Y300500D02*
D03*
Y290500D02*
D03*
Y280500D02*
D03*
X239806Y436000D02*
D03*
X249805D02*
D03*
X259805D02*
D03*
X229805Y426000D02*
D03*
X239806D02*
D03*
X249805D02*
D03*
X259805D02*
D03*
D54*
X98305Y308500D02*
D03*
X276805Y307500D02*
D03*
X52806Y199000D02*
D03*
X422305Y191500D02*
D03*
Y310500D02*
D03*
D55*
X6306Y464500D02*
D03*
X447806Y46500D02*
D03*
D56*
X212556Y220750D02*
D03*
X176805Y273500D02*
D03*
X111805Y302291D02*
D03*
X150305Y277500D02*
D03*
X224306Y262500D02*
D03*
X72109Y139000D02*
D03*
X72609Y139500D02*
D03*
X198805Y237500D02*
D03*
X211806Y251000D02*
D03*
X215305Y229000D02*
D03*
X219555Y229250D02*
D03*
X196306Y233000D02*
D03*
X252306Y283000D02*
D03*
X239371Y236065D02*
D03*
X243305Y278500D02*
D03*
X230805Y291000D02*
D03*
X189805Y282500D02*
D03*
X257033Y274392D02*
D03*
D57*
X357306Y244500D02*
D03*
X192306Y98500D02*
D03*
X270305Y121500D02*
D03*
X240806Y120740D02*
D03*
X179806Y121500D02*
D03*
X209805Y122000D02*
D03*
X82806Y184000D02*
D03*
X104806Y171000D02*
D03*
Y196500D02*
D03*
X104306Y224500D02*
D03*
X104806Y249000D02*
D03*
X76806Y396500D02*
D03*
X59306Y374000D02*
D03*
X91805Y373319D02*
D03*
X123305Y374500D02*
D03*
X154806Y375000D02*
D03*
X203805Y390000D02*
D03*
X190305Y377500D02*
D03*
X221806Y376000D02*
D03*
X255306Y377000D02*
D03*
X287806D02*
D03*
X356306Y119000D02*
D03*
X357306Y149500D02*
D03*
Y180000D02*
D03*
Y212000D02*
D03*
Y277500D02*
D03*
X391806Y328500D02*
D03*
X357306Y309000D02*
D03*
Y345000D02*
D03*
M02*
