%TF.GenerationSoftware,Altium Limited,Altium Designer,19.1.5 (86)*%
G04 Layer_Physical_Order=2*
G04 Layer_Color=16711680*
%FSLAX45Y45*%
%MOMM*%
%TF.FileFunction,Copper,L2,Bot,Signal*%
%TF.Part,Single*%
G01*
G75*
%TA.AperFunction,SMDPad,CuDef*%
%ADD10R,1.30000X0.70000*%
%ADD11R,2.00000X2.00000*%
%ADD12O,0.60000X1.10000*%
%ADD13R,0.60000X1.10000*%
%ADD14R,0.60000X0.50000*%
%TA.AperFunction,Conductor*%
%ADD15C,0.25400*%
%ADD16C,0.17780*%
%TA.AperFunction,NonConductor*%
%ADD17C,0.25400*%
%TA.AperFunction,ComponentPad*%
%ADD18R,1.50000X1.50000*%
%ADD19C,1.50000*%
%ADD20C,2.00000*%
%ADD21R,2.00000X2.00000*%
%ADD22R,2.70000X1.20000*%
%ADD23R,1.20000X2.70000*%
%ADD24R,1.20000X1.20000*%
%ADD25C,1.20000*%
%ADD26R,1.20000X1.20000*%
%TA.AperFunction,ViaPad*%
%ADD27C,0.45720*%
%ADD28C,1.27000*%
G36*
X17818100Y11696700D02*
Y1409700D01*
X17780000Y1371600D01*
X6845300D01*
Y11709400D01*
X6870700Y11734800D01*
X17818100Y11696700D01*
D02*
G37*
%LPC*%
G36*
X11950700Y11147591D02*
X11898946Y11126154D01*
X11877509Y11074400D01*
X11898946Y11022646D01*
X11950700Y11001209D01*
X12002454Y11022646D01*
X12023891Y11074400D01*
X12002454Y11126154D01*
X11950700Y11147591D01*
D02*
G37*
G36*
X11696700D02*
X11644946Y11126154D01*
X11623509Y11074400D01*
X11644946Y11022646D01*
X11696700Y11001209D01*
X11748454Y11022646D01*
X11769891Y11074400D01*
X11748454Y11126154D01*
X11696700Y11147591D01*
D02*
G37*
G36*
X11442700D02*
X11390946Y11126154D01*
X11369509Y11074400D01*
X11390946Y11022646D01*
X11442700Y11001209D01*
X11494454Y11022646D01*
X11515891Y11074400D01*
X11494454Y11126154D01*
X11442700Y11147591D01*
D02*
G37*
G36*
X15100301Y11058691D02*
X15048546Y11037254D01*
X15027109Y10985500D01*
X15048546Y10933746D01*
X15100301Y10912309D01*
X15152054Y10933746D01*
X15173491Y10985500D01*
X15152054Y11037254D01*
X15100301Y11058691D01*
D02*
G37*
G36*
X14846300D02*
X14794547Y11037254D01*
X14773109Y10985500D01*
X14794547Y10933746D01*
X14846300Y10912309D01*
X14898055Y10933746D01*
X14919492Y10985500D01*
X14898055Y11037254D01*
X14846300Y11058691D01*
D02*
G37*
G36*
X14592300D02*
X14540546Y11037254D01*
X14519109Y10985500D01*
X14540546Y10933746D01*
X14592300Y10912309D01*
X14644054Y10933746D01*
X14665491Y10985500D01*
X14644054Y11037254D01*
X14592300Y11058691D01*
D02*
G37*
G36*
X7259700Y10955900D02*
X7112000D01*
Y10883200D01*
X7259700D01*
Y10955900D01*
D02*
G37*
G36*
X7086600D02*
X6938900D01*
Y10883200D01*
X7086600D01*
Y10955900D01*
D02*
G37*
G36*
X7259700Y10857800D02*
X7112000D01*
Y10785100D01*
X7259700D01*
Y10857800D01*
D02*
G37*
G36*
X7086600D02*
X6938900D01*
Y10785100D01*
X7086600D01*
Y10857800D01*
D02*
G37*
G36*
X12204700Y10893591D02*
X12152946Y10872154D01*
X12131509Y10820400D01*
X12152946Y10768646D01*
X12204700Y10747209D01*
X12256454Y10768646D01*
X12277891Y10820400D01*
X12256454Y10872154D01*
X12204700Y10893591D01*
D02*
G37*
G36*
X11950700D02*
X11898946Y10872154D01*
X11877509Y10820400D01*
X11898946Y10768646D01*
X11950700Y10747209D01*
X12002454Y10768646D01*
X12023891Y10820400D01*
X12002454Y10872154D01*
X11950700Y10893591D01*
D02*
G37*
G36*
X11696700D02*
X11644946Y10872154D01*
X11623509Y10820400D01*
X11644946Y10768646D01*
X11696700Y10747209D01*
X11748454Y10768646D01*
X11769891Y10820400D01*
X11748454Y10872154D01*
X11696700Y10893591D01*
D02*
G37*
G36*
X11442700D02*
X11390946Y10872154D01*
X11369509Y10820400D01*
X11390946Y10768646D01*
X11442700Y10747209D01*
X11494454Y10768646D01*
X11515891Y10820400D01*
X11494454Y10872154D01*
X11442700Y10893591D01*
D02*
G37*
G36*
X15354300Y10804691D02*
X15302547Y10783254D01*
X15281110Y10731500D01*
X15302547Y10679746D01*
X15354300Y10658309D01*
X15406055Y10679746D01*
X15427492Y10731500D01*
X15406055Y10783254D01*
X15354300Y10804691D01*
D02*
G37*
G36*
X15100301D02*
X15048546Y10783254D01*
X15027109Y10731500D01*
X15048546Y10679746D01*
X15100301Y10658309D01*
X15152054Y10679746D01*
X15173491Y10731500D01*
X15152054Y10783254D01*
X15100301Y10804691D01*
D02*
G37*
G36*
X14846300D02*
X14794547Y10783254D01*
X14773109Y10731500D01*
X14794547Y10679746D01*
X14846300Y10658309D01*
X14898055Y10679746D01*
X14919492Y10731500D01*
X14898055Y10783254D01*
X14846300Y10804691D01*
D02*
G37*
G36*
X14592300D02*
X14540546Y10783254D01*
X14519109Y10731500D01*
X14540546Y10679746D01*
X14592300Y10658309D01*
X14644054Y10679746D01*
X14665491Y10731500D01*
X14644054Y10783254D01*
X14592300Y10804691D01*
D02*
G37*
G36*
X8454620Y10554720D02*
X8309380D01*
Y10469480D01*
X8454620D01*
Y10483756D01*
X8766580D01*
Y10456780D01*
X8911820D01*
Y10542020D01*
X8766580D01*
Y10527744D01*
X8454620D01*
Y10554720D01*
D02*
G37*
G36*
X7626920Y10683120D02*
X7491680D01*
Y10397880D01*
X7626920D01*
Y10683120D01*
D02*
G37*
G36*
X8929600Y10439800D02*
X8851900D01*
Y10392100D01*
X8929600D01*
Y10439800D01*
D02*
G37*
G36*
X8826500D02*
X8748800D01*
Y10392100D01*
X8826500D01*
Y10439800D01*
D02*
G37*
G36*
X8929600Y10366700D02*
X8851900D01*
Y10319000D01*
X8929600D01*
Y10366700D01*
D02*
G37*
G36*
X8826500D02*
X8748800D01*
Y10319000D01*
X8826500D01*
Y10366700D01*
D02*
G37*
G36*
X15421919Y11053120D02*
X15286681D01*
Y10917880D01*
X15421919D01*
Y10963506D01*
X15878590D01*
X16068906Y10773190D01*
Y10138970D01*
X16036467Y10125533D01*
X16013921Y10071100D01*
X16036467Y10016667D01*
X16090900Y9994120D01*
X16145332Y10016667D01*
X16167880Y10071100D01*
X16145332Y10125533D01*
X16112894Y10138970D01*
Y10782300D01*
X16106451Y10797852D01*
X15903252Y11001052D01*
X15887700Y11007494D01*
X15421919D01*
Y11053120D01*
D02*
G37*
G36*
X12272320Y11142020D02*
X12137080D01*
Y11006780D01*
X12241216D01*
X12843106Y10404890D01*
Y9973870D01*
X12810667Y9960433D01*
X12788120Y9906000D01*
X12810667Y9851567D01*
X12865100Y9829020D01*
X12919533Y9851567D01*
X12942081Y9906000D01*
X12919533Y9960433D01*
X12887094Y9973870D01*
Y10414000D01*
X12880652Y10429552D01*
X12272320Y11037884D01*
Y11142020D01*
D02*
G37*
G36*
X8454620Y10434720D02*
X8309380D01*
Y10414094D01*
X8070700D01*
X8055148Y10407652D01*
X7923390Y10275894D01*
X7241920D01*
Y10308120D01*
X6956680D01*
Y10172880D01*
X7241920D01*
Y10231906D01*
X7932500D01*
X7948052Y10238348D01*
X8079811Y10370106D01*
X8309380D01*
Y10349480D01*
X8423516D01*
X9212748Y9560248D01*
X9217227Y9558392D01*
X9220207Y9543411D01*
X8937948Y9261152D01*
X8931506Y9245600D01*
Y8825609D01*
X8911767Y8817433D01*
X8889220Y8763000D01*
X8911767Y8708567D01*
X8937856Y8697761D01*
Y7913839D01*
X8911767Y7903033D01*
X8889220Y7848600D01*
X8911767Y7794167D01*
X8931506Y7785991D01*
Y7111109D01*
X8911767Y7102933D01*
X8889220Y7048500D01*
X8911767Y6994067D01*
X8931506Y6985891D01*
Y6272909D01*
X8911767Y6264733D01*
X8889220Y6210300D01*
X8911767Y6155867D01*
X8925156Y6150321D01*
Y5444779D01*
X8911767Y5439233D01*
X8889220Y5384800D01*
X8911767Y5330367D01*
X8925156Y5324821D01*
Y4631979D01*
X8911767Y4626433D01*
X8889220Y4572000D01*
X8911767Y4517567D01*
X8926906Y4511296D01*
Y3858004D01*
X8911767Y3851733D01*
X8889220Y3797300D01*
X8911767Y3742867D01*
X8925918Y3737005D01*
Y3049876D01*
X8914620Y3022600D01*
X8937167Y2968167D01*
X8944206Y2965251D01*
Y2603500D01*
X8950648Y2587948D01*
X9179248Y2359348D01*
X9194800Y2352906D01*
X10401300D01*
X10416852Y2359348D01*
X10569252Y2511748D01*
X10575694Y2527300D01*
Y2899190D01*
X10740610Y3064106D01*
X11108130D01*
X11121567Y3031667D01*
X11176000Y3009120D01*
X11230433Y3031667D01*
X11243870Y3064106D01*
X11849436D01*
X11870867Y3012367D01*
X11925300Y2989820D01*
X11979733Y3012367D01*
X12002280Y3066800D01*
X12004723Y3070456D01*
X12647461D01*
X12658267Y3044367D01*
X12712700Y3021820D01*
X12767133Y3044367D01*
X12777939Y3070456D01*
X13404201D01*
X13420267Y3031667D01*
X13474699Y3009120D01*
X13529134Y3031667D01*
X13542570Y3064106D01*
X14986000D01*
X15001552Y3070548D01*
X15395251Y3464248D01*
X15401694Y3479800D01*
Y4275530D01*
X15434132Y4288967D01*
X15456680Y4343400D01*
X15434132Y4397833D01*
X15401694Y4411270D01*
Y4923230D01*
X15434132Y4936667D01*
X15456680Y4991100D01*
X15434132Y5045533D01*
X15408044Y5056339D01*
Y5631800D01*
X15446832Y5647867D01*
X15469380Y5702300D01*
X15446832Y5756733D01*
X15408044Y5772800D01*
Y6259361D01*
X15434132Y6270167D01*
X15456680Y6324600D01*
X15434132Y6379033D01*
X15379700Y6401580D01*
X15325267Y6379033D01*
X15302721Y6324600D01*
X15325267Y6270167D01*
X15364056Y6254100D01*
Y5767539D01*
X15337967Y5756733D01*
X15315421Y5702300D01*
X15337967Y5647867D01*
X15364056Y5637061D01*
Y5061600D01*
X15325267Y5045533D01*
X15302721Y4991100D01*
X15325267Y4936667D01*
X15357706Y4923230D01*
Y4411270D01*
X15325267Y4397833D01*
X15302721Y4343400D01*
X15325267Y4288967D01*
X15357706Y4275530D01*
Y3488910D01*
X14976891Y3108094D01*
X13542570D01*
X13529134Y3140533D01*
X13474699Y3163080D01*
X13420267Y3140533D01*
X13409460Y3114444D01*
X12783200D01*
X12767133Y3153233D01*
X12712700Y3175780D01*
X12658267Y3153233D01*
X12642200Y3114444D01*
X11982545D01*
X11979733Y3121233D01*
X11925300Y3143780D01*
X11870867Y3121233D01*
X11865425Y3108094D01*
X11243870D01*
X11230433Y3140533D01*
X11176000Y3163080D01*
X11121567Y3140533D01*
X11108130Y3108094D01*
X10731500D01*
X10715948Y3101652D01*
X10538148Y2923852D01*
X10531706Y2908300D01*
Y2536410D01*
X10392190Y2396894D01*
X9203910D01*
X8988194Y2612610D01*
Y2943344D01*
X8991600Y2945620D01*
X9046033Y2968167D01*
X9068580Y3022600D01*
X9046033Y3077033D01*
X8991600Y3099580D01*
X8980466Y3094968D01*
X8969907Y3102024D01*
Y3721856D01*
X9020633Y3742867D01*
X9043180Y3797300D01*
X9020633Y3851733D01*
X8970894Y3872335D01*
Y4496965D01*
X9020633Y4517567D01*
X9043180Y4572000D01*
X9020633Y4626433D01*
X8969144Y4647760D01*
Y5309040D01*
X9020633Y5330367D01*
X9043180Y5384800D01*
X9020633Y5439233D01*
X8969144Y5460560D01*
Y6134540D01*
X9020633Y6155867D01*
X9043180Y6210300D01*
X9020633Y6264733D01*
X8975494Y6283430D01*
Y6975370D01*
X9020633Y6994067D01*
X9043180Y7048500D01*
X9020633Y7102933D01*
X8975494Y7121630D01*
Y7775470D01*
X9020633Y7794167D01*
X9043180Y7848600D01*
X9020633Y7903033D01*
X8981844Y7919100D01*
Y8692500D01*
X9020633Y8708567D01*
X9043180Y8763000D01*
X9020633Y8817433D01*
X8975494Y8836130D01*
Y9236490D01*
X9292810Y9553806D01*
X10663630D01*
X10677067Y9521367D01*
X10731500Y9498820D01*
X10785933Y9521367D01*
X10799370Y9553806D01*
X11489130D01*
X11502567Y9521367D01*
X11557000Y9498820D01*
X11611433Y9521367D01*
X11619609Y9541106D01*
X12334770D01*
X12353467Y9495967D01*
X12407900Y9473420D01*
X12462333Y9495967D01*
X12483660Y9547456D01*
X13148021D01*
X13153568Y9534067D01*
X13208000Y9511520D01*
X13262433Y9534067D01*
X13275870Y9566506D01*
X14020406D01*
X14041270Y9545642D01*
X14032719Y9525000D01*
X14055267Y9470567D01*
X14109700Y9448020D01*
X14164133Y9470567D01*
X14174939Y9496656D01*
X14839301D01*
X14855367Y9457867D01*
X14909801Y9435320D01*
X14964233Y9457867D01*
X14971455Y9475306D01*
X15635817D01*
X15655467Y9427867D01*
X15709900Y9405320D01*
X15764333Y9427867D01*
X15781352Y9468956D01*
X16471114D01*
X16480968Y9445167D01*
X16535400Y9422620D01*
X16589833Y9445167D01*
X16612379Y9499600D01*
X16589833Y9554033D01*
X16535400Y9576580D01*
X16480968Y9554033D01*
X16463948Y9512944D01*
X15774187D01*
X15764333Y9536733D01*
X15709900Y9559280D01*
X15655467Y9536733D01*
X15648244Y9519294D01*
X14983884D01*
X14964233Y9566733D01*
X14909801Y9589280D01*
X14855367Y9566733D01*
X14844560Y9540644D01*
X14180200D01*
X14164133Y9579433D01*
X14109700Y9601980D01*
X14065463Y9583656D01*
X14045068Y9604052D01*
X14029517Y9610494D01*
X13275870D01*
X13262433Y9642933D01*
X13208000Y9665480D01*
X13153568Y9642933D01*
X13132240Y9591444D01*
X12467879D01*
X12462333Y9604833D01*
X12407900Y9627380D01*
X12353467Y9604833D01*
X12345291Y9585094D01*
X11630130D01*
X11611433Y9630233D01*
X11557000Y9652780D01*
X11502567Y9630233D01*
X11489130Y9597794D01*
X10799370D01*
X10785933Y9630233D01*
X10731500Y9652780D01*
X10677067Y9630233D01*
X10663630Y9597794D01*
X9237410D01*
X8454620Y10380584D01*
Y10434720D01*
D02*
G37*
G36*
X17538699Y8611127D02*
X17475465Y8584935D01*
X17449274Y8521700D01*
X17475465Y8458465D01*
X17538699Y8432273D01*
X17601935Y8458465D01*
X17628127Y8521700D01*
X17601935Y8584935D01*
X17538699Y8611127D01*
D02*
G37*
G36*
X17551401Y8371112D02*
Y8280400D01*
X17642113D01*
X17615543Y8344543D01*
X17551401Y8371112D01*
D02*
G37*
G36*
X17525999D02*
X17461858Y8344543D01*
X17435287Y8280400D01*
X17525999D01*
Y8371112D01*
D02*
G37*
G36*
X8089900Y8420880D02*
X8035467Y8398333D01*
X8020322Y8361770D01*
X7353300D01*
X7340664Y8356536D01*
X7302564Y8318436D01*
X7297330Y8305800D01*
Y7954320D01*
X7247580D01*
Y7819080D01*
X7382820D01*
Y7954320D01*
X7333070D01*
Y8298398D01*
X7360702Y8326030D01*
X8020322D01*
X8035467Y8289467D01*
X8089900Y8266920D01*
X8144333Y8289467D01*
X8166880Y8343900D01*
X8144333Y8398333D01*
X8089900Y8420880D01*
D02*
G37*
G36*
X17642113Y8255000D02*
X17551401D01*
Y8164288D01*
X17615543Y8190857D01*
X17642113Y8255000D01*
D02*
G37*
G36*
X17525999D02*
X17435287D01*
X17461858Y8190857D01*
X17525999Y8164288D01*
Y8255000D01*
D02*
G37*
G36*
X16481020Y8090920D02*
X16335780D01*
Y8005680D01*
X16481020D01*
Y8024080D01*
X16665981D01*
Y7992980D01*
X16811220D01*
Y8078220D01*
X16665981D01*
Y8059820D01*
X16481020D01*
Y8090920D01*
D02*
G37*
G36*
X16498801Y7988700D02*
X16421100D01*
Y7941000D01*
X16498801D01*
Y7988700D01*
D02*
G37*
G36*
X16395700D02*
X16317999D01*
Y7941000D01*
X16395700D01*
Y7988700D01*
D02*
G37*
G36*
X17621320Y8096320D02*
X17456081D01*
Y7931080D01*
X17621320D01*
Y8096320D01*
D02*
G37*
G36*
X16498801Y7915600D02*
X16421100D01*
Y7867900D01*
X16498801D01*
Y7915600D01*
D02*
G37*
G36*
X16395700D02*
X16317999D01*
Y7867900D01*
X16395700D01*
Y7915600D01*
D02*
G37*
G36*
X11926800Y7867400D02*
X11849100D01*
Y7819700D01*
X11926800D01*
Y7867400D01*
D02*
G37*
G36*
X11823700D02*
X11746000D01*
Y7819700D01*
X11823700D01*
Y7867400D01*
D02*
G37*
G36*
X7569200Y7959891D02*
X7517446Y7938454D01*
X7496009Y7886700D01*
X7517446Y7834946D01*
X7569200Y7813509D01*
X7620954Y7834946D01*
X7642391Y7886700D01*
X7620954Y7938454D01*
X7569200Y7959891D01*
D02*
G37*
G36*
X12307800Y7858200D02*
X12230100D01*
Y7810500D01*
X12307800D01*
Y7858200D01*
D02*
G37*
G36*
X12204700D02*
X12127000D01*
Y7810500D01*
X12204700D01*
Y7858200D01*
D02*
G37*
G36*
X11926800Y7794300D02*
X11849100D01*
Y7746600D01*
X11926800D01*
Y7794300D01*
D02*
G37*
G36*
X11823700D02*
X11746000D01*
Y7746600D01*
X11823700D01*
Y7794300D01*
D02*
G37*
G36*
X12307800Y7785100D02*
X12230100D01*
Y7737400D01*
X12307800D01*
Y7785100D01*
D02*
G37*
G36*
X12204700D02*
X12127000D01*
Y7737400D01*
X12204700D01*
Y7785100D01*
D02*
G37*
G36*
X14748820Y7745820D02*
X14613580D01*
Y7696070D01*
X14510800D01*
X14498164Y7690836D01*
X14136099Y7328771D01*
X14071600Y7355487D01*
X13989230Y7321369D01*
X13955113Y7239000D01*
X13989230Y7156631D01*
X14071600Y7122513D01*
X14145825Y7153258D01*
X14153020Y7142491D01*
X14058965Y7048436D01*
X14053729Y7035800D01*
Y6798085D01*
X13989230Y6771369D01*
X13955113Y6689000D01*
X13989230Y6606631D01*
X14071600Y6572513D01*
X14153969Y6606631D01*
X14188087Y6689000D01*
X14153969Y6771369D01*
X14089470Y6798085D01*
Y7028398D01*
X14231403Y7170330D01*
X14615411D01*
X14629446Y7136446D01*
X14681200Y7115009D01*
X14732954Y7136446D01*
X14754391Y7188200D01*
X14740356Y7222084D01*
X14829967Y7311695D01*
X14841701Y7306834D01*
Y7302500D01*
X14897099D01*
X14952499D01*
Y7340200D01*
X14911142D01*
X14908617Y7352900D01*
X14909737Y7353364D01*
X14914970Y7366000D01*
X14909737Y7378636D01*
X14897099Y7383870D01*
X14859000D01*
X14846364Y7378636D01*
X14715083Y7247356D01*
X14681200Y7261391D01*
X14629446Y7239954D01*
X14615411Y7206070D01*
X14224001D01*
X14211365Y7200836D01*
X14168109Y7157581D01*
X14157343Y7164775D01*
X14188087Y7239000D01*
X14161371Y7303499D01*
X14518202Y7660330D01*
X14613580D01*
Y7610580D01*
X14748820D01*
Y7660330D01*
X14868188D01*
X14879800Y7657700D01*
Y7620000D01*
X14935201D01*
X14990601D01*
Y7652930D01*
X15183260D01*
X15201900Y7645209D01*
X15225227Y7654872D01*
X15234891Y7678200D01*
X15225227Y7701528D01*
X15201900Y7711191D01*
X15178572Y7701528D01*
X15173245Y7688670D01*
X14947900D01*
X14935265Y7683436D01*
X14931081Y7687834D01*
X14929836Y7690836D01*
X14917200Y7696070D01*
X14748820D01*
Y7745820D01*
D02*
G37*
G36*
X7569200Y7705891D02*
X7517446Y7684454D01*
X7496009Y7632700D01*
X7517446Y7580946D01*
X7569200Y7559509D01*
X7620954Y7580946D01*
X7642391Y7632700D01*
X7620954Y7684454D01*
X7569200Y7705891D01*
D02*
G37*
G36*
X7315200D02*
X7263446Y7684454D01*
X7242009Y7632700D01*
X7263446Y7580946D01*
X7315200Y7559509D01*
X7366954Y7580946D01*
X7388391Y7632700D01*
X7366954Y7684454D01*
X7315200Y7705891D01*
D02*
G37*
G36*
X14990601Y7594600D02*
X14947900D01*
Y7556900D01*
X14990601D01*
Y7594600D01*
D02*
G37*
G36*
X14922501D02*
X14879800D01*
Y7556900D01*
X14922501D01*
Y7594600D01*
D02*
G37*
G36*
X15544800Y7655091D02*
X15493047Y7633654D01*
X15471609Y7581900D01*
X15493047Y7530146D01*
X15544800Y7508709D01*
X15596555Y7530146D01*
X15617992Y7581900D01*
X15596555Y7633654D01*
X15544800Y7655091D01*
D02*
G37*
G36*
X16811220Y7958220D02*
X16665981D01*
Y7872980D01*
X16716606D01*
Y7577910D01*
X16637199Y7498504D01*
X16512852Y7622852D01*
X16497301Y7629294D01*
X15782510D01*
X15612421Y7799384D01*
Y7903520D01*
X15477180D01*
Y7857894D01*
X13881100D01*
X13865549Y7851452D01*
X13222034Y7207939D01*
X13220700Y7208491D01*
X13219366Y7207939D01*
X12880652Y7546652D01*
X12865100Y7553094D01*
X12319000D01*
X12303448Y7546652D01*
X12213027Y7456232D01*
X12201294Y7461092D01*
Y7635180D01*
X12290020D01*
Y7720420D01*
X12144780D01*
Y7689944D01*
X11909020D01*
Y7729620D01*
X11763780D01*
Y7644380D01*
X11909020D01*
Y7645956D01*
X12144780D01*
Y7635180D01*
X12157306D01*
Y7415281D01*
X12155972Y7414728D01*
X12146309Y7391400D01*
X12146861Y7390066D01*
X11863134Y7106339D01*
X11861800Y7106891D01*
X11838472Y7097228D01*
X11828809Y7073900D01*
X11829361Y7072566D01*
X11592248Y6835452D01*
X11585806Y6819900D01*
Y6350000D01*
X11592248Y6334448D01*
X11896913Y6029783D01*
X11892053Y6018049D01*
X11431655D01*
X11416103Y6011607D01*
X11371016Y5966520D01*
X11293880D01*
Y5940194D01*
X11147020D01*
Y5973520D01*
X11001780D01*
Y5888280D01*
X11147020D01*
Y5896206D01*
X11293880D01*
Y5881280D01*
X11439120D01*
Y5966520D01*
X11448696Y5974061D01*
X11937864D01*
X11938417Y5972727D01*
X11961745Y5963064D01*
X11963079Y5963617D01*
X12163748Y5762948D01*
X12163748Y5762948D01*
X12252648Y5674048D01*
X12268200Y5667606D01*
X12827000D01*
X12842552Y5674048D01*
X13033072Y5864568D01*
X13044806Y5859708D01*
Y5677078D01*
X12941364Y5573636D01*
X12936130Y5561000D01*
Y5195320D01*
X12881380D01*
Y5110080D01*
X13026620D01*
Y5195320D01*
X12971870D01*
Y5553598D01*
X13034747Y5616475D01*
X13046480Y5611615D01*
Y5608880D01*
X13191721D01*
Y5627756D01*
X13440179D01*
Y5605380D01*
X13585420D01*
Y5647580D01*
X13585594Y5648000D01*
X13585420Y5648421D01*
Y5690620D01*
X13440179D01*
Y5671744D01*
X13191721D01*
Y5694120D01*
X13088794D01*
Y5901502D01*
X13085234Y5910095D01*
X13088591Y5918200D01*
X13078928Y5941528D01*
X13055600Y5951191D01*
X13032272Y5941528D01*
X13022609Y5918200D01*
X13023161Y5916866D01*
X12817889Y5711594D01*
X12277310D01*
X12194852Y5794052D01*
X12194852Y5794052D01*
X11994184Y5994721D01*
X11994736Y5996055D01*
X11985073Y6019384D01*
X11961745Y6029047D01*
X11960411Y6028494D01*
X11629794Y6359110D01*
Y6810790D01*
X11860466Y7041461D01*
X11861800Y7040909D01*
X11885128Y7050572D01*
X11894791Y7073900D01*
X11894239Y7075234D01*
X12177966Y7358961D01*
X12179300Y7358409D01*
X12202628Y7368072D01*
X12212291Y7391400D01*
X12211739Y7392734D01*
X12328110Y7509106D01*
X12855991D01*
X13188261Y7176834D01*
X13187709Y7175500D01*
X13197372Y7152172D01*
X13220700Y7142509D01*
X13244028Y7152172D01*
X13253691Y7175500D01*
X13253139Y7176834D01*
X13890210Y7813906D01*
X15477180D01*
Y7768280D01*
X15581316D01*
X15757848Y7591748D01*
X15773399Y7585306D01*
X16488190D01*
X16593953Y7479542D01*
X16583580Y7454500D01*
Y7404500D01*
X16595506Y7375707D01*
X16624300Y7363781D01*
X16653093Y7375707D01*
X16665021Y7404500D01*
Y7454500D01*
X16662202Y7461299D01*
X16754152Y7553248D01*
X16760594Y7568800D01*
Y7872980D01*
X16811220D01*
Y7958220D01*
D02*
G37*
G36*
X16434300Y7495219D02*
X16405507Y7483293D01*
X16393581Y7454500D01*
Y7404500D01*
X16395363Y7400197D01*
X16375536Y7380370D01*
X16125420D01*
Y7405120D01*
X15980180D01*
Y7319880D01*
X16125420D01*
Y7344630D01*
X16382938D01*
X16395573Y7349864D01*
X16416757Y7371047D01*
X16434300Y7363781D01*
X16463094Y7375707D01*
X16475018Y7404500D01*
Y7454500D01*
X16463094Y7483293D01*
X16434300Y7495219D01*
D02*
G37*
G36*
X11023600Y7389676D02*
Y7315200D01*
X11098076D01*
X11076262Y7367862D01*
X11023600Y7389676D01*
D02*
G37*
G36*
X10998200D02*
X10945538Y7367862D01*
X10923724Y7315200D01*
X10998200D01*
Y7389676D01*
D02*
G37*
G36*
X7569200Y7451891D02*
X7517446Y7430454D01*
X7496009Y7378700D01*
X7517446Y7326946D01*
X7569200Y7305509D01*
X7620954Y7326946D01*
X7642391Y7378700D01*
X7620954Y7430454D01*
X7569200Y7451891D01*
D02*
G37*
G36*
X7315200D02*
X7263446Y7430454D01*
X7242009Y7378700D01*
X7263446Y7326946D01*
X7315200Y7305509D01*
X7366954Y7326946D01*
X7388391Y7378700D01*
X7366954Y7430454D01*
X7315200Y7451891D01*
D02*
G37*
G36*
X16143201Y7302900D02*
X16065500D01*
Y7255200D01*
X16143201D01*
Y7302900D01*
D02*
G37*
G36*
X16040100D02*
X15962399D01*
Y7255200D01*
X16040100D01*
Y7302900D01*
D02*
G37*
G36*
X15544800Y7401091D02*
X15493047Y7379654D01*
X15479012Y7345770D01*
X15101744D01*
X15089108Y7340536D01*
X14814941Y7066370D01*
X14249590D01*
X14247328Y7071828D01*
X14224001Y7081491D01*
X14200671Y7071828D01*
X14191010Y7048500D01*
X14200671Y7025172D01*
X14224001Y7015509D01*
X14247328Y7025172D01*
X14249590Y7030630D01*
X14822343D01*
X14834979Y7035864D01*
X15109146Y7310030D01*
X15479012D01*
X15493047Y7276146D01*
X15544800Y7254709D01*
X15596555Y7276146D01*
X15617992Y7327900D01*
X15596555Y7379654D01*
X15544800Y7401091D01*
D02*
G37*
G36*
X14952499Y7277100D02*
X14909801D01*
Y7239400D01*
X14952499D01*
Y7277100D01*
D02*
G37*
G36*
X14884399D02*
X14841701D01*
Y7239400D01*
X14884399D01*
Y7277100D01*
D02*
G37*
G36*
X11098076Y7289800D02*
X11023600D01*
Y7215324D01*
X11076262Y7237138D01*
X11098076Y7289800D01*
D02*
G37*
G36*
X10998200D02*
X10923724D01*
X10945538Y7237138D01*
X10998200Y7215324D01*
Y7289800D01*
D02*
G37*
G36*
X16143201Y7229800D02*
X16065500D01*
Y7182100D01*
X16143201D01*
Y7229800D01*
D02*
G37*
G36*
X16040100D02*
X15962399D01*
Y7182100D01*
X16040100D01*
Y7229800D01*
D02*
G37*
G36*
X16542000Y7249204D02*
Y7169500D01*
X16516600D01*
Y7249204D01*
X16486899Y7236901D01*
X16478526Y7216691D01*
X16465826D01*
X16463094Y7223293D01*
X16434300Y7235219D01*
X16405507Y7223293D01*
X16393581Y7194500D01*
Y7144500D01*
X16405507Y7115707D01*
X16405685Y7115633D01*
Y7008324D01*
X16401285Y6997700D01*
X16407727Y6982148D01*
X16423279Y6975706D01*
X16600311D01*
X17300806Y6275211D01*
Y4263610D01*
X17288290Y4251094D01*
X16459200D01*
X16443648Y4244652D01*
X16181947Y3982952D01*
X16175507Y3967400D01*
Y3571620D01*
X16137579D01*
Y3286380D01*
X16272820D01*
Y3571620D01*
X16219495D01*
Y3958290D01*
X16468311Y4207106D01*
X17297400D01*
X17312952Y4213548D01*
X17338351Y4238948D01*
X17344794Y4254500D01*
Y6284321D01*
X17338351Y6299873D01*
X16640247Y6997979D01*
X16646294Y7012579D01*
Y7106880D01*
X16661920D01*
Y7153506D01*
X17085080D01*
Y7120180D01*
X17230321D01*
Y7205420D01*
X17085080D01*
Y7197494D01*
X16661920D01*
Y7232120D01*
X16586681D01*
Y7232120D01*
X16574670Y7229731D01*
X16571701Y7236901D01*
X16542000Y7249204D01*
D02*
G37*
G36*
X11078520Y7878120D02*
X10943280D01*
Y7742880D01*
X11047416D01*
X11600761Y7189534D01*
X11600209Y7188200D01*
X11609872Y7164872D01*
X11633200Y7155209D01*
X11656528Y7164872D01*
X11666191Y7188200D01*
X11656528Y7211528D01*
X11633200Y7221191D01*
X11631866Y7220639D01*
X11078520Y7773984D01*
Y7878120D01*
D02*
G37*
G36*
X15557500Y7161076D02*
Y7086600D01*
X15631976D01*
X15610162Y7139262D01*
X15557500Y7161076D01*
D02*
G37*
G36*
X15532100D02*
X15479437Y7139262D01*
X15457623Y7086600D01*
X15532100D01*
Y7161076D01*
D02*
G37*
G36*
X17248100Y7103200D02*
X17170399D01*
Y7055500D01*
X17248100D01*
Y7103200D01*
D02*
G37*
G36*
X17145000D02*
X17067300D01*
Y7055500D01*
X17145000D01*
Y7103200D01*
D02*
G37*
G36*
X7569200Y7197891D02*
X7517446Y7176454D01*
X7496009Y7124700D01*
X7517446Y7072946D01*
X7569200Y7051509D01*
X7620954Y7072946D01*
X7642391Y7124700D01*
X7620954Y7176454D01*
X7569200Y7197891D01*
D02*
G37*
G36*
X7315200D02*
X7263446Y7176454D01*
X7242009Y7124700D01*
X7263446Y7072946D01*
X7315200Y7051509D01*
X7366954Y7072946D01*
X7388391Y7124700D01*
X7366954Y7176454D01*
X7315200Y7197891D01*
D02*
G37*
G36*
X15631976Y7061200D02*
X15557500D01*
Y6986724D01*
X15610162Y7008538D01*
X15631976Y7061200D01*
D02*
G37*
G36*
X15532100D02*
X15457623D01*
X15479437Y7008538D01*
X15532100Y6986724D01*
Y7061200D01*
D02*
G37*
G36*
X17248100Y7030100D02*
X17170399D01*
Y6982400D01*
X17248100D01*
Y7030100D01*
D02*
G37*
G36*
X17145000D02*
X17067300D01*
Y6982400D01*
X17145000D01*
Y7030100D01*
D02*
G37*
G36*
X13821600Y7355487D02*
X13739230Y7321369D01*
X13705113Y7239000D01*
X13739230Y7156631D01*
X13740697Y7149268D01*
X13655739Y7064311D01*
X13650505Y7051675D01*
Y6995577D01*
X13594675Y6939747D01*
X13583891Y6946900D01*
X13574228Y6970228D01*
X13568770Y6972489D01*
Y7131380D01*
X13679221D01*
Y7346620D01*
X13463980D01*
Y7131380D01*
X13533031D01*
Y6972489D01*
X13527573Y6970228D01*
X13517909Y6946900D01*
X13527573Y6923572D01*
X13550900Y6913909D01*
X13558054Y6903125D01*
X13426022Y6771095D01*
X13369925D01*
X13357289Y6765861D01*
X13213298Y6621870D01*
X12811903D01*
X12806642Y6634570D01*
X13017436Y6845364D01*
X13022670Y6858000D01*
X13017436Y6870636D01*
X13004800Y6875870D01*
X12992165Y6870636D01*
X12560364Y6438836D01*
X12555130Y6426200D01*
Y5842189D01*
X12549672Y5839928D01*
X12540009Y5816600D01*
X12549672Y5793272D01*
X12573000Y5783609D01*
X12596328Y5793272D01*
X12605991Y5816600D01*
X12596328Y5839928D01*
X12590870Y5842189D01*
Y6418798D01*
X12631330Y6459258D01*
X12644030Y6453997D01*
Y6400989D01*
X12638572Y6398728D01*
X12628909Y6375400D01*
X12638572Y6352072D01*
X12661900Y6342409D01*
X12685228Y6352072D01*
X12694891Y6375400D01*
X12685228Y6398728D01*
X12679770Y6400989D01*
Y6456898D01*
X12809003Y6586130D01*
X13220700D01*
X13233336Y6591364D01*
X13377327Y6735355D01*
X13433424D01*
X13446062Y6740589D01*
X13474525Y6769054D01*
X13485292Y6761859D01*
X13455113Y6689000D01*
X13489230Y6606631D01*
X13571600Y6572513D01*
X13653969Y6606631D01*
X13688087Y6689000D01*
X13653969Y6771369D01*
X13571600Y6805487D01*
X13498741Y6775308D01*
X13491547Y6786075D01*
X13681010Y6975539D01*
X13686246Y6988175D01*
Y7044273D01*
X13781213Y7139241D01*
X13821600Y7122513D01*
X13903969Y7156631D01*
X13938087Y7239000D01*
X13903969Y7321369D01*
X13821600Y7355487D01*
D02*
G37*
G36*
X11010900Y7629691D02*
X10959146Y7608254D01*
X10937709Y7556500D01*
X10959146Y7504746D01*
X11010900Y7483309D01*
X11040660Y7495636D01*
X11491129Y7045167D01*
Y6993436D01*
X11489794Y6992884D01*
X11480131Y6969555D01*
X11489794Y6946227D01*
X11513123Y6936564D01*
X11536451Y6946227D01*
X11546114Y6969555D01*
X11536451Y6992884D01*
X11535117Y6993436D01*
Y7054277D01*
X11528675Y7069829D01*
X11071764Y7526740D01*
X11084091Y7556500D01*
X11062654Y7608254D01*
X11010900Y7629691D01*
D02*
G37*
G36*
X13821600Y6805487D02*
X13739230Y6771369D01*
X13705113Y6689000D01*
X13729515Y6630087D01*
X13149799Y6050370D01*
X13017690D01*
X13015428Y6055828D01*
X12992101Y6065491D01*
X12968771Y6055828D01*
X12959109Y6032500D01*
X12968771Y6009172D01*
X12992101Y5999509D01*
X13015428Y6009172D01*
X13017690Y6014630D01*
X13157201D01*
X13169836Y6019864D01*
X13751515Y6601543D01*
X13821600Y6572513D01*
X13903969Y6606631D01*
X13938087Y6689000D01*
X13903969Y6771369D01*
X13821600Y6805487D01*
D02*
G37*
G36*
X11164800Y5871300D02*
X11087100D01*
Y5823600D01*
X11164800D01*
Y5871300D01*
D02*
G37*
G36*
X11061700D02*
X10984000D01*
Y5823600D01*
X11061700D01*
Y5871300D01*
D02*
G37*
G36*
X11456900Y5864300D02*
X11379200D01*
Y5816600D01*
X11456900D01*
Y5864300D01*
D02*
G37*
G36*
X11353800D02*
X11276100D01*
Y5816600D01*
X11353800D01*
Y5864300D01*
D02*
G37*
G36*
X12344400Y6700491D02*
X12321072Y6690828D01*
X12311409Y6667500D01*
X12321072Y6644172D01*
X12344400Y6634509D01*
X12349858Y6636770D01*
X12447180Y6539448D01*
Y5848539D01*
X12441722Y5846278D01*
X12432059Y5822950D01*
X12441722Y5799622D01*
X12465050Y5789959D01*
X12488378Y5799622D01*
X12498041Y5822950D01*
X12488378Y5846278D01*
X12482920Y5848539D01*
Y6546850D01*
X12477686Y6559486D01*
X12375130Y6662042D01*
X12377391Y6667500D01*
X12367728Y6690828D01*
X12344400Y6700491D01*
D02*
G37*
G36*
X11164800Y5798200D02*
X11087100D01*
Y5750500D01*
X11164800D01*
Y5798200D01*
D02*
G37*
G36*
X11061700D02*
X10984000D01*
Y5750500D01*
X11061700D01*
Y5798200D01*
D02*
G37*
G36*
X11456900Y5791200D02*
X11379200D01*
Y5743500D01*
X11456900D01*
Y5791200D01*
D02*
G37*
G36*
X11353800D02*
X11276100D01*
Y5743500D01*
X11353800D01*
Y5791200D01*
D02*
G37*
G36*
X16700500Y5889791D02*
X16648746Y5868354D01*
X16627309Y5816600D01*
X16648746Y5764846D01*
X16700500Y5743409D01*
X16752254Y5764846D01*
X16773691Y5816600D01*
X16752254Y5868354D01*
X16700500Y5889791D01*
D02*
G37*
G36*
X16446500D02*
X16394746Y5868354D01*
X16373309Y5816600D01*
X16394746Y5764846D01*
X16446500Y5743409D01*
X16498254Y5764846D01*
X16519691Y5816600D01*
X16498254Y5868354D01*
X16446500Y5889791D01*
D02*
G37*
G36*
X12642850Y5640041D02*
X12619522Y5630378D01*
X12609859Y5607050D01*
X12612120Y5601592D01*
X12534964Y5524436D01*
X12529730Y5511800D01*
Y5259020D01*
X12439980D01*
Y5043780D01*
X12629948D01*
X12834964Y4838764D01*
X12847600Y4833530D01*
X12939120D01*
X12951756Y4838764D01*
X12966637Y4853643D01*
X12971870Y4866279D01*
Y4990080D01*
X13026620D01*
Y5075320D01*
X12881380D01*
Y4990080D01*
X12936130D01*
Y4873681D01*
X12931718Y4869270D01*
X12855002D01*
X12655220Y5069052D01*
Y5259020D01*
X12565470D01*
Y5504398D01*
X12637392Y5576320D01*
X12642850Y5574059D01*
X12666178Y5583722D01*
X12675841Y5607050D01*
X12666178Y5630378D01*
X12642850Y5640041D01*
D02*
G37*
G36*
X13209500Y5591900D02*
X13131799D01*
Y5544200D01*
X13209500D01*
Y5591900D01*
D02*
G37*
G36*
X13106400D02*
X13028700D01*
Y5544200D01*
X13106400D01*
Y5591900D01*
D02*
G37*
G36*
X13603200Y5588400D02*
X13525500D01*
Y5540700D01*
X13603200D01*
Y5588400D01*
D02*
G37*
G36*
X13500101D02*
X13422400D01*
Y5540700D01*
X13500101D01*
Y5588400D01*
D02*
G37*
G36*
X16700500Y5635791D02*
X16648746Y5614354D01*
X16627309Y5562600D01*
X16648746Y5510846D01*
X16700500Y5489409D01*
X16752254Y5510846D01*
X16773691Y5562600D01*
X16752254Y5614354D01*
X16700500Y5635791D01*
D02*
G37*
G36*
X16446500D02*
X16394746Y5614354D01*
X16373309Y5562600D01*
X16394746Y5510846D01*
X16446500Y5489409D01*
X16498254Y5510846D01*
X16519691Y5562600D01*
X16498254Y5614354D01*
X16446500Y5635791D01*
D02*
G37*
G36*
X13209500Y5518800D02*
X13131799D01*
Y5471100D01*
X13209500D01*
Y5518800D01*
D02*
G37*
G36*
X13106400D02*
X13028700D01*
Y5471100D01*
X13106400D01*
Y5518800D01*
D02*
G37*
G36*
X13603200Y5515300D02*
X13525500D01*
Y5467600D01*
X13603200D01*
Y5515300D01*
D02*
G37*
G36*
X13500101D02*
X13422400D01*
Y5467600D01*
X13500101D01*
Y5515300D01*
D02*
G37*
G36*
X11506200Y5390594D02*
X11490648Y5384152D01*
X11484298Y5377802D01*
X11477856Y5362250D01*
X11484298Y5346698D01*
X11499850Y5340256D01*
X11515402Y5346698D01*
X11521752Y5353048D01*
X11528194Y5368600D01*
X11521752Y5384152D01*
X11506200Y5390594D01*
D02*
G37*
G36*
X11195050Y5384244D02*
X11179498Y5377802D01*
X11173148Y5371452D01*
X11166706Y5355900D01*
X11173148Y5340348D01*
X11188700Y5333906D01*
X11204252Y5340348D01*
X11210602Y5346698D01*
X11217044Y5362250D01*
X11210602Y5377802D01*
X11195050Y5384244D01*
D02*
G37*
G36*
X16700500Y5381791D02*
X16648746Y5360354D01*
X16627309Y5308600D01*
X16648746Y5256846D01*
X16700500Y5235409D01*
X16752254Y5256846D01*
X16773691Y5308600D01*
X16752254Y5360354D01*
X16700500Y5381791D01*
D02*
G37*
G36*
X16446500D02*
X16394746Y5360354D01*
X16373309Y5308600D01*
X16394746Y5256846D01*
X16446500Y5235409D01*
X16498254Y5256846D01*
X16519691Y5308600D01*
X16498254Y5360354D01*
X16446500Y5381791D01*
D02*
G37*
G36*
Y5127791D02*
X16394746Y5106354D01*
X16373309Y5054600D01*
X16394746Y5002846D01*
X16446500Y4981409D01*
X16498254Y5002846D01*
X16519691Y5054600D01*
X16498254Y5106354D01*
X16446500Y5127791D01*
D02*
G37*
G36*
X7382820Y4931720D02*
X7247580D01*
Y4796480D01*
X7382820D01*
Y4931720D01*
D02*
G37*
G36*
X7569200Y4937291D02*
X7517446Y4915854D01*
X7496009Y4864100D01*
X7517446Y4812346D01*
X7569200Y4790909D01*
X7620954Y4812346D01*
X7642391Y4864100D01*
X7620954Y4915854D01*
X7569200Y4937291D01*
D02*
G37*
G36*
X16768120Y5122220D02*
X16632880D01*
Y5011342D01*
X16631206Y5007300D01*
Y4947078D01*
X16375598Y4691470D01*
X16008078D01*
X15992934Y4728033D01*
X15938499Y4750580D01*
X15884067Y4728033D01*
X15861520Y4673600D01*
X15884067Y4619167D01*
X15938499Y4596620D01*
X15992934Y4619167D01*
X16008078Y4655730D01*
X16383000D01*
X16395636Y4660964D01*
X16658797Y4924124D01*
X16668752Y4928248D01*
X16675194Y4943800D01*
Y4986980D01*
X16768120D01*
Y5122220D01*
D02*
G37*
G36*
X12673000Y4676800D02*
X12560300D01*
Y4564100D01*
X12673000D01*
Y4676800D01*
D02*
G37*
G36*
X12534900D02*
X12422200D01*
Y4564100D01*
X12534900D01*
Y4676800D01*
D02*
G37*
G36*
X7569200Y4683291D02*
X7517446Y4661854D01*
X7496009Y4610100D01*
X7517446Y4558346D01*
X7569200Y4536909D01*
X7620954Y4558346D01*
X7642391Y4610100D01*
X7620954Y4661854D01*
X7569200Y4683291D01*
D02*
G37*
G36*
X7315200D02*
X7263446Y4661854D01*
X7242009Y4610100D01*
X7263446Y4558346D01*
X7315200Y4536909D01*
X7366954Y4558346D01*
X7388391Y4610100D01*
X7366954Y4661854D01*
X7315200Y4683291D01*
D02*
G37*
G36*
X12673000Y4538700D02*
X12560300D01*
Y4426000D01*
X12673000D01*
Y4538700D01*
D02*
G37*
G36*
X12534900D02*
X12422200D01*
Y4426000D01*
X12534900D01*
Y4538700D01*
D02*
G37*
G36*
X7569200Y4429291D02*
X7517446Y4407854D01*
X7496009Y4356100D01*
X7517446Y4304346D01*
X7569200Y4282909D01*
X7620954Y4304346D01*
X7642391Y4356100D01*
X7620954Y4407854D01*
X7569200Y4429291D01*
D02*
G37*
G36*
X7315200D02*
X7263446Y4407854D01*
X7242009Y4356100D01*
X7263446Y4304346D01*
X7315200Y4282909D01*
X7366954Y4304346D01*
X7388391Y4356100D01*
X7366954Y4407854D01*
X7315200Y4429291D01*
D02*
G37*
G36*
X7569200Y4175291D02*
X7517446Y4153854D01*
X7496009Y4102100D01*
X7517446Y4050346D01*
X7569200Y4028909D01*
X7620954Y4050346D01*
X7642391Y4102100D01*
X7620954Y4153854D01*
X7569200Y4175291D01*
D02*
G37*
G36*
X7315200D02*
X7263446Y4153854D01*
X7242009Y4102100D01*
X7263446Y4050346D01*
X7315200Y4028909D01*
X7366954Y4050346D01*
X7388391Y4102100D01*
X7366954Y4153854D01*
X7315200Y4175291D01*
D02*
G37*
G36*
X16920599Y3589400D02*
X16847900D01*
Y3441700D01*
X16920599D01*
Y3589400D01*
D02*
G37*
G36*
X16822501D02*
X16749800D01*
Y3441700D01*
X16822501D01*
Y3589400D01*
D02*
G37*
G36*
X16920599Y3416300D02*
X16847900D01*
Y3268600D01*
X16920599D01*
Y3416300D01*
D02*
G37*
G36*
X16822501D02*
X16749800D01*
Y3268600D01*
X16822501D01*
Y3416300D01*
D02*
G37*
G36*
X16647820Y3036620D02*
X16362579D01*
Y2901380D01*
X16647820D01*
Y3036620D01*
D02*
G37*
G36*
X12856520Y2086920D02*
X12721280D01*
Y1951680D01*
X12856520D01*
Y2086920D01*
D02*
G37*
G36*
X12534900Y2092491D02*
X12483146Y2071054D01*
X12461709Y2019300D01*
X12483146Y1967546D01*
X12534900Y1946109D01*
X12586654Y1967546D01*
X12608091Y2019300D01*
X12586654Y2071054D01*
X12534900Y2092491D01*
D02*
G37*
G36*
X12280900D02*
X12229146Y2071054D01*
X12207709Y2019300D01*
X12229146Y1967546D01*
X12280900Y1946109D01*
X12332654Y1967546D01*
X12354091Y2019300D01*
X12332654Y2071054D01*
X12280900Y2092491D01*
D02*
G37*
G36*
X12026900D02*
X11975146Y2071054D01*
X11953709Y2019300D01*
X11975146Y1967546D01*
X12026900Y1946109D01*
X12078654Y1967546D01*
X12100091Y2019300D01*
X12078654Y2071054D01*
X12026900Y2092491D01*
D02*
G37*
G36*
X13157201Y2578880D02*
X13102766Y2556333D01*
X13080220Y2501900D01*
X13102766Y2447467D01*
X13139330Y2432322D01*
Y2141002D01*
X12822784Y1824456D01*
X12788900Y1838491D01*
X12737146Y1817054D01*
X12715709Y1765300D01*
X12737146Y1713546D01*
X12788900Y1692109D01*
X12840654Y1713546D01*
X12862091Y1765300D01*
X12848056Y1799184D01*
X13169836Y2120964D01*
X13175070Y2133600D01*
Y2432322D01*
X13211633Y2447467D01*
X13234180Y2501900D01*
X13211633Y2556333D01*
X13157201Y2578880D01*
D02*
G37*
G36*
X12534900Y1838491D02*
X12483146Y1817054D01*
X12461709Y1765300D01*
X12483146Y1713546D01*
X12534900Y1692109D01*
X12586654Y1713546D01*
X12608091Y1765300D01*
X12586654Y1817054D01*
X12534900Y1838491D01*
D02*
G37*
G36*
X12280900D02*
X12229146Y1817054D01*
X12207709Y1765300D01*
X12229146Y1713546D01*
X12280900Y1692109D01*
X12332654Y1713546D01*
X12354091Y1765300D01*
X12332654Y1817054D01*
X12280900Y1838491D01*
D02*
G37*
G36*
X12026900D02*
X11975146Y1817054D01*
X11953709Y1765300D01*
X11975146Y1713546D01*
X12026900Y1692109D01*
X12078654Y1713546D01*
X12100091Y1765300D01*
X12078654Y1817054D01*
X12026900Y1838491D01*
D02*
G37*
%LPD*%
D10*
X12953999Y5152700D02*
D03*
Y5032700D02*
D03*
X8839200Y10379400D02*
D03*
Y10499400D02*
D03*
X8382000Y10392100D02*
D03*
Y10512100D02*
D03*
X16408400Y7928300D02*
D03*
Y8048300D02*
D03*
X17157700Y7162800D02*
D03*
Y7042800D02*
D03*
X16052800Y7242500D02*
D03*
Y7362500D02*
D03*
X16738600Y8035600D02*
D03*
Y7915600D02*
D03*
X11366500Y5923900D02*
D03*
Y5803900D02*
D03*
X11074400Y5930900D02*
D03*
Y5810900D02*
D03*
X11836400Y7687000D02*
D03*
Y7807000D02*
D03*
X12217400Y7677800D02*
D03*
Y7797800D02*
D03*
X13119099Y5651500D02*
D03*
Y5531500D02*
D03*
X13512801Y5648000D02*
D03*
Y5528000D02*
D03*
D11*
X12547600Y4551400D02*
D03*
Y5151400D02*
D03*
D12*
X16434300Y7429500D02*
D03*
X16624300D02*
D03*
X16434300Y7169500D02*
D03*
X16529300D02*
D03*
D13*
X16624300D02*
D03*
D14*
X14935201Y7607300D02*
D03*
X14897099Y7289800D02*
D03*
D15*
X8832850Y10505750D02*
X8839200Y10499400D01*
X8388350Y10505750D02*
X8832850D01*
X8382000Y10512100D02*
X8388350Y10505750D01*
X11353800Y5918200D02*
X11431655Y5996055D01*
X11099800Y5918200D02*
X11353800D01*
X12160250Y7667950D02*
X12179300Y7648900D01*
X13550900Y7218300D02*
X13571600Y7239000D01*
X13881100Y7835900D02*
X15544800D01*
X13220700Y7175500D02*
X13881100Y7835900D01*
X15544800D02*
X15773399Y7607300D01*
X16497301D02*
X16637199Y7467400D01*
X15773399Y7607300D02*
X16497301D01*
X16732249Y8041950D02*
X16738600Y8035600D01*
X16408400Y8048300D02*
X16414751Y8041950D01*
X7162800Y10253900D02*
X7932500D01*
X9228300Y9575800D02*
X9283700D01*
X8412000Y10392100D02*
X9228300Y9575800D01*
X8382000Y10392100D02*
X8412000D01*
X8959850Y7829550D02*
Y8756650D01*
X8953500Y6210300D02*
Y7823200D01*
X11176000Y3086100D02*
X11925300D01*
X8966200Y2603500D02*
Y3035300D01*
X7932500Y10253900D02*
X8070700Y10392100D01*
X8382000D01*
X16637199Y7467400D02*
X16738600Y7568800D01*
X16624300Y7454500D02*
X16637199Y7467400D01*
X16630299Y7175500D02*
X17157700D01*
X16609421Y6997700D02*
X17322800Y6284321D01*
Y4254500D02*
Y6284321D01*
X17297400Y4229100D02*
X17322800Y4254500D01*
X16459200Y4229100D02*
X17297400D01*
X16197501Y3967400D02*
X16459200Y4229100D01*
X16197501Y3543300D02*
Y3967400D01*
X16738600Y7568800D02*
Y7915600D01*
X16427679Y6997700D02*
X16609421D01*
X16423279D02*
X16427679D01*
Y7162880D01*
X16434300Y7169500D01*
X16609421Y6997700D02*
X16624300Y7012579D01*
Y7169500D01*
X16630299Y7175500D01*
X16197501Y3543300D02*
X16210201Y3530600D01*
X13055600Y5912701D02*
Y5918200D01*
Y5912701D02*
X13066800Y5901502D01*
Y5673800D02*
Y5901502D01*
Y5673800D02*
X13089101Y5651500D01*
X13119099D01*
X13511050Y5649750D02*
X13512801Y5648000D01*
X13120850Y5649750D02*
X13511050D01*
X13119099Y5651500D02*
X13120850Y5649750D01*
X12827000Y5689600D02*
X13055600Y5918200D01*
X12268200Y5689600D02*
X12827000D01*
X12179300Y5778500D02*
X12268200Y5689600D01*
X12179300Y5778500D02*
Y5778500D01*
X11961745Y5996055D02*
X12179300Y5778500D01*
X11607800Y6350000D02*
X11961745Y5996055D01*
X11607800Y6350000D02*
Y6819900D01*
X11861800Y7073900D01*
X11010900Y7810500D02*
X11633200Y7188200D01*
X11074400Y5930900D02*
X11104400D01*
X11431655Y5996055D02*
X11961745D01*
X11010900Y7556500D02*
X11513123Y7054277D01*
Y6969555D02*
Y7054277D01*
X12319000Y7531100D02*
X12865100D01*
X13220700Y7175500D01*
X12179300Y7391400D02*
X12319000Y7531100D01*
X11861800Y7073900D02*
X12179300Y7391400D01*
Y7648900D01*
X11855450Y7667950D02*
X12160250D01*
X11849100Y7674300D02*
X11855450Y7667950D01*
X15379700Y6324600D02*
X15386050Y6318250D01*
Y5708650D02*
Y6318250D01*
Y5708650D02*
X15392400Y5702300D01*
X15709900Y9482300D02*
X15718550Y9490950D01*
X16526750D01*
X16535400Y9499600D01*
X15379700Y3479800D02*
Y4343400D01*
X14986000Y3086100D02*
X15379700Y3479800D01*
X13474699Y3086100D02*
X14986000D01*
X10731500D02*
X11176000D01*
X10553700Y2908300D02*
X10731500Y3086100D01*
X10553700Y2527300D02*
Y2908300D01*
X10401300Y2374900D02*
X10553700Y2527300D01*
X9194800Y2374900D02*
X10401300D01*
X8966200Y2603500D02*
X9194800Y2374900D01*
X8953500Y8775700D02*
Y9245600D01*
Y8775700D02*
X8966200Y8763000D01*
X8953500Y9245600D02*
X9283700Y9575800D01*
X10731500D01*
X13468350Y3092450D02*
X13474699Y3086100D01*
X12719050Y3092450D02*
X13468350D01*
X12712700Y3098800D02*
X12719050Y3092450D01*
X12706350D02*
X12712700Y3098800D01*
X11931650Y3092450D02*
X12706350D01*
X11925300Y3086100D02*
X11931650Y3092450D01*
X16653200Y4943800D02*
Y5007300D01*
X16700500Y5054600D01*
X15379700Y4991100D02*
X15386050Y4997450D01*
Y5695950D01*
X15392400Y5702300D01*
X15379700Y4343400D02*
Y4991100D01*
X16090900Y10071100D02*
Y10782300D01*
X15887700Y10985500D02*
X16090900Y10782300D01*
X15354300Y10985500D02*
X15887700D01*
X15694901Y9497300D02*
X15709900Y9482300D01*
X14924800Y9497300D02*
X15694901D01*
X14909801Y9512300D02*
X14924800Y9497300D01*
X14903450Y9518650D02*
X14909801Y9512300D01*
X14116051Y9518650D02*
X14903450D01*
X14109700Y9525000D02*
X14116051Y9518650D01*
X14093016Y9525000D02*
X14109700D01*
X14029517Y9588500D02*
X14093016Y9525000D01*
X13208000Y9588500D02*
X14029517D01*
X12204700Y11074400D02*
X12865100Y10414000D01*
Y9906000D02*
Y10414000D01*
X13188950Y9569450D02*
X13208000Y9588500D01*
X12407900Y9550400D02*
X12426950Y9569450D01*
X13188950D01*
X12395200Y9563100D02*
X12407900Y9550400D01*
X11569700Y9563100D02*
X12395200D01*
X11557000Y9575800D02*
X11569700Y9563100D01*
X10731500Y9575800D02*
X11557000D01*
X8947913Y3042413D02*
Y3790187D01*
X8948900Y3805400D02*
Y4563900D01*
X8947150Y4578350D02*
Y5378450D01*
Y5391150D02*
Y6203950D01*
X8959850Y8756650D02*
X8966200Y8763000D01*
D16*
X12547600Y5511800D02*
X12642850Y5607050D01*
X12547600Y5151400D02*
Y5511800D01*
X12939120Y4851400D02*
X12953999Y4866279D01*
Y5032700D01*
X12847600Y4851400D02*
X12939120D01*
X12547600Y5151400D02*
X12847600Y4851400D01*
X12953999Y5561000D02*
X13066800Y5673800D01*
X12953999Y5152700D02*
Y5561000D01*
X14947900Y7670800D02*
X15189200D01*
X14681200Y7678200D02*
X14917200D01*
X14510800D02*
X14681200D01*
X14071600Y7239000D02*
X14510800Y7678200D01*
X13668375Y7051675D02*
X13817599Y7200900D01*
X13668375Y6988175D02*
Y7051675D01*
X13220700Y6604000D02*
X13369925Y6753225D01*
X13433424D01*
X13550900Y6946900D02*
Y7218300D01*
X14859000Y7366000D02*
X14897099D01*
X14681200Y7188200D02*
X14859000Y7366000D01*
X14224001Y7048500D02*
X14822343D01*
X14224001Y7188200D02*
X14681200D01*
X14071600Y7035800D02*
X14224001Y7188200D01*
X14071600Y6689000D02*
Y7035800D01*
X14822343Y7048500D02*
X15101744Y7327900D01*
X13433424Y6753225D02*
X13668375Y6988175D01*
X12801601Y6604000D02*
X13220700D01*
X15101744Y7327900D02*
X15544800D01*
X12465050Y5822950D02*
Y6546850D01*
X12344400Y6667500D02*
X12465050Y6546850D01*
X16414751Y8041950D02*
X16732249D01*
X16382938Y7362500D02*
X16418317Y7397880D01*
X16052800Y7362500D02*
X16382938D01*
X13157201Y6032500D02*
X13798550Y6673850D01*
X12992101Y6032500D02*
X13157201D01*
X12661900Y6464300D02*
X12801601Y6604000D01*
X12661900Y6375400D02*
Y6464300D01*
X12573000Y6426200D02*
X13004800Y6858000D01*
X12573000Y5816600D02*
Y6426200D01*
X12788900Y1765300D02*
X13157201Y2133600D01*
Y2501900D01*
X16383000Y4673600D02*
X16653200Y4943800D01*
X15938499Y4673600D02*
X16383000D01*
X7315200Y7886700D02*
Y8305800D01*
X7353300Y8343900D01*
X8089900D01*
D17*
X13561850Y5649750D02*
X13563600Y5648000D01*
X11499850Y5362250D02*
X11506200Y5368600D01*
X11188700Y5355900D02*
X11195050Y5362250D01*
D18*
X17538699Y8013700D02*
D03*
D19*
Y8267700D02*
D03*
Y8521700D02*
D03*
D20*
X14071600Y6689000D02*
D03*
X13821600D02*
D03*
X13571600D02*
D03*
X14071600Y7239000D02*
D03*
X13821600D02*
D03*
D21*
X13571600D02*
D03*
D22*
X7099300Y10870500D02*
D03*
Y10240500D02*
D03*
X16505200Y2969000D02*
D03*
D23*
X7559300Y10540500D02*
D03*
X16835201Y3429000D02*
D03*
X16205200D02*
D03*
D24*
X14681200Y7678200D02*
D03*
X15354300Y10985500D02*
D03*
X12788900Y2019300D02*
D03*
X12204700Y11074400D02*
D03*
D25*
X14681200Y7188200D02*
D03*
X14592300Y10731500D02*
D03*
X14846300D02*
D03*
X15100301D02*
D03*
X15354300D02*
D03*
X14592300Y10985500D02*
D03*
X14846300D02*
D03*
X15100301D02*
D03*
X15544800Y7073900D02*
D03*
Y7327900D02*
D03*
Y7581900D02*
D03*
X11010900Y7556500D02*
D03*
Y7302500D02*
D03*
X16446500Y5816600D02*
D03*
Y5562600D02*
D03*
Y5308600D02*
D03*
Y5054600D02*
D03*
X16700500Y5816600D02*
D03*
Y5562600D02*
D03*
Y5308600D02*
D03*
X12534900Y2019300D02*
D03*
X12280900D02*
D03*
X12026900D02*
D03*
X12788900Y1765300D02*
D03*
X12534900D02*
D03*
X12280900D02*
D03*
X12026900D02*
D03*
X7315200Y4610100D02*
D03*
Y4356100D02*
D03*
Y4102100D02*
D03*
X7569200Y4864100D02*
D03*
Y4610100D02*
D03*
Y4356100D02*
D03*
Y4102100D02*
D03*
X7315200Y7632700D02*
D03*
Y7378700D02*
D03*
Y7124700D02*
D03*
X7569200Y7886700D02*
D03*
Y7632700D02*
D03*
Y7378700D02*
D03*
Y7124700D02*
D03*
X11950700Y11074400D02*
D03*
X11696700D02*
D03*
X11442700D02*
D03*
X12204700Y10820400D02*
D03*
X11950700D02*
D03*
X11696700D02*
D03*
X11442700D02*
D03*
D26*
X15544800Y7835900D02*
D03*
X11010900Y7810500D02*
D03*
X16700500Y5054600D02*
D03*
X7315200Y4864100D02*
D03*
Y7886700D02*
D03*
D27*
X12642850Y5607050D02*
D03*
X13550900Y6946900D02*
D03*
X15201900Y7678200D02*
D03*
X14224001Y7048500D02*
D03*
X12344400Y6667500D02*
D03*
X16210201Y3530600D02*
D03*
X16197501Y3543300D02*
D03*
X12992101Y6032500D02*
D03*
X12661900Y6375400D02*
D03*
X12573000Y5816600D02*
D03*
X12465050Y5822950D02*
D03*
X13055600Y5918200D02*
D03*
X11633200Y7188200D02*
D03*
X11961745Y5996055D02*
D03*
X11861800Y7073900D02*
D03*
X12179300Y7391400D02*
D03*
X13220700Y7175500D02*
D03*
X11513123Y6969555D02*
D03*
D28*
X8966200Y6210300D02*
D03*
X13157201Y2501900D02*
D03*
X11176000Y3086100D02*
D03*
X11925300Y3066800D02*
D03*
X13474699Y3086100D02*
D03*
X12712700Y3098800D02*
D03*
X15938499Y4673600D02*
D03*
X15379700Y4343400D02*
D03*
Y4991100D02*
D03*
X15392400Y5702300D02*
D03*
X15379700Y6324600D02*
D03*
X16090900Y10071100D02*
D03*
X16535400Y9499600D02*
D03*
X15709900Y9482300D02*
D03*
X14909801Y9512300D02*
D03*
X14109700Y9525000D02*
D03*
X12865100Y9906000D02*
D03*
X13208000Y9588500D02*
D03*
X12407900Y9550400D02*
D03*
X11557000Y9575800D02*
D03*
X10731500D02*
D03*
X8991600Y3022600D02*
D03*
X8966200Y3797300D02*
D03*
Y4572000D02*
D03*
Y5384800D02*
D03*
Y7048500D02*
D03*
X8089900Y8343900D02*
D03*
X8966200Y7848600D02*
D03*
Y8763000D02*
D03*
%TF.MD5,4dc39a3dba8e1d6683596288f0aae523*%
M02*
