G04*
G04 #@! TF.GenerationSoftware,Altium Limited,Altium Designer,19.1.5 (86)*
G04*
G04 Layer_Color=2752767*
%FSLAX44Y44*%
%MOMM*%
G71*
G01*
G75*
%ADD12C,0.2540*%
%ADD63C,0.0508*%
%ADD64C,0.0677*%
D12*
X645160Y95250D02*
X1808480D01*
X645160D02*
Y1197610D01*
X643890Y1198880D02*
X645160Y1197610D01*
X643890Y1198880D02*
X1805940D01*
X1808480Y1196340D01*
Y95250D02*
Y1196340D01*
D63*
X1552448Y781558D02*
Y785622D01*
X1556512D01*
Y781558D01*
X1552448D01*
Y756158D02*
Y760222D01*
X1556512D01*
Y756158D01*
X1552448D01*
Y730758D02*
Y734822D01*
X1556512D01*
Y730758D01*
X1552448D01*
Y705358D02*
Y709422D01*
X1556512D01*
Y705358D01*
X1552448D01*
X670560Y1165098D02*
X668528Y1169162D01*
X672592D01*
X670560Y1165098D01*
X1767840Y1167638D02*
X1765808Y1171702D01*
X1769872D01*
X1767840Y1167638D01*
Y118618D02*
X1765808Y122682D01*
X1769872D01*
X1767840Y118618D01*
X673100Y121158D02*
X671068Y125222D01*
X675132D01*
X673100Y121158D01*
X1753870Y799338D02*
X1754886Y800354D01*
X1755902D01*
X1754886Y801370D01*
X1755902Y802386D01*
X1754886D01*
X1753870Y803402D01*
X1752854Y802386D01*
X1751838D01*
X1752854Y801370D01*
X1751838Y800354D01*
X1752854D01*
X1753870Y799338D01*
Y824738D02*
X1754886Y825754D01*
X1755902D01*
X1754886Y826770D01*
X1755902Y827786D01*
X1754886D01*
X1753870Y828802D01*
X1752854Y827786D01*
X1751838D01*
X1752854Y826770D01*
X1751838Y825754D01*
X1752854D01*
X1753870Y824738D01*
Y850138D02*
X1754886Y851154D01*
X1755902D01*
X1754886Y852170D01*
X1755902Y853186D01*
X1754886D01*
X1753870Y854202D01*
X1752854Y853186D01*
X1751838D01*
X1752854Y852170D01*
X1751838Y851154D01*
X1752854D01*
X1753870Y850138D01*
X707898Y1085018D02*
X708914Y1087050D01*
X707898Y1089082D01*
X709930Y1088066D01*
X711962Y1089082D01*
X710946Y1087050D01*
X711962Y1085018D01*
X709930Y1086034D01*
X707898Y1085018D01*
Y1022018D02*
X708914Y1024050D01*
X707898Y1026082D01*
X709930Y1025066D01*
X711962Y1026082D01*
X710946Y1024050D01*
X711962Y1022018D01*
X709930Y1023034D01*
X707898Y1022018D01*
X753898Y1052018D02*
X754914Y1054050D01*
X753898Y1056082D01*
X755930Y1055066D01*
X757962Y1056082D01*
X756946Y1054050D01*
X757962Y1052018D01*
X755930Y1053034D01*
X753898Y1052018D01*
X1681488Y340868D02*
X1682504Y342900D01*
X1681488Y344932D01*
X1683520Y343916D01*
X1685552Y344932D01*
X1684536Y342900D01*
X1685552Y340868D01*
X1683520Y341884D01*
X1681488Y340868D01*
X1618488D02*
X1619504Y342900D01*
X1618488Y344932D01*
X1620520Y343916D01*
X1622552Y344932D01*
X1621536Y342900D01*
X1622552Y340868D01*
X1620520Y341884D01*
X1618488Y340868D01*
X1648488Y294868D02*
X1649504Y296900D01*
X1648488Y298932D01*
X1650520Y297916D01*
X1652552Y298932D01*
X1651536Y296900D01*
X1652552Y294868D01*
X1650520Y295884D01*
X1648488Y294868D01*
X1466088Y765788D02*
Y769852D01*
X1470152D01*
Y765788D01*
X1466088D01*
Y716788D02*
Y720852D01*
X1470152D01*
Y716788D01*
X1466088D01*
X1457198Y1071118D02*
Y1075182D01*
X1461262D01*
Y1071118D01*
X1457198D01*
X1482598D02*
Y1075182D01*
X1486662D01*
Y1071118D01*
X1482598D01*
X1507998D02*
Y1075182D01*
X1512062D01*
Y1071118D01*
X1507998D01*
X1533398D02*
Y1075182D01*
X1537462D01*
Y1071118D01*
X1533398D01*
X1457198Y1096518D02*
Y1100582D01*
X1461262D01*
Y1096518D01*
X1457198D01*
X1482598D02*
Y1100582D01*
X1486662D01*
Y1096518D01*
X1482598D01*
X1507998D02*
Y1100582D01*
X1512062D01*
Y1096518D01*
X1507998D01*
X1533398D02*
Y1100582D01*
X1537462D01*
Y1096518D01*
X1533398D01*
X1099058Y779018D02*
Y783082D01*
X1103122D01*
Y779018D01*
X1099058D01*
Y753618D02*
Y757682D01*
X1103122D01*
Y753618D01*
X1099058D01*
Y728218D02*
Y732282D01*
X1103122D01*
Y728218D01*
X1099058D01*
X1642618Y579628D02*
Y583692D01*
X1646682D01*
Y579628D01*
X1642618D01*
Y554228D02*
Y558292D01*
X1646682D01*
Y554228D01*
X1642618D01*
Y528828D02*
Y532892D01*
X1646682D01*
Y528828D01*
X1642618D01*
Y503428D02*
Y507492D01*
X1646682D01*
Y503428D01*
X1642618D01*
X1668018Y579628D02*
Y583692D01*
X1672082D01*
Y579628D01*
X1668018D01*
Y554228D02*
Y558292D01*
X1672082D01*
Y554228D01*
X1668018D01*
Y528828D02*
Y532892D01*
X1672082D01*
Y528828D01*
X1668018D01*
Y503428D02*
Y507492D01*
X1672082D01*
Y503428D01*
X1668018D01*
X1276858Y199898D02*
Y203962D01*
X1280922D01*
Y199898D01*
X1276858D01*
X1251458D02*
Y203962D01*
X1255522D01*
Y199898D01*
X1251458D01*
X1226058D02*
Y203962D01*
X1230122D01*
Y199898D01*
X1226058D01*
X1200658D02*
Y203962D01*
X1204722D01*
Y199898D01*
X1200658D01*
X1276858Y174498D02*
Y178562D01*
X1280922D01*
Y174498D01*
X1276858D01*
X1251458D02*
Y178562D01*
X1255522D01*
Y174498D01*
X1251458D01*
X1226058D02*
Y178562D01*
X1230122D01*
Y174498D01*
X1226058D01*
X1200658D02*
Y178562D01*
X1204722D01*
Y174498D01*
X1200658D01*
X729488Y484378D02*
Y488442D01*
X733552D01*
Y484378D01*
X729488D01*
Y458978D02*
Y463042D01*
X733552D01*
Y458978D01*
X729488D01*
Y433578D02*
Y437642D01*
X733552D01*
Y433578D01*
X729488D01*
Y408178D02*
Y412242D01*
X733552D01*
Y408178D01*
X729488D01*
X754888Y484378D02*
Y488442D01*
X758952D01*
Y484378D01*
X754888D01*
Y458978D02*
Y463042D01*
X758952D01*
Y458978D01*
X754888D01*
Y433578D02*
Y437642D01*
X758952D01*
Y433578D01*
X754888D01*
Y408178D02*
Y412242D01*
X758952D01*
Y408178D01*
X754888D01*
X729488Y786638D02*
Y790702D01*
X733552D01*
Y786638D01*
X729488D01*
Y761238D02*
Y765302D01*
X733552D01*
Y761238D01*
X729488D01*
Y735838D02*
Y739902D01*
X733552D01*
Y735838D01*
X729488D01*
Y710438D02*
Y714502D01*
X733552D01*
Y710438D01*
X729488D01*
X754888Y786638D02*
Y790702D01*
X758952D01*
Y786638D01*
X754888D01*
Y761238D02*
Y765302D01*
X758952D01*
Y761238D01*
X754888D01*
Y735838D02*
Y739902D01*
X758952D01*
Y735838D01*
X754888D01*
Y710438D02*
Y714502D01*
X758952D01*
Y710438D01*
X754888D01*
X1218438Y1105408D02*
Y1109472D01*
X1222502D01*
Y1105408D01*
X1218438D01*
X1193038D02*
Y1109472D01*
X1197102D01*
Y1105408D01*
X1193038D01*
X1167638D02*
Y1109472D01*
X1171702D01*
Y1105408D01*
X1167638D01*
X1142238D02*
Y1109472D01*
X1146302D01*
Y1105408D01*
X1142238D01*
X1218438Y1080008D02*
Y1084072D01*
X1222502D01*
Y1080008D01*
X1218438D01*
X1193038D02*
Y1084072D01*
X1197102D01*
Y1080008D01*
X1193038D01*
X1167638D02*
Y1084072D01*
X1171702D01*
Y1080008D01*
X1167638D01*
X1142238D02*
Y1084072D01*
X1146302D01*
Y1080008D01*
X1142238D01*
X1162304Y717804D02*
Y716788D01*
X1164336D01*
Y717804D01*
X1165352D01*
Y719836D01*
X1164336D01*
Y720852D01*
X1162304D01*
Y719836D01*
X1161288D01*
Y717804D01*
X1162304D01*
X1263269Y559689D02*
Y558673D01*
X1265301D01*
Y559689D01*
X1266317D01*
Y561721D01*
X1265301D01*
Y562737D01*
X1263269D01*
Y561721D01*
X1262253D01*
Y559689D01*
X1263269D01*
X1354074Y693674D02*
Y692658D01*
X1356106D01*
Y693674D01*
X1357122D01*
Y695706D01*
X1356106D01*
Y696722D01*
X1354074D01*
Y695706D01*
X1353058D01*
Y693674D01*
X1354074D01*
X1519174Y766804D02*
Y765788D01*
X1521206D01*
Y766804D01*
X1522222D01*
Y768836D01*
X1521206D01*
Y769852D01*
X1519174D01*
Y768836D01*
X1518158D01*
Y766804D01*
X1519174D01*
X1421384Y703834D02*
Y702818D01*
X1423416D01*
Y703834D01*
X1424432D01*
Y705866D01*
X1423416D01*
Y706882D01*
X1421384D01*
Y705866D01*
X1420368D01*
Y703834D01*
X1421384D01*
X1233424Y665734D02*
Y664718D01*
X1235456D01*
Y665734D01*
X1236472D01*
Y667766D01*
X1235456D01*
Y668782D01*
X1233424D01*
Y667766D01*
X1232408D01*
Y665734D01*
X1233424D01*
X1620004Y352044D02*
Y351028D01*
X1622036D01*
Y352044D01*
X1623052D01*
Y354076D01*
X1622036D01*
Y355092D01*
X1620004D01*
Y354076D01*
X1618988D01*
Y352044D01*
X1620004D01*
X1618734Y353314D02*
Y352298D01*
X1620766D01*
Y353314D01*
X1621782D01*
Y355346D01*
X1620766D01*
Y356362D01*
X1618734D01*
Y355346D01*
X1617718D01*
Y353314D01*
X1618734D01*
X1298194Y602234D02*
Y601218D01*
X1300226D01*
Y602234D01*
X1301242D01*
Y604266D01*
X1300226D01*
Y605282D01*
X1298194D01*
Y604266D01*
X1297178D01*
Y602234D01*
X1298194D01*
X1265174Y636524D02*
Y635508D01*
X1267206D01*
Y636524D01*
X1268222D01*
Y638556D01*
X1267206D01*
Y639572D01*
X1265174D01*
Y638556D01*
X1264158D01*
Y636524D01*
X1265174D01*
X1256284Y580644D02*
Y579628D01*
X1258316D01*
Y580644D01*
X1259332D01*
Y582676D01*
X1258316D01*
Y583692D01*
X1256284D01*
Y582676D01*
X1255268D01*
Y580644D01*
X1256284D01*
X1245489Y581279D02*
Y580263D01*
X1247521D01*
Y581279D01*
X1248537D01*
Y583311D01*
X1247521D01*
Y584327D01*
X1245489D01*
Y583311D01*
X1244473D01*
Y581279D01*
X1245489D01*
X1304544Y590804D02*
Y589788D01*
X1306576D01*
Y590804D01*
X1307592D01*
Y592836D01*
X1306576D01*
Y593852D01*
X1304544D01*
Y592836D01*
X1303528D01*
Y590804D01*
X1304544D01*
X1195158Y598590D02*
Y597574D01*
X1197190D01*
Y598590D01*
X1198206D01*
Y600621D01*
X1197190D01*
Y601637D01*
X1195158D01*
Y600621D01*
X1194143D01*
Y598590D01*
X1195158D01*
X1185164Y706374D02*
Y705358D01*
X1187196D01*
Y706374D01*
X1188212D01*
Y708406D01*
X1187196D01*
Y709422D01*
X1185164D01*
Y708406D01*
X1184148D01*
Y706374D01*
X1185164D01*
X1216914Y738124D02*
Y737108D01*
X1218946D01*
Y738124D01*
X1219962D01*
Y740156D01*
X1218946D01*
Y741172D01*
X1216914D01*
Y740156D01*
X1215898D01*
Y738124D01*
X1216914D01*
X1321054Y716534D02*
Y715518D01*
X1323086D01*
Y716534D01*
X1324102D01*
Y718566D01*
X1323086D01*
Y719582D01*
X1321054D01*
Y718566D01*
X1320038D01*
Y716534D01*
X1321054D01*
X894588Y618998D02*
X895604D01*
X896620Y620014D01*
X897636Y618998D01*
X898652D01*
Y620014D01*
X897636Y621030D01*
X898652Y622046D01*
Y623062D01*
X897636D01*
X896620Y622046D01*
X895604Y623062D01*
X894588D01*
Y622046D01*
X895604Y621030D01*
X894588Y620014D01*
Y618998D01*
X1150296Y695939D02*
Y694923D01*
X1152328D01*
Y695939D01*
X1153344D01*
Y697971D01*
X1152328D01*
Y698988D01*
X1150296D01*
Y697971D01*
X1149280D01*
Y695939D01*
X1150296D01*
X1313688Y248158D02*
X1314704D01*
X1315720Y249174D01*
X1316736Y248158D01*
X1317752D01*
Y249174D01*
X1316736Y250190D01*
X1317752Y251206D01*
Y252222D01*
X1316736D01*
X1315720Y251206D01*
X1314704Y252222D01*
X1313688D01*
Y251206D01*
X1314704Y250190D01*
X1313688Y249174D01*
Y248158D01*
X1115568Y306578D02*
X1116584D01*
X1117600Y307594D01*
X1118616Y306578D01*
X1119632D01*
Y307594D01*
X1118616Y308610D01*
X1119632Y309626D01*
Y310642D01*
X1118616D01*
X1117600Y309626D01*
X1116584Y310642D01*
X1115568D01*
Y309626D01*
X1116584Y308610D01*
X1115568Y307594D01*
Y306578D01*
X1190498Y304648D02*
X1191514D01*
X1192530Y305664D01*
X1193546Y304648D01*
X1194562D01*
Y305664D01*
X1193546Y306680D01*
X1194562Y307696D01*
Y308712D01*
X1193546D01*
X1192530Y307696D01*
X1191514Y308712D01*
X1190498D01*
Y307696D01*
X1191514Y306680D01*
X1190498Y305664D01*
Y304648D01*
X1345438Y306578D02*
X1346454D01*
X1347470Y307594D01*
X1348486Y306578D01*
X1349502D01*
Y307594D01*
X1348486Y308610D01*
X1349502Y309626D01*
Y310642D01*
X1348486D01*
X1347470Y309626D01*
X1346454Y310642D01*
X1345438D01*
Y309626D01*
X1346454Y308610D01*
X1345438Y307594D01*
Y306578D01*
X1269238Y307848D02*
X1270254D01*
X1271270Y308864D01*
X1272286Y307848D01*
X1273302D01*
Y308864D01*
X1272286Y309880D01*
X1273302Y310896D01*
Y311912D01*
X1272286D01*
X1271270Y310896D01*
X1270254Y311912D01*
X1269238D01*
Y310896D01*
X1270254Y309880D01*
X1269238Y308864D01*
Y307848D01*
X1591818Y465328D02*
X1592834D01*
X1593850Y466344D01*
X1594866Y465328D01*
X1595882D01*
Y466344D01*
X1594866Y467360D01*
X1595882Y468376D01*
Y469392D01*
X1594866D01*
X1593850Y468376D01*
X1592834Y469392D01*
X1591818D01*
Y468376D01*
X1592834Y467360D01*
X1591818Y466344D01*
Y465328D01*
X1535938Y432308D02*
X1536954D01*
X1537970Y433324D01*
X1538986Y432308D01*
X1540002D01*
Y433324D01*
X1538986Y434340D01*
X1540002Y435356D01*
Y436372D01*
X1538986D01*
X1537970Y435356D01*
X1536954Y436372D01*
X1535938D01*
Y435356D01*
X1536954Y434340D01*
X1535938Y433324D01*
Y432308D01*
Y497078D02*
X1536954D01*
X1537970Y498094D01*
X1538986Y497078D01*
X1540002D01*
Y498094D01*
X1538986Y499110D01*
X1540002Y500126D01*
Y501142D01*
X1538986D01*
X1537970Y500126D01*
X1536954Y501142D01*
X1535938D01*
Y500126D01*
X1536954Y499110D01*
X1535938Y498094D01*
Y497078D01*
X1537208Y568198D02*
X1538224D01*
X1539240Y569214D01*
X1540256Y568198D01*
X1541272D01*
Y569214D01*
X1540256Y570230D01*
X1541272Y571246D01*
Y572262D01*
X1540256D01*
X1539240Y571246D01*
X1538224Y572262D01*
X1537208D01*
Y571246D01*
X1538224Y570230D01*
X1537208Y569214D01*
Y568198D01*
X1535938Y630428D02*
X1536954D01*
X1537970Y631444D01*
X1538986Y630428D01*
X1540002D01*
Y631444D01*
X1538986Y632460D01*
X1540002Y633476D01*
Y634492D01*
X1538986D01*
X1537970Y633476D01*
X1536954Y634492D01*
X1535938D01*
Y633476D01*
X1536954Y632460D01*
X1535938Y631444D01*
Y630428D01*
X1607058Y1005078D02*
X1608074D01*
X1609090Y1006094D01*
X1610106Y1005078D01*
X1611122D01*
Y1006094D01*
X1610106Y1007110D01*
X1611122Y1008126D01*
Y1009142D01*
X1610106D01*
X1609090Y1008126D01*
X1608074Y1009142D01*
X1607058D01*
Y1008126D01*
X1608074Y1007110D01*
X1607058Y1006094D01*
Y1005078D01*
X1651508Y947928D02*
X1652524D01*
X1653540Y948944D01*
X1654556Y947928D01*
X1655572D01*
Y948944D01*
X1654556Y949960D01*
X1655572Y950976D01*
Y951992D01*
X1654556D01*
X1653540Y950976D01*
X1652524Y951992D01*
X1651508D01*
Y950976D01*
X1652524Y949960D01*
X1651508Y948944D01*
Y947928D01*
X1568958Y946198D02*
X1569974D01*
X1570990Y947214D01*
X1572006Y946198D01*
X1573022D01*
Y947214D01*
X1572006Y948230D01*
X1573022Y949246D01*
Y950262D01*
X1572006D01*
X1570990Y949246D01*
X1569974Y950262D01*
X1568958D01*
Y949246D01*
X1569974Y948230D01*
X1568958Y947214D01*
Y946198D01*
X1488948Y949198D02*
X1489964D01*
X1490980Y950214D01*
X1491996Y949198D01*
X1493012D01*
Y950214D01*
X1491996Y951230D01*
X1493012Y952246D01*
Y953262D01*
X1491996D01*
X1490980Y952246D01*
X1489964Y953262D01*
X1488948D01*
Y952246D01*
X1489964Y951230D01*
X1488948Y950214D01*
Y949198D01*
X1408938Y950468D02*
X1409954D01*
X1410970Y951484D01*
X1411986Y950468D01*
X1413002D01*
Y951484D01*
X1411986Y952500D01*
X1413002Y953516D01*
Y954532D01*
X1411986D01*
X1410970Y953516D01*
X1409954Y954532D01*
X1408938D01*
Y953516D01*
X1409954Y952500D01*
X1408938Y951484D01*
Y950468D01*
X1284478Y988568D02*
X1285494D01*
X1286510Y989584D01*
X1287526Y988568D01*
X1288542D01*
Y989584D01*
X1287526Y990600D01*
X1288542Y991616D01*
Y992632D01*
X1287526D01*
X1286510Y991616D01*
X1285494Y992632D01*
X1284478D01*
Y991616D01*
X1285494Y990600D01*
X1284478Y989584D01*
Y988568D01*
X1318768Y956818D02*
X1319784D01*
X1320800Y957834D01*
X1321816Y956818D01*
X1322832D01*
Y957834D01*
X1321816Y958850D01*
X1322832Y959866D01*
Y960882D01*
X1321816D01*
X1320800Y959866D01*
X1319784Y960882D01*
X1318768D01*
Y959866D01*
X1319784Y958850D01*
X1318768Y957834D01*
Y956818D01*
X1238758Y953008D02*
X1239774D01*
X1240790Y954024D01*
X1241806Y953008D01*
X1242822D01*
Y954024D01*
X1241806Y955040D01*
X1242822Y956056D01*
Y957072D01*
X1241806D01*
X1240790Y956056D01*
X1239774Y957072D01*
X1238758D01*
Y956056D01*
X1239774Y955040D01*
X1238758Y954024D01*
Y953008D01*
X1153668Y955548D02*
X1154684D01*
X1155700Y956564D01*
X1156716Y955548D01*
X1157732D01*
Y956564D01*
X1156716Y957580D01*
X1157732Y958596D01*
Y959612D01*
X1156716D01*
X1155700Y958596D01*
X1154684Y959612D01*
X1153668D01*
Y958596D01*
X1154684Y957580D01*
X1153668Y956564D01*
Y955548D01*
X1071118D02*
X1072134D01*
X1073150Y956564D01*
X1074166Y955548D01*
X1075182D01*
Y956564D01*
X1074166Y957580D01*
X1075182Y958596D01*
Y959612D01*
X1074166D01*
X1073150Y958596D01*
X1072134Y959612D01*
X1071118D01*
Y958596D01*
X1072134Y957580D01*
X1071118Y956564D01*
Y955548D01*
X897128Y300228D02*
X898144D01*
X899160Y301244D01*
X900176Y300228D01*
X901192D01*
Y301244D01*
X900176Y302260D01*
X901192Y303276D01*
Y304292D01*
X900176D01*
X899160Y303276D01*
X898144Y304292D01*
X897128D01*
Y303276D01*
X898144Y302260D01*
X897128Y301244D01*
Y300228D01*
X894588Y377698D02*
X895604D01*
X896620Y378714D01*
X897636Y377698D01*
X898652D01*
Y378714D01*
X897636Y379730D01*
X898652Y380746D01*
Y381762D01*
X897636D01*
X896620Y380746D01*
X895604Y381762D01*
X894588D01*
Y380746D01*
X895604Y379730D01*
X894588Y378714D01*
Y377698D01*
Y455168D02*
X895604D01*
X896620Y456184D01*
X897636Y455168D01*
X898652D01*
Y456184D01*
X897636Y457200D01*
X898652Y458216D01*
Y459232D01*
X897636D01*
X896620Y458216D01*
X895604Y459232D01*
X894588D01*
Y458216D01*
X895604Y457200D01*
X894588Y456184D01*
Y455168D01*
Y536448D02*
X895604D01*
X896620Y537464D01*
X897636Y536448D01*
X898652D01*
Y537464D01*
X897636Y538480D01*
X898652Y539496D01*
Y540512D01*
X897636D01*
X896620Y539496D01*
X895604Y540512D01*
X894588D01*
Y539496D01*
X895604Y538480D01*
X894588Y537464D01*
Y536448D01*
Y702818D02*
X895604D01*
X896620Y703834D01*
X897636Y702818D01*
X898652D01*
Y703834D01*
X897636Y704850D01*
X898652Y705866D01*
Y706882D01*
X897636D01*
X896620Y705866D01*
X895604Y706882D01*
X894588D01*
Y705866D01*
X895604Y704850D01*
X894588Y703834D01*
Y702818D01*
X806958Y832358D02*
X807974D01*
X808990Y833374D01*
X810006Y832358D01*
X811022D01*
Y833374D01*
X810006Y834390D01*
X811022Y835406D01*
Y836422D01*
X810006D01*
X808990Y835406D01*
X807974Y836422D01*
X806958D01*
Y835406D01*
X807974Y834390D01*
X806958Y833374D01*
Y832358D01*
X894588Y782828D02*
X895604D01*
X896620Y783844D01*
X897636Y782828D01*
X898652D01*
Y783844D01*
X897636Y784860D01*
X898652Y785876D01*
Y786892D01*
X897636D01*
X896620Y785876D01*
X895604Y786892D01*
X894588D01*
Y785876D01*
X895604Y784860D01*
X894588Y783844D01*
Y782828D01*
Y874268D02*
X895604D01*
X896620Y875284D01*
X897636Y874268D01*
X898652D01*
Y875284D01*
X897636Y876300D01*
X898652Y877316D01*
Y878332D01*
X897636D01*
X896620Y877316D01*
X895604Y878332D01*
X894588D01*
Y877316D01*
X895604Y876300D01*
X894588Y875284D01*
Y874268D01*
D64*
X1359192Y723900D02*
G03*
X1359192Y723900I-2032J0D01*
G01*
X1384192D02*
G03*
X1384192Y723900I-2032J0D01*
G01*
X1409192D02*
G03*
X1409192Y723900I-2032J0D01*
G01*
X1359192Y668900D02*
G03*
X1359192Y668900I-2032J0D01*
G01*
X1384192D02*
G03*
X1384192Y668900I-2032J0D01*
G01*
X1409192D02*
G03*
X1409192Y668900I-2032J0D01*
G01*
M02*
