M48
;Layer_Color=9474304
;FILE_FORMAT=4:4
METRIC,LZ
;TYPE=PLATED
T1F00S00C0.2286
T3F00S00C0.6000
T4F00S00C0.7112
T5F00S00C1.0000
T6F00S00C1.1000
%
T01
X0162102Y0035306
X0161975Y0035433
X0152019Y0076782
X014224Y0070485
X0135509Y0069469
X0132207Y0071755
X0121793Y0073914
X0123444Y0066675
X0126619Y0063754
X012573Y0058166
X01246505Y00582295
X01264285Y00560705
X0130556Y0059182
X0129921Y0060325
X01196174Y00599605
X0118618Y0070739
X0116332Y0071882
X01151312Y00696955
T03
X0120269Y0017653
Y0020193
X0122809
X0125349
X0127889
Y0017653
X0125349
X0122809
X0164465Y0050546
Y0053086
Y0055626
Y0058166
X0167005
Y0055626
Y0053086
Y0050546
X0155448Y0070739
Y0073279
Y0075819
Y0078359
X0146812Y0076782
Y0071882
X0110109Y0073025
Y0075565
Y0078105
X0075692Y0078867
X0073152
Y0076327
Y0073787
Y0071247
X0075692
Y0073787
Y0076327
Y0048641
X0073152
Y0046101
Y0043561
Y0041021
X0075692
Y0043561
Y0046101
X0114427Y0108204
Y0110744
X0116967
Y0108204
X0119507
Y0110744
X0122047
Y0108204
X0145923Y0107315
X0148463
X0151003
X0153543
Y0109855
X0151003
X0148463
X0145923
T04
X0089916Y0030226
X0089662Y0037973
X011176Y0030861
X0119253Y0030668
X0127127Y0030988
X0134747Y0030861
X0131572Y0025019
X0159385Y0046736
X0153797Y0049911
Y0043434
X0153924Y0057023
X0153797Y0063246
X0089662Y0062103
Y0053848
Y004572
Y0070485
Y0078486
Y008763
X0080899Y0083439
X0107315Y0095758
X011557
X0124079Y0095504
X0128651Y009906
X013208Y0095885
X0141097Y009525
X0149098Y0095123
X0157099Y0094823
X0165354Y0094996
X0160909Y0100711
T05
X0175387Y0080137
Y0082677
Y0085217
T06
X0135716Y006689
X0138216
X0140716
Y007239
X0138216
X0135716
M30
