%TF.GenerationSoftware,Altium Limited,Altium Designer,19.1.5 (86)*%
G04 Layer_Color=32896*
%FSLAX45Y45*%
%MOMM*%
%TF.FileFunction,Legend,Bot*%
%TF.Part,Single*%
G01*
G75*
%TA.AperFunction,NonConductor*%
%ADD10C,0.20000*%
%ADD11C,0.25400*%
%ADD12C,0.12700*%
G36*
X17479840Y8737600D02*
X17462581D01*
Y8782829D01*
X17441354Y8803262D01*
X17394936Y8737600D01*
X17372124D01*
X17429254Y8814966D01*
X17374503Y8867932D01*
X17397911D01*
X17462581Y8803460D01*
Y8867932D01*
X17479840D01*
Y8737600D01*
D02*
G37*
G36*
X17661549Y8869717D02*
X17667502Y8868924D01*
X17672858Y8867535D01*
X17675238Y8866940D01*
X17677420Y8866146D01*
X17679404Y8865353D01*
X17681387Y8864758D01*
X17682974Y8863964D01*
X17684164Y8863369D01*
X17685355Y8862972D01*
X17686150Y8862576D01*
X17686546Y8862179D01*
X17686745D01*
X17691702Y8859005D01*
X17696266Y8855236D01*
X17700035Y8851467D01*
X17703011Y8847698D01*
X17705589Y8844325D01*
X17706581Y8842937D01*
X17707375Y8841746D01*
X17707970Y8840556D01*
X17708366Y8839763D01*
X17708763Y8839366D01*
Y8839167D01*
X17711342Y8833415D01*
X17713326Y8827265D01*
X17714516Y8821314D01*
X17715508Y8815759D01*
X17715906Y8813180D01*
X17716103Y8810998D01*
X17716302Y8808816D01*
Y8807031D01*
X17716499Y8805642D01*
Y8804650D01*
Y8803857D01*
Y8803659D01*
X17716302Y8796715D01*
X17715508Y8790367D01*
X17714317Y8784416D01*
X17713724Y8781639D01*
X17713129Y8779259D01*
X17712534Y8776878D01*
X17711937Y8774894D01*
X17711342Y8773109D01*
X17710747Y8771522D01*
X17710350Y8770332D01*
X17709953Y8769538D01*
X17709755Y8768943D01*
Y8768745D01*
X17706978Y8762992D01*
X17703606Y8758033D01*
X17700432Y8753668D01*
X17697060Y8750296D01*
X17694283Y8747519D01*
X17691902Y8745535D01*
X17690910Y8744940D01*
X17690315Y8744345D01*
X17689919Y8744146D01*
X17689720Y8743948D01*
X17687141Y8742361D01*
X17684363Y8741171D01*
X17678809Y8738989D01*
X17673056Y8737600D01*
X17667502Y8736410D01*
X17665121Y8736211D01*
X17662741Y8735815D01*
X17660757Y8735616D01*
X17658972D01*
X17657385Y8735418D01*
X17655402D01*
X17651633Y8735616D01*
X17648061Y8735815D01*
X17641515Y8737203D01*
X17638539Y8737997D01*
X17635564Y8738989D01*
X17632985Y8739980D01*
X17630605Y8740972D01*
X17628423Y8741964D01*
X17626637Y8742956D01*
X17625050Y8743948D01*
X17623660Y8744741D01*
X17622472Y8745535D01*
X17621677Y8746130D01*
X17621280Y8746328D01*
X17621082Y8746527D01*
X17618503Y8748709D01*
X17616122Y8751089D01*
X17612155Y8756247D01*
X17608585Y8761603D01*
X17606006Y8766959D01*
X17604816Y8769340D01*
X17604022Y8771522D01*
X17603229Y8773704D01*
X17602435Y8775291D01*
X17602039Y8776878D01*
X17601640Y8777870D01*
X17601443Y8778663D01*
Y8778862D01*
X17618703Y8783226D01*
X17620290Y8777473D01*
X17622272Y8772315D01*
X17624654Y8768150D01*
X17626836Y8764579D01*
X17629018Y8762000D01*
X17630801Y8760016D01*
X17631993Y8758826D01*
X17632191Y8758628D01*
X17632388Y8758429D01*
X17636357Y8755652D01*
X17640324Y8753668D01*
X17644490Y8752081D01*
X17648259Y8751089D01*
X17651633Y8750494D01*
X17653220Y8750296D01*
X17654408D01*
X17655402Y8750098D01*
X17656789D01*
X17661154Y8750296D01*
X17665320Y8751089D01*
X17669089Y8752081D01*
X17672263Y8753073D01*
X17675040Y8754263D01*
X17677222Y8755057D01*
X17678015Y8755454D01*
X17678612Y8755850D01*
X17678809Y8756049D01*
X17679007D01*
X17682578Y8758628D01*
X17685555Y8761603D01*
X17688133Y8764579D01*
X17690315Y8767753D01*
X17691902Y8770332D01*
X17692892Y8772712D01*
X17693291Y8773506D01*
X17693687Y8774101D01*
X17693884Y8774498D01*
Y8774696D01*
X17695473Y8779457D01*
X17696663Y8784416D01*
X17697456Y8789376D01*
X17698051Y8793938D01*
X17698250Y8795922D01*
X17698448Y8797707D01*
Y8799493D01*
X17698647Y8800881D01*
Y8802072D01*
Y8802865D01*
Y8803460D01*
Y8803659D01*
X17698448Y8808420D01*
X17698051Y8812982D01*
X17697456Y8817148D01*
X17696663Y8820917D01*
X17695869Y8824091D01*
X17695671Y8825480D01*
X17695274Y8826472D01*
X17695076Y8827463D01*
X17694878Y8828059D01*
X17694679Y8828455D01*
Y8828654D01*
X17692892Y8833018D01*
X17690710Y8836985D01*
X17688332Y8840159D01*
X17686150Y8842937D01*
X17683968Y8845119D01*
X17682181Y8846706D01*
X17680991Y8847698D01*
X17680794Y8848094D01*
X17680594D01*
X17676627Y8850475D01*
X17672461Y8852260D01*
X17668295Y8853649D01*
X17664328Y8854442D01*
X17660757Y8855037D01*
X17659367Y8855236D01*
X17657980D01*
X17656989Y8855434D01*
X17655598D01*
X17650838Y8855236D01*
X17646672Y8854442D01*
X17642903Y8853450D01*
X17639928Y8852260D01*
X17637349Y8850872D01*
X17635564Y8849880D01*
X17634373Y8849086D01*
X17633977Y8848888D01*
X17630801Y8846111D01*
X17628224Y8842937D01*
X17625842Y8839366D01*
X17624059Y8835994D01*
X17622668Y8833018D01*
X17622073Y8831629D01*
X17621478Y8830439D01*
X17621082Y8829447D01*
X17620885Y8828654D01*
X17620685Y8828257D01*
Y8828059D01*
X17603625Y8832026D01*
X17606006Y8838374D01*
X17607394Y8841350D01*
X17608783Y8843928D01*
X17610370Y8846507D01*
X17611957Y8848888D01*
X17613345Y8850872D01*
X17614932Y8852855D01*
X17616321Y8854442D01*
X17617709Y8855831D01*
X17619098Y8857220D01*
X17620090Y8858211D01*
X17621082Y8859005D01*
X17621677Y8859600D01*
X17622073Y8859798D01*
X17622272Y8859997D01*
X17624850Y8861782D01*
X17627431Y8863369D01*
X17630206Y8864758D01*
X17632985Y8865948D01*
X17638539Y8867733D01*
X17643697Y8868924D01*
X17646077Y8869320D01*
X17648259Y8869519D01*
X17650243Y8869717D01*
X17651830Y8869915D01*
X17653220Y8870114D01*
X17655202D01*
X17661549Y8869717D01*
D02*
G37*
G36*
X17581010Y8737600D02*
X17499677D01*
Y8752875D01*
X17563753D01*
Y8867932D01*
X17581010D01*
Y8737600D01*
D02*
G37*
G36*
X17650267Y7706900D02*
X17684586Y7658100D01*
X17665146D01*
X17639754Y7694204D01*
X17635390Y7687261D01*
X17615948Y7658100D01*
X17596310D01*
X17630627Y7706900D01*
X17598492Y7752526D01*
X17617934D01*
X17633801Y7730110D01*
X17636183Y7726539D01*
X17637373Y7724754D01*
X17638564Y7723167D01*
X17639555Y7721778D01*
X17640349Y7720786D01*
X17640746Y7719993D01*
X17640944Y7719794D01*
X17642928Y7723167D01*
X17645110Y7726539D01*
X17646101Y7727928D01*
X17646696Y7729118D01*
X17647292Y7729911D01*
X17647490Y7730110D01*
X17662367Y7752526D01*
X17682007D01*
X17650267Y7706900D01*
D02*
G37*
G36*
X17411028Y7658100D02*
X17394960D01*
Y7695593D01*
X17383852Y7706305D01*
X17352509Y7658100D01*
X17332671D01*
X17372345Y7717414D01*
X17336241Y7752526D01*
X17357071D01*
X17394960Y7714240D01*
Y7788432D01*
X17411028D01*
Y7658100D01*
D02*
G37*
G36*
X17530647Y7790217D02*
X17536600Y7789424D01*
X17541956Y7788035D01*
X17544336Y7787440D01*
X17546518Y7786646D01*
X17548502Y7785853D01*
X17550485Y7785258D01*
X17552072Y7784464D01*
X17553262Y7783869D01*
X17554453Y7783472D01*
X17555246Y7783076D01*
X17555643Y7782679D01*
X17555841D01*
X17560802Y7779505D01*
X17565363Y7775736D01*
X17569133Y7771967D01*
X17572108Y7768198D01*
X17574687Y7764825D01*
X17575679Y7763437D01*
X17576472Y7762246D01*
X17577068Y7761056D01*
X17577464Y7760263D01*
X17577861Y7759866D01*
Y7759667D01*
X17580440Y7753915D01*
X17582423Y7747765D01*
X17583614Y7741814D01*
X17584605Y7736259D01*
X17585002Y7733680D01*
X17585201Y7731498D01*
X17585399Y7729316D01*
Y7727531D01*
X17585599Y7726142D01*
Y7725150D01*
Y7724357D01*
Y7724159D01*
X17585399Y7717215D01*
X17584605Y7710867D01*
X17583415Y7704916D01*
X17582820Y7702139D01*
X17582225Y7699759D01*
X17581630Y7697378D01*
X17581035Y7695394D01*
X17580440Y7693609D01*
X17579845Y7692022D01*
X17579448Y7690832D01*
X17579051Y7690038D01*
X17578853Y7689443D01*
Y7689245D01*
X17576076Y7683492D01*
X17572704Y7678533D01*
X17569530Y7674168D01*
X17566158Y7670796D01*
X17563380Y7668019D01*
X17560999Y7666035D01*
X17560007Y7665440D01*
X17559412Y7664845D01*
X17559015Y7664646D01*
X17558817Y7664448D01*
X17556238Y7662861D01*
X17553461Y7661671D01*
X17547906Y7659489D01*
X17542154Y7658100D01*
X17536600Y7656910D01*
X17534219Y7656711D01*
X17531837Y7656315D01*
X17529854Y7656116D01*
X17528069D01*
X17526482Y7655918D01*
X17524498D01*
X17520729Y7656116D01*
X17517159Y7656315D01*
X17510612Y7657703D01*
X17507637Y7658497D01*
X17504662Y7659489D01*
X17502081Y7660480D01*
X17499702Y7661472D01*
X17497519Y7662464D01*
X17495734Y7663456D01*
X17494147Y7664448D01*
X17492760Y7665241D01*
X17491568Y7666035D01*
X17490775Y7666630D01*
X17490378Y7666828D01*
X17490179Y7667027D01*
X17487601Y7669209D01*
X17485220Y7671589D01*
X17481253Y7676747D01*
X17477682Y7682103D01*
X17475104Y7687459D01*
X17473914Y7689840D01*
X17473119Y7692022D01*
X17472327Y7694204D01*
X17471532Y7695791D01*
X17471136Y7697378D01*
X17470740Y7698370D01*
X17470541Y7699163D01*
Y7699362D01*
X17487799Y7703726D01*
X17489386Y7697973D01*
X17491370Y7692815D01*
X17493750Y7688650D01*
X17495932Y7685079D01*
X17498116Y7682500D01*
X17499899Y7680516D01*
X17501089Y7679326D01*
X17501289Y7679128D01*
X17501488Y7678929D01*
X17505453Y7676152D01*
X17509422Y7674168D01*
X17513588Y7672581D01*
X17517357Y7671589D01*
X17520729Y7670994D01*
X17522316Y7670796D01*
X17523506D01*
X17524498Y7670598D01*
X17525887D01*
X17530251Y7670796D01*
X17534418Y7671589D01*
X17538187Y7672581D01*
X17541360Y7673573D01*
X17544138Y7674763D01*
X17546320Y7675557D01*
X17547113Y7675954D01*
X17547708Y7676350D01*
X17547906Y7676549D01*
X17548105D01*
X17551675Y7679128D01*
X17554651Y7682103D01*
X17557230Y7685079D01*
X17559412Y7688253D01*
X17560999Y7690832D01*
X17561990Y7693212D01*
X17562389Y7694006D01*
X17562785Y7694601D01*
X17562984Y7694998D01*
Y7695196D01*
X17564571Y7699957D01*
X17565759Y7704916D01*
X17566554Y7709876D01*
X17567149Y7714438D01*
X17567348Y7716422D01*
X17567546Y7718207D01*
Y7719993D01*
X17567744Y7721381D01*
Y7722572D01*
Y7723365D01*
Y7723960D01*
Y7724159D01*
X17567546Y7728920D01*
X17567149Y7733482D01*
X17566554Y7737648D01*
X17565759Y7741417D01*
X17564967Y7744591D01*
X17564767Y7745980D01*
X17564372Y7746972D01*
X17564172Y7747963D01*
X17563976Y7748559D01*
X17563776Y7748955D01*
Y7749154D01*
X17561990Y7753518D01*
X17559808Y7757485D01*
X17557428Y7760659D01*
X17555246Y7763437D01*
X17553064Y7765619D01*
X17551279Y7767206D01*
X17550089Y7768198D01*
X17549890Y7768594D01*
X17549692D01*
X17545724Y7770975D01*
X17541559Y7772760D01*
X17537393Y7774149D01*
X17533424Y7774942D01*
X17529854Y7775537D01*
X17528465Y7775736D01*
X17527077D01*
X17526085Y7775934D01*
X17524696D01*
X17519936Y7775736D01*
X17515770Y7774942D01*
X17512001Y7773950D01*
X17509026Y7772760D01*
X17506445Y7771372D01*
X17504662Y7770380D01*
X17503471Y7769586D01*
X17503075Y7769388D01*
X17499899Y7766611D01*
X17497321Y7763437D01*
X17494942Y7759866D01*
X17493155Y7756494D01*
X17491766Y7753518D01*
X17491171Y7752129D01*
X17490576Y7750939D01*
X17490179Y7749947D01*
X17489981Y7749154D01*
X17489783Y7748757D01*
Y7748559D01*
X17472723Y7752526D01*
X17475104Y7758874D01*
X17476492Y7761850D01*
X17477879Y7764428D01*
X17479466Y7767007D01*
X17481055Y7769388D01*
X17482443Y7771372D01*
X17484030Y7773355D01*
X17485419Y7774942D01*
X17486807Y7776331D01*
X17488196Y7777720D01*
X17489188Y7778711D01*
X17490179Y7779505D01*
X17490775Y7780100D01*
X17491171Y7780298D01*
X17491370Y7780497D01*
X17493948Y7782282D01*
X17496529Y7783869D01*
X17499306Y7785258D01*
X17502081Y7786448D01*
X17507637Y7788233D01*
X17512794Y7789424D01*
X17515175Y7789820D01*
X17517357Y7790019D01*
X17519341Y7790217D01*
X17520927Y7790415D01*
X17522316Y7790614D01*
X17524300D01*
X17530647Y7790217D01*
D02*
G37*
G36*
X17792700Y7658100D02*
X17695497D01*
Y7673375D01*
X17775441D01*
Y7717811D01*
X17703432D01*
Y7733085D01*
X17775441D01*
Y7773157D01*
X17698473D01*
Y7788432D01*
X17792700D01*
Y7658100D01*
D02*
G37*
G36*
X17451695D02*
X17435628D01*
Y7788432D01*
X17451695D01*
Y7658100D01*
D02*
G37*
G36*
X15712888Y7890230D02*
X15717847Y7889238D01*
X15722411Y7887850D01*
X15726180Y7886263D01*
X15729153Y7884477D01*
X15730345Y7883684D01*
X15731337Y7883089D01*
X15732327Y7882494D01*
X15732924Y7882097D01*
X15733122Y7881898D01*
X15733321Y7881700D01*
X15736891Y7878129D01*
X15739668Y7874162D01*
X15742049Y7869996D01*
X15743636Y7866028D01*
X15745024Y7862458D01*
X15745421Y7860871D01*
X15745818Y7859482D01*
X15746016Y7858490D01*
X15746214Y7857697D01*
X15746413Y7857102D01*
Y7856903D01*
X15730345Y7854126D01*
X15729552Y7858292D01*
X15728362Y7861863D01*
X15727171Y7864838D01*
X15725781Y7867219D01*
X15724593Y7869202D01*
X15723599Y7870591D01*
X15722807Y7871385D01*
X15722607Y7871583D01*
X15720029Y7873567D01*
X15717450Y7874955D01*
X15714873Y7876146D01*
X15712292Y7876741D01*
X15710309Y7877137D01*
X15708524Y7877534D01*
X15706937D01*
X15703564Y7877336D01*
X15700589Y7876542D01*
X15698010Y7875749D01*
X15695828Y7874559D01*
X15694041Y7873567D01*
X15692654Y7872575D01*
X15691859Y7871781D01*
X15691663Y7871583D01*
X15689677Y7869401D01*
X15688289Y7866822D01*
X15687099Y7864441D01*
X15686504Y7862259D01*
X15686107Y7860077D01*
X15685712Y7858490D01*
Y7857498D01*
Y7857300D01*
Y7857102D01*
X15686107Y7853134D01*
X15687099Y7849762D01*
X15688289Y7846985D01*
X15689876Y7844802D01*
X15691463Y7843017D01*
X15692654Y7841628D01*
X15693646Y7840835D01*
X15694041Y7840637D01*
X15697215Y7838851D01*
X15700391Y7837661D01*
X15703366Y7836669D01*
X15706143Y7836074D01*
X15708722Y7835677D01*
X15710507Y7835479D01*
X15713086D01*
X15713879Y7835677D01*
X15714873D01*
X15716656Y7821593D01*
X15714276Y7822188D01*
X15712094Y7822585D01*
X15710110Y7822783D01*
X15708524Y7822981D01*
X15707135Y7823180D01*
X15705350D01*
X15701382Y7822783D01*
X15698010Y7821989D01*
X15694836Y7820998D01*
X15692258Y7819609D01*
X15690076Y7818220D01*
X15688487Y7817228D01*
X15687694Y7816435D01*
X15687299Y7816038D01*
X15684917Y7813261D01*
X15683131Y7810285D01*
X15681743Y7807111D01*
X15680949Y7804334D01*
X15680354Y7801755D01*
X15680156Y7799772D01*
X15679958Y7798978D01*
Y7798383D01*
Y7798185D01*
Y7797986D01*
X15680354Y7793820D01*
X15681148Y7790051D01*
X15682338Y7786679D01*
X15683727Y7783902D01*
X15685313Y7781521D01*
X15686504Y7779934D01*
X15687299Y7778942D01*
X15687694Y7778546D01*
X15690669Y7775967D01*
X15693845Y7773983D01*
X15697018Y7772793D01*
X15700192Y7771801D01*
X15702771Y7771206D01*
X15704755Y7771007D01*
X15705548Y7770809D01*
X15706738D01*
X15710110Y7771007D01*
X15713284Y7771801D01*
X15716061Y7772793D01*
X15718243Y7773785D01*
X15720229Y7774975D01*
X15721616Y7775768D01*
X15722411Y7776562D01*
X15722807Y7776760D01*
X15724989Y7779339D01*
X15726971Y7782315D01*
X15728558Y7785687D01*
X15729750Y7788861D01*
X15730740Y7791837D01*
X15731337Y7794217D01*
X15731734Y7795011D01*
Y7795804D01*
X15731932Y7796201D01*
Y7796399D01*
X15748000Y7794217D01*
X15747603Y7791241D01*
X15747008Y7788464D01*
X15745222Y7783307D01*
X15743239Y7778744D01*
X15740858Y7774776D01*
X15739867Y7773189D01*
X15738676Y7771801D01*
X15737685Y7770611D01*
X15736891Y7769420D01*
X15736098Y7768627D01*
X15735503Y7768032D01*
X15735304Y7767833D01*
X15735106Y7767635D01*
X15732924Y7765850D01*
X15730544Y7764263D01*
X15728362Y7762874D01*
X15725980Y7761882D01*
X15721220Y7759898D01*
X15716656Y7758708D01*
X15714673Y7758311D01*
X15712689Y7758113D01*
X15711102Y7757915D01*
X15709515Y7757716D01*
X15708325Y7757518D01*
X15706738D01*
X15703366Y7757716D01*
X15699992Y7758113D01*
X15696820Y7758510D01*
X15693845Y7759303D01*
X15691068Y7760295D01*
X15688487Y7761287D01*
X15686107Y7762279D01*
X15683925Y7763469D01*
X15682140Y7764461D01*
X15680354Y7765453D01*
X15678767Y7766445D01*
X15677577Y7767437D01*
X15676585Y7768230D01*
X15675990Y7768627D01*
X15675594Y7769024D01*
X15675395Y7769222D01*
X15673213Y7771602D01*
X15671230Y7773983D01*
X15669643Y7776363D01*
X15668254Y7778744D01*
X15666866Y7781124D01*
X15665874Y7783703D01*
X15664485Y7788266D01*
X15663889Y7790250D01*
X15663493Y7792233D01*
X15663293Y7793820D01*
X15663097Y7795407D01*
X15662898Y7796598D01*
Y7797391D01*
Y7797986D01*
Y7798185D01*
X15663097Y7802747D01*
X15663889Y7806913D01*
X15664880Y7810484D01*
X15666072Y7813459D01*
X15667461Y7815840D01*
X15668452Y7817625D01*
X15669246Y7818815D01*
X15669444Y7819212D01*
X15672023Y7822188D01*
X15674998Y7824568D01*
X15677974Y7826552D01*
X15680751Y7827941D01*
X15683330Y7829131D01*
X15685313Y7829726D01*
X15686107Y7830123D01*
X15686702D01*
X15687099Y7830321D01*
X15687299D01*
X15684125Y7831908D01*
X15681346Y7833892D01*
X15679164Y7835677D01*
X15677180Y7837463D01*
X15675792Y7839050D01*
X15674602Y7840240D01*
X15674007Y7841033D01*
X15673808Y7841430D01*
X15672221Y7844009D01*
X15671230Y7846786D01*
X15670436Y7849365D01*
X15669841Y7851746D01*
X15669444Y7853729D01*
X15669246Y7855316D01*
Y7856308D01*
Y7856705D01*
X15669444Y7860077D01*
X15670039Y7863053D01*
X15670833Y7865830D01*
X15671626Y7868409D01*
X15672420Y7870393D01*
X15673213Y7871980D01*
X15673808Y7872972D01*
X15674007Y7873368D01*
X15675990Y7876146D01*
X15678172Y7878724D01*
X15680553Y7880907D01*
X15682735Y7882692D01*
X15684718Y7884080D01*
X15686307Y7885072D01*
X15687495Y7885667D01*
X15687694Y7885866D01*
X15687894D01*
X15691264Y7887453D01*
X15694637Y7888643D01*
X15698010Y7889437D01*
X15700986Y7890032D01*
X15703564Y7890428D01*
X15705548Y7890627D01*
X15710110D01*
X15712888Y7890230D01*
D02*
G37*
G36*
X15561131D02*
X15566090Y7889238D01*
X15570654Y7887850D01*
X15574423Y7886263D01*
X15577399Y7884477D01*
X15578589Y7883684D01*
X15579581Y7883089D01*
X15580573Y7882494D01*
X15581168Y7882097D01*
X15581366Y7881898D01*
X15581564Y7881700D01*
X15585135Y7878129D01*
X15587912Y7874162D01*
X15590292Y7869996D01*
X15591879Y7866028D01*
X15593268Y7862458D01*
X15593665Y7860871D01*
X15594061Y7859482D01*
X15594260Y7858490D01*
X15594460Y7857697D01*
X15594656Y7857102D01*
Y7856903D01*
X15578589Y7854126D01*
X15577795Y7858292D01*
X15576605Y7861863D01*
X15575415Y7864838D01*
X15574026Y7867219D01*
X15572836Y7869202D01*
X15571844Y7870591D01*
X15571049Y7871385D01*
X15570853Y7871583D01*
X15568272Y7873567D01*
X15565694Y7874955D01*
X15563115Y7876146D01*
X15560538Y7876741D01*
X15558553Y7877137D01*
X15556767Y7877534D01*
X15555180D01*
X15551808Y7877336D01*
X15548833Y7876542D01*
X15546254Y7875749D01*
X15544072Y7874559D01*
X15542287Y7873567D01*
X15540898Y7872575D01*
X15540105Y7871781D01*
X15539906Y7871583D01*
X15537923Y7869401D01*
X15536533Y7866822D01*
X15535342Y7864441D01*
X15534747Y7862259D01*
X15534351Y7860077D01*
X15533954Y7858490D01*
Y7857498D01*
Y7857300D01*
Y7857102D01*
X15534351Y7853134D01*
X15535342Y7849762D01*
X15536533Y7846985D01*
X15538120Y7844802D01*
X15539706Y7843017D01*
X15540898Y7841628D01*
X15541888Y7840835D01*
X15542287Y7840637D01*
X15545461Y7838851D01*
X15548634Y7837661D01*
X15551610Y7836669D01*
X15554387Y7836074D01*
X15556966Y7835677D01*
X15558751Y7835479D01*
X15561330D01*
X15562125Y7835677D01*
X15563115D01*
X15564902Y7821593D01*
X15562520Y7822188D01*
X15560338Y7822585D01*
X15558354Y7822783D01*
X15556767Y7822981D01*
X15555379Y7823180D01*
X15553593D01*
X15549626Y7822783D01*
X15546254Y7821989D01*
X15543080Y7820998D01*
X15540501Y7819609D01*
X15538319Y7818220D01*
X15536732Y7817228D01*
X15535938Y7816435D01*
X15535541Y7816038D01*
X15533160Y7813261D01*
X15531377Y7810285D01*
X15529987Y7807111D01*
X15529193Y7804334D01*
X15528598Y7801755D01*
X15528400Y7799772D01*
X15528201Y7798978D01*
Y7798383D01*
Y7798185D01*
Y7797986D01*
X15528598Y7793820D01*
X15529391Y7790051D01*
X15530582Y7786679D01*
X15531972Y7783902D01*
X15533559Y7781521D01*
X15534747Y7779934D01*
X15535541Y7778942D01*
X15535938Y7778546D01*
X15538914Y7775967D01*
X15542088Y7773983D01*
X15545262Y7772793D01*
X15548436Y7771801D01*
X15551015Y7771206D01*
X15552998Y7771007D01*
X15553792Y7770809D01*
X15554982D01*
X15558354Y7771007D01*
X15561528Y7771801D01*
X15564307Y7772793D01*
X15566489Y7773785D01*
X15568472Y7774975D01*
X15569859Y7775768D01*
X15570654Y7776562D01*
X15571049Y7776760D01*
X15573233Y7779339D01*
X15575217Y7782315D01*
X15576804Y7785687D01*
X15577992Y7788861D01*
X15578986Y7791837D01*
X15579581Y7794217D01*
X15579977Y7795011D01*
Y7795804D01*
X15580176Y7796201D01*
Y7796399D01*
X15596243Y7794217D01*
X15595847Y7791241D01*
X15595251Y7788464D01*
X15593468Y7783307D01*
X15591483Y7778744D01*
X15589102Y7774776D01*
X15588110Y7773189D01*
X15586920Y7771801D01*
X15585928Y7770611D01*
X15585135Y7769420D01*
X15584341Y7768627D01*
X15583746Y7768032D01*
X15583548Y7767833D01*
X15583350Y7767635D01*
X15581168Y7765850D01*
X15578787Y7764263D01*
X15576605Y7762874D01*
X15574223Y7761882D01*
X15569463Y7759898D01*
X15564902Y7758708D01*
X15562917Y7758311D01*
X15560933Y7758113D01*
X15559346Y7757915D01*
X15557759Y7757716D01*
X15556569Y7757518D01*
X15554982D01*
X15551610Y7757716D01*
X15548238Y7758113D01*
X15545062Y7758510D01*
X15542088Y7759303D01*
X15539311Y7760295D01*
X15536732Y7761287D01*
X15534351Y7762279D01*
X15532169Y7763469D01*
X15530383Y7764461D01*
X15528598Y7765453D01*
X15527011Y7766445D01*
X15525821Y7767437D01*
X15524829Y7768230D01*
X15524234Y7768627D01*
X15523837Y7769024D01*
X15523639Y7769222D01*
X15521457Y7771602D01*
X15519473Y7773983D01*
X15517886Y7776363D01*
X15516498Y7778744D01*
X15515109Y7781124D01*
X15514117Y7783703D01*
X15512727Y7788266D01*
X15512132Y7790250D01*
X15511737Y7792233D01*
X15511539Y7793820D01*
X15511340Y7795407D01*
X15511140Y7796598D01*
Y7797391D01*
Y7797986D01*
Y7798185D01*
X15511340Y7802747D01*
X15512132Y7806913D01*
X15513126Y7810484D01*
X15514314Y7813459D01*
X15515704Y7815840D01*
X15516696Y7817625D01*
X15517490Y7818815D01*
X15517688Y7819212D01*
X15520267Y7822188D01*
X15523242Y7824568D01*
X15526218Y7826552D01*
X15528995Y7827941D01*
X15531573Y7829131D01*
X15533559Y7829726D01*
X15534351Y7830123D01*
X15534946D01*
X15535342Y7830321D01*
X15535541D01*
X15532367Y7831908D01*
X15529590Y7833892D01*
X15527408Y7835677D01*
X15525424Y7837463D01*
X15524036Y7839050D01*
X15522845Y7840240D01*
X15522250Y7841033D01*
X15522052Y7841430D01*
X15520465Y7844009D01*
X15519473Y7846786D01*
X15518680Y7849365D01*
X15518085Y7851746D01*
X15517688Y7853729D01*
X15517490Y7855316D01*
Y7856308D01*
Y7856705D01*
X15517688Y7860077D01*
X15518283Y7863053D01*
X15519077Y7865830D01*
X15519870Y7868409D01*
X15520663Y7870393D01*
X15521457Y7871980D01*
X15522052Y7872972D01*
X15522250Y7873368D01*
X15524234Y7876146D01*
X15526416Y7878724D01*
X15528796Y7880907D01*
X15530978Y7882692D01*
X15532964Y7884080D01*
X15534550Y7885072D01*
X15535741Y7885667D01*
X15535938Y7885866D01*
X15536137D01*
X15539510Y7887453D01*
X15542880Y7888643D01*
X15546254Y7889437D01*
X15549229Y7890032D01*
X15551808Y7890428D01*
X15553792Y7890627D01*
X15558354D01*
X15561131Y7890230D01*
D02*
G37*
G36*
X15451630Y7759700D02*
X15433974D01*
X15382993Y7890032D01*
X15400449D01*
X15435759Y7795407D01*
X15437148Y7791440D01*
X15438538Y7787472D01*
X15439726Y7783902D01*
X15440720Y7780728D01*
X15441512Y7777950D01*
X15442107Y7775768D01*
X15442307Y7774975D01*
X15442503Y7774380D01*
X15442702Y7774181D01*
Y7773983D01*
X15444885Y7781521D01*
X15446075Y7785092D01*
X15447266Y7788464D01*
X15448257Y7791241D01*
X15448853Y7793424D01*
X15449249Y7794217D01*
X15449448Y7794812D01*
X15449646Y7795209D01*
Y7795407D01*
X15483369Y7890032D01*
X15502216D01*
X15451630Y7759700D01*
D02*
G37*
G36*
X15638101D02*
X15619850D01*
Y7777950D01*
X15638101D01*
Y7759700D01*
D02*
G37*
G36*
X15611324Y7518400D02*
X15593272D01*
X15565897Y7617587D01*
X15565302Y7620166D01*
X15564508Y7622745D01*
X15563913Y7625125D01*
X15563318Y7627704D01*
X15562723Y7629688D01*
X15562326Y7631473D01*
X15561929Y7632465D01*
Y7632862D01*
X15561731Y7632267D01*
X15561533Y7631473D01*
X15560938Y7629291D01*
X15560342Y7626911D01*
X15559549Y7624133D01*
X15558954Y7621753D01*
X15558359Y7619571D01*
X15558160Y7618777D01*
X15557962Y7618182D01*
X15557764Y7617785D01*
Y7617587D01*
X15530388Y7518400D01*
X15513525D01*
X15478017Y7648732D01*
X15495474D01*
X15515707Y7564820D01*
X15517097Y7559067D01*
X15518484Y7553711D01*
X15519476Y7548751D01*
X15520470Y7544585D01*
X15520866Y7542800D01*
X15521263Y7541213D01*
X15521461Y7539824D01*
X15521858Y7538634D01*
X15522057Y7537642D01*
Y7537047D01*
X15522253Y7536650D01*
Y7536452D01*
X15523643Y7544585D01*
X15525230Y7552719D01*
X15527016Y7560654D01*
X15527809Y7564224D01*
X15528603Y7567597D01*
X15529396Y7570771D01*
X15529991Y7573746D01*
X15530785Y7576325D01*
X15531181Y7578507D01*
X15531776Y7580293D01*
X15531975Y7581483D01*
X15532372Y7582475D01*
Y7582673D01*
X15551019Y7648732D01*
X15571848D01*
X15596645Y7560654D01*
X15596843Y7559860D01*
X15597041Y7558670D01*
X15597438Y7557083D01*
X15597835Y7555496D01*
X15598827Y7551528D01*
X15599818Y7547363D01*
X15601009Y7543197D01*
X15601405Y7541411D01*
X15601802Y7539824D01*
X15602199Y7538436D01*
X15602399Y7537444D01*
X15602596Y7536650D01*
Y7536452D01*
X15603587Y7541411D01*
X15604381Y7546172D01*
X15605373Y7550735D01*
X15606168Y7554702D01*
X15606960Y7558075D01*
X15607356Y7559463D01*
X15607555Y7560852D01*
X15607755Y7561646D01*
X15607951Y7562439D01*
X15608150Y7562836D01*
Y7563034D01*
X15627789Y7648732D01*
X15645445D01*
X15611324Y7518400D01*
D02*
G37*
G36*
X15461749D02*
X15414934D01*
X15410570Y7518598D01*
X15406602Y7518797D01*
X15403032Y7519193D01*
X15400056Y7519590D01*
X15397478Y7519987D01*
X15395692Y7520185D01*
X15394502Y7520582D01*
X15394106D01*
X15390732Y7521574D01*
X15387756Y7522566D01*
X15385178Y7523558D01*
X15382996Y7524550D01*
X15381210Y7525541D01*
X15379822Y7526335D01*
X15378830Y7526732D01*
X15378632Y7526930D01*
X15376251Y7528715D01*
X15374069Y7530699D01*
X15371887Y7532683D01*
X15370300Y7534468D01*
X15368713Y7536254D01*
X15367722Y7537642D01*
X15366928Y7538436D01*
X15366730Y7538833D01*
X15364745Y7541808D01*
X15362959Y7544982D01*
X15361372Y7548156D01*
X15360184Y7551132D01*
X15359190Y7553909D01*
X15358398Y7555893D01*
X15358199Y7556686D01*
X15358002Y7557281D01*
X15357802Y7557678D01*
Y7557876D01*
X15356612Y7562241D01*
X15355820Y7566803D01*
X15355025Y7571366D01*
X15354628Y7575333D01*
X15354430Y7578904D01*
Y7580491D01*
X15354231Y7581681D01*
Y7582872D01*
Y7583665D01*
Y7584062D01*
Y7584260D01*
X15354430Y7590608D01*
X15355025Y7596361D01*
X15355820Y7601519D01*
X15356413Y7603899D01*
X15356812Y7606081D01*
X15357207Y7608065D01*
X15357802Y7609850D01*
X15358199Y7611437D01*
X15358595Y7612628D01*
X15358994Y7613620D01*
X15359190Y7614413D01*
X15359389Y7614810D01*
Y7615008D01*
X15361572Y7619967D01*
X15363953Y7624332D01*
X15366531Y7628101D01*
X15369110Y7631275D01*
X15371292Y7633854D01*
X15373077Y7635837D01*
X15374466Y7637028D01*
X15374664Y7637424D01*
X15374863D01*
X15378036Y7639805D01*
X15381210Y7641789D01*
X15384386Y7643376D01*
X15387360Y7644566D01*
X15389938Y7645558D01*
X15392120Y7646153D01*
X15392915Y7646550D01*
X15393311D01*
X15393707Y7646748D01*
X15393906D01*
X15397079Y7647343D01*
X15400850Y7647938D01*
X15404817Y7648335D01*
X15408388Y7648533D01*
X15411760Y7648732D01*
X15461749D01*
Y7518400D01*
D02*
G37*
G36*
X15714876Y7650715D02*
X15719438Y7650120D01*
X15723405Y7649525D01*
X15726976Y7648732D01*
X15729755Y7647740D01*
X15730943Y7647343D01*
X15731937Y7647145D01*
X15732928Y7646748D01*
X15733524Y7646550D01*
X15733720Y7646351D01*
X15733920D01*
X15737689Y7644566D01*
X15741061Y7642384D01*
X15743839Y7640202D01*
X15746021Y7638218D01*
X15747806Y7636234D01*
X15749194Y7634647D01*
X15749988Y7633655D01*
X15750186Y7633457D01*
Y7633259D01*
X15751971Y7630085D01*
X15753360Y7626712D01*
X15754352Y7623737D01*
X15754947Y7620761D01*
X15755344Y7618380D01*
X15755740Y7616595D01*
Y7615802D01*
Y7615207D01*
Y7615008D01*
Y7614810D01*
X15755542Y7611636D01*
X15754947Y7608462D01*
X15754352Y7605685D01*
X15753360Y7603304D01*
X15752567Y7601320D01*
X15751971Y7599932D01*
X15751376Y7598940D01*
X15751178Y7598543D01*
X15749194Y7595964D01*
X15747012Y7593584D01*
X15744830Y7591600D01*
X15742450Y7589815D01*
X15740466Y7588426D01*
X15738879Y7587434D01*
X15737689Y7586641D01*
X15737489Y7586442D01*
X15737292D01*
X15735902Y7585649D01*
X15734119Y7585054D01*
X15730350Y7583665D01*
X15726183Y7582276D01*
X15722017Y7580888D01*
X15718248Y7579896D01*
X15716661Y7579499D01*
X15715273Y7579102D01*
X15714082Y7578706D01*
X15713091Y7578507D01*
X15712495Y7578309D01*
X15712297D01*
X15709123Y7577515D01*
X15706146Y7576722D01*
X15703371Y7576127D01*
X15700989Y7575532D01*
X15699007Y7574937D01*
X15697021Y7574341D01*
X15695435Y7573945D01*
X15693848Y7573548D01*
X15692657Y7573151D01*
X15691666Y7572754D01*
X15690079Y7572358D01*
X15689285Y7572159D01*
X15689087Y7571961D01*
X15686310Y7570771D01*
X15683731Y7569382D01*
X15681747Y7568192D01*
X15680161Y7567002D01*
X15678970Y7565811D01*
X15677979Y7565018D01*
X15677580Y7564423D01*
X15677383Y7564224D01*
X15676193Y7562439D01*
X15675398Y7560654D01*
X15674606Y7558868D01*
X15674210Y7557083D01*
X15674011Y7555694D01*
X15673811Y7554504D01*
Y7553711D01*
Y7553512D01*
X15674011Y7551330D01*
X15674406Y7549346D01*
X15675002Y7547363D01*
X15675598Y7545776D01*
X15676392Y7544387D01*
X15676987Y7543395D01*
X15677383Y7542602D01*
X15677580Y7542403D01*
X15679169Y7540618D01*
X15680954Y7539031D01*
X15682739Y7537642D01*
X15684723Y7536452D01*
X15686310Y7535460D01*
X15687698Y7534865D01*
X15688492Y7534468D01*
X15688889Y7534270D01*
X15691864Y7533278D01*
X15694839Y7532683D01*
X15697617Y7532088D01*
X15700394Y7531889D01*
X15702576Y7531691D01*
X15704559Y7531493D01*
X15706146D01*
X15710115Y7531691D01*
X15713884Y7532088D01*
X15717455Y7532683D01*
X15720232Y7533476D01*
X15722810Y7534072D01*
X15724596Y7534667D01*
X15725786Y7535063D01*
X15725986Y7535262D01*
X15726183D01*
X15729160Y7536849D01*
X15731937Y7538436D01*
X15734119Y7540221D01*
X15735902Y7541808D01*
X15737489Y7543197D01*
X15738483Y7544387D01*
X15739078Y7545180D01*
X15739276Y7545379D01*
X15740665Y7547958D01*
X15741853Y7550537D01*
X15742648Y7553314D01*
X15743440Y7555893D01*
X15743839Y7558273D01*
X15744235Y7560059D01*
X15744434Y7561249D01*
Y7561447D01*
Y7561646D01*
X15760699Y7560257D01*
X15760303Y7555496D01*
X15759509Y7551132D01*
X15758321Y7546966D01*
X15757129Y7543593D01*
X15755939Y7540618D01*
X15755344Y7539428D01*
X15754749Y7538436D01*
X15754352Y7537642D01*
X15753955Y7537047D01*
X15753757Y7536849D01*
Y7536650D01*
X15750980Y7533080D01*
X15747806Y7529906D01*
X15744830Y7527327D01*
X15741656Y7525145D01*
X15739078Y7523359D01*
X15736896Y7522169D01*
X15736102Y7521772D01*
X15735507Y7521376D01*
X15735110Y7521177D01*
X15734911D01*
X15730150Y7519590D01*
X15725191Y7518400D01*
X15720232Y7517408D01*
X15715669Y7516813D01*
X15713487Y7516615D01*
X15711504Y7516416D01*
X15709718D01*
X15708328Y7516218D01*
X15705354D01*
X15700195Y7516416D01*
X15695633Y7517011D01*
X15691269Y7517805D01*
X15687698Y7518797D01*
X15684525Y7519590D01*
X15683334Y7519987D01*
X15682343Y7520384D01*
X15681549Y7520780D01*
X15680954Y7520979D01*
X15680557Y7521177D01*
X15680359D01*
X15676392Y7523359D01*
X15672820Y7525541D01*
X15669846Y7527922D01*
X15667464Y7530302D01*
X15665480Y7532286D01*
X15664290Y7533873D01*
X15663298Y7535063D01*
X15663100Y7535460D01*
X15661116Y7538833D01*
X15659727Y7542403D01*
X15658537Y7545776D01*
X15657942Y7548751D01*
X15657545Y7551330D01*
X15657149Y7553314D01*
Y7554107D01*
Y7554702D01*
Y7554901D01*
Y7555099D01*
X15657347Y7558868D01*
X15657942Y7562439D01*
X15658934Y7565613D01*
X15659926Y7568192D01*
X15660918Y7570572D01*
X15661909Y7572159D01*
X15662505Y7573151D01*
X15662703Y7573548D01*
X15664885Y7576325D01*
X15667464Y7578904D01*
X15670241Y7581285D01*
X15673019Y7583268D01*
X15675598Y7584657D01*
X15677580Y7585847D01*
X15678375Y7586244D01*
X15678772Y7586641D01*
X15679169Y7586839D01*
X15679367D01*
X15680954Y7587434D01*
X15682938Y7588228D01*
X15684921Y7589021D01*
X15687302Y7589616D01*
X15692062Y7591005D01*
X15696825Y7592394D01*
X15701189Y7593385D01*
X15703172Y7593980D01*
X15704958Y7594377D01*
X15706346Y7594774D01*
X15707336Y7594972D01*
X15708131Y7595171D01*
X15708328D01*
X15712099Y7596163D01*
X15715471Y7596956D01*
X15718446Y7597750D01*
X15721223Y7598741D01*
X15723604Y7599535D01*
X15725587Y7600130D01*
X15727373Y7600924D01*
X15728960Y7601717D01*
X15730350Y7602312D01*
X15731538Y7602709D01*
X15732333Y7603304D01*
X15732928Y7603701D01*
X15733920Y7604296D01*
X15734119Y7604494D01*
X15735706Y7606280D01*
X15736896Y7608065D01*
X15737888Y7610049D01*
X15738483Y7611834D01*
X15738879Y7613421D01*
X15739078Y7614810D01*
Y7615603D01*
Y7616000D01*
X15738680Y7618976D01*
X15737888Y7621554D01*
X15736896Y7623935D01*
X15735507Y7625919D01*
X15734315Y7627704D01*
X15733125Y7628894D01*
X15732333Y7629688D01*
X15732133Y7629886D01*
X15730746Y7630878D01*
X15729160Y7631870D01*
X15725587Y7633259D01*
X15721819Y7634250D01*
X15718050Y7634846D01*
X15714677Y7635441D01*
X15713091D01*
X15711900Y7635639D01*
X15709322D01*
X15703966Y7635441D01*
X15699402Y7634647D01*
X15695435Y7633655D01*
X15692261Y7632465D01*
X15689880Y7631275D01*
X15688095Y7630283D01*
X15687103Y7629489D01*
X15686707Y7629291D01*
X15684128Y7626712D01*
X15681946Y7623737D01*
X15680359Y7620761D01*
X15679169Y7617785D01*
X15678375Y7615008D01*
X15677979Y7612826D01*
X15677780Y7612033D01*
X15677580Y7611437D01*
Y7611041D01*
Y7610842D01*
X15661116Y7612033D01*
X15661513Y7616198D01*
X15662306Y7619967D01*
X15663496Y7623538D01*
X15664687Y7626514D01*
X15665678Y7628894D01*
X15666672Y7630878D01*
X15667464Y7632068D01*
X15667664Y7632465D01*
X15670042Y7635639D01*
X15672820Y7638416D01*
X15675598Y7640797D01*
X15678375Y7642780D01*
X15680954Y7644169D01*
X15682938Y7645359D01*
X15683731Y7645756D01*
X15684326Y7645954D01*
X15684525Y7646153D01*
X15684723D01*
X15688889Y7647740D01*
X15693253Y7648930D01*
X15697617Y7649724D01*
X15701585Y7650319D01*
X15704958Y7650715D01*
X15706346D01*
X15707735Y7650914D01*
X15710115D01*
X15714876Y7650715D01*
D02*
G37*
G36*
X15598624Y7264400D02*
X15580573D01*
X15553197Y7363587D01*
X15552602Y7366166D01*
X15551808Y7368745D01*
X15551213Y7371125D01*
X15550618Y7373704D01*
X15550023Y7375688D01*
X15549626Y7377473D01*
X15549229Y7378465D01*
Y7378862D01*
X15549031Y7378267D01*
X15548833Y7377473D01*
X15548238Y7375291D01*
X15547643Y7372911D01*
X15546849Y7370133D01*
X15546254Y7367753D01*
X15545659Y7365571D01*
X15545461Y7364777D01*
X15545262Y7364182D01*
X15545062Y7363785D01*
Y7363587D01*
X15517688Y7264400D01*
X15500826D01*
X15465317Y7394732D01*
X15482774D01*
X15503008Y7310820D01*
X15504398Y7305067D01*
X15505785Y7299711D01*
X15506776Y7294751D01*
X15507768Y7290585D01*
X15508167Y7288800D01*
X15508563Y7287213D01*
X15508762Y7285824D01*
X15509158Y7284634D01*
X15509357Y7283642D01*
Y7283047D01*
X15509554Y7282650D01*
Y7282452D01*
X15510944Y7290585D01*
X15512531Y7298719D01*
X15514314Y7306654D01*
X15515109Y7310224D01*
X15515903Y7313597D01*
X15516696Y7316771D01*
X15517291Y7319746D01*
X15518085Y7322325D01*
X15518481Y7324507D01*
X15519077Y7326293D01*
X15519275Y7327483D01*
X15519672Y7328475D01*
Y7328673D01*
X15538319Y7394732D01*
X15559148D01*
X15583945Y7306654D01*
X15584143Y7305860D01*
X15584341Y7304670D01*
X15584738Y7303083D01*
X15585135Y7301496D01*
X15586127Y7297528D01*
X15587119Y7293363D01*
X15588309Y7289197D01*
X15588705Y7287411D01*
X15589102Y7285824D01*
X15589499Y7284436D01*
X15589697Y7283444D01*
X15589896Y7282650D01*
Y7282452D01*
X15590887Y7287411D01*
X15591681Y7292172D01*
X15592673Y7296735D01*
X15593468Y7300702D01*
X15594260Y7304075D01*
X15594656Y7305463D01*
X15594855Y7306852D01*
X15595055Y7307646D01*
X15595251Y7308439D01*
X15595450Y7308836D01*
Y7309034D01*
X15615089Y7394732D01*
X15632745D01*
X15598624Y7264400D01*
D02*
G37*
G36*
X15399060Y7396517D02*
X15405011Y7395724D01*
X15410367Y7394335D01*
X15412749Y7393740D01*
X15414931Y7392946D01*
X15416914Y7392153D01*
X15418898Y7391558D01*
X15420485Y7390764D01*
X15421675Y7390169D01*
X15422865Y7389772D01*
X15423659Y7389376D01*
X15424055Y7388979D01*
X15424254D01*
X15429213Y7385805D01*
X15433775Y7382036D01*
X15437544Y7378267D01*
X15440520Y7374498D01*
X15443098Y7371125D01*
X15444090Y7369737D01*
X15444885Y7368546D01*
X15445480Y7367356D01*
X15445876Y7366563D01*
X15446272Y7366166D01*
Y7365967D01*
X15448853Y7360215D01*
X15450836Y7354065D01*
X15452026Y7348114D01*
X15453018Y7342559D01*
X15453415Y7339980D01*
X15453613Y7337798D01*
X15453812Y7335616D01*
Y7333831D01*
X15454010Y7332442D01*
Y7331450D01*
Y7330657D01*
Y7330459D01*
X15453812Y7323515D01*
X15453018Y7317167D01*
X15451828Y7311216D01*
X15451231Y7308439D01*
X15450636Y7306059D01*
X15450043Y7303678D01*
X15449448Y7301694D01*
X15448853Y7299909D01*
X15448257Y7298322D01*
X15447861Y7297132D01*
X15447462Y7296338D01*
X15447266Y7295743D01*
Y7295545D01*
X15444489Y7289792D01*
X15441115Y7284833D01*
X15437941Y7280468D01*
X15434569Y7277096D01*
X15431792Y7274319D01*
X15429411Y7272335D01*
X15428419Y7271740D01*
X15427824Y7271145D01*
X15427428Y7270946D01*
X15427229Y7270748D01*
X15424651Y7269161D01*
X15421873Y7267971D01*
X15416319Y7265789D01*
X15410567Y7264400D01*
X15405011Y7263210D01*
X15402631Y7263011D01*
X15400250Y7262615D01*
X15398267Y7262416D01*
X15396481D01*
X15394894Y7262218D01*
X15392911D01*
X15389140Y7262416D01*
X15385571Y7262615D01*
X15379024Y7264003D01*
X15376048Y7264797D01*
X15373073Y7265789D01*
X15370494Y7266780D01*
X15368114Y7267772D01*
X15365932Y7268764D01*
X15364146Y7269756D01*
X15362560Y7270748D01*
X15361171Y7271541D01*
X15359979Y7272335D01*
X15359187Y7272930D01*
X15358791Y7273128D01*
X15358592Y7273327D01*
X15356013Y7275509D01*
X15353632Y7277889D01*
X15349664Y7283047D01*
X15346094Y7288403D01*
X15343515Y7293759D01*
X15342325Y7296140D01*
X15341531Y7298322D01*
X15340738Y7300504D01*
X15339944Y7302091D01*
X15339548Y7303678D01*
X15339151Y7304670D01*
X15338953Y7305463D01*
Y7305662D01*
X15356210Y7310026D01*
X15357797Y7304273D01*
X15359782Y7299115D01*
X15362163Y7294950D01*
X15364345Y7291379D01*
X15366527Y7288800D01*
X15368312Y7286816D01*
X15369502Y7285626D01*
X15369701Y7285428D01*
X15369899Y7285229D01*
X15373866Y7282452D01*
X15377834Y7280468D01*
X15382001Y7278881D01*
X15385770Y7277889D01*
X15389140Y7277294D01*
X15390729Y7277096D01*
X15391919D01*
X15392911Y7276898D01*
X15394299D01*
X15398663Y7277096D01*
X15402829Y7277889D01*
X15406598Y7278881D01*
X15409772Y7279873D01*
X15412550Y7281063D01*
X15414732Y7281857D01*
X15415524Y7282254D01*
X15416119Y7282650D01*
X15416319Y7282849D01*
X15416518D01*
X15420088Y7285428D01*
X15423064Y7288403D01*
X15425642Y7291379D01*
X15427824Y7294553D01*
X15429411Y7297132D01*
X15430403Y7299512D01*
X15430800Y7300306D01*
X15431197Y7300901D01*
X15431395Y7301298D01*
Y7301496D01*
X15432982Y7306257D01*
X15434172Y7311216D01*
X15434966Y7316176D01*
X15435561Y7320738D01*
X15435759Y7322722D01*
X15435957Y7324507D01*
Y7326293D01*
X15436156Y7327681D01*
Y7328872D01*
Y7329665D01*
Y7330260D01*
Y7330459D01*
X15435957Y7335220D01*
X15435561Y7339782D01*
X15434966Y7343948D01*
X15434172Y7347717D01*
X15433379Y7350891D01*
X15433180Y7352280D01*
X15432784Y7353272D01*
X15432585Y7354263D01*
X15432387Y7354859D01*
X15432188Y7355255D01*
Y7355454D01*
X15430403Y7359818D01*
X15428221Y7363785D01*
X15425841Y7366959D01*
X15423659Y7369737D01*
X15421477Y7371919D01*
X15419691Y7373506D01*
X15418501Y7374498D01*
X15418301Y7374894D01*
X15418105D01*
X15414137Y7377275D01*
X15409972Y7379060D01*
X15405804Y7380449D01*
X15401837Y7381242D01*
X15398267Y7381837D01*
X15396878Y7382036D01*
X15395490D01*
X15394498Y7382234D01*
X15393109D01*
X15388348Y7382036D01*
X15384183Y7381242D01*
X15380412Y7380250D01*
X15377437Y7379060D01*
X15374860Y7377672D01*
X15373073Y7376680D01*
X15371883Y7375886D01*
X15371486Y7375688D01*
X15368312Y7372911D01*
X15365733Y7369737D01*
X15363353Y7366166D01*
X15361568Y7362794D01*
X15360179Y7359818D01*
X15359584Y7358429D01*
X15358989Y7357239D01*
X15358592Y7356247D01*
X15358392Y7355454D01*
X15358195Y7355057D01*
Y7354859D01*
X15341135Y7358826D01*
X15343515Y7365174D01*
X15344904Y7368150D01*
X15346294Y7370728D01*
X15347881Y7373307D01*
X15349467Y7375688D01*
X15350854Y7377672D01*
X15352441Y7379655D01*
X15353831Y7381242D01*
X15355219Y7382631D01*
X15356609Y7384020D01*
X15357600Y7385011D01*
X15358592Y7385805D01*
X15359187Y7386400D01*
X15359584Y7386598D01*
X15359782Y7386797D01*
X15362361Y7388582D01*
X15364940Y7390169D01*
X15367717Y7391558D01*
X15370494Y7392748D01*
X15376048Y7394533D01*
X15381206Y7395724D01*
X15383588Y7396120D01*
X15385770Y7396319D01*
X15387753Y7396517D01*
X15389340Y7396715D01*
X15390729Y7396914D01*
X15392712D01*
X15399060Y7396517D01*
D02*
G37*
G36*
X15702176Y7396715D02*
X15706738Y7396120D01*
X15710706Y7395525D01*
X15714276Y7394732D01*
X15717055Y7393740D01*
X15718243Y7393343D01*
X15719237Y7393145D01*
X15720229Y7392748D01*
X15720824Y7392550D01*
X15721021Y7392351D01*
X15721220D01*
X15724989Y7390566D01*
X15728362Y7388384D01*
X15731139Y7386202D01*
X15733321Y7384218D01*
X15735106Y7382234D01*
X15736494Y7380647D01*
X15737288Y7379655D01*
X15737486Y7379457D01*
Y7379259D01*
X15739272Y7376085D01*
X15740660Y7372712D01*
X15741652Y7369737D01*
X15742247Y7366761D01*
X15742644Y7364380D01*
X15743040Y7362595D01*
Y7361802D01*
Y7361207D01*
Y7361008D01*
Y7360810D01*
X15742842Y7357636D01*
X15742247Y7354462D01*
X15741652Y7351685D01*
X15740660Y7349304D01*
X15739867Y7347320D01*
X15739272Y7345932D01*
X15738676Y7344940D01*
X15738478Y7344543D01*
X15736494Y7341964D01*
X15734312Y7339584D01*
X15732130Y7337600D01*
X15729750Y7335815D01*
X15727766Y7334426D01*
X15726180Y7333434D01*
X15724989Y7332641D01*
X15724789Y7332442D01*
X15724593D01*
X15723203Y7331649D01*
X15721419Y7331054D01*
X15717648Y7329665D01*
X15713483Y7328276D01*
X15709317Y7326888D01*
X15705548Y7325896D01*
X15703961Y7325499D01*
X15702573Y7325102D01*
X15701382Y7324706D01*
X15700391Y7324507D01*
X15699796Y7324309D01*
X15699597D01*
X15696423Y7323515D01*
X15693446Y7322722D01*
X15690669Y7322127D01*
X15688289Y7321532D01*
X15686307Y7320937D01*
X15684322Y7320341D01*
X15682735Y7319945D01*
X15681148Y7319548D01*
X15679958Y7319151D01*
X15678966Y7318754D01*
X15677379Y7318358D01*
X15676585Y7318159D01*
X15676387Y7317961D01*
X15673610Y7316771D01*
X15671031Y7315382D01*
X15669048Y7314192D01*
X15667461Y7313002D01*
X15666270Y7311811D01*
X15665279Y7311018D01*
X15664880Y7310423D01*
X15664684Y7310224D01*
X15663493Y7308439D01*
X15662698Y7306654D01*
X15661906Y7304868D01*
X15661510Y7303083D01*
X15661311Y7301694D01*
X15661111Y7300504D01*
Y7299711D01*
Y7299512D01*
X15661311Y7297330D01*
X15661707Y7295346D01*
X15662302Y7293363D01*
X15662898Y7291776D01*
X15663692Y7290387D01*
X15664285Y7289395D01*
X15664684Y7288602D01*
X15664880Y7288403D01*
X15666467Y7286618D01*
X15668254Y7285031D01*
X15670039Y7283642D01*
X15672023Y7282452D01*
X15673610Y7281460D01*
X15674998Y7280865D01*
X15675792Y7280468D01*
X15676189Y7280270D01*
X15679164Y7279278D01*
X15682140Y7278683D01*
X15684917Y7278088D01*
X15687694Y7277889D01*
X15689876Y7277691D01*
X15691859Y7277493D01*
X15693446D01*
X15697415Y7277691D01*
X15701184Y7278088D01*
X15704755Y7278683D01*
X15707532Y7279476D01*
X15710110Y7280072D01*
X15711896Y7280667D01*
X15713086Y7281063D01*
X15713284Y7281262D01*
X15713483D01*
X15716460Y7282849D01*
X15719237Y7284436D01*
X15721419Y7286221D01*
X15723203Y7287808D01*
X15724789Y7289197D01*
X15725781Y7290387D01*
X15726376Y7291180D01*
X15726576Y7291379D01*
X15727963Y7293958D01*
X15729153Y7296537D01*
X15729948Y7299314D01*
X15730740Y7301893D01*
X15731139Y7304273D01*
X15731535Y7306059D01*
X15731734Y7307249D01*
Y7307447D01*
Y7307646D01*
X15748000Y7306257D01*
X15747603Y7301496D01*
X15746809Y7297132D01*
X15745621Y7292966D01*
X15744429Y7289593D01*
X15743239Y7286618D01*
X15742644Y7285428D01*
X15742049Y7284436D01*
X15741652Y7283642D01*
X15741255Y7283047D01*
X15741057Y7282849D01*
Y7282650D01*
X15738280Y7279080D01*
X15735106Y7275906D01*
X15732130Y7273327D01*
X15728957Y7271145D01*
X15726376Y7269359D01*
X15724194Y7268169D01*
X15723402Y7267772D01*
X15722807Y7267376D01*
X15722411Y7267177D01*
X15722211D01*
X15717450Y7265590D01*
X15712491Y7264400D01*
X15707532Y7263408D01*
X15702969Y7262813D01*
X15700787Y7262615D01*
X15698804Y7262416D01*
X15697018D01*
X15695628Y7262218D01*
X15692654D01*
X15687495Y7262416D01*
X15682933Y7263011D01*
X15678569Y7263805D01*
X15674998Y7264797D01*
X15671825Y7265590D01*
X15670634Y7265987D01*
X15669643Y7266384D01*
X15668849Y7266780D01*
X15668254Y7266979D01*
X15667857Y7267177D01*
X15667659D01*
X15663692Y7269359D01*
X15660120Y7271541D01*
X15657146Y7273922D01*
X15654764Y7276302D01*
X15652780Y7278286D01*
X15651590Y7279873D01*
X15650598Y7281063D01*
X15650400Y7281460D01*
X15648416Y7284833D01*
X15647028Y7288403D01*
X15645837Y7291776D01*
X15645242Y7294751D01*
X15644846Y7297330D01*
X15644449Y7299314D01*
Y7300107D01*
Y7300702D01*
Y7300901D01*
Y7301099D01*
X15644647Y7304868D01*
X15645242Y7308439D01*
X15646234Y7311613D01*
X15647226Y7314192D01*
X15648218Y7316572D01*
X15649210Y7318159D01*
X15649805Y7319151D01*
X15650003Y7319548D01*
X15652185Y7322325D01*
X15654764Y7324904D01*
X15657541Y7327285D01*
X15660320Y7329268D01*
X15662898Y7330657D01*
X15664880Y7331847D01*
X15665675Y7332244D01*
X15666072Y7332641D01*
X15666467Y7332839D01*
X15666667D01*
X15668254Y7333434D01*
X15670238Y7334228D01*
X15672221Y7335021D01*
X15674602Y7335616D01*
X15679362Y7337005D01*
X15684125Y7338394D01*
X15688487Y7339385D01*
X15690472Y7339980D01*
X15692258Y7340377D01*
X15693646Y7340774D01*
X15694637Y7340972D01*
X15695432Y7341171D01*
X15695628D01*
X15699397Y7342163D01*
X15702771Y7342956D01*
X15705746Y7343750D01*
X15708524Y7344741D01*
X15710904Y7345535D01*
X15712888Y7346130D01*
X15714673Y7346924D01*
X15716260Y7347717D01*
X15717648Y7348312D01*
X15718839Y7348709D01*
X15719633Y7349304D01*
X15720229Y7349701D01*
X15721220Y7350296D01*
X15721419Y7350494D01*
X15723006Y7352280D01*
X15724194Y7354065D01*
X15725188Y7356049D01*
X15725781Y7357834D01*
X15726180Y7359421D01*
X15726376Y7360810D01*
Y7361603D01*
Y7362000D01*
X15725980Y7364976D01*
X15725188Y7367554D01*
X15724194Y7369935D01*
X15722807Y7371919D01*
X15721616Y7373704D01*
X15720425Y7374894D01*
X15719633Y7375688D01*
X15719434Y7375886D01*
X15718047Y7376878D01*
X15716460Y7377870D01*
X15712888Y7379259D01*
X15709119Y7380250D01*
X15705350Y7380846D01*
X15701978Y7381441D01*
X15700391D01*
X15699200Y7381639D01*
X15696622D01*
X15691264Y7381441D01*
X15686702Y7380647D01*
X15682735Y7379655D01*
X15679561Y7378465D01*
X15677180Y7377275D01*
X15675395Y7376283D01*
X15674403Y7375489D01*
X15674007Y7375291D01*
X15671428Y7372712D01*
X15669246Y7369737D01*
X15667659Y7366761D01*
X15666467Y7363785D01*
X15665675Y7361008D01*
X15665279Y7358826D01*
X15665080Y7358033D01*
X15664880Y7357437D01*
Y7357041D01*
Y7356842D01*
X15648416Y7358033D01*
X15648813Y7362198D01*
X15649606Y7365967D01*
X15650797Y7369538D01*
X15651987Y7372514D01*
X15652979Y7374894D01*
X15653970Y7376878D01*
X15654764Y7378068D01*
X15654964Y7378465D01*
X15657343Y7381639D01*
X15660120Y7384416D01*
X15662898Y7386797D01*
X15665675Y7388780D01*
X15668254Y7390169D01*
X15670238Y7391359D01*
X15671031Y7391756D01*
X15671626Y7391954D01*
X15671825Y7392153D01*
X15672023D01*
X15676189Y7393740D01*
X15680553Y7394930D01*
X15684917Y7395724D01*
X15688885Y7396319D01*
X15692258Y7396715D01*
X15693646D01*
X15695033Y7396914D01*
X15697415D01*
X15702176Y7396715D01*
D02*
G37*
G36*
X15615092Y6997700D02*
X15598628D01*
Y7100061D01*
X15530190Y6997700D01*
X15512534D01*
Y7128032D01*
X15528999D01*
Y7025671D01*
X15597636Y7128032D01*
X15615092D01*
Y6997700D01*
D02*
G37*
G36*
X15702776Y7129817D02*
X15709123Y7129024D01*
X15715074Y7127635D01*
X15717653Y7126841D01*
X15720033Y7126246D01*
X15722215Y7125453D01*
X15724199Y7124659D01*
X15725986Y7124064D01*
X15727373Y7123271D01*
X15728365Y7122874D01*
X15729356Y7122477D01*
X15729755Y7122080D01*
X15729951D01*
X15732729Y7120494D01*
X15735110Y7118708D01*
X15739871Y7114939D01*
X15743640Y7110972D01*
X15747012Y7107004D01*
X15749393Y7103235D01*
X15750385Y7101846D01*
X15751376Y7100458D01*
X15751971Y7099267D01*
X15752368Y7098474D01*
X15752765Y7097879D01*
Y7097680D01*
X15755344Y7091531D01*
X15757327Y7085183D01*
X15758716Y7079232D01*
X15759708Y7073677D01*
X15760104Y7071297D01*
X15760303Y7069115D01*
X15760503Y7067131D01*
Y7065346D01*
X15760699Y7063957D01*
Y7062965D01*
Y7062370D01*
Y7062172D01*
X15760303Y7055228D01*
X15759509Y7048682D01*
X15758121Y7042731D01*
X15757526Y7039954D01*
X15756734Y7037573D01*
X15755939Y7035193D01*
X15755344Y7033209D01*
X15754550Y7031424D01*
X15753955Y7030035D01*
X15753558Y7028845D01*
X15753162Y7028051D01*
X15752765Y7027456D01*
Y7027258D01*
X15749393Y7021902D01*
X15745624Y7017141D01*
X15741853Y7012975D01*
X15737888Y7009602D01*
X15734515Y7007024D01*
X15733125Y7006032D01*
X15731737Y7005238D01*
X15730746Y7004445D01*
X15729755Y7004048D01*
X15729356Y7003850D01*
X15729160Y7003651D01*
X15723207Y7000874D01*
X15717058Y6998890D01*
X15711305Y6997502D01*
X15705750Y6996510D01*
X15703371Y6996113D01*
X15701189Y6995915D01*
X15699203Y6995716D01*
X15697420D01*
X15696030Y6995518D01*
X15694244D01*
X15689087Y6995716D01*
X15683929Y6996311D01*
X15679367Y6997105D01*
X15675201Y6998097D01*
X15673415Y6998493D01*
X15671629Y6998890D01*
X15670241Y6999287D01*
X15669051Y6999684D01*
X15668059Y7000080D01*
X15667265Y7000279D01*
X15666869Y7000477D01*
X15666672D01*
X15661711Y7002659D01*
X15656752Y7005040D01*
X15652388Y7007619D01*
X15648421Y7009999D01*
X15645049Y7012380D01*
X15643658Y7013173D01*
X15642468Y7014165D01*
X15641476Y7014760D01*
X15640881Y7015355D01*
X15640485Y7015554D01*
X15640286Y7015752D01*
Y7064155D01*
X15695435D01*
Y7048880D01*
X15657149D01*
Y7024282D01*
X15659529Y7022497D01*
X15662108Y7020711D01*
X15664687Y7019124D01*
X15667265Y7017736D01*
X15669646Y7016546D01*
X15671629Y7015752D01*
X15672424Y7015355D01*
X15673019Y7015157D01*
X15673216Y7014959D01*
X15673415D01*
X15677383Y7013570D01*
X15681351Y7012578D01*
X15685120Y7011785D01*
X15688293Y7011388D01*
X15691071Y7010991D01*
X15693253Y7010793D01*
X15695238D01*
X15699998Y7010991D01*
X15704559Y7011586D01*
X15708528Y7012578D01*
X15712297Y7013570D01*
X15715273Y7014562D01*
X15716661Y7015157D01*
X15717653Y7015554D01*
X15718446Y7015752D01*
X15719041Y7016149D01*
X15719438Y7016347D01*
X15719637D01*
X15723604Y7018728D01*
X15727174Y7021505D01*
X15730150Y7024480D01*
X15732532Y7027258D01*
X15734315Y7029837D01*
X15735706Y7031820D01*
X15736301Y7032614D01*
X15736697Y7033209D01*
X15736896Y7033606D01*
Y7033804D01*
X15738879Y7038565D01*
X15740266Y7043326D01*
X15741458Y7048285D01*
X15742053Y7053046D01*
X15742252Y7055030D01*
X15742450Y7057014D01*
X15742648Y7058799D01*
Y7060188D01*
X15742847Y7061576D01*
Y7062370D01*
Y7062965D01*
Y7063163D01*
X15742648Y7068321D01*
X15742053Y7073280D01*
X15741258Y7077645D01*
X15740266Y7081612D01*
X15739474Y7084786D01*
X15739078Y7086175D01*
X15738680Y7087167D01*
X15738284Y7088159D01*
X15738084Y7088754D01*
X15737888Y7089150D01*
Y7089349D01*
X15736697Y7091928D01*
X15735507Y7094308D01*
X15734119Y7096490D01*
X15732729Y7098474D01*
X15731538Y7100061D01*
X15730547Y7101251D01*
X15729951Y7102045D01*
X15729755Y7102243D01*
X15727573Y7104425D01*
X15725389Y7106211D01*
X15723009Y7107798D01*
X15720827Y7109186D01*
X15718843Y7110376D01*
X15717256Y7111170D01*
X15716264Y7111567D01*
X15715868Y7111765D01*
X15712495Y7112955D01*
X15709123Y7113947D01*
X15705553Y7114542D01*
X15702377Y7115137D01*
X15699602Y7115336D01*
X15697420Y7115534D01*
X15695435D01*
X15691864Y7115336D01*
X15688492Y7114939D01*
X15685516Y7114344D01*
X15682938Y7113749D01*
X15680756Y7113154D01*
X15678970Y7112559D01*
X15677979Y7112162D01*
X15677580Y7111963D01*
X15674606Y7110575D01*
X15672224Y7109186D01*
X15670042Y7107599D01*
X15668259Y7106211D01*
X15666869Y7104822D01*
X15665877Y7103830D01*
X15665282Y7103037D01*
X15665083Y7102838D01*
X15663496Y7100458D01*
X15662108Y7097879D01*
X15660918Y7095300D01*
X15659926Y7092920D01*
X15659132Y7090539D01*
X15658339Y7088754D01*
X15658141Y7087563D01*
X15657942Y7087365D01*
Y7087167D01*
X15642271Y7091531D01*
X15643658Y7096292D01*
X15645245Y7100458D01*
X15646832Y7104028D01*
X15648421Y7107004D01*
X15650008Y7109583D01*
X15651198Y7111368D01*
X15651991Y7112360D01*
X15652190Y7112757D01*
X15654768Y7115733D01*
X15657744Y7118113D01*
X15660719Y7120295D01*
X15663695Y7122080D01*
X15666273Y7123667D01*
X15668259Y7124659D01*
X15669051Y7125056D01*
X15669646Y7125254D01*
X15670042Y7125453D01*
X15670241D01*
X15674606Y7127040D01*
X15678970Y7128230D01*
X15683334Y7129024D01*
X15687103Y7129619D01*
X15690475Y7130015D01*
X15692062D01*
X15693253Y7130214D01*
X15695633D01*
X15702776Y7129817D01*
D02*
G37*
G36*
X15483572Y6997700D02*
X15436755D01*
X15432391Y6997898D01*
X15428424Y6998097D01*
X15424854Y6998493D01*
X15421877Y6998890D01*
X15419298Y6999287D01*
X15417513Y6999485D01*
X15416322Y6999882D01*
X15415926D01*
X15412553Y7000874D01*
X15409578Y7001866D01*
X15406999Y7002858D01*
X15404817Y7003850D01*
X15403032Y7004841D01*
X15401643Y7005635D01*
X15400652Y7006032D01*
X15400453Y7006230D01*
X15398071Y7008015D01*
X15395889Y7009999D01*
X15393707Y7011983D01*
X15392120Y7013768D01*
X15390533Y7015554D01*
X15389542Y7016942D01*
X15388750Y7017736D01*
X15388550Y7018133D01*
X15386568Y7021108D01*
X15384781Y7024282D01*
X15383194Y7027456D01*
X15382004Y7030432D01*
X15381012Y7033209D01*
X15380219Y7035193D01*
X15380020Y7035986D01*
X15379822Y7036581D01*
X15379623Y7036978D01*
Y7037176D01*
X15378433Y7041541D01*
X15377640Y7046103D01*
X15376846Y7050666D01*
X15376450Y7054633D01*
X15376251Y7058204D01*
Y7059791D01*
X15376053Y7060981D01*
Y7062172D01*
Y7062965D01*
Y7063362D01*
Y7063560D01*
X15376251Y7069908D01*
X15376846Y7075661D01*
X15377640Y7080819D01*
X15378235Y7083199D01*
X15378632Y7085381D01*
X15379028Y7087365D01*
X15379623Y7089150D01*
X15380020Y7090737D01*
X15380417Y7091928D01*
X15380814Y7092920D01*
X15381012Y7093713D01*
X15381210Y7094110D01*
Y7094308D01*
X15383392Y7099267D01*
X15385773Y7103632D01*
X15388351Y7107401D01*
X15390932Y7110575D01*
X15393114Y7113154D01*
X15394897Y7115137D01*
X15396288Y7116328D01*
X15396484Y7116724D01*
X15396684D01*
X15399858Y7119105D01*
X15403032Y7121089D01*
X15406206Y7122676D01*
X15409181Y7123866D01*
X15411760Y7124858D01*
X15413942Y7125453D01*
X15414735Y7125850D01*
X15415132D01*
X15415529Y7126048D01*
X15415729D01*
X15418903Y7126643D01*
X15422672Y7127238D01*
X15426637Y7127635D01*
X15430209Y7127833D01*
X15433582Y7128032D01*
X15483572D01*
Y6997700D01*
D02*
G37*
G36*
X11411393Y7239000D02*
X11394928D01*
Y7341361D01*
X11326489Y7239000D01*
X11308834D01*
Y7369332D01*
X11325299D01*
Y7266971D01*
X11393937Y7369332D01*
X11411393D01*
Y7239000D01*
D02*
G37*
G36*
X11499075Y7371117D02*
X11505423Y7370324D01*
X11511374Y7368935D01*
X11513953Y7368141D01*
X11516333Y7367546D01*
X11518515Y7366753D01*
X11520499Y7365959D01*
X11522285Y7365364D01*
X11523673Y7364571D01*
X11524665Y7364174D01*
X11525657Y7363777D01*
X11526054Y7363380D01*
X11526252D01*
X11529029Y7361794D01*
X11531410Y7360008D01*
X11536171Y7356239D01*
X11539940Y7352272D01*
X11543312Y7348304D01*
X11545693Y7344535D01*
X11546685Y7343146D01*
X11547676Y7341758D01*
X11548272Y7340567D01*
X11548668Y7339774D01*
X11549065Y7339179D01*
Y7338980D01*
X11551644Y7332831D01*
X11553628Y7326483D01*
X11555016Y7320532D01*
X11556008Y7314977D01*
X11556405Y7312597D01*
X11556603Y7310415D01*
X11556802Y7308431D01*
Y7306646D01*
X11557000Y7305257D01*
Y7304265D01*
Y7303670D01*
Y7303472D01*
X11556603Y7296528D01*
X11555810Y7289982D01*
X11554421Y7284031D01*
X11553826Y7281254D01*
X11553033Y7278873D01*
X11552239Y7276493D01*
X11551644Y7274509D01*
X11550850Y7272724D01*
X11550255Y7271335D01*
X11549859Y7270145D01*
X11549462Y7269351D01*
X11549065Y7268756D01*
Y7268558D01*
X11545693Y7263202D01*
X11541924Y7258441D01*
X11538154Y7254275D01*
X11534187Y7250902D01*
X11530815Y7248324D01*
X11529426Y7247332D01*
X11528037Y7246538D01*
X11527046Y7245745D01*
X11526054Y7245348D01*
X11525657Y7245150D01*
X11525459Y7244951D01*
X11519507Y7242174D01*
X11513358Y7240190D01*
X11507605Y7238802D01*
X11502050Y7237810D01*
X11499670Y7237413D01*
X11497488Y7237215D01*
X11495504Y7237016D01*
X11493719D01*
X11492330Y7236818D01*
X11490545D01*
X11485387Y7237016D01*
X11480229Y7237611D01*
X11475667Y7238405D01*
X11471501Y7239397D01*
X11469715Y7239793D01*
X11467930Y7240190D01*
X11466541Y7240587D01*
X11465351Y7240984D01*
X11464359Y7241380D01*
X11463566Y7241579D01*
X11463169Y7241777D01*
X11462971D01*
X11458011Y7243959D01*
X11453052Y7246340D01*
X11448688Y7248919D01*
X11444720Y7251299D01*
X11441348Y7253680D01*
X11439959Y7254473D01*
X11438769Y7255465D01*
X11437777Y7256060D01*
X11437182Y7256655D01*
X11436785Y7256854D01*
X11436587Y7257052D01*
Y7305455D01*
X11491735D01*
Y7290180D01*
X11453449D01*
Y7265582D01*
X11455829Y7263797D01*
X11458408Y7262011D01*
X11460987Y7260424D01*
X11463566Y7259036D01*
X11465946Y7257846D01*
X11467930Y7257052D01*
X11468724Y7256655D01*
X11469319Y7256457D01*
X11469517Y7256259D01*
X11469715D01*
X11473683Y7254870D01*
X11477650Y7253878D01*
X11481420Y7253085D01*
X11484593Y7252688D01*
X11487371Y7252291D01*
X11489553Y7252093D01*
X11491537D01*
X11496298Y7252291D01*
X11500860Y7252886D01*
X11504828Y7253878D01*
X11508597Y7254870D01*
X11511572Y7255862D01*
X11512961Y7256457D01*
X11513953Y7256854D01*
X11514746Y7257052D01*
X11515341Y7257449D01*
X11515738Y7257647D01*
X11515937D01*
X11519904Y7260028D01*
X11523475Y7262805D01*
X11526450Y7265780D01*
X11528831Y7268558D01*
X11530616Y7271137D01*
X11532005Y7273120D01*
X11532600Y7273914D01*
X11532997Y7274509D01*
X11533195Y7274906D01*
Y7275104D01*
X11535179Y7279865D01*
X11536567Y7284626D01*
X11537758Y7289585D01*
X11538353Y7294346D01*
X11538551Y7296330D01*
X11538750Y7298314D01*
X11538948Y7300099D01*
Y7301488D01*
X11539146Y7302876D01*
Y7303670D01*
Y7304265D01*
Y7304463D01*
X11538948Y7309621D01*
X11538353Y7314580D01*
X11537559Y7318945D01*
X11536567Y7322912D01*
X11535774Y7326086D01*
X11535377Y7327475D01*
X11534980Y7328467D01*
X11534584Y7329459D01*
X11534385Y7330054D01*
X11534187Y7330450D01*
Y7330649D01*
X11532997Y7333228D01*
X11531807Y7335608D01*
X11530418Y7337790D01*
X11529029Y7339774D01*
X11527839Y7341361D01*
X11526847Y7342551D01*
X11526252Y7343345D01*
X11526054Y7343543D01*
X11523872Y7345725D01*
X11521689Y7347511D01*
X11519309Y7349098D01*
X11517127Y7350486D01*
X11515143Y7351676D01*
X11513556Y7352470D01*
X11512564Y7352867D01*
X11512167Y7353065D01*
X11508795Y7354255D01*
X11505423Y7355247D01*
X11501852Y7355842D01*
X11498678Y7356437D01*
X11495901Y7356636D01*
X11493719Y7356834D01*
X11491735D01*
X11488164Y7356636D01*
X11484792Y7356239D01*
X11481816Y7355644D01*
X11479237Y7355049D01*
X11477055Y7354454D01*
X11475270Y7353859D01*
X11474278Y7353462D01*
X11473881Y7353263D01*
X11470906Y7351875D01*
X11468525Y7350486D01*
X11466343Y7348899D01*
X11464558Y7347511D01*
X11463169Y7346122D01*
X11462177Y7345130D01*
X11461582Y7344337D01*
X11461384Y7344138D01*
X11459797Y7341758D01*
X11458408Y7339179D01*
X11457218Y7336600D01*
X11456226Y7334220D01*
X11455433Y7331839D01*
X11454639Y7330054D01*
X11454441Y7328863D01*
X11454242Y7328665D01*
Y7328467D01*
X11438571Y7332831D01*
X11439959Y7337592D01*
X11441546Y7341758D01*
X11443133Y7345328D01*
X11444720Y7348304D01*
X11446307Y7350883D01*
X11447498Y7352668D01*
X11448291Y7353660D01*
X11448489Y7354057D01*
X11451068Y7357033D01*
X11454044Y7359413D01*
X11457020Y7361595D01*
X11459995Y7363380D01*
X11462574Y7364967D01*
X11464558Y7365959D01*
X11465351Y7366356D01*
X11465946Y7366554D01*
X11466343Y7366753D01*
X11466541D01*
X11470906Y7368340D01*
X11475270Y7369530D01*
X11479634Y7370324D01*
X11483403Y7370919D01*
X11486776Y7371315D01*
X11488363D01*
X11489553Y7371514D01*
X11491933D01*
X11499075Y7371117D01*
D02*
G37*
G36*
X11279872Y7239000D02*
X11233055D01*
X11228691Y7239198D01*
X11224724Y7239397D01*
X11221153Y7239793D01*
X11218177Y7240190D01*
X11215598Y7240587D01*
X11213813Y7240785D01*
X11212623Y7241182D01*
X11212226D01*
X11208854Y7242174D01*
X11205878Y7243166D01*
X11203299Y7244158D01*
X11201117Y7245150D01*
X11199332Y7246141D01*
X11197943Y7246935D01*
X11196951Y7247332D01*
X11196753Y7247530D01*
X11194372Y7249315D01*
X11192190Y7251299D01*
X11190008Y7253283D01*
X11188421Y7255068D01*
X11186834Y7256854D01*
X11185842Y7258242D01*
X11185049Y7259036D01*
X11184850Y7259433D01*
X11182867Y7262408D01*
X11181081Y7265582D01*
X11179494Y7268756D01*
X11178304Y7271732D01*
X11177312Y7274509D01*
X11176519Y7276493D01*
X11176320Y7277286D01*
X11176122Y7277881D01*
X11175924Y7278278D01*
Y7278476D01*
X11174733Y7282841D01*
X11173940Y7287403D01*
X11173146Y7291966D01*
X11172750Y7295933D01*
X11172551Y7299504D01*
Y7301091D01*
X11172353Y7302281D01*
Y7303472D01*
Y7304265D01*
Y7304662D01*
Y7304860D01*
X11172551Y7311208D01*
X11173146Y7316961D01*
X11173940Y7322119D01*
X11174535Y7324499D01*
X11174932Y7326681D01*
X11175328Y7328665D01*
X11175924Y7330450D01*
X11176320Y7332037D01*
X11176717Y7333228D01*
X11177114Y7334220D01*
X11177312Y7335013D01*
X11177511Y7335410D01*
Y7335608D01*
X11179693Y7340567D01*
X11182073Y7344932D01*
X11184652Y7348701D01*
X11187231Y7351875D01*
X11189413Y7354454D01*
X11191198Y7356437D01*
X11192587Y7357628D01*
X11192785Y7358024D01*
X11192984D01*
X11196158Y7360405D01*
X11199332Y7362389D01*
X11202506Y7363976D01*
X11205481Y7365166D01*
X11208060Y7366158D01*
X11210242Y7366753D01*
X11211036Y7367150D01*
X11211432D01*
X11211829Y7367348D01*
X11212028D01*
X11215202Y7367943D01*
X11218971Y7368538D01*
X11222938Y7368935D01*
X11226509Y7369133D01*
X11229881Y7369332D01*
X11279872D01*
Y7239000D01*
D02*
G37*
G36*
X11249666Y7783100D02*
X11283985Y7734300D01*
X11264544D01*
X11239152Y7770404D01*
X11234788Y7763461D01*
X11215347Y7734300D01*
X11195708D01*
X11230027Y7783100D01*
X11197890Y7828726D01*
X11217331D01*
X11233201Y7806310D01*
X11235581Y7802739D01*
X11236772Y7800954D01*
X11237962Y7799367D01*
X11238954Y7797978D01*
X11239747Y7796986D01*
X11240144Y7796193D01*
X11240342Y7795994D01*
X11242326Y7799367D01*
X11244508Y7802739D01*
X11245500Y7804128D01*
X11246095Y7805318D01*
X11246690Y7806111D01*
X11246889Y7806310D01*
X11261767Y7828726D01*
X11281406D01*
X11249666Y7783100D01*
D02*
G37*
G36*
X11391900Y7849357D02*
X11349051D01*
Y7734300D01*
X11331793D01*
Y7849357D01*
X11288944D01*
Y7864632D01*
X11391900D01*
Y7849357D01*
D02*
G37*
G36*
X11239350Y7516400D02*
X11273669Y7467600D01*
X11254228D01*
X11228837Y7503704D01*
X11224472Y7496761D01*
X11205032Y7467600D01*
X11185393D01*
X11219711Y7516400D01*
X11187575Y7562026D01*
X11207015D01*
X11222885Y7539610D01*
X11225266Y7536039D01*
X11226456Y7534254D01*
X11227646Y7532667D01*
X11228638Y7531278D01*
X11229432Y7530286D01*
X11229828Y7529493D01*
X11230027Y7529294D01*
X11232011Y7532667D01*
X11234193Y7536039D01*
X11235185Y7537428D01*
X11235780Y7538618D01*
X11236375Y7539411D01*
X11236573Y7539610D01*
X11251451Y7562026D01*
X11271090D01*
X11239350Y7516400D01*
D02*
G37*
G36*
X11391900Y7467600D02*
X11374641D01*
Y7525525D01*
X11352424D01*
X11350440Y7525327D01*
X11348853D01*
X11347464Y7525128D01*
X11346472Y7524930D01*
X11345679D01*
X11345282Y7524732D01*
X11345084D01*
X11342108Y7523740D01*
X11339728Y7522550D01*
X11338736Y7521954D01*
X11337942Y7521558D01*
X11337546Y7521359D01*
X11337347Y7521161D01*
X11335760Y7520169D01*
X11334372Y7518780D01*
X11331396Y7516003D01*
X11330404Y7514615D01*
X11329412Y7513424D01*
X11328817Y7512631D01*
X11328619Y7512433D01*
X11326635Y7509854D01*
X11324651Y7507076D01*
X11322469Y7504101D01*
X11320485Y7501125D01*
X11318700Y7498546D01*
X11317311Y7496563D01*
X11316915Y7495769D01*
X11316518Y7495174D01*
X11316121Y7494777D01*
Y7494579D01*
X11298863Y7467600D01*
X11277240D01*
X11299854Y7502911D01*
X11302433Y7506680D01*
X11305012Y7510052D01*
X11307393Y7513028D01*
X11309575Y7515607D01*
X11311360Y7517590D01*
X11312749Y7519177D01*
X11313741Y7519971D01*
X11314137Y7520367D01*
X11315526Y7521558D01*
X11317311Y7522748D01*
X11320684Y7524930D01*
X11322072Y7525724D01*
X11323263Y7526319D01*
X11324056Y7526715D01*
X11324453Y7526914D01*
X11321080Y7527509D01*
X11317906Y7528104D01*
X11314931Y7528898D01*
X11312352Y7529889D01*
X11309773Y7530881D01*
X11307591Y7531873D01*
X11305409Y7532865D01*
X11303624Y7533857D01*
X11302037Y7534849D01*
X11300648Y7535642D01*
X11299458Y7536634D01*
X11298466Y7537229D01*
X11297871Y7538023D01*
X11297276Y7538420D01*
X11296879Y7538816D01*
X11295292Y7540602D01*
X11293903Y7542585D01*
X11291523Y7546553D01*
X11289936Y7550322D01*
X11288944Y7554091D01*
X11288150Y7557265D01*
X11287952Y7558654D01*
Y7559844D01*
X11287754Y7560836D01*
Y7561629D01*
Y7562026D01*
Y7562224D01*
X11287952Y7566192D01*
X11288547Y7569763D01*
X11289539Y7573135D01*
X11290531Y7576111D01*
X11291523Y7578491D01*
X11292515Y7580276D01*
X11293110Y7581467D01*
X11293308Y7581863D01*
X11295490Y7585037D01*
X11297871Y7587616D01*
X11300251Y7589798D01*
X11302632Y7591385D01*
X11304615Y7592774D01*
X11306202Y7593766D01*
X11307393Y7594163D01*
X11307591Y7594361D01*
X11307789D01*
X11309575Y7594956D01*
X11311559Y7595551D01*
X11315724Y7596345D01*
X11320089Y7597138D01*
X11324254Y7597535D01*
X11328222Y7597733D01*
X11329809D01*
X11331396Y7597932D01*
X11391900D01*
Y7467600D01*
D02*
G37*
%LPC*%
G36*
X15444492Y7633457D02*
X15417316D01*
X15411958Y7633259D01*
X15407396Y7633060D01*
X15403627Y7632663D01*
X15400453Y7632068D01*
X15398071Y7631473D01*
X15396484Y7631076D01*
X15395493Y7630878D01*
X15395097Y7630680D01*
X15391724Y7628894D01*
X15388550Y7626712D01*
X15385773Y7624332D01*
X15383392Y7621753D01*
X15381409Y7619571D01*
X15380020Y7617587D01*
X15379425Y7616794D01*
X15379227Y7616198D01*
X15378830Y7616000D01*
Y7615802D01*
X15377640Y7613620D01*
X15376648Y7611239D01*
X15374863Y7606280D01*
X15373672Y7601122D01*
X15372879Y7595964D01*
X15372681Y7593782D01*
X15372482Y7591600D01*
X15372284Y7589616D01*
X15372086Y7587831D01*
Y7586442D01*
Y7585450D01*
Y7584657D01*
Y7584459D01*
X15372284Y7579102D01*
X15372681Y7574341D01*
X15373276Y7569977D01*
X15373871Y7566208D01*
X15374466Y7563233D01*
X15374863Y7562042D01*
X15375061Y7561050D01*
X15375259Y7560257D01*
X15375458Y7559662D01*
X15375656Y7559463D01*
Y7559265D01*
X15377045Y7555694D01*
X15378632Y7552322D01*
X15380219Y7549545D01*
X15381607Y7547164D01*
X15382996Y7545379D01*
X15384186Y7543990D01*
X15384979Y7542998D01*
X15385178Y7542800D01*
X15386963Y7541213D01*
X15388750Y7539824D01*
X15390732Y7538833D01*
X15392715Y7537841D01*
X15394302Y7537047D01*
X15395692Y7536452D01*
X15396484Y7536254D01*
X15396883Y7536055D01*
X15399858Y7535262D01*
X15403032Y7534667D01*
X15406404Y7534270D01*
X15409578Y7534072D01*
X15412553Y7533873D01*
X15414735Y7533675D01*
X15444492D01*
Y7633457D01*
D02*
G37*
G36*
X15466313Y7112757D02*
X15439136D01*
X15433780Y7112559D01*
X15429218Y7112360D01*
X15425449Y7111963D01*
X15422273Y7111368D01*
X15419893Y7110773D01*
X15418306Y7110376D01*
X15417316Y7110178D01*
X15416917Y7109980D01*
X15413547Y7108194D01*
X15410371Y7106012D01*
X15407594Y7103632D01*
X15405214Y7101053D01*
X15403230Y7098871D01*
X15401842Y7096887D01*
X15401247Y7096094D01*
X15401048Y7095498D01*
X15400652Y7095300D01*
Y7095102D01*
X15399461Y7092920D01*
X15398470Y7090539D01*
X15396684Y7085580D01*
X15395493Y7080422D01*
X15394701Y7075264D01*
X15394502Y7073082D01*
X15394302Y7070900D01*
X15394106Y7068916D01*
X15393906Y7067131D01*
Y7065742D01*
Y7064750D01*
Y7063957D01*
Y7063759D01*
X15394106Y7058402D01*
X15394502Y7053641D01*
X15395097Y7049277D01*
X15395692Y7045508D01*
X15396288Y7042533D01*
X15396684Y7041342D01*
X15396883Y7040350D01*
X15397079Y7039557D01*
X15397279Y7038962D01*
X15397478Y7038763D01*
Y7038565D01*
X15398866Y7034994D01*
X15400453Y7031622D01*
X15402040Y7028845D01*
X15403429Y7026464D01*
X15404817Y7024679D01*
X15406007Y7023290D01*
X15406801Y7022298D01*
X15406999Y7022100D01*
X15408784Y7020513D01*
X15410570Y7019124D01*
X15412553Y7018133D01*
X15414537Y7017141D01*
X15416124Y7016347D01*
X15417513Y7015752D01*
X15418306Y7015554D01*
X15418703Y7015355D01*
X15421680Y7014562D01*
X15424854Y7013967D01*
X15428226Y7013570D01*
X15431400Y7013372D01*
X15434375Y7013173D01*
X15436557Y7012975D01*
X15466313D01*
Y7112757D01*
D02*
G37*
G36*
X11262613Y7354057D02*
X11235436D01*
X11230080Y7353859D01*
X11225517Y7353660D01*
X11221748Y7353263D01*
X11218574Y7352668D01*
X11216193Y7352073D01*
X11214606Y7351676D01*
X11213615Y7351478D01*
X11213218Y7351280D01*
X11209846Y7349494D01*
X11206672Y7347312D01*
X11203894Y7344932D01*
X11201514Y7342353D01*
X11199530Y7340171D01*
X11198141Y7338187D01*
X11197546Y7337394D01*
X11197348Y7336798D01*
X11196951Y7336600D01*
Y7336402D01*
X11195761Y7334220D01*
X11194769Y7331839D01*
X11192984Y7326880D01*
X11191793Y7321722D01*
X11191000Y7316564D01*
X11190802Y7314382D01*
X11190603Y7312200D01*
X11190405Y7310216D01*
X11190206Y7308431D01*
Y7307042D01*
Y7306050D01*
Y7305257D01*
Y7305059D01*
X11190405Y7299702D01*
X11190802Y7294941D01*
X11191397Y7290577D01*
X11191992Y7286808D01*
X11192587Y7283833D01*
X11192984Y7282642D01*
X11193182Y7281650D01*
X11193380Y7280857D01*
X11193579Y7280262D01*
X11193777Y7280063D01*
Y7279865D01*
X11195166Y7276294D01*
X11196753Y7272922D01*
X11198340Y7270145D01*
X11199728Y7267764D01*
X11201117Y7265979D01*
X11202307Y7264590D01*
X11203101Y7263598D01*
X11203299Y7263400D01*
X11205085Y7261813D01*
X11206870Y7260424D01*
X11208854Y7259433D01*
X11210837Y7258441D01*
X11212424Y7257647D01*
X11213813Y7257052D01*
X11214606Y7256854D01*
X11215003Y7256655D01*
X11217979Y7255862D01*
X11221153Y7255267D01*
X11224525Y7254870D01*
X11227699Y7254672D01*
X11230675Y7254473D01*
X11232857Y7254275D01*
X11262613D01*
Y7354057D01*
D02*
G37*
G36*
X11374641Y7583450D02*
X11333578D01*
X11328420Y7583252D01*
X11324056Y7582459D01*
X11320485Y7581665D01*
X11317510Y7580475D01*
X11315328Y7579483D01*
X11313542Y7578491D01*
X11312749Y7577698D01*
X11312352Y7577499D01*
X11310170Y7575119D01*
X11308385Y7572540D01*
X11307194Y7569961D01*
X11306401Y7567580D01*
X11306004Y7565398D01*
X11305607Y7563811D01*
Y7562621D01*
Y7562423D01*
Y7562224D01*
X11305806Y7559844D01*
X11306202Y7557662D01*
X11306798Y7555678D01*
X11307393Y7554091D01*
X11307988Y7552504D01*
X11308583Y7551512D01*
X11308980Y7550719D01*
X11309178Y7550520D01*
X11310567Y7548735D01*
X11312154Y7547148D01*
X11313939Y7545759D01*
X11315526Y7544569D01*
X11316915Y7543776D01*
X11318105Y7543180D01*
X11318898Y7542982D01*
X11319295Y7542784D01*
X11321874Y7541990D01*
X11324850Y7541395D01*
X11328024Y7540998D01*
X11330999Y7540800D01*
X11333578Y7540602D01*
X11335760Y7540403D01*
X11374641D01*
Y7583450D01*
D02*
G37*
%LPD*%
D10*
X13446600Y6901500D02*
G03*
X13446600Y7026500I0J62500D01*
G01*
X14556200Y7370700D02*
G03*
X14556200Y7495700I0J62500D01*
G01*
X17399001Y7886700D02*
X17678400D01*
Y8648700D01*
X17399001D02*
X17678400D01*
X17399001Y7886700D02*
Y8648700D01*
X12852400Y4965700D02*
X13055600D01*
Y5219700D01*
X12852400D02*
X13055600D01*
X12852400Y4965700D02*
Y5219700D01*
X12382500Y5334000D02*
X12615000D01*
X12382500Y4406900D02*
Y5334000D01*
Y4406900D02*
X12700000D01*
Y5334000D01*
X12615000D02*
X12700000D01*
X13446600Y7404100D02*
X14196600D01*
Y6515100D02*
Y7404100D01*
X13446600Y6515100D02*
X14196600D01*
X13446600D02*
Y6901500D01*
Y7026500D02*
Y7404100D01*
X6883400Y10795000D02*
Y11620500D01*
Y10121900D02*
Y10798000D01*
Y10121900D02*
X7721600D01*
Y11620500D01*
X6883400D02*
X7721600D01*
X16759700Y3644900D02*
X17585201D01*
X16086600D02*
X16762700D01*
X16086600Y2806700D02*
Y3644900D01*
Y2806700D02*
X17585201D01*
Y3644900D01*
X8737600Y10566400D02*
X8940800D01*
X8737600Y10312400D02*
Y10566400D01*
Y10312400D02*
X8940800D01*
Y10566400D01*
X8280400Y10579100D02*
X8483600D01*
X8280400Y10325100D02*
Y10579100D01*
Y10325100D02*
X8483600D01*
Y10579100D01*
X16357600Y7537800D02*
X16671800D01*
X16357600Y7055200D02*
Y7537800D01*
Y7055200D02*
X16671800D01*
Y7321900D01*
Y7275750D02*
Y7537800D01*
X16306799Y8115300D02*
X16510001D01*
X16306799Y7861300D02*
Y8115300D01*
Y7861300D02*
X16510001D01*
Y8115300D01*
X17056100Y6975800D02*
X17259300D01*
Y7229800D01*
X17056100D02*
X17259300D01*
X17056100Y6975800D02*
Y7229800D01*
X15951199Y7429500D02*
X16154401D01*
X15951199Y7175500D02*
Y7429500D01*
Y7175500D02*
X16154401D01*
Y7429500D01*
X16637000Y7848600D02*
X16840199D01*
Y8102600D01*
X16637000D02*
X16840199D01*
X16637000Y7848600D02*
Y8102600D01*
X14556200Y7495700D02*
Y7830600D01*
Y7030500D02*
Y7370700D01*
Y7030500D02*
X14806200D01*
Y7830600D01*
X14556200D02*
X14806200D01*
X11468100Y5736900D02*
Y5990900D01*
X11264900Y5736900D02*
X11468100D01*
X11264900D02*
Y5990900D01*
X11468100D01*
X11176000Y5743900D02*
Y5997900D01*
X10972800Y5743900D02*
X11176000D01*
X10972800D02*
Y5997900D01*
X11176000D01*
X11734800Y7620000D02*
Y7874000D01*
X11938000D01*
Y7620000D02*
Y7874000D01*
X11734800Y7620000D02*
X11938000D01*
X12115800Y7610800D02*
Y7864800D01*
X12319000D01*
Y7610800D02*
Y7864800D01*
X12115800Y7610800D02*
X12319000D01*
X13220700Y5464500D02*
Y5718500D01*
X13017500Y5464500D02*
X13220700D01*
X13017500D02*
Y5718500D01*
X13220700D01*
X13614400Y5461000D02*
Y5715000D01*
X13411200Y5461000D02*
X13614400D01*
X13411200D02*
Y5715000D01*
X13614400D01*
X15401300Y6946900D02*
Y7962900D01*
Y6946900D02*
X15684500D01*
Y7962900D01*
X15401300D02*
X15684500D01*
X15401300D02*
X15481300D01*
X10900400Y7937500D02*
X11137900D01*
X10900400Y7175500D02*
Y7937500D01*
Y7175500D02*
X11137900D01*
Y7937500D01*
D11*
X17348151Y7912067D02*
Y7810500D01*
X17195799D01*
Y7912067D01*
X17271976Y7810500D02*
Y7861283D01*
X17297366Y7962851D02*
X17195799Y8064418D01*
X17246584Y8013634D01*
X17297366Y8064418D01*
X17195799Y7962851D01*
X17322758Y8216769D02*
X17348151Y8191377D01*
Y8140593D01*
X17322758Y8115201D01*
X17221191D01*
X17195799Y8140593D01*
Y8191377D01*
X17221191Y8216769D01*
X17195799Y8267552D02*
Y8318336D01*
Y8292944D01*
X17348151D01*
Y8267552D01*
X17195799Y8419903D02*
Y8470686D01*
X17221191Y8496078D01*
X17271976D01*
X17297366Y8470686D01*
Y8419903D01*
X17271976Y8394511D01*
X17221191D01*
X17195799Y8419903D01*
X17297366Y8648429D02*
Y8572254D01*
X17271976Y8546862D01*
X17221191D01*
X17195799Y8572254D01*
Y8648429D01*
Y8699212D02*
X17348151D01*
X17246584D02*
X17297366Y8775388D01*
X17246584Y8699212D02*
X17195799Y8775388D01*
X13058141Y5420360D02*
Y5572711D01*
X12981966D01*
X12956573Y5547319D01*
Y5496535D01*
X12981966Y5471143D01*
X13058141D01*
X13007356D02*
X12956573Y5420360D01*
X12829614D02*
X12880397D01*
X12905789Y5445752D01*
Y5496535D01*
X12880397Y5521927D01*
X12829614D01*
X12804222Y5496535D01*
Y5471143D01*
X12905789D01*
X12753439Y5420360D02*
X12677263D01*
X12651871Y5445752D01*
X12677263Y5471143D01*
X12728047D01*
X12753439Y5496535D01*
X12728047Y5521927D01*
X12651871D01*
X12524912Y5420360D02*
X12575696D01*
X12601088Y5445752D01*
Y5496535D01*
X12575696Y5521927D01*
X12524912D01*
X12499521Y5496535D01*
Y5471143D01*
X12601088D01*
X12423345Y5547319D02*
Y5521927D01*
X12448737D01*
X12397954D01*
X12423345D01*
Y5445752D01*
X12397954Y5420360D01*
X14173613Y7617419D02*
X14199005Y7642811D01*
X14249788D01*
X14275180Y7617419D01*
Y7592027D01*
X14249788Y7566635D01*
X14199005D01*
X14173613Y7541243D01*
Y7515852D01*
X14199005Y7490460D01*
X14249788D01*
X14275180Y7515852D01*
X14122829Y7592027D02*
Y7515852D01*
X14097437Y7490460D01*
X14072046Y7515852D01*
X14046654Y7490460D01*
X14021262Y7515852D01*
Y7592027D01*
X13970479Y7490460D02*
X13919695D01*
X13945087D01*
Y7592027D01*
X13970479D01*
X13818127Y7617419D02*
Y7592027D01*
X13843520D01*
X13792735D01*
X13818127D01*
Y7515852D01*
X13792735Y7490460D01*
X13614993Y7592027D02*
X13691170D01*
X13716560Y7566635D01*
Y7515852D01*
X13691170Y7490460D01*
X13614993D01*
X13564211Y7642811D02*
Y7490460D01*
Y7566635D01*
X13538818Y7592027D01*
X13488036D01*
X13462643Y7566635D01*
Y7490460D01*
X7279640Y11707640D02*
X7228857D01*
X7254248D01*
Y11859991D01*
X7279640Y11834599D01*
X7051114Y11859991D02*
X7152681D01*
Y11783815D01*
X7101898Y11809207D01*
X7076506D01*
X7051114Y11783815D01*
Y11733032D01*
X7076506Y11707640D01*
X7127289D01*
X7152681Y11733032D01*
X7000330Y11859991D02*
Y11758424D01*
X6949547Y11707640D01*
X6898763Y11758424D01*
Y11859991D01*
X16254272Y3884391D02*
X16355840D01*
Y3808215D01*
X16305057Y3833607D01*
X16279665D01*
X16254272Y3808215D01*
Y3757432D01*
X16279665Y3732040D01*
X16330447D01*
X16355840Y3757432D01*
X16203490Y3884391D02*
Y3782824D01*
X16152705Y3732040D01*
X16101923Y3782824D01*
Y3884391D01*
X14389149Y7607300D02*
X14541499Y7505733D01*
X14389149D02*
X14541499Y7607300D01*
X14414542Y7429557D02*
X14439932D01*
Y7454949D01*
Y7404166D01*
Y7429557D01*
X14516109D01*
X14541499Y7404166D01*
X14439932Y7302599D02*
Y7251815D01*
X14465324Y7226423D01*
X14541499D01*
Y7302599D01*
X14516109Y7327990D01*
X14490717Y7302599D01*
Y7226423D01*
X14541499Y7175640D02*
Y7124856D01*
Y7150248D01*
X14389149D01*
Y7175640D01*
X11474440Y8176211D02*
Y8049252D01*
X11449048Y8023860D01*
X11398264D01*
X11372873Y8049252D01*
Y8176211D01*
X11322089Y8023860D02*
Y8125427D01*
X11271306Y8176211D01*
X11220522Y8125427D01*
Y8023860D01*
Y8100035D01*
X11322089D01*
X11169738Y8023860D02*
Y8176211D01*
X11093563D01*
X11068171Y8150819D01*
Y8100035D01*
X11093563Y8074643D01*
X11169738D01*
X11118955D02*
X11068171Y8023860D01*
X11017388Y8176211D02*
X10915820D01*
X10966604D01*
Y8023860D01*
X15873773Y8201611D02*
X15924557D01*
X15899165D01*
Y8074652D01*
X15924557Y8049260D01*
X15949948D01*
X15975340Y8074652D01*
X15822989Y8201611D02*
X15721422D01*
X15772206D01*
Y8049260D01*
X15670639D02*
Y8150827D01*
X15619855Y8201611D01*
X15569070Y8150827D01*
Y8049260D01*
Y8125435D01*
X15670639D01*
X15416721Y8176219D02*
X15442113Y8201611D01*
X15492896D01*
X15518288Y8176219D01*
Y8074652D01*
X15492896Y8049260D01*
X15442113D01*
X15416721Y8074652D01*
Y8125435D01*
X15467503D01*
D12*
X12974319Y5293360D02*
X12957391D01*
X12965855D01*
Y5344143D01*
X12974319Y5335680D01*
X12932001D02*
X12923537Y5344143D01*
X12906609D01*
X12898145Y5335680D01*
Y5301824D01*
X12906609Y5293360D01*
X12923537D01*
X12932001Y5301824D01*
Y5335680D01*
X12881216Y5293360D02*
Y5344143D01*
Y5310288D02*
X12855824Y5327216D01*
X12881216Y5310288D02*
X12855824Y5293360D01*
X8636017Y10515600D02*
X8686800D01*
Y10481744D01*
X8636017Y10430961D02*
Y10464817D01*
X8686800D01*
Y10430961D01*
X8661408Y10464817D02*
Y10447889D01*
X8636017Y10414033D02*
X8686800D01*
Y10388641D01*
X8678336Y10380177D01*
X8644480D01*
X8636017Y10388641D01*
Y10414033D01*
X8686800Y10329394D02*
Y10363250D01*
X8652944Y10329394D01*
X8644480D01*
X8636017Y10337858D01*
Y10354785D01*
X8644480Y10363250D01*
X8331200Y10655300D02*
X8348128D01*
X8339664D01*
Y10604517D01*
X8331200Y10612980D01*
X8373520Y10655300D02*
Y10646836D01*
X8381984D01*
Y10655300D01*
X8373520D01*
X8449695Y10604517D02*
X8415839D01*
Y10629908D01*
X8432767Y10621444D01*
X8441231D01*
X8449695Y10629908D01*
Y10646836D01*
X8441231Y10655300D01*
X8424303D01*
X8415839Y10646836D01*
X8466623Y10604517D02*
Y10655300D01*
Y10638372D01*
X8500479Y10604517D01*
X8475087Y10629908D01*
X8500479Y10655300D01*
X16471899Y8216883D02*
Y8166100D01*
X16438045D01*
X16387260Y8216883D02*
X16421117D01*
Y8166100D01*
X16387260D01*
X16421117Y8191492D02*
X16404189D01*
X16370332Y8216883D02*
Y8166100D01*
X16344942D01*
X16336478Y8174564D01*
Y8208420D01*
X16344942Y8216883D01*
X16370332D01*
X16827499Y8195720D02*
X16819035Y8204183D01*
X16802107D01*
X16793645Y8195720D01*
Y8187256D01*
X16802107Y8178792D01*
X16810571D01*
X16802107D01*
X16793645Y8170328D01*
Y8161864D01*
X16802107Y8153400D01*
X16819035D01*
X16827499Y8161864D01*
X16776717Y8195720D02*
X16768253Y8204183D01*
X16751324D01*
X16742860Y8195720D01*
Y8187256D01*
X16751324Y8178792D01*
X16759789D01*
X16751324D01*
X16742860Y8170328D01*
Y8161864D01*
X16751324Y8153400D01*
X16768253D01*
X16776717Y8161864D01*
X16725932Y8195720D02*
X16717468Y8204183D01*
X16700542D01*
X16692078Y8195720D01*
Y8161864D01*
X16700542Y8153400D01*
X16717468D01*
X16725932Y8161864D01*
Y8195720D01*
X16675150Y8153400D02*
Y8204183D01*
X16649757D01*
X16641293Y8195720D01*
Y8178792D01*
X16649757Y8170328D01*
X16675150D01*
X16658221D02*
X16641293Y8153400D01*
X16700500Y7645383D02*
X16666644D01*
X16683572D01*
Y7594600D01*
X16649718D02*
Y7645383D01*
X16624326D01*
X16615862Y7636920D01*
Y7619992D01*
X16624326Y7611528D01*
X16649718D01*
X16565077Y7636920D02*
X16573541Y7645383D01*
X16590469D01*
X16598933Y7636920D01*
Y7628456D01*
X16590469Y7619992D01*
X16573541D01*
X16565077Y7611528D01*
Y7603064D01*
X16573541Y7594600D01*
X16590469D01*
X16598933Y7603064D01*
X16548151Y7645383D02*
X16514294D01*
Y7636920D01*
X16548151Y7603064D01*
Y7594600D01*
X16497366Y7636920D02*
X16488902Y7645383D01*
X16471974D01*
X16463510Y7636920D01*
Y7628456D01*
X16471974Y7619992D01*
X16480438D01*
X16471974D01*
X16463510Y7611528D01*
Y7603064D01*
X16471974Y7594600D01*
X16488902D01*
X16497366Y7603064D01*
X16412727Y7645383D02*
X16429655Y7636920D01*
X16446584Y7619992D01*
Y7603064D01*
X16438120Y7594600D01*
X16421191D01*
X16412727Y7603064D01*
Y7611528D01*
X16421191Y7619992D01*
X16446584D01*
X16395799Y7636920D02*
X16387335Y7645383D01*
X16370407D01*
X16361943Y7636920D01*
Y7628456D01*
X16370407Y7619992D01*
X16378871D01*
X16370407D01*
X16361943Y7611528D01*
Y7603064D01*
X16370407Y7594600D01*
X16387335D01*
X16395799Y7603064D01*
X16345016Y7636920D02*
X16336552Y7645383D01*
X16319624D01*
X16311160Y7636920D01*
Y7628456D01*
X16319624Y7619992D01*
X16328088D01*
X16319624D01*
X16311160Y7611528D01*
Y7603064D01*
X16319624Y7594600D01*
X16336552D01*
X16345016Y7603064D01*
X17208501Y7302500D02*
X17191573D01*
X17200037D01*
Y7353283D01*
X17208501Y7344820D01*
X17166180Y7336356D02*
Y7310964D01*
X17157716Y7302500D01*
X17132326D01*
Y7336356D01*
X17106934Y7302500D02*
Y7344820D01*
Y7327892D01*
X17115398D01*
X17098470D01*
X17106934D01*
Y7344820D01*
X17098470Y7353283D01*
X16179800Y7509920D02*
X16171336Y7518383D01*
X16154408D01*
X16145944Y7509920D01*
Y7476064D01*
X16154408Y7467600D01*
X16171336D01*
X16179800Y7476064D01*
Y7509920D01*
X16129018Y7467600D02*
Y7476064D01*
X16120552D01*
Y7467600D01*
X16129018D01*
X16086697Y7509920D02*
X16078233Y7518383D01*
X16061305D01*
X16052841Y7509920D01*
Y7476064D01*
X16061305Y7467600D01*
X16078233D01*
X16086697Y7476064D01*
Y7509920D01*
X16035913Y7467600D02*
X16018985D01*
X16027449D01*
Y7518383D01*
X16035913Y7509920D01*
X15993594Y7501456D02*
Y7476064D01*
X15985130Y7467600D01*
X15959738D01*
Y7501456D01*
X15934346Y7467600D02*
Y7509920D01*
Y7492992D01*
X15942810D01*
X15925882D01*
X15934346D01*
Y7509920D01*
X15925882Y7518383D01*
X11465560Y6114500D02*
X11457096Y6122964D01*
X11440168D01*
X11431704Y6114500D01*
Y6080644D01*
X11440168Y6072180D01*
X11457096D01*
X11465560Y6080644D01*
Y6114500D01*
X11414777Y6072180D02*
Y6080644D01*
X11406312D01*
Y6072180D01*
X11414777D01*
X11372457D02*
X11355529D01*
X11363993D01*
Y6122964D01*
X11372457Y6114500D01*
X11330137Y6106036D02*
Y6080644D01*
X11321673Y6072180D01*
X11296281D01*
Y6106036D01*
X11270890Y6072180D02*
Y6114500D01*
Y6097572D01*
X11279354D01*
X11262426D01*
X11270890D01*
Y6114500D01*
X11262426Y6122964D01*
X11237034Y6063716D02*
X11203178D01*
X11186250Y6114500D02*
X11177786Y6122964D01*
X11160859D01*
X11152395Y6114500D01*
Y6106036D01*
X11160859Y6097572D01*
X11169323D01*
X11160859D01*
X11152395Y6089108D01*
Y6080644D01*
X11160859Y6072180D01*
X11177786D01*
X11186250Y6080644D01*
X11173460Y6123080D02*
X11164996Y6131543D01*
X11148068D01*
X11139604Y6123080D01*
Y6089224D01*
X11148068Y6080760D01*
X11164996D01*
X11173460Y6089224D01*
Y6123080D01*
X11122677Y6080760D02*
Y6089224D01*
X11114212D01*
Y6080760D01*
X11122677D01*
X11080357Y6123080D02*
X11071893Y6131543D01*
X11054965D01*
X11046501Y6123080D01*
Y6089224D01*
X11054965Y6080760D01*
X11071893D01*
X11080357Y6089224D01*
Y6123080D01*
X11029573Y6080760D02*
X11012645D01*
X11021109D01*
Y6131543D01*
X11029573Y6123080D01*
X10987254Y6114616D02*
Y6089224D01*
X10978790Y6080760D01*
X10953398D01*
Y6114616D01*
X10928006Y6080760D02*
Y6123080D01*
Y6106152D01*
X10936470D01*
X10919542D01*
X10928006D01*
Y6123080D01*
X10919542Y6131543D01*
X10894150Y6072296D02*
X10860295D01*
X10843367Y6123080D02*
X10834903Y6131543D01*
X10817975D01*
X10809511Y6123080D01*
Y6114616D01*
X10817975Y6106152D01*
X10826439D01*
X10817975D01*
X10809511Y6097688D01*
Y6089224D01*
X10817975Y6080760D01*
X10834903D01*
X10843367Y6089224D01*
X11950700Y7941720D02*
X11942236Y7950183D01*
X11925308D01*
X11916844Y7941720D01*
Y7907864D01*
X11925308Y7899400D01*
X11942236D01*
X11950700Y7907864D01*
Y7941720D01*
X11899917Y7899400D02*
Y7907864D01*
X11891452D01*
Y7899400D01*
X11899917D01*
X11857597D02*
X11840669D01*
X11849133D01*
Y7950183D01*
X11857597Y7941720D01*
X11815277Y7933256D02*
Y7907864D01*
X11806813Y7899400D01*
X11781421D01*
Y7933256D01*
X11756030Y7899400D02*
Y7941720D01*
Y7924792D01*
X11764494D01*
X11747566D01*
X11756030D01*
Y7941720D01*
X11747566Y7950183D01*
X11722174Y7890936D02*
X11688318D01*
X11637535Y7899400D02*
X11671390D01*
X11637535Y7933256D01*
Y7941720D01*
X11645999Y7950183D01*
X11662926D01*
X11671390Y7941720D01*
X12357100Y7929020D02*
X12348636Y7937483D01*
X12331708D01*
X12323244Y7929020D01*
Y7895164D01*
X12331708Y7886700D01*
X12348636D01*
X12357100Y7895164D01*
Y7929020D01*
X12306317Y7886700D02*
Y7895164D01*
X12297852D01*
Y7886700D01*
X12306317D01*
X12263997Y7929020D02*
X12255533Y7937483D01*
X12238605D01*
X12230141Y7929020D01*
Y7895164D01*
X12238605Y7886700D01*
X12255533D01*
X12263997Y7895164D01*
Y7929020D01*
X12213213Y7886700D02*
X12196285D01*
X12204749D01*
Y7937483D01*
X12213213Y7929020D01*
X12170894Y7920556D02*
Y7895164D01*
X12162430Y7886700D01*
X12137038D01*
Y7920556D01*
X12111646Y7886700D02*
Y7929020D01*
Y7912092D01*
X12120110D01*
X12103182D01*
X12111646D01*
Y7929020D01*
X12103182Y7937483D01*
X12077790Y7878236D02*
X12043935D01*
X11993151Y7886700D02*
X12027007D01*
X11993151Y7920556D01*
Y7929020D01*
X12001615Y7937483D01*
X12018543D01*
X12027007Y7929020D01*
X13218159Y5843680D02*
X13209695Y5852143D01*
X13192767D01*
X13184303Y5843680D01*
Y5809824D01*
X13192767Y5801360D01*
X13209695D01*
X13218159Y5809824D01*
Y5843680D01*
X13167377Y5801360D02*
Y5809824D01*
X13158913D01*
Y5801360D01*
X13167377D01*
X13125056D02*
X13108128D01*
X13116592D01*
Y5852143D01*
X13125056Y5843680D01*
X13082738Y5835216D02*
Y5809824D01*
X13074274Y5801360D01*
X13048882D01*
Y5835216D01*
X13023489Y5801360D02*
Y5843680D01*
Y5826752D01*
X13031953D01*
X13015025D01*
X13023489D01*
Y5843680D01*
X13015025Y5852143D01*
X12989635Y5792896D02*
X12955779D01*
X12938850Y5801360D02*
X12921922D01*
X12930386D01*
Y5852143D01*
X12938850Y5843680D01*
X13611861Y5838600D02*
X13603397Y5847063D01*
X13586469D01*
X13578004Y5838600D01*
Y5804744D01*
X13586469Y5796280D01*
X13603397D01*
X13611861Y5804744D01*
Y5838600D01*
X13561076Y5796280D02*
Y5804744D01*
X13552612D01*
Y5796280D01*
X13561076D01*
X13518758Y5838600D02*
X13510294Y5847063D01*
X13493365D01*
X13484901Y5838600D01*
Y5804744D01*
X13493365Y5796280D01*
X13510294D01*
X13518758Y5804744D01*
Y5838600D01*
X13467973Y5796280D02*
X13451045D01*
X13459509D01*
Y5847063D01*
X13467973Y5838600D01*
X13425655Y5830136D02*
Y5804744D01*
X13417191Y5796280D01*
X13391798D01*
Y5830136D01*
X13366406Y5796280D02*
Y5838600D01*
Y5821672D01*
X13374870D01*
X13357942D01*
X13366406D01*
Y5838600D01*
X13357942Y5847063D01*
X13332550Y5787816D02*
X13298695D01*
X13281767Y5796280D02*
X13264839D01*
X13273303D01*
Y5847063D01*
X13281767Y5838600D01*
%TF.MD5,fc26d05ec3c6140c3f58624c387183c8*%
M02*
