%TF.GenerationSoftware,Altium Limited,Altium Designer,19.1.5 (86)*%
G04 Layer_Color=65535*
%FSLAX45Y45*%
%MOMM*%
%TF.FileFunction,Legend,Top*%
%TF.Part,Single*%
G01*
G75*
%TA.AperFunction,NonConductor*%
%ADD36C,0.25400*%
%ADD37C,0.20000*%
%ADD55C,0.05000*%
G36*
X7998955Y7939447D02*
X7998757Y7939249D01*
X7998360Y7938852D01*
X7997765Y7938059D01*
X7996773Y7937067D01*
X7995781Y7935678D01*
X7994393Y7934091D01*
X7992806Y7932107D01*
X7991219Y7930124D01*
X7989433Y7927743D01*
X7987450Y7924966D01*
X7985267Y7922189D01*
X7983284Y7919015D01*
X7981102Y7915642D01*
X7978721Y7912072D01*
X7976539Y7908104D01*
X7974159Y7904137D01*
X7973960Y7903938D01*
X7973563Y7903145D01*
X7972968Y7901954D01*
X7972175Y7900367D01*
X7971183Y7898384D01*
X7969993Y7896003D01*
X7968604Y7893226D01*
X7967215Y7890250D01*
X7965827Y7887076D01*
X7964240Y7883506D01*
X7962653Y7879737D01*
X7961066Y7875769D01*
X7958090Y7867636D01*
X7955313Y7858907D01*
Y7858709D01*
X7955115Y7858114D01*
X7954916Y7857320D01*
X7954520Y7856130D01*
X7954123Y7854543D01*
X7953726Y7852758D01*
X7953329Y7850576D01*
X7952734Y7848393D01*
X7952337Y7845815D01*
X7951742Y7843037D01*
X7950750Y7837086D01*
X7949957Y7830341D01*
X7949362Y7823200D01*
X7932897D01*
Y7823398D01*
Y7823993D01*
Y7824787D01*
X7933095Y7825977D01*
Y7827366D01*
X7933294Y7829151D01*
X7933492Y7831333D01*
X7933690Y7833515D01*
X7934087Y7836094D01*
X7934484Y7839070D01*
X7934880Y7842046D01*
X7935476Y7845220D01*
X7936071Y7848790D01*
X7936864Y7852361D01*
X7938848Y7860296D01*
Y7860494D01*
X7939046Y7861288D01*
X7939443Y7862478D01*
X7939840Y7864065D01*
X7940435Y7866049D01*
X7941228Y7868231D01*
X7942022Y7870810D01*
X7943014Y7873785D01*
X7944204Y7876761D01*
X7945394Y7880133D01*
X7948172Y7887275D01*
X7951544Y7894813D01*
X7955313Y7902351D01*
X7955511Y7902550D01*
X7955908Y7903343D01*
X7956503Y7904335D01*
X7957297Y7905724D01*
X7958289Y7907509D01*
X7959479Y7909493D01*
X7960867Y7911675D01*
X7962256Y7914254D01*
X7965827Y7919610D01*
X7969794Y7925363D01*
X7973960Y7931115D01*
X7978523Y7936670D01*
X7914646D01*
Y7951945D01*
X7998955D01*
Y7939447D01*
D02*
G37*
G36*
X7872789Y7823200D02*
X7856721D01*
Y7925164D01*
X7856523Y7924966D01*
X7855729Y7924172D01*
X7854341Y7923180D01*
X7852555Y7921792D01*
X7850373Y7920007D01*
X7847794Y7918221D01*
X7844819Y7916039D01*
X7841446Y7914055D01*
X7841248D01*
X7841050Y7913857D01*
X7839859Y7913063D01*
X7838074Y7912072D01*
X7835892Y7910881D01*
X7833313Y7909493D01*
X7830536Y7908302D01*
X7827560Y7906914D01*
X7824783Y7905724D01*
Y7921395D01*
X7824981D01*
X7825378Y7921594D01*
X7826172Y7921990D01*
X7826965Y7922585D01*
X7828155Y7923180D01*
X7829544Y7923776D01*
X7832718Y7925561D01*
X7836289Y7927743D01*
X7840256Y7930322D01*
X7844224Y7933298D01*
X7847993Y7936472D01*
X7848191Y7936670D01*
X7848389Y7936868D01*
X7849580Y7938059D01*
X7851365Y7939844D01*
X7853547Y7942026D01*
X7855928Y7944803D01*
X7858308Y7947779D01*
X7860490Y7950953D01*
X7862276Y7954127D01*
X7872789D01*
Y7823200D01*
D02*
G37*
G36*
X7872393Y7607300D02*
X7856324D01*
Y7709264D01*
X7856126Y7709066D01*
X7855333Y7708272D01*
X7853944Y7707280D01*
X7852159Y7705892D01*
X7849976Y7704107D01*
X7847398Y7702321D01*
X7844422Y7700139D01*
X7841050Y7698155D01*
X7840851D01*
X7840653Y7697957D01*
X7839463Y7697163D01*
X7837677Y7696172D01*
X7835495Y7694981D01*
X7832916Y7693593D01*
X7830139Y7692402D01*
X7827163Y7691014D01*
X7824386Y7689824D01*
Y7705495D01*
X7824585D01*
X7824981Y7705694D01*
X7825775Y7706090D01*
X7826568Y7706685D01*
X7827759Y7707280D01*
X7829147Y7707876D01*
X7832321Y7709661D01*
X7835892Y7711843D01*
X7839859Y7714422D01*
X7843827Y7717398D01*
X7847596Y7720572D01*
X7847794Y7720770D01*
X7847993Y7720968D01*
X7849183Y7722159D01*
X7850968Y7723944D01*
X7853150Y7726126D01*
X7855531Y7728903D01*
X7857911Y7731879D01*
X7860093Y7735053D01*
X7861879Y7738227D01*
X7872393D01*
Y7607300D01*
D02*
G37*
G36*
X7958289Y7738028D02*
X7959876D01*
X7961463Y7737632D01*
X7965430Y7737037D01*
X7969794Y7735846D01*
X7974357Y7734061D01*
X7976737Y7732871D01*
X7978920Y7731680D01*
X7981102Y7730094D01*
X7983085Y7728308D01*
X7983284Y7728110D01*
X7983482Y7727911D01*
X7984077Y7727316D01*
X7984672Y7726523D01*
X7985466Y7725531D01*
X7986458Y7724341D01*
X7988441Y7721563D01*
X7990227Y7717993D01*
X7992012Y7713827D01*
X7993202Y7709264D01*
X7993401Y7706685D01*
X7993599Y7704107D01*
Y7703710D01*
Y7702520D01*
X7993401Y7700933D01*
X7993004Y7698750D01*
X7992409Y7696172D01*
X7991615Y7693593D01*
X7990425Y7690815D01*
X7988838Y7688237D01*
X7988640Y7688038D01*
X7988045Y7687245D01*
X7986854Y7686054D01*
X7985267Y7684467D01*
X7983284Y7682880D01*
X7980705Y7681294D01*
X7977729Y7679508D01*
X7974357Y7678120D01*
X7974555D01*
X7974952Y7677921D01*
X7975547Y7677723D01*
X7976341Y7677326D01*
X7978523Y7676334D01*
X7981102Y7675144D01*
X7984077Y7673359D01*
X7987053Y7671176D01*
X7990028Y7668399D01*
X7992607Y7665424D01*
X7992806Y7665027D01*
X7993599Y7663837D01*
X7994591Y7662051D01*
X7995781Y7659472D01*
X7996972Y7656497D01*
X7997963Y7652926D01*
X7998757Y7648959D01*
X7998955Y7644594D01*
Y7644396D01*
Y7643801D01*
Y7643007D01*
X7998757Y7641817D01*
X7998559Y7640428D01*
X7998360Y7638643D01*
X7997567Y7634676D01*
X7995980Y7630311D01*
X7995186Y7627931D01*
X7993996Y7625550D01*
X7992607Y7623170D01*
X7991020Y7620789D01*
X7989235Y7618607D01*
X7987053Y7616425D01*
X7986854Y7616227D01*
X7986458Y7616028D01*
X7985863Y7615433D01*
X7984871Y7614640D01*
X7983681Y7613846D01*
X7982292Y7612854D01*
X7980705Y7611863D01*
X7978721Y7610871D01*
X7976539Y7609680D01*
X7974159Y7608689D01*
X7971580Y7607697D01*
X7968802Y7606903D01*
X7966025Y7606110D01*
X7962851Y7605515D01*
X7959479Y7605316D01*
X7955908Y7605118D01*
X7954123D01*
X7952734Y7605316D01*
X7951147Y7605515D01*
X7949163Y7605713D01*
X7947180Y7606110D01*
X7944799Y7606507D01*
X7939840Y7607895D01*
X7937261Y7608887D01*
X7934682Y7609879D01*
X7932103Y7611267D01*
X7929524Y7612656D01*
X7927144Y7614441D01*
X7924763Y7616425D01*
X7924565Y7616624D01*
X7924168Y7617020D01*
X7923772Y7617615D01*
X7922978Y7618409D01*
X7921986Y7619599D01*
X7920994Y7620988D01*
X7920002Y7622575D01*
X7919011Y7624360D01*
X7917820Y7626344D01*
X7916828Y7628526D01*
X7914845Y7633287D01*
X7914051Y7636064D01*
X7913654Y7638841D01*
X7913258Y7641817D01*
X7913059Y7644991D01*
Y7645189D01*
Y7645586D01*
Y7646181D01*
X7913258Y7647173D01*
Y7648165D01*
X7913456Y7649554D01*
X7913853Y7652331D01*
X7914646Y7655703D01*
X7915837Y7659274D01*
X7917225Y7662845D01*
X7919407Y7666217D01*
Y7666415D01*
X7919804Y7666614D01*
X7920598Y7667606D01*
X7922185Y7669193D01*
X7924168Y7670978D01*
X7926747Y7672962D01*
X7929921Y7674946D01*
X7933690Y7676731D01*
X7937856Y7678120D01*
X7937658D01*
X7937459Y7678318D01*
X7936269Y7678715D01*
X7934484Y7679707D01*
X7932302Y7680698D01*
X7929723Y7682285D01*
X7927342Y7684071D01*
X7924962Y7686054D01*
X7922978Y7688435D01*
X7922780Y7688832D01*
X7922185Y7689625D01*
X7921391Y7691014D01*
X7920598Y7692998D01*
X7919804Y7695378D01*
X7919011Y7698155D01*
X7918415Y7701131D01*
X7918217Y7704503D01*
Y7704702D01*
Y7705098D01*
Y7705892D01*
X7918415Y7706884D01*
X7918614Y7708074D01*
X7918812Y7709463D01*
X7919407Y7712835D01*
X7920598Y7716604D01*
X7922581Y7720572D01*
X7923573Y7722754D01*
X7924962Y7724737D01*
X7926549Y7726721D01*
X7928334Y7728507D01*
X7928533Y7728705D01*
X7928731Y7728903D01*
X7929326Y7729498D01*
X7930120Y7730094D01*
X7931310Y7730689D01*
X7932500Y7731680D01*
X7933889Y7732474D01*
X7935674Y7733466D01*
X7939443Y7735251D01*
X7944204Y7736640D01*
X7949560Y7737830D01*
X7952337Y7738028D01*
X7955511Y7738227D01*
X7957098D01*
X7958289Y7738028D01*
D02*
G37*
G36*
X7956305Y7471328D02*
X7957297D01*
X7958685Y7471130D01*
X7961859Y7470733D01*
X7965430Y7469741D01*
X7969199Y7468551D01*
X7973365Y7466964D01*
X7977333Y7464584D01*
X7977531D01*
X7977729Y7464187D01*
X7978324Y7463790D01*
X7979118Y7463394D01*
X7980903Y7461807D01*
X7983284Y7459624D01*
X7985863Y7456649D01*
X7988640Y7453475D01*
X7991219Y7449507D01*
X7993401Y7444945D01*
Y7444746D01*
X7993599Y7444350D01*
X7993996Y7443556D01*
X7994194Y7442564D01*
X7994789Y7441374D01*
X7995186Y7439787D01*
X7995583Y7437803D01*
X7996178Y7435621D01*
X7996773Y7433241D01*
X7997170Y7430463D01*
X7997765Y7427488D01*
X7998162Y7424314D01*
X7998360Y7420743D01*
X7998757Y7416974D01*
X7998955Y7412808D01*
Y7408444D01*
Y7408246D01*
Y7407254D01*
Y7406063D01*
Y7404278D01*
X7998757Y7402294D01*
Y7399715D01*
X7998559Y7397137D01*
X7998360Y7394161D01*
X7997567Y7387813D01*
X7996575Y7381068D01*
X7995186Y7374522D01*
X7994393Y7371546D01*
X7993401Y7368571D01*
Y7368372D01*
X7993202Y7367976D01*
X7992806Y7367182D01*
X7992409Y7366190D01*
X7991814Y7364802D01*
X7991219Y7363413D01*
X7989433Y7360239D01*
X7987053Y7356470D01*
X7984276Y7352701D01*
X7981102Y7349130D01*
X7977333Y7345956D01*
X7977134D01*
X7976936Y7345559D01*
X7976341Y7345361D01*
X7975349Y7344766D01*
X7974357Y7344171D01*
X7973167Y7343576D01*
X7970191Y7342187D01*
X7966422Y7340798D01*
X7962256Y7339608D01*
X7957297Y7338815D01*
X7952139Y7338418D01*
X7950750D01*
X7949560Y7338616D01*
X7948370D01*
X7946783Y7338815D01*
X7943212Y7339410D01*
X7939245Y7340402D01*
X7935079Y7341989D01*
X7931111Y7343972D01*
X7927144Y7346750D01*
X7926946Y7346948D01*
X7926747Y7347146D01*
X7925557Y7348337D01*
X7923970Y7350320D01*
X7921986Y7352899D01*
X7920002Y7356272D01*
X7918217Y7360437D01*
X7916630Y7365198D01*
X7915638Y7370753D01*
X7930913Y7371943D01*
Y7371745D01*
Y7371546D01*
X7931111Y7370951D01*
X7931310Y7370158D01*
X7931707Y7368174D01*
X7932500Y7365992D01*
X7933492Y7363413D01*
X7934682Y7360834D01*
X7936269Y7358255D01*
X7938253Y7356272D01*
X7938451Y7356073D01*
X7939245Y7355478D01*
X7940435Y7354685D01*
X7942220Y7353891D01*
X7944204Y7353098D01*
X7946585Y7352304D01*
X7949362Y7351709D01*
X7952536Y7351511D01*
X7953726D01*
X7955115Y7351709D01*
X7956900Y7351907D01*
X7958884Y7352304D01*
X7961066Y7352899D01*
X7963248Y7353693D01*
X7965430Y7354883D01*
X7965628Y7355081D01*
X7966422Y7355478D01*
X7967414Y7356272D01*
X7968604Y7357263D01*
X7970191Y7358454D01*
X7971580Y7360041D01*
X7973167Y7361826D01*
X7974555Y7363810D01*
X7974754Y7364008D01*
X7975150Y7364802D01*
X7975746Y7366190D01*
X7976737Y7367976D01*
X7977531Y7370158D01*
X7978523Y7372737D01*
X7979515Y7375712D01*
X7980507Y7379085D01*
Y7379283D01*
X7980705Y7379481D01*
Y7380076D01*
X7980903Y7380672D01*
X7981300Y7382655D01*
X7981697Y7385234D01*
X7982094Y7388210D01*
X7982490Y7391384D01*
X7982887Y7394954D01*
Y7398724D01*
Y7398922D01*
Y7399517D01*
Y7400509D01*
Y7401898D01*
X7982689Y7401501D01*
X7981895Y7400707D01*
X7980903Y7399120D01*
X7979316Y7397533D01*
X7977531Y7395550D01*
X7975150Y7393367D01*
X7972572Y7391384D01*
X7969596Y7389400D01*
X7969199Y7389202D01*
X7968207Y7388607D01*
X7966422Y7388011D01*
X7964240Y7387218D01*
X7961661Y7386226D01*
X7958685Y7385631D01*
X7955313Y7385036D01*
X7951742Y7384837D01*
X7950155D01*
X7948965Y7385036D01*
X7947576Y7385234D01*
X7945989Y7385433D01*
X7942220Y7386226D01*
X7937856Y7387615D01*
X7935674Y7388607D01*
X7933294Y7389797D01*
X7931111Y7391185D01*
X7928731Y7392772D01*
X7926549Y7394558D01*
X7924367Y7396541D01*
X7924168Y7396740D01*
X7923970Y7397137D01*
X7923375Y7397732D01*
X7922581Y7398724D01*
X7921788Y7399914D01*
X7920796Y7401302D01*
X7919804Y7402889D01*
X7918812Y7404873D01*
X7917820Y7406857D01*
X7916828Y7409237D01*
X7915837Y7411816D01*
X7915043Y7414594D01*
X7914250Y7417569D01*
X7913654Y7420545D01*
X7913456Y7423917D01*
X7913258Y7427488D01*
Y7427686D01*
Y7428281D01*
Y7429472D01*
X7913456Y7430860D01*
X7913654Y7432447D01*
X7913853Y7434431D01*
X7914250Y7436613D01*
X7914646Y7438994D01*
X7916035Y7443953D01*
X7917027Y7446730D01*
X7918217Y7449309D01*
X7919407Y7452086D01*
X7920994Y7454665D01*
X7922780Y7457046D01*
X7924763Y7459426D01*
X7924962Y7459624D01*
X7925359Y7460021D01*
X7925954Y7460616D01*
X7926946Y7461410D01*
X7927937Y7462203D01*
X7929326Y7463195D01*
X7930913Y7464385D01*
X7932897Y7465576D01*
X7934880Y7466567D01*
X7937063Y7467758D01*
X7942022Y7469741D01*
X7944799Y7470337D01*
X7947775Y7470932D01*
X7950949Y7471328D01*
X7954123Y7471527D01*
X7955313D01*
X7956305Y7471328D01*
D02*
G37*
G36*
X7872393Y7340600D02*
X7856324D01*
Y7442564D01*
X7856126Y7442366D01*
X7855333Y7441572D01*
X7853944Y7440580D01*
X7852159Y7439192D01*
X7849976Y7437407D01*
X7847398Y7435621D01*
X7844422Y7433439D01*
X7841050Y7431455D01*
X7840851D01*
X7840653Y7431257D01*
X7839463Y7430463D01*
X7837677Y7429472D01*
X7835495Y7428281D01*
X7832916Y7426893D01*
X7830139Y7425702D01*
X7827163Y7424314D01*
X7824386Y7423124D01*
Y7438795D01*
X7824585D01*
X7824981Y7438994D01*
X7825775Y7439390D01*
X7826568Y7439985D01*
X7827759Y7440580D01*
X7829147Y7441176D01*
X7832321Y7442961D01*
X7835892Y7445143D01*
X7839859Y7447722D01*
X7843827Y7450698D01*
X7847596Y7453872D01*
X7847794Y7454070D01*
X7847993Y7454268D01*
X7849183Y7455459D01*
X7850968Y7457244D01*
X7853150Y7459426D01*
X7855531Y7462203D01*
X7857911Y7465179D01*
X7860093Y7468353D01*
X7861879Y7471527D01*
X7872393D01*
Y7340600D01*
D02*
G37*
G36*
X14564107Y10363200D02*
X14548038D01*
Y10465164D01*
X14547839Y10464966D01*
X14547046Y10464172D01*
X14545657Y10463180D01*
X14543872Y10461792D01*
X14541690Y10460007D01*
X14539111Y10458221D01*
X14536136Y10456039D01*
X14532764Y10454055D01*
X14532565D01*
X14532367Y10453857D01*
X14531177Y10453063D01*
X14529391Y10452072D01*
X14527209Y10450881D01*
X14524631Y10449493D01*
X14521854Y10448302D01*
X14518877Y10446914D01*
X14516100Y10445724D01*
Y10461395D01*
X14516298D01*
X14516695Y10461594D01*
X14517490Y10461990D01*
X14518282Y10462585D01*
X14519472Y10463180D01*
X14520860Y10463776D01*
X14524036Y10465561D01*
X14527606Y10467743D01*
X14531573Y10470322D01*
X14535541Y10473298D01*
X14539310Y10476472D01*
X14539508Y10476670D01*
X14539706Y10476868D01*
X14540897Y10478059D01*
X14542682Y10479844D01*
X14544864Y10482026D01*
X14547244Y10484803D01*
X14549625Y10487779D01*
X14551807Y10490953D01*
X14553593Y10494127D01*
X14564107D01*
Y10363200D01*
D02*
G37*
G36*
X14651193Y10493928D02*
X14653574Y10493532D01*
X14656351Y10493135D01*
X14659525Y10492341D01*
X14662698Y10491151D01*
X14665674Y10489763D01*
X14666071Y10489564D01*
X14667062Y10488969D01*
X14668451Y10487977D01*
X14670435Y10486787D01*
X14672420Y10485002D01*
X14674602Y10482820D01*
X14676784Y10480439D01*
X14678767Y10477662D01*
X14678966Y10477265D01*
X14679559Y10476273D01*
X14680553Y10474488D01*
X14681741Y10472306D01*
X14682933Y10469528D01*
X14684322Y10466156D01*
X14685710Y10462387D01*
X14686900Y10458221D01*
Y10458023D01*
X14687099Y10457626D01*
Y10457031D01*
X14687297Y10456039D01*
X14687694Y10455047D01*
X14687892Y10453659D01*
X14688091Y10451873D01*
X14688487Y10450088D01*
X14688686Y10447906D01*
X14688884Y10445724D01*
X14689281Y10443145D01*
X14689479Y10440367D01*
X14689677Y10437392D01*
Y10434416D01*
X14689876Y10427473D01*
Y10427275D01*
Y10426481D01*
Y10425291D01*
Y10423704D01*
X14689677Y10421720D01*
Y10419538D01*
X14689479Y10416959D01*
X14689281Y10414182D01*
X14688686Y10408231D01*
X14687892Y10402081D01*
X14686702Y10395932D01*
X14685909Y10393154D01*
X14685115Y10390377D01*
Y10390179D01*
X14684917Y10389782D01*
X14684718Y10388989D01*
X14684322Y10387997D01*
X14683727Y10386807D01*
X14683131Y10385616D01*
X14681544Y10382442D01*
X14679559Y10378872D01*
X14677180Y10375301D01*
X14674402Y10371730D01*
X14671030Y10368556D01*
X14670831D01*
X14670633Y10368159D01*
X14670038Y10367961D01*
X14669443Y10367366D01*
X14667261Y10366176D01*
X14664682Y10364787D01*
X14661111Y10363398D01*
X14657144Y10362208D01*
X14652580Y10361415D01*
X14647424Y10361018D01*
X14645638D01*
X14644250Y10361216D01*
X14642664Y10361415D01*
X14640877Y10361811D01*
X14638895Y10362208D01*
X14636711Y10362605D01*
X14631950Y10364192D01*
X14629372Y10365382D01*
X14626991Y10366572D01*
X14624413Y10368159D01*
X14622032Y10369945D01*
X14619850Y10371928D01*
X14617667Y10374309D01*
X14617468Y10374507D01*
X14617072Y10375102D01*
X14616476Y10376094D01*
X14615685Y10377483D01*
X14614693Y10379268D01*
X14613699Y10381450D01*
X14612511Y10384029D01*
X14611320Y10387203D01*
X14610129Y10390576D01*
X14608939Y10394543D01*
X14607947Y10398907D01*
X14606955Y10403668D01*
X14606161Y10409024D01*
X14605566Y10414579D01*
X14605170Y10420927D01*
X14604971Y10427473D01*
Y10427672D01*
Y10428465D01*
Y10429655D01*
Y10431242D01*
X14605170Y10433226D01*
Y10435408D01*
X14605368Y10437987D01*
X14605566Y10440764D01*
X14606161Y10446715D01*
X14606955Y10452865D01*
X14607947Y10459015D01*
X14608742Y10461792D01*
X14609534Y10464569D01*
Y10464767D01*
X14609734Y10465164D01*
X14610129Y10465958D01*
X14610526Y10466950D01*
X14610922Y10468140D01*
X14611517Y10469528D01*
X14613104Y10472702D01*
X14615089Y10476273D01*
X14617468Y10479844D01*
X14620245Y10483216D01*
X14623619Y10486390D01*
X14623817D01*
X14624014Y10486787D01*
X14624611Y10487184D01*
X14625404Y10487580D01*
X14627388Y10488771D01*
X14630165Y10490358D01*
X14633537Y10491746D01*
X14637703Y10492937D01*
X14642265Y10493730D01*
X14647424Y10494127D01*
X14649210D01*
X14651193Y10493928D01*
D02*
G37*
G36*
X14876646D02*
X14877638D01*
X14879028Y10493730D01*
X14882202Y10493333D01*
X14885773Y10492341D01*
X14889542Y10491151D01*
X14893707Y10489564D01*
X14897675Y10487184D01*
X14897873D01*
X14898071Y10486787D01*
X14898666Y10486390D01*
X14899460Y10485994D01*
X14901247Y10484407D01*
X14903625Y10482224D01*
X14906206Y10479249D01*
X14908981Y10476075D01*
X14911562Y10472107D01*
X14913744Y10467545D01*
Y10467346D01*
X14913940Y10466950D01*
X14914339Y10466156D01*
X14914537Y10465164D01*
X14915132Y10463974D01*
X14915527Y10462387D01*
X14915926Y10460403D01*
X14916521Y10458221D01*
X14917114Y10455841D01*
X14917513Y10453063D01*
X14918108Y10450088D01*
X14918504Y10446914D01*
X14918703Y10443343D01*
X14919099Y10439574D01*
X14919298Y10435408D01*
Y10431044D01*
Y10430846D01*
Y10429854D01*
Y10428663D01*
Y10426878D01*
X14919099Y10424894D01*
Y10422315D01*
X14918901Y10419737D01*
X14918703Y10416761D01*
X14917909Y10410413D01*
X14916917Y10403668D01*
X14915527Y10397122D01*
X14914735Y10394146D01*
X14913744Y10391171D01*
Y10390972D01*
X14913545Y10390576D01*
X14913148Y10389782D01*
X14912750Y10388790D01*
X14912157Y10387402D01*
X14911562Y10386013D01*
X14909776Y10382839D01*
X14907394Y10379070D01*
X14904617Y10375301D01*
X14901443Y10371730D01*
X14897675Y10368556D01*
X14897476D01*
X14897278Y10368159D01*
X14896683Y10367961D01*
X14895691Y10367366D01*
X14894699Y10366771D01*
X14893509Y10366176D01*
X14890533Y10364787D01*
X14886765Y10363398D01*
X14882597Y10362208D01*
X14877638Y10361415D01*
X14872481Y10361018D01*
X14871094D01*
X14869902Y10361216D01*
X14868712D01*
X14867125Y10361415D01*
X14863554Y10362010D01*
X14859587Y10363002D01*
X14855421Y10364589D01*
X14851454Y10366572D01*
X14847485Y10369350D01*
X14847289Y10369548D01*
X14847089Y10369746D01*
X14845898Y10370937D01*
X14844312Y10372920D01*
X14842328Y10375499D01*
X14840344Y10378872D01*
X14838559Y10383037D01*
X14836972Y10387798D01*
X14835980Y10393353D01*
X14851254Y10394543D01*
Y10394345D01*
Y10394146D01*
X14851454Y10393551D01*
X14851653Y10392758D01*
X14852049Y10390774D01*
X14852843Y10388592D01*
X14853835Y10386013D01*
X14855025Y10383434D01*
X14856612Y10380855D01*
X14858595Y10378872D01*
X14858794Y10378673D01*
X14859587Y10378078D01*
X14860777Y10377285D01*
X14862563Y10376491D01*
X14864546Y10375698D01*
X14866927Y10374904D01*
X14869704Y10374309D01*
X14872878Y10374111D01*
X14874068D01*
X14875456Y10374309D01*
X14877242Y10374507D01*
X14879227Y10374904D01*
X14881409Y10375499D01*
X14883591Y10376293D01*
X14885773Y10377483D01*
X14885971Y10377681D01*
X14886765Y10378078D01*
X14887756Y10378872D01*
X14888947Y10379863D01*
X14890533Y10381054D01*
X14891922Y10382641D01*
X14893509Y10384426D01*
X14894897Y10386410D01*
X14895096Y10386608D01*
X14895493Y10387402D01*
X14896088Y10388790D01*
X14897079Y10390576D01*
X14897873Y10392758D01*
X14898865Y10395337D01*
X14899857Y10398312D01*
X14900848Y10401685D01*
Y10401883D01*
X14901047Y10402081D01*
Y10402676D01*
X14901247Y10403272D01*
X14901642Y10405255D01*
X14902039Y10407834D01*
X14902435Y10410810D01*
X14902834Y10413984D01*
X14903229Y10417554D01*
Y10421324D01*
Y10421522D01*
Y10422117D01*
Y10423109D01*
Y10424498D01*
X14903030Y10424101D01*
X14902237Y10423307D01*
X14901247Y10421720D01*
X14899660Y10420133D01*
X14897873Y10418150D01*
X14895493Y10415967D01*
X14892914Y10413984D01*
X14889938Y10412000D01*
X14889542Y10411802D01*
X14888550Y10411207D01*
X14886765Y10410611D01*
X14884583Y10409818D01*
X14882002Y10408826D01*
X14879028Y10408231D01*
X14875655Y10407636D01*
X14872086Y10407437D01*
X14870499D01*
X14869307Y10407636D01*
X14867918Y10407834D01*
X14866331Y10408033D01*
X14862563Y10408826D01*
X14858199Y10410215D01*
X14856017Y10411207D01*
X14853636Y10412397D01*
X14851454Y10413785D01*
X14849072Y10415372D01*
X14846890Y10417158D01*
X14844708Y10419141D01*
X14844511Y10419340D01*
X14844312Y10419737D01*
X14843716Y10420332D01*
X14842924Y10421324D01*
X14842130Y10422514D01*
X14841138Y10423902D01*
X14840146Y10425489D01*
X14839154Y10427473D01*
X14838164Y10429457D01*
X14837170Y10431837D01*
X14836179Y10434416D01*
X14835385Y10437194D01*
X14834592Y10440169D01*
X14833997Y10443145D01*
X14833798Y10446517D01*
X14833600Y10450088D01*
Y10450286D01*
Y10450881D01*
Y10452072D01*
X14833798Y10453460D01*
X14833997Y10455047D01*
X14834195Y10457031D01*
X14834592Y10459213D01*
X14834988Y10461594D01*
X14836377Y10466553D01*
X14837369Y10469330D01*
X14838559Y10471909D01*
X14839751Y10474686D01*
X14841338Y10477265D01*
X14843121Y10479646D01*
X14845107Y10482026D01*
X14845303Y10482224D01*
X14845702Y10482621D01*
X14846297Y10483216D01*
X14847289Y10484010D01*
X14848280Y10484803D01*
X14849667Y10485795D01*
X14851254Y10486985D01*
X14853239Y10488176D01*
X14855223Y10489167D01*
X14857405Y10490358D01*
X14862364Y10492341D01*
X14865141Y10492937D01*
X14868117Y10493532D01*
X14871291Y10493928D01*
X14874464Y10494127D01*
X14875655D01*
X14876646Y10493928D01*
D02*
G37*
G36*
X15441795D02*
X15442986D01*
X15444572Y10493730D01*
X15448143Y10493135D01*
X15452110Y10491945D01*
X15456276Y10490358D01*
X15460442Y10488374D01*
X15462427Y10486985D01*
X15464410Y10485398D01*
X15464607D01*
X15464807Y10485002D01*
X15465997Y10483811D01*
X15467584Y10481828D01*
X15469566Y10479249D01*
X15471750Y10475876D01*
X15473535Y10471909D01*
X15475320Y10467148D01*
X15476312Y10461792D01*
X15460442Y10460602D01*
Y10460800D01*
Y10460998D01*
X15460046Y10462189D01*
X15459450Y10463776D01*
X15458855Y10465759D01*
X15456873Y10470322D01*
X15455681Y10472306D01*
X15454292Y10474091D01*
X15454094Y10474488D01*
X15453102Y10475281D01*
X15451714Y10476273D01*
X15449928Y10477662D01*
X15447548Y10478852D01*
X15444771Y10480042D01*
X15441597Y10480836D01*
X15438223Y10481034D01*
X15436836D01*
X15435448Y10480836D01*
X15433662Y10480439D01*
X15431480Y10480042D01*
X15429099Y10479249D01*
X15426917Y10478059D01*
X15424538Y10476670D01*
X15424139Y10476472D01*
X15423346Y10475678D01*
X15421957Y10474289D01*
X15420370Y10472504D01*
X15418387Y10470322D01*
X15416403Y10467545D01*
X15414420Y10464172D01*
X15412634Y10460403D01*
Y10460205D01*
X15412436Y10460007D01*
X15412238Y10459213D01*
X15412039Y10458420D01*
X15411642Y10457428D01*
X15411246Y10456039D01*
X15410849Y10454452D01*
X15410452Y10452667D01*
X15410056Y10450683D01*
X15409659Y10448501D01*
X15409262Y10445922D01*
X15408865Y10443343D01*
X15408667Y10440367D01*
X15408469Y10437194D01*
X15408270Y10433821D01*
Y10430449D01*
X15408469Y10430647D01*
X15409262Y10431639D01*
X15410452Y10433226D01*
X15412238Y10435210D01*
X15414221Y10437392D01*
X15416602Y10439574D01*
X15419379Y10441558D01*
X15422354Y10443343D01*
X15422751Y10443541D01*
X15423743Y10443938D01*
X15425528Y10444732D01*
X15427711Y10445525D01*
X15430289Y10446319D01*
X15433266Y10447112D01*
X15436440Y10447509D01*
X15439812Y10447707D01*
X15441399D01*
X15442589Y10447509D01*
X15443977Y10447311D01*
X15445564Y10447112D01*
X15449333Y10446319D01*
X15453499Y10444732D01*
X15455881Y10443938D01*
X15458063Y10442748D01*
X15460442Y10441359D01*
X15462823Y10439772D01*
X15465005Y10437987D01*
X15467188Y10435805D01*
X15467384Y10435607D01*
X15467584Y10435210D01*
X15468179Y10434615D01*
X15468971Y10433623D01*
X15469766Y10432433D01*
X15470758Y10431044D01*
X15471750Y10429457D01*
X15472940Y10427672D01*
X15473932Y10425489D01*
X15474924Y10423307D01*
X15475916Y10420728D01*
X15476709Y10418150D01*
X15477502Y10415174D01*
X15478098Y10412198D01*
X15478296Y10408826D01*
X15478494Y10405454D01*
Y10405255D01*
Y10404859D01*
Y10404263D01*
Y10403470D01*
X15478296Y10402280D01*
Y10401089D01*
X15477899Y10397915D01*
X15477106Y10394543D01*
X15476312Y10390576D01*
X15474924Y10386608D01*
X15473138Y10382641D01*
Y10382442D01*
X15472940Y10382244D01*
X15472543Y10381649D01*
X15472147Y10380855D01*
X15470956Y10379070D01*
X15469370Y10376689D01*
X15467188Y10374111D01*
X15464607Y10371532D01*
X15461832Y10368953D01*
X15458459Y10366572D01*
X15458063Y10366374D01*
X15456873Y10365779D01*
X15454887Y10364787D01*
X15452507Y10363795D01*
X15449333Y10362803D01*
X15445763Y10361811D01*
X15441795Y10361216D01*
X15437630Y10361018D01*
X15436836D01*
X15435646Y10361216D01*
X15434258D01*
X15432671Y10361415D01*
X15430685Y10361811D01*
X15428503Y10362208D01*
X15426125Y10362803D01*
X15423544Y10363597D01*
X15420767Y10364589D01*
X15418188Y10365779D01*
X15415411Y10367167D01*
X15412634Y10368953D01*
X15409857Y10370937D01*
X15407278Y10373119D01*
X15404898Y10375698D01*
X15404700Y10375896D01*
X15404301Y10376491D01*
X15403706Y10377285D01*
X15402914Y10378475D01*
X15401923Y10380062D01*
X15400929Y10382046D01*
X15399741Y10384426D01*
X15398747Y10387203D01*
X15397559Y10390377D01*
X15396367Y10393948D01*
X15395377Y10397915D01*
X15394383Y10402280D01*
X15393590Y10407041D01*
X15392995Y10412397D01*
X15392598Y10417951D01*
X15392400Y10424101D01*
Y10424299D01*
Y10424498D01*
Y10425093D01*
Y10425688D01*
Y10427672D01*
X15392598Y10430250D01*
X15392796Y10433424D01*
X15393193Y10436995D01*
X15393590Y10440963D01*
X15394185Y10445128D01*
X15394780Y10449691D01*
X15395772Y10454254D01*
X15396964Y10458816D01*
X15398351Y10463180D01*
X15399937Y10467743D01*
X15401724Y10471711D01*
X15403906Y10475678D01*
X15406287Y10479050D01*
X15406485Y10479249D01*
X15406882Y10479646D01*
X15407475Y10480439D01*
X15408469Y10481431D01*
X15409857Y10482621D01*
X15411246Y10483811D01*
X15413031Y10485200D01*
X15415015Y10486589D01*
X15417197Y10487977D01*
X15419775Y10489366D01*
X15422354Y10490556D01*
X15425330Y10491746D01*
X15428503Y10492738D01*
X15431876Y10493532D01*
X15435448Y10493928D01*
X15439217Y10494127D01*
X15440605D01*
X15441795Y10493928D01*
D02*
G37*
G36*
X15193143Y10476273D02*
X15141170D01*
X15134029Y10441161D01*
X15134225Y10441359D01*
X15134624Y10441558D01*
X15135217Y10441954D01*
X15136011Y10442550D01*
X15137202Y10443145D01*
X15138393Y10443740D01*
X15141566Y10445327D01*
X15145137Y10446914D01*
X15149303Y10448104D01*
X15153865Y10449096D01*
X15158626Y10449493D01*
X15160213D01*
X15161403Y10449294D01*
X15162990Y10449096D01*
X15164577Y10448898D01*
X15166560Y10448501D01*
X15168546Y10448104D01*
X15173106Y10446517D01*
X15175488Y10445724D01*
X15177869Y10444533D01*
X15180447Y10443145D01*
X15182828Y10441558D01*
X15185208Y10439772D01*
X15187390Y10437590D01*
X15187589Y10437392D01*
X15187985Y10436995D01*
X15188580Y10436400D01*
X15189175Y10435408D01*
X15190167Y10434218D01*
X15191159Y10432829D01*
X15192151Y10431242D01*
X15193341Y10429457D01*
X15194531Y10427275D01*
X15195525Y10425093D01*
X15196515Y10422514D01*
X15197507Y10419935D01*
X15198102Y10416959D01*
X15198698Y10413984D01*
X15199094Y10410611D01*
X15199294Y10407239D01*
Y10407041D01*
Y10406446D01*
Y10405454D01*
X15199094Y10404263D01*
X15198895Y10402676D01*
X15198698Y10400891D01*
X15198499Y10398907D01*
X15198102Y10396725D01*
X15196713Y10391964D01*
X15194928Y10387005D01*
X15193738Y10384228D01*
X15192349Y10381649D01*
X15190762Y10379070D01*
X15188977Y10376689D01*
X15188779Y10376491D01*
X15188382Y10376094D01*
X15187589Y10375301D01*
X15186597Y10374309D01*
X15185406Y10373119D01*
X15183820Y10371730D01*
X15182034Y10370341D01*
X15179852Y10368953D01*
X15177670Y10367366D01*
X15175092Y10365977D01*
X15172115Y10364589D01*
X15169141Y10363398D01*
X15165767Y10362407D01*
X15162395Y10361613D01*
X15158626Y10361216D01*
X15154659Y10361018D01*
X15152873D01*
X15151683Y10361216D01*
X15150294Y10361415D01*
X15148509Y10361613D01*
X15146526Y10361811D01*
X15144344Y10362208D01*
X15139780Y10363398D01*
X15135020Y10365184D01*
X15132639Y10366374D01*
X15130260Y10367763D01*
X15127878Y10369151D01*
X15125696Y10370937D01*
X15125497Y10371135D01*
X15125299Y10371333D01*
X15124704Y10371928D01*
X15123911Y10372722D01*
X15123117Y10373714D01*
X15122125Y10374904D01*
X15121133Y10376293D01*
X15119943Y10377880D01*
X15117761Y10381649D01*
X15115579Y10386211D01*
X15113992Y10391369D01*
X15113397Y10394345D01*
X15113000Y10397320D01*
X15129861Y10398511D01*
Y10398312D01*
Y10397915D01*
X15130060Y10397320D01*
X15130260Y10396527D01*
X15130853Y10394345D01*
X15131647Y10391567D01*
X15132639Y10388592D01*
X15134225Y10385616D01*
X15136011Y10382641D01*
X15138393Y10380062D01*
X15138789Y10379863D01*
X15139581Y10379070D01*
X15140971Y10378276D01*
X15142953Y10377086D01*
X15145335Y10376094D01*
X15148112Y10375102D01*
X15151286Y10374309D01*
X15154659Y10374111D01*
X15155849D01*
X15156642Y10374309D01*
X15158824Y10374507D01*
X15161601Y10375102D01*
X15164577Y10376293D01*
X15167950Y10377681D01*
X15171124Y10379863D01*
X15172711Y10381054D01*
X15174298Y10382641D01*
Y10382839D01*
X15174693Y10383037D01*
X15175488Y10384228D01*
X15176875Y10386211D01*
X15178265Y10388790D01*
X15179654Y10392163D01*
X15181042Y10396130D01*
X15181836Y10400693D01*
X15182233Y10405850D01*
Y10406049D01*
Y10406446D01*
Y10407239D01*
X15182034Y10408033D01*
Y10409223D01*
X15181836Y10410611D01*
X15181241Y10413785D01*
X15180447Y10417158D01*
X15179059Y10420728D01*
X15177075Y10424299D01*
X15174496Y10427473D01*
X15174100Y10427870D01*
X15173106Y10428663D01*
X15171519Y10430052D01*
X15169141Y10431441D01*
X15166364Y10432829D01*
X15162791Y10434218D01*
X15158824Y10435011D01*
X15154460Y10435408D01*
X15153072D01*
X15151683Y10435210D01*
X15149699Y10435011D01*
X15147517Y10434416D01*
X15145137Y10433821D01*
X15142757Y10432829D01*
X15140376Y10431639D01*
X15140176Y10431441D01*
X15139384Y10431044D01*
X15138193Y10430250D01*
X15136806Y10429259D01*
X15135416Y10427870D01*
X15133829Y10426283D01*
X15132242Y10424498D01*
X15130853Y10422514D01*
X15115778Y10424696D01*
X15128473Y10491548D01*
X15193143D01*
Y10476273D01*
D02*
G37*
G36*
X12088173Y2404028D02*
X12089363D01*
X12090950Y2403830D01*
X12094521Y2403235D01*
X12098489Y2402045D01*
X12102654Y2400458D01*
X12106820Y2398474D01*
X12108804Y2397085D01*
X12110788Y2395498D01*
X12110986D01*
X12111185Y2395102D01*
X12112375Y2393911D01*
X12113962Y2391928D01*
X12115946Y2389349D01*
X12118128Y2385976D01*
X12119913Y2382009D01*
X12121698Y2377248D01*
X12122690Y2371892D01*
X12106820Y2370702D01*
Y2370900D01*
Y2371098D01*
X12106424Y2372289D01*
X12105828Y2373876D01*
X12105233Y2375859D01*
X12103250Y2380422D01*
X12102059Y2382406D01*
X12100671Y2384191D01*
X12100472Y2384588D01*
X12099480Y2385381D01*
X12098092Y2386373D01*
X12096307Y2387762D01*
X12093926Y2388952D01*
X12091149Y2390142D01*
X12087975Y2390936D01*
X12084602Y2391134D01*
X12083214D01*
X12081825Y2390936D01*
X12080040Y2390539D01*
X12077858Y2390142D01*
X12075477Y2389349D01*
X12073295Y2388159D01*
X12070915Y2386770D01*
X12070518Y2386572D01*
X12069724Y2385778D01*
X12068336Y2384389D01*
X12066749Y2382604D01*
X12064765Y2380422D01*
X12062781Y2377645D01*
X12060798Y2374272D01*
X12059012Y2370503D01*
Y2370305D01*
X12058814Y2370107D01*
X12058615Y2369313D01*
X12058417Y2368520D01*
X12058020Y2367528D01*
X12057624Y2366139D01*
X12057227Y2364552D01*
X12056830Y2362767D01*
X12056433Y2360783D01*
X12056037Y2358601D01*
X12055640Y2356022D01*
X12055243Y2353443D01*
X12055045Y2350467D01*
X12054846Y2347294D01*
X12054648Y2343921D01*
Y2340549D01*
X12054846Y2340747D01*
X12055640Y2341739D01*
X12056830Y2343326D01*
X12058615Y2345310D01*
X12060599Y2347492D01*
X12062980Y2349674D01*
X12065757Y2351658D01*
X12068733Y2353443D01*
X12069129Y2353641D01*
X12070121Y2354038D01*
X12071907Y2354832D01*
X12074089Y2355625D01*
X12076667Y2356419D01*
X12079643Y2357212D01*
X12082817Y2357609D01*
X12086189Y2357807D01*
X12087776D01*
X12088967Y2357609D01*
X12090355Y2357411D01*
X12091942Y2357212D01*
X12095711Y2356419D01*
X12099877Y2354832D01*
X12102258Y2354038D01*
X12104440Y2352848D01*
X12106820Y2351459D01*
X12109201Y2349872D01*
X12111383Y2348087D01*
X12113565Y2345905D01*
X12113763Y2345707D01*
X12113962Y2345310D01*
X12114557Y2344715D01*
X12115350Y2343723D01*
X12116144Y2342533D01*
X12117136Y2341144D01*
X12118128Y2339557D01*
X12119318Y2337772D01*
X12120310Y2335589D01*
X12121302Y2333407D01*
X12122294Y2330828D01*
X12123087Y2328250D01*
X12123881Y2325274D01*
X12124476Y2322298D01*
X12124674Y2318926D01*
X12124872Y2315554D01*
Y2315355D01*
Y2314959D01*
Y2314363D01*
Y2313570D01*
X12124674Y2312380D01*
Y2311189D01*
X12124277Y2308015D01*
X12123484Y2304643D01*
X12122690Y2300676D01*
X12121302Y2296708D01*
X12119516Y2292741D01*
Y2292542D01*
X12119318Y2292344D01*
X12118921Y2291749D01*
X12118524Y2290955D01*
X12117334Y2289170D01*
X12115747Y2286789D01*
X12113565Y2284211D01*
X12110986Y2281632D01*
X12108209Y2279053D01*
X12104837Y2276672D01*
X12104440Y2276474D01*
X12103250Y2275879D01*
X12101266Y2274887D01*
X12098885Y2273895D01*
X12095711Y2272903D01*
X12092141Y2271911D01*
X12088173Y2271316D01*
X12084007Y2271118D01*
X12083214D01*
X12082024Y2271316D01*
X12080635D01*
X12079048Y2271515D01*
X12077064Y2271911D01*
X12074882Y2272308D01*
X12072502Y2272903D01*
X12069923Y2273697D01*
X12067146Y2274689D01*
X12064567Y2275879D01*
X12061789Y2277267D01*
X12059012Y2279053D01*
X12056235Y2281037D01*
X12053656Y2283219D01*
X12051276Y2285798D01*
X12051077Y2285996D01*
X12050680Y2286591D01*
X12050085Y2287385D01*
X12049292Y2288575D01*
X12048300Y2290162D01*
X12047308Y2292146D01*
X12046118Y2294526D01*
X12045126Y2297303D01*
X12043936Y2300477D01*
X12042746Y2304048D01*
X12041754Y2308015D01*
X12040762Y2312380D01*
X12039968Y2317141D01*
X12039373Y2322497D01*
X12038976Y2328051D01*
X12038778Y2334201D01*
Y2334399D01*
Y2334598D01*
Y2335193D01*
Y2335788D01*
Y2337772D01*
X12038976Y2340350D01*
X12039175Y2343524D01*
X12039572Y2347095D01*
X12039968Y2351063D01*
X12040563Y2355228D01*
X12041159Y2359791D01*
X12042150Y2364354D01*
X12043341Y2368916D01*
X12044729Y2373280D01*
X12046316Y2377843D01*
X12048102Y2381811D01*
X12050284Y2385778D01*
X12052664Y2389150D01*
X12052863Y2389349D01*
X12053259Y2389746D01*
X12053854Y2390539D01*
X12054846Y2391531D01*
X12056235Y2392721D01*
X12057624Y2393911D01*
X12059409Y2395300D01*
X12061393Y2396689D01*
X12063575Y2398077D01*
X12066154Y2399466D01*
X12068733Y2400656D01*
X12071708Y2401846D01*
X12074882Y2402838D01*
X12078254Y2403632D01*
X12081825Y2404028D01*
X12085594Y2404227D01*
X12086983D01*
X12088173Y2404028D01*
D02*
G37*
G36*
X11998707Y2273300D02*
X11982638D01*
Y2375264D01*
X11982440Y2375066D01*
X11981646Y2374272D01*
X11980258Y2373280D01*
X11978472Y2371892D01*
X11976290Y2370107D01*
X11973711Y2368321D01*
X11970736Y2366139D01*
X11967363Y2364155D01*
X11967165D01*
X11966967Y2363957D01*
X11965776Y2363163D01*
X11963991Y2362172D01*
X11961809Y2360981D01*
X11959230Y2359593D01*
X11956453Y2358402D01*
X11953477Y2357014D01*
X11950700Y2355824D01*
Y2371495D01*
X11950898D01*
X11951295Y2371694D01*
X11952089Y2372090D01*
X11952882Y2372685D01*
X11954072Y2373280D01*
X11955461Y2373876D01*
X11958635Y2375661D01*
X11962206Y2377843D01*
X11966173Y2380422D01*
X11970141Y2383398D01*
X11973910Y2386572D01*
X11974108Y2386770D01*
X11974307Y2386968D01*
X11975497Y2388159D01*
X11977282Y2389944D01*
X11979464Y2392126D01*
X11981845Y2394903D01*
X11984225Y2397879D01*
X11986407Y2401053D01*
X11988193Y2404227D01*
X11998707D01*
Y2273300D01*
D02*
G37*
G36*
X12411815Y2373673D02*
X12359841D01*
X12352699Y2338561D01*
X12352898Y2338759D01*
X12353294Y2338958D01*
X12353889Y2339354D01*
X12354683Y2339950D01*
X12355873Y2340545D01*
X12357063Y2341140D01*
X12360237Y2342727D01*
X12363808Y2344314D01*
X12367974Y2345504D01*
X12372537Y2346496D01*
X12377298Y2346893D01*
X12378885D01*
X12380075Y2346694D01*
X12381662Y2346496D01*
X12383249Y2346298D01*
X12385233Y2345901D01*
X12387216Y2345504D01*
X12391779Y2343917D01*
X12394159Y2343124D01*
X12396540Y2341933D01*
X12399119Y2340545D01*
X12401499Y2338958D01*
X12403880Y2337172D01*
X12406062Y2334990D01*
X12406260Y2334792D01*
X12406657Y2334395D01*
X12407252Y2333800D01*
X12407847Y2332808D01*
X12408839Y2331618D01*
X12409831Y2330229D01*
X12410823Y2328642D01*
X12412013Y2326857D01*
X12413203Y2324675D01*
X12414195Y2322493D01*
X12415187Y2319914D01*
X12416179Y2317335D01*
X12416774Y2314359D01*
X12417369Y2311384D01*
X12417766Y2308011D01*
X12417964Y2304639D01*
Y2304441D01*
Y2303846D01*
Y2302854D01*
X12417766Y2301663D01*
X12417567Y2300076D01*
X12417369Y2298291D01*
X12417171Y2296307D01*
X12416774Y2294125D01*
X12415385Y2289364D01*
X12413600Y2284405D01*
X12412410Y2281628D01*
X12411021Y2279049D01*
X12409434Y2276470D01*
X12407649Y2274089D01*
X12407450Y2273891D01*
X12407054Y2273494D01*
X12406260Y2272701D01*
X12405268Y2271709D01*
X12404078Y2270519D01*
X12402491Y2269130D01*
X12400706Y2267741D01*
X12398524Y2266353D01*
X12396341Y2264766D01*
X12393763Y2263377D01*
X12390787Y2261989D01*
X12387811Y2260798D01*
X12384439Y2259807D01*
X12381067Y2259013D01*
X12377298Y2258616D01*
X12373330Y2258418D01*
X12371545D01*
X12370354Y2258616D01*
X12368966Y2258815D01*
X12367180Y2259013D01*
X12365197Y2259211D01*
X12363015Y2259608D01*
X12358452Y2260798D01*
X12353691Y2262584D01*
X12351311Y2263774D01*
X12348930Y2265163D01*
X12346550Y2266551D01*
X12344367Y2268337D01*
X12344169Y2268535D01*
X12343971Y2268733D01*
X12343376Y2269328D01*
X12342582Y2270122D01*
X12341789Y2271114D01*
X12340797Y2272304D01*
X12339805Y2273693D01*
X12338615Y2275280D01*
X12336433Y2279049D01*
X12334250Y2283611D01*
X12332663Y2288769D01*
X12332068Y2291745D01*
X12331672Y2294720D01*
X12348533Y2295911D01*
Y2295712D01*
Y2295315D01*
X12348732Y2294720D01*
X12348930Y2293927D01*
X12349525Y2291745D01*
X12350319Y2288967D01*
X12351311Y2285992D01*
X12352898Y2283016D01*
X12354683Y2280041D01*
X12357063Y2277462D01*
X12357460Y2277263D01*
X12358254Y2276470D01*
X12359642Y2275676D01*
X12361626Y2274486D01*
X12364007Y2273494D01*
X12366784Y2272502D01*
X12369958Y2271709D01*
X12373330Y2271511D01*
X12374520D01*
X12375314Y2271709D01*
X12377496Y2271907D01*
X12380273Y2272502D01*
X12383249Y2273693D01*
X12386621Y2275081D01*
X12389795Y2277263D01*
X12391382Y2278454D01*
X12392969Y2280041D01*
Y2280239D01*
X12393366Y2280437D01*
X12394159Y2281628D01*
X12395548Y2283611D01*
X12396937Y2286190D01*
X12398325Y2289563D01*
X12399714Y2293530D01*
X12400507Y2298093D01*
X12400904Y2303250D01*
Y2303449D01*
Y2303846D01*
Y2304639D01*
X12400706Y2305433D01*
Y2306623D01*
X12400507Y2308011D01*
X12399912Y2311185D01*
X12399119Y2314558D01*
X12397730Y2318128D01*
X12395746Y2321699D01*
X12393167Y2324873D01*
X12392771Y2325270D01*
X12391779Y2326063D01*
X12390192Y2327452D01*
X12387811Y2328841D01*
X12385034Y2330229D01*
X12381463Y2331618D01*
X12377496Y2332411D01*
X12373132Y2332808D01*
X12371743D01*
X12370354Y2332610D01*
X12368371Y2332411D01*
X12366189Y2331816D01*
X12363808Y2331221D01*
X12361428Y2330229D01*
X12359047Y2329039D01*
X12358849Y2328841D01*
X12358055Y2328444D01*
X12356865Y2327650D01*
X12355476Y2326659D01*
X12354088Y2325270D01*
X12352501Y2323683D01*
X12350914Y2321898D01*
X12349525Y2319914D01*
X12334449Y2322096D01*
X12347145Y2388948D01*
X12411815D01*
Y2373673D01*
D02*
G37*
G36*
X12290807Y2260600D02*
X12274738D01*
Y2362564D01*
X12274540Y2362366D01*
X12273746Y2361572D01*
X12272358Y2360580D01*
X12270572Y2359192D01*
X12268390Y2357407D01*
X12265811Y2355621D01*
X12262836Y2353439D01*
X12259463Y2351455D01*
X12259265D01*
X12259067Y2351257D01*
X12257876Y2350463D01*
X12256091Y2349472D01*
X12253909Y2348281D01*
X12251330Y2346893D01*
X12248553Y2345702D01*
X12245577Y2344314D01*
X12242800Y2343124D01*
Y2358795D01*
X12242998D01*
X12243395Y2358994D01*
X12244189Y2359390D01*
X12244982Y2359985D01*
X12246172Y2360580D01*
X12247561Y2361176D01*
X12250735Y2362961D01*
X12254306Y2365143D01*
X12258273Y2367722D01*
X12262241Y2370698D01*
X12266010Y2373872D01*
X12266208Y2374070D01*
X12266407Y2374268D01*
X12267597Y2375459D01*
X12269382Y2377244D01*
X12271564Y2379426D01*
X12273945Y2382203D01*
X12276325Y2385179D01*
X12278507Y2388353D01*
X12280293Y2391527D01*
X12290807D01*
Y2260600D01*
D02*
G37*
G36*
X12932320Y2306424D02*
X12949976D01*
Y2291745D01*
X12932320D01*
Y2260600D01*
X12916252D01*
Y2291745D01*
X12859715D01*
Y2306424D01*
X12919228Y2390733D01*
X12932320D01*
Y2306424D01*
D02*
G37*
G36*
X12824207Y2260600D02*
X12808138D01*
Y2362564D01*
X12807941Y2362366D01*
X12807146Y2361572D01*
X12805759Y2360580D01*
X12803972Y2359192D01*
X12801790Y2357407D01*
X12799211Y2355621D01*
X12796236Y2353439D01*
X12792863Y2351455D01*
X12792665D01*
X12792467Y2351257D01*
X12791276Y2350463D01*
X12789491Y2349472D01*
X12787309Y2348281D01*
X12784730Y2346893D01*
X12781953Y2345702D01*
X12778977Y2344314D01*
X12776200Y2343124D01*
Y2358795D01*
X12776398D01*
X12776795Y2358994D01*
X12777589Y2359390D01*
X12778382Y2359985D01*
X12779572Y2360580D01*
X12780961Y2361176D01*
X12784135Y2362961D01*
X12787706Y2365143D01*
X12791673Y2367722D01*
X12795641Y2370698D01*
X12799410Y2373872D01*
X12799608Y2374070D01*
X12799807Y2374268D01*
X12800996Y2375459D01*
X12802782Y2377244D01*
X12804964Y2379426D01*
X12807346Y2382203D01*
X12809724Y2385179D01*
X12811906Y2388353D01*
X12813693Y2391527D01*
X12824207D01*
Y2260600D01*
D02*
G37*
G36*
X12655706Y2404028D02*
X12658285Y2403632D01*
X12661260Y2403037D01*
X12664633Y2402243D01*
X12668005Y2401053D01*
X12671377Y2399466D01*
X12671576D01*
X12671774Y2399267D01*
X12672964Y2398672D01*
X12674551Y2397680D01*
X12676535Y2396292D01*
X12678717Y2394507D01*
X12681098Y2392324D01*
X12683280Y2389746D01*
X12685263Y2386968D01*
X12685462Y2386572D01*
X12686057Y2385580D01*
X12686850Y2383993D01*
X12687644Y2382009D01*
X12688437Y2379430D01*
X12689231Y2376653D01*
X12689826Y2373677D01*
X12690024Y2370305D01*
Y2369908D01*
Y2368916D01*
X12689826Y2367329D01*
X12689429Y2365346D01*
X12688834Y2362965D01*
X12688041Y2360386D01*
X12687049Y2357609D01*
X12685462Y2355030D01*
X12685263Y2354633D01*
X12684668Y2353840D01*
X12683478Y2352650D01*
X12682089Y2351063D01*
X12680106Y2349277D01*
X12677924Y2347492D01*
X12675146Y2345508D01*
X12671972Y2343921D01*
X12672171D01*
X12672567Y2343723D01*
X12673163D01*
X12673956Y2343326D01*
X12675940Y2342731D01*
X12678519Y2341541D01*
X12681296Y2340152D01*
X12684272Y2338168D01*
X12687247Y2335788D01*
X12689826Y2332812D01*
X12690024Y2332415D01*
X12690818Y2331225D01*
X12691810Y2329440D01*
X12693198Y2327059D01*
X12694389Y2324084D01*
X12695381Y2320513D01*
X12696174Y2316347D01*
X12696372Y2311785D01*
Y2311586D01*
Y2310991D01*
Y2310198D01*
X12696174Y2309007D01*
X12695976Y2307420D01*
X12695777Y2305833D01*
X12695381Y2303850D01*
X12694785Y2301866D01*
X12693397Y2297303D01*
X12692405Y2294724D01*
X12691016Y2292344D01*
X12689628Y2289963D01*
X12688041Y2287583D01*
X12686057Y2285202D01*
X12683875Y2282822D01*
X12683676Y2282624D01*
X12683280Y2282227D01*
X12682685Y2281830D01*
X12681693Y2281037D01*
X12680502Y2280045D01*
X12678915Y2279053D01*
X12677130Y2278061D01*
X12675345Y2277069D01*
X12673163Y2275879D01*
X12670782Y2274887D01*
X12668203Y2273895D01*
X12665426Y2272903D01*
X12662450Y2272110D01*
X12659276Y2271713D01*
X12655904Y2271316D01*
X12652532Y2271118D01*
X12650945D01*
X12649754Y2271316D01*
X12648167Y2271515D01*
X12646580Y2271713D01*
X12644597Y2271911D01*
X12642613Y2272308D01*
X12638050Y2273498D01*
X12633289Y2275482D01*
X12630909Y2276474D01*
X12628727Y2277863D01*
X12626346Y2279450D01*
X12624164Y2281235D01*
X12623966Y2281433D01*
X12623767Y2281632D01*
X12623172Y2282227D01*
X12622379Y2283020D01*
X12621585Y2284211D01*
X12620594Y2285401D01*
X12619403Y2286789D01*
X12618411Y2288376D01*
X12616031Y2292344D01*
X12614047Y2296907D01*
X12612262Y2302064D01*
X12611667Y2304841D01*
X12611270Y2307817D01*
X12627338Y2309999D01*
Y2309801D01*
X12627537Y2309404D01*
Y2308611D01*
X12627933Y2307817D01*
X12628528Y2305437D01*
X12629520Y2302461D01*
X12630711Y2299287D01*
X12632298Y2295915D01*
X12634281Y2292939D01*
X12636463Y2290360D01*
X12636860Y2290162D01*
X12637654Y2289368D01*
X12639042Y2288575D01*
X12641026Y2287385D01*
X12643208Y2286393D01*
X12645985Y2285401D01*
X12649159Y2284607D01*
X12652532Y2284409D01*
X12653722D01*
X12654515Y2284607D01*
X12656499Y2284806D01*
X12659078Y2285401D01*
X12662252Y2286393D01*
X12665426Y2287583D01*
X12668600Y2289567D01*
X12671576Y2292146D01*
X12671972Y2292542D01*
X12672766Y2293534D01*
X12673956Y2295121D01*
X12675543Y2297502D01*
X12676932Y2300279D01*
X12678122Y2303651D01*
X12678915Y2307420D01*
X12679312Y2311586D01*
Y2311785D01*
Y2311983D01*
Y2312578D01*
X12679114Y2313372D01*
X12678915Y2315355D01*
X12678320Y2317934D01*
X12677527Y2320711D01*
X12676138Y2323885D01*
X12674353Y2326861D01*
X12671972Y2329638D01*
X12671576Y2330035D01*
X12670782Y2330828D01*
X12669195Y2331820D01*
X12667013Y2333209D01*
X12664434Y2334598D01*
X12661260Y2335589D01*
X12657888Y2336383D01*
X12653920Y2336780D01*
X12652135D01*
X12650746Y2336581D01*
X12649159Y2336383D01*
X12647176Y2336185D01*
X12644994Y2335788D01*
X12642613Y2335193D01*
X12644398Y2349277D01*
X12645390D01*
X12646184Y2349079D01*
X12648763D01*
X12650548Y2349277D01*
X12653127Y2349674D01*
X12655904Y2350269D01*
X12658880Y2351261D01*
X12662054Y2352451D01*
X12665228Y2354237D01*
X12665624Y2354435D01*
X12666616Y2355228D01*
X12667807Y2356617D01*
X12669394Y2358402D01*
X12670981Y2360585D01*
X12672171Y2363362D01*
X12673163Y2366734D01*
X12673559Y2370702D01*
Y2370900D01*
Y2371098D01*
Y2372090D01*
X12673163Y2373677D01*
X12672766Y2375859D01*
X12672171Y2378041D01*
X12670981Y2380422D01*
X12669592Y2383001D01*
X12667608Y2385183D01*
X12667410Y2385381D01*
X12666616Y2386175D01*
X12665228Y2387167D01*
X12663442Y2388159D01*
X12661260Y2389349D01*
X12658681Y2390142D01*
X12655706Y2390936D01*
X12652333Y2391134D01*
X12650746D01*
X12648961Y2390737D01*
X12646977Y2390341D01*
X12644398Y2389746D01*
X12641820Y2388555D01*
X12639241Y2387167D01*
X12636662Y2385183D01*
X12636463Y2384985D01*
X12635670Y2384191D01*
X12634678Y2382802D01*
X12633488Y2380819D01*
X12632099Y2378438D01*
X12630909Y2375463D01*
X12629719Y2371892D01*
X12628925Y2367726D01*
X12612857Y2370503D01*
Y2370702D01*
X12613055Y2371297D01*
X12613254Y2372090D01*
X12613452Y2373082D01*
X12613849Y2374471D01*
X12614246Y2376058D01*
X12615634Y2379628D01*
X12617221Y2383596D01*
X12619602Y2387762D01*
X12622379Y2391729D01*
X12625950Y2395300D01*
X12626148Y2395498D01*
X12626346Y2395697D01*
X12626941Y2396094D01*
X12627933Y2396689D01*
X12628925Y2397284D01*
X12630115Y2398077D01*
X12633091Y2399863D01*
X12636860Y2401450D01*
X12641423Y2402838D01*
X12646382Y2403830D01*
X12649159Y2404227D01*
X12653722D01*
X12655706Y2404028D01*
D02*
G37*
G36*
X12570207Y2273300D02*
X12554138D01*
Y2375264D01*
X12553940Y2375066D01*
X12553146Y2374272D01*
X12551758Y2373280D01*
X12549972Y2371892D01*
X12547790Y2370107D01*
X12545211Y2368321D01*
X12542236Y2366139D01*
X12538863Y2364155D01*
X12538665D01*
X12538467Y2363957D01*
X12537276Y2363163D01*
X12535491Y2362172D01*
X12533309Y2360981D01*
X12530730Y2359593D01*
X12527953Y2358402D01*
X12524977Y2357014D01*
X12522200Y2355824D01*
Y2371495D01*
X12522398D01*
X12522795Y2371694D01*
X12523589Y2372090D01*
X12524382Y2372685D01*
X12525572Y2373280D01*
X12526961Y2373876D01*
X12530135Y2375661D01*
X12533706Y2377843D01*
X12537673Y2380422D01*
X12541641Y2383398D01*
X12545410Y2386572D01*
X12545608Y2386770D01*
X12545807Y2386968D01*
X12546997Y2388159D01*
X12548782Y2389944D01*
X12550964Y2392126D01*
X12553345Y2394903D01*
X12555725Y2397879D01*
X12557907Y2401053D01*
X12559693Y2404227D01*
X12570207D01*
Y2273300D01*
D02*
G37*
G36*
X16164307Y5067300D02*
X16148238D01*
Y5169264D01*
X16148039Y5169066D01*
X16147246Y5168272D01*
X16145857Y5167280D01*
X16144072Y5165892D01*
X16141890Y5164107D01*
X16139311Y5162321D01*
X16136336Y5160139D01*
X16132964Y5158155D01*
X16132765D01*
X16132567Y5157957D01*
X16131377Y5157163D01*
X16129591Y5156172D01*
X16127409Y5154981D01*
X16124831Y5153593D01*
X16122054Y5152402D01*
X16119077Y5151014D01*
X16116299Y5149824D01*
Y5165495D01*
X16116498D01*
X16116895Y5165694D01*
X16117690Y5166090D01*
X16118481Y5166685D01*
X16119672Y5167280D01*
X16121062Y5167876D01*
X16124236Y5169661D01*
X16127806Y5171843D01*
X16131773Y5174422D01*
X16135741Y5177398D01*
X16139510Y5180572D01*
X16139708Y5180770D01*
X16139906Y5180968D01*
X16141096Y5182159D01*
X16142882Y5183944D01*
X16145064Y5186126D01*
X16147446Y5188903D01*
X16149825Y5191879D01*
X16152007Y5195053D01*
X16153793Y5198227D01*
X16164307D01*
Y5067300D01*
D02*
G37*
G36*
X16139502Y5413928D02*
X16141089Y5413730D01*
X16142874Y5413532D01*
X16144858Y5413333D01*
X16147040Y5412738D01*
X16151801Y5411548D01*
X16156760Y5409763D01*
X16159338Y5408572D01*
X16161720Y5407184D01*
X16163902Y5405398D01*
X16166084Y5403613D01*
X16166283Y5403415D01*
X16166479Y5403216D01*
X16167076Y5402621D01*
X16167870Y5401828D01*
X16168663Y5400637D01*
X16169653Y5399447D01*
X16171638Y5396472D01*
X16173622Y5392702D01*
X16175407Y5388338D01*
X16176796Y5383379D01*
X16176994Y5380602D01*
X16177193Y5377824D01*
Y5377428D01*
Y5376436D01*
X16176994Y5374849D01*
X16176796Y5372865D01*
X16176399Y5370485D01*
X16175804Y5367906D01*
X16175011Y5365128D01*
X16173820Y5362351D01*
X16173622Y5361954D01*
X16173225Y5360963D01*
X16172432Y5359574D01*
X16171242Y5357590D01*
X16169853Y5355210D01*
X16168066Y5352433D01*
X16165688Y5349655D01*
X16163107Y5346481D01*
X16162711Y5346085D01*
X16161720Y5344894D01*
X16159933Y5343109D01*
X16158743Y5341919D01*
X16157355Y5340530D01*
X16155768Y5338943D01*
X16153786Y5337158D01*
X16151801Y5335372D01*
X16149619Y5333190D01*
X16147238Y5331008D01*
X16144461Y5328628D01*
X16141684Y5326247D01*
X16138510Y5323470D01*
X16138310Y5323272D01*
X16137915Y5322875D01*
X16137122Y5322280D01*
X16136130Y5321486D01*
X16133749Y5319502D01*
X16130772Y5316924D01*
X16127798Y5314146D01*
X16124625Y5311369D01*
X16122044Y5308989D01*
X16121053Y5307997D01*
X16120061Y5307005D01*
X16119862Y5306807D01*
X16119466Y5306211D01*
X16118672Y5305418D01*
X16117680Y5304228D01*
X16115498Y5301649D01*
X16113316Y5298475D01*
X16177391D01*
Y5283200D01*
X16091098D01*
Y5283398D01*
Y5284192D01*
Y5285382D01*
X16091296Y5286771D01*
X16091495Y5288358D01*
X16091693Y5290143D01*
X16092290Y5292127D01*
X16092883Y5294111D01*
Y5294309D01*
X16093082Y5294507D01*
X16093478Y5295698D01*
X16094272Y5297285D01*
X16095464Y5299665D01*
X16096851Y5302244D01*
X16098836Y5305220D01*
X16100819Y5308195D01*
X16103398Y5311369D01*
Y5311567D01*
X16103793Y5311766D01*
X16104787Y5312956D01*
X16106374Y5314741D01*
X16108754Y5317122D01*
X16111729Y5319899D01*
X16115300Y5323272D01*
X16119664Y5327041D01*
X16124425Y5331207D01*
X16124625Y5331405D01*
X16125417Y5332000D01*
X16126408Y5332793D01*
X16127798Y5334182D01*
X16129584Y5335571D01*
X16131567Y5337356D01*
X16135931Y5341125D01*
X16140692Y5345688D01*
X16145453Y5350250D01*
X16147833Y5352433D01*
X16149817Y5354615D01*
X16151602Y5356797D01*
X16153189Y5358780D01*
Y5358979D01*
X16153586Y5359177D01*
X16153983Y5359772D01*
X16154379Y5360566D01*
X16155569Y5362550D01*
X16156960Y5365128D01*
X16158347Y5368104D01*
X16159537Y5371278D01*
X16160332Y5374849D01*
X16160728Y5378221D01*
Y5378420D01*
Y5378618D01*
X16160529Y5379808D01*
X16160332Y5381594D01*
X16159933Y5383776D01*
X16158942Y5386354D01*
X16157751Y5388933D01*
X16156165Y5391711D01*
X16153786Y5394289D01*
X16153387Y5394488D01*
X16152594Y5395281D01*
X16151007Y5396273D01*
X16149023Y5397662D01*
X16146445Y5398852D01*
X16143469Y5399844D01*
X16139899Y5400637D01*
X16135931Y5400836D01*
X16134741D01*
X16133948Y5400637D01*
X16131963Y5400439D01*
X16129385Y5400042D01*
X16126408Y5399050D01*
X16123235Y5397860D01*
X16120259Y5396075D01*
X16117482Y5393694D01*
X16117284Y5393298D01*
X16116490Y5392504D01*
X16115300Y5390917D01*
X16114110Y5388735D01*
X16112721Y5385958D01*
X16111729Y5382784D01*
X16110936Y5379015D01*
X16110539Y5374650D01*
X16094073Y5376436D01*
Y5376634D01*
Y5377229D01*
X16094272Y5378221D01*
X16094472Y5379411D01*
X16094867Y5380998D01*
X16095065Y5382784D01*
X16096255Y5386751D01*
X16097842Y5391314D01*
X16100024Y5395876D01*
X16103001Y5400439D01*
X16104588Y5402423D01*
X16106572Y5404407D01*
X16106770Y5404605D01*
X16107167Y5404803D01*
X16107762Y5405398D01*
X16108556Y5405994D01*
X16109746Y5406589D01*
X16111134Y5407580D01*
X16112721Y5408374D01*
X16114507Y5409366D01*
X16116490Y5410159D01*
X16118672Y5411151D01*
X16121251Y5411945D01*
X16123830Y5412540D01*
X16129781Y5413730D01*
X16132954Y5413928D01*
X16136328Y5414127D01*
X16138113D01*
X16139502Y5413928D01*
D02*
G37*
G36*
X16138104Y5773524D02*
X16155760D01*
Y5758845D01*
X16138104D01*
Y5727700D01*
X16122037D01*
Y5758845D01*
X16065500D01*
Y5773524D01*
X16125012Y5857833D01*
X16138104D01*
Y5773524D01*
D02*
G37*
G36*
X16135336Y5617128D02*
X16137915Y5616732D01*
X16140891Y5616137D01*
X16144263Y5615343D01*
X16147635Y5614153D01*
X16151007Y5612566D01*
X16151205D01*
X16151404Y5612367D01*
X16152594Y5611772D01*
X16154181Y5610780D01*
X16156165Y5609392D01*
X16158347Y5607607D01*
X16160728Y5605424D01*
X16162910Y5602846D01*
X16164894Y5600068D01*
X16165092Y5599672D01*
X16165688Y5598680D01*
X16166479Y5597093D01*
X16167274Y5595109D01*
X16168066Y5592530D01*
X16168861Y5589753D01*
X16169456Y5586777D01*
X16169653Y5583405D01*
Y5583008D01*
Y5582016D01*
X16169456Y5580429D01*
X16169060Y5578446D01*
X16168465Y5576065D01*
X16167671Y5573486D01*
X16166679Y5570709D01*
X16165092Y5568130D01*
X16164894Y5567733D01*
X16164297Y5566940D01*
X16163107Y5565750D01*
X16161720Y5564163D01*
X16159737Y5562377D01*
X16157555Y5560592D01*
X16154776Y5558608D01*
X16151602Y5557021D01*
X16151801D01*
X16152197Y5556823D01*
X16152792D01*
X16153586Y5556426D01*
X16155569Y5555831D01*
X16158150Y5554641D01*
X16160925Y5553252D01*
X16163902Y5551268D01*
X16166878Y5548888D01*
X16169456Y5545912D01*
X16169653Y5545515D01*
X16170448Y5544325D01*
X16171440Y5542540D01*
X16172829Y5540159D01*
X16174019Y5537184D01*
X16175011Y5533613D01*
X16175804Y5529447D01*
X16176003Y5524885D01*
Y5524686D01*
Y5524091D01*
Y5523298D01*
X16175804Y5522107D01*
X16175606Y5520520D01*
X16175407Y5518933D01*
X16175011Y5516950D01*
X16174416Y5514966D01*
X16173027Y5510403D01*
X16172035Y5507824D01*
X16170647Y5505444D01*
X16169258Y5503063D01*
X16167671Y5500683D01*
X16165688Y5498302D01*
X16163506Y5495922D01*
X16163307Y5495724D01*
X16162910Y5495327D01*
X16162315Y5494930D01*
X16161324Y5494137D01*
X16160133Y5493145D01*
X16158546Y5492153D01*
X16156760Y5491161D01*
X16154974Y5490169D01*
X16152792Y5488979D01*
X16150412Y5487987D01*
X16147833Y5486995D01*
X16145056Y5486003D01*
X16142081Y5485210D01*
X16138907Y5484813D01*
X16135535Y5484416D01*
X16132162Y5484218D01*
X16130576D01*
X16129385Y5484416D01*
X16127798Y5484615D01*
X16126212Y5484813D01*
X16124226Y5485011D01*
X16122243Y5485408D01*
X16117680Y5486598D01*
X16112920Y5488582D01*
X16110539Y5489574D01*
X16108357Y5490963D01*
X16105975Y5492550D01*
X16103793Y5494335D01*
X16103596Y5494533D01*
X16103398Y5494732D01*
X16102802Y5495327D01*
X16102010Y5496120D01*
X16101215Y5497311D01*
X16100224Y5498501D01*
X16099033Y5499889D01*
X16098041Y5501476D01*
X16095660Y5505444D01*
X16093677Y5510007D01*
X16091891Y5515164D01*
X16091296Y5517941D01*
X16090900Y5520917D01*
X16106969Y5523099D01*
Y5522901D01*
X16107167Y5522504D01*
Y5521711D01*
X16107562Y5520917D01*
X16108159Y5518537D01*
X16109151Y5515561D01*
X16110341Y5512387D01*
X16111928Y5509015D01*
X16113911Y5506039D01*
X16116093Y5503460D01*
X16116490Y5503262D01*
X16117284Y5502468D01*
X16118672Y5501675D01*
X16120656Y5500485D01*
X16122838Y5499493D01*
X16125615Y5498501D01*
X16128789Y5497707D01*
X16132162Y5497509D01*
X16133353D01*
X16134146Y5497707D01*
X16136130Y5497906D01*
X16138708Y5498501D01*
X16141882Y5499493D01*
X16145056Y5500683D01*
X16148230Y5502667D01*
X16151205Y5505246D01*
X16151602Y5505642D01*
X16152396Y5506634D01*
X16153586Y5508221D01*
X16155173Y5510602D01*
X16156561Y5513379D01*
X16157751Y5516751D01*
X16158546Y5520520D01*
X16158942Y5524686D01*
Y5524885D01*
Y5525083D01*
Y5525678D01*
X16158743Y5526472D01*
X16158546Y5528455D01*
X16157950Y5531034D01*
X16157156Y5533811D01*
X16155768Y5536985D01*
X16153983Y5539961D01*
X16151602Y5542738D01*
X16151205Y5543135D01*
X16150412Y5543928D01*
X16148825Y5544920D01*
X16146643Y5546309D01*
X16144064Y5547698D01*
X16140891Y5548689D01*
X16137518Y5549483D01*
X16133549Y5549880D01*
X16131766D01*
X16130376Y5549681D01*
X16128789Y5549483D01*
X16126807Y5549285D01*
X16124625Y5548888D01*
X16122243Y5548293D01*
X16124028Y5562377D01*
X16125020D01*
X16125813Y5562179D01*
X16128394D01*
X16130177Y5562377D01*
X16132758Y5562774D01*
X16135535Y5563369D01*
X16138510Y5564361D01*
X16141684Y5565551D01*
X16144858Y5567337D01*
X16145255Y5567535D01*
X16146246Y5568328D01*
X16147437Y5569717D01*
X16149023Y5571502D01*
X16150610Y5573685D01*
X16151801Y5576462D01*
X16152792Y5579834D01*
X16153189Y5583802D01*
Y5584000D01*
Y5584198D01*
Y5585190D01*
X16152792Y5586777D01*
X16152396Y5588959D01*
X16151801Y5591141D01*
X16150610Y5593522D01*
X16149222Y5596101D01*
X16147238Y5598283D01*
X16147040Y5598481D01*
X16146246Y5599275D01*
X16144858Y5600267D01*
X16143073Y5601259D01*
X16140891Y5602449D01*
X16138310Y5603242D01*
X16135336Y5604036D01*
X16131963Y5604234D01*
X16130376D01*
X16128590Y5603837D01*
X16126607Y5603441D01*
X16124028Y5602846D01*
X16121449Y5601655D01*
X16118871Y5600267D01*
X16116292Y5598283D01*
X16116093Y5598085D01*
X16115300Y5597291D01*
X16114308Y5595902D01*
X16113118Y5593919D01*
X16111729Y5591538D01*
X16110539Y5588563D01*
X16109349Y5584992D01*
X16108556Y5580826D01*
X16092487Y5583603D01*
Y5583802D01*
X16092685Y5584397D01*
X16092883Y5585190D01*
X16093082Y5586182D01*
X16093478Y5587571D01*
X16093877Y5589158D01*
X16095264Y5592728D01*
X16096851Y5596696D01*
X16099232Y5600862D01*
X16102010Y5604829D01*
X16105580Y5608400D01*
X16105779Y5608598D01*
X16105975Y5608797D01*
X16106572Y5609194D01*
X16107562Y5609789D01*
X16108556Y5610384D01*
X16109746Y5611177D01*
X16112721Y5612963D01*
X16116490Y5614550D01*
X16121053Y5615938D01*
X16126012Y5616930D01*
X16128789Y5617327D01*
X16133353D01*
X16135336Y5617128D01*
D02*
G37*
G36*
X12022293Y10532028D02*
X12023880Y10531830D01*
X12025665Y10531632D01*
X12027649Y10531433D01*
X12029831Y10530838D01*
X12034592Y10529648D01*
X12039551Y10527863D01*
X12042130Y10526672D01*
X12044511Y10525284D01*
X12046693Y10523498D01*
X12048875Y10521713D01*
X12049073Y10521515D01*
X12049272Y10521316D01*
X12049867Y10520721D01*
X12050660Y10519928D01*
X12051454Y10518737D01*
X12052446Y10517547D01*
X12054429Y10514572D01*
X12056413Y10510802D01*
X12058198Y10506438D01*
X12059587Y10501479D01*
X12059785Y10498702D01*
X12059984Y10495924D01*
Y10495528D01*
Y10494536D01*
X12059785Y10492949D01*
X12059587Y10490965D01*
X12059190Y10488585D01*
X12058595Y10486006D01*
X12057802Y10483228D01*
X12056611Y10480451D01*
X12056413Y10480054D01*
X12056016Y10479063D01*
X12055223Y10477674D01*
X12054033Y10475690D01*
X12052644Y10473310D01*
X12050859Y10470533D01*
X12048478Y10467755D01*
X12045899Y10464581D01*
X12045502Y10464185D01*
X12044511Y10462994D01*
X12042725Y10461209D01*
X12041535Y10460019D01*
X12040146Y10458630D01*
X12038559Y10457043D01*
X12036576Y10455258D01*
X12034592Y10453472D01*
X12032410Y10451290D01*
X12030029Y10449108D01*
X12027252Y10446728D01*
X12024475Y10444347D01*
X12021301Y10441570D01*
X12021102Y10441372D01*
X12020706Y10440975D01*
X12019912Y10440380D01*
X12018920Y10439586D01*
X12016540Y10437602D01*
X12013564Y10435024D01*
X12010589Y10432246D01*
X12007415Y10429469D01*
X12004836Y10427089D01*
X12003844Y10426097D01*
X12002852Y10425105D01*
X12002654Y10424907D01*
X12002257Y10424311D01*
X12001463Y10423518D01*
X12000472Y10422328D01*
X11998289Y10419749D01*
X11996107Y10416575D01*
X12060182D01*
Y10401300D01*
X11973889D01*
Y10401498D01*
Y10402292D01*
Y10403482D01*
X11974088Y10404871D01*
X11974286Y10406458D01*
X11974485Y10408243D01*
X11975080Y10410227D01*
X11975675Y10412211D01*
Y10412409D01*
X11975873Y10412607D01*
X11976270Y10413798D01*
X11977063Y10415385D01*
X11978254Y10417765D01*
X11979642Y10420344D01*
X11981626Y10423320D01*
X11983610Y10426295D01*
X11986189Y10429469D01*
Y10429667D01*
X11986585Y10429866D01*
X11987577Y10431056D01*
X11989164Y10432841D01*
X11991545Y10435222D01*
X11994520Y10437999D01*
X11998091Y10441372D01*
X12002455Y10445141D01*
X12007216Y10449307D01*
X12007415Y10449505D01*
X12008208Y10450100D01*
X12009200Y10450893D01*
X12010589Y10452282D01*
X12012374Y10453671D01*
X12014358Y10455456D01*
X12018722Y10459225D01*
X12023483Y10463788D01*
X12028244Y10468350D01*
X12030624Y10470533D01*
X12032608Y10472715D01*
X12034394Y10474897D01*
X12035981Y10476880D01*
Y10477079D01*
X12036377Y10477277D01*
X12036774Y10477872D01*
X12037171Y10478666D01*
X12038361Y10480650D01*
X12039750Y10483228D01*
X12041138Y10486204D01*
X12042328Y10489378D01*
X12043122Y10492949D01*
X12043519Y10496321D01*
Y10496520D01*
Y10496718D01*
X12043320Y10497908D01*
X12043122Y10499694D01*
X12042725Y10501876D01*
X12041733Y10504454D01*
X12040543Y10507033D01*
X12038956Y10509811D01*
X12036576Y10512389D01*
X12036179Y10512588D01*
X12035385Y10513381D01*
X12033798Y10514373D01*
X12031815Y10515762D01*
X12029236Y10516952D01*
X12026260Y10517944D01*
X12022689Y10518737D01*
X12018722Y10518936D01*
X12017532D01*
X12016738Y10518737D01*
X12014754Y10518539D01*
X12012176Y10518142D01*
X12009200Y10517150D01*
X12006026Y10515960D01*
X12003050Y10514175D01*
X12000273Y10511794D01*
X12000075Y10511398D01*
X11999281Y10510604D01*
X11998091Y10509017D01*
X11996901Y10506835D01*
X11995512Y10504058D01*
X11994520Y10500884D01*
X11993727Y10497115D01*
X11993330Y10492750D01*
X11976865Y10494536D01*
Y10494734D01*
Y10495329D01*
X11977063Y10496321D01*
X11977262Y10497511D01*
X11977659Y10499098D01*
X11977857Y10500884D01*
X11979047Y10504851D01*
X11980634Y10509414D01*
X11982816Y10513976D01*
X11985792Y10518539D01*
X11987379Y10520523D01*
X11989363Y10522507D01*
X11989561Y10522705D01*
X11989958Y10522903D01*
X11990553Y10523498D01*
X11991346Y10524094D01*
X11992537Y10524689D01*
X11993925Y10525680D01*
X11995512Y10526474D01*
X11997298Y10527466D01*
X11999281Y10528259D01*
X12001463Y10529251D01*
X12004042Y10530045D01*
X12006621Y10530640D01*
X12012572Y10531830D01*
X12015746Y10532028D01*
X12019119Y10532227D01*
X12020904D01*
X12022293Y10532028D01*
D02*
G37*
G36*
X11935207Y10401300D02*
X11919138D01*
Y10503264D01*
X11918940Y10503066D01*
X11918146Y10502272D01*
X11916758Y10501280D01*
X11914972Y10499892D01*
X11912790Y10498107D01*
X11910211Y10496321D01*
X11907236Y10494139D01*
X11903863Y10492155D01*
X11903665D01*
X11903467Y10491957D01*
X11902276Y10491163D01*
X11900491Y10490172D01*
X11898309Y10488981D01*
X11895730Y10487593D01*
X11892953Y10486402D01*
X11889977Y10485014D01*
X11887200Y10483824D01*
Y10499495D01*
X11887398D01*
X11887795Y10499694D01*
X11888589Y10500090D01*
X11889382Y10500685D01*
X11890572Y10501280D01*
X11891961Y10501876D01*
X11895135Y10503661D01*
X11898706Y10505843D01*
X11902673Y10508422D01*
X11906641Y10511398D01*
X11910410Y10514572D01*
X11910608Y10514770D01*
X11910807Y10514968D01*
X11911997Y10516159D01*
X11913782Y10517944D01*
X11915964Y10520126D01*
X11918345Y10522903D01*
X11920725Y10525879D01*
X11922907Y10529053D01*
X11924693Y10532227D01*
X11935207D01*
Y10401300D01*
D02*
G37*
G36*
X12303077D02*
X12287009D01*
Y10503264D01*
X12286811Y10503066D01*
X12286017Y10502272D01*
X12284628Y10501280D01*
X12282843Y10499892D01*
X12280661Y10498107D01*
X12278082Y10496321D01*
X12275107Y10494139D01*
X12271734Y10492155D01*
X12271536D01*
X12271337Y10491957D01*
X12270147Y10491163D01*
X12268362Y10490172D01*
X12266180Y10488981D01*
X12263601Y10487593D01*
X12260824Y10486402D01*
X12257848Y10485014D01*
X12255071Y10483824D01*
Y10499495D01*
X12255269D01*
X12255666Y10499694D01*
X12256459Y10500090D01*
X12257253Y10500685D01*
X12258443Y10501280D01*
X12259832Y10501876D01*
X12263006Y10503661D01*
X12266576Y10505843D01*
X12270544Y10508422D01*
X12274511Y10511398D01*
X12278280Y10514572D01*
X12278479Y10514770D01*
X12278677Y10514968D01*
X12279867Y10516159D01*
X12281653Y10517944D01*
X12283835Y10520126D01*
X12286215Y10522903D01*
X12288596Y10525879D01*
X12290778Y10529053D01*
X12292563Y10532227D01*
X12303077D01*
Y10401300D01*
D02*
G37*
G36*
X12201907D02*
X12185838D01*
Y10503264D01*
X12185640Y10503066D01*
X12184846Y10502272D01*
X12183458Y10501280D01*
X12181672Y10499892D01*
X12179490Y10498107D01*
X12176911Y10496321D01*
X12173936Y10494139D01*
X12170563Y10492155D01*
X12170365D01*
X12170167Y10491957D01*
X12168976Y10491163D01*
X12167191Y10490172D01*
X12165009Y10488981D01*
X12162430Y10487593D01*
X12159653Y10486402D01*
X12156677Y10485014D01*
X12153900Y10483824D01*
Y10499495D01*
X12154098D01*
X12154495Y10499694D01*
X12155289Y10500090D01*
X12156082Y10500685D01*
X12157272Y10501280D01*
X12158661Y10501876D01*
X12161835Y10503661D01*
X12165406Y10505843D01*
X12169373Y10508422D01*
X12173341Y10511398D01*
X12177110Y10514572D01*
X12177308Y10514770D01*
X12177507Y10514968D01*
X12178697Y10516159D01*
X12180482Y10517944D01*
X12182664Y10520126D01*
X12185045Y10522903D01*
X12187425Y10525879D01*
X12189607Y10529053D01*
X12191393Y10532227D01*
X12201907D01*
Y10401300D01*
D02*
G37*
G36*
X11755609Y10517547D02*
X11755411Y10517349D01*
X11755014Y10516952D01*
X11754419Y10516159D01*
X11753427Y10515167D01*
X11752435Y10513778D01*
X11751046Y10512191D01*
X11749459Y10510207D01*
X11747872Y10508224D01*
X11746087Y10505843D01*
X11744103Y10503066D01*
X11741921Y10500289D01*
X11739937Y10497115D01*
X11737755Y10493742D01*
X11735375Y10490172D01*
X11733193Y10486204D01*
X11730812Y10482237D01*
X11730614Y10482038D01*
X11730217Y10481245D01*
X11729622Y10480054D01*
X11728828Y10478467D01*
X11727837Y10476484D01*
X11726646Y10474103D01*
X11725258Y10471326D01*
X11723869Y10468350D01*
X11722480Y10465176D01*
X11720893Y10461606D01*
X11719307Y10457837D01*
X11717720Y10453869D01*
X11714744Y10445736D01*
X11711967Y10437007D01*
Y10436809D01*
X11711768Y10436214D01*
X11711570Y10435420D01*
X11711173Y10434230D01*
X11710776Y10432643D01*
X11710380Y10430858D01*
X11709983Y10428676D01*
X11709388Y10426493D01*
X11708991Y10423915D01*
X11708396Y10421137D01*
X11707404Y10415186D01*
X11706611Y10408441D01*
X11706015Y10401300D01*
X11689550D01*
Y10401498D01*
Y10402093D01*
Y10402887D01*
X11689749Y10404077D01*
Y10405466D01*
X11689947Y10407251D01*
X11690146Y10409433D01*
X11690344Y10411615D01*
X11690741Y10414194D01*
X11691137Y10417170D01*
X11691534Y10420146D01*
X11692129Y10423320D01*
X11692724Y10426890D01*
X11693518Y10430461D01*
X11695502Y10438396D01*
Y10438594D01*
X11695700Y10439388D01*
X11696097Y10440578D01*
X11696493Y10442165D01*
X11697089Y10444149D01*
X11697882Y10446331D01*
X11698676Y10448910D01*
X11699667Y10451885D01*
X11700858Y10454861D01*
X11702048Y10458233D01*
X11704825Y10465375D01*
X11708198Y10472913D01*
X11711967Y10480451D01*
X11712165Y10480650D01*
X11712562Y10481443D01*
X11713157Y10482435D01*
X11713950Y10483824D01*
X11714942Y10485609D01*
X11716133Y10487593D01*
X11717521Y10489775D01*
X11718910Y10492354D01*
X11722480Y10497710D01*
X11726448Y10503463D01*
X11730614Y10509215D01*
X11735176Y10514770D01*
X11671300D01*
Y10530045D01*
X11755609D01*
Y10517547D01*
D02*
G37*
G36*
X11437129Y10534211D02*
X11438716D01*
X11440303Y10533814D01*
X11444271Y10533219D01*
X11448635Y10532028D01*
X11453198Y10530243D01*
X11455578Y10529053D01*
X11457760Y10527863D01*
X11459942Y10526276D01*
X11461926Y10524490D01*
X11462124Y10524292D01*
X11462323Y10524094D01*
X11462918Y10523498D01*
X11463513Y10522705D01*
X11464307Y10521713D01*
X11465298Y10520523D01*
X11467282Y10517746D01*
X11469067Y10514175D01*
X11470853Y10510009D01*
X11472043Y10505446D01*
X11472241Y10502867D01*
X11472440Y10500289D01*
Y10499892D01*
Y10498702D01*
X11472241Y10497115D01*
X11471845Y10494933D01*
X11471250Y10492354D01*
X11470456Y10489775D01*
X11469266Y10486998D01*
X11467679Y10484419D01*
X11467480Y10484220D01*
X11466885Y10483427D01*
X11465695Y10482237D01*
X11464108Y10480650D01*
X11462124Y10479063D01*
X11459546Y10477476D01*
X11456570Y10475690D01*
X11453198Y10474302D01*
X11453396D01*
X11453793Y10474103D01*
X11454388Y10473905D01*
X11455181Y10473508D01*
X11457363Y10472516D01*
X11459942Y10471326D01*
X11462918Y10469541D01*
X11465894Y10467359D01*
X11468869Y10464581D01*
X11471448Y10461606D01*
X11471646Y10461209D01*
X11472440Y10460019D01*
X11473432Y10458233D01*
X11474622Y10455654D01*
X11475812Y10452679D01*
X11476804Y10449108D01*
X11477598Y10445141D01*
X11477796Y10440776D01*
Y10440578D01*
Y10439983D01*
Y10439189D01*
X11477598Y10437999D01*
X11477399Y10436611D01*
X11477201Y10434825D01*
X11476407Y10430858D01*
X11474820Y10426493D01*
X11474027Y10424113D01*
X11472837Y10421733D01*
X11471448Y10419352D01*
X11469861Y10416972D01*
X11468076Y10414789D01*
X11465894Y10412607D01*
X11465695Y10412409D01*
X11465298Y10412211D01*
X11464703Y10411615D01*
X11463711Y10410822D01*
X11462521Y10410028D01*
X11461133Y10409037D01*
X11459546Y10408045D01*
X11457562Y10407053D01*
X11455380Y10405863D01*
X11452999Y10404871D01*
X11450420Y10403879D01*
X11447643Y10403085D01*
X11444866Y10402292D01*
X11441692Y10401697D01*
X11438320Y10401498D01*
X11434749Y10401300D01*
X11432963D01*
X11431575Y10401498D01*
X11429988Y10401697D01*
X11428004Y10401895D01*
X11426020Y10402292D01*
X11423640Y10402689D01*
X11418680Y10404077D01*
X11416102Y10405069D01*
X11413523Y10406061D01*
X11410944Y10407450D01*
X11408365Y10408838D01*
X11405985Y10410624D01*
X11403604Y10412607D01*
X11403406Y10412806D01*
X11403009Y10413202D01*
X11402612Y10413798D01*
X11401819Y10414591D01*
X11400827Y10415781D01*
X11399835Y10417170D01*
X11398843Y10418757D01*
X11397851Y10420542D01*
X11396661Y10422526D01*
X11395669Y10424708D01*
X11393685Y10429469D01*
X11392892Y10432246D01*
X11392495Y10435024D01*
X11392098Y10437999D01*
X11391900Y10441173D01*
Y10441372D01*
Y10441768D01*
Y10442363D01*
X11392098Y10443355D01*
Y10444347D01*
X11392297Y10445736D01*
X11392693Y10448513D01*
X11393487Y10451885D01*
X11394677Y10455456D01*
X11396066Y10459027D01*
X11398248Y10462399D01*
Y10462598D01*
X11398645Y10462796D01*
X11399438Y10463788D01*
X11401025Y10465375D01*
X11403009Y10467160D01*
X11405588Y10469144D01*
X11408762Y10471128D01*
X11412531Y10472913D01*
X11416697Y10474302D01*
X11416498D01*
X11416300Y10474500D01*
X11415110Y10474897D01*
X11413324Y10475889D01*
X11411142Y10476880D01*
X11408563Y10478467D01*
X11406183Y10480253D01*
X11403802Y10482237D01*
X11401819Y10484617D01*
X11401620Y10485014D01*
X11401025Y10485807D01*
X11400232Y10487196D01*
X11399438Y10489180D01*
X11398645Y10491560D01*
X11397851Y10494337D01*
X11397256Y10497313D01*
X11397058Y10500685D01*
Y10500884D01*
Y10501280D01*
Y10502074D01*
X11397256Y10503066D01*
X11397454Y10504256D01*
X11397653Y10505645D01*
X11398248Y10509017D01*
X11399438Y10512786D01*
X11401422Y10516754D01*
X11402414Y10518936D01*
X11403802Y10520920D01*
X11405389Y10522903D01*
X11407175Y10524689D01*
X11407373Y10524887D01*
X11407572Y10525085D01*
X11408167Y10525680D01*
X11408960Y10526276D01*
X11410150Y10526871D01*
X11411341Y10527863D01*
X11412729Y10528656D01*
X11414515Y10529648D01*
X11418284Y10531433D01*
X11423045Y10532822D01*
X11428401Y10534012D01*
X11431178Y10534211D01*
X11434352Y10534409D01*
X11435939D01*
X11437129Y10534211D01*
D02*
G37*
G36*
X8063257Y4813300D02*
X8047189D01*
Y4915264D01*
X8046990Y4915066D01*
X8046197Y4914272D01*
X8044808Y4913280D01*
X8043023Y4911892D01*
X8040841Y4910107D01*
X8038262Y4908321D01*
X8035286Y4906139D01*
X8031914Y4904155D01*
X8031715D01*
X8031517Y4903957D01*
X8030327Y4903163D01*
X8028541Y4902172D01*
X8026359Y4900981D01*
X8023780Y4899593D01*
X8021003Y4898402D01*
X8018028Y4897014D01*
X8015250Y4895824D01*
Y4911495D01*
X8015449D01*
X8015846Y4911694D01*
X8016639Y4912090D01*
X8017433Y4912685D01*
X8018623Y4913280D01*
X8020011Y4913876D01*
X8023185Y4915661D01*
X8026756Y4917843D01*
X8030724Y4920422D01*
X8034691Y4923398D01*
X8038460Y4926572D01*
X8038659Y4926770D01*
X8038857Y4926968D01*
X8040047Y4928159D01*
X8041833Y4929944D01*
X8044015Y4932126D01*
X8046395Y4934903D01*
X8048776Y4937879D01*
X8050958Y4941053D01*
X8052743Y4944227D01*
X8063257D01*
Y4813300D01*
D02*
G37*
G36*
X7948002Y4944028D02*
X7949589Y4943830D01*
X7951374Y4943632D01*
X7953358Y4943433D01*
X7955540Y4942838D01*
X7960301Y4941648D01*
X7965260Y4939863D01*
X7967839Y4938672D01*
X7970220Y4937284D01*
X7972402Y4935498D01*
X7974584Y4933713D01*
X7974782Y4933515D01*
X7974980Y4933316D01*
X7975576Y4932721D01*
X7976369Y4931928D01*
X7977163Y4930737D01*
X7978154Y4929547D01*
X7980138Y4926572D01*
X7982122Y4922802D01*
X7983907Y4918438D01*
X7985296Y4913479D01*
X7985494Y4910702D01*
X7985693Y4907924D01*
Y4907528D01*
Y4906536D01*
X7985494Y4904949D01*
X7985296Y4902965D01*
X7984899Y4900585D01*
X7984304Y4898006D01*
X7983511Y4895228D01*
X7982320Y4892451D01*
X7982122Y4892054D01*
X7981725Y4891063D01*
X7980932Y4889674D01*
X7979741Y4887690D01*
X7978353Y4885310D01*
X7976567Y4882533D01*
X7974187Y4879755D01*
X7971608Y4876581D01*
X7971211Y4876185D01*
X7970220Y4874994D01*
X7968434Y4873209D01*
X7967244Y4872019D01*
X7965855Y4870630D01*
X7964268Y4869043D01*
X7962285Y4867258D01*
X7960301Y4865472D01*
X7958119Y4863290D01*
X7955738Y4861108D01*
X7952961Y4858728D01*
X7950184Y4856347D01*
X7947010Y4853570D01*
X7946811Y4853372D01*
X7946415Y4852975D01*
X7945621Y4852380D01*
X7944629Y4851586D01*
X7942249Y4849602D01*
X7939273Y4847024D01*
X7936298Y4844246D01*
X7933124Y4841469D01*
X7930545Y4839089D01*
X7929553Y4838097D01*
X7928561Y4837105D01*
X7928363Y4836907D01*
X7927966Y4836311D01*
X7927172Y4835518D01*
X7926180Y4834328D01*
X7923998Y4831749D01*
X7921816Y4828575D01*
X7985891D01*
Y4813300D01*
X7899598D01*
Y4813498D01*
Y4814292D01*
Y4815482D01*
X7899797Y4816871D01*
X7899995Y4818458D01*
X7900193Y4820243D01*
X7900789Y4822227D01*
X7901384Y4824211D01*
Y4824409D01*
X7901582Y4824607D01*
X7901979Y4825798D01*
X7902772Y4827385D01*
X7903963Y4829765D01*
X7905351Y4832344D01*
X7907335Y4835320D01*
X7909319Y4838295D01*
X7911898Y4841469D01*
Y4841667D01*
X7912294Y4841866D01*
X7913286Y4843056D01*
X7914873Y4844841D01*
X7917254Y4847222D01*
X7920229Y4849999D01*
X7923800Y4853372D01*
X7928164Y4857141D01*
X7932925Y4861307D01*
X7933124Y4861505D01*
X7933917Y4862100D01*
X7934909Y4862893D01*
X7936298Y4864282D01*
X7938083Y4865671D01*
X7940067Y4867456D01*
X7944431Y4871225D01*
X7949192Y4875788D01*
X7953953Y4880350D01*
X7956333Y4882533D01*
X7958317Y4884715D01*
X7960102Y4886897D01*
X7961689Y4888880D01*
Y4889079D01*
X7962086Y4889277D01*
X7962483Y4889872D01*
X7962880Y4890666D01*
X7964070Y4892650D01*
X7965459Y4895228D01*
X7966847Y4898204D01*
X7968037Y4901378D01*
X7968831Y4904949D01*
X7969228Y4908321D01*
Y4908520D01*
Y4908718D01*
X7969029Y4909908D01*
X7968831Y4911694D01*
X7968434Y4913876D01*
X7967442Y4916454D01*
X7966252Y4919033D01*
X7964665Y4921811D01*
X7962285Y4924389D01*
X7961888Y4924588D01*
X7961094Y4925381D01*
X7959507Y4926373D01*
X7957524Y4927762D01*
X7954945Y4928952D01*
X7951969Y4929944D01*
X7948398Y4930737D01*
X7944431Y4930936D01*
X7943241D01*
X7942447Y4930737D01*
X7940463Y4930539D01*
X7937885Y4930142D01*
X7934909Y4929150D01*
X7931735Y4927960D01*
X7928759Y4926175D01*
X7925982Y4923794D01*
X7925784Y4923398D01*
X7924990Y4922604D01*
X7923800Y4921017D01*
X7922610Y4918835D01*
X7921221Y4916058D01*
X7920229Y4912884D01*
X7919436Y4909115D01*
X7919039Y4904750D01*
X7902574Y4906536D01*
Y4906734D01*
Y4907329D01*
X7902772Y4908321D01*
X7902971Y4909511D01*
X7903367Y4911098D01*
X7903566Y4912884D01*
X7904756Y4916851D01*
X7906343Y4921414D01*
X7908525Y4925976D01*
X7911501Y4930539D01*
X7913088Y4932523D01*
X7915072Y4934507D01*
X7915270Y4934705D01*
X7915667Y4934903D01*
X7916262Y4935498D01*
X7917055Y4936094D01*
X7918246Y4936689D01*
X7919634Y4937680D01*
X7921221Y4938474D01*
X7923007Y4939466D01*
X7924990Y4940259D01*
X7927172Y4941251D01*
X7929751Y4942045D01*
X7932330Y4942640D01*
X7938281Y4943830D01*
X7941455Y4944028D01*
X7944828Y4944227D01*
X7946613D01*
X7948002Y4944028D01*
D02*
G37*
G36*
X8049172Y4664628D02*
X8050759Y4664430D01*
X8052545Y4664232D01*
X8054528Y4664033D01*
X8056711Y4663438D01*
X8061472Y4662248D01*
X8066431Y4660463D01*
X8069010Y4659272D01*
X8071390Y4657884D01*
X8073572Y4656098D01*
X8075754Y4654313D01*
X8075953Y4654115D01*
X8076151Y4653916D01*
X8076746Y4653321D01*
X8077540Y4652528D01*
X8078333Y4651337D01*
X8079325Y4650147D01*
X8081309Y4647172D01*
X8083293Y4643402D01*
X8085078Y4639038D01*
X8086467Y4634079D01*
X8086665Y4631302D01*
X8086863Y4628524D01*
Y4628128D01*
Y4627136D01*
X8086665Y4625549D01*
X8086467Y4623565D01*
X8086070Y4621185D01*
X8085475Y4618606D01*
X8084681Y4615828D01*
X8083491Y4613051D01*
X8083293Y4612654D01*
X8082896Y4611663D01*
X8082102Y4610274D01*
X8080912Y4608290D01*
X8079524Y4605910D01*
X8077738Y4603133D01*
X8075358Y4600355D01*
X8072779Y4597181D01*
X8072382Y4596785D01*
X8071390Y4595594D01*
X8069605Y4593809D01*
X8068415Y4592619D01*
X8067026Y4591230D01*
X8065439Y4589643D01*
X8063455Y4587858D01*
X8061472Y4586072D01*
X8059289Y4583890D01*
X8056909Y4581708D01*
X8054132Y4579328D01*
X8051354Y4576947D01*
X8048180Y4574170D01*
X8047982Y4573972D01*
X8047585Y4573575D01*
X8046792Y4572980D01*
X8045800Y4572186D01*
X8043420Y4570202D01*
X8040444Y4567624D01*
X8037468Y4564846D01*
X8034294Y4562069D01*
X8031715Y4559689D01*
X8030724Y4558697D01*
X8029732Y4557705D01*
X8029533Y4557507D01*
X8029137Y4556911D01*
X8028343Y4556118D01*
X8027351Y4554928D01*
X8025169Y4552349D01*
X8022987Y4549175D01*
X8087062D01*
Y4533900D01*
X8000769D01*
Y4534098D01*
Y4534892D01*
Y4536082D01*
X8000967Y4537471D01*
X8001166Y4539058D01*
X8001364Y4540843D01*
X8001959Y4542827D01*
X8002554Y4544811D01*
Y4545009D01*
X8002753Y4545207D01*
X8003150Y4546398D01*
X8003943Y4547985D01*
X8005133Y4550365D01*
X8006522Y4552944D01*
X8008506Y4555920D01*
X8010489Y4558895D01*
X8013068Y4562069D01*
Y4562267D01*
X8013465Y4562466D01*
X8014457Y4563656D01*
X8016044Y4565441D01*
X8018424Y4567822D01*
X8021400Y4570599D01*
X8024971Y4573972D01*
X8029335Y4577741D01*
X8034096Y4581907D01*
X8034294Y4582105D01*
X8035088Y4582700D01*
X8036080Y4583493D01*
X8037468Y4584882D01*
X8039254Y4586271D01*
X8041237Y4588056D01*
X8045602Y4591825D01*
X8050363Y4596388D01*
X8055124Y4600950D01*
X8057504Y4603133D01*
X8059488Y4605315D01*
X8061273Y4607497D01*
X8062860Y4609480D01*
Y4609679D01*
X8063257Y4609877D01*
X8063654Y4610472D01*
X8064050Y4611266D01*
X8065241Y4613250D01*
X8066629Y4615828D01*
X8068018Y4618804D01*
X8069208Y4621978D01*
X8070002Y4625549D01*
X8070398Y4628921D01*
Y4629120D01*
Y4629318D01*
X8070200Y4630508D01*
X8070002Y4632294D01*
X8069605Y4634476D01*
X8068613Y4637054D01*
X8067423Y4639633D01*
X8065836Y4642411D01*
X8063455Y4644989D01*
X8063059Y4645188D01*
X8062265Y4645981D01*
X8060678Y4646973D01*
X8058694Y4648362D01*
X8056115Y4649552D01*
X8053140Y4650544D01*
X8049569Y4651337D01*
X8045602Y4651536D01*
X8044411D01*
X8043618Y4651337D01*
X8041634Y4651139D01*
X8039055Y4650742D01*
X8036080Y4649750D01*
X8032906Y4648560D01*
X8029930Y4646775D01*
X8027153Y4644394D01*
X8026954Y4643998D01*
X8026161Y4643204D01*
X8024971Y4641617D01*
X8023780Y4639435D01*
X8022392Y4636658D01*
X8021400Y4633484D01*
X8020607Y4629715D01*
X8020210Y4625350D01*
X8003745Y4627136D01*
Y4627334D01*
Y4627929D01*
X8003943Y4628921D01*
X8004141Y4630111D01*
X8004538Y4631698D01*
X8004737Y4633484D01*
X8005927Y4637451D01*
X8007514Y4642014D01*
X8009696Y4646576D01*
X8012672Y4651139D01*
X8014259Y4653123D01*
X8016242Y4655107D01*
X8016441Y4655305D01*
X8016837Y4655503D01*
X8017433Y4656098D01*
X8018226Y4656694D01*
X8019416Y4657289D01*
X8020805Y4658280D01*
X8022392Y4659074D01*
X8024177Y4660066D01*
X8026161Y4660859D01*
X8028343Y4661851D01*
X8030922Y4662645D01*
X8033501Y4663240D01*
X8039452Y4664430D01*
X8042626Y4664628D01*
X8045998Y4664827D01*
X8047784D01*
X8049172Y4664628D01*
D02*
G37*
G36*
X7948002D02*
X7949589Y4664430D01*
X7951374Y4664232D01*
X7953358Y4664033D01*
X7955540Y4663438D01*
X7960301Y4662248D01*
X7965260Y4660463D01*
X7967839Y4659272D01*
X7970220Y4657884D01*
X7972402Y4656098D01*
X7974584Y4654313D01*
X7974782Y4654115D01*
X7974980Y4653916D01*
X7975576Y4653321D01*
X7976369Y4652528D01*
X7977163Y4651337D01*
X7978154Y4650147D01*
X7980138Y4647172D01*
X7982122Y4643402D01*
X7983907Y4639038D01*
X7985296Y4634079D01*
X7985494Y4631302D01*
X7985693Y4628524D01*
Y4628128D01*
Y4627136D01*
X7985494Y4625549D01*
X7985296Y4623565D01*
X7984899Y4621185D01*
X7984304Y4618606D01*
X7983511Y4615828D01*
X7982320Y4613051D01*
X7982122Y4612654D01*
X7981725Y4611663D01*
X7980932Y4610274D01*
X7979741Y4608290D01*
X7978353Y4605910D01*
X7976567Y4603133D01*
X7974187Y4600355D01*
X7971608Y4597181D01*
X7971211Y4596785D01*
X7970220Y4595594D01*
X7968434Y4593809D01*
X7967244Y4592619D01*
X7965855Y4591230D01*
X7964268Y4589643D01*
X7962285Y4587858D01*
X7960301Y4586072D01*
X7958119Y4583890D01*
X7955738Y4581708D01*
X7952961Y4579328D01*
X7950184Y4576947D01*
X7947010Y4574170D01*
X7946811Y4573972D01*
X7946415Y4573575D01*
X7945621Y4572980D01*
X7944629Y4572186D01*
X7942249Y4570202D01*
X7939273Y4567624D01*
X7936298Y4564846D01*
X7933124Y4562069D01*
X7930545Y4559689D01*
X7929553Y4558697D01*
X7928561Y4557705D01*
X7928363Y4557507D01*
X7927966Y4556911D01*
X7927172Y4556118D01*
X7926180Y4554928D01*
X7923998Y4552349D01*
X7921816Y4549175D01*
X7985891D01*
Y4533900D01*
X7899598D01*
Y4534098D01*
Y4534892D01*
Y4536082D01*
X7899797Y4537471D01*
X7899995Y4539058D01*
X7900193Y4540843D01*
X7900789Y4542827D01*
X7901384Y4544811D01*
Y4545009D01*
X7901582Y4545207D01*
X7901979Y4546398D01*
X7902772Y4547985D01*
X7903963Y4550365D01*
X7905351Y4552944D01*
X7907335Y4555920D01*
X7909319Y4558895D01*
X7911898Y4562069D01*
Y4562267D01*
X7912294Y4562466D01*
X7913286Y4563656D01*
X7914873Y4565441D01*
X7917254Y4567822D01*
X7920229Y4570599D01*
X7923800Y4573972D01*
X7928164Y4577741D01*
X7932925Y4581907D01*
X7933124Y4582105D01*
X7933917Y4582700D01*
X7934909Y4583493D01*
X7936298Y4584882D01*
X7938083Y4586271D01*
X7940067Y4588056D01*
X7944431Y4591825D01*
X7949192Y4596388D01*
X7953953Y4600950D01*
X7956333Y4603133D01*
X7958317Y4605315D01*
X7960102Y4607497D01*
X7961689Y4609480D01*
Y4609679D01*
X7962086Y4609877D01*
X7962483Y4610472D01*
X7962880Y4611266D01*
X7964070Y4613250D01*
X7965459Y4615828D01*
X7966847Y4618804D01*
X7968037Y4621978D01*
X7968831Y4625549D01*
X7969228Y4628921D01*
Y4629120D01*
Y4629318D01*
X7969029Y4630508D01*
X7968831Y4632294D01*
X7968434Y4634476D01*
X7967442Y4637054D01*
X7966252Y4639633D01*
X7964665Y4642411D01*
X7962285Y4644989D01*
X7961888Y4645188D01*
X7961094Y4645981D01*
X7959507Y4646973D01*
X7957524Y4648362D01*
X7954945Y4649552D01*
X7951969Y4650544D01*
X7948398Y4651337D01*
X7944431Y4651536D01*
X7943241D01*
X7942447Y4651337D01*
X7940463Y4651139D01*
X7937885Y4650742D01*
X7934909Y4649750D01*
X7931735Y4648560D01*
X7928759Y4646775D01*
X7925982Y4644394D01*
X7925784Y4643998D01*
X7924990Y4643204D01*
X7923800Y4641617D01*
X7922610Y4639435D01*
X7921221Y4636658D01*
X7920229Y4633484D01*
X7919436Y4629715D01*
X7919039Y4625350D01*
X7902574Y4627136D01*
Y4627334D01*
Y4627929D01*
X7902772Y4628921D01*
X7902971Y4630111D01*
X7903367Y4631698D01*
X7903566Y4633484D01*
X7904756Y4637451D01*
X7906343Y4642014D01*
X7908525Y4646576D01*
X7911501Y4651139D01*
X7913088Y4653123D01*
X7915072Y4655107D01*
X7915270Y4655305D01*
X7915667Y4655503D01*
X7916262Y4656098D01*
X7917055Y4656694D01*
X7918246Y4657289D01*
X7919634Y4658280D01*
X7921221Y4659074D01*
X7923007Y4660066D01*
X7924990Y4660859D01*
X7927172Y4661851D01*
X7929751Y4662645D01*
X7932330Y4663240D01*
X7938281Y4664430D01*
X7941455Y4664628D01*
X7944828Y4664827D01*
X7946613D01*
X7948002Y4664628D01*
D02*
G37*
G36*
X8047585Y4397928D02*
X8050164Y4397532D01*
X8053140Y4396937D01*
X8056512Y4396143D01*
X8059885Y4394953D01*
X8063257Y4393366D01*
X8063455D01*
X8063654Y4393167D01*
X8064844Y4392572D01*
X8066431Y4391580D01*
X8068415Y4390192D01*
X8070597Y4388407D01*
X8072977Y4386224D01*
X8075159Y4383646D01*
X8077143Y4380868D01*
X8077341Y4380472D01*
X8077937Y4379480D01*
X8078730Y4377893D01*
X8079524Y4375909D01*
X8080317Y4373330D01*
X8081111Y4370553D01*
X8081706Y4367577D01*
X8081904Y4364205D01*
Y4363808D01*
Y4362816D01*
X8081706Y4361229D01*
X8081309Y4359246D01*
X8080714Y4356865D01*
X8079920Y4354286D01*
X8078928Y4351509D01*
X8077341Y4348930D01*
X8077143Y4348533D01*
X8076548Y4347740D01*
X8075358Y4346550D01*
X8073969Y4344963D01*
X8071985Y4343177D01*
X8069803Y4341392D01*
X8067026Y4339408D01*
X8063852Y4337821D01*
X8064050D01*
X8064447Y4337623D01*
X8065042D01*
X8065836Y4337226D01*
X8067820Y4336631D01*
X8070398Y4335441D01*
X8073176Y4334052D01*
X8076151Y4332068D01*
X8079127Y4329688D01*
X8081706Y4326712D01*
X8081904Y4326315D01*
X8082698Y4325125D01*
X8083689Y4323340D01*
X8085078Y4320959D01*
X8086268Y4317984D01*
X8087260Y4314413D01*
X8088054Y4310247D01*
X8088252Y4305685D01*
Y4305486D01*
Y4304891D01*
Y4304098D01*
X8088054Y4302907D01*
X8087855Y4301320D01*
X8087657Y4299733D01*
X8087260Y4297750D01*
X8086665Y4295766D01*
X8085276Y4291203D01*
X8084285Y4288624D01*
X8082896Y4286244D01*
X8081507Y4283863D01*
X8079920Y4281483D01*
X8077937Y4279102D01*
X8075754Y4276722D01*
X8075556Y4276524D01*
X8075159Y4276127D01*
X8074564Y4275730D01*
X8073572Y4274937D01*
X8072382Y4273945D01*
X8070795Y4272953D01*
X8069010Y4271961D01*
X8067224Y4270969D01*
X8065042Y4269779D01*
X8062662Y4268787D01*
X8060083Y4267795D01*
X8057306Y4266803D01*
X8054330Y4266010D01*
X8051156Y4265613D01*
X8047784Y4265216D01*
X8044411Y4265018D01*
X8042824D01*
X8041634Y4265216D01*
X8040047Y4265415D01*
X8038460Y4265613D01*
X8036476Y4265811D01*
X8034493Y4266208D01*
X8029930Y4267398D01*
X8025169Y4269382D01*
X8022789Y4270374D01*
X8020607Y4271763D01*
X8018226Y4273350D01*
X8016044Y4275135D01*
X8015846Y4275333D01*
X8015647Y4275532D01*
X8015052Y4276127D01*
X8014259Y4276920D01*
X8013465Y4278111D01*
X8012473Y4279301D01*
X8011283Y4280689D01*
X8010291Y4282276D01*
X8007911Y4286244D01*
X8005927Y4290807D01*
X8004141Y4295964D01*
X8003546Y4298741D01*
X8003150Y4301717D01*
X8019218Y4303899D01*
Y4303701D01*
X8019416Y4303304D01*
Y4302511D01*
X8019813Y4301717D01*
X8020408Y4299337D01*
X8021400Y4296361D01*
X8022590Y4293187D01*
X8024177Y4289815D01*
X8026161Y4286839D01*
X8028343Y4284260D01*
X8028740Y4284062D01*
X8029533Y4283268D01*
X8030922Y4282475D01*
X8032906Y4281285D01*
X8035088Y4280293D01*
X8037865Y4279301D01*
X8041039Y4278507D01*
X8044411Y4278309D01*
X8045602D01*
X8046395Y4278507D01*
X8048379Y4278706D01*
X8050958Y4279301D01*
X8054132Y4280293D01*
X8057306Y4281483D01*
X8060480Y4283467D01*
X8063455Y4286046D01*
X8063852Y4286442D01*
X8064646Y4287434D01*
X8065836Y4289021D01*
X8067423Y4291402D01*
X8068811Y4294179D01*
X8070002Y4297551D01*
X8070795Y4301320D01*
X8071192Y4305486D01*
Y4305685D01*
Y4305883D01*
Y4306478D01*
X8070994Y4307272D01*
X8070795Y4309255D01*
X8070200Y4311834D01*
X8069407Y4314611D01*
X8068018Y4317785D01*
X8066233Y4320761D01*
X8063852Y4323538D01*
X8063455Y4323935D01*
X8062662Y4324728D01*
X8061075Y4325720D01*
X8058893Y4327109D01*
X8056314Y4328498D01*
X8053140Y4329489D01*
X8049767Y4330283D01*
X8045800Y4330680D01*
X8044015D01*
X8042626Y4330481D01*
X8041039Y4330283D01*
X8039055Y4330085D01*
X8036873Y4329688D01*
X8034493Y4329093D01*
X8036278Y4343177D01*
X8037270D01*
X8038063Y4342979D01*
X8040642D01*
X8042428Y4343177D01*
X8045007Y4343574D01*
X8047784Y4344169D01*
X8050759Y4345161D01*
X8053933Y4346351D01*
X8057107Y4348137D01*
X8057504Y4348335D01*
X8058496Y4349128D01*
X8059686Y4350517D01*
X8061273Y4352302D01*
X8062860Y4354485D01*
X8064050Y4357262D01*
X8065042Y4360634D01*
X8065439Y4364602D01*
Y4364800D01*
Y4364998D01*
Y4365990D01*
X8065042Y4367577D01*
X8064646Y4369759D01*
X8064050Y4371941D01*
X8062860Y4374322D01*
X8061472Y4376901D01*
X8059488Y4379083D01*
X8059289Y4379281D01*
X8058496Y4380075D01*
X8057107Y4381067D01*
X8055322Y4382059D01*
X8053140Y4383249D01*
X8050561Y4384042D01*
X8047585Y4384836D01*
X8044213Y4385034D01*
X8042626D01*
X8040841Y4384637D01*
X8038857Y4384241D01*
X8036278Y4383646D01*
X8033699Y4382455D01*
X8031120Y4381067D01*
X8028541Y4379083D01*
X8028343Y4378885D01*
X8027550Y4378091D01*
X8026558Y4376702D01*
X8025367Y4374719D01*
X8023979Y4372338D01*
X8022789Y4369363D01*
X8021598Y4365792D01*
X8020805Y4361626D01*
X8004737Y4364403D01*
Y4364602D01*
X8004935Y4365197D01*
X8005133Y4365990D01*
X8005332Y4366982D01*
X8005728Y4368371D01*
X8006125Y4369958D01*
X8007514Y4373528D01*
X8009101Y4377496D01*
X8011481Y4381662D01*
X8014259Y4385629D01*
X8017829Y4389200D01*
X8018028Y4389398D01*
X8018226Y4389597D01*
X8018821Y4389994D01*
X8019813Y4390589D01*
X8020805Y4391184D01*
X8021995Y4391977D01*
X8024971Y4393763D01*
X8028740Y4395350D01*
X8033302Y4396738D01*
X8038262Y4397730D01*
X8041039Y4398127D01*
X8045602D01*
X8047585Y4397928D01*
D02*
G37*
G36*
X7948002D02*
X7949589Y4397730D01*
X7951374Y4397532D01*
X7953358Y4397333D01*
X7955540Y4396738D01*
X7960301Y4395548D01*
X7965260Y4393763D01*
X7967839Y4392572D01*
X7970220Y4391184D01*
X7972402Y4389398D01*
X7974584Y4387613D01*
X7974782Y4387415D01*
X7974980Y4387216D01*
X7975576Y4386621D01*
X7976369Y4385828D01*
X7977163Y4384637D01*
X7978154Y4383447D01*
X7980138Y4380472D01*
X7982122Y4376702D01*
X7983907Y4372338D01*
X7985296Y4367379D01*
X7985494Y4364602D01*
X7985693Y4361824D01*
Y4361428D01*
Y4360436D01*
X7985494Y4358849D01*
X7985296Y4356865D01*
X7984899Y4354485D01*
X7984304Y4351906D01*
X7983511Y4349128D01*
X7982320Y4346351D01*
X7982122Y4345954D01*
X7981725Y4344963D01*
X7980932Y4343574D01*
X7979741Y4341590D01*
X7978353Y4339210D01*
X7976567Y4336433D01*
X7974187Y4333655D01*
X7971608Y4330481D01*
X7971211Y4330085D01*
X7970220Y4328894D01*
X7968434Y4327109D01*
X7967244Y4325919D01*
X7965855Y4324530D01*
X7964268Y4322943D01*
X7962285Y4321158D01*
X7960301Y4319372D01*
X7958119Y4317190D01*
X7955738Y4315008D01*
X7952961Y4312628D01*
X7950184Y4310247D01*
X7947010Y4307470D01*
X7946811Y4307272D01*
X7946415Y4306875D01*
X7945621Y4306280D01*
X7944629Y4305486D01*
X7942249Y4303502D01*
X7939273Y4300924D01*
X7936298Y4298146D01*
X7933124Y4295369D01*
X7930545Y4292989D01*
X7929553Y4291997D01*
X7928561Y4291005D01*
X7928363Y4290807D01*
X7927966Y4290211D01*
X7927172Y4289418D01*
X7926180Y4288228D01*
X7923998Y4285649D01*
X7921816Y4282475D01*
X7985891D01*
Y4267200D01*
X7899598D01*
Y4267398D01*
Y4268192D01*
Y4269382D01*
X7899797Y4270771D01*
X7899995Y4272358D01*
X7900193Y4274143D01*
X7900789Y4276127D01*
X7901384Y4278111D01*
Y4278309D01*
X7901582Y4278507D01*
X7901979Y4279698D01*
X7902772Y4281285D01*
X7903963Y4283665D01*
X7905351Y4286244D01*
X7907335Y4289220D01*
X7909319Y4292195D01*
X7911898Y4295369D01*
Y4295567D01*
X7912294Y4295766D01*
X7913286Y4296956D01*
X7914873Y4298741D01*
X7917254Y4301122D01*
X7920229Y4303899D01*
X7923800Y4307272D01*
X7928164Y4311041D01*
X7932925Y4315207D01*
X7933124Y4315405D01*
X7933917Y4316000D01*
X7934909Y4316793D01*
X7936298Y4318182D01*
X7938083Y4319571D01*
X7940067Y4321356D01*
X7944431Y4325125D01*
X7949192Y4329688D01*
X7953953Y4334250D01*
X7956333Y4336433D01*
X7958317Y4338615D01*
X7960102Y4340797D01*
X7961689Y4342780D01*
Y4342979D01*
X7962086Y4343177D01*
X7962483Y4343772D01*
X7962880Y4344566D01*
X7964070Y4346550D01*
X7965459Y4349128D01*
X7966847Y4352104D01*
X7968037Y4355278D01*
X7968831Y4358849D01*
X7969228Y4362221D01*
Y4362420D01*
Y4362618D01*
X7969029Y4363808D01*
X7968831Y4365594D01*
X7968434Y4367776D01*
X7967442Y4370354D01*
X7966252Y4372933D01*
X7964665Y4375711D01*
X7962285Y4378289D01*
X7961888Y4378488D01*
X7961094Y4379281D01*
X7959507Y4380273D01*
X7957524Y4381662D01*
X7954945Y4382852D01*
X7951969Y4383844D01*
X7948398Y4384637D01*
X7944431Y4384836D01*
X7943241D01*
X7942447Y4384637D01*
X7940463Y4384439D01*
X7937885Y4384042D01*
X7934909Y4383050D01*
X7931735Y4381860D01*
X7928759Y4380075D01*
X7925982Y4377694D01*
X7925784Y4377298D01*
X7924990Y4376504D01*
X7923800Y4374917D01*
X7922610Y4372735D01*
X7921221Y4369958D01*
X7920229Y4366784D01*
X7919436Y4363015D01*
X7919039Y4358650D01*
X7902574Y4360436D01*
Y4360634D01*
Y4361229D01*
X7902772Y4362221D01*
X7902971Y4363411D01*
X7903367Y4364998D01*
X7903566Y4366784D01*
X7904756Y4370751D01*
X7906343Y4375314D01*
X7908525Y4379876D01*
X7911501Y4384439D01*
X7913088Y4386423D01*
X7915072Y4388407D01*
X7915270Y4388605D01*
X7915667Y4388803D01*
X7916262Y4389398D01*
X7917055Y4389994D01*
X7918246Y4390589D01*
X7919634Y4391580D01*
X7921221Y4392374D01*
X7923007Y4393366D01*
X7924990Y4394159D01*
X7927172Y4395151D01*
X7929751Y4395945D01*
X7932330Y4396540D01*
X7938281Y4397730D01*
X7941455Y4397928D01*
X7944828Y4398127D01*
X7946613D01*
X7948002Y4397928D01*
D02*
G37*
G36*
X8082900Y4020924D02*
X8100555D01*
Y4006245D01*
X8082900D01*
Y3975100D01*
X8066832D01*
Y4006245D01*
X8010295D01*
Y4020924D01*
X8069807Y4105233D01*
X8082900D01*
Y4020924D01*
D02*
G37*
G36*
X7960702Y4105828D02*
X7962289Y4105630D01*
X7964074Y4105432D01*
X7966058Y4105233D01*
X7968240Y4104638D01*
X7973001Y4103448D01*
X7977960Y4101663D01*
X7980539Y4100472D01*
X7982920Y4099084D01*
X7985102Y4097298D01*
X7987284Y4095513D01*
X7987482Y4095315D01*
X7987680Y4095116D01*
X7988276Y4094521D01*
X7989069Y4093728D01*
X7989863Y4092537D01*
X7990854Y4091347D01*
X7992838Y4088372D01*
X7994822Y4084602D01*
X7996607Y4080238D01*
X7997996Y4075279D01*
X7998194Y4072502D01*
X7998393Y4069724D01*
Y4069328D01*
Y4068336D01*
X7998194Y4066749D01*
X7997996Y4064765D01*
X7997599Y4062385D01*
X7997004Y4059806D01*
X7996211Y4057028D01*
X7995020Y4054251D01*
X7994822Y4053854D01*
X7994425Y4052863D01*
X7993632Y4051474D01*
X7992441Y4049490D01*
X7991053Y4047110D01*
X7989267Y4044333D01*
X7986887Y4041555D01*
X7984308Y4038381D01*
X7983911Y4037985D01*
X7982920Y4036794D01*
X7981134Y4035009D01*
X7979944Y4033819D01*
X7978555Y4032430D01*
X7976968Y4030843D01*
X7974985Y4029058D01*
X7973001Y4027272D01*
X7970819Y4025090D01*
X7968438Y4022908D01*
X7965661Y4020528D01*
X7962884Y4018147D01*
X7959710Y4015370D01*
X7959511Y4015172D01*
X7959115Y4014775D01*
X7958321Y4014180D01*
X7957329Y4013386D01*
X7954949Y4011402D01*
X7951973Y4008824D01*
X7948998Y4006046D01*
X7945824Y4003269D01*
X7943245Y4000889D01*
X7942253Y3999897D01*
X7941261Y3998905D01*
X7941063Y3998707D01*
X7940666Y3998111D01*
X7939872Y3997318D01*
X7938880Y3996128D01*
X7936698Y3993549D01*
X7934516Y3990375D01*
X7998591D01*
Y3975100D01*
X7912298D01*
Y3975298D01*
Y3976092D01*
Y3977282D01*
X7912497Y3978671D01*
X7912695Y3980258D01*
X7912893Y3982043D01*
X7913489Y3984027D01*
X7914084Y3986011D01*
Y3986209D01*
X7914282Y3986407D01*
X7914679Y3987598D01*
X7915472Y3989185D01*
X7916663Y3991565D01*
X7918051Y3994144D01*
X7920035Y3997120D01*
X7922019Y4000095D01*
X7924598Y4003269D01*
Y4003467D01*
X7924994Y4003666D01*
X7925986Y4004856D01*
X7927573Y4006641D01*
X7929954Y4009022D01*
X7932929Y4011799D01*
X7936500Y4015172D01*
X7940864Y4018941D01*
X7945625Y4023107D01*
X7945824Y4023305D01*
X7946617Y4023900D01*
X7947609Y4024694D01*
X7948998Y4026082D01*
X7950783Y4027471D01*
X7952767Y4029256D01*
X7957131Y4033025D01*
X7961892Y4037588D01*
X7966653Y4042150D01*
X7969033Y4044333D01*
X7971017Y4046515D01*
X7972802Y4048697D01*
X7974389Y4050680D01*
Y4050879D01*
X7974786Y4051077D01*
X7975183Y4051672D01*
X7975580Y4052466D01*
X7976770Y4054450D01*
X7978159Y4057028D01*
X7979547Y4060004D01*
X7980737Y4063178D01*
X7981531Y4066749D01*
X7981928Y4070121D01*
Y4070320D01*
Y4070518D01*
X7981729Y4071708D01*
X7981531Y4073494D01*
X7981134Y4075676D01*
X7980142Y4078254D01*
X7978952Y4080833D01*
X7977365Y4083611D01*
X7974985Y4086189D01*
X7974588Y4086388D01*
X7973794Y4087181D01*
X7972207Y4088173D01*
X7970224Y4089562D01*
X7967645Y4090752D01*
X7964669Y4091744D01*
X7961098Y4092537D01*
X7957131Y4092736D01*
X7955941D01*
X7955147Y4092537D01*
X7953163Y4092339D01*
X7950585Y4091942D01*
X7947609Y4090950D01*
X7944435Y4089760D01*
X7941459Y4087975D01*
X7938682Y4085594D01*
X7938484Y4085198D01*
X7937690Y4084404D01*
X7936500Y4082817D01*
X7935310Y4080635D01*
X7933921Y4077858D01*
X7932929Y4074684D01*
X7932136Y4070915D01*
X7931739Y4066550D01*
X7915274Y4068336D01*
Y4068534D01*
Y4069129D01*
X7915472Y4070121D01*
X7915671Y4071311D01*
X7916067Y4072898D01*
X7916266Y4074684D01*
X7917456Y4078651D01*
X7919043Y4083214D01*
X7921225Y4087776D01*
X7924201Y4092339D01*
X7925788Y4094323D01*
X7927772Y4096307D01*
X7927970Y4096505D01*
X7928367Y4096703D01*
X7928962Y4097298D01*
X7929755Y4097894D01*
X7930946Y4098489D01*
X7932334Y4099480D01*
X7933921Y4100274D01*
X7935707Y4101266D01*
X7937690Y4102059D01*
X7939872Y4103051D01*
X7942451Y4103845D01*
X7945030Y4104440D01*
X7950981Y4105630D01*
X7954155Y4105828D01*
X7957528Y4106027D01*
X7959313D01*
X7960702Y4105828D01*
D02*
G37*
G36*
X7859102Y7153828D02*
X7860689Y7153630D01*
X7862474Y7153432D01*
X7864458Y7153233D01*
X7866640Y7152638D01*
X7871401Y7151448D01*
X7876360Y7149663D01*
X7878939Y7148472D01*
X7881320Y7147084D01*
X7883502Y7145298D01*
X7885684Y7143513D01*
X7885882Y7143315D01*
X7886080Y7143116D01*
X7886676Y7142521D01*
X7887469Y7141728D01*
X7888263Y7140537D01*
X7889254Y7139347D01*
X7891238Y7136372D01*
X7893222Y7132602D01*
X7895007Y7128238D01*
X7896396Y7123279D01*
X7896594Y7120502D01*
X7896793Y7117724D01*
Y7117328D01*
Y7116336D01*
X7896594Y7114749D01*
X7896396Y7112765D01*
X7895999Y7110385D01*
X7895404Y7107806D01*
X7894611Y7105028D01*
X7893420Y7102251D01*
X7893222Y7101854D01*
X7892825Y7100863D01*
X7892032Y7099474D01*
X7890841Y7097490D01*
X7889453Y7095110D01*
X7887667Y7092333D01*
X7885287Y7089555D01*
X7882708Y7086381D01*
X7882311Y7085985D01*
X7881320Y7084794D01*
X7879534Y7083009D01*
X7878344Y7081819D01*
X7876955Y7080430D01*
X7875368Y7078843D01*
X7873385Y7077058D01*
X7871401Y7075272D01*
X7869219Y7073090D01*
X7866838Y7070908D01*
X7864061Y7068528D01*
X7861284Y7066147D01*
X7858110Y7063370D01*
X7857911Y7063172D01*
X7857515Y7062775D01*
X7856721Y7062180D01*
X7855729Y7061386D01*
X7853349Y7059402D01*
X7850373Y7056824D01*
X7847398Y7054046D01*
X7844224Y7051269D01*
X7841645Y7048889D01*
X7840653Y7047897D01*
X7839661Y7046905D01*
X7839463Y7046707D01*
X7839066Y7046111D01*
X7838272Y7045318D01*
X7837280Y7044128D01*
X7835098Y7041549D01*
X7832916Y7038375D01*
X7896991D01*
Y7023100D01*
X7810698D01*
Y7023298D01*
Y7024092D01*
Y7025282D01*
X7810897Y7026671D01*
X7811095Y7028258D01*
X7811293Y7030043D01*
X7811889Y7032027D01*
X7812484Y7034011D01*
Y7034209D01*
X7812682Y7034407D01*
X7813079Y7035598D01*
X7813872Y7037185D01*
X7815063Y7039565D01*
X7816451Y7042144D01*
X7818435Y7045120D01*
X7820419Y7048095D01*
X7822998Y7051269D01*
Y7051467D01*
X7823394Y7051666D01*
X7824386Y7052856D01*
X7825973Y7054641D01*
X7828354Y7057022D01*
X7831329Y7059799D01*
X7834900Y7063172D01*
X7839264Y7066941D01*
X7844025Y7071107D01*
X7844224Y7071305D01*
X7845017Y7071900D01*
X7846009Y7072693D01*
X7847398Y7074082D01*
X7849183Y7075471D01*
X7851167Y7077256D01*
X7855531Y7081025D01*
X7860292Y7085588D01*
X7865053Y7090150D01*
X7867433Y7092333D01*
X7869417Y7094515D01*
X7871202Y7096697D01*
X7872789Y7098680D01*
Y7098879D01*
X7873186Y7099077D01*
X7873583Y7099672D01*
X7873980Y7100466D01*
X7875170Y7102450D01*
X7876559Y7105028D01*
X7877947Y7108004D01*
X7879137Y7111178D01*
X7879931Y7114749D01*
X7880328Y7118121D01*
Y7118320D01*
Y7118518D01*
X7880129Y7119708D01*
X7879931Y7121494D01*
X7879534Y7123676D01*
X7878542Y7126254D01*
X7877352Y7128833D01*
X7875765Y7131611D01*
X7873385Y7134189D01*
X7872988Y7134388D01*
X7872194Y7135181D01*
X7870607Y7136173D01*
X7868624Y7137562D01*
X7866045Y7138752D01*
X7863069Y7139744D01*
X7859498Y7140537D01*
X7855531Y7140736D01*
X7854341D01*
X7853547Y7140537D01*
X7851563Y7140339D01*
X7848985Y7139942D01*
X7846009Y7138950D01*
X7842835Y7137760D01*
X7839859Y7135975D01*
X7837082Y7133594D01*
X7836884Y7133198D01*
X7836090Y7132404D01*
X7834900Y7130817D01*
X7833710Y7128635D01*
X7832321Y7125858D01*
X7831329Y7122684D01*
X7830536Y7118915D01*
X7830139Y7114550D01*
X7813674Y7116336D01*
Y7116534D01*
Y7117129D01*
X7813872Y7118121D01*
X7814071Y7119311D01*
X7814467Y7120898D01*
X7814666Y7122684D01*
X7815856Y7126651D01*
X7817443Y7131214D01*
X7819625Y7135776D01*
X7822601Y7140339D01*
X7824188Y7142323D01*
X7826172Y7144307D01*
X7826370Y7144505D01*
X7826767Y7144703D01*
X7827362Y7145298D01*
X7828155Y7145894D01*
X7829346Y7146489D01*
X7830734Y7147480D01*
X7832321Y7148274D01*
X7834107Y7149266D01*
X7836090Y7150059D01*
X7838272Y7151051D01*
X7840851Y7151845D01*
X7843430Y7152440D01*
X7849381Y7153630D01*
X7852555Y7153828D01*
X7855928Y7154027D01*
X7857713D01*
X7859102Y7153828D01*
D02*
G37*
G36*
X7960272D02*
X7962653Y7153432D01*
X7965430Y7153035D01*
X7968604Y7152241D01*
X7971778Y7151051D01*
X7974754Y7149663D01*
X7975150Y7149464D01*
X7976142Y7148869D01*
X7977531Y7147877D01*
X7979515Y7146687D01*
X7981498Y7144902D01*
X7983681Y7142720D01*
X7985863Y7140339D01*
X7987846Y7137562D01*
X7988045Y7137165D01*
X7988640Y7136173D01*
X7989632Y7134388D01*
X7990822Y7132206D01*
X7992012Y7129428D01*
X7993401Y7126056D01*
X7994789Y7122287D01*
X7995980Y7118121D01*
Y7117923D01*
X7996178Y7117526D01*
Y7116931D01*
X7996376Y7115939D01*
X7996773Y7114947D01*
X7996972Y7113559D01*
X7997170Y7111773D01*
X7997567Y7109988D01*
X7997765Y7107806D01*
X7997963Y7105624D01*
X7998360Y7103045D01*
X7998559Y7100267D01*
X7998757Y7097292D01*
Y7094316D01*
X7998955Y7087373D01*
Y7087175D01*
Y7086381D01*
Y7085191D01*
Y7083604D01*
X7998757Y7081620D01*
Y7079438D01*
X7998559Y7076859D01*
X7998360Y7074082D01*
X7997765Y7068131D01*
X7996972Y7061981D01*
X7995781Y7055832D01*
X7994988Y7053054D01*
X7994194Y7050277D01*
Y7050079D01*
X7993996Y7049682D01*
X7993798Y7048889D01*
X7993401Y7047897D01*
X7992806Y7046707D01*
X7992211Y7045516D01*
X7990624Y7042342D01*
X7988640Y7038772D01*
X7986259Y7035201D01*
X7983482Y7031630D01*
X7980110Y7028456D01*
X7979911D01*
X7979713Y7028059D01*
X7979118Y7027861D01*
X7978523Y7027266D01*
X7976341Y7026076D01*
X7973762Y7024687D01*
X7970191Y7023298D01*
X7966224Y7022108D01*
X7961661Y7021315D01*
X7956503Y7020918D01*
X7954718D01*
X7953329Y7021116D01*
X7951742Y7021315D01*
X7949957Y7021711D01*
X7947973Y7022108D01*
X7945791Y7022505D01*
X7941030Y7024092D01*
X7938451Y7025282D01*
X7936071Y7026472D01*
X7933492Y7028059D01*
X7931111Y7029845D01*
X7928929Y7031828D01*
X7926747Y7034209D01*
X7926549Y7034407D01*
X7926152Y7035002D01*
X7925557Y7035994D01*
X7924763Y7037383D01*
X7923772Y7039168D01*
X7922780Y7041350D01*
X7921589Y7043929D01*
X7920399Y7047103D01*
X7919209Y7050476D01*
X7918019Y7054443D01*
X7917027Y7058807D01*
X7916035Y7063568D01*
X7915241Y7068924D01*
X7914646Y7074479D01*
X7914250Y7080827D01*
X7914051Y7087373D01*
Y7087572D01*
Y7088365D01*
Y7089555D01*
Y7091142D01*
X7914250Y7093126D01*
Y7095308D01*
X7914448Y7097887D01*
X7914646Y7100664D01*
X7915241Y7106615D01*
X7916035Y7112765D01*
X7917027Y7118915D01*
X7917820Y7121692D01*
X7918614Y7124469D01*
Y7124667D01*
X7918812Y7125064D01*
X7919209Y7125858D01*
X7919606Y7126850D01*
X7920002Y7128040D01*
X7920598Y7129428D01*
X7922185Y7132602D01*
X7924168Y7136173D01*
X7926549Y7139744D01*
X7929326Y7143116D01*
X7932698Y7146290D01*
X7932897D01*
X7933095Y7146687D01*
X7933690Y7147084D01*
X7934484Y7147480D01*
X7936467Y7148671D01*
X7939245Y7150258D01*
X7942617Y7151646D01*
X7946783Y7152837D01*
X7951346Y7153630D01*
X7956503Y7154027D01*
X7958289D01*
X7960272Y7153828D01*
D02*
G37*
%LPC*%
G36*
X7955908Y7725134D02*
X7954321D01*
X7952734Y7724737D01*
X7950552Y7724341D01*
X7948172Y7723746D01*
X7945593Y7722555D01*
X7943014Y7721167D01*
X7940633Y7719183D01*
X7940435Y7718985D01*
X7939641Y7718191D01*
X7938848Y7716802D01*
X7937658Y7715215D01*
X7936666Y7713232D01*
X7935674Y7710653D01*
X7934880Y7708074D01*
X7934682Y7705098D01*
Y7704702D01*
Y7703511D01*
X7935079Y7701924D01*
X7935476Y7699742D01*
X7936071Y7697362D01*
X7937063Y7694981D01*
X7938451Y7692402D01*
X7940435Y7690022D01*
X7940633Y7689824D01*
X7941427Y7689228D01*
X7942815Y7688237D01*
X7944601Y7687245D01*
X7946783Y7686054D01*
X7949560Y7685261D01*
X7952536Y7684467D01*
X7955908Y7684269D01*
X7957495D01*
X7959082Y7684666D01*
X7961264Y7685063D01*
X7963645Y7685658D01*
X7966224Y7686650D01*
X7968802Y7688038D01*
X7971183Y7690022D01*
X7971381Y7690220D01*
X7972175Y7691014D01*
X7973167Y7692204D01*
X7974159Y7693989D01*
X7975349Y7695973D01*
X7976142Y7698552D01*
X7976936Y7701329D01*
X7977134Y7704305D01*
Y7704503D01*
Y7704702D01*
Y7705694D01*
X7976737Y7707479D01*
X7976341Y7709463D01*
X7975547Y7711645D01*
X7974555Y7714224D01*
X7972968Y7716604D01*
X7970985Y7718985D01*
X7970786Y7719183D01*
X7969993Y7719976D01*
X7968604Y7720968D01*
X7966819Y7722159D01*
X7964637Y7723150D01*
X7962058Y7724142D01*
X7959280Y7724936D01*
X7955908Y7725134D01*
D02*
G37*
G36*
X7955511Y7671176D02*
X7954520D01*
X7953726Y7670978D01*
X7951544Y7670780D01*
X7948965Y7670185D01*
X7945989Y7669391D01*
X7942815Y7668002D01*
X7939840Y7666217D01*
X7936864Y7663638D01*
X7936467Y7663241D01*
X7935674Y7662250D01*
X7934484Y7660663D01*
X7933294Y7658480D01*
X7931905Y7655703D01*
X7930715Y7652529D01*
X7929921Y7648760D01*
X7929524Y7644793D01*
Y7644594D01*
Y7643602D01*
X7929723Y7642412D01*
X7929921Y7640627D01*
X7930318Y7638643D01*
X7930913Y7636263D01*
X7931707Y7633882D01*
X7932698Y7631502D01*
X7932897Y7631303D01*
X7933294Y7630510D01*
X7934087Y7629320D01*
X7935079Y7627931D01*
X7936467Y7626344D01*
X7938054Y7624559D01*
X7940038Y7622972D01*
X7942220Y7621583D01*
X7942617Y7621385D01*
X7943411Y7620988D01*
X7944601Y7620591D01*
X7946386Y7619996D01*
X7948568Y7619202D01*
X7950750Y7618806D01*
X7953329Y7618409D01*
X7956107Y7618211D01*
X7957297D01*
X7958090Y7618409D01*
X7960074Y7618607D01*
X7962851Y7619202D01*
X7965827Y7619996D01*
X7969001Y7621385D01*
X7971976Y7623170D01*
X7974952Y7625550D01*
X7975349Y7625947D01*
X7976142Y7626939D01*
X7977333Y7628526D01*
X7978721Y7630708D01*
X7980110Y7633287D01*
X7981300Y7636659D01*
X7982094Y7640230D01*
X7982490Y7644396D01*
Y7644594D01*
Y7644991D01*
Y7645586D01*
X7982292Y7646380D01*
X7982094Y7648363D01*
X7981498Y7651141D01*
X7980705Y7654116D01*
X7979316Y7657290D01*
X7977333Y7660464D01*
X7974754Y7663440D01*
X7974357Y7663837D01*
X7973365Y7664630D01*
X7971778Y7665820D01*
X7969596Y7667407D01*
X7966819Y7668796D01*
X7963446Y7669986D01*
X7959677Y7670780D01*
X7955511Y7671176D01*
D02*
G37*
G36*
X7956107Y7458236D02*
X7955115D01*
X7954321Y7458037D01*
X7952337Y7457839D01*
X7949759Y7457244D01*
X7946783Y7456054D01*
X7943807Y7454467D01*
X7940633Y7452483D01*
X7939046Y7451094D01*
X7937459Y7449507D01*
X7937063Y7449111D01*
X7936269Y7447920D01*
X7935079Y7445937D01*
X7933690Y7443358D01*
X7932103Y7440184D01*
X7930913Y7436216D01*
X7930120Y7431852D01*
X7929723Y7426893D01*
Y7426694D01*
Y7426298D01*
Y7425702D01*
X7929921Y7424909D01*
X7930120Y7422528D01*
X7930715Y7419751D01*
X7931508Y7416379D01*
X7932897Y7413007D01*
X7934682Y7409833D01*
X7937063Y7406659D01*
X7937459Y7406262D01*
X7938451Y7405468D01*
X7940038Y7404278D01*
X7942220Y7402889D01*
X7944998Y7401302D01*
X7948172Y7400112D01*
X7951742Y7399319D01*
X7955710Y7398922D01*
X7956702D01*
X7957495Y7399120D01*
X7959479Y7399319D01*
X7962058Y7399914D01*
X7964835Y7400906D01*
X7968009Y7402096D01*
X7970985Y7404080D01*
X7973762Y7406659D01*
X7974159Y7407055D01*
X7974952Y7408047D01*
X7976142Y7409833D01*
X7977531Y7412213D01*
X7978721Y7415387D01*
X7979911Y7418958D01*
X7980705Y7423322D01*
X7981102Y7428083D01*
Y7428281D01*
Y7428678D01*
Y7429472D01*
X7980903Y7430463D01*
Y7431654D01*
X7980705Y7432844D01*
X7980110Y7436018D01*
X7979316Y7439589D01*
X7977928Y7443159D01*
X7976142Y7446730D01*
X7973762Y7450102D01*
X7973365Y7450499D01*
X7972373Y7451293D01*
X7970985Y7452681D01*
X7968802Y7454268D01*
X7966224Y7455657D01*
X7963248Y7457046D01*
X7959876Y7457839D01*
X7956107Y7458236D01*
D02*
G37*
G36*
X14647224Y10480836D02*
X14646233D01*
X14645441Y10480637D01*
X14643456Y10480439D01*
X14640877Y10479646D01*
X14638100Y10478455D01*
X14635124Y10476868D01*
X14632149Y10474488D01*
X14630760Y10472901D01*
X14629570Y10471314D01*
Y10471115D01*
X14629173Y10470719D01*
X14628777Y10469925D01*
X14628380Y10468933D01*
X14627785Y10467545D01*
X14626991Y10465958D01*
X14626198Y10463776D01*
X14625603Y10461395D01*
X14624809Y10458618D01*
X14624014Y10455444D01*
X14623421Y10451873D01*
X14622627Y10447707D01*
X14622231Y10443343D01*
X14621832Y10438582D01*
X14621437Y10433226D01*
Y10427473D01*
Y10427076D01*
Y10426085D01*
Y10424498D01*
X14621635Y10422315D01*
Y10419737D01*
X14621832Y10416761D01*
X14622032Y10413389D01*
X14622427Y10410016D01*
X14623222Y10402875D01*
X14624611Y10395733D01*
X14625404Y10392559D01*
X14626396Y10389584D01*
X14627586Y10386807D01*
X14628777Y10384624D01*
Y10384426D01*
X14629173Y10384228D01*
X14630165Y10383037D01*
X14631752Y10381252D01*
X14633934Y10379467D01*
X14636711Y10377483D01*
X14639885Y10375698D01*
X14643456Y10374507D01*
X14645441Y10374309D01*
X14647424Y10374111D01*
X14648415D01*
X14649210Y10374309D01*
X14651193Y10374706D01*
X14653772Y10375499D01*
X14656747Y10376689D01*
X14659723Y10378475D01*
X14661310Y10379665D01*
X14662897Y10381252D01*
X14664484Y10382839D01*
X14665872Y10384624D01*
Y10384823D01*
X14666269Y10385220D01*
X14666666Y10385815D01*
X14667062Y10386807D01*
X14667657Y10387997D01*
X14668253Y10389782D01*
X14668848Y10391766D01*
X14669641Y10393948D01*
X14670435Y10396725D01*
X14671030Y10399701D01*
X14671625Y10403272D01*
X14672220Y10407239D01*
X14672815Y10411603D01*
X14673013Y10416364D01*
X14673412Y10421720D01*
Y10427473D01*
Y10427870D01*
Y10428862D01*
Y10430449D01*
X14673212Y10432631D01*
Y10435210D01*
X14673013Y10438185D01*
X14672815Y10441359D01*
X14672420Y10444930D01*
X14671625Y10452072D01*
X14670238Y10459015D01*
X14669443Y10462387D01*
X14668451Y10465363D01*
X14667261Y10467941D01*
X14665872Y10470124D01*
Y10470322D01*
X14665475Y10470520D01*
X14664484Y10471711D01*
X14662897Y10473496D01*
X14660715Y10475480D01*
X14657938Y10477463D01*
X14654762Y10479249D01*
X14651193Y10480439D01*
X14649210Y10480637D01*
X14647224Y10480836D01*
D02*
G37*
G36*
X14876450D02*
X14875456D01*
X14874663Y10480637D01*
X14872681Y10480439D01*
X14870100Y10479844D01*
X14867125Y10478654D01*
X14864149Y10477067D01*
X14860976Y10475083D01*
X14859389Y10473694D01*
X14857802Y10472107D01*
X14857405Y10471711D01*
X14856612Y10470520D01*
X14855421Y10468537D01*
X14854033Y10465958D01*
X14852446Y10462784D01*
X14851254Y10458816D01*
X14850462Y10454452D01*
X14850066Y10449493D01*
Y10449294D01*
Y10448898D01*
Y10448302D01*
X14850262Y10447509D01*
X14850462Y10445128D01*
X14851057Y10442351D01*
X14851849Y10438979D01*
X14853239Y10435607D01*
X14855025Y10432433D01*
X14857405Y10429259D01*
X14857802Y10428862D01*
X14858794Y10428068D01*
X14860381Y10426878D01*
X14862563Y10425489D01*
X14865340Y10423902D01*
X14868513Y10422712D01*
X14872086Y10421919D01*
X14876051Y10421522D01*
X14877045D01*
X14877837Y10421720D01*
X14879820Y10421919D01*
X14882401Y10422514D01*
X14885178Y10423506D01*
X14888351Y10424696D01*
X14891327Y10426680D01*
X14894104Y10429259D01*
X14894501Y10429655D01*
X14895294Y10430647D01*
X14896484Y10432433D01*
X14897873Y10434813D01*
X14899063Y10437987D01*
X14900253Y10441558D01*
X14901047Y10445922D01*
X14901443Y10450683D01*
Y10450881D01*
Y10451278D01*
Y10452072D01*
X14901247Y10453063D01*
Y10454254D01*
X14901047Y10455444D01*
X14900452Y10458618D01*
X14899660Y10462189D01*
X14898270Y10465759D01*
X14896484Y10469330D01*
X14894104Y10472702D01*
X14893707Y10473099D01*
X14892715Y10473893D01*
X14891327Y10475281D01*
X14889145Y10476868D01*
X14886566Y10478257D01*
X14883591Y10479646D01*
X14880219Y10480439D01*
X14876450Y10480836D01*
D02*
G37*
G36*
X15436636Y10433623D02*
X15435646D01*
X15434853Y10433424D01*
X15432867Y10433226D01*
X15430289Y10432631D01*
X15427512Y10431639D01*
X15424338Y10430250D01*
X15421362Y10428267D01*
X15418387Y10425688D01*
X15417990Y10425291D01*
X15417197Y10424299D01*
X15416006Y10422514D01*
X15414618Y10420332D01*
X15413229Y10417356D01*
X15412039Y10413785D01*
X15411246Y10409818D01*
X15410849Y10405255D01*
Y10404859D01*
Y10403867D01*
X15411047Y10402280D01*
X15411246Y10400296D01*
X15411642Y10397717D01*
X15412238Y10395138D01*
X15413031Y10392361D01*
X15414221Y10389385D01*
X15414420Y10388989D01*
X15414816Y10388195D01*
X15415610Y10386807D01*
X15416800Y10385220D01*
X15418188Y10383236D01*
X15419775Y10381450D01*
X15421759Y10379467D01*
X15423941Y10377880D01*
X15424139Y10377681D01*
X15425133Y10377285D01*
X15426321Y10376689D01*
X15427908Y10376094D01*
X15429893Y10375301D01*
X15432272Y10374706D01*
X15434654Y10374309D01*
X15437233Y10374111D01*
X15438223D01*
X15439018Y10374309D01*
X15440804Y10374507D01*
X15443382Y10375102D01*
X15445961Y10376094D01*
X15448936Y10377483D01*
X15451912Y10379467D01*
X15454689Y10382244D01*
X15455086Y10382641D01*
X15455881Y10383831D01*
X15457069Y10385616D01*
X15458459Y10387997D01*
X15459650Y10391171D01*
X15460838Y10395138D01*
X15461633Y10399502D01*
X15462029Y10404462D01*
Y10404660D01*
Y10405057D01*
Y10405850D01*
X15461832Y10406644D01*
Y10407834D01*
X15461633Y10409223D01*
X15461237Y10412198D01*
X15460245Y10415571D01*
X15459055Y10419141D01*
X15457268Y10422514D01*
X15454887Y10425688D01*
X15454491Y10426085D01*
X15453699Y10426878D01*
X15452110Y10428267D01*
X15449928Y10429655D01*
X15447350Y10431044D01*
X15444176Y10432433D01*
X15440605Y10433226D01*
X15436636Y10433623D01*
D02*
G37*
G36*
X12083015Y2343723D02*
X12082024D01*
X12081230Y2343524D01*
X12079246Y2343326D01*
X12076667Y2342731D01*
X12073890Y2341739D01*
X12070716Y2340350D01*
X12067741Y2338367D01*
X12064765Y2335788D01*
X12064368Y2335391D01*
X12063575Y2334399D01*
X12062385Y2332614D01*
X12060996Y2330432D01*
X12059607Y2327456D01*
X12058417Y2323885D01*
X12057624Y2319918D01*
X12057227Y2315355D01*
Y2314959D01*
Y2313967D01*
X12057425Y2312380D01*
X12057624Y2310396D01*
X12058020Y2307817D01*
X12058615Y2305238D01*
X12059409Y2302461D01*
X12060599Y2299485D01*
X12060798Y2299089D01*
X12061194Y2298295D01*
X12061988Y2296907D01*
X12063178Y2295320D01*
X12064567Y2293336D01*
X12066154Y2291550D01*
X12068137Y2289567D01*
X12070320Y2287980D01*
X12070518Y2287781D01*
X12071510Y2287385D01*
X12072700Y2286789D01*
X12074287Y2286194D01*
X12076271Y2285401D01*
X12078651Y2284806D01*
X12081032Y2284409D01*
X12083611Y2284211D01*
X12084602D01*
X12085396Y2284409D01*
X12087181Y2284607D01*
X12089760Y2285202D01*
X12092339Y2286194D01*
X12095315Y2287583D01*
X12098290Y2289567D01*
X12101067Y2292344D01*
X12101464Y2292741D01*
X12102258Y2293931D01*
X12103448Y2295716D01*
X12104837Y2298097D01*
X12106027Y2301271D01*
X12107217Y2305238D01*
X12108011Y2309602D01*
X12108407Y2314562D01*
Y2314760D01*
Y2315157D01*
Y2315950D01*
X12108209Y2316744D01*
Y2317934D01*
X12108011Y2319323D01*
X12107614Y2322298D01*
X12106622Y2325671D01*
X12105432Y2329241D01*
X12103646Y2332614D01*
X12101266Y2335788D01*
X12100869Y2336185D01*
X12100076Y2336978D01*
X12098489Y2338367D01*
X12096307Y2339755D01*
X12093728Y2341144D01*
X12090554Y2342533D01*
X12086983Y2343326D01*
X12083015Y2343723D01*
D02*
G37*
G36*
X12916252Y2364746D02*
X12875388Y2306424D01*
X12916252D01*
Y2364746D01*
D02*
G37*
G36*
X16122037Y5831846D02*
X16081172Y5773524D01*
X16122037D01*
Y5831846D01*
D02*
G37*
G36*
X11434749Y10521316D02*
X11433162D01*
X11431575Y10520920D01*
X11429393Y10520523D01*
X11427012Y10519928D01*
X11424433Y10518737D01*
X11421854Y10517349D01*
X11419474Y10515365D01*
X11419276Y10515167D01*
X11418482Y10514373D01*
X11417689Y10512985D01*
X11416498Y10511398D01*
X11415507Y10509414D01*
X11414515Y10506835D01*
X11413721Y10504256D01*
X11413523Y10501280D01*
Y10500884D01*
Y10499694D01*
X11413920Y10498107D01*
X11414316Y10495924D01*
X11414911Y10493544D01*
X11415903Y10491163D01*
X11417292Y10488585D01*
X11419276Y10486204D01*
X11419474Y10486006D01*
X11420267Y10485411D01*
X11421656Y10484419D01*
X11423441Y10483427D01*
X11425624Y10482237D01*
X11428401Y10481443D01*
X11431376Y10480650D01*
X11434749Y10480451D01*
X11436336D01*
X11437923Y10480848D01*
X11440105Y10481245D01*
X11442485Y10481840D01*
X11445064Y10482832D01*
X11447643Y10484220D01*
X11450024Y10486204D01*
X11450222Y10486402D01*
X11451015Y10487196D01*
X11452007Y10488386D01*
X11452999Y10490172D01*
X11454189Y10492155D01*
X11454983Y10494734D01*
X11455776Y10497511D01*
X11455975Y10500487D01*
Y10500685D01*
Y10500884D01*
Y10501876D01*
X11455578Y10503661D01*
X11455181Y10505645D01*
X11454388Y10507827D01*
X11453396Y10510406D01*
X11451809Y10512786D01*
X11449825Y10515167D01*
X11449627Y10515365D01*
X11448833Y10516159D01*
X11447445Y10517150D01*
X11445659Y10518341D01*
X11443477Y10519333D01*
X11440898Y10520324D01*
X11438121Y10521118D01*
X11434749Y10521316D01*
D02*
G37*
G36*
X11434352Y10467359D02*
X11433360D01*
X11432567Y10467160D01*
X11430385Y10466962D01*
X11427806Y10466367D01*
X11424830Y10465573D01*
X11421656Y10464185D01*
X11418680Y10462399D01*
X11415705Y10459820D01*
X11415308Y10459424D01*
X11414515Y10458432D01*
X11413324Y10456845D01*
X11412134Y10454663D01*
X11410746Y10451885D01*
X11409555Y10448711D01*
X11408762Y10444942D01*
X11408365Y10440975D01*
Y10440776D01*
Y10439785D01*
X11408563Y10438594D01*
X11408762Y10436809D01*
X11409159Y10434825D01*
X11409754Y10432445D01*
X11410547Y10430064D01*
X11411539Y10427684D01*
X11411737Y10427485D01*
X11412134Y10426692D01*
X11412928Y10425502D01*
X11413920Y10424113D01*
X11415308Y10422526D01*
X11416895Y10420741D01*
X11418879Y10419154D01*
X11421061Y10417765D01*
X11421458Y10417567D01*
X11422251Y10417170D01*
X11423441Y10416773D01*
X11425227Y10416178D01*
X11427409Y10415385D01*
X11429591Y10414988D01*
X11432170Y10414591D01*
X11434947Y10414393D01*
X11436137D01*
X11436931Y10414591D01*
X11438915Y10414789D01*
X11441692Y10415385D01*
X11444667Y10416178D01*
X11447841Y10417567D01*
X11450817Y10419352D01*
X11453793Y10421733D01*
X11454189Y10422129D01*
X11454983Y10423121D01*
X11456173Y10424708D01*
X11457562Y10426890D01*
X11458950Y10429469D01*
X11460141Y10432841D01*
X11460934Y10436412D01*
X11461331Y10440578D01*
Y10440776D01*
Y10441173D01*
Y10441768D01*
X11461133Y10442562D01*
X11460934Y10444546D01*
X11460339Y10447323D01*
X11459546Y10450298D01*
X11458157Y10453472D01*
X11456173Y10456646D01*
X11453594Y10459622D01*
X11453198Y10460019D01*
X11452206Y10460812D01*
X11450619Y10462002D01*
X11448437Y10463589D01*
X11445659Y10464978D01*
X11442287Y10466168D01*
X11438518Y10466962D01*
X11434352Y10467359D01*
D02*
G37*
G36*
X8066832Y4079246D02*
X8025967Y4020924D01*
X8066832D01*
Y4079246D01*
D02*
G37*
G36*
X7956305Y7140736D02*
X7955313D01*
X7954520Y7140537D01*
X7952536Y7140339D01*
X7949957Y7139546D01*
X7947180Y7138355D01*
X7944204Y7136768D01*
X7941228Y7134388D01*
X7939840Y7132801D01*
X7938650Y7131214D01*
Y7131015D01*
X7938253Y7130619D01*
X7937856Y7129825D01*
X7937459Y7128833D01*
X7936864Y7127445D01*
X7936071Y7125858D01*
X7935277Y7123676D01*
X7934682Y7121295D01*
X7933889Y7118518D01*
X7933095Y7115344D01*
X7932500Y7111773D01*
X7931707Y7107607D01*
X7931310Y7103243D01*
X7930913Y7098482D01*
X7930516Y7093126D01*
Y7087373D01*
Y7086976D01*
Y7085985D01*
Y7084398D01*
X7930715Y7082215D01*
Y7079637D01*
X7930913Y7076661D01*
X7931111Y7073289D01*
X7931508Y7069916D01*
X7932302Y7062775D01*
X7933690Y7055633D01*
X7934484Y7052459D01*
X7935476Y7049484D01*
X7936666Y7046707D01*
X7937856Y7044524D01*
Y7044326D01*
X7938253Y7044128D01*
X7939245Y7042937D01*
X7940832Y7041152D01*
X7943014Y7039367D01*
X7945791Y7037383D01*
X7948965Y7035598D01*
X7952536Y7034407D01*
X7954520Y7034209D01*
X7956503Y7034011D01*
X7957495D01*
X7958289Y7034209D01*
X7960272Y7034606D01*
X7962851Y7035399D01*
X7965827Y7036589D01*
X7968802Y7038375D01*
X7970389Y7039565D01*
X7971976Y7041152D01*
X7973563Y7042739D01*
X7974952Y7044524D01*
Y7044723D01*
X7975349Y7045120D01*
X7975746Y7045715D01*
X7976142Y7046707D01*
X7976737Y7047897D01*
X7977333Y7049682D01*
X7977928Y7051666D01*
X7978721Y7053848D01*
X7979515Y7056625D01*
X7980110Y7059601D01*
X7980705Y7063172D01*
X7981300Y7067139D01*
X7981895Y7071503D01*
X7982094Y7076264D01*
X7982490Y7081620D01*
Y7087373D01*
Y7087770D01*
Y7088762D01*
Y7090349D01*
X7982292Y7092531D01*
Y7095110D01*
X7982094Y7098085D01*
X7981895Y7101259D01*
X7981498Y7104830D01*
X7980705Y7111972D01*
X7979316Y7118915D01*
X7978523Y7122287D01*
X7977531Y7125263D01*
X7976341Y7127841D01*
X7974952Y7130024D01*
Y7130222D01*
X7974555Y7130420D01*
X7973563Y7131611D01*
X7971976Y7133396D01*
X7969794Y7135380D01*
X7967017Y7137363D01*
X7963843Y7139149D01*
X7960272Y7140339D01*
X7958289Y7140537D01*
X7956305Y7140736D01*
D02*
G37*
%LPD*%
D36*
X15455901Y11176000D02*
X15468600Y11163300D01*
Y10541000D02*
Y11163300D01*
X14465300Y10541000D02*
X15468600D01*
X14465300D02*
Y11176000D01*
X15455901D01*
X16878300Y4940300D02*
X16891000Y4953000D01*
X16256000Y4940300D02*
X16878300D01*
X16256000D02*
Y5943600D01*
X16891000D01*
Y4953000D02*
Y5943600D01*
X11899900Y2209800D02*
X12890500D01*
X11899900Y1574800D02*
Y2209800D01*
Y1574800D02*
X12903200D01*
Y2197100D01*
X12890500Y2209800D02*
X12903200Y2197100D01*
X7124700Y3975100D02*
Y4965700D01*
Y3975100D02*
X7759700D01*
Y4978400D01*
X7137400D02*
X7759700D01*
X7124700Y4965700D02*
X7137400Y4978400D01*
X7124700Y6997700D02*
Y7988300D01*
Y6997700D02*
X7759700D01*
Y8001000D01*
X7137400D02*
X7759700D01*
X7124700Y7988300D02*
X7137400Y8001000D01*
X11315700Y11264900D02*
X12306300D01*
X11315700Y10629900D02*
Y11264900D01*
Y10629900D02*
X12319000D01*
Y11252200D01*
X12306300Y11264900D02*
X12319000Y11252200D01*
X16116267Y9042351D02*
X16065483Y9016959D01*
X16014700Y8966175D01*
Y8915392D01*
X16040092Y8890000D01*
X16090875D01*
X16116267Y8915392D01*
Y8940783D01*
X16090875Y8966175D01*
X16014700D01*
X14420567Y5041900D02*
X14319000D01*
X14420567Y5143467D01*
Y5168859D01*
X14395175Y5194251D01*
X14344392D01*
X14319000Y5168859D01*
X6908841Y3619467D02*
X6883449Y3594075D01*
Y3543292D01*
X6908841Y3517900D01*
X7010408D01*
X7035800Y3543292D01*
Y3594075D01*
X7010408Y3619467D01*
X7035800Y3695643D02*
Y3746426D01*
X7010408Y3771818D01*
X6959625D01*
X6934233Y3746426D01*
Y3695643D01*
X6959625Y3670251D01*
X7010408D01*
X7035800Y3695643D01*
Y3822601D02*
X6934233D01*
Y3898777D01*
X6959625Y3924169D01*
X7035800D01*
Y3974952D02*
X6934233D01*
Y4051128D01*
X6959625Y4076519D01*
X7035800D01*
Y4203478D02*
Y4152695D01*
X7010408Y4127303D01*
X6959625D01*
X6934233Y4152695D01*
Y4203478D01*
X6959625Y4228870D01*
X6985017D01*
Y4127303D01*
X6934233Y4381221D02*
Y4305045D01*
X6959625Y4279654D01*
X7010408D01*
X7035800Y4305045D01*
Y4381221D01*
X6908841Y4457396D02*
X6934233D01*
Y4432004D01*
Y4482788D01*
Y4457396D01*
X7010408D01*
X7035800Y4482788D01*
Y4584355D02*
Y4635139D01*
X7010408Y4660530D01*
X6959625D01*
X6934233Y4635139D01*
Y4584355D01*
X6959625Y4558963D01*
X7010408D01*
X7035800Y4584355D01*
X6934233Y4711314D02*
X7035800D01*
X6985017D01*
X6959625Y4736706D01*
X6934233Y4762097D01*
Y4787489D01*
X6883449Y4965232D02*
X6908841Y4914448D01*
X6959625Y4863665D01*
X7010408D01*
X7035800Y4889057D01*
Y4939840D01*
X7010408Y4965232D01*
X6985017D01*
X6959625Y4939840D01*
Y4863665D01*
X6908841Y6642067D02*
X6883449Y6616675D01*
Y6565892D01*
X6908841Y6540500D01*
X7010408D01*
X7035800Y6565892D01*
Y6616675D01*
X7010408Y6642067D01*
X7035800Y6718243D02*
Y6769026D01*
X7010408Y6794418D01*
X6959625D01*
X6934233Y6769026D01*
Y6718243D01*
X6959625Y6692851D01*
X7010408D01*
X7035800Y6718243D01*
Y6845201D02*
X6934233D01*
Y6921377D01*
X6959625Y6946769D01*
X7035800D01*
Y6997552D02*
X6934233D01*
Y7073728D01*
X6959625Y7099119D01*
X7035800D01*
Y7226078D02*
Y7175295D01*
X7010408Y7149903D01*
X6959625D01*
X6934233Y7175295D01*
Y7226078D01*
X6959625Y7251470D01*
X6985017D01*
Y7149903D01*
X6934233Y7403821D02*
Y7327645D01*
X6959625Y7302254D01*
X7010408D01*
X7035800Y7327645D01*
Y7403821D01*
X6908841Y7479996D02*
X6934233D01*
Y7454604D01*
Y7505388D01*
Y7479996D01*
X7010408D01*
X7035800Y7505388D01*
Y7606955D02*
Y7657739D01*
X7010408Y7683130D01*
X6959625D01*
X6934233Y7657739D01*
Y7606955D01*
X6959625Y7581563D01*
X7010408D01*
X7035800Y7606955D01*
X6934233Y7733914D02*
X7035800D01*
X6985017D01*
X6959625Y7759306D01*
X6934233Y7784697D01*
Y7810089D01*
X6883449Y7987832D02*
Y7886265D01*
X6959625D01*
X6934233Y7937048D01*
Y7962440D01*
X6959625Y7987832D01*
X7010408D01*
X7035800Y7962440D01*
Y7911657D01*
X7010408Y7886265D01*
X11798267Y1523959D02*
X11772875Y1549351D01*
X11722092D01*
X11696700Y1523959D01*
Y1422392D01*
X11722092Y1397000D01*
X11772875D01*
X11798267Y1422392D01*
X11874443Y1397000D02*
X11925226D01*
X11950618Y1422392D01*
Y1473175D01*
X11925226Y1498567D01*
X11874443D01*
X11849051Y1473175D01*
Y1422392D01*
X11874443Y1397000D01*
X12001401D02*
Y1498567D01*
X12077577D01*
X12102969Y1473175D01*
Y1397000D01*
X12153752D02*
Y1498567D01*
X12229928D01*
X12255319Y1473175D01*
Y1397000D01*
X12382278D02*
X12331495D01*
X12306103Y1422392D01*
Y1473175D01*
X12331495Y1498567D01*
X12382278D01*
X12407670Y1473175D01*
Y1447783D01*
X12306103D01*
X12560021Y1498567D02*
X12483845D01*
X12458454Y1473175D01*
Y1422392D01*
X12483845Y1397000D01*
X12560021D01*
X12636196Y1523959D02*
Y1498567D01*
X12610804D01*
X12661588D01*
X12636196D01*
Y1422392D01*
X12661588Y1397000D01*
X12763155D02*
X12813939D01*
X12839330Y1422392D01*
Y1473175D01*
X12813939Y1498567D01*
X12763155D01*
X12737763Y1473175D01*
Y1422392D01*
X12763155Y1397000D01*
X12890114Y1498567D02*
Y1397000D01*
Y1447783D01*
X12915506Y1473175D01*
X12940897Y1498567D01*
X12966289D01*
X13118640Y1397000D02*
Y1549351D01*
X13042465Y1473175D01*
X13144032D01*
X9486867Y3263900D02*
X9385300D01*
X9486867Y3365467D01*
Y3390859D01*
X9461475Y3416251D01*
X9410692D01*
X9385300Y3390859D01*
X9613826Y3263900D02*
Y3416251D01*
X9537651Y3340075D01*
X9639218D01*
X9480267Y4013200D02*
X9378700D01*
X9480267Y4114767D01*
Y4140159D01*
X9454875Y4165551D01*
X9404092D01*
X9378700Y4140159D01*
X9531051D02*
X9556443Y4165551D01*
X9607226D01*
X9632618Y4140159D01*
Y4114767D01*
X9607226Y4089375D01*
X9581834D01*
X9607226D01*
X9632618Y4063983D01*
Y4038592D01*
X9607226Y4013200D01*
X9556443D01*
X9531051Y4038592D01*
X9461467Y4787900D02*
X9359900D01*
X9461467Y4889467D01*
Y4914859D01*
X9436075Y4940251D01*
X9385292D01*
X9359900Y4914859D01*
X9613818Y4787900D02*
X9512251D01*
X9613818Y4889467D01*
Y4914859D01*
X9588426Y4940251D01*
X9537643D01*
X9512251Y4914859D01*
X9524967Y5638800D02*
X9423400D01*
X9524967Y5740367D01*
Y5765759D01*
X9499575Y5791151D01*
X9448792D01*
X9423400Y5765759D01*
X9575751Y5638800D02*
X9626534D01*
X9601143D01*
Y5791151D01*
X9575751Y5765759D01*
X9499567Y6451600D02*
X9398000D01*
X9499567Y6553167D01*
Y6578559D01*
X9474175Y6603951D01*
X9423392D01*
X9398000Y6578559D01*
X9550351D02*
X9575743Y6603951D01*
X9626526D01*
X9651918Y6578559D01*
Y6476992D01*
X9626526Y6451600D01*
X9575743D01*
X9550351Y6476992D01*
Y6578559D01*
X9398000Y7315200D02*
X9448783D01*
X9423392D01*
Y7467551D01*
X9398000Y7442159D01*
X9524959Y7340592D02*
X9550351Y7315200D01*
X9601134D01*
X9626526Y7340592D01*
Y7442159D01*
X9601134Y7467551D01*
X9550351D01*
X9524959Y7442159D01*
Y7416767D01*
X9550351Y7391375D01*
X9626526D01*
X9436100Y8089900D02*
X9486883D01*
X9461492D01*
Y8242251D01*
X9436100Y8216859D01*
X9563059D02*
X9588451Y8242251D01*
X9639234D01*
X9664626Y8216859D01*
Y8191467D01*
X9639234Y8166075D01*
X9664626Y8140683D01*
Y8115292D01*
X9639234Y8089900D01*
X9588451D01*
X9563059Y8115292D01*
Y8140683D01*
X9588451Y8166075D01*
X9563059Y8191467D01*
Y8216859D01*
X9588451Y8166075D02*
X9639234D01*
X9436100Y9042400D02*
X9486883D01*
X9461492D01*
Y9194751D01*
X9436100Y9169359D01*
X9563059Y9194751D02*
X9664626D01*
Y9169359D01*
X9563059Y9067792D01*
Y9042400D01*
X11061700Y4095500D02*
X11112483D01*
X11087092D01*
Y4247851D01*
X11061700Y4222459D01*
X11290226Y4247851D02*
X11239442Y4222459D01*
X11188659Y4171675D01*
Y4120892D01*
X11214051Y4095500D01*
X11264834D01*
X11290226Y4120892D01*
Y4146284D01*
X11264834Y4171675D01*
X11188659D01*
X11823700Y4089400D02*
X11874483D01*
X11849092D01*
Y4241751D01*
X11823700Y4216359D01*
X12052226Y4241751D02*
X11950659D01*
Y4165575D01*
X12001442Y4190967D01*
X12026834D01*
X12052226Y4165575D01*
Y4114792D01*
X12026834Y4089400D01*
X11976051D01*
X11950659Y4114792D01*
X13423900Y4038600D02*
X13474683D01*
X13449292D01*
Y4190951D01*
X13423900Y4165559D01*
X13627034Y4038600D02*
Y4190951D01*
X13550859Y4114775D01*
X13652426D01*
X12623800Y4038600D02*
X12674583D01*
X12649192D01*
Y4190951D01*
X12623800Y4165559D01*
X12750759D02*
X12776151Y4190951D01*
X12826933D01*
X12852325Y4165559D01*
Y4140167D01*
X12826933Y4114775D01*
X12801543D01*
X12826933D01*
X12852325Y4089383D01*
Y4063992D01*
X12826933Y4038600D01*
X12776151D01*
X12750759Y4063992D01*
X14579567Y11391859D02*
X14554175Y11417251D01*
X14503392D01*
X14478000Y11391859D01*
Y11290292D01*
X14503392Y11264900D01*
X14554175D01*
X14579567Y11290292D01*
X14655743Y11264900D02*
X14706526D01*
X14731918Y11290292D01*
Y11341075D01*
X14706526Y11366467D01*
X14655743D01*
X14630351Y11341075D01*
Y11290292D01*
X14655743Y11264900D01*
X14782701D02*
Y11366467D01*
X14858878D01*
X14884270Y11341075D01*
Y11264900D01*
X14935052D02*
Y11366467D01*
X15011227D01*
X15036620Y11341075D01*
Y11264900D01*
X15163577D02*
X15112794D01*
X15087402Y11290292D01*
Y11341075D01*
X15112794Y11366467D01*
X15163577D01*
X15188969Y11341075D01*
Y11315683D01*
X15087402D01*
X15341321Y11366467D02*
X15265144D01*
X15239754Y11341075D01*
Y11290292D01*
X15265144Y11264900D01*
X15341321D01*
X15417496Y11391859D02*
Y11366467D01*
X15392104D01*
X15442888D01*
X15417496D01*
Y11290292D01*
X15442888Y11264900D01*
X15544455D02*
X15595239D01*
X15620630Y11290292D01*
Y11341075D01*
X15595239Y11366467D01*
X15544455D01*
X15519063Y11341075D01*
Y11290292D01*
X15544455Y11264900D01*
X15671414Y11366467D02*
Y11264900D01*
Y11315683D01*
X15696806Y11341075D01*
X15722197Y11366467D01*
X15747589D01*
X15823766Y11391859D02*
X15849158Y11417251D01*
X15899940D01*
X15925333Y11391859D01*
Y11366467D01*
X15899940Y11341075D01*
X15874548D01*
X15899940D01*
X15925333Y11315683D01*
Y11290292D01*
X15899940Y11264900D01*
X15849158D01*
X15823766Y11290292D01*
X11429967Y11480759D02*
X11404575Y11506151D01*
X11353792D01*
X11328400Y11480759D01*
Y11379192D01*
X11353792Y11353800D01*
X11404575D01*
X11429967Y11379192D01*
X11506143Y11353800D02*
X11556926D01*
X11582318Y11379192D01*
Y11429975D01*
X11556926Y11455367D01*
X11506143D01*
X11480751Y11429975D01*
Y11379192D01*
X11506143Y11353800D01*
X11633101D02*
Y11455367D01*
X11709277D01*
X11734669Y11429975D01*
Y11353800D01*
X11785452D02*
Y11455367D01*
X11861628D01*
X11887019Y11429975D01*
Y11353800D01*
X12013978D02*
X11963195D01*
X11937803Y11379192D01*
Y11429975D01*
X11963195Y11455367D01*
X12013978D01*
X12039370Y11429975D01*
Y11404583D01*
X11937803D01*
X12191721Y11455367D02*
X12115545D01*
X12090154Y11429975D01*
Y11379192D01*
X12115545Y11353800D01*
X12191721D01*
X12267896Y11480759D02*
Y11455367D01*
X12242504D01*
X12293288D01*
X12267896D01*
Y11379192D01*
X12293288Y11353800D01*
X12394855D02*
X12445639D01*
X12471030Y11379192D01*
Y11429975D01*
X12445639Y11455367D01*
X12394855D01*
X12369463Y11429975D01*
Y11379192D01*
X12394855Y11353800D01*
X12521814Y11455367D02*
Y11353800D01*
Y11404583D01*
X12547206Y11429975D01*
X12572597Y11455367D01*
X12597989D01*
X12775732Y11353800D02*
X12674165D01*
X12775732Y11455367D01*
Y11480759D01*
X12750340Y11506151D01*
X12699557D01*
X12674165Y11480759D01*
X16929141Y4864067D02*
X16903749Y4838675D01*
Y4787892D01*
X16929141Y4762500D01*
X17030708D01*
X17056100Y4787892D01*
Y4838675D01*
X17030708Y4864067D01*
X17056100Y4940243D02*
Y4991026D01*
X17030708Y5016418D01*
X16979926D01*
X16954533Y4991026D01*
Y4940243D01*
X16979926Y4914851D01*
X17030708D01*
X17056100Y4940243D01*
Y5067201D02*
X16954533D01*
Y5143377D01*
X16979926Y5168769D01*
X17056100D01*
Y5219552D02*
X16954533D01*
Y5295728D01*
X16979926Y5321119D01*
X17056100D01*
Y5448078D02*
Y5397295D01*
X17030708Y5371903D01*
X16979926D01*
X16954533Y5397295D01*
Y5448078D01*
X16979926Y5473470D01*
X17005318D01*
Y5371903D01*
X16954533Y5625821D02*
Y5549645D01*
X16979926Y5524254D01*
X17030708D01*
X17056100Y5549645D01*
Y5625821D01*
X16929141Y5701996D02*
X16954533D01*
Y5676604D01*
Y5727388D01*
Y5701996D01*
X17030708D01*
X17056100Y5727388D01*
Y5828955D02*
Y5879739D01*
X17030708Y5905130D01*
X16979926D01*
X16954533Y5879739D01*
Y5828955D01*
X16979926Y5803563D01*
X17030708D01*
X17056100Y5828955D01*
X16954533Y5955914D02*
X17056100D01*
X17005318D01*
X16979926Y5981306D01*
X16954533Y6006697D01*
Y6032089D01*
X17056100Y6108265D02*
Y6159048D01*
Y6133657D01*
X16903749D01*
X16929141Y6108265D01*
X11811000Y8890000D02*
X11861783D01*
X11836392D01*
Y9042351D01*
X11811000Y9016959D01*
X12039526Y8890000D02*
X11937959D01*
X12039526Y8991567D01*
Y9016959D01*
X12014134Y9042351D01*
X11963351D01*
X11937959Y9016959D01*
X12649200Y8864600D02*
X12699983D01*
X12674592D01*
Y9016951D01*
X12649200Y8991559D01*
X12776159Y8864600D02*
X12826942D01*
X12801550D01*
Y9016951D01*
X12776159Y8991559D01*
X13500101Y8877300D02*
X13550883D01*
X13525491D01*
Y9029651D01*
X13500101Y9004259D01*
X13627058D02*
X13652451Y9029651D01*
X13703233D01*
X13728625Y9004259D01*
Y8902692D01*
X13703233Y8877300D01*
X13652451D01*
X13627058Y8902692D01*
Y9004259D01*
X14414500Y8928092D02*
X14439893Y8902700D01*
X14490675D01*
X14516068Y8928092D01*
Y9029659D01*
X14490675Y9055051D01*
X14439893D01*
X14414500Y9029659D01*
Y9004267D01*
X14439893Y8978875D01*
X14516068D01*
X10261600Y8966159D02*
X10286992Y8991551D01*
X10337775D01*
X10363167Y8966159D01*
Y8940767D01*
X10337775Y8915375D01*
X10363167Y8889983D01*
Y8864592D01*
X10337775Y8839200D01*
X10286992D01*
X10261600Y8864592D01*
Y8889983D01*
X10286992Y8915375D01*
X10261600Y8940767D01*
Y8966159D01*
X10286992Y8915375D02*
X10337775D01*
X11049000Y9029651D02*
X11150567D01*
Y9004259D01*
X11049000Y8902692D01*
Y8877300D01*
X15290767Y9042351D02*
X15189200D01*
Y8966175D01*
X15239983Y8991567D01*
X15265375D01*
X15290767Y8966175D01*
Y8915392D01*
X15265375Y8890000D01*
X15214592D01*
X15189200Y8915392D01*
X14389075Y6273800D02*
Y6426151D01*
X14312900Y6349975D01*
X14414467D01*
X14312900Y5803859D02*
X14338292Y5829251D01*
X14389075D01*
X14414467Y5803859D01*
Y5778467D01*
X14389075Y5753075D01*
X14363683D01*
X14389075D01*
X14414467Y5727683D01*
Y5702292D01*
X14389075Y5676900D01*
X14338292D01*
X14312900Y5702292D01*
X14369800Y4368800D02*
X14420584D01*
X14395192D01*
Y4521151D01*
X14369800Y4495759D01*
D37*
X16205200Y8943850D02*
G03*
X16205200Y9007350I0J31750D01*
G01*
X14811250Y6654800D02*
G03*
X14874750Y6654800I31750J0D01*
G01*
X14811250Y5321300D02*
G03*
X14874750Y5321300I31750J0D01*
G01*
X14811250Y4660900D02*
G03*
X14874750Y4660900I31750J0D01*
G01*
X13792200Y3647950D02*
G03*
X13792200Y3584450I0J-31750D01*
G01*
X13030200Y3647950D02*
G03*
X13030200Y3584450I0J-31750D01*
G01*
X12242800Y3647950D02*
G03*
X12242800Y3584450I0J-31750D01*
G01*
X11493500Y3647950D02*
G03*
X11493500Y3584450I0J-31750D01*
G01*
X9540750Y2705100D02*
G03*
X9477250Y2705100I-31750J0D01*
G01*
X9540750Y3479800D02*
G03*
X9477250Y3479800I-31750J0D01*
G01*
X9540750Y4241800D02*
G03*
X9477250Y4241800I-31750J0D01*
G01*
X9540750Y5054600D02*
G03*
X9477250Y5054600I-31750J0D01*
G01*
X9540750Y5892800D02*
G03*
X9477250Y5892800I-31750J0D01*
G01*
X9540750Y6743700D02*
G03*
X9477250Y6743700I-31750J0D01*
G01*
X9540750Y7518400D02*
G03*
X9477250Y7518400I-31750J0D01*
G01*
X9540750Y8445500D02*
G03*
X9477250Y8445500I-31750J0D01*
G01*
X12077700Y8943850D02*
G03*
X12077700Y9007350I0J31750D01*
G01*
X12877800Y8943850D02*
G03*
X12877800Y9007350I0J31750D01*
G01*
X13817599Y8943850D02*
G03*
X13817599Y9007350I0J31750D01*
G01*
X14566901Y8943850D02*
G03*
X14566901Y9007350I0J31750D01*
G01*
X10414000Y8943850D02*
G03*
X10414000Y9007350I0J31750D01*
G01*
X11226800Y8943850D02*
G03*
X11226800Y9007350I0J31750D01*
G01*
X15405099Y8943850D02*
G03*
X15405099Y9007350I0J31750D01*
G01*
X14811250Y6032500D02*
G03*
X14874750Y6032500I31750J0D01*
G01*
X14097000Y9664700D02*
Y9918700D01*
X13893800D02*
X14097000D01*
X13893800Y9664700D02*
Y9918700D01*
Y9664700D02*
X14097000D01*
X11239500Y2717800D02*
Y2971800D01*
Y2717800D02*
X11442700D01*
Y2971800D01*
X11239500D02*
X11442700D01*
X15125700Y9639300D02*
Y9893300D01*
X14922501D02*
X15125700D01*
X14922501Y9639300D02*
Y9893300D01*
Y9639300D02*
X15125700D01*
X13436600Y9664700D02*
Y9918700D01*
X13233400D02*
X13436600D01*
X13233400Y9664700D02*
Y9918700D01*
Y9664700D02*
X13436600D01*
X12649200Y9639300D02*
Y9893300D01*
X12446000D02*
X12649200D01*
X12446000Y9639300D02*
Y9893300D01*
Y9639300D02*
X12649200D01*
X13157201Y9677400D02*
Y9931400D01*
X12953999D02*
X13157201D01*
X12953999Y9677400D02*
Y9931400D01*
Y9677400D02*
X13157201D01*
X10693400D02*
Y9931400D01*
X10490200D02*
X10693400D01*
X10490200Y9677400D02*
Y9931400D01*
Y9677400D02*
X10693400D01*
X11811000Y9664700D02*
Y9918700D01*
X11607800D02*
X11811000D01*
X11607800Y9664700D02*
Y9918700D01*
Y9664700D02*
X11811000D01*
X11506200D02*
Y9918700D01*
X11303000D02*
X11506200D01*
X11303000Y9664700D02*
Y9918700D01*
Y9664700D02*
X11506200D01*
X12357100Y9639300D02*
Y9893300D01*
X12153900D02*
X12357100D01*
X12153900Y9639300D02*
Y9893300D01*
Y9639300D02*
X12357100D01*
X16776700Y9626600D02*
Y9880600D01*
X16573500D02*
X16776700D01*
X16573500Y9626600D02*
Y9880600D01*
Y9626600D02*
X16776700D01*
X10985500Y9690100D02*
Y9944100D01*
X10782300D02*
X10985500D01*
X10782300Y9690100D02*
Y9944100D01*
Y9690100D02*
X10985500D01*
X15519400Y6070600D02*
X15773399D01*
Y6273800D01*
X15519400D02*
X15773399D01*
X15519400Y6070600D02*
Y6273800D01*
X16484599Y9613900D02*
Y9867900D01*
X16281400D02*
X16484599D01*
X16281400Y9613900D02*
Y9867900D01*
Y9613900D02*
X16484599D01*
X15522900Y6362700D02*
X15776900D01*
Y6565900D01*
X15522900D02*
X15776900D01*
X15522900Y6362700D02*
Y6565900D01*
X8512500Y2997200D02*
X8766500D01*
X8512500Y2794000D02*
Y2997200D01*
Y2794000D02*
X8766500D01*
Y2997200D01*
X15515900Y5473700D02*
X15769901D01*
Y5676900D01*
X15515900D02*
X15769901D01*
X15515900Y5473700D02*
Y5676900D01*
X15506700Y5753100D02*
X15760699D01*
Y5956300D01*
X15506700D02*
X15760699D01*
X15506700Y5753100D02*
Y5956300D01*
X14833600Y9639300D02*
Y9893300D01*
X14630400D02*
X14833600D01*
X14630400Y9639300D02*
Y9893300D01*
Y9639300D02*
X14833600D01*
X14363699Y9652000D02*
Y9906000D01*
X14160500D02*
X14363699D01*
X14160500Y9652000D02*
Y9906000D01*
Y9652000D02*
X14363699D01*
X15519400Y4775200D02*
X15773399D01*
Y4978400D01*
X15519400D02*
X15773399D01*
X15519400Y4775200D02*
Y4978400D01*
X15515900Y5054600D02*
X15769901D01*
Y5257800D01*
X15515900D02*
X15769901D01*
X15515900Y5054600D02*
Y5257800D01*
X15646400Y9626600D02*
Y9880600D01*
X15443201D02*
X15646400D01*
X15443201Y9626600D02*
Y9880600D01*
Y9626600D02*
X15646400D01*
X15938499D02*
Y9880600D01*
X15735300D02*
X15938499D01*
X15735300Y9626600D02*
Y9880600D01*
Y9626600D02*
X15938499D01*
X8505500Y4775200D02*
X8759500D01*
X8505500Y4572000D02*
Y4775200D01*
Y4572000D02*
X8759500D01*
Y4775200D01*
X8530900Y5334000D02*
X8784900D01*
X8530900Y5130800D02*
Y5334000D01*
Y5130800D02*
X8784900D01*
Y5334000D01*
X8530900Y5588000D02*
X8784900D01*
X8530900Y5384800D02*
Y5588000D01*
Y5384800D02*
X8784900D01*
Y5588000D01*
X10922000Y2730500D02*
Y2984500D01*
Y2730500D02*
X11125200D01*
Y2984500D01*
X10922000D02*
X11125200D01*
X8527400Y3771900D02*
X8781400D01*
X8527400Y3568700D02*
Y3771900D01*
Y3568700D02*
X8781400D01*
Y3771900D01*
X8514700Y4521200D02*
X8768700D01*
X8514700Y4318000D02*
Y4521200D01*
Y4318000D02*
X8768700D01*
Y4521200D01*
X8547100Y6172200D02*
X8801100D01*
X8547100Y5969000D02*
Y6172200D01*
Y5969000D02*
X8801100D01*
Y6172200D01*
X8534400Y7289800D02*
X8788400D01*
X8534400Y7086600D02*
Y7289800D01*
Y7086600D02*
X8788400D01*
Y7289800D01*
X8534400Y8026400D02*
X8788400D01*
X8534400Y7823200D02*
Y8026400D01*
Y7823200D02*
X8788400D01*
Y8026400D01*
X8512500Y3263900D02*
X8766500D01*
X8512500Y3060700D02*
Y3263900D01*
Y3060700D02*
X8766500D01*
Y3263900D01*
X8530900Y4051300D02*
X8784900D01*
X8530900Y3848100D02*
Y4051300D01*
Y3848100D02*
X8784900D01*
Y4051300D01*
X8547100Y6438900D02*
X8801100D01*
X8547100Y6235700D02*
Y6438900D01*
Y6235700D02*
X8801100D01*
Y6438900D01*
X8534400Y7023100D02*
X8788400D01*
X8534400Y6819900D02*
Y7023100D01*
Y6819900D02*
X8788400D01*
Y7023100D01*
X8534400Y7797800D02*
X8788400D01*
X8534400Y7594600D02*
Y7797800D01*
Y7594600D02*
X8788400D01*
Y7797800D01*
X8525200Y8724900D02*
X8779200D01*
X8525200Y8521700D02*
Y8724900D01*
Y8521700D02*
X8779200D01*
Y8724900D01*
X8525200Y8991600D02*
X8779200D01*
X8525200Y8788400D02*
Y8991600D01*
Y8788400D02*
X8779200D01*
Y8991600D01*
X15519400Y4426600D02*
X15773399D01*
Y4629800D01*
X15519400D02*
X15773399D01*
X15519400Y4426600D02*
Y4629800D01*
X11709400Y2734000D02*
Y2988000D01*
Y2734000D02*
X11912600D01*
Y2988000D01*
X11709400D02*
X11912600D01*
X12471400Y2759400D02*
Y3013400D01*
Y2759400D02*
X12674600D01*
Y3013400D01*
X12471400D02*
X12674600D01*
X13233400Y2730500D02*
Y2984500D01*
Y2730500D02*
X13436600D01*
Y2984500D01*
X13233400D02*
X13436600D01*
X15519400Y4127500D02*
X15773399D01*
Y4330700D01*
X15519400D02*
X15773399D01*
X15519400Y4127500D02*
Y4330700D01*
X12026900Y2734000D02*
Y2988000D01*
Y2734000D02*
X12230100D01*
Y2988000D01*
X12026900D02*
X12230100D01*
X12801601Y2755900D02*
Y3009900D01*
Y2755900D02*
X13004800D01*
Y3009900D01*
X12801601D02*
X13004800D01*
X13512801Y2746700D02*
Y3000700D01*
Y2746700D02*
X13716000D01*
Y3000700D01*
X13512801D02*
X13716000D01*
X16205200Y8866600D02*
Y8943850D01*
Y9007350D02*
Y9084600D01*
X16713200D01*
Y8866600D02*
Y9084600D01*
X16205200Y8866600D02*
X16713200D01*
X14734000Y6654800D02*
X14811250D01*
X14874750D02*
X14952000D01*
Y6146800D02*
Y6654800D01*
X14734000Y6146800D02*
X14952000D01*
X14734000D02*
Y6654800D01*
Y5321300D02*
X14811250D01*
X14874750D02*
X14952000D01*
Y4813300D02*
Y5321300D01*
X14734000Y4813300D02*
X14952000D01*
X14734000D02*
Y5321300D01*
Y4660900D02*
X14811250D01*
X14874750D02*
X14952000D01*
Y4152900D02*
Y4660900D01*
X14734000Y4152900D02*
X14952000D01*
X14734000D02*
Y4660900D01*
X13792200Y3647950D02*
Y3725200D01*
Y3507200D02*
Y3584450D01*
X13284200Y3507200D02*
X13792200D01*
X13284200D02*
Y3725200D01*
X13792200D01*
X13030200Y3647950D02*
Y3725200D01*
Y3507200D02*
Y3584450D01*
X12522200Y3507200D02*
X13030200D01*
X12522200D02*
Y3725200D01*
X13030200D01*
X12242800Y3647950D02*
Y3725200D01*
Y3507200D02*
Y3584450D01*
X11734800Y3507200D02*
X12242800D01*
X11734800D02*
Y3725200D01*
X12242800D01*
X11493500Y3647950D02*
Y3725200D01*
Y3507200D02*
Y3584450D01*
X10985500Y3507200D02*
X11493500D01*
X10985500D02*
Y3725200D01*
X11493500D01*
X12415353Y7102323D02*
X12600615D01*
X13097710Y6605229D01*
X12507984Y6015503D02*
X13097710Y6605229D01*
X11918258D02*
X12507984Y6015503D01*
X11918258Y6605229D02*
X12415353Y7102323D01*
X9540750Y2705100D02*
X9618000D01*
X9400000D02*
X9477250D01*
X9400000D02*
Y3213100D01*
X9618000D01*
Y2705100D02*
Y3213100D01*
X9540750Y3479800D02*
X9618000D01*
X9400000D02*
X9477250D01*
X9400000D02*
Y3987800D01*
X9618000D01*
Y3479800D02*
Y3987800D01*
X9540750Y4241800D02*
X9618000D01*
X9400000D02*
X9477250D01*
X9400000D02*
Y4749800D01*
X9618000D01*
Y4241800D02*
Y4749800D01*
X9540750Y5054600D02*
X9618000D01*
X9400000D02*
X9477250D01*
X9400000D02*
Y5562600D01*
X9618000D01*
Y5054600D02*
Y5562600D01*
X9540750Y5892800D02*
X9618000D01*
X9400000D02*
X9477250D01*
X9400000D02*
Y6400800D01*
X9618000D01*
Y5892800D02*
Y6400800D01*
X9540750Y6743700D02*
X9618000D01*
X9400000D02*
X9477250D01*
X9400000D02*
Y7251700D01*
X9618000D01*
Y6743700D02*
Y7251700D01*
X9540750Y7518400D02*
X9618000D01*
X9400000D02*
X9477250D01*
X9400000D02*
Y8026400D01*
X9618000D01*
Y7518400D02*
Y8026400D01*
X9540750Y8445500D02*
X9618000D01*
X9400000D02*
X9477250D01*
X9400000D02*
Y8953500D01*
X9618000D01*
Y8445500D02*
Y8953500D01*
X12077700Y8866600D02*
Y8943850D01*
Y9007350D02*
Y9084600D01*
X12585700D01*
Y8866600D02*
Y9084600D01*
X12077700Y8866600D02*
X12585700D01*
X12877800D02*
Y8943850D01*
Y9007350D02*
Y9084600D01*
X13385800D01*
Y8866600D02*
Y9084600D01*
X12877800Y8866600D02*
X13385800D01*
X13817599D02*
Y8943850D01*
Y9007350D02*
Y9084600D01*
X14325600D01*
Y8866600D02*
Y9084600D01*
X13817599Y8866600D02*
X14325600D01*
X14566901D02*
Y8943850D01*
Y9007350D02*
Y9084600D01*
X15074899D01*
Y8866600D02*
Y9084600D01*
X14566901Y8866600D02*
X15074899D01*
X10414000D02*
Y8943850D01*
Y9007350D02*
Y9084600D01*
X10922000D01*
Y8866600D02*
Y9084600D01*
X10414000Y8866600D02*
X10922000D01*
X11226800D02*
Y8943850D01*
Y9007350D02*
Y9084600D01*
X11734800D01*
Y8866600D02*
Y9084600D01*
X11226800Y8866600D02*
X11734800D01*
X15405099D02*
Y8943850D01*
Y9007350D02*
Y9084600D01*
X15913100D01*
Y8866600D02*
Y9084600D01*
X15405099Y8866600D02*
X15913100D01*
X14734000Y6032500D02*
X14811250D01*
X14874750D02*
X14952000D01*
Y5524500D02*
Y6032500D01*
X14734000Y5524500D02*
X14952000D01*
X14734000D02*
Y6032500D01*
D55*
X14871700Y7556500D02*
Y7747000D01*
Y7556500D02*
X14996800D01*
Y7747000D01*
X14871700D02*
X14996800D01*
X14833600Y7239000D02*
Y7429500D01*
Y7239000D02*
X14958701D01*
Y7429500D01*
X14833600D02*
X14958701D01*
%TF.MD5,735a5c17c979ca31b18ae3c5050ee479*%
M02*
