%TF.GenerationSoftware,Altium Limited,Altium Designer,19.1.5 (86)*%
G04 Layer_Physical_Order=1*
G04 Layer_Color=255*
%FSLAX45Y45*%
%MOMM*%
%TF.FileFunction,Copper,L1,Top,Signal*%
%TF.Part,Single*%
G01*
G75*
%TA.AperFunction,SMDPad,CuDef*%
%ADD10R,1.30000X0.70000*%
%ADD11R,0.70000X1.30000*%
%ADD12R,0.60000X1.55000*%
%ADD13O,0.60000X1.55000*%
%ADD14R,1.55000X0.60000*%
%ADD15O,1.55000X0.60000*%
G04:AMPARAMS|DCode=16|XSize=0.25mm|YSize=1.55mm|CornerRadius=0mm|HoleSize=0mm|Usage=FLASHONLY|Rotation=315.000|XOffset=0mm|YOffset=0mm|HoleType=Round|Shape=Rectangle|*
%AMROTATEDRECTD16*
4,1,4,-0.63640,-0.45962,0.45962,0.63640,0.63640,0.45962,-0.45962,-0.63640,-0.63640,-0.45962,0.0*
%
%ADD16ROTATEDRECTD16*%

G04:AMPARAMS|DCode=17|XSize=0.25mm|YSize=1.55mm|CornerRadius=0mm|HoleSize=0mm|Usage=FLASHONLY|Rotation=45.000|XOffset=0mm|YOffset=0mm|HoleType=Round|Shape=Rectangle|*
%AMROTATEDRECTD17*
4,1,4,0.45962,-0.63640,-0.63640,0.45962,-0.45962,0.63640,0.63640,-0.45962,0.45962,-0.63640,0.0*
%
%ADD17ROTATEDRECTD17*%

G04:AMPARAMS|DCode=18|XSize=0.25mm|YSize=1.55mm|CornerRadius=0mm|HoleSize=0mm|Usage=FLASHONLY|Rotation=45.000|XOffset=0mm|YOffset=0mm|HoleType=Round|Shape=Round|*
%AMOVALD18*
21,1,1.30000,0.25000,0.00000,0.00000,135.0*
1,1,0.25000,0.45962,-0.45962*
1,1,0.25000,-0.45962,0.45962*
%
%ADD18OVALD18*%

%ADD19R,0.60000X0.50000*%
%TA.AperFunction,Conductor*%
%ADD20C,0.25400*%
%ADD21C,0.17780*%
%TA.AperFunction,ComponentPad*%
%ADD22R,1.50000X1.50000*%
%ADD23C,1.50000*%
%ADD24C,2.00000*%
%ADD25R,2.00000X2.00000*%
%ADD26R,2.70000X1.20000*%
%ADD27R,1.20000X2.70000*%
%ADD28R,1.20000X1.20000*%
%ADD29C,1.20000*%
%ADD30R,1.20000X1.20000*%
%TA.AperFunction,ViaPad*%
%ADD31C,0.45720*%
%ADD32C,1.27000*%
G36*
X17843500Y11620500D02*
X17868900Y11595100D01*
Y1282700D01*
X6883400D01*
X6870700Y1270000D01*
X6845300Y1295400D01*
Y11649604D01*
X6854296Y11658569D01*
X17843500Y11620500D01*
D02*
G37*
%LPC*%
G36*
X12272320Y11142020D02*
X12137080D01*
Y11006780D01*
X12272320D01*
Y11142020D01*
D02*
G37*
G36*
X11950700Y11147591D02*
X11898946Y11126154D01*
X11877509Y11074400D01*
X11891544Y11040516D01*
X11782164Y10931136D01*
X11776930Y10918500D01*
Y10836594D01*
X11764230Y10834067D01*
X11748454Y10872154D01*
X11696700Y10893591D01*
X11644946Y10872154D01*
X11623509Y10820400D01*
X11644946Y10768646D01*
X11678830Y10754611D01*
Y10058400D01*
X11684064Y10045764D01*
X11808724Y9921104D01*
X11799767Y9912101D01*
X11787114Y9912100D01*
X11722100D01*
Y9864400D01*
X11799800D01*
Y9899400D01*
X11799800Y9912067D01*
X11808804Y9921024D01*
X11882030Y9847798D01*
Y9713234D01*
X11671364Y9502567D01*
X11666130Y9489931D01*
Y9331678D01*
X11642507Y9321893D01*
X11630580Y9293100D01*
Y9198100D01*
X11642507Y9169307D01*
X11671300Y9157380D01*
X11700093Y9169307D01*
X11712020Y9198100D01*
Y9293100D01*
X11701870Y9317602D01*
Y9482530D01*
X11912536Y9693195D01*
X11917770Y9705831D01*
Y9855200D01*
X11912536Y9867836D01*
X11714570Y10065802D01*
Y10754611D01*
X11748454Y10768646D01*
X11764230Y10806733D01*
X11776930Y10804206D01*
Y10527361D01*
X11734864Y10485294D01*
X11729630Y10472659D01*
Y10109200D01*
X11734864Y10096564D01*
X11932830Y9898598D01*
Y9791700D01*
X11938064Y9779064D01*
X12263030Y9454098D01*
Y9331678D01*
X12239407Y9321893D01*
X12227480Y9293100D01*
Y9198100D01*
X12239407Y9169307D01*
X12268200Y9157380D01*
X12296993Y9169307D01*
X12308920Y9198100D01*
Y9293100D01*
X12298770Y9317602D01*
Y9461500D01*
X12293536Y9474136D01*
X11968570Y9799102D01*
Y9906000D01*
X11963336Y9918636D01*
X11765370Y10116602D01*
Y10465257D01*
X11807436Y10507322D01*
X11812670Y10519959D01*
Y10911098D01*
X11916816Y11015244D01*
X11950700Y11001209D01*
X12002454Y11022646D01*
X12023891Y11074400D01*
X12002454Y11126154D01*
X11950700Y11147591D01*
D02*
G37*
G36*
X11696700D02*
X11644946Y11126154D01*
X11623509Y11074400D01*
X11637544Y11040516D01*
X11531664Y10934636D01*
X11526430Y10922000D01*
Y10836931D01*
X11520046Y10826874D01*
X11520046D01*
Y10826875D01*
X11513730Y10825618D01*
X11513145Y10827029D01*
X11494454Y10872154D01*
X11442700Y10893591D01*
X11390946Y10872154D01*
X11369509Y10820400D01*
X11383544Y10786516D01*
X11036364Y10439336D01*
X11031130Y10426700D01*
Y9491002D01*
X10869423Y9329295D01*
X10858500Y9333820D01*
X10829707Y9321893D01*
X10817780Y9293100D01*
Y9198100D01*
X10829707Y9169307D01*
X10858500Y9157380D01*
X10887293Y9169307D01*
X10899220Y9198100D01*
Y9293100D01*
X10894695Y9304023D01*
X11061636Y9470964D01*
X11066870Y9483600D01*
Y10419298D01*
X11408816Y10761244D01*
X11442700Y10747209D01*
X11494454Y10768646D01*
X11513145Y10813771D01*
X11513730Y10815182D01*
X11520046Y10813925D01*
Y10813926D01*
X11520046Y10813925D01*
X11526430Y10803869D01*
Y10611902D01*
X11252264Y10337736D01*
X11247030Y10325100D01*
Y9616931D01*
X11252264Y9604295D01*
X11412130Y9444429D01*
Y9331678D01*
X11388507Y9321893D01*
X11376580Y9293100D01*
Y9198100D01*
X11388507Y9169307D01*
X11417300Y9157380D01*
X11446093Y9169307D01*
X11458020Y9198100D01*
Y9293100D01*
X11447870Y9317602D01*
Y9451831D01*
X11442636Y9464467D01*
X11282770Y9624333D01*
Y10317698D01*
X11556936Y10591864D01*
X11562170Y10604500D01*
Y10914598D01*
X11662816Y11015244D01*
X11696700Y11001209D01*
X11748454Y11022646D01*
X11769891Y11074400D01*
X11748454Y11126154D01*
X11696700Y11147591D01*
D02*
G37*
G36*
X11442700D02*
X11390946Y11126154D01*
X11369509Y11074400D01*
X11383544Y11040516D01*
X10439464Y10096436D01*
X10434230Y10083800D01*
Y9674081D01*
X10439464Y9661445D01*
X10586630Y9514279D01*
Y9326417D01*
X10575707Y9321893D01*
X10563780Y9293100D01*
Y9198100D01*
X10575707Y9169307D01*
X10604500Y9157380D01*
X10633293Y9169307D01*
X10645220Y9198100D01*
Y9293100D01*
X10633293Y9321893D01*
X10622370Y9326417D01*
Y9521681D01*
X10617136Y9534318D01*
X10469970Y9681483D01*
Y10076398D01*
X11408816Y11015244D01*
X11442700Y11001209D01*
X11494454Y11022646D01*
X11515891Y11074400D01*
X11494454Y11126154D01*
X11442700Y11147591D01*
D02*
G37*
G36*
X15421919Y11053120D02*
X15286681D01*
Y10917880D01*
X15421919D01*
Y11053120D01*
D02*
G37*
G36*
X15100301Y11058691D02*
X15048546Y11037254D01*
X15027109Y10985500D01*
X15037424Y10960596D01*
X14960664Y10883836D01*
X14955431Y10871200D01*
Y10198100D01*
X14960664Y10185464D01*
X15011464Y10134664D01*
X15024100Y10129430D01*
X15202840D01*
X15272929Y10059340D01*
Y9610600D01*
X15278165Y9597964D01*
X15546069Y9330058D01*
X15554922Y9326391D01*
X15563161Y9313090D01*
X15554880Y9293100D01*
Y9198100D01*
X15566808Y9169307D01*
X15595599Y9157380D01*
X15624393Y9169307D01*
X15636320Y9198100D01*
Y9252142D01*
X15638870Y9258300D01*
Y9305800D01*
X15633636Y9318436D01*
X15609442Y9342630D01*
X15596806Y9347864D01*
X15588310Y9344344D01*
X15573959Y9349012D01*
X15571342Y9355330D01*
X15308670Y9618002D01*
Y10066742D01*
X15303436Y10079378D01*
X15222878Y10159936D01*
X15210242Y10165170D01*
X15031502D01*
X14991170Y10205502D01*
Y10863798D01*
X15057436Y10930064D01*
X15100301Y10912309D01*
X15152054Y10933746D01*
X15173491Y10985500D01*
X15152054Y11037254D01*
X15100301Y11058691D01*
D02*
G37*
G36*
X14846300D02*
X14794547Y11037254D01*
X14773109Y10985500D01*
X14779704Y10969577D01*
X14706664Y10896536D01*
X14701430Y10883900D01*
Y10637302D01*
X14554263Y10490136D01*
X14549030Y10477500D01*
Y9521700D01*
X14554263Y9509064D01*
X14730734Y9332593D01*
X14728607Y9321893D01*
X14716679Y9293100D01*
Y9198100D01*
X14728607Y9169307D01*
X14757401Y9157380D01*
X14786192Y9169307D01*
X14798120Y9198100D01*
Y9293100D01*
X14787970Y9317602D01*
Y9318500D01*
X14782736Y9331136D01*
X14584770Y9529102D01*
Y10470098D01*
X14731937Y10617264D01*
X14737170Y10629900D01*
Y10876498D01*
X14794440Y10933767D01*
X14794547Y10933746D01*
X14846300Y10912309D01*
X14898055Y10933746D01*
X14919492Y10985500D01*
X14898055Y11037254D01*
X14846300Y11058691D01*
D02*
G37*
G36*
X14592300D02*
X14540546Y11037254D01*
X14526511Y11003370D01*
X14236700D01*
X14224065Y10998136D01*
X13817664Y10591736D01*
X13812430Y10579100D01*
Y9652000D01*
X13817664Y9639364D01*
X13990230Y9466798D01*
Y9326417D01*
X13979308Y9321893D01*
X13967380Y9293100D01*
Y9198100D01*
X13979308Y9169307D01*
X14008099Y9157380D01*
X14036893Y9169307D01*
X14048820Y9198100D01*
Y9293100D01*
X14036893Y9321893D01*
X14025970Y9326417D01*
Y9474200D01*
X14020737Y9486836D01*
X13848170Y9659402D01*
Y10571698D01*
X14244102Y10967630D01*
X14526511D01*
X14540546Y10933746D01*
X14592300Y10912309D01*
X14644054Y10933746D01*
X14665491Y10985500D01*
X14644054Y11037254D01*
X14592300Y11058691D01*
D02*
G37*
G36*
X7259700Y10955900D02*
X7112000D01*
Y10883200D01*
X7259700D01*
Y10955900D01*
D02*
G37*
G36*
X7086600D02*
X6938900D01*
Y10883200D01*
X7086600D01*
Y10955900D01*
D02*
G37*
G36*
X7259700Y10857800D02*
X7112000D01*
Y10785100D01*
X7259700D01*
Y10857800D01*
D02*
G37*
G36*
X7086600D02*
X6938900D01*
Y10785100D01*
X7086600D01*
Y10857800D01*
D02*
G37*
G36*
X14592300Y10804691D02*
X14540546Y10783254D01*
X14519109Y10731500D01*
X14533144Y10697616D01*
X14452664Y10617136D01*
X14447430Y10604500D01*
Y9722902D01*
X14249464Y9524936D01*
X14244231Y9512300D01*
Y9326417D01*
X14233307Y9321893D01*
X14221381Y9293100D01*
Y9198100D01*
X14233307Y9169307D01*
X14262100Y9157380D01*
X14290894Y9169307D01*
X14302820Y9198100D01*
Y9293100D01*
X14290894Y9321893D01*
X14279970Y9326417D01*
Y9504898D01*
X14477936Y9702864D01*
X14483170Y9715500D01*
Y10597098D01*
X14558417Y10672344D01*
X14592300Y10658309D01*
X14644054Y10679746D01*
X14665491Y10731500D01*
X14644054Y10783254D01*
X14592300Y10804691D01*
D02*
G37*
G36*
X7626920Y10683120D02*
X7491680D01*
Y10397880D01*
X7626920D01*
Y10683120D01*
D02*
G37*
G36*
X7241920Y10308120D02*
X6956680D01*
Y10172880D01*
X7241920D01*
Y10308120D01*
D02*
G37*
G36*
X10974300Y9937500D02*
X10896600D01*
Y9889800D01*
X10974300D01*
Y9937500D01*
D02*
G37*
G36*
X10871200D02*
X10793500D01*
Y9889800D01*
X10871200D01*
Y9937500D01*
D02*
G37*
G36*
X13146001Y9924800D02*
X13068300D01*
Y9877100D01*
X13146001D01*
Y9924800D01*
D02*
G37*
G36*
X10682200D02*
X10604500D01*
Y9877100D01*
X10682200D01*
Y9924800D01*
D02*
G37*
G36*
X10579100D02*
X10501400D01*
Y9877100D01*
X10579100D01*
Y9924800D01*
D02*
G37*
G36*
X13042900D02*
X12965199D01*
Y9877100D01*
X13042900D01*
Y9924800D01*
D02*
G37*
G36*
X14085800Y9912100D02*
X14008099D01*
Y9864400D01*
X14085800D01*
Y9912100D01*
D02*
G37*
G36*
X13425400D02*
X13347701D01*
Y9864400D01*
X13425400D01*
Y9912100D01*
D02*
G37*
G36*
X11495000D02*
X11417300D01*
Y9864400D01*
X11495000D01*
Y9912100D01*
D02*
G37*
G36*
X13322301D02*
X13244600D01*
Y9864400D01*
X13322301D01*
Y9912100D01*
D02*
G37*
G36*
X11696700D02*
X11619000D01*
Y9864400D01*
X11696700D01*
Y9912100D01*
D02*
G37*
G36*
X11391900D02*
X11314200D01*
Y9864400D01*
X11391900D01*
Y9912100D01*
D02*
G37*
G36*
X13982700D02*
X13905000D01*
Y9864400D01*
X13982700D01*
Y9912100D01*
D02*
G37*
G36*
X14352499Y9899400D02*
X14274800D01*
Y9851700D01*
X14352499D01*
Y9899400D01*
D02*
G37*
G36*
X14249400D02*
X14171700D01*
Y9851700D01*
X14249400D01*
Y9899400D01*
D02*
G37*
G36*
X15114500Y9886700D02*
X15036800D01*
Y9839000D01*
X15114500D01*
Y9886700D01*
D02*
G37*
G36*
X14822400D02*
X14744701D01*
Y9839000D01*
X14822400D01*
Y9886700D01*
D02*
G37*
G36*
X12638000D02*
X12560300D01*
Y9839000D01*
X12638000D01*
Y9886700D01*
D02*
G37*
G36*
X12345900D02*
X12268200D01*
Y9839000D01*
X12345900D01*
Y9886700D01*
D02*
G37*
G36*
X15011400D02*
X14933701D01*
Y9839000D01*
X15011400D01*
Y9886700D01*
D02*
G37*
G36*
X12242800D02*
X12165100D01*
Y9839000D01*
X12242800D01*
Y9886700D01*
D02*
G37*
G36*
X14719299D02*
X14641600D01*
Y9839000D01*
X14719299D01*
Y9886700D01*
D02*
G37*
G36*
X12534900D02*
X12457200D01*
Y9839000D01*
X12534900D01*
Y9886700D01*
D02*
G37*
G36*
X16765500Y9874000D02*
X16687801D01*
Y9826300D01*
X16765500D01*
Y9874000D01*
D02*
G37*
G36*
X15635201D02*
X15557500D01*
Y9826300D01*
X15635201D01*
Y9874000D01*
D02*
G37*
G36*
X15532100D02*
X15454401D01*
Y9826300D01*
X15532100D01*
Y9874000D01*
D02*
G37*
G36*
X16662399D02*
X16584700D01*
Y9826300D01*
X16662399D01*
Y9874000D01*
D02*
G37*
G36*
X15824200D02*
X15746500D01*
Y9826300D01*
X15824200D01*
Y9874000D01*
D02*
G37*
G36*
X10974300Y9864400D02*
X10896600D01*
Y9816700D01*
X10974300D01*
Y9864400D01*
D02*
G37*
G36*
X10871200D02*
X10793500D01*
Y9816700D01*
X10871200D01*
Y9864400D01*
D02*
G37*
G36*
X16473399Y9861300D02*
X16395700D01*
Y9813600D01*
X16473399D01*
Y9861300D01*
D02*
G37*
G36*
X16370300D02*
X16292599D01*
Y9813600D01*
X16370300D01*
Y9861300D01*
D02*
G37*
G36*
X13146001Y9851700D02*
X13068300D01*
Y9804000D01*
X13146001D01*
Y9851700D01*
D02*
G37*
G36*
X13042900D02*
X12965199D01*
Y9804000D01*
X13042900D01*
Y9851700D01*
D02*
G37*
G36*
X10682200D02*
X10604500D01*
Y9804000D01*
X10682200D01*
Y9851700D01*
D02*
G37*
G36*
X10579100D02*
X10501400D01*
Y9804000D01*
X10579100D01*
Y9851700D01*
D02*
G37*
G36*
X14085800Y9839000D02*
X14008099D01*
Y9791300D01*
X14085800D01*
Y9839000D01*
D02*
G37*
G36*
X13982700D02*
X13905000D01*
Y9791300D01*
X13982700D01*
Y9839000D01*
D02*
G37*
G36*
X13425400D02*
X13347701D01*
Y9791300D01*
X13425400D01*
Y9839000D01*
D02*
G37*
G36*
X13322301D02*
X13244600D01*
Y9791300D01*
X13322301D01*
Y9839000D01*
D02*
G37*
G36*
X11799800D02*
X11722100D01*
Y9791300D01*
X11799800D01*
Y9839000D01*
D02*
G37*
G36*
X11696700D02*
X11619000D01*
Y9791300D01*
X11696700D01*
Y9839000D01*
D02*
G37*
G36*
X11495000D02*
X11417300D01*
Y9791300D01*
X11495000D01*
Y9839000D01*
D02*
G37*
G36*
X11391900D02*
X11314200D01*
Y9791300D01*
X11391900D01*
Y9839000D01*
D02*
G37*
G36*
X14352499Y9826300D02*
X14274800D01*
Y9778600D01*
X14352499D01*
Y9826300D01*
D02*
G37*
G36*
X14249400D02*
X14171700D01*
Y9778600D01*
X14249400D01*
Y9826300D01*
D02*
G37*
G36*
X10956520Y9799720D02*
X10811280D01*
Y9772744D01*
X10664420D01*
Y9787020D01*
X10519180D01*
Y9701780D01*
X10664420D01*
Y9728756D01*
X10709506D01*
Y9643670D01*
X10677067Y9630233D01*
X10654520Y9575800D01*
X10677067Y9521367D01*
X10709506Y9507930D01*
Y9324709D01*
X10702707Y9321893D01*
X10690780Y9293100D01*
Y9198100D01*
X10702707Y9169307D01*
X10731500Y9157380D01*
X10760293Y9169307D01*
X10772220Y9198100D01*
Y9293100D01*
X10760293Y9321893D01*
X10753494Y9324709D01*
Y9507930D01*
X10785933Y9521367D01*
X10808480Y9575800D01*
X10785933Y9630233D01*
X10753494Y9643670D01*
Y9728756D01*
X10811280D01*
Y9714480D01*
X10956520D01*
Y9799720D01*
D02*
G37*
G36*
X15114500Y9813600D02*
X15036800D01*
Y9765900D01*
X15114500D01*
Y9813600D01*
D02*
G37*
G36*
X15011400D02*
X14933701D01*
Y9765900D01*
X15011400D01*
Y9813600D01*
D02*
G37*
G36*
X14822400D02*
X14744701D01*
Y9765900D01*
X14822400D01*
Y9813600D01*
D02*
G37*
G36*
X14719299D02*
X14641600D01*
Y9765900D01*
X14719299D01*
Y9813600D01*
D02*
G37*
G36*
X12638000D02*
X12560300D01*
Y9765900D01*
X12638000D01*
Y9813600D01*
D02*
G37*
G36*
X12534900D02*
X12457200D01*
Y9765900D01*
X12534900D01*
Y9813600D01*
D02*
G37*
G36*
X12345900D02*
X12268200D01*
Y9765900D01*
X12345900D01*
Y9813600D01*
D02*
G37*
G36*
X12242800D02*
X12165100D01*
Y9765900D01*
X12242800D01*
Y9813600D01*
D02*
G37*
G36*
X11782020Y9774320D02*
X11636780D01*
Y9753694D01*
X11477220D01*
Y9774320D01*
X11331980D01*
Y9689080D01*
X11477220D01*
Y9709706D01*
X11535006D01*
Y9643670D01*
X11502567Y9630233D01*
X11480020Y9575800D01*
X11502567Y9521367D01*
X11535006Y9507930D01*
Y9329970D01*
X11515507Y9321893D01*
X11503580Y9293100D01*
Y9198100D01*
X11515507Y9169307D01*
X11544300Y9157380D01*
X11573093Y9169307D01*
X11585020Y9198100D01*
Y9293100D01*
X11578994Y9307646D01*
Y9507930D01*
X11611433Y9521367D01*
X11633980Y9575800D01*
X11611433Y9630233D01*
X11578994Y9643670D01*
Y9709706D01*
X11636780D01*
Y9689080D01*
X11782020D01*
Y9774320D01*
D02*
G37*
G36*
X16765500Y9800900D02*
X16687801D01*
Y9753200D01*
X16765500D01*
Y9800900D01*
D02*
G37*
G36*
X16662399D02*
X16584700D01*
Y9753200D01*
X16662399D01*
Y9800900D01*
D02*
G37*
G36*
X15927299D02*
X15849600D01*
Y9753200D01*
X15927299D01*
Y9800900D01*
D02*
G37*
G36*
X15824200D02*
X15746500D01*
Y9753200D01*
X15824200D01*
Y9800900D01*
D02*
G37*
G36*
X15635201D02*
X15557500D01*
Y9753200D01*
X15635201D01*
Y9800900D01*
D02*
G37*
G36*
X15532100D02*
X15454401D01*
Y9753200D01*
X15532100D01*
Y9800900D01*
D02*
G37*
G36*
X16473399Y9788200D02*
X16395700D01*
Y9740500D01*
X16473399D01*
Y9788200D01*
D02*
G37*
G36*
X16370300D02*
X16292599D01*
Y9740500D01*
X16370300D01*
Y9788200D01*
D02*
G37*
G36*
X15096719Y9748920D02*
X14951480D01*
Y9728294D01*
X14804620D01*
Y9748920D01*
X14659380D01*
Y9663680D01*
X14804620D01*
Y9684306D01*
X14875105D01*
Y9574909D01*
X14855367Y9566733D01*
X14832820Y9512300D01*
X14855367Y9457867D01*
X14875105Y9449691D01*
Y9329970D01*
X14855608Y9321893D01*
X14843680Y9293100D01*
Y9198100D01*
X14855608Y9169307D01*
X14884399Y9157380D01*
X14913193Y9169307D01*
X14925121Y9198100D01*
Y9293100D01*
X14919093Y9307646D01*
Y9439170D01*
X14964233Y9457867D01*
X14986780Y9512300D01*
X14964233Y9566733D01*
X14919093Y9585430D01*
Y9684306D01*
X14951480D01*
Y9663680D01*
X15096719D01*
Y9748920D01*
D02*
G37*
G36*
X12620220D02*
X12474980D01*
Y9728294D01*
X12328120D01*
Y9748920D01*
X12182880D01*
Y9663680D01*
X12328120D01*
Y9684306D01*
X12385906D01*
Y9618270D01*
X12353467Y9604833D01*
X12330920Y9550400D01*
X12353467Y9495967D01*
X12385906Y9482530D01*
Y9329970D01*
X12366407Y9321893D01*
X12354480Y9293100D01*
Y9198100D01*
X12366407Y9169307D01*
X12395200Y9157380D01*
X12423993Y9169307D01*
X12435920Y9198100D01*
Y9293100D01*
X12429894Y9307646D01*
Y9482530D01*
X12462333Y9495967D01*
X12484880Y9550400D01*
X12462333Y9604833D01*
X12429894Y9618270D01*
Y9684306D01*
X12474980D01*
Y9663680D01*
X12620220D01*
Y9748920D01*
D02*
G37*
G36*
X15909520Y9736220D02*
X15764281D01*
Y9715594D01*
X15617419D01*
Y9736220D01*
X15472180D01*
Y9650980D01*
X15617419D01*
Y9671606D01*
X15687906D01*
Y9550170D01*
X15655467Y9536733D01*
X15632919Y9482300D01*
X15655467Y9427867D01*
X15687906Y9414430D01*
Y9307646D01*
X15681880Y9293100D01*
Y9198100D01*
X15693806Y9169307D01*
X15722600Y9157380D01*
X15751393Y9169307D01*
X15763319Y9198100D01*
Y9293100D01*
X15751393Y9321893D01*
X15731894Y9329970D01*
Y9414430D01*
X15764333Y9427867D01*
X15786880Y9482300D01*
X15764333Y9536733D01*
X15731894Y9550170D01*
Y9671606D01*
X15764281D01*
Y9650980D01*
X15909520D01*
Y9736220D01*
D02*
G37*
G36*
X16747720D02*
X16602480D01*
Y9709244D01*
X16455620D01*
Y9723520D01*
X16310381D01*
Y9638280D01*
X16455620D01*
Y9665256D01*
X16500706D01*
Y9562209D01*
X16480968Y9554033D01*
X16458420Y9499600D01*
X16480968Y9445167D01*
X16500706Y9436991D01*
Y9324709D01*
X16493907Y9321893D01*
X16481979Y9293100D01*
Y9198100D01*
X16493907Y9169307D01*
X16522701Y9157380D01*
X16551492Y9169307D01*
X16563420Y9198100D01*
Y9293100D01*
X16551492Y9321893D01*
X16544695Y9324709D01*
Y9426470D01*
X16589833Y9445167D01*
X16612379Y9499600D01*
X16589833Y9554033D01*
X16544695Y9572730D01*
Y9665256D01*
X16602480D01*
Y9650980D01*
X16747720D01*
Y9736220D01*
D02*
G37*
G36*
X13128220Y9787020D02*
X12982980D01*
Y9701780D01*
X13038634D01*
X13040048Y9698368D01*
X13055600Y9691926D01*
X13186006D01*
Y9656370D01*
X13153568Y9642933D01*
X13131020Y9588500D01*
X13153568Y9534067D01*
X13186006Y9520630D01*
Y9329970D01*
X13166507Y9321893D01*
X13154581Y9293100D01*
Y9198100D01*
X13166507Y9169307D01*
X13195300Y9157380D01*
X13224094Y9169307D01*
X13236020Y9198100D01*
Y9293100D01*
X13229694Y9308373D01*
X13229994Y9309100D01*
Y9520630D01*
X13262433Y9534067D01*
X13284979Y9588500D01*
X13262433Y9642933D01*
X13229994Y9656370D01*
Y9691926D01*
X13262379D01*
Y9689080D01*
X13407620D01*
Y9774320D01*
X13262379D01*
Y9735914D01*
X13128220D01*
Y9787020D01*
D02*
G37*
G36*
X14068021Y9774320D02*
X13922780D01*
Y9689080D01*
X14068021D01*
Y9703356D01*
X14113106D01*
Y9604256D01*
X14109700Y9601980D01*
X14055267Y9579433D01*
X14032719Y9525000D01*
X14055267Y9470567D01*
X14109700Y9448020D01*
X14113106Y9445744D01*
Y9324709D01*
X14106306Y9321893D01*
X14094380Y9293100D01*
Y9198100D01*
X14106306Y9169307D01*
X14135100Y9157380D01*
X14163893Y9169307D01*
X14175819Y9198100D01*
Y9293100D01*
X14163893Y9321893D01*
X14157094Y9324709D01*
Y9467651D01*
X14164133Y9470567D01*
X14186681Y9525000D01*
X14164133Y9579433D01*
X14157094Y9582349D01*
Y9703356D01*
X14189481D01*
Y9676380D01*
X14334720D01*
Y9761620D01*
X14189481D01*
Y9747344D01*
X14068021D01*
Y9774320D01*
D02*
G37*
G36*
X12204700Y10893591D02*
X12152946Y10872154D01*
X12131509Y10820400D01*
X12152946Y10768646D01*
X12186830Y10754611D01*
Y10401300D01*
X12192064Y10388664D01*
X12446064Y10134664D01*
X12458700Y10129430D01*
X13391098D01*
X13558430Y9962098D01*
Y9519702D01*
X13359039Y9320312D01*
X13351093Y9321893D01*
X13322301Y9333820D01*
X13293507Y9321893D01*
X13281580Y9293100D01*
Y9198100D01*
X13293507Y9169307D01*
X13322301Y9157380D01*
X13351093Y9169307D01*
X13363020Y9198100D01*
Y9273748D01*
X13588936Y9499664D01*
X13594170Y9512300D01*
Y9969500D01*
X13588936Y9982136D01*
X13411136Y10159936D01*
X13398500Y10165170D01*
X12466102D01*
X12222570Y10408702D01*
Y10754611D01*
X12256454Y10768646D01*
X12277891Y10820400D01*
X12256454Y10872154D01*
X12204700Y10893591D01*
D02*
G37*
G36*
X15354300Y10804691D02*
X15302547Y10783254D01*
X15281110Y10731500D01*
X15302547Y10679746D01*
X15336430Y10665711D01*
Y10528300D01*
X15341664Y10515664D01*
X15659164Y10198164D01*
X15671800Y10192930D01*
X16870898D01*
X16898531Y10165298D01*
Y9341902D01*
X16807397Y9250770D01*
X16690421D01*
Y9293100D01*
X16678493Y9321893D01*
X16649699Y9333820D01*
X16620908Y9321893D01*
X16608980Y9293100D01*
Y9198100D01*
X16620908Y9169307D01*
X16649699Y9157380D01*
X16678493Y9169307D01*
X16690421Y9198100D01*
Y9215030D01*
X16814799D01*
X16827435Y9220264D01*
X16929036Y9321864D01*
X16934270Y9334500D01*
Y10172700D01*
X16929036Y10185336D01*
X16890936Y10223436D01*
X16878300Y10228670D01*
X15679202D01*
X15372169Y10535702D01*
Y10665711D01*
X15406055Y10679746D01*
X15427492Y10731500D01*
X15406055Y10783254D01*
X15354300Y10804691D01*
D02*
G37*
G36*
X16090900Y10148080D02*
X16036467Y10125533D01*
X16013921Y10071100D01*
X16036467Y10016667D01*
X16073030Y10001522D01*
Y9715500D01*
X16078264Y9702864D01*
X16377831Y9403298D01*
Y9326417D01*
X16366907Y9321893D01*
X16354980Y9293100D01*
Y9198100D01*
X16366907Y9169307D01*
X16395700Y9157380D01*
X16424493Y9169307D01*
X16436420Y9198100D01*
Y9293100D01*
X16424493Y9321893D01*
X16413570Y9326417D01*
Y9410700D01*
X16408336Y9423336D01*
X16108771Y9722902D01*
Y10001522D01*
X16145332Y10016667D01*
X16167880Y10071100D01*
X16145332Y10125533D01*
X16090900Y10148080D01*
D02*
G37*
G36*
X16268700Y9333820D02*
X16239906Y9321893D01*
X16227980Y9293100D01*
Y9198100D01*
X16239906Y9169307D01*
X16268700Y9157380D01*
X16297493Y9169307D01*
X16309419Y9198100D01*
Y9293100D01*
X16297493Y9321893D01*
X16268700Y9333820D01*
D02*
G37*
G36*
X15100301Y10804691D02*
X15048546Y10783254D01*
X15027109Y10731500D01*
X15048546Y10679746D01*
X15082430Y10665711D01*
Y10301879D01*
X15087663Y10289243D01*
X15102544Y10274364D01*
X15115179Y10269130D01*
X15296098D01*
X15323730Y10241498D01*
Y10033000D01*
X15328964Y10020364D01*
X15367064Y9982264D01*
X15379700Y9977030D01*
X15842198D01*
X15936224Y9883004D01*
X15927267Y9874001D01*
X15914613Y9874000D01*
X15849600D01*
Y9826300D01*
X15927299D01*
Y9861300D01*
X15927299Y9873967D01*
X15936304Y9882924D01*
X15984129Y9835098D01*
Y9646702D01*
X15824265Y9486836D01*
X15819031Y9474200D01*
Y9317602D01*
X15808881Y9293100D01*
Y9198100D01*
X15820807Y9169307D01*
X15849600Y9157380D01*
X15878394Y9169307D01*
X15890320Y9198100D01*
Y9293100D01*
X15878394Y9321893D01*
X15854770Y9331678D01*
Y9466798D01*
X16014636Y9626664D01*
X16019870Y9639300D01*
Y9842500D01*
X16014636Y9855136D01*
X15862236Y10007536D01*
X15849600Y10012770D01*
X15387102D01*
X15359470Y10040402D01*
Y10248900D01*
X15354236Y10261536D01*
X15316136Y10299636D01*
X15303500Y10304870D01*
X15122581D01*
X15118170Y10309281D01*
Y10665711D01*
X15152054Y10679746D01*
X15173491Y10731500D01*
X15152054Y10783254D01*
X15100301Y10804691D01*
D02*
G37*
G36*
X15468600Y9333820D02*
X15439807Y9321893D01*
X15427879Y9293100D01*
Y9198100D01*
X15439807Y9169307D01*
X15468600Y9157380D01*
X15497392Y9169307D01*
X15509320Y9198100D01*
Y9293100D01*
X15497392Y9321893D01*
X15468600Y9333820D01*
D02*
G37*
G36*
X14846300Y10804691D02*
X14794547Y10783254D01*
X14773109Y10731500D01*
X14794547Y10679746D01*
X14815730Y10670971D01*
Y10111379D01*
X14820964Y10098743D01*
X14835843Y10083864D01*
X14848479Y10078630D01*
X15181798D01*
X15196730Y10063698D01*
Y9646702D01*
X15011464Y9461436D01*
X15006230Y9448800D01*
Y9331678D01*
X14982607Y9321893D01*
X14970680Y9293100D01*
Y9198100D01*
X14982607Y9169307D01*
X15011400Y9157380D01*
X15040193Y9169307D01*
X15052119Y9198100D01*
Y9293100D01*
X15041969Y9317602D01*
Y9441398D01*
X15227235Y9626664D01*
X15232471Y9639300D01*
Y10071100D01*
X15227235Y10083736D01*
X15201836Y10109136D01*
X15189200Y10114370D01*
X14855881D01*
X14851469Y10118781D01*
Y10660450D01*
X14898055Y10679746D01*
X14919492Y10731500D01*
X14898055Y10783254D01*
X14846300Y10804691D01*
D02*
G37*
G36*
X14630400Y9333820D02*
X14601607Y9321893D01*
X14589680Y9293100D01*
Y9198100D01*
X14601607Y9169307D01*
X14630400Y9157380D01*
X14659193Y9169307D01*
X14671120Y9198100D01*
Y9293100D01*
X14659193Y9321893D01*
X14630400Y9333820D01*
D02*
G37*
G36*
X13881100D02*
X13852307Y9321893D01*
X13840379Y9293100D01*
Y9198100D01*
X13852307Y9169307D01*
X13881100Y9157380D01*
X13909892Y9169307D01*
X13921820Y9198100D01*
Y9293100D01*
X13909892Y9321893D01*
X13881100Y9333820D01*
D02*
G37*
G36*
X12865100Y9982980D02*
X12810667Y9960433D01*
X12788120Y9906000D01*
X12810667Y9851567D01*
X12847231Y9836422D01*
Y9728200D01*
X12852464Y9715564D01*
X13063130Y9504898D01*
Y9331678D01*
X13039507Y9321893D01*
X13027580Y9293100D01*
Y9198100D01*
X13039507Y9169307D01*
X13068300Y9157380D01*
X13097093Y9169307D01*
X13109019Y9198100D01*
Y9293100D01*
X13098869Y9317602D01*
Y9512300D01*
X13093636Y9524936D01*
X12882970Y9735602D01*
Y9836422D01*
X12919533Y9851567D01*
X12942081Y9906000D01*
X12919533Y9960433D01*
X12865100Y9982980D01*
D02*
G37*
G36*
X12941299Y9333820D02*
X12912508Y9321893D01*
X12900580Y9293100D01*
Y9198100D01*
X12912508Y9169307D01*
X12941299Y9157380D01*
X12970093Y9169307D01*
X12982021Y9198100D01*
Y9293100D01*
X12970093Y9321893D01*
X12941299Y9333820D01*
D02*
G37*
G36*
X11950700Y10893591D02*
X11898946Y10872154D01*
X11877509Y10820400D01*
X11898946Y10768646D01*
X11920130Y10759871D01*
Y10085979D01*
X11925364Y10073343D01*
X11940243Y10058464D01*
X11952879Y10053230D01*
X12703119D01*
X12707530Y10048819D01*
Y9681484D01*
X12522264Y9496217D01*
X12517030Y9483581D01*
Y9331678D01*
X12493407Y9321893D01*
X12481480Y9293100D01*
Y9198100D01*
X12493407Y9169307D01*
X12522200Y9157380D01*
X12550993Y9169307D01*
X12562920Y9198100D01*
Y9293100D01*
X12552770Y9317602D01*
Y9476180D01*
X12738036Y9661445D01*
X12743270Y9674081D01*
Y10056221D01*
X12738036Y10068857D01*
X12723157Y10083736D01*
X12710521Y10088970D01*
X11960281D01*
X11955870Y10093381D01*
Y10749350D01*
X12002454Y10768646D01*
X12023891Y10820400D01*
X12002454Y10872154D01*
X11950700Y10893591D01*
D02*
G37*
G36*
X12141200Y9333820D02*
X12112407Y9321893D01*
X12100480Y9293100D01*
Y9198100D01*
X12112407Y9169307D01*
X12141200Y9157380D01*
X12169993Y9169307D01*
X12181920Y9198100D01*
Y9293100D01*
X12169993Y9321893D01*
X12141200Y9333820D01*
D02*
G37*
G36*
X11290300D02*
X11261507Y9321893D01*
X11249580Y9293100D01*
Y9198100D01*
X11261507Y9169307D01*
X11290300Y9157380D01*
X11319093Y9169307D01*
X11331020Y9198100D01*
Y9293100D01*
X11319093Y9321893D01*
X11290300Y9333820D01*
D02*
G37*
G36*
X10477500D02*
X10448707Y9321893D01*
X10436780Y9293100D01*
Y9198100D01*
X10448707Y9169307D01*
X10477500Y9157380D01*
X10506293Y9169307D01*
X10518220Y9198100D01*
Y9293100D01*
X10506293Y9321893D01*
X10477500Y9333820D01*
D02*
G37*
G36*
X8652600Y8980400D02*
X8604901D01*
Y8902700D01*
X8652600D01*
Y8980400D01*
D02*
G37*
G36*
X8579501D02*
X8531800D01*
Y8902700D01*
X8579501D01*
Y8980400D01*
D02*
G37*
G36*
X8902700Y9225370D02*
X8547100D01*
X8534464Y9220136D01*
X7556564Y8242236D01*
X7551330Y8229600D01*
Y7952489D01*
X7517446Y7938454D01*
X7496009Y7886700D01*
X7517446Y7834946D01*
X7569200Y7813509D01*
X7620954Y7834946D01*
X7642391Y7886700D01*
X7620954Y7938454D01*
X7587070Y7952489D01*
Y8222198D01*
X8554502Y9189630D01*
X8895298D01*
X9163276Y8921652D01*
X9162707Y8918793D01*
X9150781Y8890000D01*
X9162707Y8861207D01*
X9191500Y8849280D01*
X9286500D01*
X9315293Y8861207D01*
X9327220Y8890000D01*
X9315293Y8918793D01*
X9286500Y8930720D01*
X9204753D01*
X8915336Y9220136D01*
X8902700Y9225370D01*
D02*
G37*
G36*
X8652600Y8877300D02*
X8604901D01*
Y8799600D01*
X8652600D01*
Y8877300D01*
D02*
G37*
G36*
X8579501D02*
X8531800D01*
Y8799600D01*
X8579501D01*
Y8877300D01*
D02*
G37*
G36*
X9826500Y8822965D02*
X9791700D01*
Y8775700D01*
X9881204D01*
X9868901Y8805401D01*
X9826500Y8822965D01*
D02*
G37*
G36*
X9766300D02*
X9731500D01*
X9689099Y8805401D01*
X9676796Y8775700D01*
X9766300D01*
Y8822965D01*
D02*
G37*
G36*
X8754820Y8962620D02*
X8669580D01*
Y8817380D01*
X8690206D01*
Y8695920D01*
X8669580D01*
Y8550680D01*
X8754820D01*
Y8695920D01*
X8734194D01*
Y8734656D01*
X8900961D01*
X8911767Y8708567D01*
X8966200Y8686020D01*
X9020633Y8708567D01*
X9034070Y8741006D01*
X9159891D01*
X9162707Y8734207D01*
X9191500Y8722280D01*
X9286500D01*
X9315293Y8734207D01*
X9327220Y8763000D01*
X9315293Y8791793D01*
X9286500Y8803720D01*
X9191500D01*
X9162707Y8791793D01*
X9159891Y8784994D01*
X9034070D01*
X9020633Y8817433D01*
X8966200Y8839980D01*
X8911767Y8817433D01*
X8895700Y8778644D01*
X8734194D01*
Y8817380D01*
X8754820D01*
Y8962620D01*
D02*
G37*
G36*
X16535400Y8807804D02*
Y8718300D01*
X16582664D01*
Y8753100D01*
X16565102Y8795501D01*
X16535400Y8807804D01*
D02*
G37*
G36*
X15735300D02*
Y8718300D01*
X15782565D01*
Y8753100D01*
X15765001Y8795501D01*
X15735300Y8807804D01*
D02*
G37*
G36*
X14897099D02*
Y8718300D01*
X14944365D01*
Y8753100D01*
X14926801Y8795501D01*
X14897099Y8807804D01*
D02*
G37*
G36*
X14147800D02*
Y8718300D01*
X14195065D01*
Y8753100D01*
X14177501Y8795501D01*
X14147800Y8807804D01*
D02*
G37*
G36*
X13208000D02*
Y8718300D01*
X13255264D01*
Y8753100D01*
X13237701Y8795501D01*
X13208000Y8807804D01*
D02*
G37*
G36*
X12407900D02*
Y8718300D01*
X12455165D01*
Y8753100D01*
X12437601Y8795501D01*
X12407900Y8807804D01*
D02*
G37*
G36*
X11557000D02*
Y8718300D01*
X11604265D01*
Y8753100D01*
X11586701Y8795501D01*
X11557000Y8807804D01*
D02*
G37*
G36*
X10744200D02*
Y8718300D01*
X10791465D01*
Y8753100D01*
X10773901Y8795501D01*
X10744200Y8807804D01*
D02*
G37*
G36*
X14122400D02*
X14092699Y8795501D01*
X14075134Y8753100D01*
Y8718300D01*
X14122400D01*
Y8807804D01*
D02*
G37*
G36*
X13182600D02*
X13152899Y8795501D01*
X13135335Y8753100D01*
Y8718300D01*
X13182600D01*
Y8807804D01*
D02*
G37*
G36*
X14871700D02*
X14841998Y8795501D01*
X14824435Y8753100D01*
Y8718300D01*
X14871700D01*
Y8807804D01*
D02*
G37*
G36*
X12382500D02*
X12352799Y8795501D01*
X12335235Y8753100D01*
Y8718300D01*
X12382500D01*
Y8807804D01*
D02*
G37*
G36*
X11531600D02*
X11501899Y8795501D01*
X11484335Y8753100D01*
Y8718300D01*
X11531600D01*
Y8807804D01*
D02*
G37*
G36*
X16510001D02*
X16480299Y8795501D01*
X16462735Y8753100D01*
Y8718300D01*
X16510001D01*
Y8807804D01*
D02*
G37*
G36*
X15709900D02*
X15680199Y8795501D01*
X15662634Y8753100D01*
Y8718300D01*
X15709900D01*
Y8807804D01*
D02*
G37*
G36*
X10718800D02*
X10689099Y8795501D01*
X10671535Y8753100D01*
Y8718300D01*
X10718800D01*
Y8807804D01*
D02*
G37*
G36*
X9881204Y8750300D02*
X9791700D01*
Y8703035D01*
X9826500D01*
X9868901Y8720599D01*
X9881204Y8750300D01*
D02*
G37*
G36*
X9766300D02*
X9676796D01*
X9689099Y8720599D01*
X9731500Y8703035D01*
X9766300D01*
Y8750300D01*
D02*
G37*
G36*
X9826500Y8930720D02*
X9731500D01*
X9702707Y8918793D01*
X9690780Y8890000D01*
X9702707Y8861207D01*
X9731500Y8849280D01*
X9826500D01*
X9855293Y8861207D01*
X9859817Y8872130D01*
X10002430D01*
Y8658281D01*
X9998019Y8653870D01*
X9859817D01*
X9855293Y8664793D01*
X9826500Y8676720D01*
X9731500D01*
X9702707Y8664793D01*
X9690780Y8636000D01*
X9702707Y8607207D01*
X9731500Y8595280D01*
X9826500D01*
X9855293Y8607207D01*
X9858152Y8607776D01*
X10743201Y7722727D01*
Y7039971D01*
X10748435Y7027335D01*
X11544364Y6231406D01*
X11557000Y6226172D01*
X11611294D01*
X11623930Y6231406D01*
X11796795Y6404271D01*
X11799186Y6403326D01*
X11802273Y6388451D01*
X11624934Y6211112D01*
X11507331D01*
X9974670Y7743772D01*
Y7960721D01*
X9969436Y7973357D01*
X9954557Y7988236D01*
X9941921Y7993470D01*
X9851002D01*
X9826500Y8003620D01*
X9731500D01*
X9702707Y7991693D01*
X9690780Y7962900D01*
X9702707Y7934107D01*
X9731500Y7922180D01*
X9826500D01*
X9855293Y7934107D01*
X9865078Y7957730D01*
X9934519D01*
X9938930Y7953319D01*
Y7743772D01*
X9921928Y7726770D01*
X9859817D01*
X9855293Y7737693D01*
X9826500Y7749620D01*
X9731500D01*
X9702707Y7737693D01*
X9690780Y7708900D01*
X9702707Y7680107D01*
X9731500Y7668180D01*
X9826500D01*
X9855293Y7680107D01*
X9859817Y7691030D01*
X9929330D01*
X9941966Y7696264D01*
X9956800Y7711098D01*
X11487292Y6180606D01*
X11499928Y6175372D01*
X11632336D01*
X11644972Y6180606D01*
X11832721Y6368355D01*
X11835282Y6367579D01*
X11838882Y6353219D01*
X11624934Y6139270D01*
X11149984D01*
X10342418Y6946836D01*
X10329782Y6952070D01*
X9981943D01*
X9973457Y6964770D01*
X9974670Y6967700D01*
Y7173321D01*
X9969436Y7185957D01*
X9954557Y7200836D01*
X9941921Y7206070D01*
X9859817D01*
X9855293Y7216993D01*
X9826500Y7228920D01*
X9731500D01*
X9702707Y7216993D01*
X9690780Y7188200D01*
X9702707Y7159407D01*
X9731500Y7147480D01*
X9826500D01*
X9855293Y7159407D01*
X9859817Y7170330D01*
X9934519D01*
X9938930Y7165919D01*
Y6975102D01*
X9915898Y6952070D01*
X9859817D01*
X9855293Y6962993D01*
X9826500Y6974920D01*
X9731500D01*
X9702707Y6962993D01*
X9690780Y6934200D01*
X9702707Y6905407D01*
X9731500Y6893480D01*
X9826500D01*
X9855293Y6905407D01*
X9859817Y6916330D01*
X10322380D01*
X11129945Y6108764D01*
X11142582Y6103530D01*
X11632336D01*
X11644972Y6108764D01*
X11868558Y6332350D01*
X11871317Y6331772D01*
X11875440Y6317935D01*
X11645976Y6088470D01*
X10000070D01*
Y6309721D01*
X9994836Y6322357D01*
X9979957Y6337236D01*
X9967321Y6342470D01*
X9865078D01*
X9855293Y6366093D01*
X9826500Y6378020D01*
X9731500D01*
X9702707Y6366093D01*
X9690780Y6337300D01*
X9702707Y6308507D01*
X9731500Y6296580D01*
X9826500D01*
X9851002Y6306730D01*
X9959919D01*
X9964330Y6302319D01*
Y6092881D01*
X9959919Y6088470D01*
X9865078D01*
X9855293Y6112093D01*
X9826500Y6124020D01*
X9731500D01*
X9702707Y6112093D01*
X9690780Y6083300D01*
X9702707Y6054507D01*
X9731500Y6042580D01*
X9826500D01*
X9851002Y6052730D01*
X11653378D01*
X11666013Y6057964D01*
X11904495Y6296445D01*
X11907444Y6296057D01*
X11911996Y6282649D01*
X10905018Y5275670D01*
X9953036D01*
X9948088Y5283154D01*
X9946151Y5288370D01*
X9949270Y5295900D01*
Y5496921D01*
X9944036Y5509557D01*
X9929157Y5524436D01*
X9916521Y5529670D01*
X9851002D01*
X9826500Y5539820D01*
X9731500D01*
X9702707Y5527893D01*
X9690780Y5499100D01*
X9702707Y5470307D01*
X9731500Y5458380D01*
X9826500D01*
X9855293Y5470307D01*
X9865078Y5493930D01*
X9909119D01*
X9913530Y5489519D01*
Y5303302D01*
X9885898Y5275670D01*
X9851002D01*
X9826500Y5285820D01*
X9731500D01*
X9702707Y5273893D01*
X9690780Y5245100D01*
X9702707Y5216307D01*
X9731500Y5204380D01*
X9826500D01*
X9855293Y5216307D01*
X9865078Y5239930D01*
X10912419D01*
X10925055Y5245164D01*
X11939213Y6259321D01*
X11946313Y6257716D01*
X11949093Y6247904D01*
X10418059Y4716870D01*
X9851002D01*
X9826500Y4727020D01*
X9731500D01*
X9702707Y4715093D01*
X9690780Y4686300D01*
X9702707Y4657507D01*
X9731500Y4645580D01*
X9826500D01*
X9855293Y4657507D01*
X9865078Y4681130D01*
X9949398D01*
X9953809Y4676719D01*
Y4479981D01*
X9936698Y4462870D01*
X9851002D01*
X9826500Y4473020D01*
X9731500D01*
X9702707Y4461093D01*
X9690780Y4432300D01*
X9702707Y4403507D01*
X9731500Y4391580D01*
X9826500D01*
X9855293Y4403507D01*
X9865078Y4427130D01*
X9944100D01*
X9956736Y4432364D01*
X9984315Y4459943D01*
X9989549Y4472579D01*
Y4681130D01*
X10425461D01*
X10438097Y4686364D01*
X11973292Y6221559D01*
X11986652Y6216958D01*
X11987016Y6213986D01*
X10277915Y4504884D01*
X10272681Y4492248D01*
Y4341653D01*
X9874314Y3943286D01*
X9873852Y3942170D01*
X9859817D01*
X9855293Y3953093D01*
X9826500Y3965020D01*
X9731500D01*
X9702707Y3953093D01*
X9690780Y3924300D01*
X9702707Y3895507D01*
X9731500Y3883580D01*
X9826500D01*
X9855293Y3895507D01*
X9859817Y3906430D01*
X9898598D01*
X9913530Y3891498D01*
Y3741202D01*
X9869737Y3697409D01*
X9855293Y3699093D01*
X9826500Y3711020D01*
X9731500D01*
X9702707Y3699093D01*
X9690780Y3670300D01*
X9702707Y3641507D01*
X9731500Y3629580D01*
X9826500D01*
X9855293Y3641507D01*
X9859817Y3652430D01*
X9867900D01*
X9880536Y3657664D01*
X9944036Y3721164D01*
X9949270Y3733800D01*
Y3898900D01*
X9944036Y3911536D01*
X9927552Y3928020D01*
X9927526Y3945954D01*
X10303188Y4321615D01*
X10308422Y4334251D01*
Y4484847D01*
X12008562Y6184987D01*
X12022324Y6180788D01*
X12022870Y6177997D01*
X10466424Y4621551D01*
X10461189Y4608915D01*
Y3857062D01*
X9794448Y3190320D01*
X9731500D01*
X9702707Y3178393D01*
X9690780Y3149600D01*
X9702707Y3120807D01*
X9731500Y3108880D01*
X9826500D01*
X9855293Y3120807D01*
X9867220Y3149600D01*
X9855293Y3178393D01*
X9850135Y3180529D01*
X9847657Y3192985D01*
X10491696Y3837024D01*
X10496930Y3849660D01*
Y4601513D01*
X11919876Y6024459D01*
X11930642Y6017265D01*
X11928706Y6012589D01*
Y6007100D01*
X11931017Y6001520D01*
X11928754Y5996055D01*
X11938417Y5972727D01*
X11961745Y5963064D01*
X11967210Y5965328D01*
X11972790Y5963016D01*
X11993831D01*
X12009384Y5969458D01*
X12116314Y6076388D01*
X12127137Y6065565D01*
X12199898Y6138326D01*
X12272659Y6211088D01*
X12254840Y6228907D01*
X12248618Y6222685D01*
X12235918D01*
X12219485Y6239118D01*
X12212583Y6246019D01*
X12186209Y6272394D01*
X12184130Y6274473D01*
X12177228Y6281375D01*
X12175149Y6283453D01*
X12150853Y6307749D01*
X12148775Y6309828D01*
X12141873Y6316730D01*
X12139794Y6318809D01*
X12115498Y6343104D01*
X12113419Y6345184D01*
X12106518Y6352085D01*
X12104439Y6354164D01*
X12080143Y6378460D01*
X12078064Y6380539D01*
X12071163Y6387440D01*
X12069083Y6389519D01*
X12044787Y6413815D01*
X12042709Y6415894D01*
X12035807Y6422796D01*
X12033728Y6424874D01*
X12009432Y6449170D01*
X12007353Y6451249D01*
X12000452Y6458151D01*
X11998373Y6460230D01*
X11974077Y6484526D01*
X11971998Y6486605D01*
X11965097Y6493506D01*
X11963017Y6495585D01*
X11938722Y6519881D01*
X11936643Y6521960D01*
X11929741Y6528861D01*
X11901287Y6557315D01*
X11820694Y6476722D01*
X11817293Y6475313D01*
X11603892Y6261912D01*
X11564402D01*
X10778941Y7047373D01*
Y7730129D01*
X10773707Y7742765D01*
X9910075Y8606397D01*
X9914936Y8618130D01*
X10005421D01*
X10018057Y8623364D01*
X10032936Y8638243D01*
X10038170Y8650879D01*
Y8887821D01*
X10032936Y8900457D01*
X10030757Y8902636D01*
X10018121Y8907870D01*
X9859817D01*
X9855293Y8918793D01*
X9826500Y8930720D01*
D02*
G37*
G36*
X8652600Y8713700D02*
X8604901D01*
Y8636000D01*
X8652600D01*
Y8713700D01*
D02*
G37*
G36*
X8579501D02*
X8531800D01*
Y8636000D01*
X8579501D01*
Y8713700D01*
D02*
G37*
G36*
X11671300Y8793820D02*
X11642507Y8781893D01*
X11630580Y8753100D01*
Y8658100D01*
X11637593Y8641170D01*
X11629107Y8628470D01*
X11603421D01*
X11596365Y8639030D01*
X11604265Y8658100D01*
Y8692900D01*
X11544300D01*
Y8705600D01*
D01*
Y8692900D01*
X11484335D01*
Y8658100D01*
X11492235Y8639030D01*
X11485179Y8628470D01*
X11462802D01*
X11450742Y8640530D01*
X11458020Y8658100D01*
Y8753100D01*
X11446093Y8781893D01*
X11417300Y8793820D01*
X11388507Y8781893D01*
X11376580Y8753100D01*
Y8658100D01*
X11388507Y8629307D01*
X11417300Y8617381D01*
X11421576Y8619152D01*
X11442764Y8597964D01*
X11455400Y8592730D01*
X11666130D01*
Y7964214D01*
X11671364Y7951578D01*
X12188696Y7434246D01*
X12181502Y7423479D01*
X12179300Y7424391D01*
X12155972Y7414728D01*
X12146309Y7391400D01*
X12155972Y7368072D01*
X12179300Y7358409D01*
X12182141Y7359585D01*
X12261986Y7279741D01*
X12251163Y7268918D01*
X12323924Y7196157D01*
X12396685Y7123395D01*
X12414505Y7141214D01*
X12401932Y7153787D01*
X12424715Y7176570D01*
X12420123Y7181162D01*
X12427317Y7191928D01*
X12431616Y7190147D01*
X12447015Y7196526D01*
X12453394Y7211925D01*
X12447015Y7227324D01*
X12355091Y7319248D01*
X12353635Y7319851D01*
X11701870Y7971616D01*
Y8625479D01*
Y8633598D01*
X11712020Y8658100D01*
Y8753100D01*
X11700093Y8781893D01*
X11671300Y8793820D01*
D02*
G37*
G36*
X16306320Y8790720D02*
X16231081D01*
Y8620480D01*
X16306320D01*
Y8790720D01*
D02*
G37*
G36*
X15506219D02*
X15430980D01*
Y8620480D01*
X15506219D01*
Y8790720D01*
D02*
G37*
G36*
X14668021D02*
X14592780D01*
Y8620480D01*
X14668021D01*
Y8790720D01*
D02*
G37*
G36*
X13918719D02*
X13843480D01*
Y8620480D01*
X13918719D01*
Y8790720D01*
D02*
G37*
G36*
X12978920D02*
X12903680D01*
Y8620480D01*
X12978920D01*
Y8790720D01*
D02*
G37*
G36*
X12178820D02*
X12103580D01*
Y8620480D01*
X12178820D01*
Y8790720D01*
D02*
G37*
G36*
X11327920D02*
X11252680D01*
Y8620480D01*
X11327920D01*
Y8790720D01*
D02*
G37*
G36*
X10515120D02*
X10439880D01*
Y8620480D01*
X10515120D01*
Y8790720D01*
D02*
G37*
G36*
X16582664Y8692900D02*
X16535400D01*
Y8603396D01*
X16565102Y8615699D01*
X16582664Y8658100D01*
Y8692900D01*
D02*
G37*
G36*
X10791465D02*
X10744200D01*
Y8603396D01*
X10773901Y8615699D01*
X10791465Y8658100D01*
Y8692900D01*
D02*
G37*
G36*
X14944365D02*
X14897099D01*
Y8603396D01*
X14926801Y8615699D01*
X14944365Y8658100D01*
Y8692900D01*
D02*
G37*
G36*
X14195065D02*
X14147800D01*
Y8603396D01*
X14177501Y8615699D01*
X14195065Y8658100D01*
Y8692900D01*
D02*
G37*
G36*
X14871700D02*
X14824435D01*
Y8658100D01*
X14841998Y8615699D01*
X14871700Y8603396D01*
Y8692900D01*
D02*
G37*
G36*
X14122400D02*
X14075134D01*
Y8658100D01*
X14092699Y8615699D01*
X14122400Y8603396D01*
Y8692900D01*
D02*
G37*
G36*
X16510001D02*
X16462735D01*
Y8658100D01*
X16480299Y8615699D01*
X16510001Y8603396D01*
Y8692900D01*
D02*
G37*
G36*
X10718800D02*
X10671535D01*
Y8658100D01*
X10689099Y8615699D01*
X10718800Y8603396D01*
Y8692900D01*
D02*
G37*
G36*
X9286500Y8676720D02*
X9191500D01*
X9162707Y8664793D01*
X9158183Y8653870D01*
X9055100D01*
X9042464Y8648636D01*
X8755598Y8361770D01*
X8159478D01*
X8144333Y8398333D01*
X8089900Y8420880D01*
X8035467Y8398333D01*
X8012920Y8343900D01*
X8035467Y8289467D01*
X8089900Y8266920D01*
X8144333Y8289467D01*
X8159478Y8326030D01*
X8763000D01*
X8775636Y8331264D01*
X9062502Y8618130D01*
X9158183D01*
X9162707Y8607207D01*
X9191500Y8595280D01*
X9286500D01*
X9315293Y8607207D01*
X9327220Y8636000D01*
X9315293Y8664793D01*
X9286500Y8676720D01*
D02*
G37*
G36*
X16649699Y8793820D02*
X16620908Y8781893D01*
X16608980Y8753100D01*
Y8658100D01*
X16620908Y8629307D01*
X16631830Y8624783D01*
Y8582081D01*
X16627419Y8577670D01*
X16417981D01*
X16413570Y8582081D01*
Y8624783D01*
X16424493Y8629307D01*
X16436420Y8658100D01*
Y8753100D01*
X16424493Y8781893D01*
X16395700Y8793820D01*
X16366907Y8781893D01*
X16354980Y8753100D01*
Y8658100D01*
X16366907Y8629307D01*
X16377831Y8624783D01*
Y8541802D01*
X16197798Y8361770D01*
X15506700D01*
X15494064Y8356536D01*
X15346898Y8209370D01*
X14740343D01*
X14727705Y8204136D01*
X14466240Y7942670D01*
X13796075D01*
X13783440Y7937436D01*
X12936497Y7090493D01*
X12933798Y7091131D01*
X12929823Y7105118D01*
X13782436Y7957730D01*
X14452600D01*
X14465236Y7962964D01*
X14726701Y8224430D01*
X15328900D01*
X15341536Y8229664D01*
X15595535Y8483664D01*
X15600771Y8496300D01*
Y8552451D01*
X15618822D01*
X15624081Y8554630D01*
X15822021D01*
X15834657Y8559864D01*
X15849536Y8574743D01*
X15854770Y8587379D01*
Y8619522D01*
X15878394Y8629307D01*
X15890320Y8658100D01*
Y8753100D01*
X15878394Y8781893D01*
X15849600Y8793820D01*
X15820807Y8781893D01*
X15808881Y8753100D01*
Y8658100D01*
X15819031Y8633598D01*
Y8594781D01*
X15814619Y8590370D01*
X15737041D01*
X15734512Y8603070D01*
X15765001Y8615699D01*
X15782565Y8658100D01*
Y8692900D01*
X15722600D01*
X15662634D01*
Y8658100D01*
X15680199Y8615699D01*
X15710687Y8603070D01*
X15708160Y8590370D01*
X15621001D01*
X15615739Y8588191D01*
X15605180D01*
X15600771Y8592602D01*
Y8619522D01*
X15624393Y8629307D01*
X15636320Y8658100D01*
Y8753100D01*
X15624393Y8781893D01*
X15595599Y8793820D01*
X15566808Y8781893D01*
X15554880Y8753100D01*
Y8658100D01*
X15565030Y8633598D01*
Y8503702D01*
X15321498Y8260170D01*
X14719299D01*
X14706664Y8254936D01*
X14445198Y7993470D01*
X13775034D01*
X13762398Y7988236D01*
X12897720Y7123558D01*
X12885020D01*
X12881506Y7127073D01*
X12879427Y7129152D01*
X12855132Y7153447D01*
X12853052Y7155527D01*
X12846152Y7162428D01*
X12844070Y7164507D01*
X12823508Y7185070D01*
X12822195Y7201718D01*
X13663506Y8043028D01*
X14309299D01*
X14321935Y8048262D01*
X14782736Y8509064D01*
X14787970Y8521700D01*
Y8529230D01*
X15011400D01*
X15024036Y8534464D01*
X15038914Y8549343D01*
X15044148Y8561979D01*
Y8583021D01*
X15041969Y8588282D01*
Y8633598D01*
X15052119Y8658100D01*
Y8753100D01*
X15040193Y8781893D01*
X15011400Y8793820D01*
X14982607Y8781893D01*
X14970680Y8753100D01*
Y8658100D01*
X14982607Y8629307D01*
X15006230Y8619522D01*
Y8585200D01*
X15008409Y8579939D01*
Y8569381D01*
X15003998Y8564970D01*
X14792381D01*
X14787970Y8569381D01*
Y8633598D01*
X14798120Y8658100D01*
Y8753100D01*
X14786192Y8781893D01*
X14757401Y8793820D01*
X14728607Y8781893D01*
X14716679Y8753100D01*
Y8658100D01*
X14728607Y8629307D01*
X14752229Y8619522D01*
Y8529102D01*
X14301897Y8078768D01*
X13656102D01*
X13643466Y8073534D01*
X12799532Y7229599D01*
X12797079Y7230483D01*
X12793798Y7245163D01*
X14020737Y8472101D01*
X14025970Y8484737D01*
Y8516530D01*
X14236700D01*
X14249336Y8521764D01*
X14274736Y8547164D01*
X14279970Y8559800D01*
Y8624783D01*
X14290894Y8629307D01*
X14302820Y8658100D01*
Y8753100D01*
X14290894Y8781893D01*
X14262100Y8793820D01*
X14233307Y8781893D01*
X14221381Y8753100D01*
Y8658100D01*
X14233307Y8629307D01*
X14244231Y8624783D01*
Y8567202D01*
X14229298Y8552270D01*
X14030380D01*
X14025970Y8556681D01*
Y8624783D01*
X14036893Y8629307D01*
X14048820Y8658100D01*
Y8753100D01*
X14036893Y8781893D01*
X14008099Y8793820D01*
X13979308Y8781893D01*
X13967380Y8753100D01*
Y8658100D01*
X13979308Y8629307D01*
X13990230Y8624783D01*
Y8549279D01*
Y8492139D01*
X12762054Y7263963D01*
X12757105Y7265573D01*
X12753630Y7280058D01*
X13093636Y7620064D01*
X13098869Y7632700D01*
Y8565151D01*
X13116920D01*
X13122182Y8567330D01*
X13320120D01*
X13332758Y8572564D01*
X13347636Y8587443D01*
X13352870Y8600079D01*
Y8633598D01*
X13363020Y8658100D01*
Y8753100D01*
X13351093Y8781893D01*
X13322301Y8793820D01*
X13293507Y8781893D01*
X13281580Y8753100D01*
Y8658100D01*
X13293507Y8629307D01*
X13317130Y8619522D01*
Y8607481D01*
X13312720Y8603070D01*
X13239761D01*
X13237285Y8615526D01*
X13237701Y8615699D01*
X13255264Y8658100D01*
Y8692900D01*
X13195300D01*
X13135335D01*
Y8658100D01*
X13152899Y8615699D01*
X13153316Y8615526D01*
X13150838Y8603070D01*
X13119099D01*
X13113840Y8600891D01*
X13103281D01*
X13098869Y8605302D01*
Y8633598D01*
X13109019Y8658100D01*
Y8753100D01*
X13097093Y8781893D01*
X13068300Y8793820D01*
X13039507Y8781893D01*
X13027580Y8753100D01*
Y8658100D01*
X13039507Y8629307D01*
X13063130Y8619522D01*
Y8597900D01*
Y7640102D01*
X12723055Y7300027D01*
X12711062Y7301304D01*
X12710300Y7314242D01*
X12827251Y7431193D01*
X12829494Y7432122D01*
X13006915Y7609543D01*
X13012149Y7622179D01*
Y7643221D01*
X13006915Y7655857D01*
X12552770Y8110002D01*
Y8600079D01*
Y8633598D01*
X12562920Y8658100D01*
Y8753100D01*
X12550993Y8781893D01*
X12522200Y8793820D01*
X12493407Y8781893D01*
X12481480Y8753100D01*
Y8658100D01*
X12493407Y8629307D01*
X12495427Y8628470D01*
X12492901Y8615770D01*
X12449061D01*
X12442005Y8626330D01*
X12455165Y8658100D01*
Y8692900D01*
X12395200D01*
X12335235D01*
Y8658100D01*
X12348395Y8626330D01*
X12341339Y8615770D01*
X12303181D01*
X12298770Y8620181D01*
Y8633598D01*
X12308920Y8658100D01*
Y8753100D01*
X12296993Y8781893D01*
X12268200Y8793820D01*
X12239407Y8781893D01*
X12227480Y8753100D01*
Y8658100D01*
X12239407Y8629307D01*
X12263030Y8619522D01*
Y8612779D01*
X12268264Y8600143D01*
X12283143Y8585264D01*
X12295779Y8580030D01*
X12517030D01*
Y8102600D01*
X12522264Y8089964D01*
X12976408Y7635819D01*
Y7629581D01*
X12805151Y7458323D01*
X12802908Y7457394D01*
X12677046Y7331532D01*
X12676275Y7332303D01*
X12555897Y7211925D01*
X12582272Y7185550D01*
X12584351Y7183471D01*
X12591252Y7176569D01*
X12593332Y7174491D01*
X12617628Y7150195D01*
X12619706Y7148115D01*
X12626608Y7141214D01*
X12628687Y7139135D01*
X12652983Y7114839D01*
X12655062Y7112760D01*
X12661963Y7105859D01*
X12664042Y7103780D01*
X12688338Y7079484D01*
X12690417Y7077405D01*
X12697318Y7070504D01*
X12699398Y7068425D01*
X12723693Y7044129D01*
X12725772Y7042050D01*
X12732674Y7035148D01*
X12734753Y7033069D01*
X12759049Y7008774D01*
X12761127Y7006694D01*
X12768029Y6999793D01*
X12770108Y6997714D01*
X12794404Y6973418D01*
X12803384Y6964438D01*
X12805463Y6962359D01*
X12829759Y6938063D01*
X12831837Y6935984D01*
X12838739Y6929082D01*
X12840817Y6927004D01*
X12861522Y6906300D01*
X12848950Y6893727D01*
X12866769Y6875908D01*
X12939529Y6948670D01*
X13012292Y7021431D01*
X13001469Y7032254D01*
X13122720Y7153506D01*
X13196819D01*
X13197372Y7152172D01*
X13220700Y7142509D01*
X13244028Y7152172D01*
X13253691Y7175500D01*
X13244028Y7198828D01*
X13220700Y7208491D01*
X13197372Y7198828D01*
X13196819Y7197494D01*
X13113611D01*
X13110866Y7196357D01*
X13103671Y7207124D01*
X13803477Y7906930D01*
X14473642D01*
X14486278Y7912164D01*
X14747745Y8173630D01*
X15354300D01*
X15366936Y8178864D01*
X15514102Y8326030D01*
X16205200D01*
X16217836Y8331264D01*
X16408336Y8521764D01*
X16413570Y8534400D01*
Y8541930D01*
X16613997D01*
X16619258Y8529230D01*
X16210498Y8120470D01*
X15392400D01*
X15379764Y8115236D01*
X15189264Y7924736D01*
X15184030Y7912100D01*
Y7703789D01*
X15178572Y7701528D01*
X15168909Y7678200D01*
X15178572Y7654872D01*
X15201900Y7645209D01*
X15225227Y7654872D01*
X15234891Y7678200D01*
X15225227Y7701528D01*
X15219769Y7703789D01*
Y7904698D01*
X15399802Y8084730D01*
X16217900D01*
X16230536Y8089964D01*
X16644402Y8503830D01*
X17456676D01*
X17475465Y8458465D01*
X17538699Y8432273D01*
X17601935Y8458465D01*
X17628127Y8521700D01*
X17601935Y8584935D01*
X17538699Y8611127D01*
X17475465Y8584935D01*
X17456676Y8539570D01*
X16657825D01*
X16652563Y8552270D01*
X16662337Y8562043D01*
X16667570Y8574679D01*
Y8624783D01*
X16678493Y8629307D01*
X16690421Y8658100D01*
Y8753100D01*
X16678493Y8781893D01*
X16649699Y8793820D01*
D02*
G37*
G36*
X10858500D02*
X10829707Y8781893D01*
X10817780Y8753100D01*
Y8658100D01*
X10829707Y8629307D01*
X10840630Y8624783D01*
Y8573198D01*
X10845864Y8560562D01*
X10853330Y8553096D01*
Y8543981D01*
X10848919Y8539570D01*
X10624602D01*
X10622370Y8541802D01*
Y8624783D01*
X10633293Y8629307D01*
X10645220Y8658100D01*
Y8753100D01*
X10633293Y8781893D01*
X10604500Y8793820D01*
X10575707Y8781893D01*
X10563780Y8753100D01*
Y8658100D01*
X10575707Y8629307D01*
X10586630Y8624783D01*
Y8534400D01*
X10591864Y8521764D01*
X10604564Y8509064D01*
X10617200Y8503830D01*
X10856321D01*
X10868957Y8509064D01*
X10883160Y8523266D01*
X12206077Y7200348D01*
X12198271Y7190882D01*
X12196192Y7188803D01*
X12171896Y7164507D01*
X12169817Y7162428D01*
X12162916Y7155527D01*
X12160837Y7153447D01*
X12136541Y7129152D01*
X12134462Y7127073D01*
X12127560Y7120171D01*
X12125482Y7118092D01*
X12101186Y7093796D01*
X12099107Y7091718D01*
X12092205Y7084816D01*
X12090126Y7082737D01*
X12065831Y7058441D01*
X12063751Y7056362D01*
X12056850Y7049461D01*
X12054771Y7047382D01*
X12030475Y7023086D01*
X12028396Y7021007D01*
X12021495Y7014106D01*
X12019416Y7012026D01*
X11996445Y6989056D01*
X11993041Y6985652D01*
X11980794Y6986746D01*
X11894454Y7073086D01*
X11894791Y7073900D01*
X11885128Y7097228D01*
X11861800Y7106891D01*
X11838472Y7097228D01*
X11828809Y7073900D01*
X11838472Y7050572D01*
X11861800Y7040909D01*
X11863655Y7041677D01*
X11943788Y6961543D01*
X11932965Y6950721D01*
X12005727Y6877959D01*
X12078488Y6805198D01*
X12096307Y6823017D01*
X12083735Y6835589D01*
X12104439Y6856293D01*
X12106175Y6858029D01*
X12115985Y6866177D01*
X12312361Y6669800D01*
X12311409Y6667500D01*
X12321072Y6644172D01*
X12344400Y6634509D01*
X12367728Y6644172D01*
X12377391Y6667500D01*
X12367728Y6690828D01*
X12344400Y6700491D01*
X12335784Y6696922D01*
X12141951Y6890755D01*
X12149405Y6901260D01*
X12150853Y6902708D01*
X12175149Y6927004D01*
X12177228Y6929082D01*
X12184130Y6935984D01*
X12186209Y6938063D01*
X12210504Y6962359D01*
X12212584Y6964438D01*
X12219485Y6971339D01*
X12221564Y6973418D01*
X12245860Y6997714D01*
X12247939Y6999793D01*
X12254840Y7006694D01*
X12256919Y7008774D01*
X12281215Y7033069D01*
X12283294Y7035148D01*
X12290196Y7042050D01*
X12292274Y7044129D01*
X12316570Y7068425D01*
X12318649Y7070504D01*
X12325551Y7077405D01*
X12327630Y7079484D01*
X12348333Y7100188D01*
X12360906Y7087616D01*
X12378725Y7105435D01*
X12305964Y7178196D01*
X12233202Y7250957D01*
X12219608Y7237363D01*
X10883836Y8573133D01*
X10883836Y8573134D01*
X10876370Y8580600D01*
Y8624783D01*
X10887293Y8629307D01*
X10899220Y8658100D01*
Y8753100D01*
X10887293Y8781893D01*
X10858500Y8793820D01*
D02*
G37*
G36*
X8652600Y8610600D02*
X8604901D01*
Y8532900D01*
X8652600D01*
Y8610600D01*
D02*
G37*
G36*
X8579501D02*
X8531800D01*
Y8532900D01*
X8579501D01*
Y8610600D01*
D02*
G37*
G36*
X9864120Y8546620D02*
X9693880D01*
Y8471380D01*
X9864120D01*
Y8546620D01*
D02*
G37*
G36*
X9286500Y8549720D02*
X9191500D01*
X9162707Y8537793D01*
X9150781Y8509000D01*
X9162707Y8480207D01*
X9191500Y8468280D01*
X9286500D01*
X9315293Y8480207D01*
X9327220Y8509000D01*
X9315293Y8537793D01*
X9286500Y8549720D01*
D02*
G37*
G36*
X17551401Y8371112D02*
Y8280400D01*
X17642113D01*
X17615543Y8344543D01*
X17551401Y8371112D01*
D02*
G37*
G36*
X17525999D02*
X17461858Y8344543D01*
X17435287Y8280400D01*
X17525999D01*
Y8371112D01*
D02*
G37*
G36*
X17642113Y8255000D02*
X17551401D01*
Y8164288D01*
X17615543Y8190857D01*
X17642113Y8255000D01*
D02*
G37*
G36*
X17525999D02*
X17435287D01*
X17461858Y8190857D01*
X17525999Y8164288D01*
Y8255000D01*
D02*
G37*
G36*
X8661800Y8015200D02*
X8614100D01*
Y7937500D01*
X8661800D01*
Y8015200D01*
D02*
G37*
G36*
X8588700D02*
X8541000D01*
Y7937500D01*
X8588700D01*
Y8015200D01*
D02*
G37*
G36*
X9004300Y8107770D02*
X8013700D01*
X8001064Y8102536D01*
X7594104Y7695576D01*
X7569200Y7705891D01*
X7517446Y7684454D01*
X7496009Y7632700D01*
X7517446Y7580946D01*
X7555533Y7565170D01*
X7553006Y7552470D01*
X7420702D01*
X7374356Y7598816D01*
X7388391Y7632700D01*
X7366954Y7684454D01*
X7315200Y7705891D01*
X7263446Y7684454D01*
X7242009Y7632700D01*
X7263446Y7580946D01*
X7315200Y7559509D01*
X7349084Y7573544D01*
X7400664Y7521964D01*
X7413300Y7516730D01*
X8880800D01*
X8893436Y7521964D01*
X9049802Y7678330D01*
X9166998D01*
X9191500Y7668180D01*
X9286500D01*
X9315293Y7680107D01*
X9327220Y7708900D01*
X9315293Y7737693D01*
X9286500Y7749620D01*
X9191500D01*
X9162707Y7737693D01*
X9152922Y7714070D01*
X9042400D01*
X9029764Y7708836D01*
X8873398Y7552470D01*
X7585394D01*
X7582867Y7565170D01*
X7620954Y7580946D01*
X7642391Y7632700D01*
X7624636Y7675564D01*
X8021102Y8072030D01*
X8996898D01*
X9131364Y7937564D01*
X9144000Y7932330D01*
X9166998D01*
X9191500Y7922180D01*
X9286500D01*
X9315293Y7934107D01*
X9327220Y7962900D01*
X9315293Y7991693D01*
X9286500Y8003620D01*
X9191500D01*
X9162707Y7991693D01*
X9157738Y7979695D01*
X9142757Y7976716D01*
X9016936Y8102536D01*
X9004300Y8107770D01*
D02*
G37*
G36*
X9826500Y7895865D02*
X9791700D01*
Y7848600D01*
X9881204D01*
X9868901Y7878301D01*
X9826500Y7895865D01*
D02*
G37*
G36*
X9766300D02*
X9731500D01*
X9689099Y7878301D01*
X9676796Y7848600D01*
X9766300D01*
Y7895865D01*
D02*
G37*
G36*
X8661800Y7912100D02*
X8614100D01*
Y7834400D01*
X8661800D01*
Y7912100D01*
D02*
G37*
G36*
X8588700D02*
X8541000D01*
Y7834400D01*
X8588700D01*
Y7912100D01*
D02*
G37*
G36*
X7382820Y7954320D02*
X7247580D01*
Y7819080D01*
X7382820D01*
Y7954320D01*
D02*
G37*
G36*
X8764020Y7997420D02*
X8678780D01*
Y7852180D01*
X8699406D01*
Y7768820D01*
X8678780D01*
Y7623580D01*
X8764020D01*
Y7768820D01*
X8743394D01*
Y7788506D01*
X8925434D01*
X8966200Y7771620D01*
X9020633Y7794167D01*
X9034070Y7826606D01*
X9154630D01*
X9162707Y7807107D01*
X9191500Y7795180D01*
X9286500D01*
X9315293Y7807107D01*
X9327220Y7835900D01*
X9315293Y7864693D01*
X9286500Y7876620D01*
X9191500D01*
X9176954Y7870594D01*
X9034070D01*
X9020633Y7903033D01*
X8966200Y7925580D01*
X8911767Y7903033D01*
X8889220Y7848600D01*
X8891517Y7843054D01*
X8884462Y7832494D01*
X8743394D01*
Y7852180D01*
X8764020D01*
Y7997420D01*
D02*
G37*
G36*
X9881204Y7823200D02*
X9791700D01*
Y7775935D01*
X9826500D01*
X9868901Y7793499D01*
X9881204Y7823200D01*
D02*
G37*
G36*
X9766300D02*
X9676796D01*
X9689099Y7793499D01*
X9731500Y7775935D01*
X9766300D01*
Y7823200D01*
D02*
G37*
G36*
X15612421Y7903520D02*
X15477180D01*
Y7768280D01*
X15612421D01*
Y7903520D01*
D02*
G37*
G36*
X11078520Y7878120D02*
X10943280D01*
Y7742880D01*
X11078520D01*
Y7878120D01*
D02*
G37*
G36*
X8661800Y7786600D02*
X8614100D01*
Y7708900D01*
X8661800D01*
Y7786600D01*
D02*
G37*
G36*
X8588700D02*
X8541000D01*
Y7708900D01*
X8588700D01*
Y7786600D01*
D02*
G37*
G36*
X14972820Y7716120D02*
X14897580D01*
Y7650880D01*
X14972820D01*
Y7716120D01*
D02*
G37*
G36*
X14748820Y7745820D02*
X14613580D01*
Y7610580D01*
X14748820D01*
Y7745820D01*
D02*
G37*
G36*
X8661800Y7683500D02*
X8614100D01*
Y7605800D01*
X8661800D01*
Y7683500D01*
D02*
G37*
G36*
X8588700D02*
X8541000D01*
Y7605800D01*
X8588700D01*
Y7683500D01*
D02*
G37*
G36*
X9864120Y7619520D02*
X9693880D01*
Y7544280D01*
X9864120D01*
Y7619520D01*
D02*
G37*
G36*
X9286500Y7622620D02*
X9191500D01*
X9162707Y7610693D01*
X9150781Y7581900D01*
X9162707Y7553107D01*
X9191500Y7541180D01*
X9286500D01*
X9315293Y7553107D01*
X9327220Y7581900D01*
X9315293Y7610693D01*
X9286500Y7622620D01*
D02*
G37*
G36*
X17621320Y8096320D02*
X17456081D01*
Y7956352D01*
X16992664Y7492936D01*
X16987430Y7480300D01*
Y6833134D01*
X16966666Y6812370D01*
X15272803D01*
X15125636Y6959536D01*
X15113000Y6964770D01*
X13587202D01*
X13584724Y6968400D01*
X13591432Y6981100D01*
X14288770D01*
X14301405Y6986334D01*
X14643036Y7327964D01*
X14648270Y7340600D01*
Y7551330D01*
X15484271D01*
X15493047Y7530146D01*
X15544800Y7508709D01*
X15596555Y7530146D01*
X15617992Y7581900D01*
X15596555Y7633654D01*
X15544800Y7655091D01*
X15493047Y7633654D01*
X15473750Y7587070D01*
X14630400D01*
X14617764Y7581836D01*
X14612531Y7569200D01*
Y7348002D01*
X14281367Y7016840D01*
X14255589D01*
X14249138Y7029540D01*
X14256992Y7048500D01*
X14247328Y7071828D01*
X14224001Y7081491D01*
X14200671Y7071828D01*
X14198412Y7066370D01*
X13272198D01*
X13259563Y7061136D01*
X13109853Y6911426D01*
X13097153D01*
X13093637Y6914941D01*
X13091557Y6917020D01*
X13067262Y6941316D01*
X13065182Y6943395D01*
X13058282Y6950296D01*
X13056203Y6952375D01*
X13035500Y6973079D01*
X13048071Y6985652D01*
X13030252Y7003471D01*
X12957491Y6930709D01*
X12884729Y6857948D01*
X12902548Y6840129D01*
X12915121Y6852701D01*
X12935825Y6831997D01*
X12937904Y6829918D01*
X12944804Y6823017D01*
X12946884Y6820938D01*
X12971181Y6796642D01*
X12973259Y6794563D01*
X12980161Y6787661D01*
X12982239Y6785583D01*
X13008614Y6759208D01*
X13015517Y6752306D01*
X13041891Y6725931D01*
X13043970Y6723852D01*
X13050871Y6716951D01*
X13052950Y6714872D01*
X13077246Y6690576D01*
X13079324Y6688497D01*
X13086226Y6681595D01*
X13088306Y6679517D01*
X13114680Y6653142D01*
X13235059Y6773520D01*
X13208682Y6799895D01*
X13206606Y6801974D01*
X13199702Y6808875D01*
X13197624Y6810954D01*
X13173109Y6835468D01*
X13168622Y6848941D01*
X13300781Y6981100D01*
X13521851D01*
X13526814Y6968400D01*
X13517909Y6946900D01*
X13527573Y6923572D01*
X13550900Y6913909D01*
X13574228Y6923572D01*
X13576489Y6929030D01*
X15105598D01*
X15252763Y6781864D01*
X15265401Y6776630D01*
X16969943D01*
X16979900Y6772506D01*
X16995451Y6778948D01*
X17020853Y6804348D01*
X17027293Y6819900D01*
X17023170Y6829856D01*
Y7472898D01*
X17481352Y7931080D01*
X17621320D01*
Y8096320D01*
D02*
G37*
G36*
X11010900Y7629691D02*
X10959146Y7608254D01*
X10937709Y7556500D01*
X10959146Y7504746D01*
X11010900Y7483309D01*
X11062654Y7504746D01*
X11084091Y7556500D01*
X11062654Y7608254D01*
X11010900Y7629691D01*
D02*
G37*
G36*
X14934720Y7398620D02*
X14859480D01*
Y7333380D01*
X14934720D01*
Y7398620D01*
D02*
G37*
G36*
X11023600Y7389676D02*
Y7315200D01*
X11098076D01*
X11076262Y7367862D01*
X11023600Y7389676D01*
D02*
G37*
G36*
X10998200D02*
X10945538Y7367862D01*
X10923724Y7315200D01*
X10998200D01*
Y7389676D01*
D02*
G37*
G36*
X7569200Y7451891D02*
X7517446Y7430454D01*
X7496009Y7378700D01*
X7517446Y7326946D01*
X7562572Y7308254D01*
X7563981Y7307670D01*
X7562725Y7301358D01*
X7562726D01*
X7562725Y7301357D01*
X7552671Y7294970D01*
X7424202D01*
X7374356Y7344816D01*
X7388391Y7378700D01*
X7366954Y7430454D01*
X7315200Y7451891D01*
X7263446Y7430454D01*
X7242009Y7378700D01*
X7263446Y7326946D01*
X7315200Y7305509D01*
X7349084Y7319544D01*
X7404163Y7264464D01*
X7416800Y7259230D01*
X7955498D01*
X8483664Y6731064D01*
X8496300Y6725830D01*
X8839200D01*
X8851836Y6731064D01*
X9037102Y6916330D01*
X9158183D01*
X9162707Y6905407D01*
X9191500Y6893480D01*
X9286500D01*
X9315293Y6905407D01*
X9327220Y6934200D01*
X9315293Y6962993D01*
X9286500Y6974920D01*
X9191500D01*
X9162707Y6962993D01*
X9158183Y6952070D01*
X9029700D01*
X9017064Y6946836D01*
X8831798Y6761570D01*
X8503702D01*
X7975536Y7289736D01*
X7962900Y7294970D01*
X7585729D01*
X7575674Y7301357D01*
Y7301358D01*
X7575675D01*
X7574419Y7307670D01*
X7575828Y7308254D01*
X7620954Y7326946D01*
X7634989Y7360830D01*
X9022298D01*
X9163276Y7219852D01*
X9162707Y7216993D01*
X9150781Y7188200D01*
X9162707Y7159407D01*
X9191500Y7147480D01*
X9286500D01*
X9315293Y7159407D01*
X9327220Y7188200D01*
X9315293Y7216993D01*
X9286500Y7228920D01*
X9204753D01*
X9042336Y7391336D01*
X9029700Y7396570D01*
X7634989D01*
X7620954Y7430454D01*
X7569200Y7451891D01*
D02*
G37*
G36*
X15544800Y7401091D02*
X15493047Y7379654D01*
X15471609Y7327900D01*
X15493047Y7276146D01*
X15544800Y7254709D01*
X15596555Y7276146D01*
X15617992Y7327900D01*
X15596555Y7379654D01*
X15544800Y7401091D01*
D02*
G37*
G36*
X11098076Y7289800D02*
X11023600D01*
Y7215324D01*
X11076262Y7237138D01*
X11098076Y7289800D01*
D02*
G37*
G36*
X10998200D02*
X10923724D01*
X10945538Y7237138D01*
X10998200Y7215324D01*
Y7289800D01*
D02*
G37*
G36*
X8661800Y7278600D02*
X8614100D01*
Y7200900D01*
X8661800D01*
Y7278600D01*
D02*
G37*
G36*
X8588700D02*
X8541000D01*
Y7200900D01*
X8588700D01*
Y7278600D01*
D02*
G37*
G36*
X13679221Y7346620D02*
X13463980D01*
Y7131380D01*
X13679221D01*
Y7346620D01*
D02*
G37*
G36*
X14071600Y7355487D02*
X13989230Y7321369D01*
X13955113Y7239000D01*
X13989230Y7156631D01*
X14071600Y7122513D01*
X14153969Y7156631D01*
X14188087Y7239000D01*
X14153969Y7321369D01*
X14071600Y7355487D01*
D02*
G37*
G36*
X13821600D02*
X13739230Y7321369D01*
X13705113Y7239000D01*
X13739230Y7156631D01*
X13821600Y7122513D01*
X13903969Y7156631D01*
X13938087Y7239000D01*
X13903969Y7321369D01*
X13821600Y7355487D01*
D02*
G37*
G36*
X14681200Y7261391D02*
X14629446Y7239954D01*
X14608009Y7188200D01*
X14629446Y7136446D01*
X14681200Y7115009D01*
X14732954Y7136446D01*
X14754391Y7188200D01*
X14732954Y7239954D01*
X14681200Y7261391D01*
D02*
G37*
G36*
X8661800Y7175500D02*
X8614100D01*
Y7097800D01*
X8661800D01*
Y7175500D01*
D02*
G37*
G36*
X8588700D02*
X8541000D01*
Y7097800D01*
X8588700D01*
Y7175500D01*
D02*
G37*
G36*
X15557500Y7161076D02*
Y7086600D01*
X15631976D01*
X15610162Y7139262D01*
X15557500Y7161076D01*
D02*
G37*
G36*
X15532100D02*
X15479437Y7139262D01*
X15457623Y7086600D01*
X15532100D01*
Y7161076D01*
D02*
G37*
G36*
X9826500Y7121165D02*
X9791700D01*
Y7073900D01*
X9881204D01*
X9868901Y7103601D01*
X9826500Y7121165D01*
D02*
G37*
G36*
X9766300D02*
X9731500D01*
X9689099Y7103601D01*
X9676796Y7073900D01*
X9766300D01*
Y7121165D01*
D02*
G37*
G36*
X8764020Y7260820D02*
X8678780D01*
Y7115580D01*
X8699406D01*
Y6994120D01*
X8678780D01*
Y6848880D01*
X8764020D01*
Y6994120D01*
X8743394D01*
Y7032856D01*
X8895700D01*
X8911767Y6994067D01*
X8966200Y6971520D01*
X9020633Y6994067D01*
X9036700Y7032856D01*
X9162521D01*
X9162707Y7032407D01*
X9191500Y7020480D01*
X9286500D01*
X9315293Y7032407D01*
X9327220Y7061200D01*
X9315293Y7089993D01*
X9286500Y7101920D01*
X9191500D01*
X9162707Y7089993D01*
X9157261Y7076844D01*
X9031439D01*
X9020633Y7102933D01*
X8966200Y7125480D01*
X8911767Y7102933D01*
X8900961Y7076844D01*
X8743394D01*
Y7115580D01*
X8764020D01*
Y7260820D01*
D02*
G37*
G36*
X9881204Y7048500D02*
X9791700D01*
Y7001235D01*
X9826500D01*
X9868901Y7018799D01*
X9881204Y7048500D01*
D02*
G37*
G36*
X9766300D02*
X9676796D01*
X9689099Y7018799D01*
X9731500Y7001235D01*
X9766300D01*
Y7048500D01*
D02*
G37*
G36*
X15631976Y7061200D02*
X15557500D01*
Y6986724D01*
X15610162Y7008538D01*
X15631976Y7061200D01*
D02*
G37*
G36*
X15532100D02*
X15457623D01*
X15479437Y7008538D01*
X15532100Y6986724D01*
Y7061200D01*
D02*
G37*
G36*
X8661800Y7011900D02*
X8614100D01*
Y6934200D01*
X8661800D01*
Y7011900D01*
D02*
G37*
G36*
X8588700D02*
X8541000D01*
Y6934200D01*
X8588700D01*
Y7011900D01*
D02*
G37*
G36*
X8661800Y6908800D02*
X8614100D01*
Y6831100D01*
X8661800D01*
Y6908800D01*
D02*
G37*
G36*
X8588700D02*
X8541000D01*
Y6831100D01*
X8588700D01*
Y6908800D01*
D02*
G37*
G36*
X11633200Y7221191D02*
X11609872Y7211528D01*
X11600209Y7188200D01*
X11609872Y7164872D01*
X11615330Y7162611D01*
Y7024858D01*
X11620564Y7012222D01*
X11811159Y6821627D01*
X11810506Y6820074D01*
X11795493Y6817127D01*
X11630429Y6982191D01*
X11617793Y6987425D01*
X11538712D01*
X11536451Y6992884D01*
X11513123Y7002547D01*
X11489794Y6992884D01*
X11480131Y6969555D01*
X11489794Y6946227D01*
X11513123Y6936564D01*
X11536451Y6946227D01*
X11538712Y6951685D01*
X11610391D01*
X11784733Y6777343D01*
X11780909Y6773520D01*
X11901287Y6653142D01*
X11927662Y6679517D01*
X11929741Y6681595D01*
X11936643Y6688497D01*
X11938722Y6690576D01*
X11963017Y6714872D01*
X11965097Y6716951D01*
X11971998Y6723852D01*
X11974077Y6725931D01*
X11998373Y6750227D01*
X12000452Y6752306D01*
X12007353Y6759207D01*
X12009432Y6761287D01*
X12030136Y6781990D01*
X12042708Y6769418D01*
X12060528Y6787237D01*
X11987766Y6859999D01*
X11915005Y6932760D01*
X11897186Y6914941D01*
X11909758Y6902369D01*
X11889054Y6881665D01*
X11886975Y6879586D01*
X11880074Y6872685D01*
X11877995Y6870605D01*
X11854341Y6846951D01*
X11851620Y6844231D01*
X11838973Y6844358D01*
X11651070Y7032260D01*
Y7162611D01*
X11656528Y7164872D01*
X11666191Y7188200D01*
X11656528Y7211528D01*
X11633200Y7221191D01*
D02*
G37*
G36*
X9864120Y6844820D02*
X9693880D01*
Y6769580D01*
X9864120D01*
Y6844820D01*
D02*
G37*
G36*
X9286500Y6847920D02*
X9191500D01*
X9162707Y6835993D01*
X9150781Y6807200D01*
X9162707Y6778407D01*
X9191500Y6766480D01*
X9286500D01*
X9315293Y6778407D01*
X9327220Y6807200D01*
X9315293Y6835993D01*
X9286500Y6847920D01*
D02*
G37*
G36*
X14071600Y6805487D02*
X13989230Y6771369D01*
X13955113Y6689000D01*
X13989230Y6606631D01*
X14071600Y6572513D01*
X14153969Y6606631D01*
X14188087Y6689000D01*
X14153969Y6771369D01*
X14071600Y6805487D01*
D02*
G37*
G36*
X13821600D02*
X13739230Y6771369D01*
X13705113Y6689000D01*
X13739230Y6606631D01*
X13821600Y6572513D01*
X13903969Y6606631D01*
X13938087Y6689000D01*
X13903969Y6771369D01*
X13821600Y6805487D01*
D02*
G37*
G36*
X13571600D02*
X13489230Y6771369D01*
X13455113Y6689000D01*
X13489230Y6606631D01*
X13571600Y6572513D01*
X13653969Y6606631D01*
X13688087Y6689000D01*
X13653969Y6771369D01*
X13571600Y6805487D01*
D02*
G37*
G36*
X14658121Y6628920D02*
X14487880D01*
Y6553680D01*
X14658121D01*
Y6628920D01*
D02*
G37*
G36*
X15160500Y6632020D02*
X15065500D01*
X15036707Y6620093D01*
X15024780Y6591300D01*
X15036707Y6562507D01*
X15065500Y6550580D01*
X15160500D01*
X15189293Y6562507D01*
X15201221Y6591300D01*
X15189293Y6620093D01*
X15160500Y6632020D01*
D02*
G37*
G36*
X15770300Y6554700D02*
X15722600D01*
Y6477000D01*
X15770300D01*
Y6554700D01*
D02*
G37*
G36*
X15697200D02*
X15649500D01*
Y6477000D01*
X15697200D01*
Y6554700D01*
D02*
G37*
G36*
X13114680Y6557315D02*
X13088306Y6530940D01*
X13086226Y6528861D01*
X13079324Y6521960D01*
X13077246Y6519881D01*
X13052950Y6495585D01*
X13050871Y6493506D01*
X13043970Y6486605D01*
X13041891Y6484526D01*
X13017595Y6460230D01*
X13015515Y6458151D01*
X13008614Y6451249D01*
X13006535Y6449170D01*
X12982239Y6424874D01*
X12980161Y6422796D01*
X12973259Y6415894D01*
X12971181Y6413815D01*
X12946884Y6389519D01*
X12944804Y6387440D01*
X12937904Y6380539D01*
X12935825Y6378460D01*
X12911530Y6354164D01*
X12909450Y6352085D01*
X12902548Y6345184D01*
X12900468Y6343104D01*
X12876173Y6318809D01*
X12874094Y6316730D01*
X12867194Y6309828D01*
X12865114Y6307749D01*
X12840817Y6283453D01*
X12838739Y6281375D01*
X12829070Y6274060D01*
X12715093Y6388036D01*
X12702457Y6393270D01*
X12687489D01*
X12685228Y6398728D01*
X12661900Y6408391D01*
X12638572Y6398728D01*
X12628909Y6375400D01*
X12638572Y6352072D01*
X12661900Y6342409D01*
X12685228Y6352071D01*
X12699223Y6353362D01*
X12792403Y6260182D01*
X12778664Y6246443D01*
X12851425Y6173682D01*
X12924187Y6100921D01*
X12942006Y6118740D01*
X12935783Y6124962D01*
X12935783Y6137662D01*
X12951588Y6153466D01*
X12962086Y6160926D01*
X12974229Y6148783D01*
Y6058089D01*
X12968771Y6055828D01*
X12959109Y6032500D01*
X12968771Y6009172D01*
X12992101Y5999509D01*
X13015428Y6009172D01*
X13020906Y6022395D01*
X13033606Y6019869D01*
Y5942081D01*
X13032272Y5941528D01*
X13022609Y5918200D01*
X13032272Y5894872D01*
X13055600Y5885209D01*
X13078928Y5894872D01*
X13088591Y5918200D01*
X13078928Y5941528D01*
X13077594Y5942081D01*
Y6163678D01*
X13075113Y6169669D01*
X13085880Y6176863D01*
X13285916Y5976826D01*
Y4988653D01*
X13284264Y4987001D01*
X13279030Y4974365D01*
Y4973102D01*
X12573064Y4267136D01*
X12567830Y4254500D01*
Y3998321D01*
Y3967017D01*
X12556907Y3962493D01*
X12544980Y3933700D01*
Y3838700D01*
X12556907Y3809907D01*
X12585700Y3797980D01*
X12614493Y3809907D01*
X12626420Y3838700D01*
Y3933700D01*
X12614493Y3962493D01*
X12603570Y3967017D01*
Y3990919D01*
X12607981Y3995330D01*
X12683534D01*
X12686060Y3982630D01*
X12670299Y3976101D01*
X12652735Y3933700D01*
Y3898900D01*
X12712700D01*
X12772665D01*
Y3933700D01*
X12755101Y3976101D01*
X12739340Y3982630D01*
X12741866Y3995330D01*
X12817419D01*
X12821831Y3990919D01*
Y3967017D01*
X12810907Y3962493D01*
X12798980Y3933700D01*
Y3838700D01*
X12810907Y3809907D01*
X12839700Y3797980D01*
X12868494Y3809907D01*
X12880420Y3838700D01*
Y3933700D01*
X12868494Y3962493D01*
X12857570Y3967017D01*
Y3998321D01*
X12852336Y4010957D01*
X12837457Y4025836D01*
X12824821Y4031070D01*
X12603570D01*
Y4247098D01*
X13309537Y4953064D01*
X13314771Y4965700D01*
Y4966963D01*
X13316422Y4968615D01*
X13321655Y4981251D01*
Y5984228D01*
X13316422Y5996864D01*
X13064542Y6248746D01*
X13064899Y6251724D01*
X13078247Y6256337D01*
X13336716Y5997868D01*
Y4967611D01*
X13335065Y4965959D01*
X13329829Y4953323D01*
Y4049121D01*
Y3967017D01*
X13318907Y3962493D01*
X13306979Y3933700D01*
Y3838700D01*
X13318907Y3809907D01*
X13347701Y3797980D01*
X13376492Y3809907D01*
X13388420Y3838700D01*
Y3933700D01*
X13376492Y3962493D01*
X13365570Y3967017D01*
Y4041719D01*
X13369981Y4046130D01*
X13579419D01*
X13583830Y4041719D01*
Y3967017D01*
X13572906Y3962493D01*
X13560980Y3933700D01*
Y3838700D01*
X13572906Y3809907D01*
X13601700Y3797980D01*
X13630493Y3809907D01*
X13642419Y3838700D01*
Y3933700D01*
X13630493Y3962493D01*
X13619569Y3967017D01*
Y4049121D01*
X13614336Y4061757D01*
X13599457Y4076636D01*
X13586821Y4081870D01*
X13365570D01*
Y4945921D01*
X13367223Y4947574D01*
X13372456Y4960210D01*
Y6005270D01*
X13367223Y6017906D01*
X13099609Y6285519D01*
X13099919Y6288546D01*
X13113170Y6293256D01*
X13939430Y5466996D01*
Y4940300D01*
X13944664Y4927664D01*
X14396667Y4475660D01*
X14389165Y4468157D01*
X14383929Y4455521D01*
Y4229100D01*
X14389165Y4216464D01*
X14404044Y4201585D01*
X14416679Y4196351D01*
X14437721D01*
X14442982Y4198530D01*
X14492183D01*
X14496707Y4187607D01*
X14525500Y4175680D01*
X14620500D01*
X14649294Y4187607D01*
X14661220Y4216400D01*
X14649294Y4245193D01*
X14620500Y4257120D01*
X14525500D01*
X14496707Y4245193D01*
X14492183Y4234270D01*
X14439900D01*
X14434639Y4232091D01*
X14424081D01*
X14419670Y4236502D01*
Y4448119D01*
X14424081Y4452530D01*
X14492183D01*
X14496707Y4441607D01*
X14525500Y4429680D01*
X14620500D01*
X14649294Y4441607D01*
X14661220Y4470400D01*
X14649294Y4499193D01*
X14620500Y4511120D01*
X14525500D01*
X14496707Y4499193D01*
X14492183Y4488270D01*
X14434602D01*
X13975169Y4947702D01*
Y5474398D01*
X13969936Y5487034D01*
X13137064Y6319906D01*
X13141528Y6333403D01*
X13147624Y6334304D01*
X14004854Y5477074D01*
X14017490Y5471840D01*
X14162488D01*
X14461224Y5173103D01*
X14456364Y5161370D01*
X14429379D01*
X14416743Y5156136D01*
X14401865Y5141257D01*
X14396629Y5128621D01*
Y4904379D01*
X14401865Y4891743D01*
X14416743Y4876864D01*
X14429379Y4871630D01*
X14486922D01*
X14496707Y4848007D01*
X14525500Y4836080D01*
X14620500D01*
X14649294Y4848007D01*
X14661220Y4876800D01*
X14649294Y4905593D01*
X14620500Y4917520D01*
X14525500D01*
X14500998Y4907370D01*
X14436781D01*
X14432370Y4911781D01*
Y5121219D01*
X14436781Y5125630D01*
X14486922D01*
X14496707Y5102007D01*
X14525500Y5090080D01*
X14620500D01*
X14649294Y5102007D01*
X14661220Y5130800D01*
X14649294Y5159593D01*
X14620500Y5171520D01*
X14525500D01*
X14516911Y5167962D01*
X14182526Y5502346D01*
X14169890Y5507581D01*
X14024892D01*
X13179831Y6352641D01*
X13183310Y6367123D01*
X13185831Y6367940D01*
X13737106Y5816664D01*
X13749742Y5811430D01*
X14340799D01*
X14345830Y5803900D01*
Y5590179D01*
X14351064Y5577543D01*
X14365942Y5562664D01*
X14378580Y5557430D01*
X14500998D01*
X14525500Y5547280D01*
X14620500D01*
X14649294Y5559207D01*
X14661220Y5588000D01*
X14649294Y5616793D01*
X14620500Y5628720D01*
X14525500D01*
X14496707Y5616793D01*
X14486922Y5593170D01*
X14385982D01*
X14381570Y5597581D01*
Y5796498D01*
X14396503Y5811430D01*
X14500998D01*
X14525500Y5801280D01*
X14620500D01*
X14649294Y5813207D01*
X14661220Y5842000D01*
X14649294Y5870793D01*
X14620500Y5882720D01*
X14525500D01*
X14496707Y5870793D01*
X14486922Y5847170D01*
X13757144D01*
X13215916Y6388397D01*
X13219344Y6402930D01*
X13221846Y6403766D01*
X13605748Y6019864D01*
X13618384Y6014630D01*
X14162679D01*
X14175314Y6019864D01*
X14347881Y6192430D01*
X14492183D01*
X14496707Y6181507D01*
X14525500Y6169580D01*
X14620500D01*
X14649294Y6181507D01*
X14661220Y6210300D01*
X14649294Y6239093D01*
X14620500Y6251020D01*
X14525500D01*
X14496707Y6239093D01*
X14492183Y6228170D01*
X14347881D01*
X14343469Y6232581D01*
Y6442019D01*
X14347881Y6446430D01*
X14492183D01*
X14496707Y6435507D01*
X14525500Y6423580D01*
X14620500D01*
X14649294Y6435507D01*
X14661220Y6464300D01*
X14649294Y6493093D01*
X14620500Y6505020D01*
X14525500D01*
X14496707Y6493093D01*
X14492183Y6482170D01*
X14340479D01*
X14327843Y6476936D01*
X14312964Y6462057D01*
X14307730Y6449421D01*
Y6225179D01*
X14312964Y6212543D01*
X14315207Y6210300D01*
X14155276Y6050370D01*
X13625786D01*
X13209927Y6466228D01*
X13202826Y6469170D01*
X13114680Y6557315D01*
D02*
G37*
G36*
X15770300Y6451600D02*
X15722600D01*
Y6373900D01*
X15770300D01*
Y6451600D01*
D02*
G37*
G36*
X15697200D02*
X15649500D01*
Y6373900D01*
X15697200D01*
Y6451600D01*
D02*
G37*
G36*
X15632520Y6536920D02*
X15547279D01*
Y6391680D01*
X15566156D01*
Y6359294D01*
X15442310D01*
X15434132Y6379033D01*
X15379700Y6401580D01*
X15325267Y6379033D01*
X15317091Y6359294D01*
X15192110D01*
X15189293Y6366093D01*
X15160500Y6378020D01*
X15065500D01*
X15036707Y6366093D01*
X15024780Y6337300D01*
X15036707Y6308507D01*
X15065500Y6296580D01*
X15160500D01*
X15189293Y6308507D01*
X15192110Y6315306D01*
X15306570D01*
X15325267Y6270167D01*
X15379700Y6247620D01*
X15434132Y6270167D01*
X15452831Y6315306D01*
X15566156D01*
Y6244820D01*
X15543781D01*
Y6099580D01*
X15629021D01*
Y6244820D01*
X15610144D01*
Y6333075D01*
X15611894Y6337300D01*
X15610144Y6341525D01*
Y6391680D01*
X15632520D01*
Y6536920D01*
D02*
G37*
G36*
X8674500Y6427700D02*
X8626800D01*
Y6350000D01*
X8674500D01*
Y6427700D01*
D02*
G37*
G36*
X14620500Y6397265D02*
X14585699D01*
Y6350000D01*
X14675204D01*
X14662901Y6379701D01*
X14620500Y6397265D01*
D02*
G37*
G36*
X14560300D02*
X14525500D01*
X14483099Y6379701D01*
X14470796Y6350000D01*
X14560300D01*
Y6397265D01*
D02*
G37*
G36*
X8601400Y6427700D02*
X8553700D01*
Y6350000D01*
X8601400D01*
Y6427700D01*
D02*
G37*
G36*
X7569200Y7197891D02*
X7517446Y7176454D01*
X7496009Y7124700D01*
X7517446Y7072946D01*
X7569200Y7051509D01*
X7603084Y7065544D01*
X7741830Y6926798D01*
Y6540500D01*
X7747064Y6527864D01*
X7772464Y6502464D01*
X7785100Y6497230D01*
X9022298D01*
X9159991Y6359536D01*
X9150781Y6337300D01*
X9162707Y6308507D01*
X9191500Y6296580D01*
X9286500D01*
X9315293Y6308507D01*
X9327220Y6337300D01*
X9315293Y6366093D01*
X9286500Y6378020D01*
X9192053D01*
X9042336Y6527736D01*
X9029700Y6532970D01*
X7792502D01*
X7777570Y6547902D01*
Y6934200D01*
X7772336Y6946836D01*
X7628356Y7090816D01*
X7642391Y7124700D01*
X7620954Y7176454D01*
X7569200Y7197891D01*
D02*
G37*
G36*
X14675204Y6324600D02*
X14585699D01*
Y6277335D01*
X14620500D01*
X14662901Y6294899D01*
X14675204Y6324600D01*
D02*
G37*
G36*
X14560300D02*
X14470796D01*
X14483099Y6294899D01*
X14525500Y6277335D01*
X14560300D01*
Y6324600D01*
D02*
G37*
G36*
X8674500D02*
X8626800D01*
Y6246900D01*
X8674500D01*
Y6324600D01*
D02*
G37*
G36*
X8601400D02*
X8553700D01*
Y6246900D01*
X8601400D01*
Y6324600D01*
D02*
G37*
G36*
X9826500Y6270265D02*
X9791700D01*
Y6223000D01*
X9881204D01*
X9868901Y6252701D01*
X9826500Y6270265D01*
D02*
G37*
G36*
X9766300D02*
X9731500D01*
X9689099Y6252701D01*
X9676796Y6223000D01*
X9766300D01*
Y6270265D01*
D02*
G37*
G36*
X15766800Y6262600D02*
X15719099D01*
Y6184900D01*
X15766800D01*
Y6262600D01*
D02*
G37*
G36*
X15693700D02*
X15646001D01*
Y6184900D01*
X15693700D01*
Y6262600D01*
D02*
G37*
G36*
X8776720Y6409920D02*
X8691480D01*
Y6264680D01*
X8712106D01*
Y6143220D01*
X8691480D01*
Y5997980D01*
X8776720D01*
Y6143220D01*
X8756094D01*
Y6181956D01*
X8900961D01*
X8911767Y6155867D01*
X8966200Y6133320D01*
X9020633Y6155867D01*
X9031439Y6181956D01*
X9162521D01*
X9162707Y6181507D01*
X9191500Y6169580D01*
X9286500D01*
X9315293Y6181507D01*
X9327220Y6210300D01*
X9315293Y6239093D01*
X9286500Y6251020D01*
X9191500D01*
X9162707Y6239093D01*
X9157261Y6225944D01*
X9036700D01*
X9020633Y6264733D01*
X8966200Y6287280D01*
X8911767Y6264733D01*
X8895700Y6225944D01*
X8756094D01*
Y6264680D01*
X8776720D01*
Y6409920D01*
D02*
G37*
G36*
X9881204Y6197600D02*
X9791700D01*
Y6150335D01*
X9826500D01*
X9868901Y6167899D01*
X9881204Y6197600D01*
D02*
G37*
G36*
X9766300D02*
X9676796D01*
X9689099Y6167899D01*
X9731500Y6150335D01*
X9766300D01*
Y6197600D01*
D02*
G37*
G36*
X8674500Y6161000D02*
X8626800D01*
Y6083300D01*
X8674500D01*
Y6161000D01*
D02*
G37*
G36*
X8601400D02*
X8553700D01*
Y6083300D01*
X8601400D01*
Y6161000D01*
D02*
G37*
G36*
X15766800Y6159500D02*
X15719099D01*
Y6081800D01*
X15766800D01*
Y6159500D01*
D02*
G37*
G36*
X15693700D02*
X15646001D01*
Y6081800D01*
X15693700D01*
Y6159500D01*
D02*
G37*
G36*
X7315200Y7197891D02*
X7263446Y7176454D01*
X7242009Y7124700D01*
X7263446Y7072946D01*
X7297330Y7058911D01*
Y6311900D01*
X7302564Y6299264D01*
X7670864Y5930964D01*
X7683500Y5925730D01*
X8851900D01*
X8864536Y5930964D01*
X8986302Y6052730D01*
X9166998D01*
X9191500Y6042580D01*
X9286500D01*
X9315293Y6054507D01*
X9327220Y6083300D01*
X9315293Y6112093D01*
X9286500Y6124020D01*
X9191500D01*
X9162707Y6112093D01*
X9152922Y6088470D01*
X8978900D01*
X8966264Y6083236D01*
X8844498Y5961470D01*
X7690902D01*
X7333070Y6319302D01*
Y7058911D01*
X7366954Y7072946D01*
X7388391Y7124700D01*
X7366954Y7176454D01*
X7315200Y7197891D01*
D02*
G37*
G36*
X8674500Y6057900D02*
X8626800D01*
Y5980200D01*
X8674500D01*
Y6057900D01*
D02*
G37*
G36*
X8601400D02*
X8553700D01*
Y5980200D01*
X8601400D01*
Y6057900D01*
D02*
G37*
G36*
X12467396Y6016351D02*
X12403615Y5952570D01*
X12421434Y5934751D01*
X12485215Y5998532D01*
X12467396Y6016351D01*
D02*
G37*
G36*
X14658121Y6006620D02*
X14487880D01*
Y5931380D01*
X14658121D01*
Y6006620D01*
D02*
G37*
G36*
X15160500Y6009720D02*
X15065500D01*
X15036707Y5997793D01*
X15024780Y5969000D01*
X15036707Y5940207D01*
X15065500Y5928280D01*
X15160500D01*
X15189293Y5940207D01*
X15201221Y5969000D01*
X15189293Y5997793D01*
X15160500Y6009720D01*
D02*
G37*
G36*
X9864120Y5993920D02*
X9693880D01*
Y5918680D01*
X9864120D01*
Y5993920D01*
D02*
G37*
G36*
X9286500Y5997020D02*
X9191500D01*
X9162707Y5985093D01*
X9150781Y5956300D01*
X9162707Y5927507D01*
X9191500Y5915580D01*
X9286500D01*
X9315293Y5927507D01*
X9327220Y5956300D01*
X9315293Y5985093D01*
X9286500Y5997020D01*
D02*
G37*
G36*
X12290620Y6193127D02*
X12217858Y6120366D01*
X12145097Y6047605D01*
X12162916Y6029786D01*
X12175488Y6042358D01*
X12196192Y6021654D01*
X12198271Y6019575D01*
X12205172Y6012674D01*
X12207252Y6010595D01*
X12231548Y5986299D01*
X12233626Y5984220D01*
X12240528Y5977318D01*
X12242607Y5975240D01*
X12266903Y5950944D01*
X12268982Y5948864D01*
X12275883Y5941963D01*
X12277962Y5939884D01*
X12298666Y5919180D01*
X12286094Y5906608D01*
X12303913Y5888789D01*
X12376674Y5961550D01*
X12449435Y6034312D01*
X12431616Y6052131D01*
X12419044Y6039558D01*
X12398340Y6060262D01*
X12396261Y6062341D01*
X12389360Y6069243D01*
X12387281Y6071322D01*
X12362985Y6095617D01*
X12360906Y6097697D01*
X12354005Y6104598D01*
X12351926Y6106677D01*
X12327630Y6130973D01*
X12325551Y6133052D01*
X12318649Y6139953D01*
X12316570Y6142032D01*
X12295866Y6162736D01*
X12308439Y6175308D01*
X12290620Y6193127D01*
D02*
G37*
G36*
X15754100Y5945100D02*
X15706400D01*
Y5867400D01*
X15754100D01*
Y5945100D01*
D02*
G37*
G36*
X15681000D02*
X15633299D01*
Y5867400D01*
X15681000D01*
Y5945100D01*
D02*
G37*
G36*
X12385654Y5934610D02*
X12321873Y5870828D01*
X12339692Y5853009D01*
X12403474Y5916791D01*
X12385654Y5934610D01*
D02*
G37*
G36*
X12465050Y5855941D02*
X12441722Y5846278D01*
X12432059Y5822950D01*
X12434320Y5817492D01*
X11290364Y4673536D01*
X11285130Y4660900D01*
Y4034836D01*
X11273397Y4029976D01*
X11264836Y4038536D01*
X11252200Y4043770D01*
X11063879D01*
X11051243Y4038536D01*
X11036364Y4023657D01*
X11031130Y4011021D01*
Y3967017D01*
X11020207Y3962493D01*
X11008280Y3933700D01*
Y3838700D01*
X11020207Y3809907D01*
X11049000Y3797980D01*
X11077793Y3809907D01*
X11089720Y3838700D01*
Y3933700D01*
X11077793Y3962493D01*
X11066870Y3967017D01*
Y4003619D01*
X11071281Y4008030D01*
X11244798D01*
X11275891Y3976937D01*
X11274207Y3962493D01*
X11262280Y3933700D01*
Y3838700D01*
X11274207Y3809907D01*
X11303000Y3797980D01*
X11331793Y3809907D01*
X11343720Y3838700D01*
Y3933700D01*
X11331793Y3962493D01*
X11320870Y3967017D01*
Y3975100D01*
Y4653498D01*
X12459592Y5792220D01*
X12465050Y5789959D01*
X12488378Y5799622D01*
X12498041Y5822950D01*
X12488378Y5846278D01*
X12465050Y5855941D01*
D02*
G37*
G36*
X12573000Y5849591D02*
X12549672Y5839928D01*
X12540009Y5816600D01*
X12542270Y5811142D01*
X12039664Y5308536D01*
X12034430Y5295900D01*
Y4072055D01*
X12027465Y4069170D01*
X11813179D01*
X11800543Y4063936D01*
X11785664Y4049057D01*
X11780430Y4036421D01*
Y3967017D01*
X11769507Y3962493D01*
X11757580Y3933700D01*
Y3838700D01*
X11769507Y3809907D01*
X11798300Y3797980D01*
X11827093Y3809907D01*
X11839020Y3838700D01*
Y3933700D01*
X11827093Y3962493D01*
X11816170Y3967017D01*
Y4029019D01*
X11820581Y4033430D01*
X12024187D01*
X12034430Y4023187D01*
Y3967017D01*
X12023507Y3962493D01*
X12011580Y3933700D01*
Y3838700D01*
X12023507Y3809907D01*
X12052300Y3797980D01*
X12081093Y3809907D01*
X12093020Y3838700D01*
Y3933700D01*
X12081093Y3962493D01*
X12070170Y3967017D01*
Y4026465D01*
X12074294Y4036421D01*
X12070170Y4046377D01*
Y5288498D01*
X12567542Y5785870D01*
X12573000Y5783609D01*
X12596328Y5793272D01*
X12605991Y5816600D01*
X12596328Y5839928D01*
X12573000Y5849591D01*
D02*
G37*
G36*
X15754100Y5842000D02*
X15706400D01*
Y5764300D01*
X15754100D01*
Y5842000D01*
D02*
G37*
G36*
X15681000D02*
X15633299D01*
Y5764300D01*
X15681000D01*
Y5842000D01*
D02*
G37*
G36*
X16383000Y6748870D02*
X15570200D01*
X15557564Y6743636D01*
X15296098Y6482170D01*
X15193817D01*
X15189293Y6493093D01*
X15160500Y6505020D01*
X15065500D01*
X15036707Y6493093D01*
X15024780Y6464300D01*
X15036707Y6435507D01*
X15065500Y6423580D01*
X15160500D01*
X15189293Y6435507D01*
X15193817Y6446430D01*
X15303500D01*
X15316136Y6451664D01*
X15577602Y6713130D01*
X16375598D01*
X16682629Y6406098D01*
Y5882389D01*
X16648746Y5868354D01*
X16627309Y5816600D01*
X16648746Y5764846D01*
X16700500Y5743409D01*
X16752254Y5764846D01*
X16773691Y5816600D01*
X16752254Y5868354D01*
X16718370Y5882389D01*
Y6413500D01*
X16713136Y6426136D01*
X16395636Y6743636D01*
X16383000Y6748870D01*
D02*
G37*
G36*
X15160500Y6251020D02*
X15065500D01*
X15036707Y6239093D01*
X15024780Y6210300D01*
X15036707Y6181507D01*
X15065500Y6169580D01*
X15160500D01*
X15189293Y6181507D01*
X15193817Y6192430D01*
X15270699D01*
X15443263Y6019864D01*
X15455901Y6014630D01*
X16223198D01*
X16387344Y5850484D01*
X16373309Y5816600D01*
X16394746Y5764846D01*
X16446500Y5743409D01*
X16498254Y5764846D01*
X16519691Y5816600D01*
X16498254Y5868354D01*
X16446500Y5889791D01*
X16412616Y5875756D01*
X16243236Y6045136D01*
X16230600Y6050370D01*
X15463303D01*
X15290736Y6222936D01*
X15278101Y6228170D01*
X15193817D01*
X15189293Y6239093D01*
X15160500Y6251020D01*
D02*
G37*
G36*
X14620500Y5774965D02*
X14585699D01*
Y5727700D01*
X14675204D01*
X14662901Y5757401D01*
X14620500Y5774965D01*
D02*
G37*
G36*
X14560300D02*
X14525500D01*
X14483099Y5757401D01*
X14470796Y5727700D01*
X14560300D01*
Y5774965D01*
D02*
G37*
G36*
X15616319Y5927320D02*
X15531081D01*
Y5782080D01*
X15556306D01*
Y5724294D01*
X15460271D01*
X15446832Y5756733D01*
X15392400Y5779280D01*
X15337967Y5756733D01*
X15324530Y5724294D01*
X15197369D01*
X15189293Y5743793D01*
X15160500Y5755720D01*
X15065500D01*
X15036707Y5743793D01*
X15024780Y5715000D01*
X15036707Y5686207D01*
X15065500Y5674280D01*
X15160500D01*
X15175046Y5680306D01*
X15324530D01*
X15337967Y5647867D01*
X15392400Y5625320D01*
X15446832Y5647867D01*
X15460271Y5680306D01*
X15556306D01*
Y5647920D01*
X15540280D01*
Y5502680D01*
X15625520D01*
Y5647920D01*
X15600294D01*
Y5715000D01*
Y5782080D01*
X15616319D01*
Y5927320D01*
D02*
G37*
G36*
X14675204Y5702300D02*
X14585699D01*
Y5655035D01*
X14620500D01*
X14662901Y5672599D01*
X14675204Y5702300D01*
D02*
G37*
G36*
X14560300D02*
X14470796D01*
X14483099Y5672599D01*
X14525500Y5655035D01*
X14560300D01*
Y5702300D01*
D02*
G37*
G36*
X12760703Y6228483D02*
X12742884Y6210664D01*
X12755457Y6198091D01*
X12734753Y6177387D01*
X12732674Y6175309D01*
X12725772Y6168407D01*
X12723693Y6166328D01*
X12699398Y6142032D01*
X12697318Y6139953D01*
X12690417Y6133052D01*
X12688338Y6130973D01*
X12664042Y6106677D01*
X12661963Y6104598D01*
X12655062Y6097697D01*
X12652983Y6095617D01*
X12628687Y6071322D01*
X12626608Y6069243D01*
X12619706Y6062341D01*
X12617628Y6060262D01*
X12593332Y6035966D01*
X12591252Y6033888D01*
X12584351Y6026986D01*
X12582272Y6024907D01*
X12555897Y5998532D01*
X12676275Y5878154D01*
X12702650Y5904529D01*
X12704729Y5906608D01*
X12711631Y5913509D01*
X12713710Y5915588D01*
X12738006Y5939884D01*
X12740085Y5941963D01*
X12746986Y5948864D01*
X12749065Y5950944D01*
X12773361Y5975240D01*
X12775440Y5977318D01*
X12782341Y5984220D01*
X12784420Y5986299D01*
X12808716Y6010595D01*
X12810796Y6012674D01*
X12817697Y6019575D01*
X12819775Y6021654D01*
X12844070Y6045950D01*
X12845663Y6047542D01*
X12855821Y6055343D01*
X12910730Y6000434D01*
Y5900202D01*
X12648308Y5637780D01*
X12642850Y5640041D01*
X12619522Y5630378D01*
X12609859Y5607050D01*
X12619522Y5583722D01*
X12642850Y5574059D01*
X12666178Y5583722D01*
X12675841Y5607050D01*
X12673580Y5612508D01*
X12941235Y5880164D01*
X12946471Y5892800D01*
Y6007836D01*
X12941235Y6020472D01*
X12892487Y6069221D01*
X12906226Y6082960D01*
X12833466Y6155721D01*
X12760703Y6228483D01*
D02*
G37*
G36*
X15763300Y5665700D02*
X15715601D01*
Y5588000D01*
X15763300D01*
Y5665700D01*
D02*
G37*
G36*
X15690199D02*
X15642500D01*
Y5588000D01*
X15690199D01*
Y5665700D01*
D02*
G37*
G36*
X8658300Y5576800D02*
X8610600D01*
Y5499100D01*
X8658300D01*
Y5576800D01*
D02*
G37*
G36*
X8585200D02*
X8537500D01*
Y5499100D01*
X8585200D01*
Y5576800D01*
D02*
G37*
G36*
X15976601Y5999570D02*
X15481300D01*
X15468665Y5994336D01*
X15321498Y5847170D01*
X15199078D01*
X15189293Y5870793D01*
X15160500Y5882720D01*
X15065500D01*
X15036707Y5870793D01*
X15024780Y5842000D01*
X15036707Y5813207D01*
X15065500Y5801280D01*
X15160500D01*
X15185002Y5811430D01*
X15328900D01*
X15341536Y5816664D01*
X15488702Y5963830D01*
X15969199D01*
X16243364Y5689664D01*
X16256000Y5684430D01*
X16553398D01*
X16641344Y5596484D01*
X16627309Y5562600D01*
X16648746Y5510846D01*
X16700500Y5489409D01*
X16752254Y5510846D01*
X16773691Y5562600D01*
X16752254Y5614354D01*
X16700500Y5635791D01*
X16666615Y5621756D01*
X16573436Y5714936D01*
X16560800Y5720170D01*
X16263402D01*
X15989236Y5994336D01*
X15976601Y5999570D01*
D02*
G37*
G36*
X15763300Y5562600D02*
X15715601D01*
Y5484900D01*
X15763300D01*
Y5562600D01*
D02*
G37*
G36*
X15690199D02*
X15642500D01*
Y5484900D01*
X15690199D01*
Y5562600D01*
D02*
G37*
G36*
X8788400Y5745570D02*
X8216900D01*
X8204264Y5740336D01*
X7556564Y5092636D01*
X7551330Y5080000D01*
Y4929889D01*
X7517446Y4915854D01*
X7496009Y4864100D01*
X7517446Y4812346D01*
X7569200Y4790909D01*
X7620954Y4812346D01*
X7642391Y4864100D01*
X7620954Y4915854D01*
X7587070Y4929889D01*
Y5072598D01*
X8224302Y5709830D01*
X8780998D01*
X8991664Y5499164D01*
X9004300Y5493930D01*
X9152922D01*
X9162707Y5470307D01*
X9191500Y5458380D01*
X9286500D01*
X9315293Y5470307D01*
X9327220Y5499100D01*
X9315293Y5527893D01*
X9286500Y5539820D01*
X9191500D01*
X9166998Y5529670D01*
X9011702D01*
X8801036Y5740336D01*
X8788400Y5745570D01*
D02*
G37*
G36*
X16446500Y5635791D02*
X16394746Y5614354D01*
X16375450Y5567770D01*
X16040100D01*
X16027464Y5562536D01*
X15867598Y5402670D01*
X15501402D01*
X15316136Y5587936D01*
X15303500Y5593170D01*
X15199078D01*
X15189293Y5616793D01*
X15160500Y5628720D01*
X15065500D01*
X15036707Y5616793D01*
X15024780Y5588000D01*
X15036707Y5559207D01*
X15065500Y5547280D01*
X15160500D01*
X15185002Y5557430D01*
X15296098D01*
X15481364Y5372164D01*
X15494000Y5366930D01*
X15875000D01*
X15887636Y5372164D01*
X16047502Y5532030D01*
X16385971D01*
X16394746Y5510846D01*
X16446500Y5489409D01*
X16498254Y5510846D01*
X16519691Y5562600D01*
X16498254Y5614354D01*
X16446500Y5635791D01*
D02*
G37*
G36*
X8658300Y5473700D02*
X8610600D01*
Y5396000D01*
X8658300D01*
Y5473700D01*
D02*
G37*
G36*
X8585200D02*
X8537500D01*
Y5396000D01*
X8585200D01*
Y5473700D01*
D02*
G37*
G36*
X9826500Y5432065D02*
X9791700D01*
Y5384800D01*
X9881204D01*
X9868901Y5414501D01*
X9826500Y5432065D01*
D02*
G37*
G36*
X9766300D02*
X9731500D01*
X9689099Y5414501D01*
X9676796Y5384800D01*
X9766300D01*
Y5432065D01*
D02*
G37*
G36*
X8760520Y5559020D02*
X8675280D01*
Y5413780D01*
X8695906D01*
Y5305020D01*
X8675280D01*
Y5159780D01*
X8760520D01*
Y5305020D01*
X8739894D01*
Y5350290D01*
X8752410Y5362806D01*
X8898330D01*
X8911767Y5330367D01*
X8966200Y5307820D01*
X9020633Y5330367D01*
X9034070Y5362806D01*
X9154630D01*
X9162707Y5343307D01*
X9191500Y5331380D01*
X9286500D01*
X9315293Y5343307D01*
X9327220Y5372100D01*
X9315293Y5400893D01*
X9286500Y5412820D01*
X9191500D01*
X9176954Y5406794D01*
X9034070D01*
X9020633Y5439233D01*
X8966200Y5461780D01*
X8911767Y5439233D01*
X8898330Y5406794D01*
X8770326D01*
X8760520Y5413780D01*
Y5559020D01*
D02*
G37*
G36*
X9881204Y5359400D02*
X9791700D01*
Y5312135D01*
X9826500D01*
X9868901Y5329699D01*
X9881204Y5359400D01*
D02*
G37*
G36*
X9766300D02*
X9676796D01*
X9689099Y5329699D01*
X9731500Y5312135D01*
X9766300D01*
Y5359400D01*
D02*
G37*
G36*
X8658300Y5322800D02*
X8610600D01*
Y5245100D01*
X8658300D01*
Y5322800D01*
D02*
G37*
G36*
X8585200D02*
X8537500D01*
Y5245100D01*
X8585200D01*
Y5322800D01*
D02*
G37*
G36*
X16586200Y5440770D02*
X16141701D01*
X16129063Y5435536D01*
X16007298Y5313770D01*
X15455901D01*
X15443263Y5308536D01*
X15296098Y5161370D01*
X15185002D01*
X15160500Y5171520D01*
X15065500D01*
X15036707Y5159593D01*
X15024780Y5130800D01*
X15036707Y5102007D01*
X15065500Y5090080D01*
X15160500D01*
X15189293Y5102007D01*
X15199078Y5125630D01*
X15303500D01*
X15316136Y5130864D01*
X15463303Y5278030D01*
X16014700D01*
X16027336Y5283264D01*
X16149101Y5405030D01*
X16578798D01*
X16641344Y5342484D01*
X16627309Y5308600D01*
X16648746Y5256846D01*
X16700500Y5235409D01*
X16752254Y5256846D01*
X16773691Y5308600D01*
X16752254Y5360354D01*
X16700500Y5381791D01*
X16666615Y5367756D01*
X16598836Y5435536D01*
X16586200Y5440770D01*
D02*
G37*
G36*
X16446500Y5381791D02*
X16394746Y5360354D01*
X16373309Y5308600D01*
X16376186Y5301657D01*
X15854898Y4780370D01*
X15777002D01*
X15766800Y4786400D01*
X15766800Y4793070D01*
Y4864100D01*
X15646001D01*
Y4793070D01*
X15646001Y4786400D01*
X15635799Y4780370D01*
X15437901D01*
X15316136Y4902136D01*
X15303500Y4907370D01*
X15185002D01*
X15160500Y4917520D01*
X15065500D01*
X15036707Y4905593D01*
X15024780Y4876800D01*
X15036707Y4848007D01*
X15065500Y4836080D01*
X15160500D01*
X15189293Y4848007D01*
X15199078Y4871630D01*
X15296098D01*
X15417863Y4749864D01*
X15430499Y4744630D01*
X15862300D01*
X15874936Y4749864D01*
X16384045Y5258974D01*
X16394746Y5256846D01*
X16446500Y5235409D01*
X16498254Y5256846D01*
X16519691Y5308600D01*
X16498254Y5360354D01*
X16446500Y5381791D01*
D02*
G37*
G36*
X14658121Y5295420D02*
X14487880D01*
Y5220180D01*
X14658121D01*
Y5295420D01*
D02*
G37*
G36*
X15160500Y5298520D02*
X15065500D01*
X15036707Y5286593D01*
X15024780Y5257800D01*
X15036707Y5229007D01*
X15065500Y5217080D01*
X15160500D01*
X15189293Y5229007D01*
X15201221Y5257800D01*
X15189293Y5286593D01*
X15160500Y5298520D01*
D02*
G37*
G36*
X9286500Y5285820D02*
X9191500D01*
X9166998Y5275670D01*
X9055100D01*
X9042464Y5270436D01*
X8844498Y5072470D01*
X8115300D01*
X8102664Y5067236D01*
X7803098Y4767670D01*
X7436902D01*
X7382820Y4821752D01*
Y4931720D01*
X7247580D01*
Y4796480D01*
X7357548D01*
X7416864Y4737164D01*
X7429500Y4731930D01*
X7810500D01*
X7823136Y4737164D01*
X8122702Y5036730D01*
X8851900D01*
X8864536Y5041964D01*
X9062502Y5239930D01*
X9152922D01*
X9162707Y5216307D01*
X9191500Y5204380D01*
X9286500D01*
X9315293Y5216307D01*
X9327220Y5245100D01*
X9315293Y5273893D01*
X9286500Y5285820D01*
D02*
G37*
G36*
X15763300Y5246600D02*
X15715601D01*
Y5168900D01*
X15763300D01*
Y5246600D01*
D02*
G37*
G36*
X15690199D02*
X15642500D01*
Y5168900D01*
X15690199D01*
Y5246600D01*
D02*
G37*
G36*
X8658300Y5219700D02*
X8610600D01*
Y5142000D01*
X8658300D01*
Y5219700D01*
D02*
G37*
G36*
X8585200D02*
X8537500D01*
Y5142000D01*
X8585200D01*
Y5219700D01*
D02*
G37*
G36*
X9864120Y5155720D02*
X9693880D01*
Y5080480D01*
X9864120D01*
Y5155720D01*
D02*
G37*
G36*
X9286500Y5158820D02*
X9191500D01*
X9162707Y5146893D01*
X9150781Y5118100D01*
X9162707Y5089307D01*
X9191500Y5077380D01*
X9286500D01*
X9315293Y5089307D01*
X9327220Y5118100D01*
X9315293Y5146893D01*
X9286500Y5158820D01*
D02*
G37*
G36*
X15763300Y5143500D02*
X15715601D01*
Y5065800D01*
X15763300D01*
Y5143500D01*
D02*
G37*
G36*
X15690199D02*
X15642500D01*
Y5065800D01*
X15690199D01*
Y5143500D01*
D02*
G37*
G36*
X15625520Y5228820D02*
X15540280D01*
Y5083580D01*
X15562656D01*
Y5038494D01*
X15437048D01*
X15434132Y5045533D01*
X15379700Y5068080D01*
X15325267Y5045533D01*
X15322351Y5038494D01*
X15175046D01*
X15160500Y5044520D01*
X15065500D01*
X15036707Y5032593D01*
X15024780Y5003800D01*
X15036707Y4975007D01*
X15065500Y4963080D01*
X15160500D01*
X15189293Y4975007D01*
X15197369Y4994506D01*
X15300444D01*
X15302721Y4991100D01*
X15325267Y4936667D01*
X15379700Y4914120D01*
X15434132Y4936667D01*
X15456680Y4991100D01*
X15458955Y4994506D01*
X15562656D01*
Y4949420D01*
X15543781D01*
Y4804180D01*
X15629021D01*
Y4949420D01*
X15606644D01*
Y5016500D01*
Y5083580D01*
X15625520D01*
Y5228820D01*
D02*
G37*
G36*
X14620500Y5063765D02*
X14585699D01*
Y5016500D01*
X14675204D01*
X14662901Y5046201D01*
X14620500Y5063765D01*
D02*
G37*
G36*
X14560300D02*
X14525500D01*
X14483099Y5046201D01*
X14470796Y5016500D01*
X14560300D01*
Y5063765D01*
D02*
G37*
G36*
X16768120Y5122220D02*
X16632880D01*
Y4986980D01*
X16768120D01*
Y5122220D01*
D02*
G37*
G36*
X16446500Y5127791D02*
X16394746Y5106354D01*
X16373309Y5054600D01*
X16391064Y5011736D01*
X16230664Y4851336D01*
X16225430Y4838700D01*
Y4439702D01*
X15880298Y4094570D01*
X15463303D01*
X15328836Y4229036D01*
X15316200Y4234270D01*
X15193817D01*
X15189293Y4245193D01*
X15160500Y4257120D01*
X15065500D01*
X15036707Y4245193D01*
X15024780Y4216400D01*
X15036707Y4187607D01*
X15065500Y4175680D01*
X15160500D01*
X15189293Y4187607D01*
X15193817Y4198530D01*
X15308798D01*
X15443263Y4064064D01*
X15455901Y4058830D01*
X15887700D01*
X15900336Y4064064D01*
X16255936Y4419664D01*
X16261169Y4432300D01*
Y4831298D01*
X16421596Y4991724D01*
X16446500Y4981409D01*
X16498254Y5002846D01*
X16519691Y5054600D01*
X16498254Y5106354D01*
X16446500Y5127791D01*
D02*
G37*
G36*
X14675204Y4991100D02*
X14585699D01*
Y4943835D01*
X14620500D01*
X14662901Y4961399D01*
X14675204Y4991100D01*
D02*
G37*
G36*
X14560300D02*
X14470796D01*
X14483099Y4961399D01*
X14525500Y4943835D01*
X14560300D01*
Y4991100D01*
D02*
G37*
G36*
X15766800Y4967200D02*
X15719099D01*
Y4889500D01*
X15766800D01*
Y4967200D01*
D02*
G37*
G36*
X15693700D02*
X15646001D01*
Y4889500D01*
X15693700D01*
Y4967200D01*
D02*
G37*
G36*
X8632900Y4764000D02*
X8585200D01*
Y4686300D01*
X8632900D01*
Y4764000D01*
D02*
G37*
G36*
X8559800D02*
X8512100D01*
Y4686300D01*
X8559800D01*
Y4764000D01*
D02*
G37*
G36*
X9042400Y4894670D02*
X8153400D01*
X8140764Y4889436D01*
X7879298Y4627970D01*
X7634989D01*
X7620954Y4661854D01*
X7569200Y4683291D01*
X7517446Y4661854D01*
X7496009Y4610100D01*
X7517446Y4558346D01*
X7569200Y4536909D01*
X7620954Y4558346D01*
X7634989Y4592230D01*
X7886700D01*
X7899336Y4597464D01*
X8160802Y4858930D01*
X9034998D01*
X9166029Y4727899D01*
X9163551Y4715443D01*
X9162707Y4715093D01*
X9150781Y4686300D01*
X9162707Y4657507D01*
X9191500Y4645580D01*
X9286500D01*
X9315293Y4657507D01*
X9327220Y4686300D01*
X9315293Y4715093D01*
X9286500Y4727020D01*
X9217453D01*
X9055036Y4889436D01*
X9042400Y4894670D01*
D02*
G37*
G36*
X15938499Y4750580D02*
X15884067Y4728033D01*
X15868922Y4691470D01*
X15481300D01*
X15468665Y4686236D01*
X15270699Y4488270D01*
X15193817D01*
X15189293Y4499193D01*
X15160500Y4511120D01*
X15065500D01*
X15036707Y4499193D01*
X15024780Y4470400D01*
X15036707Y4441607D01*
X15065500Y4429680D01*
X15160500D01*
X15189293Y4441607D01*
X15193817Y4452530D01*
X15278101D01*
X15290736Y4457764D01*
X15488702Y4655730D01*
X15868922D01*
X15884067Y4619167D01*
X15938499Y4596620D01*
X15992934Y4619167D01*
X16015480Y4673600D01*
X15992934Y4728033D01*
X15938499Y4750580D01*
D02*
G37*
G36*
X8632900Y4660900D02*
X8585200D01*
Y4583200D01*
X8632900D01*
Y4660900D01*
D02*
G37*
G36*
X8559800D02*
X8512100D01*
Y4583200D01*
X8559800D01*
Y4660900D01*
D02*
G37*
G36*
X9826500Y4619265D02*
X9791700D01*
Y4572000D01*
X9881204D01*
X9868901Y4601701D01*
X9826500Y4619265D01*
D02*
G37*
G36*
X9766300D02*
X9731500D01*
X9689099Y4601701D01*
X9676796Y4572000D01*
X9766300D01*
Y4619265D01*
D02*
G37*
G36*
X14658121Y4635020D02*
X14487880D01*
Y4559780D01*
X14658121D01*
Y4635020D01*
D02*
G37*
G36*
X15160500Y4638120D02*
X15065500D01*
X15036707Y4626193D01*
X15024780Y4597400D01*
X15036707Y4568607D01*
X15065500Y4556680D01*
X15160500D01*
X15189293Y4568607D01*
X15201221Y4597400D01*
X15189293Y4626193D01*
X15160500Y4638120D01*
D02*
G37*
G36*
X15766800Y4618600D02*
X15719099D01*
Y4540900D01*
X15766800D01*
Y4618600D01*
D02*
G37*
G36*
X15693700D02*
X15646001D01*
Y4540900D01*
X15693700D01*
Y4618600D01*
D02*
G37*
G36*
X8735120Y4746220D02*
X8649880D01*
Y4600980D01*
X8675106D01*
Y4492220D01*
X8659080D01*
Y4346980D01*
X8744320D01*
Y4492220D01*
X8719094D01*
Y4537490D01*
X8731610Y4550006D01*
X8898330D01*
X8911767Y4517567D01*
X8966200Y4495020D01*
X9020633Y4517567D01*
X9034070Y4550006D01*
X9154630D01*
X9162707Y4530507D01*
X9191500Y4518580D01*
X9286500D01*
X9315293Y4530507D01*
X9327220Y4559300D01*
X9315293Y4588093D01*
X9286500Y4600020D01*
X9191500D01*
X9176954Y4593994D01*
X9034070D01*
X9020633Y4626433D01*
X8966200Y4648980D01*
X8911767Y4626433D01*
X8898330Y4593994D01*
X8744926D01*
X8735120Y4600980D01*
Y4746220D01*
D02*
G37*
G36*
X9881204Y4546600D02*
X9791700D01*
Y4499335D01*
X9826500D01*
X9868901Y4516899D01*
X9881204Y4546600D01*
D02*
G37*
G36*
X9766300D02*
X9676796D01*
X9689099Y4516899D01*
X9731500Y4499335D01*
X9766300D01*
Y4546600D01*
D02*
G37*
G36*
X15766800Y4515500D02*
X15719099D01*
Y4437800D01*
X15766800D01*
Y4515500D01*
D02*
G37*
G36*
X15693700D02*
X15646001D01*
Y4437800D01*
X15693700D01*
Y4515500D01*
D02*
G37*
G36*
X8642100Y4510000D02*
X8594400D01*
Y4432300D01*
X8642100D01*
Y4510000D01*
D02*
G37*
G36*
X8569000D02*
X8521300D01*
Y4432300D01*
X8569000D01*
Y4510000D01*
D02*
G37*
G36*
X7315200Y4683291D02*
X7263446Y4661854D01*
X7242009Y4610100D01*
X7263446Y4558346D01*
X7315200Y4536909D01*
X7349084Y4550944D01*
X7416864Y4483164D01*
X7429500Y4477930D01*
X7790398D01*
X8039164Y4229164D01*
X8051800Y4223930D01*
X8739269D01*
X8751905Y4229164D01*
X8949871Y4427130D01*
X9152922D01*
X9162707Y4403507D01*
X9191500Y4391580D01*
X9286500D01*
X9315293Y4403507D01*
X9327220Y4432300D01*
X9315293Y4461093D01*
X9286500Y4473020D01*
X9191500D01*
X9166998Y4462870D01*
X8942469D01*
X8929833Y4457636D01*
X8731867Y4259670D01*
X8059202D01*
X7810436Y4508436D01*
X7797800Y4513670D01*
X7436902D01*
X7374356Y4576216D01*
X7388391Y4610100D01*
X7366954Y4661854D01*
X7315200Y4683291D01*
D02*
G37*
G36*
X15629021Y4600820D02*
X15543781D01*
Y4455580D01*
X15564406D01*
Y4365394D01*
X15447569D01*
X15434132Y4397833D01*
X15379700Y4420380D01*
X15325267Y4397833D01*
X15311830Y4365394D01*
X15192110D01*
X15189293Y4372193D01*
X15160500Y4384120D01*
X15065500D01*
X15036707Y4372193D01*
X15024780Y4343400D01*
X15036707Y4314607D01*
X15065500Y4302680D01*
X15160500D01*
X15189293Y4314607D01*
X15192110Y4321406D01*
X15311830D01*
X15325267Y4288967D01*
X15379700Y4266420D01*
X15434132Y4288967D01*
X15447569Y4321406D01*
X15564406D01*
Y4301720D01*
X15543781D01*
Y4156480D01*
X15629021D01*
Y4301720D01*
X15608394D01*
Y4356100D01*
Y4455580D01*
X15629021D01*
Y4600820D01*
D02*
G37*
G36*
X14620500Y4403365D02*
X14585699D01*
Y4356100D01*
X14675204D01*
X14662901Y4385801D01*
X14620500Y4403365D01*
D02*
G37*
G36*
X14560300D02*
X14525500D01*
X14483099Y4385801D01*
X14470796Y4356100D01*
X14560300D01*
Y4403365D01*
D02*
G37*
G36*
X8642100Y4406900D02*
X8594400D01*
Y4329200D01*
X8642100D01*
Y4406900D01*
D02*
G37*
G36*
X8569000D02*
X8521300D01*
Y4329200D01*
X8569000D01*
Y4406900D01*
D02*
G37*
G36*
X14675204Y4330700D02*
X14585699D01*
Y4283435D01*
X14620500D01*
X14662901Y4300999D01*
X14675204Y4330700D01*
D02*
G37*
G36*
X14560300D02*
X14470796D01*
X14483099Y4300999D01*
X14525500Y4283435D01*
X14560300D01*
Y4330700D01*
D02*
G37*
G36*
X7569200Y4429291D02*
X7517446Y4407854D01*
X7496009Y4356100D01*
X7517446Y4304346D01*
X7562571Y4285655D01*
X7563982Y4285070D01*
X7562725Y4278754D01*
X7562726D01*
X7562725Y4278754D01*
X7552669Y4272370D01*
X7424202D01*
X7374356Y4322216D01*
X7388391Y4356100D01*
X7366954Y4407854D01*
X7315200Y4429291D01*
X7263446Y4407854D01*
X7242009Y4356100D01*
X7263446Y4304346D01*
X7315200Y4282909D01*
X7349084Y4296944D01*
X7404164Y4241864D01*
X7416800Y4236630D01*
X7726898D01*
X8509064Y3454464D01*
X8521700Y3449230D01*
X8813800D01*
X8826436Y3454464D01*
X9024402Y3652430D01*
X9158183D01*
X9162707Y3641507D01*
X9191500Y3629580D01*
X9286500D01*
X9315293Y3641507D01*
X9327220Y3670300D01*
X9315293Y3699093D01*
X9286500Y3711020D01*
X9191500D01*
X9162707Y3699093D01*
X9158183Y3688170D01*
X9017000D01*
X9004364Y3682936D01*
X8806398Y3484970D01*
X8529102D01*
X7746936Y4267136D01*
X7734300Y4272370D01*
X7585731D01*
X7575674Y4278754D01*
Y4278754D01*
X7575675D01*
X7574418Y4285070D01*
X7575829Y4285655D01*
X7620954Y4304346D01*
X7634989Y4338230D01*
X7764998D01*
X7950264Y4152964D01*
X7962900Y4147730D01*
X9009598D01*
X9182351Y3974977D01*
X9179372Y3959996D01*
X9162707Y3953093D01*
X9150781Y3924300D01*
X9162707Y3895507D01*
X9191500Y3883580D01*
X9286500D01*
X9315293Y3895507D01*
X9327220Y3924300D01*
X9315293Y3953093D01*
X9286500Y3965020D01*
X9242853D01*
X9029636Y4178236D01*
X9017000Y4183470D01*
X7970302D01*
X7785036Y4368736D01*
X7772400Y4373970D01*
X7634989D01*
X7620954Y4407854D01*
X7569200Y4429291D01*
D02*
G37*
G36*
X9864120Y4342920D02*
X9693880D01*
Y4267680D01*
X9864120D01*
Y4342920D01*
D02*
G37*
G36*
X9286500Y4346020D02*
X9191500D01*
X9162707Y4334093D01*
X9150781Y4305300D01*
X9162707Y4276507D01*
X9191500Y4264580D01*
X9286500D01*
X9315293Y4276507D01*
X9327220Y4305300D01*
X9315293Y4334093D01*
X9286500Y4346020D01*
D02*
G37*
G36*
X15766800Y4319500D02*
X15719099D01*
Y4241800D01*
X15766800D01*
Y4319500D01*
D02*
G37*
G36*
X15693700D02*
X15646001D01*
Y4241800D01*
X15693700D01*
Y4319500D01*
D02*
G37*
G36*
X15766800Y4216400D02*
X15719099D01*
Y4138700D01*
X15766800D01*
Y4216400D01*
D02*
G37*
G36*
X15693700D02*
X15646001D01*
Y4138700D01*
X15693700D01*
Y4216400D01*
D02*
G37*
G36*
X8658300Y4040100D02*
X8610600D01*
Y3962400D01*
X8658300D01*
Y4040100D01*
D02*
G37*
G36*
X8585200D02*
X8537500D01*
Y3962400D01*
X8585200D01*
Y4040100D01*
D02*
G37*
G36*
X11938000Y3988404D02*
Y3898900D01*
X11985265D01*
Y3933700D01*
X11967701Y3976101D01*
X11938000Y3988404D01*
D02*
G37*
G36*
X11188700D02*
Y3898900D01*
X11235965D01*
Y3933700D01*
X11218401Y3976101D01*
X11188700Y3988404D01*
D02*
G37*
G36*
X13487399D02*
Y3898900D01*
X13534665D01*
Y3933700D01*
X13517101Y3976101D01*
X13487399Y3988404D01*
D02*
G37*
G36*
X11912600D02*
X11882899Y3976101D01*
X11865335Y3933700D01*
Y3898900D01*
X11912600D01*
Y3988404D01*
D02*
G37*
G36*
X11163300D02*
X11133599Y3976101D01*
X11116035Y3933700D01*
Y3898900D01*
X11163300D01*
Y3988404D01*
D02*
G37*
G36*
X13462000D02*
X13432298Y3976101D01*
X13414735Y3933700D01*
Y3898900D01*
X13462000D01*
Y3988404D01*
D02*
G37*
G36*
X8658300Y3937000D02*
X8610600D01*
Y3859300D01*
X8658300D01*
Y3937000D01*
D02*
G37*
G36*
X8585200D02*
X8537500D01*
Y3859300D01*
X8585200D01*
Y3937000D01*
D02*
G37*
G36*
X9826500Y3857265D02*
X9791700D01*
Y3810000D01*
X9881204D01*
X9868901Y3839701D01*
X9826500Y3857265D01*
D02*
G37*
G36*
X9766300D02*
X9731500D01*
X9689099Y3839701D01*
X9676796Y3810000D01*
X9766300D01*
Y3857265D01*
D02*
G37*
G36*
X13766319Y3971320D02*
X13691080D01*
Y3801080D01*
X13766319D01*
Y3971320D01*
D02*
G37*
G36*
X13004320D02*
X12929080D01*
Y3801080D01*
X13004320D01*
Y3971320D01*
D02*
G37*
G36*
X12216920D02*
X12141680D01*
Y3801080D01*
X12216920D01*
Y3971320D01*
D02*
G37*
G36*
X11467620D02*
X11392380D01*
Y3801080D01*
X11467620D01*
Y3971320D01*
D02*
G37*
G36*
X11985265Y3873500D02*
X11938000D01*
Y3783996D01*
X11967701Y3796299D01*
X11985265Y3838700D01*
Y3873500D01*
D02*
G37*
G36*
X13534665D02*
X13487399D01*
Y3783996D01*
X13517101Y3796299D01*
X13534665Y3838700D01*
Y3873500D01*
D02*
G37*
G36*
X12772665D02*
X12725400D01*
Y3783996D01*
X12755101Y3796299D01*
X12772665Y3838700D01*
Y3873500D01*
D02*
G37*
G36*
X11235965D02*
X11188700D01*
Y3783996D01*
X11218401Y3796299D01*
X11235965Y3838700D01*
Y3873500D01*
D02*
G37*
G36*
X13462000D02*
X13414735D01*
Y3838700D01*
X13432298Y3796299D01*
X13462000Y3783996D01*
Y3873500D01*
D02*
G37*
G36*
X12700000D02*
X12652735D01*
Y3838700D01*
X12670299Y3796299D01*
X12700000Y3783996D01*
Y3873500D01*
D02*
G37*
G36*
X11163300D02*
X11116035D01*
Y3838700D01*
X11133599Y3796299D01*
X11163300Y3783996D01*
Y3873500D01*
D02*
G37*
G36*
X11912600D02*
X11865335D01*
Y3838700D01*
X11882899Y3796299D01*
X11912600Y3783996D01*
Y3873500D01*
D02*
G37*
G36*
X8760520Y4022320D02*
X8675280D01*
Y3877080D01*
X8694156D01*
Y3810000D01*
Y3742920D01*
X8671780D01*
Y3597680D01*
X8757020D01*
Y3742920D01*
X8738144D01*
Y3788006D01*
X8893070D01*
X8911767Y3742867D01*
X8966200Y3720320D01*
X9020633Y3742867D01*
X9034070Y3775306D01*
X9159891D01*
X9162707Y3768507D01*
X9191500Y3756580D01*
X9286500D01*
X9315293Y3768507D01*
X9327220Y3797300D01*
X9315293Y3826093D01*
X9286500Y3838020D01*
X9191500D01*
X9162707Y3826093D01*
X9159891Y3819294D01*
X9034070D01*
X9020633Y3851733D01*
X8966200Y3874280D01*
X8911767Y3851733D01*
X8903591Y3831994D01*
X8738144D01*
Y3877080D01*
X8760520D01*
Y4022320D01*
D02*
G37*
G36*
X9881204Y3784600D02*
X9791700D01*
Y3737335D01*
X9826500D01*
X9868901Y3754899D01*
X9881204Y3784600D01*
D02*
G37*
G36*
X9766300D02*
X9676796D01*
X9689099Y3754899D01*
X9731500Y3737335D01*
X9766300D01*
Y3784600D01*
D02*
G37*
G36*
X8654800Y3760700D02*
X8607100D01*
Y3683000D01*
X8654800D01*
Y3760700D01*
D02*
G37*
G36*
X8581700D02*
X8534000D01*
Y3683000D01*
X8581700D01*
Y3760700D01*
D02*
G37*
G36*
X8654800Y3657600D02*
X8607100D01*
Y3579900D01*
X8654800D01*
Y3657600D01*
D02*
G37*
G36*
X8581700D02*
X8534000D01*
Y3579900D01*
X8581700D01*
Y3657600D01*
D02*
G37*
G36*
X9864120Y3580920D02*
X9693880D01*
Y3505680D01*
X9864120D01*
Y3580920D01*
D02*
G37*
G36*
X9286500Y3584020D02*
X9191500D01*
X9162707Y3572093D01*
X9150781Y3543300D01*
X9162707Y3514507D01*
X9191500Y3502580D01*
X9286500D01*
X9315293Y3514507D01*
X9327220Y3543300D01*
X9315293Y3572093D01*
X9286500Y3584020D01*
D02*
G37*
G36*
X16920599Y3589400D02*
X16847900D01*
Y3441700D01*
X16920599D01*
Y3589400D01*
D02*
G37*
G36*
X16822501D02*
X16749800D01*
Y3441700D01*
X16822501D01*
Y3589400D01*
D02*
G37*
G36*
X16197501Y3576291D02*
X16186221Y3571620D01*
X16137579D01*
Y3286380D01*
X16272820D01*
Y3571620D01*
X16208778D01*
X16197501Y3576291D01*
D02*
G37*
G36*
X16920599Y3416300D02*
X16847900D01*
Y3268600D01*
X16920599D01*
Y3416300D01*
D02*
G37*
G36*
X16822501D02*
X16749800D01*
Y3268600D01*
X16822501D01*
Y3416300D01*
D02*
G37*
G36*
X13728700Y3434420D02*
X13699907Y3422493D01*
X13687981Y3393700D01*
Y3298700D01*
X13699907Y3269907D01*
X13728700Y3257981D01*
X13757494Y3269907D01*
X13769420Y3298700D01*
Y3393700D01*
X13757494Y3422493D01*
X13728700Y3434420D01*
D02*
G37*
G36*
X12966701D02*
X12937907Y3422493D01*
X12925980Y3393700D01*
Y3298700D01*
X12937907Y3269907D01*
X12966701Y3257981D01*
X12995493Y3269907D01*
X13007420Y3298700D01*
Y3393700D01*
X12995493Y3422493D01*
X12966701Y3434420D01*
D02*
G37*
G36*
X12179300D02*
X12150507Y3422493D01*
X12138580Y3393700D01*
Y3298700D01*
X12150507Y3269907D01*
X12179300Y3257981D01*
X12208093Y3269907D01*
X12220020Y3298700D01*
Y3393700D01*
X12208093Y3422493D01*
X12179300Y3434420D01*
D02*
G37*
G36*
X11798300D02*
X11769507Y3422493D01*
X11757580Y3393700D01*
Y3324653D01*
X11607864Y3174936D01*
X11602630Y3162300D01*
Y2171700D01*
X11607864Y2159064D01*
X11648143Y2118785D01*
X11660779Y2113551D01*
X11681821D01*
X11687082Y2115730D01*
X12131619D01*
X12136030Y2111319D01*
Y1892300D01*
X12141264Y1879664D01*
X12221744Y1799184D01*
X12207709Y1765300D01*
X12229146Y1713546D01*
X12280900Y1692109D01*
X12332654Y1713546D01*
X12354091Y1765300D01*
X12332654Y1817054D01*
X12280900Y1838491D01*
X12247016Y1824456D01*
X12171770Y1899702D01*
Y2118721D01*
X12166536Y2131357D01*
X12151657Y2146236D01*
X12139021Y2151470D01*
X11684000D01*
X11678739Y2149291D01*
X11668181D01*
X11638370Y2179102D01*
Y3154898D01*
X11756701Y3273229D01*
X11769157Y3270751D01*
X11769507Y3269907D01*
X11798300Y3257981D01*
X11827093Y3269907D01*
X11839020Y3298700D01*
Y3393700D01*
X11827093Y3422493D01*
X11798300Y3434420D01*
D02*
G37*
G36*
X11430000D02*
X11401207Y3422493D01*
X11389280Y3393700D01*
Y3298700D01*
X11401207Y3269907D01*
X11430000Y3257981D01*
X11458793Y3269907D01*
X11470720Y3298700D01*
Y3393700D01*
X11458793Y3422493D01*
X11430000Y3434420D01*
D02*
G37*
G36*
X11049000D02*
X11020207Y3422493D01*
X11008280Y3393700D01*
Y3324653D01*
X10845864Y3162236D01*
X10840630Y3149600D01*
Y2374900D01*
X10845864Y2362264D01*
X11455464Y1752664D01*
X11468100Y1747430D01*
X11961111D01*
X11975146Y1713546D01*
X12026900Y1692109D01*
X12078654Y1713546D01*
X12100091Y1765300D01*
X12078654Y1817054D01*
X12026900Y1838491D01*
X11975146Y1817054D01*
X11961111Y1783170D01*
X11475502D01*
X10876370Y2382302D01*
Y3142198D01*
X11007401Y3273229D01*
X11019857Y3270751D01*
X11020207Y3269907D01*
X11049000Y3257981D01*
X11077793Y3269907D01*
X11089720Y3298700D01*
Y3393700D01*
X11077793Y3422493D01*
X11049000Y3434420D01*
D02*
G37*
G36*
X8639900Y3252700D02*
X8592201D01*
Y3175000D01*
X8639900D01*
Y3252700D01*
D02*
G37*
G36*
X8566801D02*
X8519100D01*
Y3175000D01*
X8566801D01*
Y3252700D01*
D02*
G37*
G36*
X7569200Y4175291D02*
X7517446Y4153854D01*
X7496009Y4102100D01*
X7517446Y4050346D01*
X7569200Y4028909D01*
X7611381Y4046381D01*
X7631798Y4025964D01*
X7644434Y4020730D01*
X7815798D01*
X8509064Y3327464D01*
X8521700Y3322230D01*
X8819098D01*
X8991664Y3149664D01*
X9004300Y3144430D01*
X9152922D01*
X9162707Y3120807D01*
X9191500Y3108880D01*
X9286500D01*
X9315293Y3120807D01*
X9327220Y3149600D01*
X9315293Y3178393D01*
X9286500Y3190320D01*
X9191500D01*
X9166998Y3180170D01*
X9011702D01*
X8839136Y3352736D01*
X8826500Y3357970D01*
X8529102D01*
X7835836Y4051236D01*
X7823200Y4056470D01*
X7651836D01*
X7631793Y4076514D01*
X7642391Y4102100D01*
X7620954Y4153854D01*
X7569200Y4175291D01*
D02*
G37*
G36*
X8639900Y3149600D02*
X8592201D01*
Y3071900D01*
X8639900D01*
Y3149600D01*
D02*
G37*
G36*
X8566801D02*
X8519100D01*
Y3071900D01*
X8566801D01*
Y3149600D01*
D02*
G37*
G36*
X9826500Y3082565D02*
X9791700D01*
Y3035300D01*
X9881204D01*
X9868901Y3065001D01*
X9826500Y3082565D01*
D02*
G37*
G36*
X9766300D02*
X9731500D01*
X9689099Y3065001D01*
X9676796Y3035300D01*
X9766300D01*
Y3082565D01*
D02*
G37*
G36*
X8742120Y3234920D02*
X8656880D01*
Y3089680D01*
X8677506D01*
Y2968220D01*
X8656880D01*
Y2822980D01*
X8742120D01*
Y2968220D01*
X8721494D01*
Y3006956D01*
X8921100D01*
X8937167Y2968167D01*
X8991600Y2945620D01*
X9046033Y2968167D01*
X9059470Y3000606D01*
X9159891D01*
X9162707Y2993807D01*
X9191500Y2981880D01*
X9286500D01*
X9315293Y2993807D01*
X9327220Y3022600D01*
X9315293Y3051393D01*
X9286500Y3063320D01*
X9191500D01*
X9162707Y3051393D01*
X9159891Y3044594D01*
X9059470D01*
X9046033Y3077033D01*
X8991600Y3099580D01*
X8937167Y3077033D01*
X8926361Y3050944D01*
X8721494D01*
Y3089680D01*
X8742120D01*
Y3234920D01*
D02*
G37*
G36*
X12712700Y3434420D02*
X12683907Y3422493D01*
X12671980Y3393700D01*
Y3298700D01*
X12683907Y3269907D01*
X12690706Y3267091D01*
Y3166670D01*
X12658267Y3153233D01*
X12635720Y3098800D01*
X12658267Y3044367D01*
X12690706Y3030930D01*
Y2977594D01*
X12645620D01*
Y2989020D01*
X12500380D01*
Y2903780D01*
X12645620D01*
Y2933606D01*
X12830580D01*
Y2900280D01*
X12975819D01*
Y2985520D01*
X12830580D01*
Y2977594D01*
X12734694D01*
Y3030930D01*
X12767133Y3044367D01*
X12789680Y3098800D01*
X12767133Y3153233D01*
X12734694Y3166670D01*
Y3267091D01*
X12741493Y3269907D01*
X12753420Y3298700D01*
Y3393700D01*
X12741493Y3422493D01*
X12712700Y3434420D01*
D02*
G37*
G36*
X9881204Y3009900D02*
X9791700D01*
Y2962635D01*
X9826500D01*
X9868901Y2980199D01*
X9881204Y3009900D01*
D02*
G37*
G36*
X9766300D02*
X9676796D01*
X9689099Y2980199D01*
X9731500Y2962635D01*
X9766300D01*
Y3009900D01*
D02*
G37*
G36*
X13474699Y3434420D02*
X13445908Y3422493D01*
X13433980Y3393700D01*
Y3298700D01*
X13445908Y3269907D01*
X13452705Y3267091D01*
Y3153970D01*
X13420267Y3140533D01*
X13397720Y3086100D01*
X13420267Y3031667D01*
X13452705Y3018230D01*
Y2947594D01*
X13407620D01*
Y2960120D01*
X13262379D01*
Y2874880D01*
X13407620D01*
Y2903606D01*
X13541780D01*
Y2891080D01*
X13687019D01*
Y2976320D01*
X13541780D01*
Y2947594D01*
X13496693D01*
Y3018230D01*
X13529134Y3031667D01*
X13551680Y3086100D01*
X13529134Y3140533D01*
X13496693Y3153970D01*
Y3267091D01*
X13503493Y3269907D01*
X13515421Y3298700D01*
Y3393700D01*
X13503493Y3422493D01*
X13474699Y3434420D01*
D02*
G37*
G36*
X11176000D02*
X11147207Y3422493D01*
X11135280Y3393700D01*
Y3298700D01*
X11147207Y3269907D01*
X11154006Y3267091D01*
Y3153970D01*
X11121567Y3140533D01*
X11099020Y3086100D01*
X11121567Y3031667D01*
X11154006Y3018230D01*
Y2933144D01*
X11096220D01*
Y2960120D01*
X10950980D01*
Y2874880D01*
X11096220D01*
Y2889156D01*
X11268480D01*
Y2862180D01*
X11413720D01*
Y2947420D01*
X11268480D01*
Y2933144D01*
X11197994D01*
Y3018230D01*
X11230433Y3031667D01*
X11252980Y3086100D01*
X11230433Y3140533D01*
X11197994Y3153970D01*
Y3267091D01*
X11204793Y3269907D01*
X11216720Y3298700D01*
Y3393700D01*
X11204793Y3422493D01*
X11176000Y3434420D01*
D02*
G37*
G36*
X11925300D02*
X11896507Y3422493D01*
X11884580Y3393700D01*
Y3298700D01*
X11896507Y3269907D01*
X11903306Y3267091D01*
Y3134670D01*
X11870867Y3121233D01*
X11848320Y3066800D01*
X11870867Y3012367D01*
X11903306Y2998931D01*
Y2923694D01*
X11883620D01*
Y2963620D01*
X11738380D01*
Y2878380D01*
X11883620D01*
Y2879706D01*
X12055880D01*
Y2878380D01*
X12201120D01*
Y2963620D01*
X12055880D01*
Y2923694D01*
X11947294D01*
Y2998931D01*
X11979733Y3012367D01*
X12002280Y3066800D01*
X11979733Y3121233D01*
X11947294Y3134670D01*
Y3267091D01*
X11954093Y3269907D01*
X11966020Y3298700D01*
Y3393700D01*
X11954093Y3422493D01*
X11925300Y3434420D01*
D02*
G37*
G36*
X8639900Y2986000D02*
X8592201D01*
Y2908300D01*
X8639900D01*
Y2986000D01*
D02*
G37*
G36*
X8566801D02*
X8519100D01*
Y2908300D01*
X8566801D01*
Y2986000D01*
D02*
G37*
G36*
X16647820Y3036620D02*
X16362579D01*
Y2901380D01*
X16647820D01*
Y3036620D01*
D02*
G37*
G36*
X9826500Y2936320D02*
X9731500D01*
X9702707Y2924393D01*
X9690780Y2895600D01*
X9702707Y2866807D01*
X9731500Y2854880D01*
X9826500D01*
X9855293Y2866807D01*
X9867220Y2895600D01*
X9855293Y2924393D01*
X9826500Y2936320D01*
D02*
G37*
G36*
X7315200Y4175291D02*
X7263446Y4153854D01*
X7242009Y4102100D01*
X7263446Y4050346D01*
X7315200Y4028909D01*
X7366954Y4050346D01*
X7367061Y4050367D01*
X7518464Y3898964D01*
X7531100Y3893730D01*
X7688798D01*
X8211730Y3370798D01*
Y2908300D01*
X8216964Y2895664D01*
X8458264Y2654364D01*
X8470900Y2649130D01*
X8688469D01*
X8701105Y2654364D01*
X8937171Y2890430D01*
X9152922D01*
X9162707Y2866807D01*
X9191500Y2854880D01*
X9286500D01*
X9315293Y2866807D01*
X9327220Y2895600D01*
X9315293Y2924393D01*
X9286500Y2936320D01*
X9191500D01*
X9166998Y2926170D01*
X8929769D01*
X8917133Y2920936D01*
X8681067Y2684870D01*
X8478302D01*
X8247470Y2915702D01*
Y3378200D01*
X8242236Y3390836D01*
X7708836Y3924236D01*
X7696200Y3929470D01*
X7538502D01*
X7381795Y4086176D01*
X7388391Y4102100D01*
X7366954Y4153854D01*
X7315200Y4175291D01*
D02*
G37*
G36*
X12663400Y2886800D02*
X12585700D01*
Y2839100D01*
X12663400D01*
Y2886800D01*
D02*
G37*
G36*
X12560300D02*
X12482600D01*
Y2839100D01*
X12560300D01*
Y2886800D01*
D02*
G37*
G36*
X12993600Y2883300D02*
X12915900D01*
Y2835600D01*
X12993600D01*
Y2883300D01*
D02*
G37*
G36*
X12890500D02*
X12812801D01*
Y2835600D01*
X12890500D01*
Y2883300D01*
D02*
G37*
G36*
X13704800Y2874100D02*
X13627100D01*
Y2826400D01*
X13704800D01*
Y2874100D01*
D02*
G37*
G36*
X13601700D02*
X13524001D01*
Y2826400D01*
X13601700D01*
Y2874100D01*
D02*
G37*
G36*
X12218900Y2861400D02*
X12141200D01*
Y2813700D01*
X12218900D01*
Y2861400D01*
D02*
G37*
G36*
X11901400D02*
X11823700D01*
Y2813700D01*
X11901400D01*
Y2861400D01*
D02*
G37*
G36*
X12115800D02*
X12038100D01*
Y2813700D01*
X12115800D01*
Y2861400D01*
D02*
G37*
G36*
X11798300D02*
X11720600D01*
Y2813700D01*
X11798300D01*
Y2861400D01*
D02*
G37*
G36*
X13425400Y2857900D02*
X13347701D01*
Y2810200D01*
X13425400D01*
Y2857900D01*
D02*
G37*
G36*
X11114000D02*
X11036300D01*
Y2810200D01*
X11114000D01*
Y2857900D01*
D02*
G37*
G36*
X11010900D02*
X10933200D01*
Y2810200D01*
X11010900D01*
Y2857900D01*
D02*
G37*
G36*
X13322301D02*
X13244600D01*
Y2810200D01*
X13322301D01*
Y2857900D01*
D02*
G37*
G36*
X8639900Y2882900D02*
X8592201D01*
Y2805200D01*
X8639900D01*
Y2882900D01*
D02*
G37*
G36*
X8566801D02*
X8519100D01*
Y2805200D01*
X8566801D01*
Y2882900D01*
D02*
G37*
G36*
X11431500Y2845200D02*
X11353800D01*
Y2797500D01*
X11431500D01*
Y2845200D01*
D02*
G37*
G36*
X11328400D02*
X11250700D01*
Y2797500D01*
X11328400D01*
Y2845200D01*
D02*
G37*
G36*
X12663400Y2813700D02*
X12585700D01*
Y2766000D01*
X12663400D01*
Y2813700D01*
D02*
G37*
G36*
X12560300D02*
X12482600D01*
Y2766000D01*
X12560300D01*
Y2813700D01*
D02*
G37*
G36*
X12993600Y2810200D02*
X12915900D01*
Y2762500D01*
X12993600D01*
Y2810200D01*
D02*
G37*
G36*
X12890500D02*
X12812801D01*
Y2762500D01*
X12890500D01*
Y2810200D01*
D02*
G37*
G36*
X13704800Y2801000D02*
X13627100D01*
Y2753300D01*
X13704800D01*
Y2801000D01*
D02*
G37*
G36*
X13601700D02*
X13524001D01*
Y2753300D01*
X13601700D01*
Y2801000D01*
D02*
G37*
G36*
X12218900Y2788300D02*
X12141200D01*
Y2740600D01*
X12218900D01*
Y2788300D01*
D02*
G37*
G36*
X12115800D02*
X12038100D01*
Y2740600D01*
X12115800D01*
Y2788300D01*
D02*
G37*
G36*
X11901400D02*
X11823700D01*
Y2740600D01*
X11901400D01*
Y2788300D01*
D02*
G37*
G36*
X11798300D02*
X11720600D01*
Y2740600D01*
X11798300D01*
Y2788300D01*
D02*
G37*
G36*
X13425400Y2784800D02*
X13347701D01*
Y2737100D01*
X13425400D01*
Y2784800D01*
D02*
G37*
G36*
X13322301D02*
X13244600D01*
Y2737100D01*
X13322301D01*
Y2784800D01*
D02*
G37*
G36*
X11114000D02*
X11036300D01*
Y2737100D01*
X11114000D01*
Y2784800D01*
D02*
G37*
G36*
X11010900D02*
X10933200D01*
Y2737100D01*
X11010900D01*
Y2784800D01*
D02*
G37*
G36*
X9864120Y2806220D02*
X9693880D01*
Y2730980D01*
X9864120D01*
Y2806220D01*
D02*
G37*
G36*
X9286500Y2809320D02*
X9191500D01*
X9162707Y2797393D01*
X9150781Y2768600D01*
X9162707Y2739807D01*
X9191500Y2727880D01*
X9286500D01*
X9315293Y2739807D01*
X9327220Y2768600D01*
X9315293Y2797393D01*
X9286500Y2809320D01*
D02*
G37*
G36*
X11431500Y2772100D02*
X11353800D01*
Y2724400D01*
X11431500D01*
Y2772100D01*
D02*
G37*
G36*
X11328400D02*
X11250700D01*
Y2724400D01*
X11328400D01*
Y2772100D01*
D02*
G37*
G36*
X13347701Y3434420D02*
X13318907Y3422493D01*
X13306979Y3393700D01*
Y3298700D01*
X13318907Y3269907D01*
X13329829Y3265383D01*
Y3144302D01*
X13144563Y2959036D01*
X13139330Y2946400D01*
Y2571478D01*
X13102766Y2556333D01*
X13086169Y2516265D01*
X13073470Y2518791D01*
Y3048000D01*
X13068236Y3060636D01*
X12866911Y3261960D01*
X12868494Y3269907D01*
X12880420Y3298700D01*
Y3393700D01*
X12868494Y3422493D01*
X12839700Y3434420D01*
X12810907Y3422493D01*
X12798980Y3393700D01*
Y3298700D01*
X12810907Y3269907D01*
X12821831Y3265383D01*
Y3263900D01*
X12827065Y3251264D01*
X13037730Y3040598D01*
Y2382302D01*
X13022798Y2367370D01*
X12549779D01*
X12537143Y2362136D01*
X12522264Y2347257D01*
X12517030Y2334621D01*
Y2085089D01*
X12483146Y2071054D01*
X12461709Y2019300D01*
X12483146Y1967546D01*
X12534900Y1946109D01*
X12586654Y1967546D01*
X12608091Y2019300D01*
X12586654Y2071054D01*
X12552770Y2085089D01*
Y2327219D01*
X12557181Y2331630D01*
X13030200D01*
X13042836Y2336864D01*
X13068236Y2362264D01*
X13073470Y2374900D01*
Y2485009D01*
X13086169Y2487535D01*
X13102766Y2447467D01*
X13157201Y2424920D01*
X13211633Y2447467D01*
X13234180Y2501900D01*
X13211633Y2556333D01*
X13175070Y2571478D01*
Y2938998D01*
X13360336Y3124264D01*
X13365570Y3136900D01*
Y3265383D01*
X13376492Y3269907D01*
X13388420Y3298700D01*
Y3393700D01*
X13376492Y3422493D01*
X13347701Y3434420D01*
D02*
G37*
G36*
X13601700D02*
X13572906Y3422493D01*
X13560980Y3393700D01*
Y3298700D01*
X13572906Y3269907D01*
X13583830Y3265383D01*
Y3187700D01*
X13589064Y3175064D01*
X13812430Y2951698D01*
Y2496602D01*
X13352998Y2037170D01*
X12856520D01*
Y2086920D01*
X12721280D01*
Y1951680D01*
X12856520D01*
Y2001430D01*
X13360400D01*
X13373036Y2006664D01*
X13842937Y2476564D01*
X13848170Y2489200D01*
Y2959100D01*
X13842937Y2971736D01*
X13619569Y3195102D01*
Y3265383D01*
X13630493Y3269907D01*
X13642419Y3298700D01*
Y3393700D01*
X13630493Y3422493D01*
X13601700Y3434420D01*
D02*
G37*
G36*
X12052300D02*
X12023507Y3422493D01*
X12011580Y3393700D01*
Y3298700D01*
X12023507Y3269907D01*
X12034430Y3265383D01*
Y3183019D01*
X12039664Y3170383D01*
X12263030Y2947016D01*
Y2085089D01*
X12229146Y2071054D01*
X12207709Y2019300D01*
X12229146Y1967546D01*
X12280900Y1946109D01*
X12332654Y1967546D01*
X12354091Y2019300D01*
X12332654Y2071054D01*
X12298770Y2085089D01*
Y2954419D01*
X12293536Y2967055D01*
X12070170Y3190420D01*
Y3265383D01*
X12081093Y3269907D01*
X12093020Y3298700D01*
Y3393700D01*
X12081093Y3422493D01*
X12052300Y3434420D01*
D02*
G37*
G36*
X11303000D02*
X11274207Y3422493D01*
X11262280Y3393700D01*
Y3298700D01*
X11274207Y3269907D01*
X11285130Y3265383D01*
Y3263900D01*
X11290364Y3251264D01*
X11551830Y2989798D01*
Y2059579D01*
X11557064Y2046943D01*
X11597343Y2006664D01*
X11609979Y2001430D01*
X11961111D01*
X11975146Y1967546D01*
X12026900Y1946109D01*
X12078654Y1967546D01*
X12100091Y2019300D01*
X12078654Y2071054D01*
X12026900Y2092491D01*
X11975146Y2071054D01*
X11961111Y2037170D01*
X11617381D01*
X11587570Y2066981D01*
Y2997200D01*
X11582336Y3009836D01*
X11330212Y3261960D01*
X11331793Y3269907D01*
X11343720Y3298700D01*
Y3393700D01*
X11331793Y3422493D01*
X11303000Y3434420D01*
D02*
G37*
G36*
X12788900Y1838491D02*
X12737146Y1817054D01*
X12715709Y1765300D01*
X12737146Y1713546D01*
X12788900Y1692109D01*
X12840654Y1713546D01*
X12862091Y1765300D01*
X12840654Y1817054D01*
X12788900Y1838491D01*
D02*
G37*
G36*
X12585700Y3434420D02*
X12556907Y3422493D01*
X12544980Y3393700D01*
Y3298700D01*
X12556907Y3269907D01*
X12558488Y3261960D01*
X12407964Y3111436D01*
X12402730Y3098800D01*
Y1879600D01*
X12407964Y1866964D01*
X12475744Y1799184D01*
X12461709Y1765300D01*
X12483146Y1713546D01*
X12534900Y1692109D01*
X12586654Y1713546D01*
X12608091Y1765300D01*
X12586654Y1817054D01*
X12534900Y1838491D01*
X12501016Y1824456D01*
X12438470Y1887002D01*
Y3091398D01*
X12598336Y3251264D01*
X12603570Y3263900D01*
Y3265383D01*
X12614493Y3269907D01*
X12626420Y3298700D01*
Y3393700D01*
X12614493Y3422493D01*
X12585700Y3434420D01*
D02*
G37*
%LPD*%
D10*
X13995399Y9731700D02*
D03*
Y9851700D02*
D03*
X11341100Y2904800D02*
D03*
Y2784800D02*
D03*
X15024100Y9706300D02*
D03*
Y9826300D02*
D03*
X13335001Y9731700D02*
D03*
Y9851700D02*
D03*
X12547600Y9706300D02*
D03*
Y9826300D02*
D03*
X13055600Y9744400D02*
D03*
Y9864400D02*
D03*
X10591800Y9744400D02*
D03*
Y9864400D02*
D03*
X11709400Y9731700D02*
D03*
Y9851700D02*
D03*
X11404600Y9731700D02*
D03*
Y9851700D02*
D03*
X12255500Y9706300D02*
D03*
Y9826300D02*
D03*
X16675101Y9693600D02*
D03*
Y9813600D02*
D03*
X10883900Y9757100D02*
D03*
Y9877100D02*
D03*
X16383000Y9680900D02*
D03*
Y9800900D02*
D03*
X14732001Y9706300D02*
D03*
Y9826300D02*
D03*
X14262100Y9719000D02*
D03*
Y9839000D02*
D03*
X15544800Y9693600D02*
D03*
Y9813600D02*
D03*
X15836900Y9693600D02*
D03*
Y9813600D02*
D03*
X11023600Y2917500D02*
D03*
Y2797500D02*
D03*
X11811000Y2921000D02*
D03*
Y2801000D02*
D03*
X12573000Y2946400D02*
D03*
Y2826400D02*
D03*
X13335001Y2917500D02*
D03*
Y2797500D02*
D03*
X12128500Y2921000D02*
D03*
Y2801000D02*
D03*
X12903200Y2942900D02*
D03*
Y2822900D02*
D03*
X13614400Y2933700D02*
D03*
Y2813700D02*
D03*
D11*
X15586400Y6172200D02*
D03*
X15706400D02*
D03*
X15589900Y6464300D02*
D03*
X15709900D02*
D03*
X8699500Y2895600D02*
D03*
X8579500D02*
D03*
X15582899Y5575300D02*
D03*
X15702901D02*
D03*
X15573700Y5854700D02*
D03*
X15693700D02*
D03*
X15586400Y4876800D02*
D03*
X15706400D02*
D03*
X15582899Y5156200D02*
D03*
X15702901D02*
D03*
X8692500Y4673600D02*
D03*
X8572500D02*
D03*
X8717900Y5232400D02*
D03*
X8597900D02*
D03*
X8717900Y5486400D02*
D03*
X8597900D02*
D03*
X8714400Y3670300D02*
D03*
X8594400D02*
D03*
X8701700Y4419600D02*
D03*
X8581700D02*
D03*
X8734100Y6070600D02*
D03*
X8614100D02*
D03*
X8721400Y7188200D02*
D03*
X8601400D02*
D03*
X8721400Y7924800D02*
D03*
X8601400D02*
D03*
X8699500Y3162300D02*
D03*
X8579500D02*
D03*
X8717900Y3949700D02*
D03*
X8597900D02*
D03*
X8734100Y6337300D02*
D03*
X8614100D02*
D03*
X8721400Y6921500D02*
D03*
X8601400D02*
D03*
X8721400Y7696200D02*
D03*
X8601400D02*
D03*
X8712200Y8623300D02*
D03*
X8592200D02*
D03*
X8712200Y8890000D02*
D03*
X8592200D02*
D03*
X15586400Y4528200D02*
D03*
X15706400D02*
D03*
X15586400Y4229100D02*
D03*
X15706400D02*
D03*
D12*
X16268700Y8705600D02*
D03*
X13728700Y3886200D02*
D03*
X12966701D02*
D03*
X12179300D02*
D03*
X11430000D02*
D03*
X12141200Y8705600D02*
D03*
X12941299D02*
D03*
X13881100D02*
D03*
X14630400D02*
D03*
X10477500D02*
D03*
X11290300D02*
D03*
X15468600D02*
D03*
D13*
X16395700D02*
D03*
X16522701D02*
D03*
X16649699D02*
D03*
X16268700Y9245600D02*
D03*
X16395700D02*
D03*
X16522701D02*
D03*
X16649699D02*
D03*
X13601700Y3886200D02*
D03*
X13474699D02*
D03*
X13347701D02*
D03*
X13728700Y3346200D02*
D03*
X13601700D02*
D03*
X13474699D02*
D03*
X13347701D02*
D03*
X12839700Y3886200D02*
D03*
X12712700D02*
D03*
X12585700D02*
D03*
X12966701Y3346200D02*
D03*
X12839700D02*
D03*
X12712700D02*
D03*
X12585700D02*
D03*
X12052300Y3886200D02*
D03*
X11925300D02*
D03*
X11798300D02*
D03*
X12179300Y3346200D02*
D03*
X12052300D02*
D03*
X11925300D02*
D03*
X11798300D02*
D03*
X11303000Y3886200D02*
D03*
X11176000D02*
D03*
X11049000D02*
D03*
X11430000Y3346200D02*
D03*
X11303000D02*
D03*
X11176000D02*
D03*
X11049000D02*
D03*
X12268200Y8705600D02*
D03*
X12395200D02*
D03*
X12522200D02*
D03*
X12141200Y9245600D02*
D03*
X12268200D02*
D03*
X12395200D02*
D03*
X12522200D02*
D03*
X13068300Y8705600D02*
D03*
X13195300D02*
D03*
X13322301D02*
D03*
X12941299Y9245600D02*
D03*
X13068300D02*
D03*
X13195300D02*
D03*
X13322301D02*
D03*
X14008099Y8705600D02*
D03*
X14135100D02*
D03*
X14262100D02*
D03*
X13881100Y9245600D02*
D03*
X14008099D02*
D03*
X14135100D02*
D03*
X14262100D02*
D03*
X14757401Y8705600D02*
D03*
X14884399D02*
D03*
X15011400D02*
D03*
X14630400Y9245600D02*
D03*
X14757401D02*
D03*
X14884399D02*
D03*
X15011400D02*
D03*
X10604500Y8705600D02*
D03*
X10731500D02*
D03*
X10858500D02*
D03*
X10477500Y9245600D02*
D03*
X10604500D02*
D03*
X10731500D02*
D03*
X10858500D02*
D03*
X11417300Y8705600D02*
D03*
X11544300D02*
D03*
X11671300D02*
D03*
X11290300Y9245600D02*
D03*
X11417300D02*
D03*
X11544300D02*
D03*
X11671300D02*
D03*
X15595599Y8705600D02*
D03*
X15722600D02*
D03*
X15849600D02*
D03*
X15468600Y9245600D02*
D03*
X15595599D02*
D03*
X15722600D02*
D03*
X15849600D02*
D03*
D14*
X14573000Y6591300D02*
D03*
Y5257800D02*
D03*
Y4597400D02*
D03*
X9779000Y2768600D02*
D03*
Y3543300D02*
D03*
Y4305300D02*
D03*
Y5118100D02*
D03*
Y5956300D02*
D03*
Y6807200D02*
D03*
Y7581900D02*
D03*
Y8509000D02*
D03*
X14573000Y5969000D02*
D03*
D15*
Y6464300D02*
D03*
Y6337300D02*
D03*
Y6210300D02*
D03*
X15113000Y6591300D02*
D03*
Y6464300D02*
D03*
Y6337300D02*
D03*
Y6210300D02*
D03*
X14573000Y5130800D02*
D03*
Y5003800D02*
D03*
Y4876800D02*
D03*
X15113000Y5257800D02*
D03*
Y5130800D02*
D03*
Y5003800D02*
D03*
Y4876800D02*
D03*
X14573000Y4470400D02*
D03*
Y4343400D02*
D03*
Y4216400D02*
D03*
X15113000Y4597400D02*
D03*
Y4470400D02*
D03*
Y4343400D02*
D03*
Y4216400D02*
D03*
X9779000Y2895600D02*
D03*
Y3022600D02*
D03*
Y3149600D02*
D03*
X9239000Y2768600D02*
D03*
Y2895600D02*
D03*
Y3022600D02*
D03*
Y3149600D02*
D03*
X9779000Y3670300D02*
D03*
Y3797300D02*
D03*
Y3924300D02*
D03*
X9239000Y3543300D02*
D03*
Y3670300D02*
D03*
Y3797300D02*
D03*
Y3924300D02*
D03*
X9779000Y4432300D02*
D03*
Y4559300D02*
D03*
Y4686300D02*
D03*
X9239000Y4305300D02*
D03*
Y4432300D02*
D03*
Y4559300D02*
D03*
Y4686300D02*
D03*
X9779000Y5245100D02*
D03*
Y5372100D02*
D03*
Y5499100D02*
D03*
X9239000Y5118100D02*
D03*
Y5245100D02*
D03*
Y5372100D02*
D03*
Y5499100D02*
D03*
X9779000Y6083300D02*
D03*
Y6210300D02*
D03*
Y6337300D02*
D03*
X9239000Y5956300D02*
D03*
Y6083300D02*
D03*
Y6210300D02*
D03*
Y6337300D02*
D03*
X9779000Y6934200D02*
D03*
Y7061200D02*
D03*
Y7188200D02*
D03*
X9239000Y6807200D02*
D03*
Y6934200D02*
D03*
Y7061200D02*
D03*
Y7188200D02*
D03*
X9779000Y7708900D02*
D03*
Y7835900D02*
D03*
Y7962900D02*
D03*
X9239000Y7581900D02*
D03*
Y7708900D02*
D03*
Y7835900D02*
D03*
Y7962900D02*
D03*
X9779000Y8636000D02*
D03*
Y8763000D02*
D03*
Y8890000D02*
D03*
X9239000Y8509000D02*
D03*
Y8636000D02*
D03*
Y8763000D02*
D03*
Y8890000D02*
D03*
X14573000Y5842000D02*
D03*
Y5715000D02*
D03*
Y5588000D02*
D03*
X15113000Y5969000D02*
D03*
Y5842000D02*
D03*
Y5715000D02*
D03*
Y5588000D02*
D03*
D16*
X12630313Y7257887D02*
D03*
X12665669Y7222532D02*
D03*
X12701024Y7187176D02*
D03*
X12736379Y7151821D02*
D03*
X12771734Y7116466D02*
D03*
X12807091Y7081111D02*
D03*
X12842445Y7045755D02*
D03*
X12877800Y7010400D02*
D03*
X12913155Y6975045D02*
D03*
X12948511Y6939689D02*
D03*
X12983865Y6904334D02*
D03*
X13019221Y6868979D02*
D03*
X13054576Y6833624D02*
D03*
X13089932Y6798268D02*
D03*
X13125287Y6762913D02*
D03*
X13160641Y6727558D02*
D03*
X12385654Y5952570D02*
D03*
X12350299Y5987925D02*
D03*
X12314944Y6023281D02*
D03*
X12279589Y6058636D02*
D03*
X12244233Y6093991D02*
D03*
X12208878Y6129346D02*
D03*
X12173523Y6164702D02*
D03*
X12138167Y6200057D02*
D03*
X12102812Y6235412D02*
D03*
X12067457Y6270767D02*
D03*
X12032102Y6306123D02*
D03*
X11996746Y6341478D02*
D03*
X11961391Y6376833D02*
D03*
X11926036Y6412189D02*
D03*
X11890681Y6447544D02*
D03*
X11855325Y6482899D02*
D03*
D17*
X13160641D02*
D03*
X13125287Y6447544D02*
D03*
X13089932Y6412189D02*
D03*
X13054576Y6376833D02*
D03*
X13019221Y6341478D02*
D03*
X12983865Y6306123D02*
D03*
X12948511Y6270767D02*
D03*
X12913155Y6235412D02*
D03*
X12877800Y6200057D02*
D03*
X12842445Y6164702D02*
D03*
X12807091Y6129346D02*
D03*
X12771734Y6093991D02*
D03*
X12736379Y6058636D02*
D03*
X12701024Y6023281D02*
D03*
X12665669Y5987925D02*
D03*
X12630313Y5952570D02*
D03*
X11855325Y6727558D02*
D03*
X11890681Y6762913D02*
D03*
X11926036Y6798268D02*
D03*
X11961391Y6833624D02*
D03*
X11996746Y6868979D02*
D03*
X12032102Y6904334D02*
D03*
X12067457Y6939689D02*
D03*
X12102812Y6975045D02*
D03*
X12138167Y7010400D02*
D03*
X12173523Y7045755D02*
D03*
X12208878Y7081111D02*
D03*
X12244233Y7116466D02*
D03*
X12279589Y7151821D02*
D03*
X12314944Y7187176D02*
D03*
X12350299Y7222532D02*
D03*
D18*
X12385654Y7257887D02*
D03*
D19*
X14935201Y7683500D02*
D03*
X14897099Y7366000D02*
D03*
D20*
X11950700Y6007100D02*
X11972790Y5985010D01*
X16979900Y6794500D02*
X17005299Y6819900D01*
X16522701Y9271000D02*
Y9680900D01*
X15113000Y6337300D02*
X15588150D01*
X15103600D02*
X15113000D01*
X14897099Y9271000D02*
Y9706300D01*
X14135100Y9271000D02*
Y9719000D01*
X15103600Y5702300D02*
X15392400D01*
X15103600Y5016500D02*
X15584650D01*
X15113000Y4343400D02*
X15379700D01*
X15103600D02*
X15113000D01*
X9239000Y8763000D02*
X9267700D01*
X8966200D02*
X9239000D01*
X8966200Y7848600D02*
X9267700D01*
X8721400Y7054850D02*
X9261350D01*
X8734100Y6203950D02*
X9261350D01*
X12948511Y6270767D02*
X13055600Y6163678D01*
Y5918200D02*
Y6163678D01*
X12913155Y6235130D02*
Y6235412D01*
X12037421Y4051300D02*
X12052300Y4036421D01*
X11950700Y6007100D02*
Y6012589D01*
X11972790Y5985010D02*
X11993831D01*
X12173523Y6164702D01*
X11950700Y6012589D02*
X12138167Y6200057D01*
X11861800Y7073900D02*
X11862536D01*
X12032102Y6904334D01*
X12179300Y7391400D02*
X12181431D01*
X12350299Y7222532D01*
X13113611Y7175500D02*
X13220700D01*
X12913155Y6975045D02*
X13113611Y7175500D01*
X9261350Y6203950D02*
X9267700Y6197600D01*
X12420600Y9706300D02*
X12547600D01*
X12255500D02*
X12420600D01*
X12407900Y9693600D02*
X12420600Y9706300D01*
X12407900Y9550400D02*
Y9693600D01*
X13474699Y2925600D02*
X13606300D01*
X13343100D02*
X13474699D01*
X13474699Y2925600D02*
X13474699Y2925600D01*
X13474699Y2925600D02*
Y3086100D01*
X13606300Y2925600D02*
X13614400Y2933700D01*
X13335001Y2917500D02*
X13343100Y2925600D01*
X12700000Y2955600D02*
X12890500D01*
X12560300D02*
X12700000D01*
X12712700Y2968300D01*
Y3098800D01*
X11925300Y2901700D02*
X12128500D01*
X11811000D02*
X11925300D01*
Y3066800D01*
X11182350Y2911150D02*
X11334750D01*
X11029950D02*
X11182350D01*
X11176000Y2917500D02*
X11182350Y2911150D01*
X11176000Y2917500D02*
Y3086100D01*
X11334750Y2911150D02*
X11341100Y2904800D01*
X11023600Y2917500D02*
X11029950Y2911150D01*
X15586400Y4356100D02*
Y4528200D01*
Y4229100D02*
Y4356100D01*
X15573700Y4343400D02*
X15586400Y4356100D01*
X15379700Y4343400D02*
X15573700D01*
X15584650Y5016500D02*
Y5154450D01*
Y4878550D02*
Y5016500D01*
Y4878550D02*
X15586400Y4876800D01*
X15582899Y5156200D02*
X15584650Y5154450D01*
X15578300Y5715000D02*
Y5850100D01*
Y5579900D02*
Y5715000D01*
X15565601Y5702300D02*
X15578300Y5715000D01*
X15392400Y5702300D02*
X15565601D01*
X15578300Y5579900D02*
X15582899Y5575300D01*
X15573700Y5854700D02*
X15578300Y5850100D01*
X15588150Y6337300D02*
X15589900D01*
X15588150D02*
Y6462550D01*
Y6173950D02*
Y6337300D01*
X15586400Y6172200D02*
X15588150Y6173950D01*
Y6462550D02*
X15589900Y6464300D01*
X16668750Y9687250D02*
X16675101Y9693600D01*
X16389349Y9687250D02*
X16668750D01*
X16383000Y9680900D02*
X16389349Y9687250D01*
X15709900Y9693600D02*
X15836900D01*
X15544800D02*
X15709900D01*
Y9482300D02*
Y9693600D01*
X14897099Y9706300D02*
X15024100D01*
X14732001D02*
X14897099D01*
X14255750Y9725350D02*
X14262100Y9719000D01*
X14001750Y9725350D02*
X14255750D01*
X13995399Y9731700D02*
X14001750Y9725350D01*
X13055600Y9713920D02*
X13317220D01*
X13335001Y9731700D01*
X13208000Y9588500D02*
Y9713321D01*
X13055600Y9744400D02*
X13085165D01*
X11557000Y9731700D02*
X11709400D01*
X11404600D02*
X11557000D01*
Y9575800D02*
Y9731700D01*
X10737850Y9750750D02*
X10877550D01*
X10598150D02*
X10737850D01*
X10731500Y9744400D02*
X10737850Y9750750D01*
X10731500Y9575800D02*
Y9744400D01*
X8699500Y3028950D02*
Y3162300D01*
Y2895600D02*
Y3028950D01*
X8959850D01*
X8966200Y3035300D01*
X8716150Y3810000D02*
Y3947950D01*
Y3672050D02*
Y3810000D01*
X8953500D01*
X8966200Y3797300D01*
X8714400Y3670300D02*
X8716150Y3672050D01*
Y3947950D02*
X8717900Y3949700D01*
X8697100Y4546600D02*
Y4669000D01*
Y4424200D02*
Y4546600D01*
X8722500Y4572000D01*
X8966200D01*
X8697100Y4424200D02*
X8701700Y4419600D01*
X8692500Y4673600D02*
X8697100Y4669000D01*
X8717900Y5359400D02*
Y5486400D01*
Y5232400D02*
Y5359400D01*
X8743300Y5384800D01*
X8966200D01*
X8734100Y6203950D02*
Y6337300D01*
Y6070600D02*
Y6203950D01*
X8721400Y7054850D02*
Y7188200D01*
Y6921500D02*
Y7054850D01*
Y7810500D02*
Y7924800D01*
Y7696200D02*
Y7810500D01*
X8953500D01*
X8966200Y7823200D01*
X8712200Y8756650D02*
Y8890000D01*
Y8623300D02*
Y8756650D01*
X8959850D01*
X8966200Y8763000D01*
X11176000Y3086100D02*
Y3311400D01*
X11925300Y3066800D02*
Y3292100D01*
X12712700Y3098800D02*
Y3311400D01*
X8966200Y5384800D02*
X9204200D01*
X8966200Y4572000D02*
X9204200D01*
X8966200Y3797300D02*
X9191500D01*
X8991600Y3022600D02*
X9229600D01*
X13474699Y3086100D02*
Y3311400D01*
X15709900Y9271000D02*
Y9482300D01*
X13208000Y9309100D02*
Y9588500D01*
X12407900Y9283700D02*
Y9550400D01*
X10731500Y9283700D02*
Y9575800D01*
X11557000Y9283700D02*
Y9575800D01*
X9261350Y7054850D02*
X9267700Y7061200D01*
D21*
X12642850Y5607050D02*
X12928600Y5892800D01*
Y6007836D01*
X12807091Y6129346D02*
X12928600Y6007836D01*
X17005299Y6819900D02*
Y7480300D01*
X17538699Y8013700D01*
X15265401Y6794500D02*
X16979900D01*
X15113000Y6946900D02*
X15265401Y6794500D01*
X13550900Y6946900D02*
X15113000D01*
X16637000Y8521700D02*
X17538699D01*
X16217900Y8102600D02*
X16637000Y8521700D01*
X15392400Y8102600D02*
X16217900D01*
X15201900Y7912100D02*
X15392400Y8102600D01*
X15201900Y7678200D02*
Y7912100D01*
X13272198Y7048500D02*
X14224001D01*
X14630400Y7569200D02*
X15544800D01*
X14630400Y7340600D02*
Y7569200D01*
X14288770Y6998970D02*
X14630400Y7340600D01*
X13064578Y6840881D02*
X13272198Y7048500D01*
X13293379Y6998970D02*
X14288770D01*
X13099934Y6805525D02*
X13293379Y6998970D01*
X12075467Y6931967D02*
X12339934Y6667500D01*
X12344400D01*
X9929330Y7708900D02*
X9956800Y7736370D01*
X9779000Y7708900D02*
X9929330D01*
X9956800Y7736370D02*
X11499928Y6193242D01*
X9956800Y7736370D02*
Y7960721D01*
X11499928Y6193242D02*
X11632336D01*
X12992101Y6032500D02*
Y6156185D01*
X12913155Y6235130D02*
X12992101Y6156185D01*
X14162679Y6032500D02*
X14340479Y6210300D01*
X13618384Y6032500D02*
X14162679D01*
X14325600Y6225179D02*
X14340479Y6210300D01*
X13197292Y6453592D02*
X13618384Y6032500D01*
X9886950Y3924300D02*
X9906000D01*
X12661900Y6375400D02*
X12702457D01*
X12877800Y6200057D01*
X16649699Y9232900D02*
X16814799D01*
X16916400Y9334500D01*
X13322301Y9258300D02*
X13576300Y9512300D01*
X11620500Y3162300D02*
X11798300Y3340100D01*
X10858500Y3149600D02*
X11036300Y3327400D01*
X9017000Y4165600D02*
X9258300Y3924300D01*
X9042400Y4876800D02*
X9220200Y4699000D01*
X9029700Y6515100D02*
X9207500Y6337300D01*
X7785100Y6515100D02*
X9029700D01*
Y7378700D02*
X9226550Y7181850D01*
X12052300Y4036421D02*
Y5295900D01*
Y3886200D02*
Y4036421D01*
Y5295900D02*
X12573000Y5816600D01*
X11813179Y4051300D02*
X12037421D01*
X11798300Y4036421D02*
X11813179Y4051300D01*
X11798300Y3886200D02*
Y4036421D01*
X11684000Y8625479D02*
Y8743700D01*
Y7964214D02*
X12408557Y7239657D01*
X11430000Y8636000D02*
Y8743700D01*
X12638123Y7267337D02*
X12815544Y7444758D01*
X12816858D02*
X12994279Y7622179D01*
X12815544Y7444758D02*
X12816858D01*
X12280900Y8612779D02*
Y8743700D01*
X12534900Y8600079D02*
Y8743700D01*
X12994279Y7622179D02*
Y7643221D01*
X11303000Y3886200D02*
Y3975100D01*
Y3851400D02*
Y3886200D01*
X11049000D02*
Y4011021D01*
Y3851400D02*
Y3886200D01*
X11633200Y7024858D02*
X11892913Y6765145D01*
X11633200Y7024858D02*
Y7188200D01*
X11617793Y6969555D02*
X11857558Y6729790D01*
X10858500Y9293100D02*
X11049000Y9483600D01*
X10858500Y9245600D02*
Y9293100D01*
X15596806Y9329994D02*
X15621001Y9305800D01*
X9982200Y6085479D02*
Y6309721D01*
X9967321Y6324600D02*
X9982200Y6309721D01*
X9807700Y6070600D02*
X9967321D01*
X9807700Y6324600D02*
X9967321D01*
Y6070600D02*
X9982200Y6085479D01*
X12725400Y7213600D02*
X12736963D01*
X12888368Y7017092D02*
X13796075Y7924800D01*
X10425461Y4699000D02*
X12024001Y6297540D01*
X8902700Y9207500D02*
X9220200Y8890000D01*
X8547100Y9207500D02*
X8902700D01*
X12736963Y7213600D02*
X14008099Y8484737D01*
Y8549279D01*
X12767102Y7171898D02*
X13656102Y8060898D01*
X14309299D01*
X13796075Y7924800D02*
X14473642D01*
X11513123Y6969555D02*
X11617793D01*
X13161371Y6417671D02*
X13749742Y5829300D01*
X14389101D01*
X13119099Y6388100D02*
X14017490Y5489710D01*
X12992737Y6295277D02*
X13303786Y5984228D01*
X14017490Y5489710D02*
X14169890D01*
X13028658Y6331198D02*
X13354585Y6005270D01*
X12788900Y2019300D02*
X13360400D01*
X13830299Y2489200D01*
Y2959100D01*
X13601700Y3187700D02*
X13830299Y2959100D01*
X13601700Y3187700D02*
Y3311400D01*
X13157201Y2501900D02*
Y2946400D01*
X13347701Y3136900D01*
Y3311400D01*
X12534900Y2019300D02*
Y2334621D01*
X12549779Y2349500D01*
X13030200D01*
X13055600Y2374900D01*
Y3048000D01*
X12839700Y3263900D02*
X13055600Y3048000D01*
X12839700Y3263900D02*
Y3311400D01*
X12420600Y1879600D02*
X12534900Y1765300D01*
X12420600Y1879600D02*
Y3098800D01*
X12585700Y3263900D01*
Y3311400D01*
X12052300Y3183019D02*
X12280900Y2954419D01*
Y2019300D02*
Y2954419D01*
X12052300Y3183019D02*
Y3311400D01*
X12153900Y1892300D02*
X12280900Y1765300D01*
X12153900Y1892300D02*
Y2118721D01*
X12139021Y2133600D02*
X12153900Y2118721D01*
X11684000Y2133600D02*
X12139021D01*
X11681821Y2131421D02*
X11684000Y2133600D01*
X11660779Y2131421D02*
X11681821D01*
X11620500Y2171700D02*
X11660779Y2131421D01*
X11620500Y2171700D02*
Y3162300D01*
X11569700Y2059579D02*
X11609979Y2019300D01*
X12026900D01*
X11569700Y2059579D02*
Y2997200D01*
X11303000Y3263900D02*
X11569700Y2997200D01*
X11303000Y3263900D02*
Y3311400D01*
X11468100Y1765300D02*
X12026900D01*
X10858500Y2374900D02*
X11468100Y1765300D01*
X10858500Y2374900D02*
Y3149600D01*
X12585700Y3998321D02*
Y4254500D01*
Y3851400D02*
Y3998321D01*
X13303786Y4981251D02*
Y5984228D01*
X13296899Y4974365D02*
X13303786Y4981251D01*
X13296899Y4965700D02*
Y4974365D01*
X12585700Y4254500D02*
X13296899Y4965700D01*
X13347701Y4049121D02*
Y4953323D01*
Y3851400D02*
Y4049121D01*
X13354585Y4960210D02*
Y6005270D01*
X13347701Y4953323D02*
X13354585Y4960210D01*
X13347701Y4049121D02*
X13362579Y4064000D01*
X13586821D01*
X13601700Y4049121D01*
Y3851400D02*
Y4049121D01*
X12585700Y3998321D02*
X12600579Y4013200D01*
X12824821D01*
X12839700Y3998321D01*
Y3851400D02*
Y3998321D01*
X11303000Y3975100D02*
Y4660900D01*
X11252200Y4025900D02*
X11303000Y3975100D01*
X11063879Y4025900D02*
X11252200D01*
X11049000Y4011021D02*
X11063879Y4025900D01*
X11303000Y4660900D02*
X12465050Y5822950D01*
X14416679Y4470400D02*
X14427200D01*
X13106749Y6324949D02*
X13957300Y5474398D01*
Y4940300D02*
Y5474398D01*
Y4940300D02*
X14427200Y4470400D01*
X14563600D01*
X14169890Y5489710D02*
X14516100Y5143500D01*
X14414500Y5128621D02*
X14429379Y5143500D01*
X14516100D01*
X14414500Y4904379D02*
Y5128621D01*
X14439900Y4216400D02*
X14563600D01*
X14437721Y4214221D02*
X14439900Y4216400D01*
X14416679Y4214221D02*
X14437721D01*
X14401801Y4229100D02*
X14416679Y4214221D01*
X14401801Y4229100D02*
Y4455521D01*
X14416679Y4470400D01*
X14516100Y5143500D02*
X14563600D01*
X14429379Y4889500D02*
X14563600D01*
X14414500Y4904379D02*
X14429379Y4889500D01*
X14389101Y5829300D02*
X14563600D01*
X14378580Y5575300D02*
X14563600D01*
X14363699Y5590179D02*
X14378580Y5575300D01*
X14363699Y5590179D02*
Y5803900D01*
X14389101Y5829300D01*
X14579601D02*
X14592300Y5842000D01*
X14563600Y5829300D02*
X14579601D01*
X14340479Y6210300D02*
X14563600D01*
X14325600Y6225179D02*
Y6449421D01*
X14340479Y6464300D01*
X14563600D01*
X16243300Y4838700D02*
X16446500Y5041900D01*
Y5054600D01*
X16243300Y4432300D02*
Y4838700D01*
X15887700Y4076700D02*
X16243300Y4432300D01*
X15455901Y4076700D02*
X15887700D01*
X15316200Y4216400D02*
X15455901Y4076700D01*
X15103600Y4216400D02*
X15316200D01*
X16408400Y5308600D02*
X16446500D01*
X15862300Y4762500D02*
X16408400Y5308600D01*
X15430499Y4762500D02*
X15862300D01*
X15481300Y4673600D02*
X15938499D01*
X15278101Y4470400D02*
X15481300Y4673600D01*
X15103600Y4470400D02*
X15278101D01*
X15303500Y4889500D02*
X15430499Y4762500D01*
X15103600Y4889500D02*
X15303500D01*
X16141701Y5422900D02*
X16586200D01*
X16700500Y5308600D01*
X16014700Y5295900D02*
X16141701Y5422900D01*
X15455901Y5295900D02*
X16014700D01*
X15303500Y5143500D02*
X15455901Y5295900D01*
X15103600Y5143500D02*
X15303500D01*
X16040100Y5549900D02*
X16433800D01*
X16446500Y5562600D01*
X15875000Y5384800D02*
X16040100Y5549900D01*
X15494000Y5384800D02*
X15875000D01*
X15303500Y5575300D02*
X15494000Y5384800D01*
X15103600Y5575300D02*
X15303500D01*
X15481300Y5981700D02*
X15976601D01*
X15328900Y5829300D02*
X15481300Y5981700D01*
X15976601D02*
X16256000Y5702300D01*
X16230600Y6032500D02*
X16446500Y5816600D01*
X15455901Y6032500D02*
X16230600D01*
X15278101Y6210300D02*
X15455901Y6032500D01*
X16560800Y5702300D02*
X16700500Y5562600D01*
X16256000Y5702300D02*
X16560800D01*
X15103600Y5829300D02*
X15328900D01*
X15103600Y6210300D02*
X15278101D01*
X16700500Y5816600D02*
Y6413500D01*
X16383000Y6731000D02*
X16700500Y6413500D01*
X15570200Y6731000D02*
X16383000D01*
X15303500Y6464300D02*
X15570200Y6731000D01*
X15103600Y6464300D02*
X15303500D01*
X16395700Y8534400D02*
Y8574679D01*
X14473642Y7924800D02*
X14740343Y8191500D01*
X15354300D01*
X15506700Y8343900D01*
X16205200D01*
X16395700Y8534400D01*
Y8574679D02*
Y8731000D01*
X16634821Y8559800D02*
X16649699Y8574679D01*
Y8731000D01*
X16410579Y8559800D02*
X16634821D01*
X16395700Y8574679D02*
X16410579Y8559800D01*
X13775034Y7975600D02*
X14452600D01*
X12852448Y7053013D02*
X13775034Y7975600D01*
X15582899Y8496300D02*
Y8585200D01*
X14452600Y7975600D02*
X14719299Y8242300D01*
X15328900D01*
X15582899Y8496300D01*
Y8585200D02*
Y8731000D01*
X15822021Y8572500D02*
X15836900Y8587379D01*
Y8731000D01*
X15621001Y8572500D02*
X15822021D01*
X15618822Y8570321D02*
X15621001Y8572500D01*
X15597778Y8570321D02*
X15618822D01*
X15582899Y8585200D02*
X15597778Y8570321D01*
X14770100Y8521700D02*
Y8561979D01*
X14309299Y8060898D02*
X14770100Y8521700D01*
Y8561979D02*
Y8731000D01*
X15024100Y8585200D02*
X15026279Y8583021D01*
Y8561979D02*
Y8583021D01*
X15011400Y8547100D02*
X15026279Y8561979D01*
X15024100Y8585200D02*
Y8731000D01*
X14784979Y8547100D02*
X15011400D01*
X14770100Y8561979D02*
X14784979Y8547100D01*
X14008099Y8549279D02*
Y8731000D01*
X14262100Y8559800D02*
Y8731000D01*
X14236700Y8534400D02*
X14262100Y8559800D01*
X14022980Y8534400D02*
X14236700D01*
X14008099Y8549279D02*
X14022980Y8534400D01*
X15354300Y10528300D02*
Y10731500D01*
Y10528300D02*
X15671800Y10210800D01*
X16878300D01*
X16916400Y10172700D01*
Y9334500D02*
Y10172700D01*
X16090900Y9715500D02*
Y10071100D01*
Y9715500D02*
X16395700Y9410700D01*
Y9271000D02*
Y9410700D01*
X15100301Y10301879D02*
X15115179Y10287000D01*
X15100301Y10301879D02*
Y10731500D01*
X15115179Y10287000D02*
X15303500D01*
X15341600Y10248900D01*
Y10033000D02*
Y10248900D01*
Y10033000D02*
X15379700Y9994900D01*
X15849600D01*
X16002000Y9842500D01*
Y9639300D02*
Y9842500D01*
X15836900Y9474200D02*
X16002000Y9639300D01*
X15836900Y9271000D02*
Y9474200D01*
X14973300Y10871200D02*
X15087601Y10985500D01*
X15100301D01*
X14973300Y10198100D02*
Y10871200D01*
Y10198100D02*
X15024100Y10147300D01*
X15210242D01*
X15290800Y10066742D01*
Y9610600D02*
Y10066742D01*
Y9610600D02*
X15558707Y9342694D01*
X15621001Y9258300D02*
Y9305800D01*
X14833600Y10111379D02*
X14848479Y10096500D01*
X14833600Y10111379D02*
Y10718800D01*
X14846300Y10731500D01*
X14848479Y10096500D02*
X15189200D01*
X15214600Y10071100D01*
Y9639300D02*
Y10071100D01*
X15024100Y9448800D02*
X15214600Y9639300D01*
X15024100Y9271000D02*
Y9448800D01*
X14719299Y10883900D02*
X14820900Y10985500D01*
X14846300D01*
X14719299Y10629900D02*
Y10883900D01*
X14566901Y10477500D02*
X14719299Y10629900D01*
X14566901Y9521700D02*
Y10477500D01*
Y9521700D02*
X14770100Y9318500D01*
Y9271000D02*
Y9318500D01*
X14465300Y9715500D02*
Y10604500D01*
X14592300Y10731500D01*
X14262100Y9512300D02*
X14465300Y9715500D01*
X14262100Y9271000D02*
Y9512300D01*
X13830299Y10579100D02*
X14236700Y10985500D01*
X14592300D01*
X13830299Y9652000D02*
Y10579100D01*
Y9652000D02*
X14008099Y9474200D01*
Y9271000D02*
Y9474200D01*
X13081000Y8597900D02*
Y8769100D01*
Y7632700D02*
Y8597900D01*
X12687300Y7239000D02*
X13081000Y7632700D01*
X13320120Y8585200D02*
X13335001Y8600079D01*
Y8769100D01*
X13119099Y8585200D02*
X13320120D01*
X13116920Y8583021D02*
X13119099Y8585200D01*
X13095879Y8583021D02*
X13116920D01*
X13081000Y8597900D02*
X13095879Y8583021D01*
X12534900Y8102600D02*
Y8600079D01*
X12532721Y8597900D02*
X12534900Y8600079D01*
Y8102600D02*
X12994279Y7643221D01*
X12295779Y8597900D02*
X12532721D01*
X12280900Y8612779D02*
X12295779Y8597900D01*
X11684000Y7964214D02*
Y8625479D01*
X11669121Y8610600D02*
X11684000Y8625479D01*
X11455400Y8610600D02*
X11669121D01*
X11430000Y8636000D02*
X11455400Y8610600D01*
X12272619Y7159079D02*
Y7163463D01*
X10871200Y8560498D02*
X12243149Y7188549D01*
X10858500Y8573198D02*
X10871200Y8560498D01*
Y8536579D02*
Y8560498D01*
X10858500Y8573198D02*
Y8743700D01*
X10604500Y8534400D02*
X10617200Y8521700D01*
X10856321D02*
X10871200Y8536579D01*
X10617200Y8521700D02*
X10856321D01*
X10604500Y8534400D02*
Y8743700D01*
X12204700Y10401300D02*
Y10820400D01*
Y10401300D02*
X12458700Y10147300D01*
X13398500D01*
X12865100Y9728200D02*
X13081000Y9512300D01*
X12865100Y9728200D02*
Y9906000D01*
X13398500Y10147300D02*
X13576300Y9969500D01*
Y9512300D02*
Y9969500D01*
X12710521Y10071100D02*
X12725400Y10056221D01*
Y9674081D02*
Y10056221D01*
X12534900Y9483581D02*
X12725400Y9674081D01*
X12534900Y9283700D02*
Y9483581D01*
X13081000Y9309100D02*
Y9512300D01*
X11938000Y10085979D02*
X11952879Y10071100D01*
X11938000Y10085979D02*
Y10807700D01*
X11950700Y10820400D01*
X11952879Y10071100D02*
X12710521D01*
X11794800Y10519959D02*
Y10918500D01*
X11950700Y11074400D01*
X11747500Y10472659D02*
X11794800Y10519959D01*
X11747500Y10109200D02*
Y10472659D01*
Y10109200D02*
X11950700Y9906000D01*
Y9791700D02*
Y9906000D01*
Y9791700D02*
X12280900Y9461500D01*
Y9283700D02*
Y9461500D01*
X11696700Y10058400D02*
Y10820400D01*
Y10058400D02*
X11899900Y9855200D01*
Y9705831D02*
Y9855200D01*
X11684000Y9489931D02*
X11899900Y9705831D01*
X11684000Y9283700D02*
Y9489931D01*
X11544300Y10604500D02*
Y10922000D01*
X11696700Y11074400D01*
X11264900Y10325100D02*
X11544300Y10604500D01*
X11264900Y9616931D02*
Y10325100D01*
Y9616931D02*
X11430000Y9451831D01*
Y9283700D02*
Y9451831D01*
X11049000Y10426700D02*
X11442700Y10820400D01*
X11049000Y9483600D02*
Y10426700D01*
X10452100Y9674081D02*
Y10083800D01*
X11442700Y11074400D01*
X10452100Y9674081D02*
X10604500Y9521681D01*
Y9283700D02*
Y9521681D01*
X7340600Y4102100D02*
X7531100Y3911600D01*
X7315200Y4102100D02*
X7340600D01*
X7531100Y3911600D02*
X7696200D01*
X8229600Y3378200D01*
Y2908300D02*
Y3378200D01*
Y2908300D02*
X8470900Y2667000D01*
X8688469D01*
X8929769Y2908300D01*
X9204200D01*
X7644434Y4038600D02*
X7823200D01*
X7580934Y4102100D02*
X7644434Y4038600D01*
X7569200Y4102100D02*
X7580934D01*
X7823200Y4038600D02*
X8521700Y3340100D01*
X8826500D01*
X9004300Y3162300D01*
X9204200D01*
X7416800Y4254500D02*
X7734300D01*
X7315200Y4356100D02*
X7416800Y4254500D01*
X7734300D02*
X8521700Y3467100D01*
X8813800D01*
X9017000Y3670300D01*
X9191500D01*
X7569200Y4356100D02*
X7772400D01*
X7962900Y4165600D01*
X9017000D01*
X7315200Y4864100D02*
X7429500Y4749800D01*
Y4495800D02*
X7797800D01*
X7315200Y4610100D02*
X7429500Y4495800D01*
X7797800D02*
X8051800Y4241800D01*
X8739269D01*
X8942469Y4445000D01*
X9204200D01*
X7569200Y4610100D02*
X7886700D01*
X8153400Y4876800D01*
X9042400D01*
X7429500Y4749800D02*
X7810500D01*
X7289800Y4838700D02*
X7315200Y4864100D01*
X7810500Y4749800D02*
X8115300Y5054600D01*
X8851900D01*
X9055100Y5257800D01*
X9204200D01*
X7569200Y4864100D02*
Y5080000D01*
X8216900Y5727700D01*
X8788400D01*
X9004300Y5511800D01*
X9204200D01*
X9886950Y3930650D02*
X10290551Y4334251D01*
X11632336Y6193242D02*
X11857197Y6418103D01*
X11611294Y6244042D02*
X11829929Y6462677D01*
X11557000Y6244042D02*
X11611294D01*
X11829929Y6462677D02*
X11833463D01*
X9923300Y6934200D02*
X10329782D01*
X9807700D02*
X9923300D01*
X11632336Y6121400D02*
X11899468Y6388532D01*
X11142582Y6121400D02*
X11632336D01*
X10329782Y6934200D02*
X11142582Y6121400D01*
X9967321Y6070600D02*
X11653378D01*
X11935389Y6352611D01*
X9893300Y5257800D02*
X10912419D01*
X9744200D02*
X9893300D01*
X10912419D02*
X11964960Y6310340D01*
X9956800Y4699000D02*
X10425461D01*
X9744200D02*
X9956800D01*
X10290551Y4492248D02*
X12043151Y6244848D01*
X9731500Y3924300D02*
X9886950D01*
X10290551Y4334251D02*
Y4492248D01*
X10479060Y4608915D02*
X12066372Y6196227D01*
X10479060Y3849660D02*
Y4608915D01*
X9791700Y3162300D02*
X10479060Y3849660D01*
X9744200Y3162300D02*
X9791700D01*
X11846163Y6475377D02*
X11884263Y6513477D01*
X9731500Y3670300D02*
X9867900D01*
X9931400Y3733800D01*
Y3898900D01*
X9906000Y3924300D02*
X9931400Y3898900D01*
X9744200Y4445000D02*
X9944100D01*
X9971679Y4472579D01*
Y4684121D01*
X9956800Y4699000D02*
X9971679Y4684121D01*
X9744200Y5511800D02*
X9916521D01*
X9893300Y5257800D02*
X9931400Y5295900D01*
Y5496921D01*
X9916521Y5511800D02*
X9931400Y5496921D01*
X9855200Y8636000D02*
X10005421D01*
X10761071Y7039971D02*
X11557000Y6244042D01*
X10761071Y7039971D02*
Y7730129D01*
X9855200Y8636000D02*
X10761071Y7730129D01*
X9807700Y8636000D02*
X9855200D01*
X9807700Y7188200D02*
X9941921D01*
X9956800Y7173321D01*
Y6967700D02*
Y7173321D01*
X9923300Y6934200D02*
X9956800Y6967700D01*
X9941921Y7975600D02*
X9956800Y7960721D01*
X9807700Y7975600D02*
X9941921D01*
X10018121Y8890000D02*
X10020300Y8887821D01*
X9807700Y8890000D02*
X10018121D01*
X10020300Y8650879D02*
Y8887821D01*
X10005421Y8636000D02*
X10020300Y8650879D01*
X7315200Y6311900D02*
X7683500Y5943600D01*
X7315200Y6311900D02*
Y7124700D01*
X7683500Y5943600D02*
X8851900D01*
X8978900Y6070600D01*
X9267700D01*
X7759700Y6540500D02*
Y6934200D01*
X7569200Y7124700D02*
X7759700Y6934200D01*
Y6540500D02*
X7785100Y6515100D01*
X7416800Y7277100D02*
X7962900D01*
X7315200Y7378700D02*
X7416800Y7277100D01*
X7962900D02*
X8496300Y6743700D01*
X8839200D01*
X9029700Y6934200D01*
X9267700D01*
X7569200Y7378700D02*
X9029700D01*
X7413300Y7534600D02*
X8880800D01*
X9042400Y7696200D01*
X7569200Y7632700D02*
Y7645400D01*
X8013700Y8089900D01*
X9004300D01*
X9144000Y7950200D01*
X9267700D01*
X8115300Y8343900D02*
X8763000D01*
X7569200Y7886700D02*
Y8229600D01*
X8547100Y9207500D01*
X7315200Y7632700D02*
X7413300Y7534600D01*
X9042400Y7696200D02*
X9267700D01*
X8763000Y8343900D02*
X9055100Y8636000D01*
X9267700D01*
X16653200Y5007300D02*
X16700500Y5054600D01*
D22*
X17538699Y8013700D02*
D03*
D23*
Y8267700D02*
D03*
Y8521700D02*
D03*
D24*
X14071600Y6689000D02*
D03*
X13821600D02*
D03*
X13571600D02*
D03*
X14071600Y7239000D02*
D03*
X13821600D02*
D03*
D25*
X13571600D02*
D03*
D26*
X7099300Y10870500D02*
D03*
Y10240500D02*
D03*
X16505200Y2969000D02*
D03*
D27*
X7559300Y10540500D02*
D03*
X16835201Y3429000D02*
D03*
X16205200D02*
D03*
D28*
X14681200Y7678200D02*
D03*
X15354300Y10985500D02*
D03*
X12788900Y2019300D02*
D03*
X12204700Y11074400D02*
D03*
D29*
X14681200Y7188200D02*
D03*
X14592300Y10731500D02*
D03*
X14846300D02*
D03*
X15100301D02*
D03*
X15354300D02*
D03*
X14592300Y10985500D02*
D03*
X14846300D02*
D03*
X15100301D02*
D03*
X15544800Y7073900D02*
D03*
Y7327900D02*
D03*
Y7581900D02*
D03*
X11010900Y7556500D02*
D03*
Y7302500D02*
D03*
X16446500Y5816600D02*
D03*
Y5562600D02*
D03*
Y5308600D02*
D03*
Y5054600D02*
D03*
X16700500Y5816600D02*
D03*
Y5562600D02*
D03*
Y5308600D02*
D03*
X12534900Y2019300D02*
D03*
X12280900D02*
D03*
X12026900D02*
D03*
X12788900Y1765300D02*
D03*
X12534900D02*
D03*
X12280900D02*
D03*
X12026900D02*
D03*
X7315200Y4610100D02*
D03*
Y4356100D02*
D03*
Y4102100D02*
D03*
X7569200Y4864100D02*
D03*
Y4610100D02*
D03*
Y4356100D02*
D03*
Y4102100D02*
D03*
X7315200Y7632700D02*
D03*
Y7378700D02*
D03*
Y7124700D02*
D03*
X7569200Y7886700D02*
D03*
Y7632700D02*
D03*
Y7378700D02*
D03*
Y7124700D02*
D03*
X11950700Y11074400D02*
D03*
X11696700D02*
D03*
X11442700D02*
D03*
X12204700Y10820400D02*
D03*
X11950700D02*
D03*
X11696700D02*
D03*
X11442700D02*
D03*
D30*
X15544800Y7835900D02*
D03*
X11010900Y7810500D02*
D03*
X16700500Y5054600D02*
D03*
X7315200Y4864100D02*
D03*
Y7886700D02*
D03*
D31*
X12642850Y5607050D02*
D03*
X13550900Y6946900D02*
D03*
X15201900Y7678200D02*
D03*
X14224001Y7048500D02*
D03*
X12344400Y6667500D02*
D03*
X16210201Y3530600D02*
D03*
X16197501Y3543300D02*
D03*
X12992101Y6032500D02*
D03*
X12661900Y6375400D02*
D03*
X12573000Y5816600D02*
D03*
X12465050Y5822950D02*
D03*
X13055600Y5918200D02*
D03*
X11633200Y7188200D02*
D03*
X11961745Y5996055D02*
D03*
X11861800Y7073900D02*
D03*
X12179300Y7391400D02*
D03*
X13220700Y7175500D02*
D03*
X11513123Y6969555D02*
D03*
D32*
X8966200Y6210300D02*
D03*
X13157201Y2501900D02*
D03*
X11176000Y3086100D02*
D03*
X11925300Y3066800D02*
D03*
X13474699Y3086100D02*
D03*
X12712700Y3098800D02*
D03*
X15938499Y4673600D02*
D03*
X15379700Y4343400D02*
D03*
Y4991100D02*
D03*
X15392400Y5702300D02*
D03*
X15379700Y6324600D02*
D03*
X16090900Y10071100D02*
D03*
X16535400Y9499600D02*
D03*
X15709900Y9482300D02*
D03*
X14909801Y9512300D02*
D03*
X14109700Y9525000D02*
D03*
X12865100Y9906000D02*
D03*
X13208000Y9588500D02*
D03*
X12407900Y9550400D02*
D03*
X11557000Y9575800D02*
D03*
X10731500D02*
D03*
X8991600Y3022600D02*
D03*
X8966200Y3797300D02*
D03*
Y4572000D02*
D03*
Y5384800D02*
D03*
Y7048500D02*
D03*
X8089900Y8343900D02*
D03*
X8966200Y7848600D02*
D03*
Y8763000D02*
D03*
%TF.MD5,3e560a731c5e15d62c5162a8d1eed92e*%
M02*
